<svg width="471" height="386" viewBox="0 0 471 386" fill="none" xmlns="http://www.w3.org/2000/svg">
    <path d="M103.805 7.61621C103.805 10.5445 103.724 13.484 103.82 16.4103C103.981 21.3173 104.841 26.1883 104.886 31.1171C104.962 39.4095 104.886 47.706 104.886 55.9987C104.886 61.8714 104.886 67.7442 104.886 73.6169C104.886 80.5979 104.609 87.6415 105.276 94.5967C105.64 98.3945 105.661 102.398 105.696 106.212C105.726 109.395 105.966 112.544 105.966 115.726C105.966 118.521 106.365 121.665 106.912 124.401C107.558 127.631 107.167 131.144 107.377 134.425C107.763 140.458 107.727 146.503 108.142 152.524C108.287 154.616 109.174 156.608 109.208 158.676C109.24 160.655 109.478 162.577 109.478 164.559C109.478 166.769 109.489 168.873 109.958 171.042C110.123 171.804 110.288 173.023 110.288 173.743"
          stroke="#DB4437" strokeWidth="3" strokeLinecap="round"/>
    <path d="M110.324 171.304C110.324 179.877 111.876 188.425 113.254 196.847C113.533 198.551 113.689 200.201 113.354 201.921C113.16 202.923 113.356 203.968 113.254 204.98C113.14 206.12 113.154 207.25 113.154 208.396C113.154 212.241 113.154 216.086 113.154 219.931"
          stroke="#DB4437" strokeWidth="3" strokeLinecap="round"/>
    <path d="M112.896 220.574C112.776 223.689 112.312 226.741 112.639 229.865C113.011 233.419 113.025 236.935 113.025 240.507C113.025 247.244 113.287 254.045 112.961 260.775C112.606 268.085 113.181 275.428 112.796 282.737C112.59 286.655 112.768 290.617 112.768 294.543"
          stroke="#DB4437" strokeWidth="3" strokeLinecap="round"/>
    <path d="M112.382 294.672C112.382 299.753 112.382 304.835 112.382 309.916C112.382 312.171 112.125 314.39 112.125 316.641C112.125 319.43 112.014 322.213 111.996 325.003C111.964 330.203 111.868 335.407 111.868 340.611C111.868 344.496 111.61 348.367 111.61 352.253C111.61 356.792 111.868 361.345 111.868 365.882C111.868 369.677 111.739 373.479 111.739 377.26"
          stroke="#DB4437" strokeWidth="3" strokeLinecap="round"/>
    <path d="M103.728 6.83203C105.201 7.07262 106.304 6.93547 107.748 6.82C109.735 6.66102 111.47 5.27703 113.465 5.11078C116.314 4.87338 119.268 3.8185 121.927 2.93213"
          stroke="#DB4437" strokeWidth="3" strokeLinecap="round"/>
    <path d="M121.276 4.23193C121.311 5.0874 121.92 6.30811 122.372 7.06057C123.35 8.69101 123.226 11.3263 123.226 13.1632C123.226 15.382 123.226 17.6007 123.226 19.8195C123.226 22.1385 122.793 24.3862 122.793 26.7166C122.793 36.9598 122.793 47.2031 122.793 57.4464C122.793 64.1468 122.793 70.8473 122.793 77.5477C122.793 83.5221 123.443 89.3716 123.443 95.338C123.443 98.2803 123.495 101.177 123.708 104.113C123.849 106.06 124.31 107.967 124.31 109.878C124.31 111.712 124.31 113.546 124.31 115.379C124.31 115.867 124.087 117.109 124.526 117.329"
          stroke="#DB4437" strokeWidth="3" strokeLinecap="round"/>
    <path d="M123.688 117.914C123.688 119.077 124.185 120.178 124.482 121.297C124.979 123.167 125.02 125.23 125.394 127.151C126.163 131.108 126.07 135.215 126.07 139.227C126.07 146.596 126.07 153.966 126.07 161.335C126.07 169.7 126.557 178.104 126.07 186.37C125.968 188.104 125.011 189.923 125.011 191.65C125.011 193.866 124.747 196.136 124.747 198.387C124.747 202.255 124.747 206.124 124.747 209.992C124.747 218.568 124.747 227.143 124.747 235.719C124.747 238.377 124.753 241.389 125.217 244C125.379 244.911 124.719 248.561 125.541 248.972"
          stroke="#DB4437" strokeWidth="3" strokeLinecap="round"/>
    <path d="M125.541 248.707C125.541 259.395 126.283 270.398 125.07 281.008C124.757 283.75 124.746 286.724 124.746 289.481C124.746 293.118 124.217 296.71 124.217 300.351C124.217 306.612 124.217 312.873 124.217 319.134C124.217 330.74 124.217 342.345 124.217 353.951C124.217 358.6 123.952 363.203 123.952 367.851C123.952 369.705 124.217 371.496 124.217 373.352C124.217 373.969 123.878 376.286 124.482 376.588"
          stroke="#DB4437" strokeWidth="3" strokeLinecap="round"/>
    <path d="M122.986 1.72559C123.047 2.274 124.117 2.30594 124.499 2.54516C124.962 2.83427 125.653 2.79258 126.167 2.98647C126.758 3.21002 127.412 3.25246 128.03 3.36473C129.942 3.71233 131.77 4.28932 133.452 5.12996"
          stroke="#DB4437" strokeWidth="3" strokeLinecap="round"/>
    <path d="M133.956 6.26465C133.956 14.7145 134.005 23.1586 134.082 31.6084C134.101 33.6796 134.693 35.7033 134.713 37.7867C134.73 39.6192 134.713 41.4529 134.713 43.2855C134.713 44.1702 134.315 51.152 135.091 51.152"
          stroke="#DB4437" strokeWidth="3" strokeLinecap="round"/>
    <path d="M134.808 51.9878C134.808 56.0451 135.152 60.1001 136.249 64.0198C137.083 66.9971 136.812 70.1324 137.132 73.1689C137.667 78.2528 137.19 83.6111 137.19 88.7311C137.19 93.0377 137.72 97.3153 137.72 101.616C137.72 107.342 137.985 113.087 137.985 118.826C137.985 128.514 137.985 138.203 137.985 147.891C137.985 155.77 137.985 163.649 137.985 171.529C137.985 173.849 138.546 177.031 137.926 179.28C137.57 180.571 136.926 181.743 136.926 183.105C136.926 187.212 136.661 191.261 136.661 195.357C136.661 198.447 136.131 201.463 136.131 204.55C136.131 205.766 136.131 209.414 136.131 208.198"
          stroke="#DB4437" strokeWidth="3" strokeLinecap="round"/>
    <path d="M135.339 206.61C135.848 212.214 136.848 217.904 136.927 223.555C137.013 229.606 137.192 235.661 137.192 241.735C137.192 248.717 137.192 255.699 137.192 262.681C137.192 268.78 137.722 274.895 137.722 280.994C137.722 293.593 138.26 306.318 137.075 318.855C136.63 323.557 137.08 328.309 136.722 333.02C136.498 335.953 136.576 338.935 136.413 341.875C136.25 344.805 136.133 347.695 136.133 350.641"
          stroke="#DB4437" strokeWidth="3" strokeLinecap="round"/>
    <path d="M136.926 349.052C136.048 350.04 136.396 352.098 136.396 353.288C136.396 355.603 136.396 357.917 136.396 360.231C136.396 362.697 136.311 365.18 136.396 367.645C136.436 368.79 136.926 369.865 136.926 371.028C136.926 371.905 136.877 372.799 136.926 373.675C136.983 374.703 137.191 375.949 137.191 377.117"
          stroke="#DB4437" strokeWidth="3" strokeLinecap="round"/>
    <path d="M165.396 27.8755C165.396 32.8798 165.101 37.9574 165.606 42.9425C165.891 45.7589 165.571 48.378 166.206 51.1663C167.795 58.1404 168.908 65.2863 168.908 72.4462C168.908 87.7984 168.908 103.15 168.908 118.503C168.908 121.576 168.797 124.675 168.923 127.747C169.125 132.698 170.799 137.305 170.799 142.259C170.799 148.801 171.232 155.398 171.339 161.918C171.433 167.673 172.419 173.378 172.419 179.146C172.419 180.605 172.386 182.681 172.704 184.113C172.856 184.794 173.23 186.281 173.23 184.278"
          stroke="#DB4437" strokeWidth="3" strokeLinecap="round"/>
    <path d="M165.126 27.6056C166.821 27.6056 168.41 27.0083 170.093 26.8102C172.052 26.5798 174.019 25.5508 175.931 25.4446C177.441 25.3607 178.933 24.6724 180.388 24.3491C181.242 24.1594 181.817 23.5537 182.684 23.5537"
          stroke="#DB4437" strokeWidth="3" strokeLinecap="round"/>
    <path d="M183.492 23.8237C183.492 27.5485 184.032 31.2002 184.032 34.8989C184.032 39.6511 184.032 44.4033 184.032 49.1555C184.032 53.1066 183.444 57.539 184.092 61.4312C184.39 63.2176 184.484 65.156 184.558 66.9688C184.68 69.9605 185.08 72.9673 185.113 75.958C185.172 81.4039 185.759 86.797 186.133 92.2255C186.515 97.7611 186.017 103.422 187.004 108.913C187.889 113.834 186.987 119.007 187.484 123.98C187.713 126.267 187.544 128.632 187.544 130.929C187.544 133.143 187.814 135.317 187.814 137.532C187.814 145.559 187.456 153.691 187.829 161.708C187.93 163.878 188.324 166.048 188.354 168.221C188.38 170.07 188.152 172.024 188.49 173.849C188.783 175.436 188.895 176.932 188.895 178.546C188.895 180.305 189.282 181.87 189.42 183.588C189.75 187.715 190.515 191.45 190.515 195.609C190.515 198.225 190.515 200.841 190.515 203.457"
          stroke="#DB4437" strokeWidth="3" strokeLinecap="round"/>
    <path d="M173.851 200.637C173.851 202.937 173.851 205.237 173.851 207.536C173.851 208.884 174.285 210.12 174.32 211.436C174.353 212.677 174.507 213.557 174.92 214.735C175.165 215.436 175.151 216.165 175.39 216.848C175.598 217.443 176.108 218.111 176.185 218.726C176.304 219.681 176.407 220.824 176.433 221.765C176.471 223.143 176.902 224.414 176.902 225.756C176.902 230.665 178.242 235.454 178.833 240.311C179.144 242.872 179.799 245.495 179.941 248.057C180.073 250.431 180.893 252.731 180.893 255.1C180.893 257.867 181.597 260.597 181.597 263.329C181.597 267.933 181.597 272.537 181.597 277.141C181.597 283.735 182.771 290.201 182.771 296.769C182.771 300.249 183.678 303.631 183.71 307.085C183.727 308.852 184.18 310.69 184.18 312.38"
          stroke="#DB4437" strokeWidth="3" strokeLinecap="round"/>
    <path d="M184.65 311.91C184.65 317.901 184.65 323.891 184.65 329.882C184.65 332.144 185.508 334.181 186.059 336.325C186.455 337.865 186.857 339.442 187.05 341.02C187.247 342.627 187.904 344.143 187.937 345.767C188.045 351.109 187.937 356.465 187.937 361.808C187.937 363.749 188.07 365.758 188.354 367.677C188.443 368.279 188.338 370.564 188.876 370.833"
          stroke="#DB4437" strokeWidth="3" strokeLinecap="round"/>
    <path d="M190.268 203.822C189.92 203.866 189.822 206.187 189.788 206.501C189.471 209.462 189.5 212.44 189.5 215.413C189.5 217.532 189.474 219.654 189.5 221.773C189.536 224.702 190.278 227.533 190.802 230.397C192.037 237.146 191.914 244.041 192.285 250.877C192.453 253.967 192.75 257.01 192.766 260.109C192.782 263.295 192.842 266.53 193.001 269.714C193.265 275.031 193.918 280.348 193.918 285.669C193.918 291.087 194.948 296.403 195.647 301.752C196.219 306.124 196.992 310.277 196.992 314.666"
          stroke="#DB4437" strokeWidth="3" strokeLinecap="round"/>
    <path d="M197.569 314.282C197.569 316.331 197.569 318.38 197.569 320.429C197.569 323.396 197.285 326.524 197.687 329.469C198.153 332.885 199.083 336.233 199.597 339.639C200.175 343.464 200.822 347.291 201.326 351.123C202.063 356.721 201.988 362.417 201.988 368.06C201.988 368.786 202.18 369.462 202.18 370.184C202.18 371.491 202.353 367.542 202.372 367.302"
          stroke="#DB4437" strokeWidth="3" strokeLinecap="round"/>
    <path d="M200.614 201.106C199.258 204.071 199.662 207.672 199.427 210.849C199.198 213.932 199.205 217.005 199.205 220.108C199.205 221.617 199.205 223.125 199.205 224.634C199.205 227.139 199.945 229.704 200.275 232.198C200.422 233.312 200.755 234.381 200.953 235.485C201.14 236.527 201.003 237.571 201.135 238.615C201.324 240.099 201.88 241.52 202.009 243.01C202.277 246.095 202.961 249.214 202.961 252.335C202.961 254.383 203.33 256.358 203.665 258.373C203.914 259.866 203.834 261.356 204.083 262.847C204.754 266.874 204.604 271.21 204.604 275.289C204.604 280.075 204.795 284.846 204.839 289.635C204.853 291.154 205.164 292.652 205.543 294.121C205.742 294.892 205.701 295.643 205.83 296.416C205.988 297.359 206.523 298.181 206.704 299.116C207.054 300.924 207.8 302.598 208.074 304.45C208.302 306.001 208.36 307.78 208.36 309.341C208.36 316.853 208.36 324.365 208.36 331.877C208.36 334.22 208.36 336.564 208.36 338.907C208.36 341.114 208.83 343.455 208.83 345.715C208.83 347.538 208.478 349.815 208.882 351.583C209.056 352.343 208.866 353.339 209.182 354.035C209.266 354.221 209.218 354.572 209.313 354.713C209.389 354.829 209.503 354.511 209.586 354.4C210.054 353.783 210.493 353.152 210.943 352.522"
          stroke="#DB4437" strokeWidth="3" strokeLinecap="round"/>
    <path d="M209.064 343.367C209.064 346.347 208.864 349.501 209.534 352.418C209.979 354.354 210.599 356.275 210.994 358.209C211.494 360.649 211.412 368.159 211.412 365.669"
          stroke="#DB4437" strokeWidth="3" strokeLinecap="round"/>
    <path d="M216.106 255.569C216.106 261.66 215.871 267.767 215.871 273.88C215.871 281.657 215.871 289.435 215.871 297.212C215.871 301.047 215.594 304.998 216.106 308.806C216.486 311.635 216.175 314.478 216.458 317.31C216.951 322.247 216.332 327.257 216.758 332.203C217.263 338.08 216.81 344.171 216.81 350.071C216.81 354.832 216.326 359.912 217.097 364.625C217.431 366.669 217.749 368.759 217.749 370.833"
          stroke="#DB4437" strokeWidth="3" strokeLinecap="round"/>
    <path d="M201.082 202.045C201.082 206.646 201.21 211.088 202.673 215.479C203.42 217.72 203.252 220.373 203.782 222.704C204.04 223.84 203.95 225.02 204.186 226.173C204.406 227.247 204.704 228.423 204.825 229.512C205.017 231.235 205.073 233.075 205.073 234.807C205.073 236.218 205.312 237.882 205.06 239.267C204.827 240.547 204.838 241.764 204.838 243.075C204.838 243.719 204.838 244.362 204.838 245.005C204.838 245.433 204.582 247.384 205.073 246.649"
          stroke="#DB4437" strokeWidth="3" strokeLinecap="round"/>
    <path d="M195.919 73.166C195.146 73.5093 195.449 75.621 195.449 76.27C195.449 78.0698 195.449 79.8695 195.449 81.6693C195.449 84.9559 195.449 88.2424 195.449 91.529C195.449 100.433 195.485 109.776 196.858 118.578C197.425 122.218 197.655 125.929 198.266 129.559C198.969 133.735 198.802 137.972 199.153 142.184C199.822 150.213 201.318 158.013 201.318 166.115C201.318 168.693 201.318 171.271 201.318 173.849C201.318 175.699 201.596 177.817 201.188 179.627C200.447 182.906 200.482 186.377 200.131 189.708C199.86 192.286 199.909 194.876 199.909 197.481C199.909 198.181 199.909 198.881 199.909 199.581C199.909 200.378 199.617 201.121 200.614 200.872"
          stroke="#DB4437" strokeWidth="3" strokeLinecap="round"/>
    <path d="M193.57 25.2764C193.57 32.1266 194.346 39.1175 194.966 45.9347C195.255 49.1185 195.918 52.2884 195.918 55.5074C195.918 57.3115 195.918 59.1156 195.918 60.9198C195.918 65.1569 195.853 69.399 195.918 73.6356C195.928 74.2664 196.1 72.3863 196.153 71.7576"
          stroke="#DB4437" strokeWidth="3" strokeLinecap="round"/>
    <path d="M183.945 23.3979C186.938 23.3979 189.814 24.5717 192.866 24.5717" stroke="#DB4437" strokeWidth="3"
          strokeLinecap="round"/>
    <path d="M195.828 36.5811C196.567 36.4629 197.275 36.3859 198.004 36.2265C198.713 36.0715 199.267 35.7593 199.955 35.5655C202.149 34.9475 204.27 34.0651 206.556 33.8245C207.739 33.7 208.72 32.9183 209.829 32.6718C210.359 32.5541 210.951 32.2285 211.497 32.2285"
          stroke="#DB4437" strokeWidth="3" strokeLinecap="round"/>
    <path d="M212.368 31.793C212.806 31.8477 213.401 32.8734 213.908 33.0987C214.639 33.4236 215.562 33.5914 216.213 34.0418C217.201 34.7258 218.635 34.6165 219.623 35.2751"
          stroke="#DB4437" strokeWidth="3" strokeLinecap="round"/>
    <path d="M210.627 32.6636C211.079 32.8644 210.96 34.2091 211.062 34.6303C211.302 35.6157 211.481 36.6015 211.715 37.5885C211.968 38.6578 212.078 39.756 212.078 40.8529C212.078 43.0926 212.145 45.487 212.586 47.6881C212.719 48.3538 212.62 49.0307 212.666 49.7032C212.731 50.6457 213.103 51.5647 213.206 52.5082C213.373 54.0257 213.384 55.6455 213.384 57.1752C213.384 60.4619 213.053 63.9305 213.416 67.1942C213.78 70.4748 213.529 73.903 213.529 77.2052C213.529 83.5111 213.529 89.817 213.529 96.1229C213.529 100.602 213.529 105.081 213.529 109.56C213.529 112.12 213.487 114.759 214.109 117.249"
          stroke="#DB4437" strokeWidth="3" strokeLinecap="round"/>
    <path d="M214.255 116.669C214.255 127.465 215.182 138.205 215.27 149.007C215.31 153.847 215.528 158.692 215.561 163.532C215.587 167.304 215.466 171.082 215.674 174.849C215.864 178.298 215.86 181.478 216.802 184.827C217.084 185.831 217.447 186.854 217.447 187.907"
          stroke="#DB4437" strokeWidth="3" strokeLinecap="round"/>
    <path d="M216.866 188.342C216.866 211.225 216.721 234.087 216.721 256.968" stroke="#DB4437" strokeWidth="3"
          strokeLinecap="round"/>
    <path d="M138.414 180.352C139.764 180.352 141.057 181.226 142.408 181.376C144.601 181.619 146.86 181.865 149.036 182.24C150.61 182.511 152.236 182.459 153.818 182.651C154.747 182.764 155.638 183.093 156.57 183.188C158.032 183.337 159.456 183.515 160.908 183.733C164.37 184.253 167.87 184.588 171.337 185.118C173.798 185.494 176.293 185.897 178.771 186.124C180.906 186.321 183.112 186.695 185.231 186.695"
          stroke="#DB4437" strokeWidth="3" strokeLinecap="round"/>
    <path d="M138.564 187.903C141.271 187.903 143.95 188.333 146.653 188.474C149.791 188.637 152.916 188.753 156.05 188.994C157.268 189.088 158.48 189.207 159.699 189.271C160.749 189.326 161.762 189.728 162.812 189.833C165.215 190.073 167.452 190.723 169.818 191.159C172.758 191.7 175.638 192.454 178.577 192.963C179.676 193.153 180.769 193.317 181.874 193.458C182.573 193.546 183.203 193.449 183.871 193.709C184.272 193.865 185.341 193.712 185.533 194.095"
          stroke="#DB4437" strokeWidth="3" strokeLinecap="round"/>
    <path d="M185.834 187.299C185.834 188.804 185.834 190.309 185.834 191.813C185.834 192.708 185.588 194.056 185.985 194.85"
          stroke="#DB4437" strokeWidth="3" strokeLinecap="round"/>
    <path d="M139.168 192.283C139.893 192.665 140.469 192.818 141.299 192.896C142.742 193.031 144.144 193.396 145.595 193.491C147.689 193.629 149.962 193.922 152.005 194.398C152.695 194.558 153.416 194.621 154.119 194.7C154.987 194.796 155.764 195.176 156.62 195.295C158.537 195.563 160.431 196.297 162.308 196.78C165.58 197.622 168.941 197.998 172.242 198.777C173.642 199.108 175.182 199.532 176.622 199.532"
          stroke="#DB4437" strokeWidth="3" strokeLinecap="round"/>
    <path d="M176.924 199.683C177.745 199.635 178.733 198.518 179.458 198.106C180.547 197.486 181.679 197.164 182.856 196.747C183.369 196.564 184.085 196.059 184.626 196.059"
          stroke="#DB4437" strokeWidth="3" strokeLinecap="round"/>
    <path d="M220.93 35.8535C220.93 42.363 221.415 48.8513 222.074 55.3151C222.314 57.6579 222.387 59.957 222.387 62.3111C222.387 65.4942 222.895 68.6044 223.589 71.7007C224.278 74.7722 224.45 78.1639 224.468 81.2985C224.494 85.6678 224.587 90.023 224.665 94.3885C224.76 99.7292 225.301 105.009 225.301 110.358C225.301 114.648 225.301 118.938 225.301 123.228C225.301 129.873 225.301 136.519 225.301 143.164C225.301 147.187 225.263 151.179 225.601 155.19C225.837 157.98 226.133 160.762 226.133 163.562C226.133 168.38 226.133 173.198 226.133 178.017"
          stroke="#DB4437" strokeWidth="3" strokeLinecap="round"/>
    <path d="M226.551 180.306C226.551 185.915 226.489 191.457 226.031 197.05C225.41 204.622 224.886 212.129 224.886 219.738C224.886 227.994 224.886 236.251 224.886 244.507C224.886 250.189 224.262 255.801 224.262 261.483C224.262 267.962 224.262 274.442 224.262 280.921C224.262 283.786 224.354 286.621 224.458 289.478C224.54 291.725 224.317 294.002 224.516 296.243C224.693 298.233 224.861 300.235 224.886 302.233C224.912 304.296 225.6 306.266 225.707 308.304C225.853 311.068 225.719 313.871 225.719 316.641"
          stroke="#DB4437" strokeWidth="3" strokeLinecap="round"/>
    <path d="M225.719 316.642C226.192 316.878 225.927 318.574 225.927 318.977C225.927 321.494 225.927 324.011 225.927 326.528C225.927 331.421 226.135 336.303 226.135 341.191C226.135 345.524 226.343 349.826 226.343 354.154C226.343 357.096 225.911 360.474 226.447 363.37C226.758 365.049 227.176 366.978 227.176 368.678"
          stroke="#DB4437" strokeWidth="3" strokeLinecap="round"/>
    <path d="M247.11 53.5547C251.255 52.8061 255.347 51.866 259.427 50.9592C260.929 50.6255 262.56 50.794 264.099 50.794"
          stroke="#DB4437" strokeWidth="3" strokeLinecap="round"/>
    <path d="M245.411 55.6782C245.411 56.4594 245.807 57.0461 245.836 57.8018C245.897 59.4215 246.492 61.0055 246.697 62.6153C247.463 68.6178 248.347 74.6606 248.384 80.7368C248.421 86.7138 248.384 92.6923 248.384 98.6694C248.384 101.936 248.3 105.205 248.597 108.462C248.857 111.322 248.63 114.199 248.915 117.05C249.296 120.862 248.897 124.724 249.281 128.518C249.471 130.4 249.76 132.265 249.918 134.157C250.101 136.353 250.002 138.555 250.402 140.729C251.319 145.723 251.973 150.711 253.221 155.653C253.656 157.375 253.481 159.24 253.481 161.009"
          stroke="#DB4437" strokeWidth="3" strokeLinecap="round"/>
    <path d="M253.268 160.584C252.268 161.834 252.843 164.828 252.843 166.306C252.843 168.845 253.268 171.303 253.268 173.845C253.268 175.862 253.268 177.88 253.268 179.897C253.268 181.652 253.03 183.614 253.374 185.336C253.819 187.561 253.445 189.868 253.905 192.084C254.117 193.101 254.542 193.98 254.542 195.034C254.542 196.84 255.392 198.503 255.392 200.295"
          stroke="#DB4437" strokeWidth="3" strokeLinecap="round"/>
    <path d="M227.734 198.094C227.785 198.221 227.977 198.36 228.101 198.403C229.826 198.999 231.959 198.94 233.753 199.091C235.413 199.231 237.055 199.229 238.717 199.229C239.682 199.229 240.647 199.229 241.612 199.229C242.419 199.229 243.142 199.425 243.934 199.515C247.294 199.897 250.594 200.64 253.896 201.344C255.427 201.67 256.952 202.201 258.482 202.485C259.932 202.753 261.383 203.018 262.827 203.299C264.14 203.554 265.844 203.581 267.046 204.181"
          stroke="#DB4437" strokeWidth="3" strokeLinecap="round"/>
    <path d="M227.32 204.594C227.32 204.942 227.508 204.944 227.859 204.984C228.968 205.11 230.068 205.335 231.184 205.397C233.603 205.531 236.042 205.42 238.464 205.517C239.204 205.547 239.892 205.676 240.625 205.775C241.459 205.887 242.296 205.799 243.13 205.936C245.075 206.253 247.008 206.488 248.931 206.962C250.732 207.405 252.581 207.716 254.405 208.051C256.203 208.381 257.975 208.837 259.776 209.134C261.612 209.437 263.4 210.003 265.228 210.315C265.655 210.388 266.001 210.476 266.426 210.476"
          stroke="#DB4437" strokeWidth="3" strokeLinecap="round"/>
    <path d="M266.943 204.697C266.943 206.599 267.047 208.477 267.047 210.372" stroke="#DB4437" strokeWidth="3"
          strokeLinecap="round"/>
    <path d="M227.219 208.721C227.335 209.04 227.835 209.161 228.113 209.237C229.511 209.622 230.985 209.848 232.412 210.103C234.484 210.472 236.55 210.782 238.614 211.198C242.78 212.035 246.933 212.951 251.099 213.777C254.207 214.393 257.339 214.89 260.483 215.273C261.153 215.355 261.832 215.325 262.506 215.325"
          stroke="#DB4437" strokeWidth="3" strokeLinecap="round"/>
    <path d="M262.402 215.325C263.249 214.091 264.357 213.037 265.297 211.874C265.67 211.413 266.098 210.998 266.467 210.533C266.627 210.33 266.695 210.042 266.942 209.959"
          stroke="#DB4437" strokeWidth="3" strokeLinecap="round"/>
    <path d="M255.387 216.955C255.913 217.072 255.834 218.379 255.958 218.767C256.381 220.087 256.659 221.411 256.805 222.796C257.014 224.782 257.463 227.332 258.223 229.179C258.669 230.26 258.921 231.59 259.179 232.735C259.554 234.404 259.987 236.057 260.351 237.738C261.236 241.82 261.739 246.151 262.026 250.307C262.269 253.835 262.624 257.345 262.439 260.886C262.313 263.305 262.301 265.711 262.301 268.135C262.301 270.67 262.301 273.205 262.301 275.739C262.301 278.97 262.918 281.861 263.523 285.018C264.583 290.553 264.252 296.191 264.252 301.802C264.252 304.193 264.429 306.577 264.429 308.973"
          stroke="#DB4437" strokeWidth="3" strokeLinecap="round"/>
    <path d="M264.783 304.363C265.216 305.093 265.273 305.956 265.492 306.767C265.87 308.163 266.115 309.564 266.28 311.002C266.616 313.93 266.865 316.946 267.049 319.887C267.445 326.232 266.77 332.709 268.329 338.946C268.888 341.18 268.803 343.542 269.216 345.812C269.566 347.737 269.928 349.687 270.358 351.594C270.549 352.44 270.811 353.454 270.811 354.322C270.811 356.067 270.927 353.529 270.989 352.943"
          stroke="#DB4437" strokeWidth="3" strokeLinecap="round"/>
    <path d="M271.385 216.466C270.971 216.788 271.033 217.788 271.019 218.244C270.977 219.6 271.005 220.969 271.197 222.313C271.429 223.938 271.759 225.562 271.95 227.188C272.338 230.49 272.479 233.854 272.933 237.136C273.187 238.97 273.302 240.799 273.54 242.638C273.839 244.948 274.054 247.324 274.293 249.647C274.949 256.018 275.614 262.394 276.281 268.769C276.906 274.74 278.079 280.603 278.823 286.552C279.469 291.726 279.293 296.934 279.293 302.138C279.293 306.971 279.293 311.803 279.293 316.636"
          stroke="#DB4437" strokeWidth="3" strokeLinecap="round"/>
    <path d="M278.915 317.39C278.915 318.868 279.155 320.4 279.333 321.867C279.539 323.551 279.586 325.278 279.856 326.951C280.204 329.103 279.885 331.284 280.233 333.436C280.587 335.629 280.801 337.823 281.321 339.984C282.636 345.448 283.246 350.985 283.246 356.596C283.246 357.837 283.246 359.078 283.246 360.32C283.246 360.694 283.434 361.122 283.434 360.508"
          stroke="#DB4437" strokeWidth="3" strokeLinecap="round"/>
    <path d="M271.977 216.366C271.977 212.605 271.977 208.845 271.977 205.084C271.977 202.289 271.977 199.494 271.977 196.698C271.977 194.315 272.192 191.882 271.56 189.604C270.99 187.552 271.024 185.367 270.79 183.265C270.638 181.897 270.364 180.472 270.334 179.092C270.319 178.406 270.334 177.718 270.334 177.031C270.334 176.199 269.964 175.597 269.877 174.814C269.655 172.816 269.395 170.927 269.395 168.841C269.395 165.967 269.16 163.133 269.16 160.246C269.16 154.926 268.895 149.605 268.69 144.296C268.576 141.312 268.473 138.255 268.234 135.271C268.023 132.636 267.517 130.025 267.517 127.381C267.517 124.942 267.517 122.503 267.517 120.064C267.517 118.469 267.517 116.874 267.517 115.278C267.517 113.892 267.094 112.598 267.047 111.248C267.009 110.141 266.578 109.145 266.578 108.027C266.578 107.091 266.508 106.431 266.16 105.562C265.854 104.795 266.244 103.802 265.991 102.993C265.807 102.404 265.639 101.716 265.639 101.102"
          stroke="#DB4437" strokeWidth="3" strokeLinecap="round"/>
    <path d="M263.996 51.334C263.996 56.6138 263.762 62.021 263.762 67.3494C263.762 72.8347 263.996 78.2906 263.996 83.7821C263.996 85.1559 263.996 86.5296 263.996 87.9034C263.996 88.8917 263.698 90.4326 264.114 91.3464C264.664 92.5562 264.935 94.331 264.935 95.6502C264.935 96.8469 265.64 97.9966 265.64 99.1194C265.64 100.197 265.875 101.366 265.875 102.51"
          stroke="#DB4437" strokeWidth="3" strokeLinecap="round"/>
    <path d="M264.936 50.8643C266.082 51.8958 267.736 51.9179 269.161 52.3249C270.395 52.6775 271.371 52.7423 272.682 52.7423"
          stroke="#DB4437" strokeWidth="3" strokeLinecap="round"/>
    <path d="M273.151 55.5596C273.666 60.4474 273.02 65.3961 273.569 70.2708C274.474 78.3144 274.09 86.5747 274.09 94.6591C274.09 102.302 274.09 109.944 274.09 117.587C274.09 121.248 275.264 124.741 275.264 128.333C275.264 130.462 275.499 132.882 275.499 135.141C275.499 137.357 275.388 139.539 275.864 141.714C276.26 143.523 276.827 145.31 276.907 147.166C277.033 150.058 277.142 152.937 277.142 155.851C277.142 156.85 276.504 163.11 277.377 163.546"
          stroke="#DB4437" strokeWidth="3" strokeLinecap="round"/>
    <path d="M276.438 162.842C277.046 165.203 277.143 167.668 277.143 170.106C277.143 173.317 277.377 176.524 277.377 179.744C277.377 181.654 277.666 183.538 277.899 185.43C278.243 188.212 278.131 191.102 278.786 193.829C279.256 195.789 279.162 197.741 279.49 199.711C279.8 201.567 280.011 203.436 280.181 205.306C280.581 209.696 279.483 214.381 280.325 218.713C281.182 223.119 280.675 227.675 281.603 232.042C282.553 236.513 282.777 241.027 282.777 245.579C282.777 248.848 282.929 252.097 283.012 255.335C283.047 256.721 283.676 258.068 283.716 259.456C283.722 259.681 283.716 261.277 283.716 260.499"
          stroke="#DB4437" strokeWidth="3" strokeLinecap="round"/>
    <path d="M283.246 260.499C283.246 267.157 285.124 273.676 285.124 280.336C285.124 285.942 286.298 291.399 286.298 297.003C286.298 299.85 286.169 302.728 286.311 305.572C286.386 307.083 286.886 308.533 287.002 310.045C287.144 311.893 287.07 313.857 287.472 315.666C287.899 317.591 288.176 319.695 288.176 321.665C288.176 323.771 288.847 325.812 288.88 327.925C288.916 330.201 289.115 332.459 289.115 334.733C289.115 336.441 288.996 338.199 289.48 339.859C290.455 343.202 290.993 346.576 290.993 350.044C290.993 350.751 291.279 351.495 291.462 352.183C291.818 353.516 292.022 354.717 292.219 356.096C292.475 357.891 292.871 359.502 292.871 361.326C292.871 362.499 292.727 363.374 293.575 361.678"
          stroke="#DB4437" strokeWidth="3" strokeLinecap="round"/>
    <path d="M91.5742 381.951C99.2105 381.951 107.292 381.87 114.821 380.33C118.084 379.663 121.988 378.933 125.27 378.933"
          stroke="#DB4437" strokeWidth="3" strokeLinecap="round"/>
    <path d="M128.287 379.436C131.789 379.436 135.453 379.436 138.849 379.436" stroke="#DB4437" strokeWidth="3"
          strokeLinecap="round"/>
    <path d="M5.42676 393.635C5.94049 391.323 13.0313 392.018 14.6639 391.897C18.878 391.585 23.0515 391.364 27.262 391.142C35.1476 390.727 43.1155 390.455 50.9492 389.496C55.4421 388.946 59.8207 387.789 64.3019 387.255C70.6022 386.505 76.9722 385.911 83.302 385.495C90.3588 385.031 97.5321 385.404 104.611 385.404"
          stroke="#DB4437" strokeWidth="3" strokeLinecap="round"/>
    <path d="M128.33 24.2983C130.135 24.5239 131.717 27.2926 133.484 27.3908C134.584 27.4519 135.775 28.1417 136.844 28.4979C138.072 28.9073 139.374 29.1122 140.623 29.5288C142.874 30.279 145.084 31.0798 147.305 31.934C148.779 32.5011 150.418 33.151 152.039 33.232C153.365 33.2983 154.23 34.1896 155.475 34.2628C157.982 34.4103 160.08 36.0928 162.27 36.9353C164.466 37.7797 166.421 38.7459 168.532 39.6842C172.584 41.4851 176.427 43.611 180.558 45.0864C181.729 45.5047 183.134 46.4415 184.337 46.6135C185.595 46.7932 186.55 47.852 187.774 47.9879C189.34 48.1619 191.834 49.2755 193.099 50.2595C194.871 51.6377 198.031 51.531 199.781 52.9893C201.315 54.2677 204.466 54.3859 206.328 55.0509C208.145 55.6998 210.046 56.8315 211.998 57.2652C212.866 57.4581 213.796 57.6425 214.575 58.1433C215.541 58.7647 217.304 58.6966 217.992 59.4986C218.912 60.573 222.005 61.5317 223.317 61.7702C224.446 61.9753 224.969 62.973 226.085 63.1447C227.295 63.3307 228.45 64.0645 229.617 64.4236C231.315 64.9462 233.79 65.3091 235.267 66.218C237.511 67.5988 240.409 67.5917 242.674 68.9668C245.444 70.6486 249.266 71.8742 252.371 72.8228C255.726 73.8479 258.762 76.2559 262.068 77.4806C265.165 78.6274 268.111 80.1502 271.002 81.7565C273.009 82.8718 275.25 83.818 277.378 84.6962C279.813 85.7013 282.999 85.643 285.281 86.9106C289.726 89.3803 295.486 89.6582 300.323 91.3011C305.341 93.0052 310.438 94.2784 315.422 95.9397C327.895 100.097 339.66 105.998 351.997 110.543C362.42 114.383 372.394 119.331 382.769 123.256C388.923 125.585 394.909 128.584 400.98 131.159C406.178 133.364 411.38 135.531 416.671 137.554C423.284 140.082 429.885 142.863 436.352 145.762C437.368 146.218 438.23 146.717 439.292 147.041C440.191 147.316 440.707 148.199 441.678 148.32C442.892 148.472 443.449 149.714 444.446 149.714"
          stroke="#DB4437" strokeLinecap="round"/>
    <path d="M129.967 39.9297C135.583 40.7938 141.294 44.9266 146.321 47.3051C162.633 55.0234 179.729 61.4357 196.506 68.0686C223.857 78.8819 252.557 87.0951 279.279 99.4542C298.242 108.225 318.305 114.856 337.721 122.583C349.109 127.114 360.058 132.881 371.672 136.772C380.787 139.826 390.267 142.445 399.17 146.072C417.033 153.349 435.627 159.689 452.802 168.358C462.779 173.394 473.722 180.008 484.228 183.51"
          stroke="#DB4437" strokeLinecap="round"/>
    <path d="M129.245 59.4106C130.679 59.7692 131.923 60.836 133.173 61.5752C138.822 64.9157 144.564 68.1843 150.329 71.3155C166.537 80.1178 183.589 87.9715 200.274 95.8469C221.584 105.905 242.561 116.797 263.486 127.633C277.135 134.702 291.478 139.605 305.454 145.831C319.951 152.29 334.592 158.195 349.305 164.19C362.803 169.689 376.286 175.042 389.269 181.666C401.171 187.739 412.184 195.427 424.423 200.867C437.143 206.52 449.803 212.223 462.983 216.7C464.205 217.115 471.962 220.517 471.962 220.307"
          stroke="#DB4437" strokeLinecap="round"/>
    <path d="M128.523 73.1191C130.764 77.9729 139.682 81.0038 143.916 83.3806C158.252 91.4291 172.967 98.3892 188.208 104.585C209.615 113.287 230.64 122.404 251.581 132.123C270.358 140.837 288.247 151.348 307.057 160.101C325.004 168.453 342.988 177.509 360.449 186.797C369.741 191.74 379.136 196.767 388.587 201.387C398.852 206.406 409.734 210.117 420.013 215.256C430.026 220.263 440.753 224.232 450.557 229.526C452.978 230.834 459.228 231.635 460.418 234.016"
          stroke="#DB4437" strokeLinecap="round"/>
    <path d="M129.967 104.144C130.284 107.314 136.134 112.083 138.224 114.406C143.269 120.01 149.712 124.101 154.939 129.477C159.912 134.592 165.39 139.104 171.053 143.426C177.316 148.206 182.896 153.846 189.451 158.257C201.304 166.233 212.619 174.903 224.645 182.628C241.439 193.417 257.749 205.02 273.908 216.74C285.603 225.222 296.538 234.817 307.859 243.796C319.844 253.302 331.958 262.59 343.934 272.095C356.735 282.254 371.001 289.95 384.339 299.352C399.849 310.286 416.313 319.822 431.558 331.099C441.051 338.121 450.028 345.528 460.378 351.221C464.698 353.597 468.714 357.273 473.405 358.837"
          stroke="#DB4437" strokeLinecap="round"/>
    <path d="M132.854 120.017C134.625 121.163 135.773 123.226 137.343 124.667C140.908 127.94 144.179 131.42 147.845 134.608C159.554 144.79 171.435 154.734 183.359 164.671C192.265 172.092 201.492 179.129 210.456 186.476C223.956 197.541 237.714 208.938 252.063 218.864C257.877 222.886 262.79 227.713 268.177 232.252C273.09 236.391 278.634 239.553 283.489 243.796C288.248 247.956 293.642 251.264 298.48 255.34C304.145 260.113 309.573 265.113 315.676 269.329C329.58 278.936 340.884 292.111 353.475 303.28C357.728 307.054 361.043 311.804 365.34 315.546C370.792 320.295 377.312 324.657 382.135 330.016C387.683 336.181 393.994 342.105 399.972 347.854C402.248 350.042 405.389 352.239 408.029 354.067C409.393 355.011 410.634 355.87 411.757 356.993C412.249 357.485 413.113 357.163 413.481 357.714C413.981 358.464 412.371 356.29 411.757 355.63C406.09 349.536 399.262 345.621 392.597 340.799"
          stroke="#DB4437" strokeLinecap="round"/>
    <path d="M132.132 130.118C136.212 131.602 139.938 139.168 142.794 142.223C146.732 146.436 150.707 151.633 153.817 156.493C157.466 162.194 162.331 167.016 166.043 172.687C170.531 179.544 173.81 187.422 178.669 193.972C184.358 201.64 189.6 209.232 196.386 216.018C202.649 222.281 208.346 229.528 213.262 236.902C216.946 242.428 220.124 249.266 224.525 254.218C227.285 257.322 229.769 260.478 232.061 263.958C234.987 268.401 238.996 271.534 242.683 275.302C253.685 286.543 263.834 298.756 274.269 310.496C280.036 316.983 284.519 324.662 290.142 331.259C294.496 336.366 299.402 341.401 304.172 346.17C306.473 348.472 325.296 368.416 326.218 367.495"
          stroke="#DB4437" strokeLinecap="round"/>
    <path d="M134.296 147.435C145.478 158.617 152.6 173.042 162.074 185.675C167.763 193.26 170.855 202.645 176.785 209.845C180.791 214.709 183.577 221.718 186.645 227.242C194.226 240.886 203.186 255.103 212.9 267.245C216.747 272.053 218.68 278.126 223.001 282.718C225.299 285.159 226.067 289.478 227.691 292.418C229.675 296.007 231.611 299.421 233.824 302.88C245.04 320.404 257.467 336.58 271.543 351.782C273.46 353.852 274.522 356.204 276.594 358.276C277.839 359.521 280.918 360.488 281.644 361.723C282.153 362.587 284.867 364.579 285.813 365.17C286.838 365.811 288.159 367.859 288.699 368.938"
          stroke="#DB4437" strokeLinecap="round"/>
    <path d="M131.409 171.966C131.409 184.032 141.249 195.868 146.882 206.037C152.144 215.539 156.873 224.709 160.109 235.138C163.286 245.375 167.391 255.047 171.092 265.041C172.982 270.143 176.058 275.283 178.468 280.192C181.816 287.013 185.999 293.616 188.729 300.715C195.852 319.234 201.314 340.797 213.661 356.672C215.615 359.184 216.88 362.697 219.113 364.929C220.255 366.072 221.531 367.157 222.319 368.537C222.663 369.138 224.225 371.646 224.845 371.784C226.642 372.183 226.065 374.057 227.37 374.71"
          stroke="#DB4437" strokeLinecap="round"/>
    <path d="M144.883 379.436C155.779 379.436 166.575 378.933 177.461 378.933C181.692 378.933 185.75 377.927 189.895 377.927C194.389 377.927 198.723 376.418 203.334 376.418C209.438 376.418 215.497 375.915 221.551 375.915C226.616 375.915 232.006 375.635 236.918 374.407C239.653 373.723 242.375 373.31 245.161 372.898C246.845 372.648 248.322 371.437 249.994 371.389C252.966 371.304 255.938 369.88 258.768 369.88C261.785 369.88 264.803 369.88 267.82 369.88C283.839 369.88 299.858 369.88 315.878 369.88C323.287 369.88 330.333 367.129 337.503 366.332C340.492 366 343.454 364.933 346.556 364.851C350.238 364.754 353.937 364.851 357.62 364.851C375.946 364.851 394.087 363.794 412.216 361.722C420.966 360.722 429.567 359.438 438.34 358.788C448.395 358.043 458.546 358.313 468.655 358.313C478.732 358.313 488.809 358.313 498.887 358.313C502.775 358.313 506.935 357.996 510.51 356.804"
          stroke="#DB4437" strokeWidth="3" strokeLinecap="round"/>
    <path d="M138.346 390.5C139.008 388.734 149.404 388.22 151.031 388.097C156.245 387.705 161.396 387.483 166.621 387.483C174.362 387.483 182.138 386.98 189.924 386.98C197.551 386.98 205.203 387.312 212.779 386.365C219.907 385.474 227.377 385.33 234.405 383.85C245.482 381.518 256.802 378.43 268.212 378.43C283.654 378.43 299.45 378.416 314.873 377.452C345.558 375.534 376.415 377.947 406.908 373.373C412.496 372.535 418.152 370.899 423.756 369.88C428.874 368.95 434.39 367.869 439.598 367.869C450.28 367.869 461.017 367.366 471.73 367.366C475.481 367.366 479.328 367.596 483.073 367.338C486.552 367.098 489.946 365.739 493.411 365.354C496.003 365.066 501.176 364.872 503.47 363.342"
          stroke="#DB4437" strokeWidth="3" strokeLinecap="round"/>
    <path d="M133.573 96.9292C137.42 97.891 141.254 102.308 144.236 104.705C149.667 109.073 155.457 112.779 160.63 117.492C171.538 127.43 182.394 137.631 194.18 146.553C206.224 155.67 218.316 164.603 231.017 172.768C237.493 176.931 243.377 181.824 250.097 185.635C258.256 190.262 266.552 194.249 274.428 199.384C290.323 209.745 306.66 219.228 322.288 230.048C335.976 239.524 350.688 247.539 364.296 257.104C376.445 265.645 389.568 272.944 401.574 281.676C409.02 287.091 417.561 291.959 424.342 298.23C428.124 301.729 432.744 305.046 436.968 307.971C438.321 308.907 442.223 310.719 442.94 311.939C444.557 314.688 449.99 318.04 452.881 319.555C458.469 322.482 463.892 326.537 469.075 330.137C473.391 333.134 477.974 335.696 482.383 338.635C485.532 340.734 489.04 342.726 491.843 345.128C493.117 346.22 495.921 348.408 497.575 348.776C498.4 348.96 502.705 351.782 502.986 352.344"
          stroke="#DB4437" strokeLinecap="round"/>
</svg>
