<svg width="12" height="9" viewBox="0 0 12 9" fill="none" xmlns="http://www.w3.org/2000/svg">
<path d="M1.83488 0.753766C2.62185 0.397012 3.45441 0.143523 4.31054 0C4.41718 0.186795 4.54177 0.438035 4.62769 0.63791C5.55076 0.503434 6.46533 0.503434 7.37143 0.63791C7.4573 0.438081 7.58471 0.186795 7.69233 0C8.5493 0.143589 9.38257 0.397724 10.1699 0.755628C11.7367 3.04953 12.1614 5.2864 11.9491 7.49161C10.9099 8.24346 9.90282 8.70021 8.91272 8.99909C8.66666 8.67124 8.44915 8.32415 8.26243 7.96139C8.61791 7.83026 8.96062 7.66867 9.28646 7.47853C9.20071 7.41695 9.11698 7.35277 9.03539 7.2861C7.06093 8.18088 4.91555 8.18088 2.96462 7.2861C2.88268 7.35233 2.79897 7.4165 2.7136 7.47853C3.03996 7.66917 3.38331 7.83109 3.73951 7.96234C3.55173 8.32657 3.3346 8.67401 3.08921 9C2.09818 8.70116 1.09018 8.24442 0.0510073 7.49161C-0.19818 4.93524 0.476632 2.71886 1.83488 0.75372V0.753766ZM7.99341 6.13545C8.58614 6.13545 9.07224 5.59931 9.07224 4.94646C9.07224 4.29361 8.5965 3.75657 7.99341 3.75657C7.39027 3.75657 6.90422 4.29265 6.91458 4.94646C6.91365 5.59931 7.39027 6.13545 7.99341 6.13545ZM4.00665 6.13545C4.59938 6.13545 5.08543 5.59931 5.08543 4.94646C5.08543 4.29361 4.60974 3.75657 4.00665 3.75657C3.40351 3.75657 2.91746 4.29265 2.92782 4.94646C2.92782 5.59931 3.40351 6.13545 4.00665 6.13545Z" fill="#E8EAED"/>
</svg>
