<svg width="11" height="12" viewBox="0 0 11 12" fill="none" xmlns="http://www.w3.org/2000/svg">
<path d="M3.51609 0.926183C3.39227 0.921501 3.27038 0.957886 3.16939 1.02967C3.0684 1.10146 2.99397 1.20462 2.9577 1.3231L0.0262819 10.6063C-0.00489022 10.7048 -0.0084049 10.8101 0.0161211 10.9105C0.040647 11.0109 0.0922722 11.1027 0.165368 11.1758C0.238464 11.2489 0.330225 11.3005 0.430647 11.325C0.531068 11.3495 0.636296 11.346 0.734858 11.3149L10.018 8.38345C10.1365 8.34743 10.2397 8.27313 10.3114 8.17219C10.3832 8.07124 10.4194 7.94935 10.4144 7.82562C10.201 4.11336 7.22778 1.14017 3.51609 0.926183ZM3.65159 8.81875C3.50327 8.81872 3.3564 8.78947 3.21938 8.73267C3.08236 8.67587 2.95786 8.59265 2.85301 8.48774C2.74815 8.38283 2.66498 8.25829 2.60826 8.12124C2.55153 7.98419 2.52235 7.83731 2.52239 7.68899C2.52242 7.54066 2.55168 7.39379 2.60847 7.25677C2.66527 7.11975 2.7485 6.99526 2.85341 6.8904C2.95832 6.78554 3.08285 6.70238 3.2199 6.64565C3.35695 6.58892 3.50383 6.55974 3.65216 6.55978C3.95172 6.55986 4.23897 6.67893 4.45074 6.8908C4.66251 7.10267 4.78144 7.38999 4.78136 7.68955C4.78129 7.98911 4.66222 8.27637 4.45034 8.48814C4.23847 8.6999 3.95115 8.81883 3.65159 8.81875ZM7.03921 7.68955C6.89088 7.68951 6.74401 7.66026 6.60699 7.60347C6.46997 7.54667 6.34548 7.46344 6.24062 7.35853C6.13576 7.25362 6.0526 7.12909 5.99587 6.99204C5.93914 6.85499 5.90996 6.70811 5.91 6.55978C5.91004 6.41146 5.93929 6.26459 5.99609 6.12757C6.05288 5.99055 6.13611 5.86605 6.24102 5.7612C6.34593 5.65634 6.47046 5.57317 6.60751 5.51645C6.74456 5.45972 6.89144 5.43054 7.03977 5.43058C7.33933 5.43065 7.62659 5.54972 7.83835 5.7616C8.05012 5.97347 8.16905 6.26079 8.16897 6.56035C8.1689 6.8599 8.04983 7.14716 7.83795 7.35893C7.62608 7.5707 7.33876 7.68963 7.03921 7.68955Z" fill="#E8EAED"/>
</svg>
