<svg width="1169" height="557" viewBox="0 0 1169 557" fill="none" xmlns="http://www.w3.org/2000/svg">
    <g filter="url(#filter0_i_165_6)">
        <path d="M238.114 13.2026L246.816 18.0923L261.003 16.3449L262.966 10.8957L271.341 8.87255L276.704 1.82155L285.893 0.725586L286.312 10.252L293.44 13.1183L298.863 20.9739L295.068 38.4325L296.277 52.2508L302.827 53.6915L303.861 59.9226L340.839 72.1925L358.479 68.8203L383.301 80.0251L392.437 98.0815L409.119 106.428L421.823 105.615L422.18 110.137L431.651 107.738L437.546 111.21L448.691 109.286L461.387 113.003L471.063 109.148L481.332 111.655L515.518 108.351L528.359 109.317L541.679 116.391L549.05 112.751L558.688 132.401L556.33 136.003L560.833 144.526L559.897 147.53L551.476 148.572L560.818 162.252L575.073 160.536L578.2 163.847L593.262 163.502L605.418 157.087L610.94 143.192L632.597 143.775L638.607 128.416L632.788 119.396L658.21 96.879L659.427 92.8782L654.833 87.2604L658.796 84.2562L659.99 74.4155L666.076 75.1821L669.043 71.419L676.84 73.856L704.103 52.9027L717.712 54.5352L719.895 52.1517L725.616 57.8613L728.354 53.7612L737.68 52.6726L738.167 46.0588L768.298 44.5642L778.918 56.6581L783.558 69.3496L783.505 80.4012L789.256 83.804L782.866 86.0342L765.431 81.4359L758.972 85.4594L762.373 95.7754L767.31 98.5112L770.132 112.084L785.642 114.353L788.883 113.924L788.366 109.371L796.231 109.402L798.818 113.149L802.621 108.766L804.873 115.28L809.429 114.314L811.985 110.712L818.915 109.854L819.859 106.168L832.996 112.092L842.056 110.513L878.775 91.3913L880.623 81.0679L894.689 79.0062L894.194 74.9597L900.242 78.8836L905.445 75.6034L909.294 77.7034L912.246 70.775L919.099 73.6415L920.294 90.8318L932.792 86.2487L942.019 88.433L944.94 93.3763L966.423 97.1854L970.675 92.1808L974.775 96.7638L976.753 93.0007L991.914 93.7134L994.447 91.0389L1000.19 93.2997L1001.59 88.7856L995.824 81.727L999.551 80.7919L997.223 75.2893L1010.16 70.7599L1012.56 73.7258L1025.06 74.1244L1034.57 63.594L1046.05 65.2647L1047.45 52.7188L1066.61 60.4516L1073.89 61.195L1077.25 58.298L1088.83 61.2716L1096.49 83.5586L1114.14 81.336L1127.69 73.5494L1147.51 85.8348L1156.86 86.9461L1160.13 81.3973L1169.23 85.1908L1180.38 81.7806L1188.56 72.7831L1200.23 68.1232L1211.7 70.5296L1229.28 87.5515L1235.76 101.738L1232.23 107.011L1234.5 112.299L1240.4 113.057L1241.66 107.876L1247.58 108.673L1264.72 121.158L1274.82 120.131L1277.43 125.695L1271.44 133.926L1243.1 147.162L1239.28 160.107L1241.51 170.445L1237.76 175.074L1242.82 188.31L1256.56 188.004L1257.15 216.767L1262.65 230.7L1251.11 235.651L1246.97 242.05L1251.79 247.499L1260.62 242.847L1269.37 244.303L1263.59 279.765L1268.65 290.303L1256.59 294.863L1251.62 301.193L1231.26 305.937L1236.2 314.69L1231.75 319.35L1232.99 322.538L1249.59 323.404L1256.33 328.347L1257.25 335.842L1257.15 349.17L1253.15 358.727L1246.79 359.248L1240.94 355.025L1234.98 358.444L1235.2 362.95L1247.14 364.138L1249.51 369.25L1239.03 379.167L1233.6 378.155L1233.14 381.827L1242.34 382.11L1246.42 385.582L1245 376.722L1256.67 377.634L1256.23 385.206L1276.32 399.163L1274.89 412.705L1285.09 413.364L1292.33 420.146L1302.07 421.104L1304.9 426.768L1310.27 428.485L1312.34 437.513L1295.75 444.104L1304.83 455.232L1289.58 467.763L1279.92 468.307L1277.27 461.049L1267.43 464.314L1260.69 448.472L1246 459.601L1239.86 472.108L1231.31 475.81L1231.84 484.271L1221.99 492.288L1221.56 503.538L1212.9 518.307L1212.89 528.178L1225.76 545.851L1214.3 555.807L1208.83 556.665L1212.87 563.701L1202.41 567.15L1200.35 570.828L1195.44 567.403L1187.91 570.737L1172.23 555.485L1159.43 552.511L1153.39 544.686L1160.55 539.958L1159.84 512.513L1156.91 508.183L1147.91 510.329L1147.67 498.603L1161.23 487.383L1157.56 477.963L1164.19 465.954L1165.98 448.465L1160.75 437.727L1142.92 425.465L1136.1 415.885L1128.92 414.268L1112.9 419.027L1106.27 431.075L1099.01 428.324L1097.45 423.511L1085.94 432.148L1069.79 419.671L1061.08 420.637L1059.57 416.468L1049.86 412.674L1048.72 427.182L1043.97 433.129L1046.53 437.168L1039.34 438.364L1027.42 426.983L1013.96 424.959L1009.9 421.219L1003.8 422.951L1007.93 417.326L1006.09 406.466L997.642 403.331L988.544 405.263L986.444 387.98L976.768 384.524L965.875 386.555L947.915 377.963L935.591 377.251L930.441 382.087L927.619 378.147L915.113 374.752L912.961 367.494L905.331 366.819L902.668 361.34L898.629 372.522L905.772 374.277L910.352 384.132L906.776 395.56L897.305 399.606L894.742 404.105L901.314 414.091L901.337 419.579L896.233 421.878L900.98 439.099L880.798 446.648L883.179 460.175L878.866 476.3L864.884 473.188L859.932 475.38L859.073 470.468L843.653 458.565L829.634 465.18L829.801 468.222L836.777 471.073L830.668 473.096L827.352 482.937L829.238 485.673L824.887 493.283L827.603 500.978L820.361 498.97L819.486 507.516L813.834 505.707L813.149 511.355L814.732 519.31L822.658 519.149L821.951 524.706L828.485 524.223L826.378 531.128L832.92 531.596L842.626 546.127L825.891 548.625L817.767 569.395L813.18 565.524L809.232 570.766L809.81 591.16L797.243 595.797L795.851 591.513L787.643 592.372L788.244 604.703L784.342 603.093L779.511 606.519L785.726 609.539L776.286 612.574L780.949 614.176L775.259 625.695L782.813 630.96L780.112 635.428L773.669 632.845L773.783 637.597L766.648 640.701L762.03 632.876L749.677 632.178L757.846 619.096L751.419 617.049L751.403 609.155L747.014 612.075L743.081 608.121L730.788 615.708L731.557 622.108L723.653 631.833L725.372 637.673L719.697 637.183L716.426 647.981L707.754 651.591L709.877 658.703L701.722 658.764L697.766 653.491L696.352 657.032L690.608 652.702L685.23 653.307L680.202 664.842L687.482 668.03L684.097 671.954L685.314 677.671L679.434 678.752L679.236 698.556L661.139 706.396L651.25 701.422L650.74 708.289L658.811 713.408L654.764 720.007L647.271 720.873L649.165 728.384L644.472 730.216L643.262 737.933L638.904 736.608L631.144 723.142L624.58 734.209L624.587 724.521L616.691 724.705L616.684 732.017L610.743 732.301L611.214 741.145L601.568 743.866L599.492 750.595L586.119 752.158L587.45 760.903L591.603 764.306L587.998 768.958L593.026 769.103L585.982 773.234L586.438 779.334L592.729 778.982L590.949 788.899L598.282 789.857L594.083 799.467L589.443 799.721L588.066 793.153L577.279 796.394L572.266 789.022L560.795 793.344L561.343 801.959L559.334 794.655L552.663 790.401L545.901 796.463L542.051 792.417L522.402 797.46L516.431 792.524L515.412 781.886L511.388 787.152L505.462 780.959L501.894 789.765L491.495 781.12L484.193 782.668L482.025 775.089L475.346 771.816L472.196 786.132L466.263 787.627L467.259 793.16L471.763 794.41L470.622 800.932L479.21 807.921L479.568 816.789L474.136 823.157L482.177 835.833L482.162 841.06L476.646 845.467L481.18 845.582L481.553 858.166L476.844 859.707L471.375 856.611L471.192 851.024L465.822 850.242L464.954 857.599L452.563 861.056L448.645 853.982L442.772 857.63L436.999 855.476L429.126 859.454L420.073 859.078L419.168 872.506L408.511 878.154L403.308 877.87L404.334 872.62H396.606L388.527 860.097L379.208 863.929L378.95 861.278L364.314 861.37L362.504 863.937L368.909 867.309L368.407 871.892L360.107 875.548L361.994 889.872L351.032 889.726L326.066 898.984L325.739 905.683L320.064 911.914L324.818 917.424L317.242 917.041L316.215 922.198L306.295 926.153L302.69 912.641L294.185 913.737L290.899 908.058L290.108 917.37L279.123 921.716L276.963 930.162L272.612 928.36L273.091 925.318L267.325 925.916L264.891 934.461L258.881 927.395L260.372 934.246L255.177 935.664L257.664 938.799L262.624 934.377L262.053 941.627L268.831 942.761L269.432 951.353L273.646 952.38L272.46 957.292L269.5 952.985L266.694 954.878L266.306 963.875L270.398 969.463L268.025 973.356L271.121 969.401L281.938 971.271L282.143 975.111L294.984 979.495L296.543 986.607L292.23 993.451L292.747 1003.36L284.068 999.49L273.487 1009.06L276.971 1012.02L284.334 1008.43L289.743 1011.12L277.26 1034.24L280.394 1042.29L277.511 1042.43L274.437 1035.83L269.721 1042.39L276.856 1043.7L272.962 1055.37L261.391 1061.06L254.69 1060.75L251.069 1053.38L247.417 1058.73L235.672 1064.6L236.151 1071.15L230.248 1072.4L234.942 1075.8L219.317 1083.37L214.669 1082.28L209.983 1076.78L206.18 1060.68L196.161 1059.38L193.461 1051.41L188.288 1061.3L163.946 1063.52L158.902 1059.98L163.056 1058.6L149.652 1032.36L136.827 1028.21L132.582 1011.86L128.155 1008.82L130.102 1006.01L125.013 984.806L117.536 957.806L114.219 957.484L120.19 950.617L113.869 951.866L113.732 944.846L105.988 932.553L106.209 925.433L110.187 923.77L106.072 917.999L109.746 911.798L106.916 911.247L105.189 883.726L99.7505 869.516L102.489 853.867L98.7768 853.774L100.808 849.506L96.122 846.961L103.105 838.439L97.978 832.691L91.2078 807.047L85.7688 801.621L90.9948 800.97L91.8772 804.541L94.4864 800.226L88.6062 787.374L82.2392 783.894L88.3856 778.231L85.244 777.763L84.9321 767.079L77.5 758.71L82.4598 754.257L75.8645 745.106L73.7878 735.526L77.1501 731.855L69.7181 716.458L67.725 701.613L65.7396 702.64L60.3843 693.696L61.7079 686.952L54.0096 675.065L56.0864 671.616L50.9972 662.159L53.6521 651.582L44.6302 647.336L45.3377 637.074L49.9779 637.304L52.6708 643.696L66.6068 647.007L64.4844 652.931L69.6572 658.886L68.4172 645.512L64.3095 638.936L54.4888 638.423L47.81 627.877L41.9221 624.758L43.8695 619.439L38.9554 604.962L44.2194 593.32L32.5427 567.247L34.7944 549.099L42.272 551.161L46.1668 545.175L50.906 551.59L52.8458 548.264L53.8194 538.76L43.9151 541.289L40.9484 532.667L48.8749 531.587L45.9538 525.18L48.5631 520.543L52.3209 522.466L60.7646 516.305L56.0788 515.898L54.4888 506.196L49.666 506.341L48.5174 511.499L41.1766 517.638L33.6609 515.668L30.8768 528.919L24.9965 534.537L27.5145 526.015L22.471 524.474L26.0996 511.583L28.0013 513.039L29.8574 509.521L26.3202 508.962L28.047 500.286L20.6073 488.1L20.2954 469.047L23.6121 460.226L17.0244 452.677L14.9477 437.97L20.6073 433.172L21.581 427.294L18.1731 430.965L10.741 425.14L9.85864 415.453L13.8827 415.124L5.78893 381.854L0 374.175L0.174923 370.971L4.86087 369.814L2.16036 358.356L10.4368 351.658L9.06754 335.012L13.8447 323.784L24.0685 325.746L24.0989 321.753L29.401 322.404L29.2869 315.414L35.6387 308.609L50.9136 310.9L53.4999 317.874L51.3548 324.757L53.9031 327.738L58.3989 324.052L57.2426 328.221L64.028 335.471L65.2756 330.145L77.8347 332.659L85.2135 337.985L90.0591 326.251L101.645 321.576L105.159 311.782L111.8 313.261L114.15 310.732L115.223 314.249L124.078 311.943L123.043 287.142L117.931 280.658L124.047 276.543L135.351 255.114L132.339 254.593L132.179 247.726L125.736 245.764L119.742 237.671L125.667 233.877L127.858 226.106L132.46 224.956L134.978 235.824L141.338 232.344L152.307 238.743L157.001 248.469L162.402 251.351L167.225 248.622L174.74 250.5L189.087 242.254L190.213 233.501L186.599 228.941L193.119 228.857L196.618 222.841L202.239 223.883L206.804 220.679L206.096 203.987L198.124 186.912L199.942 179.562L185.603 177.362L184.218 172.825L178.985 174.902L173.782 167.2L175.44 157.191L160.69 158.164L149.28 147.986L153.243 146.584L156.94 154.01L164.09 150.676L172.907 153.052L173.698 148.116L186.584 147.296L188.113 130.949L197.645 131.807L206.644 125.799L207.336 107.842L209.862 109.605L222.573 104.914L225.54 94.2153L232.196 100.025L235.368 97.3653L250.285 98.1393L251.312 94.6139L254.598 97.4802L267.028 91.8472L267.173 84.0605L263.529 79.9374L257.862 85.0109L252.765 82.5277L248.018 85.7543L244.527 80.8954L225.966 80.9105L192.685 91.8395L186.904 74.2581L181.031 69.6674L196.641 66.234L198.352 56.7612L187.976 46.0163L190.167 41.2417L184.683 35.6317L238.114 13.1988V13.2026Z"
              fill="#FCFCFC"/>
    </g>
    <rect x="632" y="318.726" width="537" height="277" fill="#FCFCFC"/>
    <defs>
        <filter id="filter0_i_165_6" x="0" y="0.725586" width="1312.33" height="1086.61" filterUnits="userSpaceOnUse"
                color-interpolation-filters="sRGB">
            <feFlood flood-opacity="0" result="BackgroundImageFix"/>
            <feBlend mode="normal" in="SourceGraphic" in2="BackgroundImageFix" result="shape"/>
            <feColorMatrix in="SourceAlpha" type="matrix" values="0 0 0 0 0 0 0 0 0 0 0 0 0 0 0 0 0 0 127 0"
                           result="hardAlpha"/>
            <feOffset dy="3.9743"/>
            <feGaussianBlur stdDeviation="1.98715"/>
            <feComposite in2="hardAlpha" operator="arithmetic" k2="-1" k3="1"/>
            <feColorMatrix type="matrix" values="0 0 0 0 0 0 0 0 0 0 0 0 0 0 0 0 0 0 0.25 0"/>
            <feBlend mode="normal" in2="shape" result="effect1_innerShadow_165_6"/>
        </filter>
    </defs>
</svg>
