<svg width="166" height="204" viewBox="0 0 166 204" fill="none" xmlns="http://www.w3.org/2000/svg">
<path d="M92.5124 15.4287C93.0056 15.6342 93.4475 16.4231 93.711 16.8694C93.9692 17.307 94.3233 17.7038 94.5584 18.1527C94.9163 18.836 95.5407 19.4455 95.8236 20.1685C96.1176 20.92 96.6741 21.7973 96.7558 22.6141C96.8215 23.2705 97.1977 23.9068 97.1977 24.5572C97.1977 25.3937 97.3593 26.3806 97.004 27.1481C96.545 28.1396 96.5906 29.2378 96.2655 30.2595C96.0996 30.7808 95.9404 31.3425 95.6723 31.8213C95.4508 32.2168 95.1027 32.6866 95.0185 33.1288C94.9215 33.6379 94.65 34.1779 94.3647 34.6058" stroke="#E8EAED" strokeWidth="2.40946" strokeLinecap="round"/>
<path d="M93.9473 38.292C93.8531 39.3281 92.9328 40.2374 92.4789 41.1453C92.2133 41.6764 91.9803 42.0853 91.5445 42.4969C91.3226 42.7064 90.784 43.0851 90.4933 43.2143C90.0868 43.395 89.2875 43.4033 88.9915 43.7733C88.7105 44.1246 86.1391 43.9215 85.7545 43.7566C84.3787 43.167 82.8636 42.526 81.7832 41.4456" stroke="#E8EAED" strokeWidth="2.40946" strokeLinecap="round"/>
<path d="M89.6758 40.4688C89.1882 40.4688 88.5219 39.2027 88.3232 38.8264C88.0526 38.3135 87.7243 37.8361 87.4537 37.3236C87.3002 37.0327 87.2357 36.6637 87.0673 36.4111" stroke="#E8EAED" strokeWidth="2.40946" strokeLinecap="round"/>
<path d="M85.2285 39.7936C84.8439 39.7936 84.5242 39.2191 84.3161 38.9455C84.0899 38.6483 83.9039 38.3332 83.7311 38.0009C83.565 37.6815 83.2887 37.4528 83.1246 37.1421C82.8266 36.5781 82.4268 35.789 82.4268 35.1562" stroke="#E8EAED" strokeWidth="2.40946" strokeLinecap="round"/>
<path d="M89.4863 13.9814C89.4198 14.6464 88.8967 15.3427 88.6768 15.9685C88.3529 16.8904 88.0262 17.7562 87.72 18.6916C87.4125 19.6312 87.4256 20.5165 87.4256 21.4883" stroke="#E8EAED" strokeWidth="2.40946" strokeLinecap="round"/>
<path d="M82.2734 12.9512C82.0672 14.6862 81.8216 16.4376 81.6928 18.1765C81.6482 18.7786 81.5813 19.5683 81.7174 20.1636C81.8425 20.7111 81.9755 21.7774 82.2734 22.2243" stroke="#E8EAED" strokeWidth="2.40946" strokeLinecap="round"/>
<path d="M95.166 45.3733C93.9597 47.8508 92.5995 51.622 89.3224 51.622C86.7503 51.622 84.3773 50.3384 82.4951 48.6776C81.7494 48.0197 81.092 47.3115 80.6436 46.4147C80.2703 45.668 80.2386 44.841 80.2386 44.0104C80.2386 43.4426 80.2386 42.8747 80.2386 42.3068C80.2386 41.8944 80.5858 41.6094 80.5858 41.2075" stroke="#E8EAED" strokeWidth="2.40946" strokeLinecap="round"/>
<path d="M95.6309 45.7207C95.6309 49.3659 95.6159 53.0212 95.5151 56.6494C95.4962 57.3316 95.1603 58.1024 95.0266 58.7709C94.8658 59.5747 94.3321 60.3272 94.1523 61.1367C94.0297 61.688 93.8075 62.327 93.5737 62.8467C93.3874 63.2607 93.2897 63.9474 93.0208 64.2931C92.738 64.6568 92.7448 65.0948 92.4487 65.4567C92.1655 65.8028 92.0392 66.3171 91.7544 66.6589C91.4992 66.9651 91.4375 67.3649 91.2851 67.7132C91.0729 68.1981 90.7975 68.6353 90.6294 69.1211C89.8955 71.2412 89.5307 73.7638 88.1672 75.5819C87.4055 76.5975 86.2193 77.234 85.3321 78.1212C84.7546 78.6988 84.0246 79.1575 83.5321 79.8055C82.9486 80.5733 82.1655 81.3247 81.5135 82.0491C80.1792 83.5316 78.647 84.7976 77.2899 86.2728C76.3666 87.2763 75.9028 88.4339 75.207 89.5835C74.3729 90.9615 73.8324 92.4796 73.2719 93.9743C72.6127 95.7324 71.7748 97.3778 71.0348 99.0915C70.2421 100.927 69.2918 102.833 68.0969 104.447C67.5576 105.175 67.1129 105.945 66.4704 106.587C65.8786 107.179 65.1959 107.798 64.7347 108.49C64.2939 109.151 63.5594 109.564 63.0504 110.175C62.7847 110.493 62.143 111.447 61.726 111.447" stroke="#E8EAED" strokeWidth="2.40946" strokeLinecap="round"/>
<path d="M61.3789 112.025C61.3427 112.677 60.6246 113.38 60.2217 113.851C59.7114 114.448 59.0751 114.925 58.5439 115.497C58.3077 115.751 57.9543 116.088 57.6181 116.191C57.1094 116.348 56.7079 116.896 56.2103 117.117C53.7362 118.216 51.1789 120.104 49.8009 122.446C48.3132 124.975 46.7484 127.55 45.9308 130.366C45.5839 131.561 45.2972 132.777 44.8572 133.921C44.7407 134.224 44.6751 134.571 44.6065 134.879C44.546 135.152 44.3435 135.36 44.2529 135.631" stroke="#E8EAED" strokeWidth="2.40946" strokeLinecap="round"/>
<path d="M44.832 135.864C44.526 136.476 44.1827 137.001 43.932 137.651C43.6626 138.349 43.4398 138.972 43.212 139.682C42.8624 140.773 42.4343 142.057 42.402 143.218C42.3392 145.479 42.1706 147.713 42.1706 149.981C42.1706 152.239 41.9991 154.455 41.5663 156.667C41.1108 158.995 40.6208 161.337 40.2291 163.687C40.0069 165.02 39.5541 166.261 39.2519 167.57C38.9794 168.751 38.7843 169.923 38.3519 171.067C38.1569 171.583 38.1107 172.149 37.8891 172.661C37.6603 173.191 37.4303 173.865 37.2848 174.423C36.9498 175.707 36.0412 176.864 35.5747 178.126C34.9455 179.829 34.8714 181.718 34.0447 183.372C33.4905 184.48 32.7621 185.495 32.219 186.612C31.6766 187.727 31.4513 188.901 30.9718 190.045C30.8176 190.412 30.364 192.442 29.9047 191.523" stroke="#E8EAED" strokeWidth="2.40946" strokeLinecap="round"/>
<path d="M29.4375 191.986C29.4375 192.624 28.8047 193.184 28.2546 193.4C27.8421 193.562 27.5605 193.999 27.1875 194.236C26.3182 194.789 25.5536 195.819 25.0981 196.73C24.753 197.42 23.8138 199.504 24.4617 200.266C24.9664 200.86 25.6838 201.243 26.4289 201.243" stroke="#E8EAED" strokeWidth="2.40946" strokeLinecap="round"/>
<path d="M46.7988 201.821C39.4776 201.821 32.1411 201.705 24.8128 201.705" stroke="#E8EAED" strokeWidth="2.40946" strokeLinecap="round"/>
<path d="M46.7974 201.358C47.6928 201.358 48.4873 200.594 49.1053 199.976C49.8464 199.235 50.0374 198.449 50.0374 197.423C50.0374 196.301 49.7685 195.484 49.2917 194.531C49.0836 194.114 48.7735 193.66 48.3531 193.425C48.0996 193.283 47.8449 192.911 47.5495 192.911C47.2556 192.911 46.9589 192.683 46.7395 192.512C46.6645 192.454 46.4786 192.476 46.4566 192.377C46.4018 192.13 46.4255 191.914 46.3345 191.663C46.0376 190.847 46.2188 189.776 46.2188 188.918C46.2188 188.044 46.2778 187.087 46.4245 186.225C46.5291 185.611 46.4525 184.993 46.5917 184.373C46.7997 183.446 46.959 182.483 47.2024 181.564C47.5485 180.256 47.8 178.672 48.5331 177.52C49.0161 176.761 49.3368 175.879 49.806 175.097C50.2026 174.436 50.6465 173.802 51.0531 173.149C51.8361 171.891 52.7256 170.716 53.451 169.427C54.5931 167.396 55.605 165.358 56.6589 163.287C57.5727 161.492 58.3613 159.693 59.1211 157.836C59.5981 156.67 60.0609 155.506 60.6254 154.377C60.8366 153.955 61.1233 153.497 61.2619 153.046C61.3353 152.808 61.5387 152.724 61.654 152.519C61.7854 152.286 61.7866 152.068 61.9819 151.857C62.53 151.265 62.9007 150.394 63.3383 149.71C63.5633 149.358 63.9098 148.979 64.0391 148.591" stroke="#E8EAED" strokeWidth="2.40946" strokeLinecap="round"/>
<path d="M46.4531 195.92C46.4531 197.598 46.106 199.395 46.106 201.011" stroke="#E8EAED" strokeWidth="2.40946" strokeLinecap="round"/>
<path d="M41.3574 196.729C40.916 197.784 40.5889 199.297 40.5474 200.458C40.5416 200.619 40.5474 201.513 40.5474 200.895" stroke="#E8EAED" strokeWidth="2.40946" strokeLinecap="round"/>
<path d="M36.7305 196.15C35.9419 197.799 35.8047 199.347 35.8047 201.139C35.8047 201.52 35.8047 202.665 35.8047 202.283" stroke="#E8EAED" strokeWidth="2.40946" strokeLinecap="round"/>
<path d="M32.5664 196.15C32.1179 196.363 31.9999 197.156 31.885 197.584C31.6561 198.436 31.6407 199.292 31.6407 200.168C31.6407 200.642 31.6407 201.115 31.6407 201.589" stroke="#E8EAED" strokeWidth="2.40946" strokeLinecap="round"/>
<path d="M64.3862 148.476C65.5219 148.476 66.6576 148.476 67.7934 148.476C69.3599 148.476 71.05 148.485 72.602 148.682C73.7958 148.833 75.8628 148.82 76.3049 150.257C76.4153 150.615 76.7021 151.023 76.8578 151.369C77.033 151.758 77.1122 152.412 76.8835 152.783C76.238 153.832 77.1324 155.328 77.6357 156.223C77.9233 156.734 78.4695 157.144 78.825 157.618C79.3513 158.319 79.7246 159.112 80.2135 159.816C80.8701 160.762 80.5537 161.816 79.7764 162.593C79.3472 163.023 79.0688 163.571 78.735 164.072C78.418 164.547 77.899 165.063 77.7192 165.602C77.4921 166.283 76.9984 166.897 76.7742 167.569C76.5318 168.297 76.3561 169.087 76.0156 169.768C75.7434 170.312 75.7263 171.134 75.7263 171.735C75.7263 172.594 75.5814 173.702 76.0992 174.448C76.4908 175.012 76.7291 175.658 77.1792 176.19C77.6249 176.717 78.3299 177.416 78.6128 178.029C79.297 179.511 80.2497 180.909 80.9336 182.407C81.8676 184.453 83.2883 186.362 84.1158 188.462C84.8525 190.333 85.9203 192.007 86.8094 193.785C87.9677 196.102 88.918 198.647 88.918 201.243" stroke="#E8EAED" strokeWidth="2.40946" strokeLinecap="round"/>
<path d="M111.488 201.589C106.19 201.589 100.876 201.474 95.5709 201.474C94.3645 201.474 93.1374 201.545 91.9323 201.474C91.4027 201.442 90.7983 201.242 90.1965 201.242" stroke="#E8EAED" strokeWidth="2.40946" strokeLinecap="round"/>
<path d="M111.833 201.011C112.089 201.238 112.738 201.147 113.048 201.12C113.658 201.067 114.045 200.482 114.43 200.085C115.594 198.889 115.768 197.537 115.768 195.945C115.768 194.565 114.628 193.312 113.363 192.795C112.564 192.468 111.7 192.327 110.856 192.159C110.26 192.039 109.636 192.085 109.056 191.959C107.826 191.693 106.563 191.522 105.302 191.522C104.636 191.522 103.971 191.439 103.335 191.226C102.824 191.056 102.262 190.998 101.792 190.712C100.074 189.669 98.3711 188.775 97.1887 187.035C95.8117 185.008 95.0644 182.565 94.4115 180.233C94.1784 179.401 93.855 178.585 93.5501 177.778C93.3061 177.132 93.183 176.396 92.8494 175.785C92.3945 174.951 91.9213 174.082 91.6472 173.181C91.239 171.84 91.2358 170.585 91.2358 169.189C91.2358 168.083 92.3232 165.953 93.1451 165.261C95.614 163.182 98.8237 161.625 100.615 158.826C102.032 156.612 102.692 154.205 102.692 151.6" stroke="#E8EAED" strokeWidth="2.40946" strokeLinecap="round"/>
<path d="M104.085 152.642C104.5 153.169 104.724 153.865 104.953 154.487C105.212 155.187 105.585 155.83 105.795 156.55C105.953 157.091 106.164 157.605 106.342 158.138C106.462 158.499 106.74 158.792 106.837 159.147C107.307 160.873 108.989 162.322 109.935 163.808C110.434 164.592 111.276 165.107 111.954 165.724C113.023 166.696 113.97 167.8 115.027 168.784C116.752 170.39 118.572 172.019 120.093 173.83C121.117 175.051 121.558 176.424 121.558 178.009C121.558 179.93 121.765 181.981 121.501 183.885C121.257 185.64 121.096 187.456 121.096 189.234C121.096 190.197 121.066 191.05 120.838 191.985C120.702 192.548 120.828 193.107 120.459 193.599C120.002 194.208 119.848 195.014 119.713 195.752C119.625 196.238 119.731 196.939 120.048 197.308C120.345 197.655 120.186 198.025 120.401 198.388C120.887 199.208 121.027 199.939 121.88 200.497C122.994 201.225 124.988 201.011 126.245 201.011C130.619 201.011 134.988 200.895 139.353 200.895C141.447 200.895 143.538 201.127 145.64 201.127C146.871 201.127 150.561 201.242 149.33 201.242" stroke="#E8EAED" strokeWidth="2.40946" strokeLinecap="round"/>
<path d="M149.322 201.127C152.591 201.283 155.851 201.127 159.101 201.127C159.928 201.127 160.755 201.127 161.582 201.127C162.032 201.127 162.507 201.195 162.919 201.011C163.405 200.795 163.493 199.982 163.613 199.501C163.759 198.919 163.622 198.298 163.697 197.707C163.763 197.187 163.903 196.742 163.903 196.209C163.903 195.423 163.967 194.607 163.896 193.824C163.812 192.899 163.305 192.25 162.81 191.529C162.49 191.063 161.899 190.658 161.383 190.455C160.755 190.209 160.18 189.755 159.506 189.581C159.003 189.452 158.407 189.108 157.885 189.093C157.238 189.073 156.733 188.672 156.124 188.63C155.409 188.58 154.567 187.996 153.925 187.704C153.082 187.321 152.468 186.678 151.778 186.084C150.781 185.226 150.476 183.618 150.274 182.381C150.173 181.766 150.114 181.03 149.67 180.53C149 179.777 147.465 179.664 146.494 179.315C143.394 178.198 142.111 175.245 140.824 172.487C140.106 170.95 139.69 169.287 138.972 167.749C138.734 167.239 138.833 166.785 138.786 166.239C138.558 163.622 138.677 160.952 138.677 158.318C138.677 156.788 138.593 155.276 138.908 153.773C139.22 152.289 139.151 150.71 139.628 149.26C140.146 147.689 140.588 146.046 141.222 144.516C141.618 143.562 141.916 142.56 142.277 141.591C142.704 140.446 143.328 139.388 143.742 138.229C144.353 136.522 144.892 134.796 145.478 133.086C145.955 131.695 145.844 130.032 146.43 128.689C146.735 127.989 146.361 127.173 146.571 126.464C146.743 125.886 146.661 125.242 146.661 124.639" stroke="#E8EAED" strokeWidth="2.40946" strokeLinecap="round"/>
<path d="M107.085 195.11C107.942 195.237 108.85 196.779 109.348 197.425C109.514 197.641 110.312 198.471 110.312 198.749C110.312 199.145 110.198 199.849 110.672 200.086" stroke="#E8EAED" strokeWidth="2.40946" strokeLinecap="round"/>
<path d="M101.997 195.11C102.264 196.619 102.852 198.049 103.322 199.501C103.401 199.745 103.902 201.012 103.733 201.012" stroke="#E8EAED" strokeWidth="2.40946" strokeLinecap="round"/>
<path d="M96.5527 196.15C96.1225 196.419 96.437 198.967 96.437 199.57C96.437 200.1 96.5527 200.629 96.5527 201.126" stroke="#E8EAED" strokeWidth="2.40946" strokeLinecap="round"/>
<path d="M153.142 193.606C154.321 195.729 156.15 197.759 156.15 200.318" stroke="#E8EAED" strokeWidth="2.40946" strokeLinecap="round"/>
<path d="M144.691 193.143V200.896" stroke="#E8EAED" strokeWidth="2.40946" strokeLinecap="round"/>
<path d="M135.086 193.722C134.947 194.887 134.985 196.049 134.97 197.219C134.96 198.044 134.739 198.846 134.739 199.668C134.739 199.947 134.739 200.225 134.739 200.504C134.739 200.899 134.97 201.209 134.97 201.59" stroke="#E8EAED" strokeWidth="2.40946" strokeLinecap="round"/>
<path d="M159.506 193.49C160.788 194.323 161.599 195.827 162.489 197.026C162.759 197.389 163.009 197.835 163.209 198.234" stroke="#E8EAED" strokeWidth="2.40946" strokeLinecap="round"/>
<path d="M123.519 179.257C124.315 180.538 124.915 181.912 125.486 183.3C125.787 184.031 126.232 184.692 126.554 185.416C126.951 186.31 127.647 187.094 127.981 188C128.368 189.052 128.801 190.093 129.074 191.182C129.545 193.068 129.421 195.028 129.421 196.955C129.421 197.998 129.579 199.179 129.331 200.201C129.244 200.559 129.189 200.877 129.189 201.243" stroke="#E8EAED" strokeWidth="2.40946" strokeLinecap="round"/>
<path d="M146.507 128.361C147.53 127.337 147.441 125.338 147.441 123.977C147.441 122.933 147.868 121.956 147.907 120.943C147.959 119.604 148.594 117.865 149.49 116.87C150.405 115.853 150.294 114.406 151.124 113.369C151.357 113.077 151.492 112.192 151.694 111.787C151.962 111.252 152.05 110.818 152.291 110.282C153.75 107.039 153.043 102.609 153.043 99.1295C153.043 92.2709 153.51 85.4365 153.51 78.5874C153.51 76.2295 153.29 73.9405 152.343 71.766C151.861 70.6611 151.666 68.6476 151.642 67.4345C151.62 66.3154 151.409 65.2439 151.409 64.1146C151.409 58.0936 151.752 51.6866 150.294 45.8549C149.777 43.7904 149.958 41.3985 149.256 39.3707C148.992 38.6087 148.585 37.8987 148.322 37.1401C148.078 36.4331 147.453 35.0559 146.974 34.5204C146.522 34.016 146.252 33.3841 145.806 32.8864C145.219 32.2302 144.194 31.4848 143.757 30.7855C143.077 29.6969 141.05 29.1707 139.971 28.4512" stroke="#E8EAED" strokeWidth="2.40946" strokeLinecap="round"/>
<path d="M127.364 29.1506C130.54 30.2502 134.746 30.8723 137.389 28.2299C138.102 27.5169 139.221 27.3311 139.969 26.5829C140.579 25.9736 141.449 25.3566 142.2 24.9488C142.842 24.6 143.396 24.0326 143.938 23.5482C144.346 23.1833 146.287 22.587 145.546 22.0309C144.506 21.251 143.288 21.2721 142.057 21.8105C140.228 22.6107 137.85 22.6145 135.871 22.6145C132.307 22.6145 128.875 22.1066 125.496 20.9805" stroke="#E8EAED" strokeWidth="2.40946" strokeLinecap="round"/>
<path d="M132.023 19.5807C131.218 19.48 130.33 16.4866 129.689 15.8457C128.671 14.8274 126.902 13.9565 125.591 13.3947C123.934 12.6843 122.375 11.7209 120.832 10.8529C119.86 10.3063 118.653 10.089 117.732 9.54303C116.787 8.98324 115.517 9.10308 114.749 8.37587C114.017 7.68229 112.911 7.08573 112.065 6.52137C111.23 5.9651 110.083 5.21348 109.134 5.09483C107.86 4.93554 106.74 4.38935 105.412 4.69281C104.638 4.86965 103.774 5.27557 102.961 5.09483C101.763 4.82855 101.318 2.54004 99.8097 2.54004C98.1739 2.54004 96.7187 3.38737 95.2448 4.05735C93.7593 4.73257 92.1934 4.17407 90.7058 4.17407" stroke="#E8EAED" strokeWidth="2.40946" strokeLinecap="round"/>
<path d="M87.4789 6.50801C88.3684 5.61852 89.2576 4.75441 89.2576 3.40767C89.2576 2.86428 89.3849 2.40375 88.8685 2.11689C88.4161 1.86556 87.4662 2.08885 87.0096 2.14777C86.0402 2.27285 85.1303 2.35413 84.2551 2.81478C83.5413 3.19045 82.6643 4.30226 83.1002 5.174C83.4033 5.78038 84.1841 6.26485 84.8109 6.42155C85.4293 6.57614 85.987 6.863 86.5896 7.06385" stroke="#E8EAED" strokeWidth="2.40946" strokeLinecap="round"/>
<path d="M82.041 7.8418C80.6612 8.76165 79.9288 9.57144 79.9288 11.2633C79.9288 12.3447 80.3437 13.4518 80.8182 14.4007" stroke="#E8EAED" strokeWidth="2.40946" strokeLinecap="round"/>
<path d="M104.161 8.87654C105.211 8.87654 106.2 8.4461 107.252 8.39349C107.673 8.37243 108.115 8.29688 108.562 8.29688C109.184 8.29688 109.736 8.50924 110.322 8.70479C110.947 8.91306 111.705 9.07537 112.131 9.59575C112.831 10.4514 113.712 11.1961 114.476 11.9895C115.243 12.7859 115.916 13.9222 117.01 14.2867" stroke="#E8EAED" strokeWidth="2.40946" strokeLinecap="round"/>
<path d="M116.92 15.5416C114.426 15.5416 112.021 16.5078 109.535 16.5078C109.016 16.5078 108.497 16.5078 107.978 16.5078C107.238 16.5078 106.778 16.4386 106.1 16.2126C105.748 16.0954 105.563 15.7784 105.327 15.5416C105.201 15.4159 105.055 15.1159 104.94 15.0586" stroke="#E8EAED" strokeWidth="2.40946" strokeLinecap="round"/>
<path d="M109.861 13.1281C109.657 13.0828 109.636 12.8123 109.389 12.7416C109.157 12.6754 109.083 12.3851 108.799 12.3552C108.593 12.3335 108.307 12.0609 108.122 11.9688" stroke="#E8EAED" strokeWidth="2.40946" strokeLinecap="round"/>
<path d="M96.8038 50.9297C97.4622 51.2783 97.9612 51.9874 98.4098 52.5642C98.9489 53.2572 99.487 53.9812 100.002 54.6962C100.872 55.9051 101.93 56.9686 102.716 58.2494C104.235 60.7241 106.287 62.9711 108.345 65.0291C108.648 65.3323 109.092 65.612 109.496 65.7682C110.36 66.1019 111.035 66.3274 111.834 66.8484C112.374 67.2003 112.841 67.6937 113.241 68.1986C113.728 68.8131 114.434 69.2832 114.997 69.8331C116.01 70.8233 117.227 71.6228 118.23 72.626C118.618 73.0136 118.763 73.8261 118.934 74.3387" stroke="#E8EAED" strokeWidth="1.20473" strokeLinecap="round"/>
<path d="M119.961 83.8048C119.961 82.3382 117.858 80.9566 116.663 80.479C115.538 80.0287 114.457 79.661 113.309 79.2637C112.331 78.9253 111.268 78.8536 110.303 78.4891C109.29 78.1065 108.276 77.4882 107.368 76.8973C103.668 74.4876 100.798 71.1296 99.2311 66.9765C98.8608 65.9952 98.2646 65.0945 97.8311 64.1339C97.4446 63.2774 96.9197 62.4267 96.3956 61.6466C95.9502 60.9837 95.8133 60.1451 95.3722 59.5004C95.1376 59.1574 95.1007 58.7946 94.889 58.4771" stroke="#E8EAED" strokeWidth="1.20473" strokeLinecap="round"/>
<path d="M92.5886 65.896C92.9146 67.9644 93.411 69.5992 94.2516 71.4604C94.7151 72.4867 95.1327 73.5747 95.4668 74.6513C96.0208 76.4363 96.7341 78.2024 97.3785 79.9599C98.041 81.7668 99.401 83.3305 100.761 84.6289C102.182 85.9852 104.249 86.6616 106.084 87.1944C107.722 87.6698 109.428 88.155 111.009 88.7649C112.913 89.4995 114.602 90.4022 116.225 91.6644C117.127 92.3657 118.04 93.0409 118.911 93.7821C119.748 94.4944 120.274 95.5009 120.958 96.3405C121.426 96.9154 122.006 97.7684 122.237 98.4867C122.32 98.7457 122.521 99.1554 122.521 99.4105" stroke="#E8EAED" strokeWidth="1.20473" strokeLinecap="round"/>
<path d="M125.611 24.1049C125.78 24.0837 125.733 24.0452 125.795 23.9209" stroke="#E8EAED" strokeWidth="2.40946" strokeLinecap="round"/>
<path d="M126.163 22.084C126.356 23.1425 127.176 24.0627 127.519 25.0916C127.807 25.9545 128.042 26.889 128.263 27.7729C128.548 28.9112 128.549 30.3078 128.549 31.484C128.549 35.1297 128.732 38.7949 128.732 42.4541C128.732 43.876 128.424 45.1914 128.182 46.5832C128.084 47.1435 127.835 48.467 127.448 48.8771C127.335 48.9964 126.87 49.763 126.795 49.7845C126.21 49.9517 125.613 49.7 125.062 49.6214C122.83 49.3025 120.324 49.6112 118.078 49.6112C114.785 49.6112 111.479 49.4276 108.199 49.4276C106.151 49.4276 103.951 48.0586 102.204 47.1439C100.491 46.2464 99.2303 44.5485 97.3515 43.9222" stroke="#E8EAED" strokeWidth="1.20473" strokeLinecap="round"/>
<path d="M137.907 32.1768C138.057 33.8229 138.626 35.3701 138.642 37.0501C138.657 38.6394 138.504 40.109 138.315 41.6787C137.955 44.6698 138.091 47.7039 138.091 50.7117C138.091 51.9607 137.907 53.1371 137.907 54.382C137.907 55.7035 136.795 54.8594 135.981 54.4738C135.328 54.1646 134.9 53.9924 134.319 53.5664C133.73 53.1344 133.125 52.8093 132.412 52.7202C131.799 52.6435 131.339 52.3633 130.679 52.3633C129.861 52.3633 129.022 53.046 128.375 53.4644C126.448 54.7113 125.162 56.3984 123.491 57.8688C123.007 58.295 122.446 59.072 121.85 59.3369C121.75 59.3815 121.142 59.7039 121.391 59.7039" stroke="#E8EAED" strokeWidth="1.20473" strokeLinecap="round"/>
<path d="M141.949 35.2983C142.054 36.8727 142.695 38.3883 142.825 39.9882C143.006 42.1988 142.866 44.4698 142.866 46.6864C142.866 49.1373 142.683 51.581 142.683 54.0168C142.683 56.2003 142.383 58.4444 141.694 60.5112C141.452 61.2364 141.378 61.9482 141.031 62.642C140.852 63.0003 140.37 63.6825 140.307 64.0285C140.171 64.7769 139.624 66.1865 138.788 66.455C137.91 66.7372 136.623 66.4958 135.709 66.4958C134.55 66.4958 133.391 66.4958 132.233 66.4958C131.655 66.4958 130.739 66.33 130.204 66.5977C129.09 67.1546 128.313 69.3365 127.716 70.3496C127.037 71.5033 126.342 72.6111 125.626 73.7446C125.349 74.1825 125.22 74.5801 124.698 74.7539" stroke="#E8EAED" strokeWidth="1.20473" strokeLinecap="round"/>
<path d="M149.98 67.2593C148.89 68.6221 148.959 71.0752 148.537 72.7034C148.232 73.8803 148.028 75.0477 147.646 76.1949C147.489 76.6649 147.049 78.0972 146.627 78.3386C145.75 78.8396 144.92 79.3547 144.345 80.2488C143.001 82.3399 141.944 84.5457 141.575 87.0302C141.427 88.0317 141.39 89.0338 141.236 90.0335C141.075 91.0815 140.658 92.1318 140.62 93.1959C140.604 93.6613 140.044 95.1468 140.429 95.3397" stroke="#E8EAED" strokeWidth="1.20473" strokeLinecap="round"/>
<path d="M152.846 88.0796C151.287 88.2213 150.338 89.8395 149.789 91.0935C149.11 92.6453 148.434 94.224 147.794 95.7948C146.938 97.8968 145.749 99.9999 145.247 102.258C144.814 104.207 143.245 106.193 142.265 107.935C141.899 108.587 141.494 109.027 140.811 109.368C140.503 109.522 139.627 109.856 139.665 109.856" stroke="#E8EAED" strokeWidth="1.20473" strokeLinecap="round"/>
<path d="M151.893 106.992C151.019 107.079 150.324 107.713 149.791 108.371C149.068 109.266 148.261 110.023 147.51 110.886C146.73 111.783 145.968 112.723 144.825 113.104" stroke="#E8EAED" strokeWidth="1.20473" strokeLinecap="round"/>
<path d="M145.775 123.419C143.511 123.85 141.711 127.345 140.809 129.15" stroke="#E8EAED" strokeWidth="1.20473" strokeLinecap="round"/>
<path d="M135.848 127.24C134.559 128.815 133.35 130.547 131.454 131.443C130.292 131.991 128.71 131.825 127.464 131.825C126.622 131.825 125.812 132.016 124.959 132.016" stroke="#E8EAED" strokeWidth="1.20473" strokeLinecap="round"/>
<path d="M136.416 139.466C135.158 139.606 133.865 141.144 132.702 141.567C131.764 141.908 130.964 142.749 130.027 143.053C129.758 143.14 127.88 143.985 128.393 144.241" stroke="#E8EAED" strokeWidth="1.20473" strokeLinecap="round"/>
<path d="M132.602 147.297C131.762 148.052 130.814 148.962 130.309 149.971" stroke="#E8EAED" strokeWidth="1.20473" strokeLinecap="round"/>
<path d="M138.521 169.074C137.718 169.074 137.377 167.284 137.089 166.686C136.571 165.61 135.937 164.501 135.232 163.534C134.189 162.106 132.955 160.65 131.687 159.48C130.574 158.453 129.433 157.587 128.355 156.509C127.165 155.318 126.346 154.06 125.436 152.646C122.973 148.813 119.914 145.317 117.997 141.099C116.703 138.252 115.3 135.456 113.869 132.684C113.22 131.427 112.812 130.036 112.012 128.853C111.732 128.439 111.632 127.644 111.205 127.431" stroke="#E8EAED" strokeWidth="1.20473" strokeLinecap="round"/>
<path d="M129.351 157.612C129.351 156.311 129.495 154.928 129.309 153.643C129.135 152.446 128.801 151.397 128.778 150.163C128.765 149.441 128.679 148.588 128.577 147.87C128.478 147.178 128.124 146.54 128.014 145.854C127.878 145.006 127.875 144.211 127.812 143.36C127.662 141.333 126.613 139.317 126.486 137.322C126.394 135.878 125.944 134.264 125.297 132.971C124.811 131.997 124.255 131.041 124.045 129.957C123.868 129.044 123.334 128.387 123.228 127.431C123.051 125.836 122.03 124.244 121.71 122.645C121.496 121.574 121.1 120.407 120.373 119.599C119.826 118.991 119.384 118.239 118.654 117.837C117.153 117.012 115.504 116.118 114.069 115.205C113.444 114.807 112.642 114.654 111.958 114.346C111.177 113.995 110.305 113.529 109.485 113.306C108.695 113.09 107.992 112.679 107.193 112.425C106.345 112.155 105.504 111.712 104.667 111.385C103.034 110.746 101.198 110.283 99.8276 109.093C99.1769 108.528 98.3034 108.266 97.6414 107.671C95.8551 106.063 94.0724 104.569 92.3777 102.874C90.8245 101.321 89.1521 99.5857 87.9947 97.7162C87.5044 96.924 87.0249 96.1112 86.6576 95.2541C86.5075 94.9039 86.3213 94.359 85.989 94.1929" stroke="#E8EAED" strokeWidth="1.20473" strokeLinecap="round"/>
<path d="M89.5692 77.0752C89.5692 81.2172 89.2474 85.3482 89.2474 89.4616C89.2474 93.5926 88.2823 97.6751 88.2823 101.848C88.2823 105.433 87.7395 109.505 88.3537 113.037C88.6765 114.892 89.4988 118.817 91.1778 119.936C92.3817 120.739 93.2844 123.332 94.2163 124.53C95.6224 126.338 96.0294 128.641 96.6471 130.803C97.3812 133.373 96.9791 136.106 97.5408 138.703C97.8276 140.03 97.8323 141.097 98.2736 142.421C98.7699 143.91 99.6393 145.587 100.508 146.89" stroke="#E8EAED" strokeWidth="1.20473" strokeLinecap="round"/>
<path d="M82.4977 84.7959C80.3581 85.5091 81.5325 96.2024 81.5325 98.1296C81.5325 102.554 82.4424 106.512 82.8373 110.856C83.1321 114.099 85.5997 117.767 86.8231 120.758C87.6493 122.777 89.2539 124.404 89.2539 126.62" stroke="#E8EAED" strokeWidth="1.20473" strokeLinecap="round"/>
<path d="M82.8131 119.866C82.8131 122.08 83.6554 123.848 84.4217 125.907C85.1424 127.844 85.8361 129.936 86.4951 131.913C87.1535 133.888 88.1908 135.646 89.5693 137.221C90.526 138.314 91.857 139.562 92.4648 140.778" stroke="#E8EAED" strokeWidth="1.20473" strokeLinecap="round"/>
<path d="M72.1926 100.562C70.8768 105.971 70.352 112.473 72.5858 117.685C73.8148 120.553 74.6632 123.732 76.375 126.3" stroke="#E8EAED" strokeWidth="1.20473" strokeLinecap="round"/>
<path d="M66.091 110.856C66.091 116.93 63.5172 122.657 63.5172 128.73C63.5172 131.715 64.8104 134.049 65.4475 136.916C65.7334 138.203 66.2324 139.496 66.3948 140.795C66.603 142.46 65.2183 142.751 64.8041 143.994" stroke="#E8EAED" strokeWidth="1.20473" strokeLinecap="round"/>
<path d="M58.6845 118.578C58.9748 121.772 59.0544 124.334 57.6479 127.265C56.7152 129.208 55.789 130.747 55.789 132.877C55.789 134.116 55.789 135.356 55.789 136.595" stroke="#E8EAED" strokeWidth="1.20473" strokeLinecap="round"/>
<path d="M57.3984 159.759C57.3984 156.388 57.1964 153.374 55.3966 150.429C54.3874 148.777 52.2305 147.55 51.947 145.424C51.6634 143.297 51.9291 140.996 51.9291 138.847" stroke="#E8EAED" strokeWidth="1.20473" strokeLinecap="round"/>
<path d="M43.5656 150.75C45.193 152.581 46.0887 154.871 47.2476 157.024C47.9903 158.403 46.4444 162.967 47.748 163.619" stroke="#E8EAED" strokeWidth="1.20473" strokeLinecap="round"/>
<path d="M69.6268 147.854C71.8446 145.39 73.6488 139.811 77.6699 139.811" stroke="#E8EAED" strokeWidth="1.20473" strokeLinecap="round"/>
<path d="M127.215 168.122C124.272 166.918 120.893 166.796 117.956 165.548C115.75 164.611 113.635 163.206 111.611 161.974C110.118 161.065 108.793 160.144 107.625 158.81C107.196 158.319 106.791 157.428 106.303 157.184" stroke="#E8EAED" strokeWidth="1.20473" strokeLinecap="round"/>
<path d="M132.363 175.202C129.813 175.202 127.137 173.441 124.535 173.021C122.912 172.759 121.476 172.628 119.816 172.628" stroke="#E8EAED" strokeWidth="1.20473" strokeLinecap="round"/>
<path d="M42.4902 136.688C42.3636 137.891 40.9134 138.445 40.011 138.931C38.863 139.549 37.684 139.981 36.443 140.347C35.3205 140.679 34.1973 141.006 33.0848 141.351C31.7783 141.756 30.4175 141.852 29.097 142.171C25.9703 142.925 22.8647 143.897 19.9343 145.24C17.5219 146.346 15.2455 147.398 13.1852 149.084C11.5264 150.441 10.0987 152.268 8.81701 153.977C8.2649 154.713 7.65801 155.405 7.13794 156.167C6.56606 157.006 6.021 157.889 5.41951 158.706C3.05494 161.915 2.47068 165.891 2.1204 169.744C2.02914 170.748 2.01752 171.84 1.99579 172.84C1.96535 174.24 2.17646 175.929 3.16982 177.005C4.18255 178.102 5.85268 178.502 7.30847 178.809C8.17649 178.991 9.2344 179.127 10.1288 179.182C11.2011 179.249 12.2492 179.307 13.3295 179.307C15.7612 179.307 18.1199 178.659 20.5311 178.487C21.561 178.414 22.5164 177.956 23.522 177.89C23.957 177.862 24.3445 177.5 24.7879 177.412C25.5198 177.265 26.4079 176.853 27.0835 176.526C28.3923 175.893 29.6236 175.063 30.7367 174.139C31.3069 173.665 31.8831 173.197 32.4552 172.722C32.8652 172.382 33.1714 171.935 33.5702 171.607C34.9284 170.488 35.6617 168.633 37.23 167.737C37.5318 167.565 38.08 167.18 38.2926 166.885C38.4442 166.674 38.6599 166.512 38.8304 166.32C38.9871 166.144 38.9364 165.925 39.0665 165.73" stroke="#E8EAED" strokeWidth="2.40946" strokeLinecap="round"/>
<path d="M57.3722 164.313C58.1093 164.313 59.219 165.624 59.2612 166.32C59.324 167.357 59.2215 168.901 59.799 169.809C60.3772 170.718 60.8035 171.671 61.4518 172.505C62.1638 173.42 64.5666 172.041 65.1904 171.58C66.939 170.287 68.686 168.979 69.0339 166.674C69.3383 164.657 69.0126 162.335 67.9386 160.6C67.2526 159.492 65.8133 158.645 64.5083 158.521C63.6956 158.444 62.9591 157.747 62.1602 157.701C61.5847 157.668 60.9828 157.528 60.4418 157.347" stroke="#E8EAED" strokeWidth="2.40946" strokeLinecap="round"/>
<path d="M60.5595 159.119C63.0023 159.119 64.8478 161.637 65.6361 163.723C65.7096 163.918 66.1152 166.192 65.682 166.058C65.1229 165.886 64.7652 164.773 64.5735 164.314C64.1641 163.333 63.9832 162.343 63.9832 161.284C63.9832 161.141 63.933 160.856 63.9964 160.713C64.2491 160.144 65.4509 161.337 65.5836 161.507C66.1463 162.227 67.2439 164.489 66.2657 165.311C64.4552 166.832 63.6481 163.228 63.5635 162.176C63.5137 161.556 63.3784 160.104 63.8127 159.545C64.1572 159.103 64.9083 160.997 64.9277 161.047C65.644 162.898 66.2453 164.914 66.41 166.898C66.4763 167.697 66.5021 168.771 65.9312 169.43C65.6448 169.76 65.0564 169.574 64.7441 169.403C63.4664 168.704 63.1191 166.849 63.065 165.534C63.0131 164.273 63.0576 162.718 63.6947 161.585C64.0871 160.888 64.725 161.779 64.9999 162.143C66.1013 163.6 67.0337 165.506 66.9741 167.37C66.9466 168.229 66.6149 169.288 65.7607 169.672C64.1522 170.396 64.7384 164.155 64.9802 163.5C65.2063 162.889 65.8718 161.7 66.6068 162.582C67.7963 164.01 67.3134 167.065 65.9312 168.243C65.1063 168.945 63.7357 167.029 63.3798 166.531C62.4539 165.234 62.2701 163.851 61.7467 162.412C61.6044 162.02 61.6297 161.959 61.7598 162.471C62.1581 164.039 62.5592 165.67 62.7502 167.278C62.7818 167.545 62.9615 168.413 62.7764 168.682C62.5195 169.056 61.719 166.494 61.7008 166.406C61.3929 164.928 61.3859 163.416 61.3859 161.913C61.3859 161.226 61.3877 160.986 61.9631 161.69C63.3119 163.34 64.0176 165.512 64.4817 167.56C64.5301 167.774 65.117 170.129 64.7834 170.309C64.5383 170.441 63.2764 168.534 63.1831 168.393C62.0605 166.705 61.3278 164.679 61.0055 162.681C60.8816 161.912 60.8651 161.225 60.5661 160.497C60.559 160.479 60.2613 159.781 60.2316 159.854C60.1593 160.029 60.269 160.527 60.284 160.647C60.3974 161.554 60.5481 162.456 60.7038 163.356C61.0573 165.401 61.5114 167.42 61.8975 169.456C61.9423 169.692 61.9682 169.925 61.9762 170.164C61.986 170.458 61.9548 169.577 61.9238 169.285C61.7685 167.828 61.3517 166.576 60.7628 165.245C60.5162 164.688 59.9777 163.437 60.1135 164.93C60.3055 167.042 61.3517 169.075 62.2583 170.958C62.4437 171.343 62.8702 172.541 62.8026 172.119C62.3884 169.53 60.9014 167.052 59.9955 164.602C59.8762 164.28 59.6775 163.41 59.3199 163.251C59.1011 163.154 58.7048 162.819 58.664 162.595C58.5899 162.188 58.5525 161.838 58.5525 161.415C58.5525 161.29 58.5456 161.685 58.6246 161.782C58.7775 161.969 58.9484 162.078 59.0247 162.307" stroke="#E8EAED" strokeWidth="0.602364" strokeLinecap="round"/>
<path d="M40.0125 156.877C39.6837 156.913 39.2915 157.461 38.9434 157.592C38.3104 157.829 37.6652 158.263 37.061 158.582C36.3701 158.947 35.5985 159.288 34.9359 159.71C34.1665 160.2 33.1317 160.259 32.3386 160.773C30.8121 161.762 29.1072 162.414 27.6162 163.462C26.0775 164.543 24.4025 165.424 22.9201 166.61C21.4213 167.809 19.8927 169.078 18.0796 169.811C16.5214 170.441 14.9346 170.572 13.2654 170.572C12.3557 170.572 11.5457 170.591 11.2978 169.627C11.1458 169.036 10.753 168.495 11.0354 167.85C11.2809 167.289 11.5667 166.698 11.6782 166.085C11.9531 164.573 12.3685 162.499 13.3441 161.245C13.806 160.651 14.2079 160.019 14.6559 159.421C15.1468 158.767 15.7657 158.404 16.4137 157.933C17.5505 157.106 18.9718 156.64 20.185 155.932C20.9479 155.487 21.8717 155.137 22.684 154.778C23.824 154.273 24.9189 153.69 26.0749 153.217C26.9907 152.842 27.9171 152.525 28.8231 152.154C29.205 151.998 29.5877 151.842 29.9709 151.689C30.3968 151.518 30.8276 151.597 31.2695 151.505C33.0361 151.137 34.6507 150.176 36.3526 149.557C37.8148 149.025 38.9763 147.781 40.3667 147.143C41.065 146.823 41.741 146.248 42.3212 145.753C42.5799 145.532 42.8183 145.085 43.082 144.953" stroke="#E8EAED" strokeWidth="2.40946" strokeLinecap="round"/>
<path d="M36.3505 140.938C36.3505 142.287 36.4617 143.684 36.1406 145.004C36.0283 145.466 35.8783 145.896 35.8783 146.369" stroke="#E8EAED" strokeWidth="2.40946" strokeLinecap="round"/>
<path d="M27.377 143.653C26.8601 144.748 26.7784 146.026 26.1439 147.064C25.9352 147.405 25.781 147.79 25.6061 148.14" stroke="#E8EAED" strokeWidth="2.40946" strokeLinecap="round"/>
<path d="M17.9375 147.55C17.4284 148.596 17.0403 150.053 16.993 151.236C16.9722 151.756 16.6388 152.226 16.6388 152.744" stroke="#E8EAED" strokeWidth="2.40946" strokeLinecap="round"/>
<path d="M9.19245 154.987C9.2603 156.209 9.85329 157.135 10.373 158.175" stroke="#E8EAED" strokeWidth="2.40946" strokeLinecap="round"/>
<path d="M3.7641 164.786C4.51316 164.854 5.32674 165.454 6.06626 165.671C6.386 165.765 6.73313 165.73 7.06321 165.73C7.58694 165.73 7.542 165.783 7.542 166.32" stroke="#E8EAED" strokeWidth="2.40946" strokeLinecap="round"/>
<path d="M5.30778 177.417C5.77473 177.37 6.00144 176.744 6.21291 176.394C6.7432 175.516 7.36442 174.706 7.97068 173.882C8.43051 173.256 9.05255 172.73 9.43987 172.052C9.54975 171.86 9.71349 171.868 9.91211 171.868" stroke="#E8EAED" strokeWidth="2.40946" strokeLinecap="round"/>
<path d="M18.9941 178.599C18.6877 177.718 18.6808 176.495 18.64 175.555C18.623 175.164 18.4038 174.864 18.4038 174.466C18.4038 174.099 18.0176 172.653 18.4038 172.459" stroke="#E8EAED" strokeWidth="2.40946" strokeLinecap="round"/>
<path d="M30.6914 173.287C30.1022 173.051 29.4858 172.92 28.9074 172.631C27.9592 172.157 27.4199 171.614 26.7823 170.794C26.501 170.433 26.2654 170.036 26.0608 169.627C25.6446 168.794 27.2713 169.155 27.7399 169.155" stroke="#E8EAED" strokeWidth="2.40946" strokeLinecap="round"/>
<path d="M36.002 167.029C34.4345 166.204 34.2311 164.82 34.2311 163.251" stroke="#E8EAED" strokeWidth="2.40946" strokeLinecap="round"/>
<path d="M119.906 19.7607C119.186 19.8408 119.189 21.5963 118.93 22.1291C118.599 22.81 118.369 23.4676 118.026 24.154C117.354 25.4976 116.669 25.8414 115.26 26.0975C113.691 26.3828 112.035 25.8009 110.803 24.8772C109.506 23.9039 108.251 22.9725 107.54 21.5506" stroke="#E8EAED" strokeWidth="1.20473" strokeLinecap="round"/>
<path d="M121.206 21.2256C121.206 23.0105 121.368 24.7808 121.368 26.559C121.368 28.3519 121.266 30.1757 121.377 31.9647C121.46 33.286 121.585 34.4384 121.332 35.7613C121.199 36.4585 121.319 37.2918 120.627 37.732C119.864 38.2173 118.568 37.9851 117.725 37.9851C116.974 37.9851 116.704 37.7352 116.125 37.3342C115.469 36.8801 114.831 36.3389 114.128 35.9602C113.922 35.8498 112.832 35.1686 113.395 35.5444" stroke="#E8EAED" strokeWidth="1.20473" strokeLinecap="round"/>
<path d="M113.391 38.4736C112.298 38.6722 111.196 39.7529 110.335 40.4262C110.037 40.6599 109.198 41.0771 109.974 41.0771" stroke="#E8EAED" strokeWidth="1.20473" strokeLinecap="round"/>
<path d="M118.281 41.7271C115.748 42.1071 114.399 45.1559 111.574 44.0051C108.882 42.9084 105.728 42.5246 103.312 40.9136" stroke="#E8EAED" strokeWidth="1.20473" strokeLinecap="round"/>
<path d="M105.469 24.1963C105.788 27.2328 105.584 30.1899 105.584 33.2221C105.584 34.0212 105.453 35.2122 105.006 35.8836" stroke="#E8EAED" strokeWidth="1.20473" strokeLinecap="round"/>
</svg>
