<svg width="257" height="313" viewBox="0 0 257 313" fill="none" xmlns="http://www.w3.org/2000/svg">
    <path d="M113.194 22.9209C112.426 23.2409 111.738 24.4692 111.328 25.1642C110.926 25.8456 110.375 26.4635 110.009 27.1625C109.451 28.2264 108.479 29.1755 108.039 30.3013C107.581 31.4714 106.714 32.8375 106.587 34.1093C106.485 35.1314 105.899 36.1221 105.899 37.135C105.899 38.4375 105.647 39.9742 106.201 41.1692C106.915 42.7131 106.844 44.4232 107.35 46.014C107.609 46.8257 107.857 47.7004 108.274 48.4459C108.619 49.0617 109.161 49.7932 109.292 50.4818C109.443 51.2745 109.866 52.1154 110.31 52.7817"
          stroke="#F4B400" strokeWidth="3.72528" strokeLinecap="round"/>
    <path d="M110.97 58.52C111.116 60.1333 112.549 61.5493 113.256 62.9629C113.67 63.79 114.033 64.4266 114.711 65.0674C115.057 65.3937 115.895 65.9835 116.348 66.1847C116.981 66.466 118.225 66.4789 118.686 67.055C119.124 67.602 123.128 67.2857 123.727 67.0291C125.869 66.1109 128.228 65.1128 129.91 63.4306"
          stroke="#F4B400" strokeWidth="3.72528" strokeLinecap="round"/>
    <path d="M117.621 61.9095C118.38 61.9095 119.418 59.9381 119.727 59.3521C120.149 58.5536 120.66 57.8102 121.081 57.0121C121.32 56.5592 121.421 55.9846 121.683 55.5913"
          stroke="#F4B400" strokeWidth="3.72528" strokeLinecap="round"/>
    <path d="M124.542 60.8565C125.141 60.8565 125.639 59.9621 125.963 59.5361C126.315 59.0732 126.605 58.5826 126.874 58.0652C127.132 57.5679 127.563 57.2117 127.818 56.728C128.282 55.8498 128.905 54.6211 128.905 53.6357"
          stroke="#F4B400" strokeWidth="3.72528" strokeLinecap="round"/>
    <path d="M117.919 20.6665C118.022 21.7018 118.837 22.7861 119.18 23.7606C119.684 25.1961 120.193 26.5442 120.669 28.0007C121.148 29.4638 121.128 30.8422 121.128 32.3554"
          stroke="#F4B400" strokeWidth="3.72528" strokeLinecap="round"/>
    <path d="M129.15 19.0625C129.472 21.7641 129.854 24.4913 130.054 27.1989C130.124 28.1365 130.228 29.3661 130.016 30.293C129.821 31.1456 129.614 32.8059 129.15 33.5018"
          stroke="#F4B400" strokeWidth="3.72528" strokeLinecap="round"/>
    <path d="M109.069 69.5466C110.948 73.4044 113.066 79.2765 118.169 79.2765C122.173 79.2765 125.869 77.2778 128.799 74.6918C129.96 73.6673 130.984 72.5646 131.682 71.1683C132.264 70.0055 132.313 68.7178 132.313 67.4245C132.313 66.5402 132.313 65.656 132.313 64.7718C132.313 64.1297 131.772 63.6858 131.772 63.0601"
          stroke="#F4B400" strokeWidth="3.72528" strokeLinecap="round"/>
    <path d="M108.352 70.0869C108.352 75.7628 108.375 81.4545 108.532 87.1041C108.561 88.1663 109.084 89.3666 109.293 90.4075C109.543 91.6591 110.374 92.8309 110.654 94.0912C110.845 94.9497 111.191 95.9447 111.555 96.7539C111.845 97.3985 111.997 98.4678 112.416 99.0062C112.856 99.5725 112.845 100.254 113.307 100.818C113.748 101.357 113.944 102.158 114.388 102.69C114.785 103.167 114.881 103.789 115.118 104.332C115.449 105.087 115.878 105.767 116.139 106.524C117.282 109.825 117.85 113.753 119.973 116.584C121.159 118.165 123.006 119.157 124.388 120.538C125.287 121.437 126.424 122.152 127.191 123.161C128.099 124.356 129.319 125.526 130.334 126.654C132.411 128.963 134.797 130.934 136.91 133.231C138.348 134.793 139.07 136.596 140.154 138.386C141.452 140.532 142.294 142.896 143.167 145.223C144.193 147.96 145.498 150.522 146.65 153.191C147.885 156.049 149.364 159.018 151.225 161.529C152.065 162.663 152.757 163.862 153.758 164.863C154.679 165.784 155.742 166.748 156.46 167.826C157.147 168.855 158.29 169.497 159.083 170.448C159.497 170.945 160.496 172.43 161.145 172.43"
          stroke="#F4B400" strokeWidth="3.72528" strokeLinecap="round"/>
    <path d="M161.683 173.331C161.739 174.346 162.857 175.44 163.484 176.174C164.279 177.104 165.27 177.846 166.097 178.737C166.465 179.133 167.015 179.657 167.539 179.818C168.331 180.061 168.956 180.915 169.731 181.259C173.583 182.971 177.565 185.91 179.711 189.557C182.027 193.496 184.464 197.505 185.737 201.89C186.277 203.751 186.723 205.644 187.409 207.426C187.59 207.897 187.692 208.436 187.799 208.917C187.893 209.341 188.209 209.665 188.35 210.088"
          stroke="#F4B400" strokeWidth="3.72528" strokeLinecap="round"/>
    <path d="M187.449 210.449C187.926 211.402 188.46 212.219 188.851 213.232C189.27 214.319 189.617 215.289 189.972 216.395C190.516 218.092 191.183 220.092 191.233 221.9C191.331 225.42 191.593 228.899 191.593 232.431C191.593 235.946 191.86 239.397 192.534 242.842C193.244 246.467 194.007 250.113 194.616 253.773C194.963 255.849 195.668 257.78 196.138 259.819C196.562 261.658 196.866 263.482 197.539 265.264C197.843 266.068 197.915 266.949 198.26 267.747C198.616 268.571 198.974 269.621 199.201 270.489C199.723 272.489 201.137 274.29 201.864 276.255C202.844 278.907 202.959 281.849 204.246 284.424C205.109 286.15 206.243 287.73 207.089 289.469C207.934 291.205 208.284 293.034 209.031 294.814C209.271 295.387 209.977 298.547 210.693 297.116"
          stroke="#F4B400" strokeWidth="3.72528" strokeLinecap="round"/>
    <path d="M211.415 297.837C211.415 298.831 212.4 299.703 213.257 300.04C213.899 300.292 214.338 300.971 214.919 301.341C216.272 302.202 217.463 303.806 218.172 305.225C218.709 306.3 220.172 309.544 219.163 310.73C218.377 311.655 217.26 312.252 216.1 312.252"
          stroke="#F4B400" strokeWidth="3.72528" strokeLinecap="round"/>
    <path d="M184.389 313.153C195.789 313.153 207.212 312.973 218.623 312.973" stroke="#F4B400" strokeWidth="3.72528"
          strokeLinecap="round"/>
    <path d="M184.382 312.432C182.988 312.432 181.751 311.242 180.789 310.28C179.635 309.126 179.337 307.903 179.337 306.306C179.337 304.559 179.756 303.286 180.498 301.801C180.822 301.153 181.305 300.445 181.96 300.08C182.355 299.859 182.751 299.279 183.211 299.279C183.669 299.279 184.131 298.924 184.472 298.658C184.589 298.567 184.879 298.602 184.913 298.448C184.998 298.064 184.961 297.727 185.103 297.337C185.565 296.065 185.283 294.397 185.283 293.063C185.283 291.701 185.191 290.21 184.963 288.868C184.8 287.912 184.919 286.951 184.703 285.985C184.379 284.542 184.131 283.043 183.752 281.611C183.213 279.575 182.821 277.108 181.68 275.315C180.928 274.133 180.428 272.759 179.698 271.541C179.08 270.511 178.389 269.525 177.756 268.508C176.537 266.548 175.151 264.72 174.022 262.712C172.244 259.551 170.668 256.376 169.027 253.152C167.604 250.357 166.376 247.556 165.193 244.664C164.45 242.848 163.73 241.036 162.851 239.278C162.522 238.62 162.075 237.908 161.86 237.206C161.745 236.834 161.428 236.704 161.249 236.385C161.044 236.022 161.042 235.683 160.738 235.354C159.885 234.432 159.308 233.076 158.626 232.011C158.276 231.464 157.736 230.873 157.535 230.269"
          stroke="#F4B400" strokeWidth="3.72528" strokeLinecap="round"/>
    <path d="M184.925 303.963C184.925 306.577 185.465 309.374 185.465 311.891" stroke="#F4B400" strokeWidth="3.72528"
          strokeLinecap="round"/>
    <path d="M192.854 305.225C193.541 306.867 194.05 309.223 194.115 311.03C194.124 311.282 194.115 312.674 194.115 311.711"
          stroke="#F4B400" strokeWidth="3.72528" strokeLinecap="round"/>
    <path d="M200.063 304.324C201.291 306.891 201.505 309.301 201.505 312.092C201.505 312.686 201.505 314.467 201.505 313.873"
          stroke="#F4B400" strokeWidth="3.72528" strokeLinecap="round"/>
    <path d="M206.551 304.324C207.249 304.655 207.433 305.89 207.612 306.556C207.968 307.882 207.992 309.216 207.992 310.58C207.992 311.317 207.992 312.055 207.992 312.792"
          stroke="#F4B400" strokeWidth="3.72528" strokeLinecap="round"/>
    <path d="M156.997 230.089C155.228 230.089 153.46 230.089 151.691 230.089C149.252 230.089 146.62 230.103 144.204 230.409C142.345 230.645 139.126 230.624 138.438 232.862C138.266 233.42 137.819 234.055 137.577 234.593C137.304 235.2 137.181 236.217 137.537 236.796C138.542 238.429 137.149 240.758 136.366 242.151C135.918 242.947 135.067 243.585 134.514 244.323C133.694 245.416 133.113 246.65 132.352 247.747C131.329 249.219 131.822 250.861 133.032 252.071C133.701 252.739 134.134 253.594 134.654 254.373C135.147 255.114 135.956 255.916 136.235 256.756C136.589 257.817 137.358 258.772 137.707 259.819C138.085 260.952 138.358 262.182 138.888 263.242C139.312 264.09 139.339 265.369 139.339 266.306C139.339 267.643 139.564 269.369 138.758 270.53C138.148 271.408 137.777 272.414 137.076 273.243C136.382 274.063 135.285 275.151 134.844 276.105C133.779 278.414 132.295 280.59 131.23 282.922C129.776 286.108 127.564 289.081 126.275 292.352C125.128 295.264 123.466 297.872 122.081 300.64C120.277 304.248 118.798 308.211 118.798 312.252"
          stroke="#F4B400" strokeWidth="3.72528" strokeLinecap="round"/>
    <path d="M83.6611 312.793C91.9117 312.793 100.185 312.612 108.446 312.612C110.325 312.612 112.235 312.723 114.112 312.612C114.937 312.564 115.878 312.252 116.815 312.252"
          stroke="#F4B400" strokeWidth="3.72528" strokeLinecap="round"/>
    <path d="M83.1233 311.891C82.7253 312.245 81.7144 312.104 81.2314 312.062C80.2812 311.979 79.6798 311.068 79.0792 310.45C77.2681 308.587 76.9971 306.482 76.9971 304.003C76.9971 301.855 78.7722 299.904 80.7409 299.099C81.9857 298.589 83.3311 298.37 84.6448 298.108C85.5723 297.922 86.5448 297.992 87.4476 297.797C89.3622 297.383 91.3289 297.117 93.2936 297.117C94.3301 297.117 95.3656 296.986 96.3567 296.656C97.1517 296.391 98.0266 296.3 98.7591 295.855C101.434 294.231 104.085 292.839 105.926 290.129C108.07 286.974 109.234 283.17 110.251 279.539C110.614 278.242 111.117 276.971 111.592 275.715C111.972 274.709 112.164 273.564 112.683 272.612C113.391 271.313 114.128 269.96 114.555 268.558C115.191 266.469 115.196 264.515 115.196 262.341C115.196 260.62 113.502 257.303 112.223 256.225C108.378 252.988 103.381 250.564 100.591 246.205C98.385 242.758 97.3577 239.009 97.3577 234.954"
          stroke="#F4B400" strokeWidth="3.72528" strokeLinecap="round"/>
    <path d="M95.1945 236.575C94.549 237.397 94.2009 238.48 93.8431 239.448C93.4399 240.539 92.8589 241.54 92.5318 242.661C92.286 243.504 91.9579 244.303 91.681 245.134C91.4938 245.695 91.061 246.152 90.9102 246.705C90.1773 249.393 87.5583 251.648 86.0853 253.963C85.3086 255.183 83.9981 255.986 82.9421 256.946C81.2778 258.459 79.8036 260.178 78.1573 261.711C75.4706 264.212 72.6365 266.748 70.2693 269.569C68.6744 271.469 67.987 273.607 67.987 276.075C67.987 279.067 67.6653 282.259 68.0771 285.224C68.4567 287.958 68.7077 290.784 68.7077 293.553C68.7077 295.053 68.7541 296.382 69.1081 297.837C69.3212 298.713 69.1241 299.584 69.6987 300.35C70.41 301.298 70.6508 302.553 70.8599 303.703C70.9973 304.459 70.8322 305.551 70.3394 306.126C69.8766 306.665 70.1239 307.242 69.7888 307.807C69.0323 309.084 68.8149 310.222 67.4865 311.091C65.7515 312.225 62.6469 311.891 60.6896 311.891C53.8785 311.891 47.076 311.711 40.279 311.711C37.0184 311.711 33.762 312.072 30.4891 312.072C28.5728 312.072 22.827 312.252 24.7432 312.252"
          stroke="#F4B400" strokeWidth="3.72528" strokeLinecap="round"/>
    <path d="M24.745 312.072C19.6561 312.314 14.5794 312.072 9.51956 312.072C8.23159 312.072 6.94362 312.072 5.65565 312.072C4.95513 312.072 4.21548 312.177 3.57354 311.892C2.81669 311.555 2.67979 310.288 2.49245 309.539C2.26619 308.634 2.47905 307.667 2.36232 306.746C2.25977 305.937 2.04199 305.244 2.04199 304.414C2.04199 303.19 1.94115 301.92 2.052 300.7C2.183 299.259 2.97195 298.249 3.74371 297.127C4.24213 296.402 5.16137 295.771 5.96596 295.455C6.94394 295.071 7.83795 294.364 8.88892 294.094C9.67161 293.892 10.5994 293.357 11.4115 293.333C12.4198 293.303 13.2065 292.677 14.1542 292.612C15.2678 292.535 16.5785 291.625 17.5777 291.171C18.8912 290.574 19.8466 289.573 20.9211 288.648C22.4736 287.312 22.9483 284.808 23.2635 282.882C23.4203 281.924 23.5124 280.778 24.2044 279.999C25.2466 278.827 27.6366 278.652 29.1494 278.107C33.9766 276.37 35.9744 271.771 37.9784 267.477C39.0954 265.083 39.7436 262.494 40.8613 260.099C41.2319 259.305 41.0776 258.597 41.1516 257.747C41.5059 253.672 41.3217 249.516 41.3217 245.414C41.3217 243.031 41.4524 240.677 40.9614 238.337C40.4764 236.026 40.5835 233.567 39.8402 231.31C39.0343 228.862 38.3452 226.304 37.3577 223.923C36.7417 222.437 36.2784 220.876 35.7161 219.368C35.0513 217.585 34.0796 215.938 33.4338 214.133C32.4832 211.475 31.6431 208.788 30.731 206.125C29.9893 203.959 30.1613 201.369 29.2495 199.278C28.7744 198.188 29.3564 196.918 29.0293 195.814C28.7622 194.913 28.8892 193.91 28.8892 192.971"
          stroke="#F4B400" strokeWidth="3.72528" strokeLinecap="round"/>
    <path d="M90.5105 302.702C89.1748 302.9 87.7619 305.301 86.9869 306.306C86.7273 306.642 85.4854 307.935 85.4854 308.368C85.4854 308.985 85.6634 310.081 84.9248 310.45"
          stroke="#F4B400" strokeWidth="3.72528" strokeLinecap="round"/>
    <path d="M98.4379 302.702C98.0234 305.051 97.1076 307.277 96.3758 309.539C96.2528 309.919 95.473 311.891 95.7352 311.891"
          stroke="#F4B400" strokeWidth="3.72528" strokeLinecap="round"/>
    <path d="M106.909 304.324C107.579 304.742 107.089 308.71 107.089 309.649C107.089 310.473 106.909 311.297 106.909 312.072"
          stroke="#F4B400" strokeWidth="3.72528" strokeLinecap="round"/>
    <path d="M18.7961 300.36C16.9596 303.665 14.1113 306.826 14.1113 310.81" stroke="#F4B400" strokeWidth="3.72528"
          strokeLinecap="round"/>
    <path d="M31.9512 299.639V311.711" stroke="#F4B400" strokeWidth="3.72528" strokeLinecap="round"/>
    <path d="M46.9072 300.54C47.1239 302.355 47.0649 304.164 47.0874 305.986C47.1033 307.27 47.4478 308.519 47.4478 309.799C47.4478 310.233 47.4478 310.667 47.4478 311.101C47.4478 311.716 47.0874 312.199 47.0874 312.792"
          stroke="#F4B400" strokeWidth="3.72528" strokeLinecap="round"/>
    <path d="M8.88986 300.18C6.89368 301.477 5.6314 303.819 4.24516 305.685C3.82465 306.251 3.43502 306.945 3.12402 307.567"
          stroke="#F4B400" strokeWidth="3.72528" strokeLinecap="round"/>
    <path d="M64.9242 278.017C63.6859 280.012 62.7513 282.151 61.8611 284.313C61.3925 285.451 60.7 286.48 60.1994 287.607C59.5804 289 58.4968 290.22 57.9771 291.631C57.3735 293.269 56.6993 294.89 56.2754 296.586C55.5413 299.522 55.7349 302.574 55.7349 305.575C55.7349 307.2 55.4879 309.038 55.875 310.63C56.0104 311.187 56.0952 311.681 56.0952 312.252"
          stroke="#F4B400" strokeWidth="3.72528" strokeLinecap="round"/>
    <path d="M29.1378 198.767C27.5438 197.173 27.6839 194.06 27.6839 191.941C27.6839 190.316 27.0176 188.795 26.9569 187.216C26.8768 185.132 25.8878 182.425 24.4933 180.876C23.0677 179.291 23.2413 177.039 21.949 175.423C21.585 174.968 21.376 173.591 21.0605 172.96C20.6439 172.127 20.5069 171.451 20.1316 170.617C17.8591 165.567 18.9604 158.669 18.9604 153.251C18.9604 142.571 18.2334 131.93 18.2334 121.265C18.2334 117.593 18.5749 114.029 20.0508 110.643C20.8007 108.923 21.1042 105.787 21.1412 103.898C21.1754 102.156 21.5047 100.487 21.5047 98.729C21.5047 89.3536 20.9712 79.3774 23.2413 70.2967C24.045 67.0821 23.7638 63.3576 24.8568 60.2001C25.2675 59.0136 25.9019 57.908 26.3107 56.7268C26.6918 55.626 27.6648 53.4816 28.4108 52.6478C29.1136 51.8623 29.5349 50.8783 30.2282 50.1034C31.1425 49.0816 32.7383 47.9209 33.4188 46.8321C34.4782 45.137 37.6346 44.3177 39.3153 43.1973"
          stroke="#F4B400" strokeWidth="3.72528" strokeLinecap="round"/>
    <path d="M58.9404 44.2877C53.9943 45.9999 47.4455 46.9685 43.331 42.854C42.2208 41.7438 40.4776 41.4545 39.3125 40.2894C38.3637 39.3407 37.0089 38.38 35.8393 37.7451C34.8387 37.2019 33.9763 36.3184 33.1333 35.5642C32.4982 34.9959 29.4749 34.0674 30.6294 33.2016C32.2485 31.9872 34.1452 32.02 36.0614 32.8583C38.9094 34.1043 42.6126 34.1103 45.6936 34.1103C51.243 34.1103 56.5878 33.3194 61.8483 31.5659"
          stroke="#F4B400" strokeWidth="3.72528" strokeLinecap="round"/>
    <path d="M51.6709 29.3851C52.9249 29.2284 54.3078 24.5673 55.3057 23.5695C56.8914 21.9838 59.6457 20.6277 61.6868 19.7529C64.2678 18.6468 66.695 17.1466 69.0978 15.795C70.6108 14.9439 72.4894 14.6056 73.924 13.7555C75.3949 12.8838 77.3732 13.0704 78.5684 11.9381C79.7084 10.8581 81.4303 9.9292 82.7485 9.05043C84.0477 8.18426 85.8342 7.01391 87.3122 6.82916C89.2965 6.58112 91.0404 5.73065 93.1077 6.20317C94.3124 6.47853 95.6578 7.11059 96.9242 6.82916C98.7901 6.41453 99.4829 2.85107 101.831 2.85107C104.378 2.85107 106.644 4.17047 108.939 5.2137C111.252 6.26508 113.69 5.39544 116.007 5.39544"
          stroke="#F4B400" strokeWidth="3.72528" strokeLinecap="round"/>
    <path d="M121.041 9.02971C119.656 7.64467 118.272 6.29916 118.272 4.20215C118.272 3.35603 118.073 2.63894 118.877 2.19227C119.582 1.80092 121.061 2.14861 121.772 2.24035C123.282 2.43512 124.698 2.56167 126.061 3.27895C127.173 3.86391 128.538 5.59512 127.859 6.95251C127.387 7.89671 126.172 8.65108 125.196 8.89508C124.233 9.13579 123.364 9.58247 122.426 9.89521"
          stroke="#F4B400" strokeWidth="3.72528" strokeLinecap="round"/>
    <path d="M129.52 11.1069C131.668 12.5392 132.808 13.8002 132.808 16.4346C132.808 18.1184 132.162 19.8423 131.424 21.3198"
          stroke="#F4B400" strokeWidth="3.72528" strokeLinecap="round"/>
    <path d="M95.0603 12.718C93.4243 12.718 91.885 12.0478 90.2465 11.9659C89.5909 11.9331 88.9035 11.8154 88.2073 11.8154C87.238 11.8154 86.3795 12.1461 85.466 12.4506C84.4931 12.7749 83.3126 13.0276 82.6496 13.8379C81.5595 15.1703 80.1871 16.3298 78.9974 17.5653C77.8034 18.8052 76.7556 20.5747 75.0527 21.1423"
          stroke="#F4B400" strokeWidth="3.72528" strokeLinecap="round"/>
    <path d="M75.2021 23.0979C79.0862 23.0979 82.8304 24.6022 86.7019 24.6022C87.5098 24.6022 88.3177 24.6022 89.1256 24.6022C90.2774 24.6022 90.9948 24.4945 92.0506 24.1425C92.5979 23.9601 92.8854 23.4666 93.2541 23.0979C93.4498 22.9021 93.6774 22.4349 93.8558 22.3457"
          stroke="#F4B400" strokeWidth="3.72528" strokeLinecap="round"/>
    <path d="M86.1846 19.3374C86.502 19.2669 86.5351 18.8457 86.92 18.7357C87.281 18.6326 87.3968 18.1805 87.8393 18.134C88.1599 18.1002 88.6053 17.6758 88.8924 17.5322"
          stroke="#F4B400" strokeWidth="3.72528" strokeLinecap="round"/>
    <path d="M106.515 78.1987C105.49 78.7415 104.713 79.8457 104.014 80.7438C103.175 81.8229 102.337 82.9503 101.536 84.0635C100.18 85.9459 98.5324 87.602 97.3085 89.5964C94.944 93.4497 91.7491 96.9485 88.5445 100.153C88.0723 100.625 87.3813 101.061 86.7519 101.304C85.4068 101.824 84.3552 102.175 83.1113 102.986C82.2711 103.534 81.5427 104.302 80.9202 105.088C80.1628 106.045 79.0633 106.777 78.187 107.633C76.6094 109.175 74.7142 110.42 73.1521 111.982C72.5487 112.586 72.3227 113.851 72.0566 114.649"
          stroke="#F4B400" strokeWidth="1.86264" strokeLinecap="round"/>
    <path d="M70.4619 129.389C70.4619 127.105 73.737 124.954 75.5964 124.21C77.3491 123.509 79.0326 122.936 80.8194 122.318C82.3419 121.791 83.9978 121.679 85.5002 121.112C87.0774 120.516 88.6571 119.553 90.0703 118.633C95.8324 114.881 100.3 109.652 102.74 103.185C103.317 101.657 104.245 100.255 104.92 98.759C105.522 97.4253 106.34 96.1007 107.156 94.886C107.849 93.8538 108.062 92.548 108.749 91.5441C109.115 91.0101 109.172 90.4452 109.502 89.9507"
          stroke="#F4B400" strokeWidth="1.86264" strokeLinecap="round"/>
    <path d="M113.09 101.503C112.583 104.724 111.81 107.27 110.501 110.168C109.779 111.766 109.129 113.46 108.608 115.136C107.746 117.916 106.635 120.666 105.632 123.402C104.6 126.216 102.483 128.651 100.365 130.673C98.152 132.785 94.9339 133.838 92.0764 134.667C89.5262 135.408 86.8699 136.163 84.4078 137.113C81.4423 138.257 78.8126 139.662 76.2856 141.628C74.8815 142.72 73.459 143.771 72.1028 144.925C70.7996 146.034 69.9811 147.601 68.9159 148.909C68.1865 149.804 67.2836 151.132 66.9241 152.251C66.7944 152.654 66.4814 153.292 66.4814 153.689"
          stroke="#F4B400" strokeWidth="1.86264" strokeLinecap="round"/>
    <path d="M61.6665 36.4287C61.4024 36.3957 61.4767 36.3357 61.3799 36.1421" stroke="#F4B400" strokeWidth="3.72528"
          strokeLinecap="round"/>
    <path d="M60.8062 33.2842C60.5065 34.9324 59.2288 36.3653 58.6948 37.9673C58.2469 39.311 57.88 40.7661 57.5359 42.1425C57.0928 43.9149 57.0914 46.0896 57.0914 47.921C57.0914 53.5978 56.8057 59.3048 56.8057 65.0026C56.8057 67.2167 57.286 69.2648 57.6629 71.432C57.8147 72.3046 58.2028 74.3653 58.8059 75.0039C58.9813 75.1896 59.7051 76.3834 59.8219 76.4168C60.7332 76.6772 61.6633 76.2853 62.5207 76.1628C65.9957 75.6664 69.899 76.1469 73.3951 76.1469C78.5235 76.1469 83.6715 75.8612 88.7781 75.8612C91.9667 75.8612 95.3935 73.7295 98.1127 72.3052C100.781 70.9076 102.744 68.2638 105.669 67.2886"
          stroke="#F4B400" strokeWidth="1.86264" strokeLinecap="round"/>
    <path d="M42.5186 49.0005C42.2856 51.5636 41.4006 53.9729 41.3756 56.5888C41.3521 59.0635 41.5892 61.3519 41.8836 63.7961C42.4448 68.4536 42.2329 73.1779 42.2329 77.8614C42.2329 79.8063 42.5186 81.638 42.5186 83.5764C42.5186 85.6341 44.2513 84.3198 45.519 83.7193C46.5354 83.2379 47.2021 82.9698 48.1067 82.3064C49.024 81.6338 49.9651 81.1276 51.0753 80.9888C52.0305 80.8694 52.7457 80.4332 53.7741 80.4332C55.0474 80.4332 56.355 81.4962 57.3619 82.1477C60.3624 84.0892 62.3643 86.7162 64.966 89.0057C65.7202 89.6694 66.5937 90.8792 67.5219 91.2917C67.6782 91.3612 68.6242 91.8632 68.2363 91.8632"
          stroke="#F4B400" strokeWidth="1.86264" strokeLinecap="round"/>
    <path d="M36.231 53.8584C36.0676 56.3098 35.0696 58.6698 34.8657 61.1609C34.5841 64.6032 34.8022 68.1393 34.8022 71.5909C34.8022 75.4072 35.088 79.2122 35.088 83.0051C35.088 86.405 35.5551 89.8993 36.6279 93.1175C37.0043 94.2467 37.1196 95.3551 37.6598 96.4354C37.9387 96.9933 38.6889 98.0556 38.7869 98.5944C38.9987 99.7597 39.8513 101.955 41.1523 102.373C42.5194 102.812 44.523 102.436 45.9466 102.436C47.751 102.436 49.5555 102.436 51.36 102.436C52.2599 102.436 53.6853 102.178 54.5191 102.595C56.2531 103.462 57.4637 106.86 58.3926 108.437C59.4505 110.233 60.5323 111.958 61.647 113.723C62.0777 114.405 62.2796 115.024 63.0916 115.295"
          stroke="#F4B400" strokeWidth="1.86264" strokeLinecap="round"/>
    <path d="M23.7168 103.625C25.4145 105.747 25.3068 109.567 25.9641 112.102C26.4392 113.935 26.7568 115.752 27.3522 117.539C27.5961 118.271 28.2806 120.501 28.9386 120.877C30.3038 121.657 31.5964 122.459 32.4914 123.851C34.5845 127.107 36.2312 130.542 36.8043 134.41C37.0353 135.97 37.0936 137.53 37.3331 139.087C37.5841 140.719 38.2323 142.354 38.2915 144.011C38.3174 144.736 39.1895 147.049 38.589 147.349"
          stroke="#F4B400" strokeWidth="1.86264" strokeLinecap="round"/>
    <path d="M19.2578 136.046C21.6846 136.267 23.1626 138.787 24.0169 140.739C25.074 143.156 26.1271 145.614 27.1235 148.06C28.457 151.333 30.3082 154.608 31.0894 158.123C31.7638 161.158 34.2066 164.251 35.7329 166.964C36.3035 167.978 36.9344 168.664 37.9967 169.195C38.4775 169.435 39.841 169.955 39.7814 169.955"
          stroke="#F4B400" strokeWidth="1.86264" strokeLinecap="round"/>
    <path d="M20.7422 165.493C22.1018 165.629 23.1849 166.616 24.0141 167.641C25.1401 169.034 26.3971 170.213 27.5669 171.558C28.7815 172.954 29.9673 174.418 31.7476 175.011"
          stroke="#F4B400" strokeWidth="1.86264" strokeLinecap="round"/>
    <path d="M30.2627 191.073C33.789 191.745 36.5914 197.187 37.9962 199.997" stroke="#F4B400" strokeWidth="1.86264"
          strokeLinecap="round"/>
    <path d="M45.7285 197.022C47.7348 199.475 49.6176 202.172 52.5697 203.566C54.3786 204.42 56.8429 204.161 58.783 204.161C60.0946 204.161 61.3558 204.459 62.6828 204.459"
          stroke="#F4B400" strokeWidth="1.86264" strokeLinecap="round"/>
    <path d="M44.834 216.059C46.793 216.276 48.8067 218.672 50.6176 219.33C52.0783 219.862 53.3227 221.171 54.7818 221.644C55.2018 221.78 58.1256 223.095 57.3266 223.495"
          stroke="#F4B400" strokeWidth="1.86264" strokeLinecap="round"/>
    <path d="M50.7842 228.254C52.0914 229.43 53.568 230.847 54.3535 232.418" stroke="#F4B400" strokeWidth="1.86264"
          strokeLinecap="round"/>
    <path d="M41.5625 262.162C42.8139 262.162 43.345 259.375 43.7933 258.444C44.5999 256.769 45.5861 255.042 46.6851 253.536C48.3082 251.312 50.2304 249.046 52.2044 247.224C53.9369 245.624 55.714 244.276 57.3931 242.597C59.2464 240.744 60.5217 238.784 61.9374 236.582C65.7737 230.614 70.5358 225.171 73.5211 218.603C75.5368 214.169 77.7215 209.815 79.9492 205.499C80.9593 203.542 81.5956 201.377 82.841 199.534C83.2767 198.889 83.4328 197.651 84.0969 197.319"
          stroke="#F4B400" strokeWidth="1.86264" strokeLinecap="round"/>
    <path d="M55.8424 244.316C55.8424 242.288 55.6181 240.136 55.9085 238.135C56.1791 236.272 56.6992 234.637 56.7347 232.715C56.7555 231.592 56.8891 230.264 57.0487 229.146C57.2028 228.068 57.7535 227.075 57.9245 226.006C58.1358 224.686 58.1403 223.448 58.2385 222.123C58.4723 218.967 60.1057 215.828 60.3041 212.721C60.4476 210.472 61.1479 207.959 62.1548 205.945C62.9126 204.43 63.7779 202.941 64.1047 201.252C64.3797 199.832 65.2117 198.808 65.3771 197.32C65.6531 194.836 67.2421 192.357 67.7401 189.867C68.0735 188.2 68.69 186.382 69.8222 185.124C70.6747 184.177 71.3618 183.007 72.4992 182.381C74.8357 181.096 77.4036 179.705 79.6379 178.283C80.6116 177.664 81.8599 177.425 82.9263 176.945C84.1411 176.398 85.5002 175.673 86.7765 175.325C88.0062 174.99 89.1003 174.35 90.3458 173.954C91.6657 173.534 92.9756 172.844 94.2787 172.334C96.8211 171.339 99.6795 170.619 101.814 168.765C102.827 167.885 104.187 167.478 105.218 166.551C107.999 164.047 110.775 161.721 113.414 159.082C115.833 156.663 118.437 153.962 120.239 151.051C121.002 149.817 121.749 148.551 122.321 147.217C122.555 146.672 122.845 145.823 123.362 145.564"
          stroke="#F4B400" strokeWidth="1.86264" strokeLinecap="round"/>
    <path d="M117.783 118.91C117.783 125.36 118.284 131.792 118.284 138.197C118.284 144.63 119.787 150.986 119.787 157.484C119.787 163.066 120.632 169.407 119.675 174.906C119.173 177.796 117.892 183.906 115.278 185.649C113.403 186.899 111.998 190.936 110.547 192.802C108.357 195.617 107.723 199.204 106.762 202.571C105.618 206.571 106.245 210.827 105.37 214.872C104.923 216.938 104.916 218.599 104.229 220.661C103.456 222.979 102.102 225.59 100.75 227.619"
          stroke="#F4B400" strokeWidth="1.86264" strokeLinecap="round"/>
    <path d="M128.805 130.933C132.137 132.044 130.308 148.694 130.308 151.695C130.308 158.584 128.891 164.747 128.277 171.511C127.817 176.561 123.975 182.273 122.07 186.929C120.784 190.074 118.285 192.608 118.285 196.058"
          stroke="#F4B400" strokeWidth="1.86264" strokeLinecap="round"/>
    <path d="M128.305 185.538C128.305 188.985 126.994 191.738 125.8 194.945C124.678 197.961 123.598 201.218 122.572 204.296C121.547 207.372 119.931 210.109 117.785 212.562C116.295 214.264 114.223 216.207 113.276 218.1"
          stroke="#F4B400" strokeWidth="1.86264" strokeLinecap="round"/>
    <path d="M144.84 155.48C146.888 163.903 147.706 174.026 144.227 182.142C142.314 186.608 140.993 191.559 138.327 195.557"
          stroke="#F4B400" strokeWidth="1.86264" strokeLinecap="round"/>
    <path d="M154.355 171.511C154.355 180.967 158.362 189.886 158.362 199.342C158.362 203.989 156.349 207.624 155.357 212.089C154.912 214.092 154.134 216.105 153.882 218.128C153.557 220.721 155.714 221.175 156.359 223.11"
          stroke="#F4B400" strokeWidth="1.86264" strokeLinecap="round"/>
    <path d="M165.878 183.534C165.426 188.506 165.302 192.497 167.492 197.06C168.944 200.085 170.386 202.483 170.386 205.799C170.386 207.728 170.386 209.658 170.386 211.587"
          stroke="#F4B400" strokeWidth="1.86264" strokeLinecap="round"/>
    <path d="M167.881 247.657C167.881 242.408 168.195 237.715 170.998 233.129C172.569 230.557 175.928 228.647 176.369 225.336C176.811 222.024 176.397 218.441 176.397 215.094"
          stroke="#F4B400" strokeWidth="1.86264" strokeLinecap="round"/>
    <path d="M189.421 233.63C186.887 236.481 185.492 240.047 183.687 243.399C182.531 245.546 184.938 252.653 182.908 253.668"
          stroke="#F4B400" strokeWidth="1.86264" strokeLinecap="round"/>
    <path d="M148.843 229.121C145.39 225.284 142.581 216.597 136.319 216.597" stroke="#F4B400" strokeWidth="1.86264"
          strokeLinecap="round"/>
    <path d="M59.1709 260.682C63.7538 258.807 69.015 258.618 73.5874 256.674C77.0223 255.215 80.316 253.026 83.4675 251.108C85.7933 249.692 87.8558 248.26 89.6738 246.182C90.3424 245.418 90.9738 244.029 91.7333 243.649"
          stroke="#F4B400" strokeWidth="1.86264" strokeLinecap="round"/>
    <path d="M51.1592 271.703C55.1302 271.703 59.2974 268.961 63.3492 268.308C65.876 267.9 68.1112 267.695 70.6967 267.695"
          stroke="#F4B400" strokeWidth="1.86264" strokeLinecap="round"/>
    <path d="M191.092 211.733C191.289 213.607 193.547 214.47 194.952 215.226C196.74 216.189 198.576 216.862 200.508 217.432C202.256 217.948 204.005 218.457 205.737 218.995C207.771 219.626 209.89 219.775 211.946 220.271C216.815 221.447 221.651 222.96 226.214 225.051C229.97 226.773 233.515 228.411 236.723 231.036C239.306 233.149 241.529 235.993 243.525 238.654C244.384 239.801 245.329 240.878 246.139 242.066C247.03 243.372 247.878 244.747 248.815 246.018C252.497 251.015 253.407 257.207 253.952 263.206C254.094 264.769 254.112 266.47 254.146 268.027C254.193 270.207 253.865 272.836 252.318 274.512C250.741 276.22 248.14 276.843 245.874 277.32C244.522 277.605 242.875 277.815 241.482 277.903C239.812 278.007 238.18 278.097 236.498 278.097C232.712 278.097 229.039 277.088 225.284 276.82C223.681 276.705 222.193 275.993 220.627 275.891C219.95 275.846 219.347 275.283 218.656 275.145C217.517 274.917 216.134 274.275 215.082 273.766C213.044 272.78 211.126 271.488 209.393 270.049C208.505 269.312 207.608 268.582 206.717 267.843C206.079 267.313 205.602 266.618 204.981 266.107C202.866 264.365 201.725 261.477 199.283 260.081C198.813 259.813 197.959 259.213 197.628 258.753C197.392 258.425 197.056 258.174 196.791 257.875C196.546 257.601 196.625 257.26 196.423 256.956"
          stroke="#F4B400" strokeWidth="3.72528" strokeLinecap="round"/>
    <path d="M167.928 254.75C166.781 254.75 165.053 256.792 164.987 257.875C164.889 259.49 165.049 261.895 164.15 263.308C163.249 264.723 162.585 266.208 161.576 267.506C160.467 268.931 156.726 266.784 155.755 266.066C153.032 264.053 150.312 262.015 149.77 258.426C149.296 255.286 149.803 251.671 151.475 248.969C152.543 247.244 154.785 245.925 156.817 245.732C158.082 245.611 159.229 244.526 160.473 244.455C161.369 244.404 162.306 244.185 163.149 243.904"
          stroke="#F4B400" strokeWidth="3.72528" strokeLinecap="round"/>
    <path d="M162.966 246.662C159.163 246.662 156.289 250.582 155.062 253.831C154.947 254.134 154.316 257.674 154.99 257.467C155.861 257.199 156.418 255.465 156.716 254.75C157.354 253.223 157.635 251.682 157.635 250.032C157.635 249.81 157.714 249.365 157.615 249.143C157.221 248.258 155.35 250.114 155.143 250.379C154.267 251.501 152.558 255.023 154.081 256.303C156.9 258.671 158.157 253.06 158.289 251.421C158.367 250.456 158.577 248.195 157.901 247.325C157.364 246.636 156.195 249.586 156.165 249.664C155.049 252.546 154.113 255.684 153.857 258.774C153.753 260.018 153.713 261.691 154.602 262.716C155.048 263.231 155.964 262.942 156.451 262.675C158.44 261.587 158.981 258.697 159.065 256.65C159.146 254.687 159.077 252.265 158.085 250.502C157.474 249.415 156.48 250.804 156.052 251.37C154.337 253.639 152.885 256.606 152.978 259.509C153.021 260.847 153.538 262.496 154.868 263.094C157.372 264.221 156.459 254.502 156.083 253.484C155.731 252.531 154.695 250.681 153.55 252.054C151.698 254.277 152.45 259.034 154.602 260.868C155.887 261.962 158.021 258.978 158.575 258.202C160.017 256.184 160.303 254.03 161.118 251.788C161.34 251.179 161.3 251.083 161.098 251.88C160.477 254.322 159.853 256.862 159.555 259.366C159.506 259.782 159.226 261.133 159.515 261.552C159.915 262.134 161.161 258.144 161.189 258.008C161.669 255.707 161.68 253.352 161.68 251.012C161.68 249.943 161.677 249.569 160.781 250.665C158.681 253.234 157.582 256.616 156.859 259.806C156.784 260.138 155.87 263.805 156.389 264.085C156.771 264.29 158.736 261.321 158.881 261.103C160.629 258.474 161.77 255.318 162.272 252.207C162.465 251.011 162.491 249.941 162.956 248.806C162.967 248.78 163.431 247.693 163.477 247.805C163.59 248.079 163.419 248.854 163.395 249.041C163.219 250.453 162.984 251.857 162.742 253.259C162.191 256.443 161.484 259.587 160.883 262.757C160.813 263.125 160.773 263.487 160.76 263.86C160.745 264.317 160.794 262.946 160.842 262.492C161.084 260.222 161.733 258.272 162.65 256.2C163.034 255.333 163.872 253.385 163.661 255.71C163.362 258.999 161.733 262.164 160.321 265.096C160.033 265.695 159.369 267.561 159.474 266.904C160.119 262.872 162.434 259.013 163.845 255.2C164.031 254.697 164.34 253.343 164.897 253.096C165.237 252.944 165.855 252.423 165.918 252.074C166.033 251.44 166.092 250.895 166.092 250.236C166.092 250.042 166.102 250.658 165.979 250.808C165.741 251.099 165.475 251.269 165.356 251.625"
          stroke="#F4B400" strokeWidth="0.93132" strokeLinecap="round"/>
    <path d="M194.953 243.169C195.465 243.225 196.076 244.078 196.618 244.282C197.604 244.651 198.608 245.327 199.549 245.824C200.625 246.392 201.826 246.924 202.858 247.58C204.056 248.343 205.668 248.435 206.902 249.235C209.279 250.776 211.934 251.791 214.256 253.422C216.652 255.106 219.26 256.478 221.568 258.324C223.902 260.191 226.282 262.167 229.105 263.308C231.532 264.289 234.002 264.493 236.601 264.493C238.018 264.493 239.279 264.524 239.665 263.022C239.902 262.102 240.514 261.26 240.074 260.255C239.692 259.381 239.247 258.462 239.073 257.507C238.645 255.153 237.998 251.924 236.479 249.97C235.76 249.046 235.134 248.061 234.436 247.131C233.672 246.112 232.708 245.547 231.699 244.813C229.929 243.525 227.716 242.8 225.827 241.698C224.639 241.005 223.201 240.46 221.936 239.9C220.161 239.115 218.456 238.206 216.656 237.47C215.23 236.886 213.787 236.392 212.377 235.815C211.782 235.572 211.186 235.329 210.589 235.09C209.926 234.825 209.255 234.948 208.567 234.804C205.816 234.231 203.302 232.735 200.652 231.771C198.375 230.943 196.567 229.005 194.402 228.013C193.315 227.514 192.262 226.618 191.359 225.848C190.956 225.504 190.585 224.807 190.174 224.602"
          stroke="#F4B400" strokeWidth="3.72528" strokeLinecap="round"/>
    <path d="M200.653 218.352C200.653 220.451 200.48 222.628 200.98 224.684C201.155 225.402 201.388 226.072 201.388 226.808"
          stroke="#F4B400" strokeWidth="3.72528" strokeLinecap="round"/>
    <path d="M214.623 222.58C215.428 224.284 215.555 226.274 216.543 227.89C216.868 228.422 217.108 229.02 217.381 229.565"
          stroke="#F4B400" strokeWidth="3.72528" strokeLinecap="round"/>
    <path d="M229.329 228.646C230.122 230.275 230.726 232.543 230.8 234.385C230.832 235.194 231.351 235.927 231.351 236.734"
          stroke="#F4B400" strokeWidth="3.72528" strokeLinecap="round"/>
    <path d="M242.933 240.227C242.827 242.129 241.904 243.572 241.095 245.19" stroke="#F4B400" strokeWidth="3.72528"
          strokeLinecap="round"/>
    <path d="M251.392 255.485C250.226 255.591 248.959 256.525 247.807 256.864C247.309 257.011 246.769 256.956 246.255 256.956C245.439 256.956 245.509 257.039 245.509 257.875"
          stroke="#F4B400" strokeWidth="3.72528" strokeLinecap="round"/>
    <path d="M248.996 275.155C248.269 275.082 247.916 274.107 247.586 273.562C246.761 272.195 245.793 270.934 244.849 269.65C244.133 268.676 243.165 267.856 242.561 266.801C242.39 266.501 242.135 266.515 241.826 266.515"
          stroke="#F4B400" strokeWidth="3.72528" strokeLinecap="round"/>
    <path d="M227.676 276.993C228.153 275.621 228.164 273.718 228.227 272.255C228.254 271.646 228.595 271.178 228.595 270.559C228.595 269.987 229.196 267.735 228.595 267.434"
          stroke="#F4B400" strokeWidth="3.72528" strokeLinecap="round"/>
    <path d="M209.473 268.721C210.39 268.354 211.35 268.15 212.251 267.7C213.727 266.962 214.567 266.117 215.56 264.84C215.998 264.277 216.364 263.66 216.683 263.023C217.331 261.726 214.798 262.287 214.068 262.287"
          stroke="#F4B400" strokeWidth="3.72528" strokeLinecap="round"/>
    <path d="M201.204 258.978C203.645 257.694 203.962 255.539 203.962 253.096" stroke="#F4B400" strokeWidth="3.72528"
          strokeLinecap="round"/>
    <path d="M70.5508 29.6665C71.6721 29.7911 71.6674 32.5247 72.071 33.3543C72.5868 34.4146 72.9441 35.4385 73.4785 36.5073C74.5246 38.5995 75.5918 39.1347 77.7857 39.5336C80.2286 39.9777 82.8072 39.0717 84.725 37.6334C86.7456 36.1179 88.6993 34.6676 89.8063 32.4535"
          stroke="#F4B400" strokeWidth="1.86264" strokeLinecap="round"/>
    <path d="M68.5229 31.9468C68.5229 34.7261 68.2695 37.4826 68.2695 40.2514C68.2695 43.0432 68.4295 45.883 68.2554 48.6687C68.1268 50.7261 67.9313 52.5205 68.3258 54.5805C68.5337 55.6661 68.3467 56.9636 69.4237 57.649C70.6113 58.4047 72.63 58.0431 73.942 58.0431C75.1114 58.0431 75.5316 57.654 76.4334 57.0297C77.4549 56.3225 78.4491 55.4798 79.5441 54.8902C79.8634 54.7182 81.562 53.6575 80.6843 54.2427"
          stroke="#F4B400" strokeWidth="1.86264" strokeLinecap="round"/>
    <path d="M80.6865 58.8032C82.3872 59.1124 84.1045 60.7952 85.4441 61.8436C85.9091 62.2074 87.2144 62.857 86.0071 62.857"
          stroke="#F4B400" strokeWidth="1.86264" strokeLinecap="round"/>
    <path d="M73.083 63.8708C77.0275 64.4625 79.1288 69.2098 83.5272 67.4179C87.7189 65.7102 92.6296 65.1125 96.3924 62.604"
          stroke="#F4B400" strokeWidth="1.86264" strokeLinecap="round"/>
    <path d="M93.031 36.5732C92.5333 41.3014 92.8508 45.906 92.8508 50.6275C92.8508 51.8717 93.0547 53.7262 93.7517 54.7717"
          stroke="#F4B400" strokeWidth="1.86264" strokeLinecap="round"/>
</svg>
