<svg width="108" height="144" viewBox="0 0 108 144" fill="none" xmlns="http://www.w3.org/2000/svg">
<path d="M29.1035 88.3174C29.1035 93.8915 31.5589 99.0197 31.5589 104.5C31.5589 108.88 31.6839 113.28 31.5589 117.658C31.528 118.738 31.1124 119.668 31.1124 120.795C31.1124 121.799 31.1124 122.804 31.1124 123.808C31.1124 126.045 31.1124 128.281 31.1124 130.517C31.1124 134.287 29.7732 137.745 29.7732 141.442" stroke="white" strokeWidth="1.99252" strokeLinecap="round"/>
<path d="M29.9961 141.432C30.0154 141.587 30.6739 141.912 30.8003 141.975C31.1867 142.168 31.6681 142.293 32.0994 142.388C33.3831 142.669 34.7492 142.731 36.0586 142.731C36.6111 142.731 37.2453 142.845 37.7874 142.944C38.3369 143.046 38.9508 142.979 39.5092 142.979C40.9618 142.979 42.4145 142.979 43.8671 142.979C44.9153 142.979 45.9636 142.979 47.0118 142.979C47.4689 142.979 47.926 142.979 48.3831 142.979C49.1492 142.979 49.9064 142.823 50.6617 142.697C51.817 142.504 53.0164 142.317 54.0882 141.838C54.4747 141.665 54.833 141.565 55.2086 141.339C55.3675 141.244 55.5478 141.076 55.7173 141.013C55.8454 140.966 55.9779 140.961 56.0884 140.862C56.1922 140.768 56.4639 140.736 56.4734 140.566C56.4956 140.166 56.4734 139.758 56.4734 139.356C56.4734 137.5 56.5352 135.653 56.5352 133.796C56.5352 132.856 56.5971 131.92 56.5971 130.977C56.5971 130.558 56.659 130.146 56.659 129.726C56.659 129.204 56.6219 128.666 56.6727 128.146C56.7726 127.121 56.8236 126.093 56.9373 125.07C56.9883 124.611 56.966 124.151 57.0164 123.691C57.07 123.203 57.2026 122.718 57.2157 122.227C57.2294 121.714 57.3587 121.212 57.4322 120.705C57.5182 120.113 57.5678 119.52 57.6488 118.928C57.8203 117.674 57.7106 116.35 57.7106 115.086C57.7106 113.072 57.558 111.005 57.9237 109.02C58.079 108.177 58.15 107.27 58.2158 106.415C58.2715 105.691 58.3658 104.957 58.4667 104.239C58.5282 103.802 58.616 103.253 58.776 102.844C58.8877 102.558 58.8889 102.278 58.9822 101.998C59.0415 101.821 59.1335 101.63 59.1335 101.438C59.1335 101.206 59.2572 100.96 59.2572 100.727" stroke="white" strokeWidth="1.99252" strokeLinecap="round"/>
<path d="M59.1016 101.056C59.1016 100.149 59.662 99.2937 60.0391 98.4944C60.4434 97.6373 60.7863 96.6301 60.9476 95.7107C61.1131 94.7677 61.2763 93.9079 61.2763 92.9465C61.2763 92.0391 61.5529 91.1221 61.7982 90.2498C62.1417 89.0286 62.2996 87.7374 62.7551 86.548C62.9462 86.0488 63.0322 85.5324 63.2335 85.0402C63.4081 84.6134 63.6055 84.0242 63.6926 83.5711C63.8539 82.7324 64.2623 81.7795 64.5818 80.9808C64.9259 80.1206 65.474 79.3158 65.7803 78.4581C66.3083 76.9797 67.0677 75.514 67.8004 74.0894C68.1489 73.4117 68.6326 72.8019 68.9699 72.1273C69.1823 71.7025 69.5356 71.375 69.7624 70.9626C69.9351 70.6487 70.2376 70.1216 70.497 69.8946C70.7788 69.648 71.0363 69.144 71.2702 68.8266C71.5059 68.5067 71.7525 68.2251 71.9951 67.9132C72.5671 67.1778 73.364 66.6414 74.0249 65.9995C75.5449 64.5228 77.3743 63.3612 79.0025 61.998C79.7558 61.3674 80.5397 60.8089 81.3512 60.2583C82.162 59.708 83.1023 59.3159 83.8932 58.7601C85.0477 57.9489 86.4072 57.553 87.6337 56.972C88.0395 56.7798 88.6427 56.7078 89.0931 56.6917C89.9192 56.6622 90.6896 56.3881 91.5095 56.3438C92.3341 56.2992 93.1998 55.8941 94.0031 55.7155C94.5451 55.5951 95.072 55.3592 95.5931 55.1743C96.0946 54.9963 96.5845 54.7058 97.1154 54.691C97.5271 54.6796 98.1448 54.2846 98.5072 54.0869C98.9454 53.8479 99.4462 53.6935 99.899 53.4732C100.602 53.1313 101.487 52.7834 102.074 52.2553C103.148 51.2881 104.038 50.1144 104.857 48.9305C105.167 48.4828 105.447 47.9736 105.795 47.5387C105.878 47.4353 105.863 47.1391 105.945 46.9926C106.028 46.8432 106.162 46.6802 106.162 46.5141C106.162 45.7602 106.162 45.0063 106.162 44.2524" stroke="white" strokeWidth="1.99252" strokeLinecap="round"/>
<path d="M106.254 44.0784C106.254 43.5258 106.187 42.9771 106.167 42.445C106.141 41.7361 106.269 40.8906 106.075 40.2123C106.017 40.0067 105.889 39.8424 105.8 39.642C105.679 39.3695 105.605 39.1048 105.471 38.8204C105.311 38.4803 105.121 37.2244 104.737 37.1145C104.696 37.1029 104.396 36.6045 104.321 36.5298C104.125 36.3334 103.863 36.2372 103.664 36.0562C103.172 35.6093 102.463 35.3841 101.948 34.9833C100.795 34.0861 99.514 33.2171 97.9854 33.0261C97.1758 32.9249 96.3761 32.8569 95.5545 32.8569C94.8074 32.8569 93.9394 32.7807 93.2252 32.5766C92.2557 32.2996 91.1719 31.987 90.1565 31.987C89.0272 31.987 87.898 31.987 86.7687 31.987C86.1888 31.987 85.6089 31.987 85.029 31.987C84.5828 31.987 83.8231 32.0422 83.4149 31.8517C82.1884 31.2794 80.5979 31.425 79.2878 31.2235C78.5499 31.11 77.7331 31.2042 76.9874 31.2042C76.074 31.2042 75.1607 31.2042 74.2473 31.2042C73.3758 31.2042 72.5043 31.2042 71.6328 31.2042" stroke="white" strokeWidth="1.99252" strokeLinecap="round"/>
<path d="M70.8561 31.291C69.4558 31.291 67.9697 31.2879 66.5743 31.3973C64.6662 31.547 62.7559 31.4329 60.8524 31.5713C59.3424 31.6811 57.8239 31.639 56.3097 31.639C55.5753 31.639 54.8404 31.6307 54.106 31.639C53.5026 31.6458 52.9114 31.8055 52.3083 31.813C49.4 31.8489 46.5643 32.3749 43.7351 33.0115C42.9245 33.1938 42.0261 33.3672 41.1931 33.3787C40.7583 33.3848 40.3006 33.3364 39.869 33.3981C39.305 33.4786 38.7876 33.6033 38.2162 33.659C37.4476 33.734 36.6762 33.766 35.9062 33.833C34.1183 33.9885 32.283 34.2025 30.5129 34.5096C29.6613 34.6573 28.8069 34.6943 27.9516 34.8092C26.936 34.9456 25.8108 34.9771 24.82 35.2248C23.6644 35.5137 22.4078 35.5441 21.2728 35.9014C20.3316 36.1977 19.4277 36.4548 18.5086 36.8389C17.3787 37.3111 16.1075 37.6967 14.9227 38.0084C14.1537 38.2108 13.4039 38.6113 12.6803 38.9073C11.5163 39.3835 10.4496 40.0517 9.35547 40.5988" stroke="white" strokeWidth="1.99252" strokeLinecap="round"/>
<path d="M9.35086 40.8589C8.67 40.9562 8.03472 41.5035 7.43229 41.8206C6.89086 42.1056 6.28468 42.4479 5.8665 42.9079C5.3632 43.4616 4.58336 43.805 4.08808 44.3384C3.54377 44.9246 2.7824 45.3404 2.39181 46.0782C2.00233 46.8139 1.55245 47.5727 1.32862 48.3785C1.21252 48.7965 1 49.2098 1 49.6495C1 50.1263 1 50.6032 1 51.08C1 52.0408 1.53034 53.4162 2.13568 54.1729C2.70245 54.8814 3.11025 55.4296 3.87544 55.9078C4.23838 56.1347 4.71747 56.19 5.08361 56.3959C5.4854 56.6219 5.86825 56.8609 6.34494 56.9517C7.04064 57.0842 7.74718 57.3493 8.41332 57.5799C9.17722 57.8444 10.0028 57.9459 10.762 58.2565C11.1861 58.43 11.6195 58.4767 12.0475 58.6431C12.4988 58.8186 13.0515 59.0324 13.5215 59.1264C14.5723 59.3366 15.5056 59.9212 16.4839 60.3056C19.5395 61.506 21.4216 64.6411 22.9017 67.3709C23.2847 68.0773 23.7371 68.9333 23.9262 69.7196C24.141 70.6125 24.5462 71.4519 24.7478 72.3486C24.9957 73.4518 25.4339 74.6392 26.0526 75.5671" stroke="white" strokeWidth="1.99252" strokeLinecap="round"/>
<path d="M26.1387 75.8291C26.1387 77.0331 26.9783 77.9363 27.1874 79.0863C27.2445 79.4007 27.4355 79.6936 27.5112 80.0045C27.5898 80.3278 27.6045 80.6687 27.6851 81.0001C27.8488 81.6729 27.9787 82.3039 28.1829 82.9573C28.374 83.5689 28.3578 84.2529 28.5308 84.8759C28.6687 85.372 28.5605 85.9587 28.8353 86.4223C28.9745 86.6573 28.9379 86.9954 29.0093 87.2632C29.0596 87.4521 29.1833 87.6846 29.1833 87.877C29.1833 88.2296 29.2702 88.5909 29.2702 88.9643" stroke="white" strokeWidth="1.99252" strokeLinecap="round"/>
<path d="M9.79102 54.7497C10.1481 54.348 10.5366 54.3933 10.9652 54.1131C11.571 53.717 12.2413 53.4255 12.9246 53.1582C15.602 52.1105 18.4884 51.2941 21.3137 50.8027C22.9282 50.5219 24.7016 50.4957 26.2722 50.0388C27.2881 49.7432 28.4319 49.6568 29.4836 49.6568C30.9319 49.6568 32.2959 49.5373 33.7277 49.3385C34.7432 49.1974 35.8295 49.2071 36.8542 49.1546C37.9055 49.1007 38.9766 48.9074 40.0231 48.8929C42.5849 48.8573 45.1078 48.5109 47.6695 48.5109C49.7495 48.5109 51.8188 48.1289 53.9013 48.1289C56.2131 48.1289 58.531 47.7727 60.8474 47.747C65.7891 47.692 70.7256 47.6196 75.6734 47.6196C78.1161 47.6196 80.5589 47.6196 83.0016 47.6196C83.945 47.6196 84.7162 47.9845 85.6187 48.1289C86.6027 48.2864 87.6561 48.5827 88.6038 48.8929C90.1159 49.3877 91.694 49.5702 93.1944 50.0953C94.6203 50.5944 96.0178 51.0123 97.5163 51.312" stroke="white" strokeWidth="1.99252" strokeLinecap="round"/>
<path d="M72.1908 8.95459C71.8762 8.99391 71.3078 9.3953 71.0486 9.57347C70.6353 9.85764 70.1739 10.0756 69.7289 10.3425C69.4773 10.4935 69.1255 10.6222 68.8507 10.7384C68.6062 10.8418 68.3804 11.0814 68.1317 11.2117C67.4917 11.5469 66.9564 12.1001 66.2933 12.3948C66.0051 12.5229 65.8568 12.7859 65.6198 12.9682C65.4261 13.1172 65.1667 13.3537 65.0191 13.5416C64.5955 14.0807 64.0585 14.4885 63.7131 15.1024C62.9691 16.4251 62.4509 17.8518 61.588 19.1069C60.8849 20.1296 60.4333 21.2832 60.2137 22.5517C59.9744 23.9347 60.15 25.4898 60.15 26.8929C60.15 27.595 60.1706 28.1627 60.7052 28.6767C60.9034 28.8673 61.3153 29.0282 61.4424 29.2683C61.6106 29.5861 62.0614 30.224 62.4435 30.415" stroke="white" strokeWidth="1.99252" strokeLinecap="round"/>
<path d="M71.207 9.44708C71.6485 9.44708 72.0353 9.25436 72.4675 9.16039C72.9317 9.05948 73.4084 9.01953 73.8737 8.93741C74.7972 8.77444 75.7652 8.46416 76.7132 8.46416C77.5808 8.46416 78.4485 8.46416 79.3161 8.46416C80.2028 8.46416 81.2037 8.29993 82.0237 8.66893C82.2469 8.76939 82.5002 8.739 82.7108 8.8373C82.9177 8.93385 83.0972 9.05828 83.3115 9.13764C83.7258 9.29107 84.0981 9.60028 84.481 9.81567C84.9165 10.0607 85.3936 10.1776 85.7597 10.5301C85.9174 10.682 86.1284 10.7053 86.2785 10.8395C86.4013 10.9495 86.4981 11.0846 86.6425 11.1672C86.9582 11.3476 87.3147 11.7272 87.589 11.9863C87.8056 12.1908 88.1159 12.5794 88.3717 12.7189C88.6964 12.896 88.8761 13.2179 89.1271 13.4789C89.4185 13.7819 89.8115 14.1226 90.0463 14.4618C90.2431 14.746 90.4798 15.0817 90.6243 15.3947C90.7261 15.6154 90.9094 15.7857 90.9428 16.0363C90.9671 16.2184 91.0108 16.3956 91.1112 16.555C91.3261 16.8965 91.4252 17.4426 91.5571 17.8383C91.6716 18.1818 91.8092 18.5012 91.9121 18.8485C92.0159 19.199 91.9453 19.5969 92.0531 19.9634C92.2149 20.5134 92.262 21.0862 92.358 21.6517C92.5074 22.5311 92.5855 23.346 92.5855 24.2364C92.5855 24.8034 92.7405 25.6975 92.4627 26.1977C92.2986 26.4931 92.2477 26.8324 92.0941 27.1396C92.0044 27.319 91.9448 27.4526 91.9303 27.6493C91.9114 27.9033 91.6532 28.0696 91.6072 28.3228C91.4808 29.0178 91.1106 29.6143 90.8654 30.2886C90.7663 30.5612 90.6035 30.88 90.4741 31.1532C90.3499 31.4155 90.2559 31.7628 90.0463 31.9723" stroke="white" strokeWidth="1.99252" strokeLinecap="round"/>
<path d="M77.1861 8.38178C77.1404 7.92497 76.916 7.42013 76.7765 6.98931C76.4444 5.96369 76.1379 4.9262 75.8391 3.89039C75.6704 3.30545 75.4622 2.73142 75.1747 2.19758C75.0495 1.96506 74.8926 1.69049 74.8926 1.41943" stroke="white" strokeWidth="1.99252" strokeLinecap="round"/>
<path d="M77.4316 6.82534C77.4605 6.59466 77.7091 6.44552 77.823 6.25197C77.8882 6.14102 78.1588 5.96041 78.2689 5.87882C78.5193 5.69337 78.7602 5.5016 79.0152 5.31456C79.4442 4.99999 79.9383 4.93815 80.4441 4.8413C81.3 4.6774 82.0374 4.61377 82.9151 4.61377C83.6359 4.61377 84.3792 4.79014 85.0493 5.06427C85.5561 5.27162 86.1037 5.35292 86.6056 5.59669C87.258 5.91357 87.7423 6.43644 88.3257 6.82534" stroke="white" strokeWidth="1.99252" strokeLinecap="round"/>
<path d="M83.9062 8.5453C84.8952 8.5453 85.8842 8.5453 86.8732 8.5453C87.4475 8.5453 87.6383 8.40869 88.0882 8.09934C88.3505 7.91902 88.5743 7.60376 88.8209 7.48047" stroke="white" strokeWidth="1.99252" strokeLinecap="round"/>
<path d="M75.219 4.6961C73.782 4.56547 72.5248 3.82457 71.0825 3.71773C70.4552 3.67126 69.8112 3.70391 69.2031 3.8588C68.352 4.0756 67.6248 4.70186 66.9643 5.26947C66.3932 5.76026 65.8985 6.29023 65.5126 6.90767C65.3692 7.13721 65.1996 7.40633 65.0803 7.64486C65.0052 7.79517 64.8714 7.88939 64.8164 8.05441" stroke="white" strokeWidth="1.99252" strokeLinecap="round"/>
<path d="M65.2246 8.21727C65.2486 8.02542 66.4525 8.13536 66.658 8.13536C66.8956 8.13536 67.135 8.12656 67.3725 8.13536C67.6146 8.14432 67.8084 8.38059 68.046 8.4448C69.1136 8.73334 70.8246 9.94463 71.9412 9.20019" stroke="white" strokeWidth="1.99252" strokeLinecap="round"/>
<path d="M88.0352 19.7417C88.0352 20.5045 88.5114 21.0966 88.5114 21.8759C88.5114 22.4315 88.5114 22.9871 88.5114 23.5427C88.5114 24.6157 88.0352 27.7993 88.0352 26.7263" stroke="white" strokeWidth="1.99252" strokeLinecap="round"/>
<path d="M86.4453 17.3608C86.4668 17.5325 86.6871 17.6855 86.7633 17.8378" stroke="white" strokeWidth="1.99252" strokeLinecap="round"/>
<path d="M60.3474 73.1396C59.9157 74.7368 59.2127 76.2397 58.6112 77.7775C57.2476 81.2642 55.9961 84.7943 54.8042 88.343C52.6509 94.754 51.8652 101.154 51.8652 107.911C51.8652 109.423 52.3117 110.889 52.3117 112.425C52.3117 113.318 52.3117 114.211 52.3117 115.104" stroke="white" strokeWidth="1.99252" strokeLinecap="round"/>
</svg>
