<svg width="445" height="311" viewBox="0 0 445 311" fill="none" xmlns="http://www.w3.org/2000/svg">
    <path d="M58.1182 223.7C58.1182 220.59 58.4893 217.524 58.4893 214.504C58.4893 210.793 58.5684 206.924 59.7882 203.477C61.1363 199.668 61.4582 194.995 61.4582 190.931C61.4582 187.205 62.7003 183.455 63.6643 180.05C64.2485 177.987 64.9557 175.916 65.5405 173.85C66.0885 171.915 67.3961 169.286 67.3961 167.338C67.3961 165.61 68.8805 164.258 68.8805 162.47C68.8805 160.756 70.0615 157.666 70.9217 156.103C71.7237 154.646 71.7662 153.046 72.5917 151.588C73.5021 149.981 74.1846 147.73 74.8184 145.971C76.0566 142.535 78.8895 139.395 79.6635 135.88C80.001 134.348 82.0475 132.857 82.2407 131.199C82.3381 130.364 83.8556 128.28 84.385 127.746C86.7074 125.402 87.3736 121.473 90.4053 119.673C91.55 118.994 92.2115 117.619 93.3742 116.885C94.4538 116.204 95.9708 114.557 96.7143 113.515C98.2153 111.411 100.356 109.548 102.199 107.689C103.804 106.069 106.13 104.545 107.394 102.738C108.066 101.777 109.579 101.273 110.446 100.491C111.098 99.9017 111.7 99.1149 112.384 98.6181C114.071 97.3921 116.709 95.2224 117.785 93.3752C118.479 92.1858 120.254 90.7784 121.497 90.296C122.267 89.997 123.635 88.6322 124.259 88.049C125.03 87.329 126.239 86.3381 127.228 85.9685C129.411 85.1527 131.042 82.9937 133.084 81.849C135.17 80.6794 137.086 79.3296 139.104 78.0208C143.653 75.0697 148.524 72.8729 153.33 70.4477C157.192 68.499 161.239 66.313 165.556 65.288C172.793 63.5698 179.978 61.0454 187.473 60.4403C190.825 60.1697 194.1 59.5874 197.452 59.3168C200.481 59.0723 203.867 59.2277 206.792 58.3598C212.36 56.7071 219.146 57.4236 224.956 57.4236C231.196 57.4236 237.436 57.4236 243.676 57.4236C248.075 57.4236 253.732 58.1588 257.738 60.0242C259.962 61.0601 262.825 61.0841 265.036 62.1256C268.955 63.9709 273.153 65.244 277.242 66.6195C278.271 66.9656 280.155 67.9777 280.974 68.6584C282.53 69.9515 284.876 70.5988 286.623 71.7168C293.906 76.3773 302.087 79.7916 308.787 85.3235C311.525 87.5843 314.688 89.4169 317.529 91.5859C319.088 92.777 320.862 93.9603 322.271 95.3309C323.501 96.5282 325.293 97.311 326.353 98.6181C328.625 101.42 331.794 103.61 334.518 105.9C335.889 107.053 337.157 108.925 338.311 110.311C339.65 111.918 341.125 113.564 342.558 115.096C345.301 118.026 347.309 121.653 350.104 124.583C351.919 126.484 352.833 129.001 354.64 130.825C357.425 133.635 359.933 136.816 362.434 139.813C363.75 141.389 363.415 144.608 364.66 146.179C365.241 146.912 365.682 148.253 365.774 149.175C365.897 150.417 367.213 151.325 367.258 152.462C367.327 154.202 368.905 155.62 369.114 157.414C369.319 159.178 371.151 161.262 371.629 163.031C372.026 164.5 372.586 166.999 373.65 168.191C374.961 169.662 374.583 171.729 375.423 173.517C376.221 175.217 376.925 176.945 377.65 178.677C378.48 180.663 378.954 182.838 379.876 184.752C380.478 186.001 382.103 188.655 382.103 189.995"
          stroke="white" strokeWidth="5.34112" strokeLinecap="round"/>
    <path d="M374.31 169.772C374.464 171.171 375.81 172.931 376.351 174.266C377.051 175.993 377.527 178.166 378.577 179.697C379.506 181.051 379.577 182.65 380.041 184.191C380.462 185.584 380.99 186.828 380.99 188.289C380.99 190.125 381.303 192.379 381.917 194.115C382.529 195.841 382.192 197.935 383.051 199.545C383.934 201.198 384.33 203.508 384.33 205.35C384.33 207.938 384.701 210.573 384.701 213.214C384.701 216.753 385.443 220.086 385.443 223.7"
          stroke="white" strokeWidth="5.34112" strokeLinecap="round"/>
    <path d="M181.756 42.9409C181.941 45.1869 181.96 47.4355 182.247 49.6784C182.369 50.6325 182.463 51.5269 182.463 52.4923C182.463 53.2024 182.463 53.9125 182.463 54.6226C182.463 55.485 182.293 56.6526 182.816 55.0684"
          stroke="white" strokeWidth="5.34112" strokeLinecap="round"/>
    <path d="M195.363 39.5527C195.363 41.5521 195.446 43.5238 195.53 45.5174C195.588 46.8939 195.375 48.353 195.579 49.7184C195.704 50.5547 195.957 51.3691 196.06 52.2054C196.084 52.3971 196.07 53.2491 196.07 53.107"
          stroke="white" strokeWidth="5.34112" strokeLinecap="round"/>
    <path d="M207.378 38.1255V51.6798" stroke="white" strokeWidth="5.34112" strokeLinecap="round"/>
    <path d="M220.638 37.0557C220.638 40.1604 221.521 43.2002 221.521 46.3296C221.521 47.6375 221.521 48.9454 221.521 50.2533"
          stroke="white" strokeWidth="5.34112" strokeLinecap="round"/>
    <path d="M235.659 36.6982C235.659 41.6714 235.482 46.7717 235.482 51.6793" stroke="white" strokeWidth="5.34112"
          strokeLinecap="round"/>
    <path d="M248.386 39.7305C248.46 41.8147 248.739 43.8643 248.739 45.9726C248.739 47.0552 248.916 48.1018 248.916 49.1828C248.916 50.2529 248.916 51.323 248.916 52.393"
          stroke="white" strokeWidth="5.34112" strokeLinecap="round"/>
    <path d="M259.166 42.4053C260.47 46.791 260.58 51.4221 260.58 55.9596" stroke="white" strokeWidth="5.34112"
          strokeLinecap="round"/>
    <path d="M176.45 37.9475C178.818 35.5583 182.33 34.5569 185.464 33.7663C187.485 33.2564 189.496 32.8298 191.571 32.5179C194.031 32.1482 196.421 31.4386 198.896 31.1308C203.226 30.592 207.356 29.5653 211.758 29.5653C216.484 29.5653 221.21 29.5653 225.936 29.5653C228.496 29.5653 231.055 29.5653 233.615 29.5653C236.05 29.5653 238.74 29.2334 241.116 29.8328C243.361 30.3992 245.747 30.6329 248.028 31.0713C250.629 31.5711 253.047 32.8439 255.54 33.6672C258.119 34.5189 260.608 35.5956 263.13 36.5208C263.538 36.6705 264.036 36.8266 264.465 36.8775C264.886 36.9274 265.199 37.4125 265.702 37.4125"
          stroke="white" strokeWidth="5.34112" strokeLinecap="round"/>
    <path d="M208.267 21.7178C210.593 22.4723 213.27 22.4164 215.69 22.4312C218.844 22.4505 222 22.4312 225.155 22.4312C227.066 22.4312 228.978 22.4312 230.889 22.4312"
          stroke="white" strokeWidth="5.34112" strokeLinecap="round"/>
    <path d="M212.855 12.4435C216.425 12.4435 220.074 12.5938 223.597 11.9084C224.644 11.7047 225.922 11.5518 226.994 11.5518"
          stroke="white" strokeWidth="5.34112" strokeLinecap="round"/>
    <path d="M215.865 3.16956C218.457 3.16956 221.096 2.99121 223.642 2.99121" stroke="white" strokeWidth="5.34112"
          strokeLinecap="round"/>
    <path d="M184.572 184.783C185.256 190.997 186.002 197.414 186.002 203.7C186.002 207.324 186.002 210.947 186.002 214.57C186.002 216.033 185.977 217.499 186.002 218.962C186.03 220.59 186.574 222.099 186.574 223.74C186.574 235.269 187.432 246.661 187.432 258.208C187.432 268.717 186.86 279.147 186.86 289.661C186.86 297.335 187.146 304.977 187.146 312.619"
          stroke="white" strokeWidth="5.34112" strokeLinecap="round"/>
    <path d="M255.778 183.051C255.778 207.684 255.492 232.337 255.492 256.989C255.492 275.45 256.35 293.874 256.35 312.329"
          stroke="white" strokeWidth="5.34112" strokeLinecap="round"/>
    <path d="M210.026 313.484C210.026 307.658 210.312 302.003 210.312 296.17C210.312 292.995 210.312 289.821 210.312 286.647C210.312 283.907 209.771 280.502 210.376 277.83C210.859 275.695 210.032 273.193 210.662 271.128C211.332 268.93 211.949 266.988 212.886 264.86C214.356 261.521 219.874 262.119 222.831 262.119C224.638 262.119 227.48 262.971 228.773 264.139C229.541 264.832 230.132 265.177 230.616 266.03C230.983 266.679 231.316 267.994 231.903 268.467C232.438 268.9 232.639 270.147 232.967 270.776C233.461 271.723 233.551 272.662 233.904 273.661C234.658 275.79 234.905 278.574 234.905 280.811C234.905 291.545 235.191 302.184 235.191 312.906"
          stroke="white" strokeWidth="5.34112" strokeLinecap="round"/>
    <path d="M194.587 241.919C198.247 241.919 201.8 242.785 205.485 242.785C213.143 242.785 220.8 242.785 228.458 242.785C234.325 242.785 240.193 242.785 246.06 242.785"
          stroke="white" strokeWidth="5.34112" strokeLinecap="round"/>
    <path d="M186.005 174.106C185.453 174.175 184.2 174.899 185.004 175.548C185.117 175.639 185.211 175.011 185.131 175.132C184.949 175.408 184.037 175.836 184.003 175.26C183.922 173.866 185.022 173.448 185.417 174.843C185.588 175.445 185.367 174.556 185.449 174.266C185.59 173.77 186.373 174.614 186.577 174.683"
          stroke="white" strokeWidth="5.34112" strokeLinecap="round"/>
    <path d="M255.783 175.26C255.86 174.637 256.429 175.399 256.577 175.612C256.822 175.965 255.935 176.331 255.64 175.676C255.334 174.997 255.871 174.288 256.053 175.115C256.26 176.057 255.391 175.517 255.211 174.971"
          stroke="white" strokeWidth="5.34112" strokeLinecap="round"/>
    <path d="M167.702 191.708C169.302 191.708 171.146 191.981 172.722 191.692C175.069 191.261 177.829 191.344 180.062 190.49C181.464 189.953 182.702 188.979 184.066 188.47C184.639 188.255 185.088 187.54 185.591 187.396C186.877 187.025 188.515 186.039 189.785 185.937C190.628 185.869 191.119 185.071 192.009 185.071C192.945 185.071 193.883 184.782 194.869 184.782C197.396 184.782 200.396 184.31 202.812 185.007C204.213 185.411 206.155 185.071 207.61 185.071C209.421 185.071 211.232 185.071 213.043 185.071C216.708 185.071 220.372 185.071 224.037 185.071C227.606 185.071 231.375 184.758 234.904 185.295C236.959 185.608 240.005 184.725 241.91 185.792C242.389 186.061 243.365 186.087 243.911 186.209C245.303 186.521 246.709 186.771 248.058 187.315C248.682 187.567 249.17 187.394 249.774 187.732C250.752 188.281 251.868 188.808 252.919 189.111C254.968 189.702 256.736 191.476 258.925 191.708C260.487 191.874 261.938 192.574 263.5 192.574C265.922 192.574 268.345 192.387 270.713 191.932C272.057 191.674 273.443 191.291 274.795 191.147C275.328 191.09 275.846 190.873 276.368 190.842C277.799 190.757 273.504 190.979 272.079 191.131"
          stroke="white" strokeWidth="5.34112" strokeLinecap="round"/>
    <path d="M167.132 207.002C169.945 207.286 172.562 207.065 175.361 207.002C176.663 206.973 180.623 207.69 181.43 206.265C181.662 205.856 182.383 205.496 182.749 205.127C183.399 204.471 184.305 203.986 185.02 203.395C186.819 201.91 189.605 200.579 191.852 200.013C198.597 198.311 205.664 198.634 212.584 198.634C220.257 198.634 227.931 198.634 235.604 198.634C237.689 198.634 239.706 198.707 241.768 198.938C243.028 199.08 244.019 199.812 245.2 200.077C245.817 200.215 246.325 200.451 246.757 200.926C247.162 201.373 247.564 201.095 248.06 201.295C251.204 202.564 254.478 203.623 257.782 204.549C259.656 205.075 261.303 205.845 263.216 206.121C264.996 206.377 266.654 207.291 268.49 207.291C269.981 207.291 271.297 207.579 272.795 207.579C273.529 207.579 277.051 207.318 275.798 207.002"
          stroke="white" strokeWidth="5.34112" strokeLinecap="round"/>
    <path d="M166.558 221.431C171.228 221.431 176.281 221.788 180.856 220.79C183.118 220.296 184.648 218.74 186.575 217.551C188.582 216.314 190.639 215.398 192.803 214.505C194.186 213.934 195.561 213.982 196.997 213.64C198.625 213.252 200.507 212.774 202.192 212.774C205.3 212.774 208.409 212.774 211.517 212.774C218.169 212.774 224.82 212.774 231.471 212.774C235.698 212.774 240.591 212.167 244.753 213.127C246.562 213.544 248.628 213.526 250.361 214.072C252.102 214.621 253.723 215.288 255.429 215.884C262.307 218.287 269.23 220.277 276.654 220.277"
          stroke="white" strokeWidth="5.34112" strokeLinecap="round"/>
    <path d="M218.03 164.294C215.599 164.294 214.599 167.615 214.599 169.713C214.599 171.308 214.501 172.234 215.679 173.304C216.318 173.885 218.457 173.608 219.317 173.801C220.53 174.073 222.531 173.959 223.607 173.384C226.189 172.005 225.192 169.189 224.909 166.908C224.587 164.306 221.363 164.294 219.174 164.294"
          stroke="white" strokeWidth="5.34112" strokeLinecap="round"/>
    <path d="M60.8662 231.128C78.0243 231.128 95.0507 232.586 112.186 232.586C124.539 232.586 136.892 232.586 149.245 232.586C153.095 232.586 157.892 233.323 161.526 232.1"
          stroke="white" strokeWidth="5.34112" strokeLinecap="round"/>
    <path d="M25.708 244.737C59.0829 244.737 92.4578 244.737 125.833 244.737C137.285 244.737 148.737 244.737 160.189 244.737C162.481 244.737 164.773 244.737 167.065 244.737C167.894 244.737 170.633 245.193 169.233 244.25"
          stroke="white" strokeWidth="5.34112" strokeLinecap="round"/>
    <path d="M3.55469 260.289C39.9809 260.289 76.5523 261.285 112.884 258.939C131.591 257.731 150.477 258.345 169.234 258.345"
          stroke="white" strokeWidth="5.34112" strokeLinecap="round"/>
    <path d="M284.156 232.177C303.425 232.177 322.697 232.074 341.965 232.177C354.898 232.246 367.816 232.868 380.746 232.868"
          stroke="white" strokeWidth="5.34112" strokeLinecap="round"/>
    <path d="M270.456 243.929C302.554 243.929 334.672 244.274 366.779 244.274C372.354 244.274 377.93 244.274 383.505 244.274C389.764 244.274 396.223 243.805 402.458 244.447C407.529 244.969 412.642 244.966 417.738 244.966"
          stroke="white" strokeWidth="5.34112" strokeLinecap="round"/>
    <path d="M270.456 259.482C280.656 259.482 290.86 259.609 301.054 259.213C305.95 259.023 310.793 258.216 315.687 258.119C319.814 258.037 323.947 258.1 328.075 258.1C345.633 258.1 363.168 257.754 380.727 257.754C399.914 257.754 457.476 258.1 438.288 258.1"
          stroke="white" strokeWidth="5.34112" strokeLinecap="round"/>
    <path d="M293.749 267.777C293.749 271.506 294.434 275.215 294.434 278.991C294.434 281.27 294.434 283.548 294.434 285.827C294.434 287.991 294.434 290.154 294.434 292.317"
          stroke="white" strokeWidth="5.34112" strokeLinecap="round"/>
    <path d="M317.725 268.814C317.955 272.535 319.054 276.142 319.095 279.875C319.118 282.006 319.095 284.138 319.095 286.269C319.095 288.201 318.752 290.097 318.752 291.972"
          stroke="white" strokeWidth="5.34112" strokeLinecap="round"/>
    <path d="M341.018 270.888V294.737" stroke="white" strokeWidth="5.34112" strokeLinecap="round"/>
    <path d="M366.021 270.197V291.972" stroke="white" strokeWidth="5.34112" strokeLinecap="round"/>
    <path d="M389.997 270.888C389.997 273.686 390.241 276.536 390.359 279.337C390.474 282.083 390.36 285.112 390.758 287.824C390.969 289.263 391.367 290.481 391.367 291.953C391.367 292.784 391.38 293.647 391.71 292.317"
          stroke="white" strokeWidth="5.34112" strokeLinecap="round"/>
    <path d="M415 268.123C415 275.64 415.343 283.103 415.343 290.589" stroke="white" strokeWidth="5.34112"
          strokeLinecap="round"/>
    <path d="M25.9023 269.506C27.415 269.506 27.2724 270.301 27.2724 271.772C27.2724 275.498 27.3006 279.119 26.7777 282.813C26.2851 286.292 26.5874 296.869 26.5874 293.355"
          stroke="white" strokeWidth="5.34112" strokeLinecap="round"/>
    <path d="M50.5654 270.888C50.5654 275.855 50.5654 280.822 50.5654 285.789C50.5654 288.085 51.9355 290.267 51.9355 292.317"
          stroke="white" strokeWidth="5.34112" strokeLinecap="round"/>
    <path d="M74.5391 269.506C74.5391 276.907 75.2241 284.247 75.2241 291.626" stroke="white" strokeWidth="5.34112"
          strokeLinecap="round"/>
    <path d="M97.8301 270.888C97.8301 276.554 98.3914 282.246 99.1811 287.824C99.3633 289.111 99.5427 290.224 99.5427 291.626"
          stroke="white" strokeWidth="5.34112" strokeLinecap="round"/>
    <path d="M123.176 269.506C123.176 272.674 122.846 276.042 123.252 279.184C123.516 281.225 123.861 282.989 123.861 285.079C123.861 287.264 123.519 293.812 123.519 291.626"
          stroke="white" strokeWidth="5.34112" strokeLinecap="round"/>
    <path d="M145.442 269.506C145.442 274.572 146.127 279.612 146.127 284.695C146.127 286.544 146.127 288.394 146.127 290.244"
          stroke="white" strokeWidth="5.34112" strokeLinecap="round"/>
</svg>
