<svg width="444" height="311" viewBox="0 0 444 311" fill="none" xmlns="http://www.w3.org/2000/svg">
    <path d="M57.3438 223.699C57.3438 220.59 57.7149 217.523 57.7149 214.503C57.7149 210.793 57.7939 206.923 59.0138 203.476C60.3618 199.668 60.6838 194.994 60.6838 190.931C60.6838 187.204 61.9259 183.454 62.8899 180.05C63.4741 177.986 64.1813 175.915 64.7661 173.85C65.314 171.914 66.6217 169.286 66.6217 167.338C66.6217 165.61 68.1061 164.258 68.1061 162.469C68.1061 160.756 69.2871 157.665 70.1473 156.103C70.9493 154.646 70.9918 153.046 71.8173 151.588C72.7277 149.98 73.4102 147.729 74.044 145.971C75.2822 142.535 78.1151 139.395 78.8891 135.88C79.2265 134.348 81.273 132.857 81.4663 131.199C81.5637 130.363 83.0812 128.279 83.6106 127.745C85.933 125.402 86.5992 121.472 89.6309 119.673C90.7756 118.993 91.4371 117.618 92.5998 116.885C93.6794 116.204 95.1964 114.556 95.9399 113.514C97.4409 111.41 99.5817 109.548 101.424 107.689C103.03 106.069 105.356 104.544 106.62 102.737C107.292 101.776 108.804 101.273 109.671 100.49C110.323 99.9012 110.926 99.1144 111.609 98.6176C113.297 97.3917 115.934 95.2219 117.011 93.3747C117.704 92.1853 119.479 90.7779 120.722 90.2955C121.492 89.9965 122.861 88.6318 123.485 88.0485C124.256 87.3285 125.465 86.3376 126.454 85.968C128.637 85.1522 130.267 82.9933 132.309 81.8485C134.396 80.679 136.312 79.3291 138.33 78.0203C142.879 75.0692 147.749 72.8724 152.556 70.4472C156.418 68.4985 160.465 66.3125 164.782 65.2875C172.018 63.5693 179.203 61.0449 186.698 60.4398C190.05 60.1692 193.326 59.5869 196.677 59.3163C199.706 59.0718 203.093 59.2272 206.017 58.3593C211.586 56.7066 218.372 57.4231 224.181 57.4231C230.422 57.4231 236.662 57.4231 242.902 57.4231C247.3 57.4231 252.958 58.1583 256.963 60.0237C259.187 61.0596 262.05 61.0836 264.262 62.1251C268.18 63.9704 272.378 65.2436 276.467 66.619C277.496 66.9651 279.38 67.9772 280.199 68.6579C281.755 69.951 284.101 70.5983 285.848 71.7163C293.131 76.3768 301.312 79.7911 308.012 85.323C310.751 87.5838 313.914 89.4164 316.754 91.5854C318.314 92.7765 320.088 93.9598 321.496 95.3304C322.727 96.5277 324.519 97.3105 325.579 98.6176C327.85 101.419 331.02 103.609 333.743 105.899C335.114 107.053 336.382 108.925 337.537 110.31C338.876 111.917 340.351 113.564 341.784 115.095C344.527 118.026 346.534 121.653 349.33 124.583C351.144 126.484 352.058 129 353.866 130.824C356.651 133.634 359.159 136.815 361.659 139.812C362.975 141.389 362.641 144.608 363.886 146.179C364.467 146.911 364.908 148.252 364.999 149.175C365.122 150.416 366.439 151.324 366.484 152.462C366.553 154.202 368.13 155.619 368.339 157.413C368.545 159.177 370.376 161.261 370.855 163.031C371.252 164.5 371.812 166.999 372.875 168.191C374.187 169.661 373.809 171.728 374.648 173.517C375.446 175.216 376.15 176.944 376.875 178.677C377.706 180.662 378.179 182.838 379.102 184.752C379.704 186.001 381.329 188.654 381.329 189.995"
          stroke="#0F9D56" strokeWidth="5.34112" strokeLinecap="round"/>
    <path d="M373.537 169.772C373.691 171.171 375.037 172.931 375.578 174.266C376.278 175.993 376.755 178.166 377.805 179.697C378.734 181.051 378.804 182.65 379.269 184.191C379.689 185.584 380.217 186.828 380.217 188.289C380.217 190.125 380.531 192.379 381.145 194.115C381.756 195.841 381.42 197.935 382.279 199.545C383.161 201.198 383.557 203.508 383.557 205.35C383.557 207.938 383.928 210.573 383.928 213.214C383.928 216.753 384.671 220.086 384.671 223.7"
          stroke="#0F9D56" strokeWidth="5.34112" strokeLinecap="round"/>
    <path d="M180.982 42.9409C181.168 45.1869 181.187 47.4355 181.473 49.6784C181.595 50.6325 181.689 51.5269 181.689 52.4923C181.689 53.2024 181.689 53.9125 181.689 54.6226C181.689 55.485 181.52 56.6526 182.043 55.0684"
          stroke="#0F9D56" strokeWidth="5.34112" strokeLinecap="round"/>
    <path d="M194.59 39.5527C194.59 41.5521 194.673 43.5238 194.757 45.5174C194.815 46.8939 194.602 48.353 194.806 49.7184C194.931 50.5547 195.183 51.3691 195.287 52.2054C195.311 52.3971 195.297 53.2491 195.297 53.107"
          stroke="#0F9D56" strokeWidth="5.34112" strokeLinecap="round"/>
    <path d="M206.604 38.1255V51.6798" stroke="#0F9D56" strokeWidth="5.34112" strokeLinecap="round"/>
    <path d="M219.863 37.0557C219.863 40.1604 220.747 43.2002 220.747 46.3296C220.747 47.6375 220.747 48.9454 220.747 50.2533"
          stroke="#0F9D56" strokeWidth="5.34112" strokeLinecap="round"/>
    <path d="M234.886 36.6982C234.886 41.6714 234.709 46.7717 234.709 51.6793" stroke="#0F9D56" strokeWidth="5.34112"
          strokeLinecap="round"/>
    <path d="M247.613 39.7305C247.687 41.8147 247.967 43.8643 247.967 45.9726C247.967 47.0552 248.143 48.1018 248.143 49.1828C248.143 50.2529 248.143 51.323 248.143 52.393"
          stroke="#0F9D56" strokeWidth="5.34112" strokeLinecap="round"/>
    <path d="M258.393 42.4053C259.696 46.791 259.806 51.4221 259.806 55.9596" stroke="#0F9D56" strokeWidth="5.34112"
          strokeLinecap="round"/>
    <path d="M175.678 37.9475C178.045 35.5583 181.558 34.5569 184.691 33.7663C186.713 33.2564 188.723 32.8298 190.799 32.5179C193.258 32.1482 195.649 31.4386 198.123 31.1308C202.454 30.592 206.583 29.5653 210.986 29.5653C215.712 29.5653 220.438 29.5653 225.164 29.5653C227.723 29.5653 230.283 29.5653 232.842 29.5653C235.278 29.5653 237.968 29.2334 240.344 29.8328C242.589 30.3992 244.975 30.6329 247.256 31.0713C249.856 31.5711 252.274 32.8439 254.767 33.6672C257.346 34.5189 259.836 35.5956 262.357 36.5208C262.765 36.6705 263.264 36.8266 263.693 36.8775C264.114 36.9274 264.427 37.4125 264.93 37.4125"
          stroke="#0F9D56" strokeWidth="5.34112" strokeLinecap="round"/>
    <path d="M207.492 21.7178C209.818 22.4723 212.496 22.4164 214.915 22.4312C218.07 22.4505 221.225 22.4312 224.38 22.4312C226.292 22.4312 228.203 22.4312 230.114 22.4312"
          stroke="#0F9D56" strokeWidth="5.34112" strokeLinecap="round"/>
    <path d="M212.082 12.4435C215.652 12.4435 219.301 12.5938 222.824 11.9084C223.871 11.7047 225.149 11.5518 226.221 11.5518"
          stroke="#0F9D56" strokeWidth="5.34112" strokeLinecap="round"/>
    <path d="M215.092 3.16956C217.684 3.16956 220.322 2.99121 222.868 2.99121" stroke="#0F9D56" strokeWidth="5.34112"
          strokeLinecap="round"/>
    <path d="M183.799 184.783C184.483 190.997 185.229 197.414 185.229 203.7C185.229 207.324 185.229 210.947 185.229 214.57C185.229 216.033 185.203 217.499 185.229 218.962C185.257 220.59 185.801 222.099 185.801 223.74C185.801 235.269 186.658 246.661 186.658 258.208C186.658 268.717 186.087 279.147 186.087 289.661C186.087 297.335 186.372 304.977 186.372 312.619"
          stroke="#0F9D56" strokeWidth="5.34112" strokeLinecap="round"/>
    <path d="M255.005 183.051C255.005 207.684 254.719 232.337 254.719 256.989C254.719 275.45 255.577 293.874 255.577 312.329"
          stroke="#0F9D56" strokeWidth="5.34112" strokeLinecap="round"/>
    <path d="M209.252 313.484C209.252 307.658 209.538 302.003 209.538 296.17C209.538 292.995 209.538 289.821 209.538 286.647C209.538 283.907 208.996 280.502 209.601 277.83C210.085 275.695 209.258 273.193 209.887 271.128C210.558 268.93 211.174 266.988 212.112 264.86C213.582 261.521 219.1 262.119 222.057 262.119C223.864 262.119 226.705 262.971 227.998 264.139C228.767 264.832 229.358 265.177 229.841 266.03C230.209 266.679 230.542 267.994 231.128 268.467C231.664 268.9 231.865 270.147 232.193 270.776C232.687 271.723 232.776 272.662 233.13 273.661C233.883 275.79 234.131 278.574 234.131 280.811C234.131 291.545 234.417 302.184 234.417 312.906"
          stroke="#0F9D56" strokeWidth="5.34112" strokeLinecap="round"/>
    <path d="M193.814 241.919C197.475 241.919 201.027 242.785 204.713 242.785C212.37 242.785 220.028 242.785 227.685 242.785C233.553 242.785 239.42 242.785 245.288 242.785"
          stroke="#0F9D56" strokeWidth="5.34112" strokeLinecap="round"/>
    <path d="M185.233 174.106C184.681 174.175 183.427 174.899 184.232 175.548C184.344 175.639 184.439 175.011 184.359 175.132C184.176 175.408 183.264 175.836 183.231 175.26C183.15 173.866 184.25 173.448 184.645 174.843C184.815 175.445 184.594 174.556 184.677 174.266C184.817 173.77 185.601 174.614 185.805 174.683"
          stroke="#0F9D56" strokeWidth="5.34112" strokeLinecap="round"/>
    <path d="M255.009 175.26C255.087 174.637 255.656 175.399 255.804 175.612C256.049 175.965 255.161 176.331 254.866 175.676C254.56 174.997 255.097 174.288 255.28 175.115C255.487 176.057 254.618 175.517 254.438 174.971"
          stroke="#0F9D56" strokeWidth="5.34112" strokeLinecap="round"/>
    <path d="M166.93 191.708C168.529 191.708 170.373 191.981 171.95 191.692C174.297 191.261 177.057 191.344 179.29 190.49C180.691 189.953 181.93 188.979 183.293 188.47C183.867 188.255 184.316 187.54 184.818 187.396C186.104 187.025 187.743 186.039 189.012 185.937C189.856 185.869 190.347 185.071 191.237 185.071C192.173 185.071 193.11 184.782 194.096 184.782C196.623 184.782 199.623 184.31 202.04 185.007C203.44 185.411 205.383 185.071 206.837 185.071C208.649 185.071 210.46 185.071 212.271 185.071C215.935 185.071 219.6 185.071 223.265 185.071C226.834 185.071 230.602 184.758 234.131 185.295C236.186 185.608 239.233 184.725 241.137 185.792C241.616 186.061 242.593 186.087 243.139 186.209C244.53 186.521 245.937 186.771 247.285 187.315C247.91 187.567 248.398 187.394 249.001 187.732C249.98 188.281 251.095 188.808 252.147 189.111C254.196 189.702 255.963 191.476 258.152 191.708C259.715 191.874 261.166 192.574 262.727 192.574C265.149 192.574 267.573 192.387 269.94 191.932C271.285 191.674 272.671 191.291 274.023 191.147C274.556 191.09 275.073 190.873 275.596 190.842C277.026 190.757 272.731 190.979 271.306 191.131"
          stroke="#0F9D56" strokeWidth="5.34112" strokeLinecap="round"/>
    <path d="M166.357 207.002C169.17 207.286 171.788 207.065 174.587 207.002C175.888 206.973 179.849 207.69 180.656 206.265C180.887 205.856 181.608 205.496 181.974 205.127C182.624 204.471 183.531 203.986 184.246 203.395C186.045 201.91 188.831 200.579 191.077 200.013C197.823 198.311 204.889 198.634 211.81 198.634C219.483 198.634 227.156 198.634 234.83 198.634C236.914 198.634 238.932 198.707 240.994 198.938C242.254 199.08 243.244 199.812 244.425 200.077C245.043 200.215 245.551 200.451 245.982 200.926C246.388 201.373 246.789 201.095 247.285 201.295C250.43 202.564 253.703 203.623 257.008 204.549C258.882 205.075 260.528 205.845 262.441 206.121C264.222 206.377 265.88 207.291 267.716 207.291C269.206 207.291 270.522 207.579 272.021 207.579C272.754 207.579 276.277 207.318 275.024 207.002"
          stroke="#0F9D56" strokeWidth="5.34112" strokeLinecap="round"/>
    <path d="M165.783 221.431C170.454 221.431 175.506 221.788 180.081 220.79C182.343 220.296 183.874 218.74 185.801 217.551C187.808 216.314 189.865 215.398 192.028 214.505C193.412 213.934 194.786 213.982 196.222 213.64C197.851 213.252 199.733 212.774 201.417 212.774C204.526 212.774 207.634 212.774 210.743 212.774C217.394 212.774 224.046 212.774 230.697 212.774C234.924 212.774 239.817 212.167 243.978 213.127C245.788 213.544 247.854 213.526 249.586 214.072C251.327 214.621 252.949 215.288 254.654 215.884C261.533 218.287 268.456 220.277 275.879 220.277"
          stroke="#0F9D56" strokeWidth="5.34112" strokeLinecap="round"/>
    <path d="M217.256 164.294C214.825 164.294 213.824 167.615 213.824 169.713C213.824 171.308 213.726 172.234 214.905 173.304C215.544 173.885 217.682 173.608 218.543 173.801C219.756 174.073 221.757 173.959 222.832 173.384C225.414 172.005 224.417 169.189 224.135 166.908C223.813 164.306 220.589 164.294 218.4 164.294"
          stroke="#0F9D56" strokeWidth="5.34112" strokeLinecap="round"/>
    <path d="M60.0918 231.128C77.2499 231.128 94.2763 232.586 111.412 232.586C123.765 232.586 136.117 232.586 148.47 232.586C152.32 232.586 157.118 233.323 160.752 232.1"
          stroke="#0F9D56" strokeWidth="5.34112" strokeLinecap="round"/>
    <path d="M24.9355 244.736C58.3105 244.736 91.6854 244.736 125.06 244.736C136.512 244.736 147.964 244.736 159.416 244.736C161.709 244.736 164.001 244.736 166.293 244.736C167.122 244.736 169.861 245.192 168.46 244.25"
          stroke="#0F9D56" strokeWidth="5.34112" strokeLinecap="round"/>
    <path d="M2.78125 260.289C39.2075 260.289 75.7789 261.285 112.11 258.939C130.818 257.731 149.704 258.345 168.461 258.345"
          stroke="#0F9D56" strokeWidth="5.34112" strokeLinecap="round"/>
    <path d="M283.383 232.176C302.652 232.176 321.923 232.074 341.192 232.176C354.124 232.245 367.042 232.868 379.972 232.868"
          stroke="#0F9D56" strokeWidth="5.34112" strokeLinecap="round"/>
    <path d="M269.682 243.929C301.78 243.929 333.897 244.274 366.005 244.274C371.58 244.274 377.155 244.274 382.731 244.274C388.99 244.274 395.449 243.805 401.683 244.447C406.755 244.969 411.868 244.966 416.963 244.966"
          stroke="#0F9D56" strokeWidth="5.34112" strokeLinecap="round"/>
    <path d="M269.682 259.482C279.882 259.482 290.085 259.609 300.28 259.213C305.175 259.023 310.019 258.216 314.913 258.119C319.04 258.037 323.173 258.1 327.3 258.1C344.858 258.1 362.394 257.754 379.952 257.754C399.14 257.754 456.702 258.1 437.514 258.1"
          stroke="#0F9D56" strokeWidth="5.34112" strokeLinecap="round"/>
    <path d="M292.975 267.777C292.975 271.506 293.66 275.215 293.66 278.991C293.66 281.27 293.66 283.548 293.66 285.827C293.66 287.991 293.66 290.154 293.66 292.317"
          stroke="#0F9D56" strokeWidth="5.34112" strokeLinecap="round"/>
    <path d="M316.951 268.814C317.182 272.535 318.28 276.142 318.321 279.875C318.345 282.006 318.321 284.138 318.321 286.269C318.321 288.201 317.979 290.097 317.979 291.972"
          stroke="#0F9D56" strokeWidth="5.34112" strokeLinecap="round"/>
    <path d="M340.244 270.888V294.737" stroke="#0F9D56" strokeWidth="5.34112" strokeLinecap="round"/>
    <path d="M365.248 270.197V291.972" stroke="#0F9D56" strokeWidth="5.34112" strokeLinecap="round"/>
    <path d="M389.225 270.888C389.225 273.686 389.468 276.536 389.586 279.337C389.702 282.083 389.588 285.112 389.986 287.824C390.197 289.263 390.595 290.481 390.595 291.953C390.595 292.784 390.608 293.647 390.937 292.317"
          stroke="#0F9D56" strokeWidth="5.34112" strokeLinecap="round"/>
    <path d="M414.227 268.123C414.227 275.64 414.569 283.103 414.569 290.589" stroke="#0F9D56" strokeWidth="5.34112"
          strokeLinecap="round"/>
    <path d="M25.1289 269.506C26.6416 269.506 26.499 270.301 26.499 271.772C26.499 275.498 26.5272 279.119 26.0042 282.813C25.5117 286.292 25.8139 296.869 25.8139 293.355"
          stroke="#0F9D56" strokeWidth="5.34112" strokeLinecap="round"/>
    <path d="M49.791 270.888C49.791 275.855 49.791 280.822 49.791 285.789C49.791 288.085 51.1611 290.267 51.1611 292.317"
          stroke="#0F9D56" strokeWidth="5.34112" strokeLinecap="round"/>
    <path d="M73.7656 269.506C73.7656 276.907 74.4507 284.247 74.4507 291.626" stroke="#0F9D56" strokeWidth="5.34112"
          strokeLinecap="round"/>
    <path d="M97.0566 270.888C97.0566 276.554 97.618 282.246 98.4077 287.824C98.5899 289.111 98.7692 290.224 98.7692 291.626"
          stroke="#0F9D56" strokeWidth="5.34112" strokeLinecap="round"/>
    <path d="M122.402 269.506C122.402 272.674 122.072 276.042 122.478 279.184C122.742 281.225 123.087 282.989 123.087 285.079C123.087 287.264 122.744 293.812 122.744 291.626"
          stroke="#0F9D56" strokeWidth="5.34112" strokeLinecap="round"/>
    <path d="M144.668 269.506C144.668 274.572 145.353 279.612 145.353 284.695C145.353 286.544 145.353 288.394 145.353 290.244"
          stroke="#0F9D56" strokeWidth="5.34112" strokeLinecap="round"/>
</svg>
