<svg width="12" height="10" viewBox="0 0 12 10" fill="none" xmlns="http://www.w3.org/2000/svg">
<path d="M11.834 1.80904L8.184 0C7.80719 0.521154 6.97297 0.884837 6.00003 0.884837C5.02708 0.884837 4.19286 0.521154 3.81605 0L0.166099 1.80904C0.0180011 1.88403 -0.0419879 2.064 0.0311237 2.21209L1.10343 4.35857C1.17841 4.50667 1.35838 4.56666 1.50648 4.49355L2.56753 3.97427C2.76625 3.87679 2.9987 4.02114 2.9987 4.24422V8.99835C2.9987 9.33016 3.26678 9.59824 3.59859 9.59824H8.39771C8.72953 9.59824 8.9976 9.33016 8.9976 8.99835V4.24235C8.9976 4.02114 9.23006 3.87491 9.42877 3.97239L10.4898 4.49167C10.6379 4.56666 10.8179 4.50667 10.8929 4.3567L11.9671 2.21209C12.042 2.064 11.9821 1.88215 11.834 1.80904Z" fill="#E8EAED"/>
</svg>
