<?xml version="1.0" standalone="no"?>
<!DOCTYPE svg PUBLIC "-//W3C//DTD SVG 20010904//EN"
 "http://www.w3.org/TR/2001/REC-SVG-20010904/DTD/svg10.dtd">
<svg version="1.0" xmlns="http://www.w3.org/2000/svg"
 width="145.000000pt" height="145.000000pt" viewBox="0 0 145.000000 145.000000"
 preserveAspectRatio="xMidYMid meet">
<metadata>
Created by potrace 1.14, written by Peter Selinger 2001-2017
</metadata>
<g transform="translate(0.000000,145.000000) scale(0.100000,-0.100000)"
fill="#000000" stroke="none">
<path d="M265 939 c-116 -66 -221 -131 -235 -145 -20 -20 -25 -34 -24 -74 0
-33 6 -56 19 -70 19 -21 269 -170 286 -170 5 0 9 -4 9 -10 0 -5 4 -10 9 -10 5
0 41 -19 81 -41 61 -36 77 -41 112 -36 107 14 133 156 39 209 -14 8 -70 41
-125 73 -107 62 -105 54 -29 96 96 52 176 105 193 127 38 47 17 137 -37 161
-54 25 -83 14 -298 -110z"/>
<path d="M824 1026 c-28 -28 -34 -41 -34 -77 0 -36 6 -47 38 -78 21 -20 56
-45 78 -56 84 -43 155 -88 151 -98 -1 -5 -21 -19 -42 -31 -178 -97 -211 -120
-221 -161 -17 -69 25 -133 94 -142 38 -5 56 3 263 122 243 140 264 159 255
228 -5 42 -30 76 -74 98 -25 12 -136 76 -172 99 -8 5 -63 36 -121 70 -129 73
-163 78 -215 26z"/>
</g>
</svg>
