<svg width="304" height="120" viewBox="0 0 304 120" fill="none" xmlns="http://www.w3.org/2000/svg">
<rect width="304" height="120" rx="6" fill="#282828"/>
<path d="M34.0871 75.1403C32.9783 75.1403 31.9564 74.874 31.0216 74.3413C30.0867 73.8086 29.342 73.0803 28.7876 72.1563C28.2441 71.2214 27.9723 70.1833 27.9723 69.0418C27.9723 67.9004 28.2441 66.8677 28.7876 65.9437C29.342 65.0088 30.0867 64.275 31.0216 63.7424C31.9564 63.2097 32.9783 62.9434 34.0871 62.9434C34.9676 62.9434 35.7884 63.101 36.5493 63.4163C37.3102 63.7315 37.9462 64.1718 38.4571 64.737L37.1852 66.0089C36.8048 65.585 36.3482 65.2588 35.8155 65.0306C35.2937 64.8023 34.7122 64.6881 34.0708 64.6881C33.3207 64.6881 32.6195 64.8675 31.9673 65.2262C31.3151 65.585 30.7933 66.0959 30.4019 66.759C30.0106 67.4221 29.8149 68.1831 29.8149 69.0418C29.8149 69.9006 30.0106 70.6616 30.4019 71.3247C30.7933 71.9878 31.3151 72.4987 31.9673 72.8574C32.6195 73.2162 33.3261 73.3955 34.0871 73.3955C34.7828 73.3955 35.3644 73.2923 35.8318 73.0857C36.2993 72.8792 36.7178 72.602 37.0874 72.2541C37.3266 72.015 37.5277 71.716 37.6907 71.3573C37.8647 70.9986 37.9788 70.6072 38.0332 70.1833H34.0708V68.5527H39.7616C39.8159 68.857 39.8431 69.1723 39.8431 69.4984C39.8431 70.2376 39.729 70.9496 39.5007 71.6345C39.2724 72.3085 38.9082 72.8955 38.4082 73.3955C37.3102 74.5587 35.8699 75.1403 34.0871 75.1403ZM45.4753 75.1403C44.6383 75.1403 43.8882 74.9501 43.2251 74.5696C42.562 74.1782 42.0456 73.6456 41.676 72.9716C41.3064 72.2976 41.1216 71.5475 41.1216 70.7214C41.1216 69.8952 41.3064 69.1451 41.676 68.4711C42.0456 67.7971 42.562 67.2699 43.2251 66.8894C43.8882 66.4981 44.6383 66.3024 45.4753 66.3024C46.3124 66.3024 47.0624 66.4981 47.7256 66.8894C48.3887 67.2808 48.905 67.8134 49.2746 68.4874C49.6442 69.1614 49.829 69.9061 49.829 70.7214C49.829 71.5475 49.6442 72.2976 49.2746 72.9716C48.905 73.6456 48.3887 74.1782 47.7256 74.5696C47.0624 74.9501 46.3124 75.1403 45.4753 75.1403ZM45.4753 73.4934C45.9319 73.4934 46.3559 73.3847 46.7472 73.1673C47.1385 72.939 47.4484 72.6183 47.6766 72.2052C47.9158 71.7812 48.0354 71.2866 48.0354 70.7214C48.0354 70.1561 47.9158 69.6669 47.6766 69.2538C47.4484 68.8407 47.1385 68.5255 46.7472 68.3081C46.3559 68.0798 45.9319 67.9656 45.4753 67.9656C45.0188 67.9656 44.5948 68.0798 44.2035 68.3081C43.8121 68.5255 43.4969 68.8407 43.2577 69.2538C43.0294 69.6669 42.9153 70.1561 42.9153 70.7214C42.9153 71.2866 43.0294 71.7812 43.2577 72.2052C43.4969 72.6183 43.8121 72.939 44.2035 73.1673C44.5948 73.3847 45.0188 73.4934 45.4753 73.4934ZM55.38 75.1403C54.5429 75.1403 53.7928 74.9501 53.1297 74.5696C52.4666 74.1782 51.9503 73.6456 51.5807 72.9716C51.2111 72.2976 51.0263 71.5475 51.0263 70.7214C51.0263 69.8952 51.2111 69.1451 51.5807 68.4711C51.9503 67.7971 52.4666 67.2699 53.1297 66.8894C53.7928 66.4981 54.5429 66.3024 55.38 66.3024C56.217 66.3024 56.9671 66.4981 57.6302 66.8894C58.2933 67.2808 58.8097 67.8134 59.1793 68.4874C59.5489 69.1614 59.7337 69.9061 59.7337 70.7214C59.7337 71.5475 59.5489 72.2976 59.1793 72.9716C58.8097 73.6456 58.2933 74.1782 57.6302 74.5696C56.9671 74.9501 56.217 75.1403 55.38 75.1403ZM55.38 73.4934C55.8365 73.4934 56.2605 73.3847 56.6518 73.1673C57.0432 72.939 57.353 72.6183 57.5813 72.2052C57.8204 71.7812 57.94 71.2866 57.94 70.7214C57.94 70.1561 57.8204 69.6669 57.5813 69.2538C57.353 68.8407 57.0432 68.5255 56.6518 68.3081C56.2605 68.0798 55.8365 67.9656 55.38 67.9656C54.9234 67.9656 54.4994 68.0798 54.1081 68.3081C53.7167 68.5255 53.4015 68.8407 53.1623 69.2538C52.9341 69.6669 52.8199 70.1561 52.8199 70.7214C52.8199 71.2866 52.9341 71.7812 53.1623 72.2052C53.4015 72.6183 53.7167 72.939 54.1081 73.1673C54.4994 73.3847 54.9234 73.4934 55.38 73.4934ZM65.1378 78.6624C64.116 78.6624 63.2681 78.4287 62.5941 77.9612C61.931 77.4938 61.4853 76.9394 61.257 76.298L62.9365 75.5969C63.1105 76.0317 63.3877 76.3795 63.7681 76.6404C64.1595 76.9122 64.6161 77.0481 65.1378 77.0481C65.8988 77.0481 66.4912 76.8198 66.9152 76.3632C67.35 75.9175 67.5674 75.287 67.5674 74.4717V73.7054H67.4696C67.1978 74.0967 66.8337 74.4065 66.3771 74.6348C65.9314 74.8522 65.4151 74.9609 64.828 74.9609C64.1323 74.9609 63.4855 74.7816 62.8876 74.4228C62.2897 74.0641 61.8114 73.5586 61.4527 72.9064C61.1048 72.2433 60.9309 71.4877 60.9309 70.6398C60.9309 69.7919 61.1048 69.0418 61.4527 68.3896C61.8114 67.7265 62.2897 67.2156 62.8876 66.8568C63.4855 66.4872 64.1323 66.3024 64.828 66.3024C65.4042 66.3024 65.9205 66.4166 66.3771 66.6448C66.8337 66.8731 67.1978 67.1829 67.4696 67.5743H67.5674V66.5633H69.2796V74.4228C69.2796 75.3251 69.1057 76.0915 68.7578 76.722C68.4099 77.3633 67.9207 77.8471 67.2902 78.1732C66.6706 78.4993 65.9532 78.6624 65.1378 78.6624ZM65.1542 73.3303C65.589 73.3303 65.9912 73.2271 66.3608 73.0205C66.7304 72.8031 67.0239 72.4933 67.2413 72.0911C67.4587 71.678 67.5674 71.1942 67.5674 70.6398C67.5674 69.7919 67.3337 69.1342 66.8663 68.6668C66.4097 68.1885 65.839 67.9493 65.1542 67.9493C64.7085 67.9493 64.3008 68.058 63.9312 68.2755C63.5616 68.482 63.2681 68.7864 63.0507 69.1886C62.8333 69.5908 62.7246 70.0746 62.7246 70.6398C62.7246 71.2051 62.8333 71.6888 63.0507 72.0911C63.2681 72.4933 63.5616 72.8031 63.9312 73.0205C64.3008 73.2271 64.7085 73.3303 65.1542 73.3303ZM71.3876 63.2043H73.1813V74.8794H71.3876V63.2043ZM79.0087 75.1403C78.1934 75.1403 77.4596 74.9501 76.8074 74.5696C76.166 74.1891 75.6605 73.6673 75.2909 73.0042C74.9322 72.3302 74.7528 71.5747 74.7528 70.7377C74.7528 69.9441 74.9267 69.2103 75.2746 68.5363C75.6333 67.8515 76.1279 67.308 76.7584 66.9057C77.3889 66.5035 78.1064 66.3024 78.9108 66.3024C79.7479 66.3024 80.4708 66.4872 81.0795 66.8568C81.6992 67.2264 82.1666 67.7319 82.4819 68.3733C82.808 69.0147 82.971 69.7376 82.971 70.542C82.971 70.6942 82.9547 70.8844 82.9221 71.1127H76.5465C76.6117 71.8845 76.8835 72.4824 77.3618 72.9064C77.8509 73.3195 78.4162 73.526 79.0576 73.526C79.5685 73.526 80.0088 73.4119 80.3784 73.1836C80.7589 72.9444 81.0632 72.6237 81.2915 72.2215L82.808 72.939C82.4166 73.6238 81.9057 74.1619 81.2752 74.5533C80.6447 74.9446 79.8892 75.1403 79.0087 75.1403ZM81.1448 69.743C81.123 69.4495 81.0306 69.1614 80.8676 68.8788C80.7045 68.5853 80.4545 68.3407 80.1175 68.145C79.7914 67.9493 79.3892 67.8515 78.9108 67.8515C78.3347 67.8515 77.8455 68.0254 77.4433 68.3733C77.052 68.7103 76.7802 69.1668 76.628 69.743H81.1448ZM88.7197 63.2043H92.4538C93.6604 63.2043 94.7149 63.4489 95.6171 63.938C96.5194 64.4272 97.2097 65.1175 97.688 66.0089C98.1772 66.8894 98.4218 67.9004 98.4218 69.0418C98.4218 70.1833 98.1772 71.1997 97.688 72.0911C97.2097 72.9716 96.5194 73.6564 95.6171 74.1456C94.7149 74.6348 93.6604 74.8794 92.4538 74.8794H88.7197V63.2043ZM92.4212 73.1346C93.7256 73.1346 94.742 72.7759 95.4704 72.0585C96.2096 71.3301 96.5792 70.3246 96.5792 69.0418C96.5792 67.77 96.2096 66.7699 95.4704 66.0415C94.742 65.3132 93.7256 64.949 92.4212 64.949H90.546V73.1346H92.4212ZM103.77 75.1403C102.955 75.1403 102.221 74.9501 101.569 74.5696C100.928 74.1891 100.422 73.6673 100.052 73.0042C99.6938 72.3302 99.5144 71.5747 99.5144 70.7377C99.5144 69.9441 99.6883 69.2103 100.036 68.5363C100.395 67.8515 100.89 67.308 101.52 66.9057C102.151 66.5035 102.868 66.3024 103.672 66.3024C104.509 66.3024 105.232 66.4872 105.841 66.8568C106.461 67.2264 106.928 67.7319 107.243 68.3733C107.57 69.0147 107.733 69.7376 107.733 70.542C107.733 70.6942 107.716 70.8844 107.684 71.1127H101.308C101.373 71.8845 101.645 72.4824 102.123 72.9064C102.613 73.3195 103.178 73.526 103.819 73.526C104.33 73.526 104.77 73.4119 105.14 73.1836C105.52 72.9444 105.825 72.6237 106.053 72.2215L107.57 72.939C107.178 73.6238 106.667 74.1619 106.037 74.5533C105.406 74.9446 104.651 75.1403 103.77 75.1403ZM105.906 69.743C105.885 69.4495 105.792 69.1614 105.629 68.8788C105.466 68.5853 105.216 68.3407 104.879 68.145C104.553 67.9493 104.151 67.8515 103.672 67.8515C103.096 67.8515 102.607 68.0254 102.205 68.3733C101.814 68.7103 101.542 69.1668 101.39 69.743H105.906ZM108.277 66.5633H110.283L112.582 72.5639H112.647L114.995 66.5633H116.952L113.495 74.8794H111.702L108.277 66.5633ZM121.669 75.1403C120.853 75.1403 120.12 74.9501 119.467 74.5696C118.826 74.1891 118.321 73.6673 117.951 73.0042C117.592 72.3302 117.413 71.5747 117.413 70.7377C117.413 69.9441 117.587 69.2103 117.935 68.5363C118.293 67.8515 118.788 67.308 119.418 66.9057C120.049 66.5035 120.766 66.3024 121.571 66.3024C122.408 66.3024 123.131 66.4872 123.74 66.8568C124.359 67.2264 124.827 67.7319 125.142 68.3733C125.468 69.0147 125.631 69.7376 125.631 70.542C125.631 70.6942 125.615 70.8844 125.582 71.1127H119.206C119.272 71.8845 119.543 72.4824 120.022 72.9064C120.511 73.3195 121.076 73.526 121.718 73.526C122.229 73.526 122.669 73.4119 123.038 73.1836C123.419 72.9444 123.723 72.6237 123.952 72.2215L125.468 72.939C125.077 73.6238 124.566 74.1619 123.935 74.5533C123.305 74.9446 122.549 75.1403 121.669 75.1403ZM123.805 69.743C123.783 69.4495 123.691 69.1614 123.528 68.8788C123.365 68.5853 123.114 68.3407 122.777 68.145C122.451 67.9493 122.049 67.8515 121.571 67.8515C120.995 67.8515 120.506 68.0254 120.103 68.3733C119.712 68.7103 119.44 69.1668 119.288 69.743H123.805ZM127.264 63.2043H129.058V74.8794H127.264V63.2043ZM134.983 75.1403C134.146 75.1403 133.396 74.9501 132.733 74.5696C132.07 74.1782 131.554 73.6456 131.184 72.9716C130.814 72.2976 130.63 71.5475 130.63 70.7214C130.63 69.8952 130.814 69.1451 131.184 68.4711C131.554 67.7971 132.07 67.2699 132.733 66.8894C133.396 66.4981 134.146 66.3024 134.983 66.3024C135.82 66.3024 136.57 66.4981 137.234 66.8894C137.897 67.2808 138.413 67.8134 138.783 68.4874C139.152 69.1614 139.337 69.9061 139.337 70.7214C139.337 71.5475 139.152 72.2976 138.783 72.9716C138.413 73.6456 137.897 74.1782 137.234 74.5696C136.57 74.9501 135.82 75.1403 134.983 75.1403ZM134.983 73.4934C135.44 73.4934 135.864 73.3847 136.255 73.1673C136.647 72.939 136.956 72.6183 137.185 72.2052C137.424 71.7812 137.543 71.2866 137.543 70.7214C137.543 70.1561 137.424 69.6669 137.185 69.2538C136.956 68.8407 136.647 68.5255 136.255 68.3081C135.864 68.0798 135.44 67.9656 134.983 67.9656C134.527 67.9656 134.103 68.0798 133.711 68.3081C133.32 68.5255 133.005 68.8407 132.766 69.2538C132.537 69.6669 132.423 70.1561 132.423 70.7214C132.423 71.2866 132.537 71.7812 132.766 72.2052C133.005 72.6183 133.32 72.939 133.711 73.1673C134.103 73.3847 134.527 73.4934 134.983 73.4934ZM140.846 66.5633H142.558V67.6558H142.64C142.879 67.2753 143.232 66.9547 143.7 66.6938C144.167 66.4329 144.694 66.3024 145.281 66.3024C146.031 66.3024 146.711 66.4927 147.319 66.8731C147.928 67.2536 148.407 67.7808 148.754 68.4548C149.113 69.1179 149.293 69.8734 149.293 70.7214C149.293 71.5693 149.113 72.3302 148.754 73.0042C148.407 73.6673 147.928 74.1891 147.319 74.5696C146.711 74.9501 146.031 75.1403 145.281 75.1403C144.694 75.1403 144.167 75.0098 143.7 74.7489C143.232 74.488 142.879 74.1728 142.64 73.8032H142.558L142.64 74.9609V78.4015H140.846V66.5633ZM145.02 73.4934C145.455 73.4934 145.863 73.3792 146.243 73.151C146.624 72.9227 146.928 72.5966 147.156 72.1726C147.385 71.7486 147.499 71.2649 147.499 70.7214C147.499 70.1778 147.385 69.6995 147.156 69.2864C146.928 68.8625 146.624 68.5363 146.243 68.3081C145.863 68.0798 145.455 67.9656 145.02 67.9656C144.586 67.9656 144.178 68.0798 143.797 68.3081C143.428 68.5363 143.129 68.8625 142.901 69.2864C142.672 69.6995 142.558 70.1778 142.558 70.7214C142.558 71.2649 142.672 71.7486 142.901 72.1726C143.129 72.5966 143.428 72.9227 143.797 73.151C144.178 73.3792 144.586 73.4934 145.02 73.4934ZM154.727 75.1403C153.911 75.1403 153.178 74.9501 152.525 74.5696C151.884 74.1891 151.378 73.6673 151.009 73.0042C150.65 72.3302 150.471 71.5747 150.471 70.7377C150.471 69.9441 150.645 69.2103 150.993 68.5363C151.351 67.8515 151.846 67.308 152.476 66.9057C153.107 66.5035 153.824 66.3024 154.629 66.3024C155.466 66.3024 156.189 66.4872 156.797 66.8568C157.417 67.2264 157.885 67.7319 158.2 68.3733C158.526 69.0147 158.689 69.7376 158.689 70.542C158.689 70.6942 158.673 70.8844 158.64 71.1127H152.264C152.33 71.8845 152.601 72.4824 153.08 72.9064C153.569 73.3195 154.134 73.526 154.776 73.526C155.286 73.526 155.727 73.4119 156.096 73.1836C156.477 72.9444 156.781 72.6237 157.009 72.2215L158.526 72.939C158.135 73.6238 157.624 74.1619 156.993 74.5533C156.363 74.9446 155.607 75.1403 154.727 75.1403ZM156.863 69.743C156.841 69.4495 156.749 69.1614 156.586 68.8788C156.422 68.5853 156.172 68.3407 155.835 68.145C155.509 67.9493 155.107 67.8515 154.629 67.8515C154.053 67.8515 153.563 68.0254 153.161 68.3733C152.77 68.7103 152.498 69.1668 152.346 69.743H156.863ZM160.322 66.5633H162.035V67.7863H162.116C162.301 67.3623 162.622 67.0145 163.078 66.7427C163.535 66.46 164.018 66.3187 164.529 66.3187C164.932 66.3187 165.269 66.3731 165.54 66.4818V68.3407C165.062 68.1667 164.633 68.0798 164.252 68.0798C163.839 68.0798 163.469 68.1885 163.143 68.4059C162.828 68.6233 162.578 68.9168 162.393 69.2864C162.208 69.6452 162.116 70.0419 162.116 70.4768V74.8794H160.322V66.5633ZM173.912 75.1403C172.944 75.1403 172.075 74.8577 171.303 74.2924C170.531 73.7271 169.998 72.9335 169.705 71.9117L171.433 71.2105C171.607 71.8519 171.912 72.3791 172.346 72.7922C172.792 73.1944 173.325 73.3955 173.944 73.3955C174.521 73.3955 175.01 73.2488 175.412 72.9553C175.814 72.6509 176.015 72.2378 176.015 71.716C176.015 71.2377 175.836 70.8464 175.477 70.542C175.129 70.2267 174.515 69.9115 173.635 69.5962L172.901 69.3353C172.118 69.0636 171.46 68.6722 170.928 68.1613C170.395 67.6504 170.129 66.9764 170.129 66.1394C170.129 65.5632 170.286 65.0306 170.602 64.5414C170.917 64.0522 171.352 63.6663 171.906 63.3836C172.471 63.0901 173.107 62.9434 173.814 62.9434C174.836 62.9434 175.651 63.1934 176.26 63.6935C176.869 64.1826 177.276 64.737 177.483 65.3567L175.836 66.0578C175.716 65.6882 175.488 65.3621 175.151 65.0795C174.814 64.7968 174.379 64.6555 173.847 64.6555C173.314 64.6555 172.863 64.7914 172.493 65.0632C172.134 65.3349 171.955 65.6828 171.955 66.1067C171.955 66.509 172.118 66.8405 172.444 67.1014C172.77 67.3623 173.281 67.6123 173.977 67.8515L174.711 68.0961C175.711 68.4439 176.483 68.9005 177.026 69.4658C177.581 70.0202 177.858 70.7648 177.858 71.6997C177.858 72.4607 177.662 73.102 177.271 73.6238C176.88 74.1348 176.379 74.5152 175.771 74.7653C175.173 75.0153 174.553 75.1403 173.912 75.1403ZM182.648 75.0098C182.278 75.0098 181.93 74.9501 181.604 74.8305C181.278 74.7109 181.012 74.5533 180.805 74.3576C180.338 73.8902 180.104 73.2542 180.104 72.4498V68.145H178.653V66.5633H180.104V64.2153H181.898V66.5633H183.92V68.145H181.898V72.0585C181.898 72.5041 181.985 72.8194 182.159 73.0042C182.322 73.2216 182.604 73.3303 183.007 73.3303C183.191 73.3303 183.354 73.3086 183.496 73.2651C183.637 73.2107 183.789 73.1292 183.952 73.0205V74.7653C183.594 74.9283 183.159 75.0098 182.648 75.0098ZM188.658 75.1403C187.647 75.1403 186.876 74.8413 186.343 74.2435C185.821 73.6347 185.56 72.7922 185.56 71.716V66.5633H187.354V71.4714C187.354 72.1454 187.511 72.6509 187.827 72.9879C188.153 73.3249 188.577 73.4934 189.099 73.4934C189.523 73.4934 189.898 73.3847 190.224 73.1673C190.55 72.939 190.8 72.64 190.974 72.2704C191.148 71.9008 191.235 71.504 191.235 71.0801V66.5633H193.028V74.8794H191.333V73.8032H191.235C191.006 74.1945 190.653 74.5152 190.175 74.7653C189.696 75.0153 189.191 75.1403 188.658 75.1403ZM198.591 75.1403C197.841 75.1403 197.162 74.9501 196.553 74.5696C195.944 74.1891 195.46 73.6673 195.102 73.0042C194.754 72.3302 194.58 71.5693 194.58 70.7214C194.58 69.8734 194.754 69.1179 195.102 68.4548C195.46 67.7808 195.944 67.2536 196.553 66.8731C197.162 66.4927 197.841 66.3024 198.591 66.3024C199.178 66.3024 199.705 66.4329 200.173 66.6938C200.64 66.9547 200.994 67.2753 201.233 67.6558H201.314L201.233 66.4818V63.2043H203.026V74.8794H201.314V73.8032H201.233C200.994 74.1728 200.64 74.488 200.173 74.7489C199.705 75.0098 199.178 75.1403 198.591 75.1403ZM198.852 73.4934C199.287 73.4934 199.689 73.3792 200.059 73.151C200.439 72.9227 200.744 72.5966 200.972 72.1726C201.2 71.7486 201.314 71.2649 201.314 70.7214C201.314 70.1778 201.2 69.6995 200.972 69.2864C200.744 68.8625 200.439 68.5363 200.059 68.3081C199.689 68.0798 199.287 67.9656 198.852 67.9656C198.417 67.9656 198.01 68.0798 197.629 68.3081C197.249 68.5363 196.944 68.8625 196.716 69.2864C196.488 69.6995 196.374 70.1778 196.374 70.7214C196.374 71.2649 196.488 71.7486 196.716 72.1726C196.944 72.5966 197.249 72.9227 197.629 73.151C198.01 73.3792 198.417 73.4934 198.852 73.4934ZM208.836 75.1403C208.021 75.1403 207.287 74.9501 206.635 74.5696C205.993 74.1891 205.488 73.6673 205.118 73.0042C204.759 72.3302 204.58 71.5747 204.58 70.7377C204.58 69.9441 204.754 69.2103 205.102 68.5363C205.461 67.8515 205.955 67.308 206.586 66.9057C207.216 66.5035 207.934 66.3024 208.738 66.3024C209.575 66.3024 210.298 66.4872 210.907 66.8568C211.526 67.2264 211.994 67.7319 212.309 68.3733C212.635 69.0147 212.798 69.7376 212.798 70.542C212.798 70.6942 212.782 70.8844 212.749 71.1127H206.374C206.439 71.8845 206.711 72.4824 207.189 72.9064C207.678 73.3195 208.243 73.526 208.885 73.526C209.396 73.526 209.836 73.4119 210.206 73.1836C210.586 72.9444 210.89 72.6237 211.119 72.2215L212.635 72.939C212.244 73.6238 211.733 74.1619 211.102 74.5533C210.472 74.9446 209.716 75.1403 208.836 75.1403ZM210.972 69.743C210.95 69.4495 210.858 69.1614 210.695 68.8788C210.532 68.5853 210.282 68.3407 209.945 68.145C209.619 67.9493 209.216 67.8515 208.738 67.8515C208.162 67.8515 207.673 68.0254 207.271 68.3733C206.879 68.7103 206.607 69.1668 206.455 69.743H210.972ZM214.432 66.5633H216.144V67.6558H216.225C216.464 67.2645 216.818 66.9438 217.285 66.6938C217.764 66.4329 218.269 66.3024 218.802 66.3024C219.813 66.3024 220.579 66.6014 221.101 67.1993C221.633 67.7863 221.9 68.5907 221.9 69.6125V74.8794H220.106V69.8571C220.106 69.2049 219.943 68.7266 219.617 68.4222C219.302 68.1178 218.861 67.9656 218.296 67.9656C217.894 67.9656 217.535 68.0798 217.22 68.3081C216.905 68.5255 216.66 68.819 216.486 69.1886C216.312 69.5582 216.225 69.955 216.225 70.3789V74.8794H214.432V66.5633ZM226.916 75.0098C226.547 75.0098 226.199 74.9501 225.873 74.8305C225.547 74.7109 225.28 74.5533 225.074 74.3576C224.606 73.8902 224.372 73.2542 224.372 72.4498V68.145H222.921V66.5633H224.372V64.2153H226.166V66.5633H228.188V68.145H226.166V72.0585C226.166 72.5041 226.253 72.8194 226.427 73.0042C226.59 73.2216 226.873 73.3303 227.275 73.3303C227.46 73.3303 227.623 73.3086 227.764 73.2651C227.905 73.2107 228.058 73.1292 228.221 73.0205V74.7653C227.862 74.9283 227.427 75.0098 226.916 75.0098ZM239.202 75.1403C238.071 75.1403 237.039 74.874 236.104 74.3413C235.169 73.8086 234.435 73.0749 233.902 72.14C233.37 71.2051 233.103 70.1724 233.103 69.0418C233.103 67.9113 233.37 66.8786 233.902 65.9437C234.435 65.0088 235.169 64.275 236.104 63.7424C237.039 63.2097 238.071 62.9434 239.202 62.9434C240.082 62.9434 240.881 63.1064 241.599 63.4326C242.327 63.7587 242.969 64.2316 243.523 64.8512L242.219 66.1067C241.816 65.6284 241.371 65.2751 240.881 65.0469C240.392 64.8077 239.832 64.6881 239.202 64.6881C238.419 64.6881 237.702 64.8675 237.05 65.2262C236.408 65.585 235.897 66.0959 235.517 66.759C235.136 67.4112 234.946 68.1722 234.946 69.0418C234.946 69.9115 235.136 70.6779 235.517 71.341C235.897 71.9932 236.408 72.4987 237.05 72.8574C237.702 73.2162 238.419 73.3955 239.202 73.3955C240.506 73.3955 241.615 72.852 242.528 71.7649L243.849 73.0368C243.284 73.6999 242.604 74.2163 241.811 74.5859C241.017 74.9555 240.148 75.1403 239.202 75.1403ZM245.435 63.2043H247.229V74.8794H245.435V63.2043ZM252.37 75.1403C251.359 75.1403 250.587 74.8413 250.054 74.2435C249.532 73.6347 249.272 72.7922 249.272 71.716V66.5633H251.065V71.4714C251.065 72.1454 251.223 72.6509 251.538 72.9879C251.864 73.3249 252.288 73.4934 252.81 73.4934C253.234 73.4934 253.609 73.3847 253.935 73.1673C254.261 72.939 254.511 72.64 254.685 72.2704C254.859 71.9008 254.946 71.504 254.946 71.0801V66.5633H256.74V74.8794H255.044V73.8032H254.946C254.718 74.1945 254.364 74.5152 253.886 74.7653C253.408 75.0153 252.902 75.1403 252.37 75.1403ZM263.263 75.1403C262.676 75.1403 262.148 75.0098 261.681 74.7489C261.213 74.488 260.86 74.1728 260.621 73.8032H260.54V74.8794H258.827V63.2043H260.621V66.4818L260.54 67.6558H260.621C260.86 67.2753 261.213 66.9547 261.681 66.6938C262.148 66.4329 262.676 66.3024 263.263 66.3024C264.013 66.3024 264.692 66.4927 265.301 66.8731C265.91 67.2536 266.388 67.7808 266.736 68.4548C267.095 69.1179 267.274 69.8734 267.274 70.7214C267.274 71.5693 267.095 72.3302 266.736 73.0042C266.388 73.6673 265.91 74.1891 265.301 74.5696C264.692 74.9501 264.013 75.1403 263.263 75.1403ZM263.002 73.4934C263.437 73.4934 263.844 73.3792 264.225 73.151C264.605 72.9227 264.91 72.5966 265.138 72.1726C265.366 71.7486 265.48 71.2649 265.48 70.7214C265.48 70.1778 265.366 69.6995 265.138 69.2864C264.91 68.8625 264.605 68.5363 264.225 68.3081C263.844 68.0798 263.437 67.9656 263.002 67.9656C262.567 67.9656 262.159 68.0798 261.779 68.3081C261.409 68.5363 261.11 68.8625 260.882 69.2864C260.654 69.6995 260.54 70.1778 260.54 70.7214C260.54 71.2649 260.654 71.7486 260.882 72.1726C261.11 72.5966 261.409 72.9227 261.779 73.151C262.159 73.3792 262.567 73.4934 263.002 73.4934ZM271.86 75.1403C270.904 75.1403 270.121 74.9337 269.512 74.5207C268.904 74.0967 268.474 73.5586 268.224 72.9064L269.822 72.2052C270.018 72.64 270.29 72.9716 270.638 73.1999C270.996 73.4282 271.404 73.5423 271.86 73.5423C272.306 73.5423 272.681 73.4662 272.986 73.314C273.29 73.151 273.442 72.9118 273.442 72.5966C273.442 72.2922 273.312 72.053 273.051 71.8791C272.79 71.7052 272.388 71.553 271.844 71.4225L270.849 71.1779C270.186 71.0149 269.637 70.7268 269.203 70.3137C268.768 69.9006 268.55 69.3788 268.55 68.7483C268.55 68.2591 268.692 67.8298 268.974 67.4602C269.268 67.0905 269.659 66.8079 270.148 66.6122C270.638 66.4057 271.17 66.3024 271.746 66.3024C272.518 66.3024 273.198 66.46 273.785 66.7753C274.372 67.0797 274.796 67.5254 275.056 68.1124L273.491 68.7972C273.176 68.1559 272.6 67.8352 271.763 67.8352C271.36 67.8352 271.023 67.9167 270.752 68.0798C270.48 68.2428 270.344 68.4548 270.344 68.7157C270.344 68.9657 270.447 69.1723 270.654 69.3353C270.86 69.4875 271.165 69.618 271.567 69.7267L272.79 70.0365C273.605 70.243 274.219 70.5583 274.632 70.9823C275.056 71.3953 275.268 71.9063 275.268 72.515C275.268 73.0368 275.116 73.4988 274.812 73.901C274.518 74.2924 274.111 74.5968 273.589 74.8142C273.067 75.0316 272.491 75.1403 271.86 75.1403Z" fill="white"/>
<rect width="23.3115" height="7.81905" rx="3.90953" transform="matrix(-0.866025 0.5 0.5 0.866025 174.504 27.7881)" fill="#FBBC04"/>
<rect width="23.3115" height="7.81905" rx="3.90953" transform="matrix(0.866025 -0.5 -0.5 -0.866025 131.371 38.4272)" fill="#EA4335"/>
<rect x="131.041" y="27.7871" width="23.3115" height="7.81905" rx="3.90953" transform="rotate(30 131.041 27.7871)" fill="#4285F4"/>
<rect x="174.504" y="38.4272" width="23.3115" height="7.81905" rx="3.64648" transform="rotate(-150 174.504 38.4272)" fill="#0F9D58"/>
<path d="M37.8086 92.6384L34.9046 88.0184H36.0926L38.2886 91.6184H38.3366L40.4966 88.0184H41.6846L38.8286 92.6384V96.6104H37.8086V92.6384ZM44.146 96.8024C43.562 96.8024 43.038 96.6624 42.574 96.3824C42.11 96.1024 41.746 95.7184 41.482 95.2304C41.226 94.7344 41.098 94.1784 41.098 93.5624C41.098 92.9704 41.218 92.4264 41.458 91.9304C41.706 91.4344 42.054 91.0384 42.502 90.7424C42.95 90.4464 43.47 90.2984 44.062 90.2984C44.662 90.2984 45.182 90.4344 45.622 90.7064C46.062 90.9704 46.398 91.3384 46.63 91.8104C46.87 92.2824 46.99 92.8224 46.99 93.4304C46.99 93.5504 46.978 93.6544 46.954 93.7424H42.118C42.142 94.2064 42.254 94.5984 42.454 94.9184C42.654 95.2384 42.906 95.4784 43.21 95.6384C43.522 95.7984 43.846 95.8784 44.182 95.8784C44.966 95.8784 45.57 95.5104 45.994 94.7744L46.858 95.1944C46.594 95.6904 46.234 96.0824 45.778 96.3704C45.33 96.6584 44.786 96.8024 44.146 96.8024ZM45.91 92.9024C45.894 92.6464 45.822 92.3904 45.694 92.1344C45.566 91.8784 45.362 91.6624 45.082 91.4864C44.81 91.3104 44.466 91.2224 44.05 91.2224C43.57 91.2224 43.162 91.3784 42.826 91.6904C42.498 91.9944 42.282 92.3984 42.178 92.9024H45.91ZM50.3783 96.8024C49.7223 96.8024 49.1743 96.6504 48.7343 96.3464C48.2943 96.0344 47.9823 95.6384 47.7983 95.1584L48.7103 94.7504C48.8623 95.1184 49.0863 95.4024 49.3823 95.6024C49.6863 95.8024 50.0183 95.9024 50.3783 95.9024C50.7623 95.9024 51.0903 95.8264 51.3623 95.6744C51.6343 95.5144 51.7703 95.2904 51.7703 95.0024C51.7703 94.7464 51.6623 94.5424 51.4463 94.3904C51.2303 94.2304 50.8903 94.0944 50.4263 93.9824L49.6823 93.7904C49.1943 93.6704 48.7943 93.4664 48.4823 93.1784C48.1703 92.8904 48.0143 92.5184 48.0143 92.0624C48.0143 91.7104 48.1183 91.4024 48.3263 91.1384C48.5423 90.8664 48.8263 90.6584 49.1783 90.5144C49.5303 90.3704 49.9103 90.2984 50.3183 90.2984C50.8543 90.2984 51.3303 90.4144 51.7463 90.6464C52.1703 90.8784 52.4703 91.2024 52.6463 91.6184L51.7583 92.0264C51.4863 91.4824 51.0023 91.2104 50.3063 91.2104C49.9703 91.2104 49.6743 91.2904 49.4183 91.4504C49.1703 91.6024 49.0463 91.7984 49.0463 92.0384C49.0463 92.2624 49.1343 92.4464 49.3103 92.5904C49.4863 92.7264 49.7503 92.8384 50.1023 92.9264L50.9903 93.1544C51.5903 93.3064 52.0423 93.5344 52.3463 93.8384C52.6503 94.1344 52.8023 94.4984 52.8023 94.9304C52.8023 95.3064 52.6943 95.6384 52.4783 95.9264C52.2623 96.2064 51.9703 96.4224 51.6023 96.5744C51.2343 96.7264 50.8263 96.8024 50.3783 96.8024ZM53.9142 88.0184H54.9342V90.5504L54.8862 91.3904H54.9342C55.1022 91.0784 55.3662 90.8184 55.7262 90.6104C56.0942 90.4024 56.4942 90.2984 56.9262 90.2984C57.6702 90.2984 58.2382 90.5184 58.6302 90.9584C59.0222 91.3904 59.2182 91.9664 59.2182 92.6864V96.6104H58.1982V92.8424C58.1982 92.2904 58.0582 91.8824 57.7782 91.6184C57.4982 91.3544 57.1342 91.2224 56.6862 91.2224C56.3662 91.2224 56.0702 91.3184 55.7982 91.5104C55.5342 91.7024 55.3222 91.9504 55.1622 92.2544C55.0102 92.5584 54.9342 92.8744 54.9342 93.2024V96.6104H53.9142V88.0184ZM59.8985 90.4904H60.9425L62.4065 95.3264H62.4185L63.9545 90.4904H65.0105L66.5585 95.3144H66.5705L68.0225 90.4904H69.0545L67.0745 96.6104H66.0425L64.4585 91.7264L62.8865 96.6104H61.8665L59.8985 90.4904ZM71.7374 96.8024C71.2894 96.8024 70.8894 96.7144 70.5374 96.5384C70.1854 96.3624 69.9134 96.1224 69.7214 95.8184C69.5294 95.5064 69.4334 95.1544 69.4334 94.7624C69.4334 94.1144 69.6774 93.6104 70.1654 93.2504C70.6534 92.8824 71.2694 92.6984 72.0134 92.6984C72.3814 92.6984 72.7214 92.7384 73.0334 92.8184C73.3534 92.8984 73.5974 92.9904 73.7654 93.0944V92.7224C73.7654 92.2664 73.6054 91.9024 73.2854 91.6304C72.9654 91.3504 72.5614 91.2104 72.0734 91.2104C71.7294 91.2104 71.4134 91.2864 71.1254 91.4384C70.8374 91.5824 70.6094 91.7864 70.4414 92.0504L69.6734 91.4744C69.9134 91.1064 70.2414 90.8184 70.6574 90.6104C71.0814 90.4024 71.5494 90.2984 72.0614 90.2984C72.8934 90.2984 73.5454 90.5184 74.0174 90.9584C74.4974 91.3904 74.7374 91.9824 74.7374 92.7344V96.6104H73.7654V95.7344H73.7174C73.5414 96.0304 73.2774 96.2824 72.9254 96.4904C72.5734 96.6984 72.1774 96.8024 71.7374 96.8024ZM71.8334 95.9024C72.1774 95.9024 72.4974 95.8144 72.7934 95.6384C73.0894 95.4624 73.3254 95.2264 73.5014 94.9304C73.6774 94.6344 73.7654 94.3104 73.7654 93.9584C73.5734 93.8304 73.3374 93.7264 73.0574 93.6464C72.7774 93.5664 72.4814 93.5264 72.1694 93.5264C71.6094 93.5264 71.1854 93.6424 70.8974 93.8744C70.6174 94.1064 70.4774 94.4064 70.4774 94.7744C70.4774 95.1104 70.6054 95.3824 70.8614 95.5904C71.1174 95.7984 71.4414 95.9024 71.8334 95.9024ZM76.1564 90.4904H77.1284V91.3904H77.1764C77.3444 91.0864 77.6124 90.8304 77.9804 90.6224C78.3484 90.4064 78.7404 90.2984 79.1564 90.2984C79.8924 90.2984 80.4524 90.5144 80.8364 90.9464C81.2284 91.3704 81.4244 91.9504 81.4244 92.6864V96.6104H80.4044V92.8424C80.4044 92.2744 80.2684 91.8624 79.9964 91.6064C79.7244 91.3504 79.3524 91.2224 78.8804 91.2224C78.5524 91.2224 78.2564 91.3144 77.9924 91.4984C77.7364 91.6824 77.5364 91.9264 77.3924 92.2304C77.2484 92.5264 77.1764 92.8384 77.1764 93.1664V96.6104H76.1564V90.4904ZM84.9303 96.7064C84.6823 96.7064 84.4503 96.6664 84.2343 96.5864C84.0263 96.5064 83.8503 96.3984 83.7063 96.2624C83.5463 96.1104 83.4263 95.9344 83.3463 95.7344C83.2663 95.5344 83.2263 95.2904 83.2263 95.0024V91.4144H82.1583V90.4904H83.2263V88.7624H84.2463V90.4904H85.7343V91.4144H84.2463V94.7504C84.2463 95.0864 84.3103 95.3344 84.4383 95.4944C84.5903 95.6704 84.8103 95.7584 85.0983 95.7584C85.3303 95.7584 85.5543 95.6904 85.7703 95.5544V96.5504C85.6503 96.6064 85.5263 96.6464 85.3983 96.6704C85.2783 96.6944 85.1223 96.7064 84.9303 96.7064ZM86.9728 90.4904H87.9448V91.4744H87.9928C88.1128 91.1384 88.3448 90.8624 88.6888 90.6464C89.0328 90.4224 89.3928 90.3104 89.7688 90.3104C90.0488 90.3104 90.2888 90.3504 90.4888 90.4304V91.5344C90.2328 91.4064 89.9448 91.3424 89.6248 91.3424C89.3288 91.3424 89.0568 91.4264 88.8088 91.5944C88.5608 91.7624 88.3608 91.9904 88.2088 92.2784C88.0648 92.5584 87.9928 92.8624 87.9928 93.1904V96.6104H86.9728V90.4904ZM93.1944 96.8024C92.7464 96.8024 92.3464 96.7144 91.9944 96.5384C91.6424 96.3624 91.3704 96.1224 91.1784 95.8184C90.9864 95.5064 90.8904 95.1544 90.8904 94.7624C90.8904 94.1144 91.1344 93.6104 91.6224 93.2504C92.1104 92.8824 92.7264 92.6984 93.4704 92.6984C93.8384 92.6984 94.1784 92.7384 94.4904 92.8184C94.8104 92.8984 95.0544 92.9904 95.2224 93.0944V92.7224C95.2224 92.2664 95.0624 91.9024 94.7424 91.6304C94.4224 91.3504 94.0184 91.2104 93.5304 91.2104C93.1864 91.2104 92.8704 91.2864 92.5824 91.4384C92.2944 91.5824 92.0664 91.7864 91.8984 92.0504L91.1304 91.4744C91.3704 91.1064 91.6984 90.8184 92.1144 90.6104C92.5384 90.4024 93.0064 90.2984 93.5184 90.2984C94.3504 90.2984 95.0024 90.5184 95.4744 90.9584C95.9544 91.3904 96.1944 91.9824 96.1944 92.7344V96.6104H95.2224V95.7344H95.1744C94.9984 96.0304 94.7344 96.2824 94.3824 96.4904C94.0304 96.6984 93.6344 96.8024 93.1944 96.8024ZM93.2904 95.9024C93.6344 95.9024 93.9544 95.8144 94.2504 95.6384C94.5464 95.4624 94.7824 95.2264 94.9584 94.9304C95.1344 94.6344 95.2224 94.3104 95.2224 93.9584C95.0304 93.8304 94.7944 93.7264 94.5144 93.6464C94.2344 93.5664 93.9384 93.5264 93.6264 93.5264C93.0664 93.5264 92.6424 93.6424 92.3544 93.8744C92.0744 94.1064 91.9344 94.4064 91.9344 94.7744C91.9344 95.1104 92.0624 95.3824 92.3184 95.5904C92.5744 95.7984 92.8984 95.9024 93.2904 95.9024ZM100.375 96.8024C99.7748 96.8024 99.2348 96.6584 98.7548 96.3704C98.2748 96.0824 97.8988 95.6904 97.6268 95.1944C97.3628 94.6984 97.2308 94.1504 97.2308 93.5504C97.2308 92.9504 97.3628 92.4024 97.6268 91.9064C97.8988 91.4104 98.2748 91.0184 98.7548 90.7304C99.2348 90.4424 99.7748 90.2984 100.375 90.2984C100.975 90.2984 101.515 90.4424 101.995 90.7304C102.475 91.0184 102.847 91.4104 103.111 91.9064C103.383 92.4024 103.519 92.9504 103.519 93.5504C103.519 94.1504 103.383 94.6984 103.111 95.1944C102.847 95.6904 102.475 96.0824 101.995 96.3704C101.515 96.6584 100.975 96.8024 100.375 96.8024ZM100.375 95.8784C100.751 95.8784 101.099 95.7864 101.419 95.6024C101.747 95.4104 102.007 95.1384 102.199 94.7864C102.399 94.4344 102.499 94.0224 102.499 93.5504C102.499 93.0784 102.399 92.6664 102.199 92.3144C102.007 91.9624 101.747 91.6944 101.419 91.5104C101.099 91.3184 100.751 91.2224 100.375 91.2224C99.9988 91.2224 99.6468 91.3184 99.3188 91.5104C98.9908 91.6944 98.7268 91.9624 98.5268 92.3144C98.3348 92.6664 98.2388 93.0784 98.2388 93.5504C98.2388 94.0224 98.3348 94.4344 98.5268 94.7864C98.7268 95.1384 98.9908 95.4104 99.3188 95.6024C99.6468 95.7864 99.9988 95.8784 100.375 95.8784ZM111.494 96.8024C110.662 96.8024 109.906 96.6064 109.226 96.2144C108.546 95.8224 108.01 95.2864 107.618 94.6064C107.234 93.9184 107.042 93.1544 107.042 92.3144C107.042 91.4744 107.234 90.7144 107.618 90.0344C108.01 89.3464 108.546 88.8064 109.226 88.4144C109.906 88.0224 110.662 87.8264 111.494 87.8264C112.134 87.8264 112.718 87.9504 113.246 88.1984C113.782 88.4384 114.246 88.7824 114.638 89.2304L113.906 89.9384C113.578 89.5464 113.218 89.2584 112.826 89.0744C112.442 88.8904 111.998 88.7984 111.494 88.7984C110.87 88.7984 110.298 88.9464 109.778 89.2424C109.258 89.5304 108.842 89.9424 108.53 90.4784C108.226 91.0064 108.074 91.6184 108.074 92.3144C108.074 93.0104 108.226 93.6264 108.53 94.1624C108.842 94.6904 109.258 95.1024 109.778 95.3984C110.298 95.6864 110.87 95.8304 111.494 95.8304C112.534 95.8304 113.418 95.4024 114.146 94.5464L114.89 95.2664C114.49 95.7384 113.998 96.1144 113.414 96.3944C112.83 96.6664 112.19 96.8024 111.494 96.8024ZM116.035 88.0184H117.055V90.5504L117.007 91.3904H117.055C117.223 91.0784 117.487 90.8184 117.847 90.6104C118.215 90.4024 118.615 90.2984 119.047 90.2984C119.791 90.2984 120.359 90.5184 120.751 90.9584C121.143 91.3904 121.339 91.9664 121.339 92.6864V96.6104H120.319V92.8424C120.319 92.2904 120.179 91.8824 119.899 91.6184C119.619 91.3544 119.255 91.2224 118.807 91.2224C118.487 91.2224 118.191 91.3184 117.919 91.5104C117.655 91.7024 117.443 91.9504 117.283 92.2544C117.131 92.5584 117.055 92.8744 117.055 93.2024V96.6104H116.035V88.0184ZM124.706 96.8024C124.258 96.8024 123.858 96.7144 123.506 96.5384C123.154 96.3624 122.882 96.1224 122.69 95.8184C122.498 95.5064 122.402 95.1544 122.402 94.7624C122.402 94.1144 122.646 93.6104 123.134 93.2504C123.622 92.8824 124.238 92.6984 124.982 92.6984C125.35 92.6984 125.69 92.7384 126.002 92.8184C126.322 92.8984 126.566 92.9904 126.734 93.0944V92.7224C126.734 92.2664 126.574 91.9024 126.254 91.6304C125.934 91.3504 125.53 91.2104 125.042 91.2104C124.698 91.2104 124.382 91.2864 124.094 91.4384C123.806 91.5824 123.578 91.7864 123.41 92.0504L122.642 91.4744C122.882 91.1064 123.21 90.8184 123.626 90.6104C124.05 90.4024 124.518 90.2984 125.03 90.2984C125.862 90.2984 126.514 90.5184 126.986 90.9584C127.466 91.3904 127.706 91.9824 127.706 92.7344V96.6104H126.734V95.7344H126.686C126.51 96.0304 126.246 96.2824 125.894 96.4904C125.542 96.6984 125.146 96.8024 124.706 96.8024ZM124.802 95.9024C125.146 95.9024 125.466 95.8144 125.762 95.6384C126.058 95.4624 126.294 95.2264 126.47 94.9304C126.646 94.6344 126.734 94.3104 126.734 93.9584C126.542 93.8304 126.306 93.7264 126.026 93.6464C125.746 93.5664 125.45 93.5264 125.138 93.5264C124.578 93.5264 124.154 93.6424 123.866 93.8744C123.586 94.1064 123.446 94.4064 123.446 94.7744C123.446 95.1104 123.574 95.3824 123.83 95.5904C124.086 95.7984 124.41 95.9024 124.802 95.9024ZM128.336 90.4904H129.428L131.324 95.4104H131.348L133.268 90.4904H134.336L131.84 96.6104H130.808L128.336 90.4904ZM137.011 96.8024C136.563 96.8024 136.163 96.7144 135.811 96.5384C135.459 96.3624 135.187 96.1224 134.995 95.8184C134.803 95.5064 134.707 95.1544 134.707 94.7624C134.707 94.1144 134.951 93.6104 135.439 93.2504C135.927 92.8824 136.543 92.6984 137.287 92.6984C137.655 92.6984 137.995 92.7384 138.307 92.8184C138.627 92.8984 138.871 92.9904 139.039 93.0944V92.7224C139.039 92.2664 138.879 91.9024 138.559 91.6304C138.239 91.3504 137.835 91.2104 137.347 91.2104C137.003 91.2104 136.687 91.2864 136.399 91.4384C136.111 91.5824 135.883 91.7864 135.715 92.0504L134.947 91.4744C135.187 91.1064 135.515 90.8184 135.931 90.6104C136.355 90.4024 136.823 90.2984 137.335 90.2984C138.167 90.2984 138.819 90.5184 139.291 90.9584C139.771 91.3904 140.011 91.9824 140.011 92.7344V96.6104H139.039V95.7344H138.991C138.815 96.0304 138.551 96.2824 138.199 96.4904C137.847 96.6984 137.451 96.8024 137.011 96.8024ZM137.107 95.9024C137.451 95.9024 137.771 95.8144 138.067 95.6384C138.363 95.4624 138.599 95.2264 138.775 94.9304C138.951 94.6344 139.039 94.3104 139.039 93.9584C138.847 93.8304 138.611 93.7264 138.331 93.6464C138.051 93.5664 137.755 93.5264 137.443 93.5264C136.883 93.5264 136.459 93.6424 136.171 93.8744C135.891 94.1064 135.751 94.4064 135.751 94.7744C135.751 95.1104 135.879 95.3824 136.135 95.5904C136.391 95.7984 136.715 95.9024 137.107 95.9024ZM141.43 90.4904H142.402V91.3904H142.45C142.618 91.0864 142.886 90.8304 143.254 90.6224C143.622 90.4064 144.014 90.2984 144.43 90.2984C145.166 90.2984 145.726 90.5144 146.11 90.9464C146.502 91.3704 146.698 91.9504 146.698 92.6864V96.6104H145.678V92.8424C145.678 92.2744 145.542 91.8624 145.27 91.6064C144.998 91.3504 144.626 91.2224 144.154 91.2224C143.826 91.2224 143.53 91.3144 143.266 91.4984C143.01 91.6824 142.81 91.9264 142.666 92.2304C142.522 92.5264 142.45 92.8384 142.45 93.1664V96.6104H141.43V90.4904ZM154.947 96.8024C154.115 96.8024 153.359 96.6064 152.679 96.2144C151.999 95.8224 151.463 95.2864 151.071 94.6064C150.687 93.9184 150.495 93.1544 150.495 92.3144C150.495 91.4744 150.687 90.7144 151.071 90.0344C151.463 89.3464 151.999 88.8064 152.679 88.4144C153.359 88.0224 154.115 87.8264 154.947 87.8264C155.587 87.8264 156.171 87.9504 156.699 88.1984C157.235 88.4384 157.699 88.7824 158.091 89.2304L157.359 89.9384C157.031 89.5464 156.671 89.2584 156.279 89.0744C155.895 88.8904 155.451 88.7984 154.947 88.7984C154.323 88.7984 153.751 88.9464 153.231 89.2424C152.711 89.5304 152.295 89.9424 151.983 90.4784C151.679 91.0064 151.527 91.6184 151.527 92.3144C151.527 93.0104 151.679 93.6264 151.983 94.1624C152.295 94.6904 152.711 95.1024 153.231 95.3984C153.751 95.6864 154.323 95.8304 154.947 95.8304C155.987 95.8304 156.871 95.4024 157.599 94.5464L158.343 95.2664C157.943 95.7384 157.451 96.1144 156.867 96.3944C156.283 96.6664 155.643 96.8024 154.947 96.8024ZM162.191 96.8024C161.591 96.8024 161.051 96.6584 160.571 96.3704C160.091 96.0824 159.715 95.6904 159.443 95.1944C159.179 94.6984 159.047 94.1504 159.047 93.5504C159.047 92.9504 159.179 92.4024 159.443 91.9064C159.715 91.4104 160.091 91.0184 160.571 90.7304C161.051 90.4424 161.591 90.2984 162.191 90.2984C162.791 90.2984 163.331 90.4424 163.811 90.7304C164.291 91.0184 164.663 91.4104 164.927 91.9064C165.199 92.4024 165.335 92.9504 165.335 93.5504C165.335 94.1504 165.199 94.6984 164.927 95.1944C164.663 95.6904 164.291 96.0824 163.811 96.3704C163.331 96.6584 162.791 96.8024 162.191 96.8024ZM162.191 95.8784C162.567 95.8784 162.915 95.7864 163.235 95.6024C163.563 95.4104 163.823 95.1384 164.015 94.7864C164.215 94.4344 164.315 94.0224 164.315 93.5504C164.315 93.0784 164.215 92.6664 164.015 92.3144C163.823 91.9624 163.563 91.6944 163.235 91.5104C162.915 91.3184 162.567 91.2224 162.191 91.2224C161.815 91.2224 161.463 91.3184 161.135 91.5104C160.807 91.6944 160.543 91.9624 160.343 92.3144C160.151 92.6664 160.055 93.0784 160.055 93.5504C160.055 94.0224 160.151 94.4344 160.343 94.7864C160.543 95.1384 160.807 95.4104 161.135 95.6024C161.463 95.7864 161.815 95.8784 162.191 95.8784ZM166.461 88.0184H167.481V96.6104H166.461V88.0184ZM168.992 88.0184H170.012V96.6104H168.992V88.0184ZM174.189 96.8024C173.605 96.8024 173.081 96.6624 172.617 96.3824C172.153 96.1024 171.789 95.7184 171.525 95.2304C171.269 94.7344 171.141 94.1784 171.141 93.5624C171.141 92.9704 171.261 92.4264 171.501 91.9304C171.749 91.4344 172.097 91.0384 172.545 90.7424C172.993 90.4464 173.513 90.2984 174.105 90.2984C174.705 90.2984 175.225 90.4344 175.665 90.7064C176.105 90.9704 176.441 91.3384 176.673 91.8104C176.913 92.2824 177.033 92.8224 177.033 93.4304C177.033 93.5504 177.021 93.6544 176.997 93.7424H172.161C172.185 94.2064 172.297 94.5984 172.497 94.9184C172.697 95.2384 172.949 95.4784 173.253 95.6384C173.565 95.7984 173.889 95.8784 174.225 95.8784C175.009 95.8784 175.613 95.5104 176.037 94.7744L176.901 95.1944C176.637 95.6904 176.277 96.0824 175.821 96.3704C175.373 96.6584 174.829 96.8024 174.189 96.8024ZM175.953 92.9024C175.937 92.6464 175.865 92.3904 175.737 92.1344C175.609 91.8784 175.405 91.6624 175.125 91.4864C174.853 91.3104 174.509 91.2224 174.093 91.2224C173.613 91.2224 173.205 91.3784 172.869 91.6904C172.541 91.9944 172.325 92.3984 172.221 92.9024H175.953ZM180.973 99.3944C180.253 99.3944 179.657 99.2264 179.185 98.8904C178.721 98.5544 178.409 98.1504 178.249 97.6784L179.173 97.2824C179.309 97.6344 179.533 97.9184 179.845 98.1344C180.165 98.3584 180.541 98.4704 180.973 98.4704C181.605 98.4704 182.093 98.2864 182.437 97.9184C182.789 97.5504 182.965 97.0304 182.965 96.3584V95.6744H182.917C182.717 95.9864 182.433 96.2424 182.065 96.4424C181.705 96.6344 181.293 96.7304 180.829 96.7304C180.301 96.7304 179.817 96.5944 179.377 96.3224C178.945 96.0504 178.601 95.6704 178.345 95.1824C178.089 94.6944 177.961 94.1384 177.961 93.5144C177.961 92.8984 178.089 92.3464 178.345 91.8584C178.601 91.3624 178.945 90.9784 179.377 90.7064C179.817 90.4344 180.301 90.2984 180.829 90.2984C181.293 90.2984 181.705 90.3984 182.065 90.5984C182.433 90.7904 182.717 91.0464 182.917 91.3664H182.965V90.4904H183.937V96.3704C183.937 97.3544 183.665 98.1024 183.121 98.6144C182.577 99.1344 181.861 99.3944 180.973 99.3944ZM180.973 95.8064C181.341 95.8064 181.673 95.7144 181.969 95.5304C182.273 95.3464 182.513 95.0824 182.689 94.7384C182.873 94.3944 182.965 93.9864 182.965 93.5144C182.965 93.0344 182.873 92.6224 182.689 92.2784C182.513 91.9344 182.273 91.6744 181.969 91.4984C181.673 91.3144 181.341 91.2224 180.973 91.2224C180.605 91.2224 180.269 91.3144 179.965 91.4984C179.661 91.6824 179.417 91.9464 179.233 92.2904C179.057 92.6344 178.969 93.0424 178.969 93.5144C178.969 93.9864 179.057 94.3984 179.233 94.7504C179.417 95.0944 179.661 95.3584 179.965 95.5424C180.269 95.7184 180.605 95.8064 180.973 95.8064ZM188.111 96.8024C187.527 96.8024 187.003 96.6624 186.539 96.3824C186.075 96.1024 185.711 95.7184 185.447 95.2304C185.191 94.7344 185.063 94.1784 185.063 93.5624C185.063 92.9704 185.183 92.4264 185.423 91.9304C185.671 91.4344 186.019 91.0384 186.467 90.7424C186.915 90.4464 187.435 90.2984 188.027 90.2984C188.627 90.2984 189.147 90.4344 189.587 90.7064C190.027 90.9704 190.363 91.3384 190.595 91.8104C190.835 92.2824 190.955 92.8224 190.955 93.4304C190.955 93.5504 190.943 93.6544 190.919 93.7424H186.083C186.107 94.2064 186.219 94.5984 186.419 94.9184C186.619 95.2384 186.871 95.4784 187.175 95.6384C187.487 95.7984 187.811 95.8784 188.147 95.8784C188.931 95.8784 189.535 95.5104 189.959 94.7744L190.823 95.1944C190.559 95.6904 190.199 96.0824 189.743 96.3704C189.295 96.6584 188.751 96.8024 188.111 96.8024ZM189.875 92.9024C189.859 92.6464 189.787 92.3904 189.659 92.1344C189.531 91.8784 189.327 91.6624 189.047 91.4864C188.775 91.3104 188.431 91.2224 188.015 91.2224C187.535 91.2224 187.127 91.3784 186.791 91.6904C186.463 91.9944 186.247 92.3984 186.143 92.9024H189.875ZM197.758 96.8024C197.158 96.8024 196.618 96.6584 196.138 96.3704C195.658 96.0824 195.282 95.6904 195.01 95.1944C194.746 94.6984 194.614 94.1504 194.614 93.5504C194.614 92.9504 194.746 92.4024 195.01 91.9064C195.282 91.4104 195.658 91.0184 196.138 90.7304C196.618 90.4424 197.158 90.2984 197.758 90.2984C198.358 90.2984 198.898 90.4424 199.378 90.7304C199.858 91.0184 200.23 91.4104 200.494 91.9064C200.766 92.4024 200.902 92.9504 200.902 93.5504C200.902 94.1504 200.766 94.6984 200.494 95.1944C200.23 95.6904 199.858 96.0824 199.378 96.3704C198.898 96.6584 198.358 96.8024 197.758 96.8024ZM197.758 95.8784C198.134 95.8784 198.482 95.7864 198.802 95.6024C199.13 95.4104 199.39 95.1384 199.582 94.7864C199.782 94.4344 199.882 94.0224 199.882 93.5504C199.882 93.0784 199.782 92.6664 199.582 92.3144C199.39 91.9624 199.13 91.6944 198.802 91.5104C198.482 91.3184 198.134 91.2224 197.758 91.2224C197.382 91.2224 197.03 91.3184 196.702 91.5104C196.374 91.6944 196.11 91.9624 195.91 92.3144C195.718 92.6664 195.622 93.0784 195.622 93.5504C195.622 94.0224 195.718 94.4344 195.91 94.7864C196.11 95.1384 196.374 95.4104 196.702 95.6024C197.03 95.7864 197.382 95.8784 197.758 95.8784ZM202.618 91.4144H201.49V90.4904H202.618V89.8304C202.618 89.4464 202.706 89.1104 202.882 88.8224C203.058 88.5344 203.294 88.3144 203.59 88.1624C203.886 88.0024 204.214 87.9224 204.574 87.9224C204.918 87.9224 205.218 87.9704 205.474 88.0664V89.0624C205.33 89.0064 205.194 88.9624 205.066 88.9304C204.938 88.8904 204.786 88.8704 204.61 88.8704C204.346 88.8704 204.118 88.9664 203.926 89.1584C203.734 89.3424 203.638 89.6024 203.638 89.9384V90.4904H205.21V91.4144H203.638V96.6104H202.618V91.4144ZM209.45 88.0184H214.418V88.9904H210.458V91.8344H214.034V92.7944H210.458V95.6384H214.418V96.6104H209.45V88.0184ZM215.738 90.4904H216.71V91.3904H216.758C216.926 91.0864 217.194 90.8304 217.562 90.6224C217.93 90.4064 218.322 90.2984 218.738 90.2984C219.474 90.2984 220.034 90.5144 220.418 90.9464C220.81 91.3704 221.006 91.9504 221.006 92.6864V96.6104H219.986V92.8424C219.986 92.2744 219.85 91.8624 219.578 91.6064C219.306 91.3504 218.934 91.2224 218.462 91.2224C218.134 91.2224 217.838 91.3144 217.574 91.4984C217.318 91.6824 217.118 91.9264 216.974 92.2304C216.83 92.5264 216.758 92.8384 216.758 93.1664V96.6104H215.738V90.4904ZM225.094 99.3944C224.374 99.3944 223.778 99.2264 223.306 98.8904C222.842 98.5544 222.53 98.1504 222.37 97.6784L223.294 97.2824C223.43 97.6344 223.654 97.9184 223.966 98.1344C224.286 98.3584 224.662 98.4704 225.094 98.4704C225.726 98.4704 226.214 98.2864 226.558 97.9184C226.91 97.5504 227.086 97.0304 227.086 96.3584V95.6744H227.038C226.838 95.9864 226.554 96.2424 226.186 96.4424C225.826 96.6344 225.414 96.7304 224.95 96.7304C224.422 96.7304 223.938 96.5944 223.498 96.3224C223.066 96.0504 222.722 95.6704 222.466 95.1824C222.21 94.6944 222.082 94.1384 222.082 93.5144C222.082 92.8984 222.21 92.3464 222.466 91.8584C222.722 91.3624 223.066 90.9784 223.498 90.7064C223.938 90.4344 224.422 90.2984 224.95 90.2984C225.414 90.2984 225.826 90.3984 226.186 90.5984C226.554 90.7904 226.838 91.0464 227.038 91.3664H227.086V90.4904H228.058V96.3704C228.058 97.3544 227.786 98.1024 227.242 98.6144C226.698 99.1344 225.982 99.3944 225.094 99.3944ZM225.094 95.8064C225.462 95.8064 225.794 95.7144 226.09 95.5304C226.394 95.3464 226.634 95.0824 226.81 94.7384C226.994 94.3944 227.086 93.9864 227.086 93.5144C227.086 93.0344 226.994 92.6224 226.81 92.2784C226.634 91.9344 226.394 91.6744 226.09 91.4984C225.794 91.3144 225.462 91.2224 225.094 91.2224C224.726 91.2224 224.39 91.3144 224.086 91.4984C223.782 91.6824 223.538 91.9464 223.354 92.2904C223.178 92.6344 223.09 93.0424 223.09 93.5144C223.09 93.9864 223.178 94.3984 223.354 94.7504C223.538 95.0944 223.782 95.3584 224.086 95.5424C224.39 95.7184 224.726 95.8064 225.094 95.8064ZM230.167 89.3624C229.967 89.3624 229.795 89.2904 229.651 89.1464C229.507 89.0024 229.435 88.8304 229.435 88.6304C229.435 88.4304 229.507 88.2624 229.651 88.1264C229.795 87.9824 229.967 87.9104 230.167 87.9104C230.367 87.9104 230.539 87.9824 230.683 88.1264C230.827 88.2624 230.899 88.4304 230.899 88.6304C230.899 88.8304 230.827 89.0024 230.683 89.1464C230.547 89.2904 230.375 89.3624 230.167 89.3624ZM229.663 90.4904H230.671V96.6104H229.663V90.4904ZM232.274 90.4904H233.246V91.3904H233.294C233.462 91.0864 233.73 90.8304 234.098 90.6224C234.466 90.4064 234.858 90.2984 235.274 90.2984C236.01 90.2984 236.57 90.5144 236.954 90.9464C237.346 91.3704 237.542 91.9504 237.542 92.6864V96.6104H236.522V92.8424C236.522 92.2744 236.386 91.8624 236.114 91.6064C235.842 91.3504 235.47 91.2224 234.998 91.2224C234.67 91.2224 234.374 91.3144 234.11 91.4984C233.854 91.6824 233.654 91.9264 233.51 92.2304C233.366 92.5264 233.294 92.8384 233.294 93.1664V96.6104H232.274V90.4904ZM241.724 96.8024C241.14 96.8024 240.616 96.6624 240.152 96.3824C239.688 96.1024 239.324 95.7184 239.06 95.2304C238.804 94.7344 238.676 94.1784 238.676 93.5624C238.676 92.9704 238.796 92.4264 239.036 91.9304C239.284 91.4344 239.632 91.0384 240.08 90.7424C240.528 90.4464 241.048 90.2984 241.64 90.2984C242.24 90.2984 242.76 90.4344 243.2 90.7064C243.64 90.9704 243.976 91.3384 244.208 91.8104C244.448 92.2824 244.568 92.8224 244.568 93.4304C244.568 93.5504 244.556 93.6544 244.532 93.7424H239.696C239.72 94.2064 239.832 94.5984 240.032 94.9184C240.232 95.2384 240.484 95.4784 240.788 95.6384C241.1 95.7984 241.424 95.8784 241.76 95.8784C242.544 95.8784 243.148 95.5104 243.572 94.7744L244.436 95.1944C244.172 95.6904 243.812 96.0824 243.356 96.3704C242.908 96.6584 242.364 96.8024 241.724 96.8024ZM243.488 92.9024C243.472 92.6464 243.4 92.3904 243.272 92.1344C243.144 91.8784 242.94 91.6624 242.66 91.4864C242.388 91.3104 242.044 91.2224 241.628 91.2224C241.148 91.2224 240.74 91.3784 240.404 91.6904C240.076 91.9944 239.86 92.3984 239.756 92.9024H243.488ZM248.544 96.8024C247.96 96.8024 247.436 96.6624 246.972 96.3824C246.508 96.1024 246.144 95.7184 245.88 95.2304C245.624 94.7344 245.496 94.1784 245.496 93.5624C245.496 92.9704 245.616 92.4264 245.856 91.9304C246.104 91.4344 246.452 91.0384 246.9 90.7424C247.348 90.4464 247.868 90.2984 248.46 90.2984C249.06 90.2984 249.58 90.4344 250.02 90.7064C250.46 90.9704 250.796 91.3384 251.028 91.8104C251.268 92.2824 251.388 92.8224 251.388 93.4304C251.388 93.5504 251.376 93.6544 251.352 93.7424H246.516C246.54 94.2064 246.652 94.5984 246.852 94.9184C247.052 95.2384 247.304 95.4784 247.608 95.6384C247.92 95.7984 248.244 95.8784 248.58 95.8784C249.364 95.8784 249.968 95.5104 250.392 94.7744L251.256 95.1944C250.992 95.6904 250.632 96.0824 250.176 96.3704C249.728 96.6584 249.184 96.8024 248.544 96.8024ZM250.308 92.9024C250.292 92.6464 250.22 92.3904 250.092 92.1344C249.964 91.8784 249.76 91.6624 249.48 91.4864C249.208 91.3104 248.864 91.2224 248.448 91.2224C247.968 91.2224 247.56 91.3784 247.224 91.6904C246.896 91.9944 246.68 92.3984 246.576 92.9024H250.308ZM252.582 90.4904H253.554V91.4744H253.602C253.722 91.1384 253.954 90.8624 254.298 90.6464C254.642 90.4224 255.002 90.3104 255.378 90.3104C255.658 90.3104 255.898 90.3504 256.098 90.4304V91.5344C255.842 91.4064 255.554 91.3424 255.234 91.3424C254.938 91.3424 254.666 91.4264 254.418 91.5944C254.17 91.7624 253.97 91.9904 253.818 92.2784C253.674 92.5584 253.602 92.8624 253.602 93.1904V96.6104H252.582V90.4904ZM257.682 89.3624C257.482 89.3624 257.31 89.2904 257.166 89.1464C257.022 89.0024 256.95 88.8304 256.95 88.6304C256.95 88.4304 257.022 88.2624 257.166 88.1264C257.31 87.9824 257.482 87.9104 257.682 87.9104C257.882 87.9104 258.054 87.9824 258.198 88.1264C258.342 88.2624 258.414 88.4304 258.414 88.6304C258.414 88.8304 258.342 89.0024 258.198 89.1464C258.062 89.2904 257.89 89.3624 257.682 89.3624ZM257.178 90.4904H258.186V96.6104H257.178V90.4904ZM259.789 90.4904H260.761V91.3904H260.809C260.977 91.0864 261.245 90.8304 261.613 90.6224C261.981 90.4064 262.373 90.2984 262.789 90.2984C263.525 90.2984 264.085 90.5144 264.469 90.9464C264.861 91.3704 265.057 91.9504 265.057 92.6864V96.6104H264.037V92.8424C264.037 92.2744 263.901 91.8624 263.629 91.6064C263.357 91.3504 262.985 91.2224 262.513 91.2224C262.185 91.2224 261.889 91.3144 261.625 91.4984C261.369 91.6824 261.169 91.9264 261.025 92.2304C260.881 92.5264 260.809 92.8384 260.809 93.1664V96.6104H259.789V90.4904ZM269.145 99.3944C268.425 99.3944 267.829 99.2264 267.357 98.8904C266.893 98.5544 266.581 98.1504 266.421 97.6784L267.345 97.2824C267.481 97.6344 267.705 97.9184 268.017 98.1344C268.337 98.3584 268.713 98.4704 269.145 98.4704C269.777 98.4704 270.265 98.2864 270.609 97.9184C270.961 97.5504 271.137 97.0304 271.137 96.3584V95.6744H271.089C270.889 95.9864 270.605 96.2424 270.237 96.4424C269.877 96.6344 269.465 96.7304 269.001 96.7304C268.473 96.7304 267.989 96.5944 267.549 96.3224C267.117 96.0504 266.773 95.6704 266.517 95.1824C266.261 94.6944 266.133 94.1384 266.133 93.5144C266.133 92.8984 266.261 92.3464 266.517 91.8584C266.773 91.3624 267.117 90.9784 267.549 90.7064C267.989 90.4344 268.473 90.2984 269.001 90.2984C269.465 90.2984 269.877 90.3984 270.237 90.5984C270.605 90.7904 270.889 91.0464 271.089 91.3664H271.137V90.4904H272.109V96.3704C272.109 97.3544 271.837 98.1024 271.293 98.6144C270.749 99.1344 270.033 99.3944 269.145 99.3944ZM269.145 95.8064C269.513 95.8064 269.845 95.7144 270.141 95.5304C270.445 95.3464 270.685 95.0824 270.861 94.7384C271.045 94.3944 271.137 93.9864 271.137 93.5144C271.137 93.0344 271.045 92.6224 270.861 92.2784C270.685 91.9344 270.445 91.6744 270.141 91.4984C269.845 91.3144 269.513 91.2224 269.145 91.2224C268.777 91.2224 268.441 91.3144 268.137 91.4984C267.833 91.6824 267.589 91.9464 267.405 92.2904C267.229 92.6344 267.141 93.0424 267.141 93.5144C267.141 93.9864 267.229 94.3984 267.405 94.7504C267.589 95.0944 267.833 95.3584 268.137 95.5424C268.441 95.7184 268.777 95.8064 269.145 95.8064Z" fill="white"/>
</svg>
