<svg width="304" height="120" viewBox="0 0 304 120" fill="none" xmlns="http://www.w3.org/2000/svg">
<rect width="304" height="120" rx="6" fill="#282828"/>
<path d="M34.0871 75.1403C32.9783 75.1403 31.9564 74.874 31.0216 74.3413C30.0867 73.8086 29.342 73.0803 28.7876 72.1563C28.2441 71.2214 27.9723 70.1833 27.9723 69.0418C27.9723 67.9004 28.2441 66.8677 28.7876 65.9437C29.342 65.0088 30.0867 64.275 31.0216 63.7424C31.9564 63.2097 32.9783 62.9434 34.0871 62.9434C34.9676 62.9434 35.7884 63.101 36.5493 63.4163C37.3102 63.7315 37.9462 64.1718 38.4571 64.737L37.1852 66.0089C36.8048 65.585 36.3482 65.2588 35.8155 65.0306C35.2937 64.8023 34.7122 64.6881 34.0708 64.6881C33.3207 64.6881 32.6195 64.8675 31.9673 65.2262C31.3151 65.585 30.7933 66.0959 30.4019 66.759C30.0106 67.4221 29.8149 68.1831 29.8149 69.0418C29.8149 69.9006 30.0106 70.6616 30.4019 71.3247C30.7933 71.9878 31.3151 72.4987 31.9673 72.8574C32.6195 73.2162 33.3261 73.3955 34.0871 73.3955C34.7828 73.3955 35.3644 73.2923 35.8318 73.0857C36.2993 72.8792 36.7178 72.602 37.0874 72.2541C37.3266 72.015 37.5277 71.716 37.6907 71.3573C37.8647 70.9986 37.9788 70.6072 38.0332 70.1833H34.0708V68.5527H39.7616C39.8159 68.857 39.8431 69.1723 39.8431 69.4984C39.8431 70.2376 39.729 70.9496 39.5007 71.6345C39.2724 72.3085 38.9082 72.8955 38.4082 73.3955C37.3102 74.5587 35.8699 75.1403 34.0871 75.1403ZM45.4753 75.1403C44.6383 75.1403 43.8882 74.9501 43.2251 74.5696C42.562 74.1782 42.0456 73.6456 41.676 72.9716C41.3064 72.2976 41.1216 71.5475 41.1216 70.7214C41.1216 69.8952 41.3064 69.1451 41.676 68.4711C42.0456 67.7971 42.562 67.2699 43.2251 66.8894C43.8882 66.4981 44.6383 66.3024 45.4753 66.3024C46.3124 66.3024 47.0624 66.4981 47.7256 66.8894C48.3887 67.2808 48.905 67.8134 49.2746 68.4874C49.6442 69.1614 49.829 69.9061 49.829 70.7214C49.829 71.5475 49.6442 72.2976 49.2746 72.9716C48.905 73.6456 48.3887 74.1782 47.7256 74.5696C47.0624 74.9501 46.3124 75.1403 45.4753 75.1403ZM45.4753 73.4934C45.9319 73.4934 46.3559 73.3847 46.7472 73.1673C47.1385 72.939 47.4484 72.6183 47.6766 72.2052C47.9158 71.7812 48.0354 71.2866 48.0354 70.7214C48.0354 70.1561 47.9158 69.6669 47.6766 69.2538C47.4484 68.8407 47.1385 68.5255 46.7472 68.3081C46.3559 68.0798 45.9319 67.9656 45.4753 67.9656C45.0188 67.9656 44.5948 68.0798 44.2035 68.3081C43.8121 68.5255 43.4969 68.8407 43.2577 69.2538C43.0294 69.6669 42.9153 70.1561 42.9153 70.7214C42.9153 71.2866 43.0294 71.7812 43.2577 72.2052C43.4969 72.6183 43.8121 72.939 44.2035 73.1673C44.5948 73.3847 45.0188 73.4934 45.4753 73.4934ZM55.38 75.1403C54.5429 75.1403 53.7928 74.9501 53.1297 74.5696C52.4666 74.1782 51.9503 73.6456 51.5807 72.9716C51.2111 72.2976 51.0263 71.5475 51.0263 70.7214C51.0263 69.8952 51.2111 69.1451 51.5807 68.4711C51.9503 67.7971 52.4666 67.2699 53.1297 66.8894C53.7928 66.4981 54.5429 66.3024 55.38 66.3024C56.217 66.3024 56.9671 66.4981 57.6302 66.8894C58.2933 67.2808 58.8097 67.8134 59.1793 68.4874C59.5489 69.1614 59.7337 69.9061 59.7337 70.7214C59.7337 71.5475 59.5489 72.2976 59.1793 72.9716C58.8097 73.6456 58.2933 74.1782 57.6302 74.5696C56.9671 74.9501 56.217 75.1403 55.38 75.1403ZM55.38 73.4934C55.8365 73.4934 56.2605 73.3847 56.6518 73.1673C57.0432 72.939 57.353 72.6183 57.5813 72.2052C57.8204 71.7812 57.94 71.2866 57.94 70.7214C57.94 70.1561 57.8204 69.6669 57.5813 69.2538C57.353 68.8407 57.0432 68.5255 56.6518 68.3081C56.2605 68.0798 55.8365 67.9656 55.38 67.9656C54.9234 67.9656 54.4994 68.0798 54.1081 68.3081C53.7167 68.5255 53.4015 68.8407 53.1623 69.2538C52.9341 69.6669 52.8199 70.1561 52.8199 70.7214C52.8199 71.2866 52.9341 71.7812 53.1623 72.2052C53.4015 72.6183 53.7167 72.939 54.1081 73.1673C54.4994 73.3847 54.9234 73.4934 55.38 73.4934ZM65.1378 78.6624C64.116 78.6624 63.2681 78.4287 62.5941 77.9612C61.931 77.4938 61.4853 76.9394 61.257 76.298L62.9365 75.5969C63.1105 76.0317 63.3877 76.3795 63.7681 76.6404C64.1595 76.9122 64.6161 77.0481 65.1378 77.0481C65.8988 77.0481 66.4912 76.8198 66.9152 76.3632C67.35 75.9175 67.5674 75.287 67.5674 74.4717V73.7054H67.4696C67.1978 74.0967 66.8337 74.4065 66.3771 74.6348C65.9314 74.8522 65.4151 74.9609 64.828 74.9609C64.1323 74.9609 63.4855 74.7816 62.8876 74.4228C62.2897 74.0641 61.8114 73.5586 61.4527 72.9064C61.1048 72.2433 60.9309 71.4877 60.9309 70.6398C60.9309 69.7919 61.1048 69.0418 61.4527 68.3896C61.8114 67.7265 62.2897 67.2156 62.8876 66.8568C63.4855 66.4872 64.1323 66.3024 64.828 66.3024C65.4042 66.3024 65.9205 66.4166 66.3771 66.6448C66.8337 66.8731 67.1978 67.1829 67.4696 67.5743H67.5674V66.5633H69.2796V74.4228C69.2796 75.3251 69.1057 76.0915 68.7578 76.722C68.4099 77.3633 67.9207 77.8471 67.2902 78.1732C66.6706 78.4993 65.9532 78.6624 65.1378 78.6624ZM65.1542 73.3303C65.589 73.3303 65.9912 73.2271 66.3608 73.0205C66.7304 72.8031 67.0239 72.4933 67.2413 72.0911C67.4587 71.678 67.5674 71.1942 67.5674 70.6398C67.5674 69.7919 67.3337 69.1342 66.8663 68.6668C66.4097 68.1885 65.839 67.9493 65.1542 67.9493C64.7085 67.9493 64.3008 68.058 63.9312 68.2755C63.5616 68.482 63.2681 68.7864 63.0507 69.1886C62.8333 69.5908 62.7246 70.0746 62.7246 70.6398C62.7246 71.2051 62.8333 71.6888 63.0507 72.0911C63.2681 72.4933 63.5616 72.8031 63.9312 73.0205C64.3008 73.2271 64.7085 73.3303 65.1542 73.3303ZM71.3876 63.2043H73.1813V74.8794H71.3876V63.2043ZM79.0087 75.1403C78.1934 75.1403 77.4596 74.9501 76.8074 74.5696C76.166 74.1891 75.6605 73.6673 75.2909 73.0042C74.9322 72.3302 74.7528 71.5747 74.7528 70.7377C74.7528 69.9441 74.9267 69.2103 75.2746 68.5363C75.6333 67.8515 76.1279 67.308 76.7584 66.9057C77.3889 66.5035 78.1064 66.3024 78.9108 66.3024C79.7479 66.3024 80.4708 66.4872 81.0795 66.8568C81.6992 67.2264 82.1666 67.7319 82.4819 68.3733C82.808 69.0147 82.971 69.7376 82.971 70.542C82.971 70.6942 82.9547 70.8844 82.9221 71.1127H76.5465C76.6117 71.8845 76.8835 72.4824 77.3618 72.9064C77.8509 73.3195 78.4162 73.526 79.0576 73.526C79.5685 73.526 80.0088 73.4119 80.3784 73.1836C80.7589 72.9444 81.0632 72.6237 81.2915 72.2215L82.808 72.939C82.4166 73.6238 81.9057 74.1619 81.2752 74.5533C80.6447 74.9446 79.8892 75.1403 79.0087 75.1403ZM81.1448 69.743C81.123 69.4495 81.0306 69.1614 80.8676 68.8788C80.7045 68.5853 80.4545 68.3407 80.1175 68.145C79.7914 67.9493 79.3892 67.8515 78.9108 67.8515C78.3347 67.8515 77.8455 68.0254 77.4433 68.3733C77.052 68.7103 76.7802 69.1668 76.628 69.743H81.1448ZM88.7197 63.2043H92.4538C93.6604 63.2043 94.7149 63.4489 95.6171 63.938C96.5194 64.4272 97.2097 65.1175 97.688 66.0089C98.1772 66.8894 98.4218 67.9004 98.4218 69.0418C98.4218 70.1833 98.1772 71.1997 97.688 72.0911C97.2097 72.9716 96.5194 73.6564 95.6171 74.1456C94.7149 74.6348 93.6604 74.8794 92.4538 74.8794H88.7197V63.2043ZM92.4212 73.1346C93.7256 73.1346 94.742 72.7759 95.4704 72.0585C96.2096 71.3301 96.5792 70.3246 96.5792 69.0418C96.5792 67.77 96.2096 66.7699 95.4704 66.0415C94.742 65.3132 93.7256 64.949 92.4212 64.949H90.546V73.1346H92.4212ZM103.77 75.1403C102.955 75.1403 102.221 74.9501 101.569 74.5696C100.928 74.1891 100.422 73.6673 100.052 73.0042C99.6938 72.3302 99.5144 71.5747 99.5144 70.7377C99.5144 69.9441 99.6883 69.2103 100.036 68.5363C100.395 67.8515 100.89 67.308 101.52 66.9057C102.151 66.5035 102.868 66.3024 103.672 66.3024C104.509 66.3024 105.232 66.4872 105.841 66.8568C106.461 67.2264 106.928 67.7319 107.243 68.3733C107.57 69.0147 107.733 69.7376 107.733 70.542C107.733 70.6942 107.716 70.8844 107.684 71.1127H101.308C101.373 71.8845 101.645 72.4824 102.123 72.9064C102.613 73.3195 103.178 73.526 103.819 73.526C104.33 73.526 104.77 73.4119 105.14 73.1836C105.52 72.9444 105.825 72.6237 106.053 72.2215L107.57 72.939C107.178 73.6238 106.667 74.1619 106.037 74.5533C105.406 74.9446 104.651 75.1403 103.77 75.1403ZM105.906 69.743C105.885 69.4495 105.792 69.1614 105.629 68.8788C105.466 68.5853 105.216 68.3407 104.879 68.145C104.553 67.9493 104.151 67.8515 103.672 67.8515C103.096 67.8515 102.607 68.0254 102.205 68.3733C101.814 68.7103 101.542 69.1668 101.39 69.743H105.906ZM108.277 66.5633H110.283L112.582 72.5639H112.647L114.995 66.5633H116.952L113.495 74.8794H111.702L108.277 66.5633ZM121.669 75.1403C120.853 75.1403 120.12 74.9501 119.467 74.5696C118.826 74.1891 118.321 73.6673 117.951 73.0042C117.592 72.3302 117.413 71.5747 117.413 70.7377C117.413 69.9441 117.587 69.2103 117.935 68.5363C118.293 67.8515 118.788 67.308 119.418 66.9057C120.049 66.5035 120.766 66.3024 121.571 66.3024C122.408 66.3024 123.131 66.4872 123.74 66.8568C124.359 67.2264 124.827 67.7319 125.142 68.3733C125.468 69.0147 125.631 69.7376 125.631 70.542C125.631 70.6942 125.615 70.8844 125.582 71.1127H119.206C119.272 71.8845 119.543 72.4824 120.022 72.9064C120.511 73.3195 121.076 73.526 121.718 73.526C122.229 73.526 122.669 73.4119 123.038 73.1836C123.419 72.9444 123.723 72.6237 123.952 72.2215L125.468 72.939C125.077 73.6238 124.566 74.1619 123.935 74.5533C123.305 74.9446 122.549 75.1403 121.669 75.1403ZM123.805 69.743C123.783 69.4495 123.691 69.1614 123.528 68.8788C123.365 68.5853 123.114 68.3407 122.777 68.145C122.451 67.9493 122.049 67.8515 121.571 67.8515C120.995 67.8515 120.506 68.0254 120.103 68.3733C119.712 68.7103 119.44 69.1668 119.288 69.743H123.805ZM127.264 63.2043H129.058V74.8794H127.264V63.2043ZM134.983 75.1403C134.146 75.1403 133.396 74.9501 132.733 74.5696C132.07 74.1782 131.554 73.6456 131.184 72.9716C130.814 72.2976 130.63 71.5475 130.63 70.7214C130.63 69.8952 130.814 69.1451 131.184 68.4711C131.554 67.7971 132.07 67.2699 132.733 66.8894C133.396 66.4981 134.146 66.3024 134.983 66.3024C135.82 66.3024 136.57 66.4981 137.234 66.8894C137.897 67.2808 138.413 67.8134 138.783 68.4874C139.152 69.1614 139.337 69.9061 139.337 70.7214C139.337 71.5475 139.152 72.2976 138.783 72.9716C138.413 73.6456 137.897 74.1782 137.234 74.5696C136.57 74.9501 135.82 75.1403 134.983 75.1403ZM134.983 73.4934C135.44 73.4934 135.864 73.3847 136.255 73.1673C136.647 72.939 136.956 72.6183 137.185 72.2052C137.424 71.7812 137.543 71.2866 137.543 70.7214C137.543 70.1561 137.424 69.6669 137.185 69.2538C136.956 68.8407 136.647 68.5255 136.255 68.3081C135.864 68.0798 135.44 67.9656 134.983 67.9656C134.527 67.9656 134.103 68.0798 133.711 68.3081C133.32 68.5255 133.005 68.8407 132.766 69.2538C132.537 69.6669 132.423 70.1561 132.423 70.7214C132.423 71.2866 132.537 71.7812 132.766 72.2052C133.005 72.6183 133.32 72.939 133.711 73.1673C134.103 73.3847 134.527 73.4934 134.983 73.4934ZM140.846 66.5633H142.558V67.6558H142.64C142.879 67.2753 143.232 66.9547 143.7 66.6938C144.167 66.4329 144.694 66.3024 145.281 66.3024C146.031 66.3024 146.711 66.4927 147.319 66.8731C147.928 67.2536 148.407 67.7808 148.754 68.4548C149.113 69.1179 149.293 69.8734 149.293 70.7214C149.293 71.5693 149.113 72.3302 148.754 73.0042C148.407 73.6673 147.928 74.1891 147.319 74.5696C146.711 74.9501 146.031 75.1403 145.281 75.1403C144.694 75.1403 144.167 75.0098 143.7 74.7489C143.232 74.488 142.879 74.1728 142.64 73.8032H142.558L142.64 74.9609V78.4015H140.846V66.5633ZM145.02 73.4934C145.455 73.4934 145.863 73.3792 146.243 73.151C146.624 72.9227 146.928 72.5966 147.156 72.1726C147.385 71.7486 147.499 71.2649 147.499 70.7214C147.499 70.1778 147.385 69.6995 147.156 69.2864C146.928 68.8625 146.624 68.5363 146.243 68.3081C145.863 68.0798 145.455 67.9656 145.02 67.9656C144.586 67.9656 144.178 68.0798 143.797 68.3081C143.428 68.5363 143.129 68.8625 142.901 69.2864C142.672 69.6995 142.558 70.1778 142.558 70.7214C142.558 71.2649 142.672 71.7486 142.901 72.1726C143.129 72.5966 143.428 72.9227 143.797 73.151C144.178 73.3792 144.586 73.4934 145.02 73.4934ZM154.727 75.1403C153.911 75.1403 153.178 74.9501 152.525 74.5696C151.884 74.1891 151.378 73.6673 151.009 73.0042C150.65 72.3302 150.471 71.5747 150.471 70.7377C150.471 69.9441 150.645 69.2103 150.993 68.5363C151.351 67.8515 151.846 67.308 152.476 66.9057C153.107 66.5035 153.824 66.3024 154.629 66.3024C155.466 66.3024 156.189 66.4872 156.797 66.8568C157.417 67.2264 157.885 67.7319 158.2 68.3733C158.526 69.0147 158.689 69.7376 158.689 70.542C158.689 70.6942 158.673 70.8844 158.64 71.1127H152.264C152.33 71.8845 152.601 72.4824 153.08 72.9064C153.569 73.3195 154.134 73.526 154.776 73.526C155.286 73.526 155.727 73.4119 156.096 73.1836C156.477 72.9444 156.781 72.6237 157.009 72.2215L158.526 72.939C158.135 73.6238 157.624 74.1619 156.993 74.5533C156.363 74.9446 155.607 75.1403 154.727 75.1403ZM156.863 69.743C156.841 69.4495 156.749 69.1614 156.586 68.8788C156.422 68.5853 156.172 68.3407 155.835 68.145C155.509 67.9493 155.107 67.8515 154.629 67.8515C154.053 67.8515 153.563 68.0254 153.161 68.3733C152.77 68.7103 152.498 69.1668 152.346 69.743H156.863ZM160.322 66.5633H162.035V67.7863H162.116C162.301 67.3623 162.622 67.0145 163.078 66.7427C163.535 66.46 164.018 66.3187 164.529 66.3187C164.932 66.3187 165.269 66.3731 165.54 66.4818V68.3407C165.062 68.1667 164.633 68.0798 164.252 68.0798C163.839 68.0798 163.469 68.1885 163.143 68.4059C162.828 68.6233 162.578 68.9168 162.393 69.2864C162.208 69.6452 162.116 70.0419 162.116 70.4768V74.8794H160.322V66.5633ZM173.912 75.1403C172.944 75.1403 172.075 74.8577 171.303 74.2924C170.531 73.7271 169.998 72.9335 169.705 71.9117L171.433 71.2105C171.607 71.8519 171.912 72.3791 172.346 72.7922C172.792 73.1944 173.325 73.3955 173.944 73.3955C174.521 73.3955 175.01 73.2488 175.412 72.9553C175.814 72.6509 176.015 72.2378 176.015 71.716C176.015 71.2377 175.836 70.8464 175.477 70.542C175.129 70.2267 174.515 69.9115 173.635 69.5962L172.901 69.3353C172.118 69.0636 171.46 68.6722 170.928 68.1613C170.395 67.6504 170.129 66.9764 170.129 66.1394C170.129 65.5632 170.286 65.0306 170.602 64.5414C170.917 64.0522 171.352 63.6663 171.906 63.3836C172.471 63.0901 173.107 62.9434 173.814 62.9434C174.836 62.9434 175.651 63.1934 176.26 63.6935C176.869 64.1826 177.276 64.737 177.483 65.3567L175.836 66.0578C175.716 65.6882 175.488 65.3621 175.151 65.0795C174.814 64.7968 174.379 64.6555 173.847 64.6555C173.314 64.6555 172.863 64.7914 172.493 65.0632C172.134 65.3349 171.955 65.6828 171.955 66.1067C171.955 66.509 172.118 66.8405 172.444 67.1014C172.77 67.3623 173.281 67.6123 173.977 67.8515L174.711 68.0961C175.711 68.4439 176.483 68.9005 177.026 69.4658C177.581 70.0202 177.858 70.7648 177.858 71.6997C177.858 72.4607 177.662 73.102 177.271 73.6238C176.88 74.1348 176.379 74.5152 175.771 74.7653C175.173 75.0153 174.553 75.1403 173.912 75.1403ZM182.648 75.0098C182.278 75.0098 181.93 74.9501 181.604 74.8305C181.278 74.7109 181.012 74.5533 180.805 74.3576C180.338 73.8902 180.104 73.2542 180.104 72.4498V68.145H178.653V66.5633H180.104V64.2153H181.898V66.5633H183.92V68.145H181.898V72.0585C181.898 72.5041 181.985 72.8194 182.159 73.0042C182.322 73.2216 182.604 73.3303 183.007 73.3303C183.191 73.3303 183.354 73.3086 183.496 73.2651C183.637 73.2107 183.789 73.1292 183.952 73.0205V74.7653C183.594 74.9283 183.159 75.0098 182.648 75.0098ZM188.658 75.1403C187.647 75.1403 186.876 74.8413 186.343 74.2435C185.821 73.6347 185.56 72.7922 185.56 71.716V66.5633H187.354V71.4714C187.354 72.1454 187.511 72.6509 187.827 72.9879C188.153 73.3249 188.577 73.4934 189.099 73.4934C189.523 73.4934 189.898 73.3847 190.224 73.1673C190.55 72.939 190.8 72.64 190.974 72.2704C191.148 71.9008 191.235 71.504 191.235 71.0801V66.5633H193.028V74.8794H191.333V73.8032H191.235C191.006 74.1945 190.653 74.5152 190.175 74.7653C189.696 75.0153 189.191 75.1403 188.658 75.1403ZM198.591 75.1403C197.841 75.1403 197.162 74.9501 196.553 74.5696C195.944 74.1891 195.46 73.6673 195.102 73.0042C194.754 72.3302 194.58 71.5693 194.58 70.7214C194.58 69.8734 194.754 69.1179 195.102 68.4548C195.46 67.7808 195.944 67.2536 196.553 66.8731C197.162 66.4927 197.841 66.3024 198.591 66.3024C199.178 66.3024 199.705 66.4329 200.173 66.6938C200.64 66.9547 200.994 67.2753 201.233 67.6558H201.314L201.233 66.4818V63.2043H203.026V74.8794H201.314V73.8032H201.233C200.994 74.1728 200.64 74.488 200.173 74.7489C199.705 75.0098 199.178 75.1403 198.591 75.1403ZM198.852 73.4934C199.287 73.4934 199.689 73.3792 200.059 73.151C200.439 72.9227 200.744 72.5966 200.972 72.1726C201.2 71.7486 201.314 71.2649 201.314 70.7214C201.314 70.1778 201.2 69.6995 200.972 69.2864C200.744 68.8625 200.439 68.5363 200.059 68.3081C199.689 68.0798 199.287 67.9656 198.852 67.9656C198.417 67.9656 198.01 68.0798 197.629 68.3081C197.249 68.5363 196.944 68.8625 196.716 69.2864C196.488 69.6995 196.374 70.1778 196.374 70.7214C196.374 71.2649 196.488 71.7486 196.716 72.1726C196.944 72.5966 197.249 72.9227 197.629 73.151C198.01 73.3792 198.417 73.4934 198.852 73.4934ZM208.836 75.1403C208.021 75.1403 207.287 74.9501 206.635 74.5696C205.993 74.1891 205.488 73.6673 205.118 73.0042C204.759 72.3302 204.58 71.5747 204.58 70.7377C204.58 69.9441 204.754 69.2103 205.102 68.5363C205.461 67.8515 205.955 67.308 206.586 66.9057C207.216 66.5035 207.934 66.3024 208.738 66.3024C209.575 66.3024 210.298 66.4872 210.907 66.8568C211.526 67.2264 211.994 67.7319 212.309 68.3733C212.635 69.0147 212.798 69.7376 212.798 70.542C212.798 70.6942 212.782 70.8844 212.749 71.1127H206.374C206.439 71.8845 206.711 72.4824 207.189 72.9064C207.678 73.3195 208.243 73.526 208.885 73.526C209.396 73.526 209.836 73.4119 210.206 73.1836C210.586 72.9444 210.89 72.6237 211.119 72.2215L212.635 72.939C212.244 73.6238 211.733 74.1619 211.102 74.5533C210.472 74.9446 209.716 75.1403 208.836 75.1403ZM210.972 69.743C210.95 69.4495 210.858 69.1614 210.695 68.8788C210.532 68.5853 210.282 68.3407 209.945 68.145C209.619 67.9493 209.216 67.8515 208.738 67.8515C208.162 67.8515 207.673 68.0254 207.271 68.3733C206.879 68.7103 206.607 69.1668 206.455 69.743H210.972ZM214.432 66.5633H216.144V67.6558H216.225C216.464 67.2645 216.818 66.9438 217.285 66.6938C217.764 66.4329 218.269 66.3024 218.802 66.3024C219.813 66.3024 220.579 66.6014 221.101 67.1993C221.633 67.7863 221.9 68.5907 221.9 69.6125V74.8794H220.106V69.8571C220.106 69.2049 219.943 68.7266 219.617 68.4222C219.302 68.1178 218.861 67.9656 218.296 67.9656C217.894 67.9656 217.535 68.0798 217.22 68.3081C216.905 68.5255 216.66 68.819 216.486 69.1886C216.312 69.5582 216.225 69.955 216.225 70.3789V74.8794H214.432V66.5633ZM226.916 75.0098C226.547 75.0098 226.199 74.9501 225.873 74.8305C225.547 74.7109 225.28 74.5533 225.074 74.3576C224.606 73.8902 224.372 73.2542 224.372 72.4498V68.145H222.921V66.5633H224.372V64.2153H226.166V66.5633H228.188V68.145H226.166V72.0585C226.166 72.5041 226.253 72.8194 226.427 73.0042C226.59 73.2216 226.873 73.3303 227.275 73.3303C227.46 73.3303 227.623 73.3086 227.764 73.2651C227.905 73.2107 228.058 73.1292 228.221 73.0205V74.7653C227.862 74.9283 227.427 75.0098 226.916 75.0098ZM239.202 75.1403C238.071 75.1403 237.039 74.874 236.104 74.3413C235.169 73.8086 234.435 73.0749 233.902 72.14C233.37 71.2051 233.103 70.1724 233.103 69.0418C233.103 67.9113 233.37 66.8786 233.902 65.9437C234.435 65.0088 235.169 64.275 236.104 63.7424C237.039 63.2097 238.071 62.9434 239.202 62.9434C240.082 62.9434 240.881 63.1064 241.599 63.4326C242.327 63.7587 242.969 64.2316 243.523 64.8512L242.219 66.1067C241.816 65.6284 241.371 65.2751 240.881 65.0469C240.392 64.8077 239.832 64.6881 239.202 64.6881C238.419 64.6881 237.702 64.8675 237.05 65.2262C236.408 65.585 235.897 66.0959 235.517 66.759C235.136 67.4112 234.946 68.1722 234.946 69.0418C234.946 69.9115 235.136 70.6779 235.517 71.341C235.897 71.9932 236.408 72.4987 237.05 72.8574C237.702 73.2162 238.419 73.3955 239.202 73.3955C240.506 73.3955 241.615 72.852 242.528 71.7649L243.849 73.0368C243.284 73.6999 242.604 74.2163 241.811 74.5859C241.017 74.9555 240.148 75.1403 239.202 75.1403ZM245.435 63.2043H247.229V74.8794H245.435V63.2043ZM252.37 75.1403C251.359 75.1403 250.587 74.8413 250.054 74.2435C249.532 73.6347 249.272 72.7922 249.272 71.716V66.5633H251.065V71.4714C251.065 72.1454 251.223 72.6509 251.538 72.9879C251.864 73.3249 252.288 73.4934 252.81 73.4934C253.234 73.4934 253.609 73.3847 253.935 73.1673C254.261 72.939 254.511 72.64 254.685 72.2704C254.859 71.9008 254.946 71.504 254.946 71.0801V66.5633H256.74V74.8794H255.044V73.8032H254.946C254.718 74.1945 254.364 74.5152 253.886 74.7653C253.408 75.0153 252.902 75.1403 252.37 75.1403ZM263.263 75.1403C262.676 75.1403 262.148 75.0098 261.681 74.7489C261.213 74.488 260.86 74.1728 260.621 73.8032H260.54V74.8794H258.827V63.2043H260.621V66.4818L260.54 67.6558H260.621C260.86 67.2753 261.213 66.9547 261.681 66.6938C262.148 66.4329 262.676 66.3024 263.263 66.3024C264.013 66.3024 264.692 66.4927 265.301 66.8731C265.91 67.2536 266.388 67.7808 266.736 68.4548C267.095 69.1179 267.274 69.8734 267.274 70.7214C267.274 71.5693 267.095 72.3302 266.736 73.0042C266.388 73.6673 265.91 74.1891 265.301 74.5696C264.692 74.9501 264.013 75.1403 263.263 75.1403ZM263.002 73.4934C263.437 73.4934 263.844 73.3792 264.225 73.151C264.605 72.9227 264.91 72.5966 265.138 72.1726C265.366 71.7486 265.48 71.2649 265.48 70.7214C265.48 70.1778 265.366 69.6995 265.138 69.2864C264.91 68.8625 264.605 68.5363 264.225 68.3081C263.844 68.0798 263.437 67.9656 263.002 67.9656C262.567 67.9656 262.159 68.0798 261.779 68.3081C261.409 68.5363 261.11 68.8625 260.882 69.2864C260.654 69.6995 260.54 70.1778 260.54 70.7214C260.54 71.2649 260.654 71.7486 260.882 72.1726C261.11 72.5966 261.409 72.9227 261.779 73.151C262.159 73.3792 262.567 73.4934 263.002 73.4934ZM271.86 75.1403C270.904 75.1403 270.121 74.9337 269.512 74.5207C268.904 74.0967 268.474 73.5586 268.224 72.9064L269.822 72.2052C270.018 72.64 270.29 72.9716 270.638 73.1999C270.996 73.4282 271.404 73.5423 271.86 73.5423C272.306 73.5423 272.681 73.4662 272.986 73.314C273.29 73.151 273.442 72.9118 273.442 72.5966C273.442 72.2922 273.312 72.053 273.051 71.8791C272.79 71.7052 272.388 71.553 271.844 71.4225L270.849 71.1779C270.186 71.0149 269.637 70.7268 269.203 70.3137C268.768 69.9006 268.55 69.3788 268.55 68.7483C268.55 68.2591 268.692 67.8298 268.974 67.4602C269.268 67.0905 269.659 66.8079 270.148 66.6122C270.638 66.4057 271.17 66.3024 271.746 66.3024C272.518 66.3024 273.198 66.46 273.785 66.7753C274.372 67.0797 274.796 67.5254 275.056 68.1124L273.491 68.7972C273.176 68.1559 272.6 67.8352 271.763 67.8352C271.36 67.8352 271.023 67.9167 270.752 68.0798C270.48 68.2428 270.344 68.4548 270.344 68.7157C270.344 68.9657 270.447 69.1723 270.654 69.3353C270.86 69.4875 271.165 69.618 271.567 69.7267L272.79 70.0365C273.605 70.243 274.219 70.5583 274.632 70.9823C275.056 71.3953 275.268 71.9063 275.268 72.515C275.268 73.0368 275.116 73.4988 274.812 73.901C274.518 74.2924 274.111 74.5968 273.589 74.8142C273.067 75.0316 272.491 75.1403 271.86 75.1403Z" fill="white"/>
<rect width="23.3115" height="7.81905" rx="3.90953" transform="matrix(-0.866025 0.5 0.5 0.866025 174.504 27.7881)" fill="#FBBC04"/>
<rect width="23.3115" height="7.81905" rx="3.90953" transform="matrix(0.866025 -0.5 -0.5 -0.866025 131.371 38.4272)" fill="#EA4335"/>
<rect x="131.041" y="27.7871" width="23.3115" height="7.81905" rx="3.90953" transform="rotate(30 131.041 27.7871)" fill="#4285F4"/>
<rect x="174.504" y="38.4272" width="23.3115" height="7.81905" rx="3.64648" transform="rotate(-150 174.504 38.4272)" fill="#0F9D58"/>
<path d="M37.4171 96.8024C36.7851 96.8024 36.2331 96.6304 35.7611 96.2864C35.2891 95.9344 34.9571 95.4424 34.7651 94.8104L35.7251 94.4144C36.0131 95.3584 36.5771 95.8304 37.4171 95.8304C37.8891 95.8304 38.2651 95.6664 38.5451 95.3384C38.8331 95.0104 38.9771 94.5784 38.9771 94.0424V88.0184H39.9971V93.9584C39.9971 94.5584 39.8851 95.0744 39.6611 95.5064C39.4451 95.9304 39.1411 96.2544 38.7491 96.4784C38.3651 96.6944 37.9211 96.8024 37.4171 96.8024ZM41.7764 88.0184H44.3684C45.2484 88.0184 46.0164 88.2024 46.6724 88.5704C47.3284 88.9304 47.8324 89.4344 48.1844 90.0824C48.5364 90.7304 48.7124 91.4744 48.7124 92.3144C48.7124 93.1544 48.5364 93.8984 48.1844 94.5464C47.8324 95.1944 47.3284 95.7024 46.6724 96.0704C46.0164 96.4304 45.2484 96.6104 44.3684 96.6104H41.7764V88.0184ZM44.3684 95.6384C45.3844 95.6384 46.1884 95.3464 46.7804 94.7624C47.3804 94.1784 47.6804 93.3624 47.6804 92.3144C47.6804 91.2664 47.3804 90.4504 46.7804 89.8664C46.1884 89.2824 45.3844 88.9904 44.3684 88.9904H42.7844V95.6384H44.3684ZM56.8006 96.8024C55.9686 96.8024 55.2126 96.6064 54.5326 96.2144C53.8526 95.8224 53.3166 95.2864 52.9246 94.6064C52.5406 93.9184 52.3486 93.1544 52.3486 92.3144C52.3486 91.4744 52.5406 90.7144 52.9246 90.0344C53.3166 89.3464 53.8526 88.8064 54.5326 88.4144C55.2126 88.0224 55.9686 87.8264 56.8006 87.8264C57.4406 87.8264 58.0246 87.9504 58.5526 88.1984C59.0886 88.4384 59.5526 88.7824 59.9446 89.2304L59.2126 89.9384C58.8846 89.5464 58.5246 89.2584 58.1326 89.0744C57.7486 88.8904 57.3046 88.7984 56.8006 88.7984C56.1766 88.7984 55.6046 88.9464 55.0846 89.2424C54.5646 89.5304 54.1486 89.9424 53.8366 90.4784C53.5326 91.0064 53.3806 91.6184 53.3806 92.3144C53.3806 93.0104 53.5326 93.6264 53.8366 94.1624C54.1486 94.6904 54.5646 95.1024 55.0846 95.3984C55.6046 95.6864 56.1766 95.8304 56.8006 95.8304C57.8406 95.8304 58.7246 95.4024 59.4526 94.5464L60.1966 95.2664C59.7966 95.7384 59.3046 96.1144 58.7206 96.3944C58.1366 96.6664 57.4966 96.8024 56.8006 96.8024ZM64.0448 96.8024C63.4448 96.8024 62.9048 96.6584 62.4248 96.3704C61.9448 96.0824 61.5688 95.6904 61.2968 95.1944C61.0328 94.6984 60.9008 94.1504 60.9008 93.5504C60.9008 92.9504 61.0328 92.4024 61.2968 91.9064C61.5688 91.4104 61.9448 91.0184 62.4248 90.7304C62.9048 90.4424 63.4448 90.2984 64.0448 90.2984C64.6448 90.2984 65.1848 90.4424 65.6648 90.7304C66.1448 91.0184 66.5168 91.4104 66.7808 91.9064C67.0528 92.4024 67.1888 92.9504 67.1888 93.5504C67.1888 94.1504 67.0528 94.6984 66.7808 95.1944C66.5168 95.6904 66.1448 96.0824 65.6648 96.3704C65.1848 96.6584 64.6448 96.8024 64.0448 96.8024ZM64.0448 95.8784C64.4208 95.8784 64.7688 95.7864 65.0888 95.6024C65.4168 95.4104 65.6768 95.1384 65.8688 94.7864C66.0688 94.4344 66.1688 94.0224 66.1688 93.5504C66.1688 93.0784 66.0688 92.6664 65.8688 92.3144C65.6768 91.9624 65.4168 91.6944 65.0888 91.5104C64.7688 91.3184 64.4208 91.2224 64.0448 91.2224C63.6688 91.2224 63.3168 91.3184 62.9888 91.5104C62.6608 91.6944 62.3968 91.9624 62.1968 92.3144C62.0048 92.6664 61.9088 93.0784 61.9088 93.5504C61.9088 94.0224 62.0048 94.4344 62.1968 94.7864C62.3968 95.1384 62.6608 95.4104 62.9888 95.6024C63.3168 95.7864 63.6688 95.8784 64.0448 95.8784ZM68.3146 88.0184H69.3346V96.6104H68.3146V88.0184ZM70.8458 88.0184H71.8658V96.6104H70.8458V88.0184ZM76.0425 96.8024C75.4585 96.8024 74.9345 96.6624 74.4705 96.3824C74.0065 96.1024 73.6425 95.7184 73.3785 95.2304C73.1225 94.7344 72.9945 94.1784 72.9945 93.5624C72.9945 92.9704 73.1145 92.4264 73.3545 91.9304C73.6025 91.4344 73.9505 91.0384 74.3985 90.7424C74.8465 90.4464 75.3665 90.2984 75.9585 90.2984C76.5585 90.2984 77.0785 90.4344 77.5185 90.7064C77.9585 90.9704 78.2945 91.3384 78.5265 91.8104C78.7665 92.2824 78.8865 92.8224 78.8865 93.4304C78.8865 93.5504 78.8745 93.6544 78.8505 93.7424H74.0145C74.0385 94.2064 74.1505 94.5984 74.3505 94.9184C74.5505 95.2384 74.8025 95.4784 75.1065 95.6384C75.4185 95.7984 75.7425 95.8784 76.0785 95.8784C76.8625 95.8784 77.4665 95.5104 77.8905 94.7744L78.7545 95.1944C78.4905 95.6904 78.1305 96.0824 77.6745 96.3704C77.2265 96.6584 76.6825 96.8024 76.0425 96.8024ZM77.8065 92.9024C77.7905 92.6464 77.7185 92.3904 77.5905 92.1344C77.4625 91.8784 77.2585 91.6624 76.9785 91.4864C76.7065 91.3104 76.3625 91.2224 75.9465 91.2224C75.4665 91.2224 75.0585 91.3784 74.7225 91.6904C74.3945 91.9944 74.1785 92.3984 74.0745 92.9024H77.8065ZM82.8268 99.3944C82.1068 99.3944 81.5108 99.2264 81.0388 98.8904C80.5748 98.5544 80.2628 98.1504 80.1028 97.6784L81.0268 97.2824C81.1628 97.6344 81.3868 97.9184 81.6988 98.1344C82.0188 98.3584 82.3948 98.4704 82.8268 98.4704C83.4588 98.4704 83.9468 98.2864 84.2908 97.9184C84.6428 97.5504 84.8188 97.0304 84.8188 96.3584V95.6744H84.7708C84.5708 95.9864 84.2868 96.2424 83.9188 96.4424C83.5588 96.6344 83.1468 96.7304 82.6828 96.7304C82.1548 96.7304 81.6708 96.5944 81.2308 96.3224C80.7988 96.0504 80.4548 95.6704 80.1988 95.1824C79.9428 94.6944 79.8148 94.1384 79.8148 93.5144C79.8148 92.8984 79.9428 92.3464 80.1988 91.8584C80.4548 91.3624 80.7988 90.9784 81.2308 90.7064C81.6708 90.4344 82.1548 90.2984 82.6828 90.2984C83.1468 90.2984 83.5588 90.3984 83.9188 90.5984C84.2868 90.7904 84.5708 91.0464 84.7708 91.3664H84.8188V90.4904H85.7908V96.3704C85.7908 97.3544 85.5188 98.1024 84.9748 98.6144C84.4308 99.1344 83.7148 99.3944 82.8268 99.3944ZM82.8268 95.8064C83.1948 95.8064 83.5268 95.7144 83.8228 95.5304C84.1268 95.3464 84.3668 95.0824 84.5428 94.7384C84.7268 94.3944 84.8188 93.9864 84.8188 93.5144C84.8188 93.0344 84.7268 92.6224 84.5428 92.2784C84.3668 91.9344 84.1268 91.6744 83.8228 91.4984C83.5268 91.3144 83.1948 91.2224 82.8268 91.2224C82.4588 91.2224 82.1228 91.3144 81.8188 91.4984C81.5148 91.6824 81.2708 91.9464 81.0868 92.2904C80.9108 92.6344 80.8228 93.0424 80.8228 93.5144C80.8228 93.9864 80.9108 94.3984 81.0868 94.7504C81.2708 95.0944 81.5148 95.3584 81.8188 95.5424C82.1228 95.7184 82.4588 95.8064 82.8268 95.8064ZM89.9644 96.8024C89.3804 96.8024 88.8564 96.6624 88.3924 96.3824C87.9284 96.1024 87.5644 95.7184 87.3004 95.2304C87.0444 94.7344 86.9164 94.1784 86.9164 93.5624C86.9164 92.9704 87.0364 92.4264 87.2764 91.9304C87.5244 91.4344 87.8724 91.0384 88.3204 90.7424C88.7684 90.4464 89.2884 90.2984 89.8804 90.2984C90.4804 90.2984 91.0004 90.4344 91.4404 90.7064C91.8804 90.9704 92.2164 91.3384 92.4484 91.8104C92.6884 92.2824 92.8084 92.8224 92.8084 93.4304C92.8084 93.5504 92.7964 93.6544 92.7724 93.7424H87.9364C87.9604 94.2064 88.0724 94.5984 88.2724 94.9184C88.4724 95.2384 88.7244 95.4784 89.0284 95.6384C89.3404 95.7984 89.6644 95.8784 90.0004 95.8784C90.7844 95.8784 91.3884 95.5104 91.8124 94.7744L92.6764 95.1944C92.4124 95.6904 92.0524 96.0824 91.5964 96.3704C91.1484 96.6584 90.6044 96.8024 89.9644 96.8024ZM91.7284 92.9024C91.7124 92.6464 91.6404 92.3904 91.5124 92.1344C91.3844 91.8784 91.1804 91.6624 90.9004 91.4864C90.6284 91.3104 90.2844 91.2224 89.8684 91.2224C89.3884 91.2224 88.9804 91.3784 88.6444 91.6904C88.3164 91.9944 88.1004 92.3984 87.9964 92.9024H91.7284ZM99.6112 96.8024C99.0112 96.8024 98.4712 96.6584 97.9912 96.3704C97.5112 96.0824 97.1352 95.6904 96.8632 95.1944C96.5992 94.6984 96.4672 94.1504 96.4672 93.5504C96.4672 92.9504 96.5992 92.4024 96.8632 91.9064C97.1352 91.4104 97.5112 91.0184 97.9912 90.7304C98.4712 90.4424 99.0112 90.2984 99.6112 90.2984C100.211 90.2984 100.751 90.4424 101.231 90.7304C101.711 91.0184 102.083 91.4104 102.347 91.9064C102.619 92.4024 102.755 92.9504 102.755 93.5504C102.755 94.1504 102.619 94.6984 102.347 95.1944C102.083 95.6904 101.711 96.0824 101.231 96.3704C100.751 96.6584 100.211 96.8024 99.6112 96.8024ZM99.6112 95.8784C99.9872 95.8784 100.335 95.7864 100.655 95.6024C100.983 95.4104 101.243 95.1384 101.435 94.7864C101.635 94.4344 101.735 94.0224 101.735 93.5504C101.735 93.0784 101.635 92.6664 101.435 92.3144C101.243 91.9624 100.983 91.6944 100.655 91.5104C100.335 91.3184 99.9872 91.2224 99.6112 91.2224C99.2352 91.2224 98.8832 91.3184 98.5552 91.5104C98.2272 91.6944 97.9632 91.9624 97.7632 92.3144C97.5712 92.6664 97.4752 93.0784 97.4752 93.5504C97.4752 94.0224 97.5712 94.4344 97.7632 94.7864C97.9632 95.1384 98.2272 95.4104 98.5552 95.6024C98.8832 95.7864 99.2352 95.8784 99.6112 95.8784ZM104.472 91.4144H103.344V90.4904H104.472V89.8304C104.472 89.4464 104.56 89.1104 104.736 88.8224C104.912 88.5344 105.148 88.3144 105.444 88.1624C105.74 88.0024 106.068 87.9224 106.428 87.9224C106.772 87.9224 107.072 87.9704 107.328 88.0664V89.0624C107.184 89.0064 107.048 88.9624 106.92 88.9304C106.792 88.8904 106.64 88.8704 106.464 88.8704C106.2 88.8704 105.972 88.9664 105.78 89.1584C105.588 89.3424 105.492 89.6024 105.492 89.9384V90.4904H107.064V91.4144H105.492V96.6104H104.472V91.4144ZM111.304 88.0184H116.272V88.9904H112.312V91.8344H115.888V92.7944H112.312V95.6384H116.272V96.6104H111.304V88.0184ZM117.592 90.4904H118.564V91.3904H118.612C118.78 91.0864 119.048 90.8304 119.416 90.6224C119.784 90.4064 120.176 90.2984 120.592 90.2984C121.328 90.2984 121.888 90.5144 122.272 90.9464C122.664 91.3704 122.86 91.9504 122.86 92.6864V96.6104H121.84V92.8424C121.84 92.2744 121.704 91.8624 121.432 91.6064C121.16 91.3504 120.788 91.2224 120.316 91.2224C119.988 91.2224 119.692 91.3144 119.428 91.4984C119.172 91.6824 118.972 91.9264 118.828 92.2304C118.684 92.5264 118.612 92.8384 118.612 93.1664V96.6104H117.592V90.4904ZM126.948 99.3944C126.228 99.3944 125.632 99.2264 125.16 98.8904C124.696 98.5544 124.384 98.1504 124.224 97.6784L125.148 97.2824C125.284 97.6344 125.508 97.9184 125.82 98.1344C126.14 98.3584 126.516 98.4704 126.948 98.4704C127.58 98.4704 128.068 98.2864 128.412 97.9184C128.764 97.5504 128.94 97.0304 128.94 96.3584V95.6744H128.892C128.692 95.9864 128.408 96.2424 128.04 96.4424C127.68 96.6344 127.268 96.7304 126.804 96.7304C126.276 96.7304 125.792 96.5944 125.352 96.3224C124.92 96.0504 124.576 95.6704 124.32 95.1824C124.064 94.6944 123.936 94.1384 123.936 93.5144C123.936 92.8984 124.064 92.3464 124.32 91.8584C124.576 91.3624 124.92 90.9784 125.352 90.7064C125.792 90.4344 126.276 90.2984 126.804 90.2984C127.268 90.2984 127.68 90.3984 128.04 90.5984C128.408 90.7904 128.692 91.0464 128.892 91.3664H128.94V90.4904H129.912V96.3704C129.912 97.3544 129.64 98.1024 129.096 98.6144C128.552 99.1344 127.836 99.3944 126.948 99.3944ZM126.948 95.8064C127.316 95.8064 127.648 95.7144 127.944 95.5304C128.248 95.3464 128.488 95.0824 128.664 94.7384C128.848 94.3944 128.94 93.9864 128.94 93.5144C128.94 93.0344 128.848 92.6224 128.664 92.2784C128.488 91.9344 128.248 91.6744 127.944 91.4984C127.648 91.3144 127.316 91.2224 126.948 91.2224C126.58 91.2224 126.244 91.3144 125.94 91.4984C125.636 91.6824 125.392 91.9464 125.208 92.2904C125.032 92.6344 124.944 93.0424 124.944 93.5144C124.944 93.9864 125.032 94.3984 125.208 94.7504C125.392 95.0944 125.636 95.3584 125.94 95.5424C126.244 95.7184 126.58 95.8064 126.948 95.8064ZM132.02 89.3624C131.82 89.3624 131.648 89.2904 131.504 89.1464C131.36 89.0024 131.288 88.8304 131.288 88.6304C131.288 88.4304 131.36 88.2624 131.504 88.1264C131.648 87.9824 131.82 87.9104 132.02 87.9104C132.22 87.9104 132.392 87.9824 132.536 88.1264C132.68 88.2624 132.752 88.4304 132.752 88.6304C132.752 88.8304 132.68 89.0024 132.536 89.1464C132.4 89.2904 132.228 89.3624 132.02 89.3624ZM131.516 90.4904H132.524V96.6104H131.516V90.4904ZM134.127 90.4904H135.099V91.3904H135.147C135.315 91.0864 135.583 90.8304 135.951 90.6224C136.319 90.4064 136.711 90.2984 137.127 90.2984C137.863 90.2984 138.423 90.5144 138.807 90.9464C139.199 91.3704 139.395 91.9504 139.395 92.6864V96.6104H138.375V92.8424C138.375 92.2744 138.239 91.8624 137.967 91.6064C137.695 91.3504 137.323 91.2224 136.851 91.2224C136.523 91.2224 136.227 91.3144 135.963 91.4984C135.707 91.6824 135.507 91.9264 135.363 92.2304C135.219 92.5264 135.147 92.8384 135.147 93.1664V96.6104H134.127V90.4904ZM143.578 96.8024C142.994 96.8024 142.47 96.6624 142.006 96.3824C141.542 96.1024 141.178 95.7184 140.914 95.2304C140.658 94.7344 140.53 94.1784 140.53 93.5624C140.53 92.9704 140.65 92.4264 140.89 91.9304C141.138 91.4344 141.486 91.0384 141.934 90.7424C142.382 90.4464 142.902 90.2984 143.494 90.2984C144.094 90.2984 144.614 90.4344 145.054 90.7064C145.494 90.9704 145.83 91.3384 146.062 91.8104C146.302 92.2824 146.422 92.8224 146.422 93.4304C146.422 93.5504 146.41 93.6544 146.386 93.7424H141.55C141.574 94.2064 141.686 94.5984 141.886 94.9184C142.086 95.2384 142.338 95.4784 142.642 95.6384C142.954 95.7984 143.278 95.8784 143.614 95.8784C144.398 95.8784 145.002 95.5104 145.426 94.7744L146.29 95.1944C146.026 95.6904 145.666 96.0824 145.21 96.3704C144.762 96.6584 144.218 96.8024 143.578 96.8024ZM145.342 92.9024C145.326 92.6464 145.254 92.3904 145.126 92.1344C144.998 91.8784 144.794 91.6624 144.514 91.4864C144.242 91.3104 143.898 91.2224 143.482 91.2224C143.002 91.2224 142.594 91.3784 142.258 91.6904C141.93 91.9944 141.714 92.3984 141.61 92.9024H145.342ZM150.398 96.8024C149.814 96.8024 149.29 96.6624 148.826 96.3824C148.362 96.1024 147.998 95.7184 147.734 95.2304C147.478 94.7344 147.35 94.1784 147.35 93.5624C147.35 92.9704 147.47 92.4264 147.71 91.9304C147.958 91.4344 148.306 91.0384 148.754 90.7424C149.202 90.4464 149.722 90.2984 150.314 90.2984C150.914 90.2984 151.434 90.4344 151.874 90.7064C152.314 90.9704 152.65 91.3384 152.882 91.8104C153.122 92.2824 153.242 92.8224 153.242 93.4304C153.242 93.5504 153.23 93.6544 153.206 93.7424H148.37C148.394 94.2064 148.506 94.5984 148.706 94.9184C148.906 95.2384 149.158 95.4784 149.462 95.6384C149.774 95.7984 150.098 95.8784 150.434 95.8784C151.218 95.8784 151.822 95.5104 152.246 94.7744L153.11 95.1944C152.846 95.6904 152.486 96.0824 152.03 96.3704C151.582 96.6584 151.038 96.8024 150.398 96.8024ZM152.162 92.9024C152.146 92.6464 152.074 92.3904 151.946 92.1344C151.818 91.8784 151.614 91.6624 151.334 91.4864C151.062 91.3104 150.718 91.2224 150.302 91.2224C149.822 91.2224 149.414 91.3784 149.078 91.6904C148.75 91.9944 148.534 92.3984 148.43 92.9024H152.162ZM154.436 90.4904H155.408V91.4744H155.456C155.576 91.1384 155.808 90.8624 156.152 90.6464C156.496 90.4224 156.856 90.3104 157.232 90.3104C157.512 90.3104 157.752 90.3504 157.952 90.4304V91.5344C157.696 91.4064 157.408 91.3424 157.088 91.3424C156.792 91.3424 156.52 91.4264 156.272 91.5944C156.024 91.7624 155.824 91.9904 155.672 92.2784C155.528 92.5584 155.456 92.8624 155.456 93.1904V96.6104H154.436V90.4904ZM159.536 89.3624C159.336 89.3624 159.164 89.2904 159.02 89.1464C158.876 89.0024 158.804 88.8304 158.804 88.6304C158.804 88.4304 158.876 88.2624 159.02 88.1264C159.164 87.9824 159.336 87.9104 159.536 87.9104C159.736 87.9104 159.908 87.9824 160.052 88.1264C160.196 88.2624 160.268 88.4304 160.268 88.6304C160.268 88.8304 160.196 89.0024 160.052 89.1464C159.916 89.2904 159.744 89.3624 159.536 89.3624ZM159.032 90.4904H160.04V96.6104H159.032V90.4904ZM161.643 90.4904H162.615V91.3904H162.663C162.831 91.0864 163.099 90.8304 163.467 90.6224C163.835 90.4064 164.227 90.2984 164.643 90.2984C165.379 90.2984 165.939 90.5144 166.323 90.9464C166.715 91.3704 166.911 91.9504 166.911 92.6864V96.6104H165.891V92.8424C165.891 92.2744 165.755 91.8624 165.483 91.6064C165.211 91.3504 164.839 91.2224 164.367 91.2224C164.039 91.2224 163.743 91.3144 163.479 91.4984C163.223 91.6824 163.023 91.9264 162.879 92.2304C162.735 92.5264 162.663 92.8384 162.663 93.1664V96.6104H161.643V90.4904ZM170.999 99.3944C170.279 99.3944 169.683 99.2264 169.211 98.8904C168.747 98.5544 168.435 98.1504 168.275 97.6784L169.199 97.2824C169.335 97.6344 169.559 97.9184 169.871 98.1344C170.191 98.3584 170.567 98.4704 170.999 98.4704C171.631 98.4704 172.119 98.2864 172.463 97.9184C172.815 97.5504 172.991 97.0304 172.991 96.3584V95.6744H172.943C172.743 95.9864 172.459 96.2424 172.091 96.4424C171.731 96.6344 171.319 96.7304 170.855 96.7304C170.327 96.7304 169.843 96.5944 169.403 96.3224C168.971 96.0504 168.627 95.6704 168.371 95.1824C168.115 94.6944 167.987 94.1384 167.987 93.5144C167.987 92.8984 168.115 92.3464 168.371 91.8584C168.627 91.3624 168.971 90.9784 169.403 90.7064C169.843 90.4344 170.327 90.2984 170.855 90.2984C171.319 90.2984 171.731 90.3984 172.091 90.5984C172.459 90.7904 172.743 91.0464 172.943 91.3664H172.991V90.4904H173.963V96.3704C173.963 97.3544 173.691 98.1024 173.147 98.6144C172.603 99.1344 171.887 99.3944 170.999 99.3944ZM170.999 95.8064C171.367 95.8064 171.699 95.7144 171.995 95.5304C172.299 95.3464 172.539 95.0824 172.715 94.7384C172.899 94.3944 172.991 93.9864 172.991 93.5144C172.991 93.0344 172.899 92.6224 172.715 92.2784C172.539 91.9344 172.299 91.6744 171.995 91.4984C171.699 91.3144 171.367 91.2224 170.999 91.2224C170.631 91.2224 170.295 91.3144 169.991 91.4984C169.687 91.6824 169.443 91.9464 169.259 92.2904C169.083 92.6344 168.995 93.0424 168.995 93.5144C168.995 93.9864 169.083 94.3984 169.259 94.7504C169.443 95.0944 169.687 95.3584 169.991 95.5424C170.295 95.7184 170.631 95.8064 170.999 95.8064ZM180.216 96.8024C179.768 96.8024 179.368 96.7144 179.016 96.5384C178.664 96.3624 178.392 96.1224 178.2 95.8184C178.008 95.5064 177.912 95.1544 177.912 94.7624C177.912 94.1144 178.156 93.6104 178.644 93.2504C179.132 92.8824 179.748 92.6984 180.492 92.6984C180.86 92.6984 181.2 92.7384 181.512 92.8184C181.832 92.8984 182.076 92.9904 182.244 93.0944V92.7224C182.244 92.2664 182.084 91.9024 181.764 91.6304C181.444 91.3504 181.04 91.2104 180.552 91.2104C180.208 91.2104 179.892 91.2864 179.604 91.4384C179.316 91.5824 179.088 91.7864 178.92 92.0504L178.152 91.4744C178.392 91.1064 178.72 90.8184 179.136 90.6104C179.56 90.4024 180.028 90.2984 180.54 90.2984C181.372 90.2984 182.024 90.5184 182.496 90.9584C182.976 91.3904 183.216 91.9824 183.216 92.7344V96.6104H182.244V95.7344H182.196C182.02 96.0304 181.756 96.2824 181.404 96.4904C181.052 96.6984 180.656 96.8024 180.216 96.8024ZM180.312 95.9024C180.656 95.9024 180.976 95.8144 181.272 95.6384C181.568 95.4624 181.804 95.2264 181.98 94.9304C182.156 94.6344 182.244 94.3104 182.244 93.9584C182.052 93.8304 181.816 93.7264 181.536 93.6464C181.256 93.5664 180.96 93.5264 180.648 93.5264C180.088 93.5264 179.664 93.6424 179.376 93.8744C179.096 94.1064 178.956 94.4064 178.956 94.7744C178.956 95.1104 179.084 95.3824 179.34 95.5904C179.596 95.7984 179.92 95.9024 180.312 95.9024ZM184.635 90.4904H185.607V91.3904H185.655C185.823 91.0864 186.091 90.8304 186.459 90.6224C186.827 90.4064 187.219 90.2984 187.635 90.2984C188.371 90.2984 188.931 90.5144 189.315 90.9464C189.707 91.3704 189.903 91.9504 189.903 92.6864V96.6104H188.883V92.8424C188.883 92.2744 188.747 91.8624 188.475 91.6064C188.203 91.3504 187.831 91.2224 187.359 91.2224C187.031 91.2224 186.735 91.3144 186.471 91.4984C186.215 91.6824 186.015 91.9264 185.871 92.2304C185.727 92.5264 185.655 92.8384 185.655 93.1664V96.6104H184.635V90.4904ZM193.953 96.8024C193.409 96.8024 192.913 96.6624 192.465 96.3824C192.025 96.1024 191.677 95.7184 191.421 95.2304C191.165 94.7344 191.037 94.1744 191.037 93.5504C191.037 92.9344 191.165 92.3784 191.421 91.8824C191.677 91.3864 192.025 90.9984 192.465 90.7184C192.913 90.4384 193.409 90.2984 193.953 90.2984C194.425 90.2984 194.845 90.4064 195.213 90.6224C195.581 90.8304 195.861 91.0904 196.053 91.4024H196.101L196.053 90.5504V88.0184H197.073V96.6104H196.101V95.7104H196.053C195.861 96.0144 195.581 96.2744 195.213 96.4904C194.845 96.6984 194.425 96.8024 193.953 96.8024ZM194.073 95.8784C194.433 95.8784 194.765 95.7824 195.069 95.5904C195.381 95.3984 195.629 95.1264 195.813 94.7744C196.005 94.4224 196.101 94.0144 196.101 93.5504C196.101 93.0864 196.005 92.6784 195.813 92.3264C195.629 91.9744 195.381 91.7024 195.069 91.5104C194.765 91.3184 194.433 91.2224 194.073 91.2224C193.721 91.2224 193.389 91.3184 193.077 91.5104C192.765 91.7024 192.513 91.9784 192.321 92.3384C192.137 92.6904 192.045 93.0944 192.045 93.5504C192.045 94.0064 192.137 94.4144 192.321 94.7744C192.513 95.1264 192.765 95.3984 193.077 95.5904C193.389 95.7824 193.721 95.8784 194.073 95.8784ZM201.573 88.0184H203.049L205.785 95.0624H205.833L208.569 88.0184H210.045V96.6104H209.037V91.1504L209.085 89.5184H209.037L206.229 96.6104H205.389L202.581 89.5184H202.533L202.581 91.1504V96.6104H201.573V88.0184ZM213.544 96.8024C213.096 96.8024 212.696 96.7144 212.344 96.5384C211.992 96.3624 211.72 96.1224 211.528 95.8184C211.336 95.5064 211.24 95.1544 211.24 94.7624C211.24 94.1144 211.484 93.6104 211.972 93.2504C212.46 92.8824 213.076 92.6984 213.82 92.6984C214.188 92.6984 214.528 92.7384 214.84 92.8184C215.16 92.8984 215.404 92.9904 215.572 93.0944V92.7224C215.572 92.2664 215.412 91.9024 215.092 91.6304C214.772 91.3504 214.368 91.2104 213.88 91.2104C213.536 91.2104 213.22 91.2864 212.932 91.4384C212.644 91.5824 212.416 91.7864 212.248 92.0504L211.48 91.4744C211.72 91.1064 212.048 90.8184 212.464 90.6104C212.888 90.4024 213.356 90.2984 213.868 90.2984C214.7 90.2984 215.352 90.5184 215.824 90.9584C216.304 91.3904 216.544 91.9824 216.544 92.7344V96.6104H215.572V95.7344H215.524C215.348 96.0304 215.084 96.2824 214.732 96.4904C214.38 96.6984 213.984 96.8024 213.544 96.8024ZM213.64 95.9024C213.984 95.9024 214.304 95.8144 214.6 95.6384C214.896 95.4624 215.132 95.2264 215.308 94.9304C215.484 94.6344 215.572 94.3104 215.572 93.9584C215.38 93.8304 215.144 93.7264 214.864 93.6464C214.584 93.5664 214.288 93.5264 213.976 93.5264C213.416 93.5264 212.992 93.6424 212.704 93.8744C212.424 94.1064 212.284 94.4064 212.284 94.7744C212.284 95.1104 212.412 95.3824 212.668 95.5904C212.924 95.7984 213.248 95.9024 213.64 95.9024ZM217.963 90.4904H218.935V91.3904H218.983C219.151 91.0864 219.419 90.8304 219.787 90.6224C220.155 90.4064 220.547 90.2984 220.963 90.2984C221.699 90.2984 222.259 90.5144 222.643 90.9464C223.035 91.3704 223.231 91.9504 223.231 92.6864V96.6104H222.211V92.8424C222.211 92.2744 222.075 91.8624 221.803 91.6064C221.531 91.3504 221.159 91.2224 220.687 91.2224C220.359 91.2224 220.063 91.3144 219.799 91.4984C219.543 91.6824 219.343 91.9264 219.199 92.2304C219.055 92.5264 218.983 92.8384 218.983 93.1664V96.6104H217.963V90.4904ZM226.587 96.8024C226.139 96.8024 225.739 96.7144 225.387 96.5384C225.035 96.3624 224.763 96.1224 224.571 95.8184C224.379 95.5064 224.283 95.1544 224.283 94.7624C224.283 94.1144 224.527 93.6104 225.015 93.2504C225.503 92.8824 226.119 92.6984 226.863 92.6984C227.231 92.6984 227.571 92.7384 227.883 92.8184C228.203 92.8984 228.447 92.9904 228.615 93.0944V92.7224C228.615 92.2664 228.455 91.9024 228.135 91.6304C227.815 91.3504 227.411 91.2104 226.923 91.2104C226.579 91.2104 226.263 91.2864 225.975 91.4384C225.687 91.5824 225.459 91.7864 225.291 92.0504L224.523 91.4744C224.763 91.1064 225.091 90.8184 225.507 90.6104C225.931 90.4024 226.399 90.2984 226.911 90.2984C227.743 90.2984 228.395 90.5184 228.867 90.9584C229.347 91.3904 229.587 91.9824 229.587 92.7344V96.6104H228.615V95.7344H228.567C228.391 96.0304 228.127 96.2824 227.775 96.4904C227.423 96.6984 227.027 96.8024 226.587 96.8024ZM226.683 95.9024C227.027 95.9024 227.347 95.8144 227.643 95.6384C227.939 95.4624 228.175 95.2264 228.351 94.9304C228.527 94.6344 228.615 94.3104 228.615 93.9584C228.423 93.8304 228.187 93.7264 227.907 93.6464C227.627 93.5664 227.331 93.5264 227.019 93.5264C226.459 93.5264 226.035 93.6424 225.747 93.8744C225.467 94.1064 225.327 94.4064 225.327 94.7744C225.327 95.1104 225.455 95.3824 225.711 95.5904C225.967 95.7984 226.291 95.9024 226.683 95.9024ZM233.635 99.3944C232.915 99.3944 232.319 99.2264 231.847 98.8904C231.383 98.5544 231.071 98.1504 230.911 97.6784L231.835 97.2824C231.971 97.6344 232.195 97.9184 232.507 98.1344C232.827 98.3584 233.203 98.4704 233.635 98.4704C234.267 98.4704 234.755 98.2864 235.099 97.9184C235.451 97.5504 235.627 97.0304 235.627 96.3584V95.6744H235.579C235.379 95.9864 235.095 96.2424 234.727 96.4424C234.367 96.6344 233.955 96.7304 233.491 96.7304C232.963 96.7304 232.479 96.5944 232.039 96.3224C231.607 96.0504 231.263 95.6704 231.007 95.1824C230.751 94.6944 230.623 94.1384 230.623 93.5144C230.623 92.8984 230.751 92.3464 231.007 91.8584C231.263 91.3624 231.607 90.9784 232.039 90.7064C232.479 90.4344 232.963 90.2984 233.491 90.2984C233.955 90.2984 234.367 90.3984 234.727 90.5984C235.095 90.7904 235.379 91.0464 235.579 91.3664H235.627V90.4904H236.599V96.3704C236.599 97.3544 236.327 98.1024 235.783 98.6144C235.239 99.1344 234.523 99.3944 233.635 99.3944ZM233.635 95.8064C234.003 95.8064 234.335 95.7144 234.631 95.5304C234.935 95.3464 235.175 95.0824 235.351 94.7384C235.535 94.3944 235.627 93.9864 235.627 93.5144C235.627 93.0344 235.535 92.6224 235.351 92.2784C235.175 91.9344 234.935 91.6744 234.631 91.4984C234.335 91.3144 234.003 91.2224 233.635 91.2224C233.267 91.2224 232.931 91.3144 232.627 91.4984C232.323 91.6824 232.079 91.9464 231.895 92.2904C231.719 92.6344 231.631 93.0424 231.631 93.5144C231.631 93.9864 231.719 94.3984 231.895 94.7504C232.079 95.0944 232.323 95.3584 232.627 95.5424C232.931 95.7184 233.267 95.8064 233.635 95.8064ZM240.773 96.8024C240.189 96.8024 239.665 96.6624 239.201 96.3824C238.737 96.1024 238.373 95.7184 238.109 95.2304C237.853 94.7344 237.725 94.1784 237.725 93.5624C237.725 92.9704 237.845 92.4264 238.085 91.9304C238.333 91.4344 238.681 91.0384 239.129 90.7424C239.577 90.4464 240.097 90.2984 240.689 90.2984C241.289 90.2984 241.809 90.4344 242.249 90.7064C242.689 90.9704 243.025 91.3384 243.257 91.8104C243.497 92.2824 243.617 92.8224 243.617 93.4304C243.617 93.5504 243.605 93.6544 243.581 93.7424H238.745C238.769 94.2064 238.881 94.5984 239.081 94.9184C239.281 95.2384 239.533 95.4784 239.837 95.6384C240.149 95.7984 240.473 95.8784 240.809 95.8784C241.593 95.8784 242.197 95.5104 242.621 94.7744L243.485 95.1944C243.221 95.6904 242.861 96.0824 242.405 96.3704C241.957 96.6584 241.413 96.8024 240.773 96.8024ZM242.537 92.9024C242.521 92.6464 242.449 92.3904 242.321 92.1344C242.193 91.8784 241.989 91.6624 241.709 91.4864C241.437 91.3104 241.093 91.2224 240.677 91.2224C240.197 91.2224 239.789 91.3784 239.453 91.6904C239.125 91.9944 238.909 92.3984 238.805 92.9024H242.537ZM244.811 90.4904H245.783V91.3904H245.831C246.007 91.0784 246.271 90.8184 246.623 90.6104C246.975 90.4024 247.347 90.2984 247.739 90.2984C248.187 90.2984 248.575 90.4064 248.903 90.6224C249.239 90.8384 249.479 91.1264 249.623 91.4864C249.839 91.1264 250.123 90.8384 250.475 90.6224C250.835 90.4064 251.251 90.2984 251.723 90.2984C252.427 90.2984 252.955 90.5144 253.307 90.9464C253.667 91.3704 253.847 91.9504 253.847 92.6864V96.6104H252.839V92.8424C252.839 92.2744 252.723 91.8624 252.491 91.6064C252.259 91.3504 251.915 91.2224 251.459 91.2224C251.155 91.2224 250.879 91.3104 250.631 91.4864C250.383 91.6624 250.187 91.8984 250.043 92.1944C249.907 92.4904 249.839 92.8104 249.839 93.1544V96.6104H248.819V92.8544C248.819 92.2784 248.703 91.8624 248.471 91.6064C248.239 91.3504 247.899 91.2224 247.451 91.2224C247.147 91.2224 246.871 91.3144 246.623 91.4984C246.375 91.6744 246.179 91.9144 246.035 92.2184C245.899 92.5144 245.831 92.8344 245.831 93.1784V96.6104H244.811V90.4904ZM258.035 96.8024C257.451 96.8024 256.927 96.6624 256.463 96.3824C255.999 96.1024 255.635 95.7184 255.371 95.2304C255.115 94.7344 254.987 94.1784 254.987 93.5624C254.987 92.9704 255.107 92.4264 255.347 91.9304C255.595 91.4344 255.943 91.0384 256.391 90.7424C256.839 90.4464 257.359 90.2984 257.951 90.2984C258.551 90.2984 259.071 90.4344 259.511 90.7064C259.951 90.9704 260.287 91.3384 260.519 91.8104C260.759 92.2824 260.879 92.8224 260.879 93.4304C260.879 93.5504 260.867 93.6544 260.843 93.7424H256.007C256.031 94.2064 256.143 94.5984 256.343 94.9184C256.543 95.2384 256.795 95.4784 257.099 95.6384C257.411 95.7984 257.735 95.8784 258.071 95.8784C258.855 95.8784 259.459 95.5104 259.883 94.7744L260.747 95.1944C260.483 95.6904 260.123 96.0824 259.667 96.3704C259.219 96.6584 258.675 96.8024 258.035 96.8024ZM259.799 92.9024C259.783 92.6464 259.711 92.3904 259.583 92.1344C259.455 91.8784 259.251 91.6624 258.971 91.4864C258.699 91.3104 258.355 91.2224 257.939 91.2224C257.459 91.2224 257.051 91.3784 256.715 91.6904C256.387 91.9944 256.171 92.3984 256.067 92.9024H259.799ZM262.072 90.4904H263.044V91.3904H263.092C263.26 91.0864 263.528 90.8304 263.896 90.6224C264.264 90.4064 264.656 90.2984 265.072 90.2984C265.808 90.2984 266.368 90.5144 266.752 90.9464C267.144 91.3704 267.34 91.9504 267.34 92.6864V96.6104H266.32V92.8424C266.32 92.2744 266.184 91.8624 265.912 91.6064C265.64 91.3504 265.268 91.2224 264.796 91.2224C264.468 91.2224 264.172 91.3144 263.908 91.4984C263.652 91.6824 263.452 91.9264 263.308 92.2304C263.164 92.5264 263.092 92.8384 263.092 93.1664V96.6104H262.072V90.4904ZM270.846 96.7064C270.598 96.7064 270.366 96.6664 270.15 96.5864C269.942 96.5064 269.766 96.3984 269.622 96.2624C269.462 96.1104 269.342 95.9344 269.262 95.7344C269.182 95.5344 269.142 95.2904 269.142 95.0024V91.4144H268.074V90.4904H269.142V88.7624H270.162V90.4904H271.65V91.4144H270.162V94.7504C270.162 95.0864 270.226 95.3344 270.354 95.4944C270.506 95.6704 270.726 95.7584 271.014 95.7584C271.246 95.7584 271.47 95.6904 271.686 95.5544V96.5504C271.566 96.6064 271.442 96.6464 271.314 96.6704C271.194 96.6944 271.038 96.7064 270.846 96.7064Z" fill="white"/>
</svg>
