<svg width="304" height="120" viewBox="0 0 304 120" fill="none" xmlns="http://www.w3.org/2000/svg">
<rect width="304" height="120" rx="6" fill="#E8EAED"/>
<path d="M34.0871 75.1403C32.9783 75.1403 31.9564 74.874 31.0216 74.3413C30.0867 73.8086 29.342 73.0803 28.7876 72.1563C28.2441 71.2214 27.9723 70.1833 27.9723 69.0418C27.9723 67.9004 28.2441 66.8677 28.7876 65.9437C29.342 65.0088 30.0867 64.275 31.0216 63.7424C31.9564 63.2097 32.9783 62.9434 34.0871 62.9434C34.9676 62.9434 35.7884 63.101 36.5493 63.4163C37.3102 63.7315 37.9462 64.1718 38.4571 64.737L37.1852 66.0089C36.8048 65.585 36.3482 65.2588 35.8155 65.0306C35.2937 64.8023 34.7122 64.6881 34.0708 64.6881C33.3207 64.6881 32.6195 64.8675 31.9673 65.2262C31.3151 65.585 30.7933 66.0959 30.4019 66.759C30.0106 67.4221 29.8149 68.1831 29.8149 69.0418C29.8149 69.9006 30.0106 70.6616 30.4019 71.3247C30.7933 71.9878 31.3151 72.4987 31.9673 72.8574C32.6195 73.2162 33.3261 73.3955 34.0871 73.3955C34.7828 73.3955 35.3644 73.2923 35.8318 73.0857C36.2993 72.8792 36.7178 72.602 37.0874 72.2541C37.3266 72.015 37.5277 71.716 37.6907 71.3573C37.8647 70.9986 37.9788 70.6072 38.0332 70.1833H34.0708V68.5527H39.7616C39.8159 68.857 39.8431 69.1723 39.8431 69.4984C39.8431 70.2376 39.729 70.9496 39.5007 71.6345C39.2724 72.3085 38.9082 72.8955 38.4082 73.3955C37.3102 74.5587 35.8699 75.1403 34.0871 75.1403ZM45.4753 75.1403C44.6383 75.1403 43.8882 74.9501 43.2251 74.5696C42.562 74.1782 42.0456 73.6456 41.676 72.9716C41.3064 72.2976 41.1216 71.5475 41.1216 70.7214C41.1216 69.8952 41.3064 69.1451 41.676 68.4711C42.0456 67.7971 42.562 67.2699 43.2251 66.8894C43.8882 66.4981 44.6383 66.3024 45.4753 66.3024C46.3124 66.3024 47.0624 66.4981 47.7256 66.8894C48.3887 67.2808 48.905 67.8134 49.2746 68.4874C49.6442 69.1614 49.829 69.9061 49.829 70.7214C49.829 71.5475 49.6442 72.2976 49.2746 72.9716C48.905 73.6456 48.3887 74.1782 47.7256 74.5696C47.0624 74.9501 46.3124 75.1403 45.4753 75.1403ZM45.4753 73.4934C45.9319 73.4934 46.3559 73.3847 46.7472 73.1673C47.1385 72.939 47.4484 72.6183 47.6766 72.2052C47.9158 71.7812 48.0354 71.2866 48.0354 70.7214C48.0354 70.1561 47.9158 69.6669 47.6766 69.2538C47.4484 68.8407 47.1385 68.5255 46.7472 68.3081C46.3559 68.0798 45.9319 67.9656 45.4753 67.9656C45.0188 67.9656 44.5948 68.0798 44.2035 68.3081C43.8121 68.5255 43.4969 68.8407 43.2577 69.2538C43.0294 69.6669 42.9153 70.1561 42.9153 70.7214C42.9153 71.2866 43.0294 71.7812 43.2577 72.2052C43.4969 72.6183 43.8121 72.939 44.2035 73.1673C44.5948 73.3847 45.0188 73.4934 45.4753 73.4934ZM55.38 75.1403C54.5429 75.1403 53.7928 74.9501 53.1297 74.5696C52.4666 74.1782 51.9503 73.6456 51.5807 72.9716C51.2111 72.2976 51.0263 71.5475 51.0263 70.7214C51.0263 69.8952 51.2111 69.1451 51.5807 68.4711C51.9503 67.7971 52.4666 67.2699 53.1297 66.8894C53.7928 66.4981 54.5429 66.3024 55.38 66.3024C56.217 66.3024 56.9671 66.4981 57.6302 66.8894C58.2933 67.2808 58.8097 67.8134 59.1793 68.4874C59.5489 69.1614 59.7337 69.9061 59.7337 70.7214C59.7337 71.5475 59.5489 72.2976 59.1793 72.9716C58.8097 73.6456 58.2933 74.1782 57.6302 74.5696C56.9671 74.9501 56.217 75.1403 55.38 75.1403ZM55.38 73.4934C55.8365 73.4934 56.2605 73.3847 56.6518 73.1673C57.0432 72.939 57.353 72.6183 57.5813 72.2052C57.8204 71.7812 57.94 71.2866 57.94 70.7214C57.94 70.1561 57.8204 69.6669 57.5813 69.2538C57.353 68.8407 57.0432 68.5255 56.6518 68.3081C56.2605 68.0798 55.8365 67.9656 55.38 67.9656C54.9234 67.9656 54.4994 68.0798 54.1081 68.3081C53.7167 68.5255 53.4015 68.8407 53.1623 69.2538C52.9341 69.6669 52.8199 70.1561 52.8199 70.7214C52.8199 71.2866 52.9341 71.7812 53.1623 72.2052C53.4015 72.6183 53.7167 72.939 54.1081 73.1673C54.4994 73.3847 54.9234 73.4934 55.38 73.4934ZM65.1378 78.6624C64.116 78.6624 63.2681 78.4287 62.5941 77.9612C61.931 77.4938 61.4853 76.9394 61.257 76.298L62.9365 75.5969C63.1105 76.0317 63.3877 76.3795 63.7681 76.6404C64.1595 76.9122 64.6161 77.0481 65.1378 77.0481C65.8988 77.0481 66.4912 76.8198 66.9152 76.3632C67.35 75.9175 67.5674 75.287 67.5674 74.4717V73.7054H67.4696C67.1978 74.0967 66.8337 74.4065 66.3771 74.6348C65.9314 74.8522 65.4151 74.9609 64.828 74.9609C64.1323 74.9609 63.4855 74.7816 62.8876 74.4228C62.2897 74.0641 61.8114 73.5586 61.4527 72.9064C61.1048 72.2433 60.9309 71.4877 60.9309 70.6398C60.9309 69.7919 61.1048 69.0418 61.4527 68.3896C61.8114 67.7265 62.2897 67.2156 62.8876 66.8568C63.4855 66.4872 64.1323 66.3024 64.828 66.3024C65.4042 66.3024 65.9205 66.4166 66.3771 66.6448C66.8337 66.8731 67.1978 67.1829 67.4696 67.5743H67.5674V66.5633H69.2796V74.4228C69.2796 75.3251 69.1057 76.0915 68.7578 76.722C68.4099 77.3633 67.9207 77.8471 67.2902 78.1732C66.6706 78.4993 65.9532 78.6624 65.1378 78.6624ZM65.1542 73.3303C65.589 73.3303 65.9912 73.2271 66.3608 73.0205C66.7304 72.8031 67.0239 72.4933 67.2413 72.0911C67.4587 71.678 67.5674 71.1942 67.5674 70.6398C67.5674 69.7919 67.3337 69.1342 66.8663 68.6668C66.4097 68.1885 65.839 67.9493 65.1542 67.9493C64.7085 67.9493 64.3008 68.058 63.9312 68.2755C63.5616 68.482 63.2681 68.7864 63.0507 69.1886C62.8333 69.5908 62.7246 70.0746 62.7246 70.6398C62.7246 71.2051 62.8333 71.6888 63.0507 72.0911C63.2681 72.4933 63.5616 72.8031 63.9312 73.0205C64.3008 73.2271 64.7085 73.3303 65.1542 73.3303ZM71.3876 63.2043H73.1813V74.8794H71.3876V63.2043ZM79.0087 75.1403C78.1934 75.1403 77.4596 74.9501 76.8074 74.5696C76.166 74.1891 75.6605 73.6673 75.2909 73.0042C74.9322 72.3302 74.7528 71.5747 74.7528 70.7377C74.7528 69.9441 74.9267 69.2103 75.2746 68.5363C75.6333 67.8515 76.1279 67.308 76.7584 66.9057C77.3889 66.5035 78.1064 66.3024 78.9108 66.3024C79.7479 66.3024 80.4708 66.4872 81.0795 66.8568C81.6992 67.2264 82.1666 67.7319 82.4819 68.3733C82.808 69.0147 82.971 69.7376 82.971 70.542C82.971 70.6942 82.9547 70.8844 82.9221 71.1127H76.5465C76.6117 71.8845 76.8835 72.4824 77.3618 72.9064C77.8509 73.3195 78.4162 73.526 79.0576 73.526C79.5685 73.526 80.0088 73.4119 80.3784 73.1836C80.7589 72.9444 81.0632 72.6237 81.2915 72.2215L82.808 72.939C82.4166 73.6238 81.9057 74.1619 81.2752 74.5533C80.6447 74.9446 79.8892 75.1403 79.0087 75.1403ZM81.1448 69.743C81.123 69.4495 81.0306 69.1614 80.8676 68.8788C80.7045 68.5853 80.4545 68.3407 80.1175 68.145C79.7914 67.9493 79.3892 67.8515 78.9108 67.8515C78.3347 67.8515 77.8455 68.0254 77.4433 68.3733C77.052 68.7103 76.7802 69.1668 76.628 69.743H81.1448ZM88.7197 63.2043H92.4538C93.6604 63.2043 94.7149 63.4489 95.6171 63.938C96.5194 64.4272 97.2097 65.1175 97.688 66.0089C98.1772 66.8894 98.4218 67.9004 98.4218 69.0418C98.4218 70.1833 98.1772 71.1997 97.688 72.0911C97.2097 72.9716 96.5194 73.6564 95.6171 74.1456C94.7149 74.6348 93.6604 74.8794 92.4538 74.8794H88.7197V63.2043ZM92.4212 73.1346C93.7256 73.1346 94.742 72.7759 95.4704 72.0585C96.2096 71.3301 96.5792 70.3246 96.5792 69.0418C96.5792 67.77 96.2096 66.7699 95.4704 66.0415C94.742 65.3132 93.7256 64.949 92.4212 64.949H90.546V73.1346H92.4212ZM103.77 75.1403C102.955 75.1403 102.221 74.9501 101.569 74.5696C100.928 74.1891 100.422 73.6673 100.052 73.0042C99.6938 72.3302 99.5144 71.5747 99.5144 70.7377C99.5144 69.9441 99.6883 69.2103 100.036 68.5363C100.395 67.8515 100.89 67.308 101.52 66.9057C102.151 66.5035 102.868 66.3024 103.672 66.3024C104.509 66.3024 105.232 66.4872 105.841 66.8568C106.461 67.2264 106.928 67.7319 107.243 68.3733C107.57 69.0147 107.733 69.7376 107.733 70.542C107.733 70.6942 107.716 70.8844 107.684 71.1127H101.308C101.373 71.8845 101.645 72.4824 102.123 72.9064C102.613 73.3195 103.178 73.526 103.819 73.526C104.33 73.526 104.77 73.4119 105.14 73.1836C105.52 72.9444 105.825 72.6237 106.053 72.2215L107.57 72.939C107.178 73.6238 106.667 74.1619 106.037 74.5533C105.406 74.9446 104.651 75.1403 103.77 75.1403ZM105.906 69.743C105.885 69.4495 105.792 69.1614 105.629 68.8788C105.466 68.5853 105.216 68.3407 104.879 68.145C104.553 67.9493 104.151 67.8515 103.672 67.8515C103.096 67.8515 102.607 68.0254 102.205 68.3733C101.814 68.7103 101.542 69.1668 101.39 69.743H105.906ZM108.277 66.5633H110.283L112.582 72.5639H112.647L114.995 66.5633H116.952L113.495 74.8794H111.702L108.277 66.5633ZM121.669 75.1403C120.853 75.1403 120.12 74.9501 119.467 74.5696C118.826 74.1891 118.321 73.6673 117.951 73.0042C117.592 72.3302 117.413 71.5747 117.413 70.7377C117.413 69.9441 117.587 69.2103 117.935 68.5363C118.293 67.8515 118.788 67.308 119.418 66.9057C120.049 66.5035 120.766 66.3024 121.571 66.3024C122.408 66.3024 123.131 66.4872 123.74 66.8568C124.359 67.2264 124.827 67.7319 125.142 68.3733C125.468 69.0147 125.631 69.7376 125.631 70.542C125.631 70.6942 125.615 70.8844 125.582 71.1127H119.206C119.272 71.8845 119.543 72.4824 120.022 72.9064C120.511 73.3195 121.076 73.526 121.718 73.526C122.229 73.526 122.669 73.4119 123.038 73.1836C123.419 72.9444 123.723 72.6237 123.952 72.2215L125.468 72.939C125.077 73.6238 124.566 74.1619 123.935 74.5533C123.305 74.9446 122.549 75.1403 121.669 75.1403ZM123.805 69.743C123.783 69.4495 123.691 69.1614 123.528 68.8788C123.365 68.5853 123.114 68.3407 122.777 68.145C122.451 67.9493 122.049 67.8515 121.571 67.8515C120.995 67.8515 120.506 68.0254 120.103 68.3733C119.712 68.7103 119.44 69.1668 119.288 69.743H123.805ZM127.264 63.2043H129.058V74.8794H127.264V63.2043ZM134.983 75.1403C134.146 75.1403 133.396 74.9501 132.733 74.5696C132.07 74.1782 131.554 73.6456 131.184 72.9716C130.814 72.2976 130.63 71.5475 130.63 70.7214C130.63 69.8952 130.814 69.1451 131.184 68.4711C131.554 67.7971 132.07 67.2699 132.733 66.8894C133.396 66.4981 134.146 66.3024 134.983 66.3024C135.82 66.3024 136.57 66.4981 137.234 66.8894C137.897 67.2808 138.413 67.8134 138.783 68.4874C139.152 69.1614 139.337 69.9061 139.337 70.7214C139.337 71.5475 139.152 72.2976 138.783 72.9716C138.413 73.6456 137.897 74.1782 137.234 74.5696C136.57 74.9501 135.82 75.1403 134.983 75.1403ZM134.983 73.4934C135.44 73.4934 135.864 73.3847 136.255 73.1673C136.647 72.939 136.956 72.6183 137.185 72.2052C137.424 71.7812 137.543 71.2866 137.543 70.7214C137.543 70.1561 137.424 69.6669 137.185 69.2538C136.956 68.8407 136.647 68.5255 136.255 68.3081C135.864 68.0798 135.44 67.9656 134.983 67.9656C134.527 67.9656 134.103 68.0798 133.711 68.3081C133.32 68.5255 133.005 68.8407 132.766 69.2538C132.537 69.6669 132.423 70.1561 132.423 70.7214C132.423 71.2866 132.537 71.7812 132.766 72.2052C133.005 72.6183 133.32 72.939 133.711 73.1673C134.103 73.3847 134.527 73.4934 134.983 73.4934ZM140.846 66.5633H142.558V67.6558H142.64C142.879 67.2753 143.232 66.9547 143.7 66.6938C144.167 66.4329 144.694 66.3024 145.281 66.3024C146.031 66.3024 146.711 66.4927 147.319 66.8731C147.928 67.2536 148.407 67.7808 148.754 68.4548C149.113 69.1179 149.293 69.8734 149.293 70.7214C149.293 71.5693 149.113 72.3302 148.754 73.0042C148.407 73.6673 147.928 74.1891 147.319 74.5696C146.711 74.9501 146.031 75.1403 145.281 75.1403C144.694 75.1403 144.167 75.0098 143.7 74.7489C143.232 74.488 142.879 74.1728 142.64 73.8032H142.558L142.64 74.9609V78.4015H140.846V66.5633ZM145.02 73.4934C145.455 73.4934 145.863 73.3792 146.243 73.151C146.624 72.9227 146.928 72.5966 147.156 72.1726C147.385 71.7486 147.499 71.2649 147.499 70.7214C147.499 70.1778 147.385 69.6995 147.156 69.2864C146.928 68.8625 146.624 68.5363 146.243 68.3081C145.863 68.0798 145.455 67.9656 145.02 67.9656C144.586 67.9656 144.178 68.0798 143.797 68.3081C143.428 68.5363 143.129 68.8625 142.901 69.2864C142.672 69.6995 142.558 70.1778 142.558 70.7214C142.558 71.2649 142.672 71.7486 142.901 72.1726C143.129 72.5966 143.428 72.9227 143.797 73.151C144.178 73.3792 144.586 73.4934 145.02 73.4934ZM154.727 75.1403C153.911 75.1403 153.178 74.9501 152.525 74.5696C151.884 74.1891 151.378 73.6673 151.009 73.0042C150.65 72.3302 150.471 71.5747 150.471 70.7377C150.471 69.9441 150.645 69.2103 150.993 68.5363C151.351 67.8515 151.846 67.308 152.476 66.9057C153.107 66.5035 153.824 66.3024 154.629 66.3024C155.466 66.3024 156.189 66.4872 156.797 66.8568C157.417 67.2264 157.885 67.7319 158.2 68.3733C158.526 69.0147 158.689 69.7376 158.689 70.542C158.689 70.6942 158.673 70.8844 158.64 71.1127H152.264C152.33 71.8845 152.601 72.4824 153.08 72.9064C153.569 73.3195 154.134 73.526 154.776 73.526C155.286 73.526 155.727 73.4119 156.096 73.1836C156.477 72.9444 156.781 72.6237 157.009 72.2215L158.526 72.939C158.135 73.6238 157.624 74.1619 156.993 74.5533C156.363 74.9446 155.607 75.1403 154.727 75.1403ZM156.863 69.743C156.841 69.4495 156.749 69.1614 156.586 68.8788C156.422 68.5853 156.172 68.3407 155.835 68.145C155.509 67.9493 155.107 67.8515 154.629 67.8515C154.053 67.8515 153.563 68.0254 153.161 68.3733C152.77 68.7103 152.498 69.1668 152.346 69.743H156.863ZM160.322 66.5633H162.035V67.7863H162.116C162.301 67.3623 162.622 67.0145 163.078 66.7427C163.535 66.46 164.018 66.3187 164.529 66.3187C164.932 66.3187 165.269 66.3731 165.54 66.4818V68.3407C165.062 68.1667 164.633 68.0798 164.252 68.0798C163.839 68.0798 163.469 68.1885 163.143 68.4059C162.828 68.6233 162.578 68.9168 162.393 69.2864C162.208 69.6452 162.116 70.0419 162.116 70.4768V74.8794H160.322V66.5633ZM173.912 75.1403C172.944 75.1403 172.075 74.8577 171.303 74.2924C170.531 73.7271 169.998 72.9335 169.705 71.9117L171.433 71.2105C171.607 71.8519 171.912 72.3791 172.346 72.7922C172.792 73.1944 173.325 73.3955 173.944 73.3955C174.521 73.3955 175.01 73.2488 175.412 72.9553C175.814 72.6509 176.015 72.2378 176.015 71.716C176.015 71.2377 175.836 70.8464 175.477 70.542C175.129 70.2267 174.515 69.9115 173.635 69.5962L172.901 69.3353C172.118 69.0636 171.46 68.6722 170.928 68.1613C170.395 67.6504 170.129 66.9764 170.129 66.1394C170.129 65.5632 170.286 65.0306 170.602 64.5414C170.917 64.0522 171.352 63.6663 171.906 63.3836C172.471 63.0901 173.107 62.9434 173.814 62.9434C174.836 62.9434 175.651 63.1934 176.26 63.6935C176.869 64.1826 177.276 64.737 177.483 65.3567L175.836 66.0578C175.716 65.6882 175.488 65.3621 175.151 65.0795C174.814 64.7968 174.379 64.6555 173.847 64.6555C173.314 64.6555 172.863 64.7914 172.493 65.0632C172.134 65.3349 171.955 65.6828 171.955 66.1067C171.955 66.509 172.118 66.8405 172.444 67.1014C172.77 67.3623 173.281 67.6123 173.977 67.8515L174.711 68.0961C175.711 68.4439 176.483 68.9005 177.026 69.4658C177.581 70.0202 177.858 70.7648 177.858 71.6997C177.858 72.4607 177.662 73.102 177.271 73.6238C176.88 74.1348 176.379 74.5152 175.771 74.7653C175.173 75.0153 174.553 75.1403 173.912 75.1403ZM182.648 75.0098C182.278 75.0098 181.93 74.9501 181.604 74.8305C181.278 74.7109 181.012 74.5533 180.805 74.3576C180.338 73.8902 180.104 73.2542 180.104 72.4498V68.145H178.653V66.5633H180.104V64.2153H181.898V66.5633H183.92V68.145H181.898V72.0585C181.898 72.5041 181.985 72.8194 182.159 73.0042C182.322 73.2216 182.604 73.3303 183.007 73.3303C183.191 73.3303 183.354 73.3086 183.496 73.2651C183.637 73.2107 183.789 73.1292 183.952 73.0205V74.7653C183.594 74.9283 183.159 75.0098 182.648 75.0098ZM188.658 75.1403C187.647 75.1403 186.876 74.8413 186.343 74.2435C185.821 73.6347 185.56 72.7922 185.56 71.716V66.5633H187.354V71.4714C187.354 72.1454 187.511 72.6509 187.827 72.9879C188.153 73.3249 188.577 73.4934 189.099 73.4934C189.523 73.4934 189.898 73.3847 190.224 73.1673C190.55 72.939 190.8 72.64 190.974 72.2704C191.148 71.9008 191.235 71.504 191.235 71.0801V66.5633H193.028V74.8794H191.333V73.8032H191.235C191.006 74.1945 190.653 74.5152 190.175 74.7653C189.696 75.0153 189.191 75.1403 188.658 75.1403ZM198.591 75.1403C197.841 75.1403 197.162 74.9501 196.553 74.5696C195.944 74.1891 195.46 73.6673 195.102 73.0042C194.754 72.3302 194.58 71.5693 194.58 70.7214C194.58 69.8734 194.754 69.1179 195.102 68.4548C195.46 67.7808 195.944 67.2536 196.553 66.8731C197.162 66.4927 197.841 66.3024 198.591 66.3024C199.178 66.3024 199.705 66.4329 200.173 66.6938C200.64 66.9547 200.994 67.2753 201.233 67.6558H201.314L201.233 66.4818V63.2043H203.026V74.8794H201.314V73.8032H201.233C200.994 74.1728 200.64 74.488 200.173 74.7489C199.705 75.0098 199.178 75.1403 198.591 75.1403ZM198.852 73.4934C199.287 73.4934 199.689 73.3792 200.059 73.151C200.439 72.9227 200.744 72.5966 200.972 72.1726C201.2 71.7486 201.314 71.2649 201.314 70.7214C201.314 70.1778 201.2 69.6995 200.972 69.2864C200.744 68.8625 200.439 68.5363 200.059 68.3081C199.689 68.0798 199.287 67.9656 198.852 67.9656C198.417 67.9656 198.01 68.0798 197.629 68.3081C197.249 68.5363 196.944 68.8625 196.716 69.2864C196.488 69.6995 196.374 70.1778 196.374 70.7214C196.374 71.2649 196.488 71.7486 196.716 72.1726C196.944 72.5966 197.249 72.9227 197.629 73.151C198.01 73.3792 198.417 73.4934 198.852 73.4934ZM208.836 75.1403C208.021 75.1403 207.287 74.9501 206.635 74.5696C205.993 74.1891 205.488 73.6673 205.118 73.0042C204.759 72.3302 204.58 71.5747 204.58 70.7377C204.58 69.9441 204.754 69.2103 205.102 68.5363C205.461 67.8515 205.955 67.308 206.586 66.9057C207.216 66.5035 207.934 66.3024 208.738 66.3024C209.575 66.3024 210.298 66.4872 210.907 66.8568C211.526 67.2264 211.994 67.7319 212.309 68.3733C212.635 69.0147 212.798 69.7376 212.798 70.542C212.798 70.6942 212.782 70.8844 212.749 71.1127H206.374C206.439 71.8845 206.711 72.4824 207.189 72.9064C207.678 73.3195 208.243 73.526 208.885 73.526C209.396 73.526 209.836 73.4119 210.206 73.1836C210.586 72.9444 210.89 72.6237 211.119 72.2215L212.635 72.939C212.244 73.6238 211.733 74.1619 211.102 74.5533C210.472 74.9446 209.716 75.1403 208.836 75.1403ZM210.972 69.743C210.95 69.4495 210.858 69.1614 210.695 68.8788C210.532 68.5853 210.282 68.3407 209.945 68.145C209.619 67.9493 209.216 67.8515 208.738 67.8515C208.162 67.8515 207.673 68.0254 207.271 68.3733C206.879 68.7103 206.607 69.1668 206.455 69.743H210.972ZM214.432 66.5633H216.144V67.6558H216.225C216.464 67.2645 216.818 66.9438 217.285 66.6938C217.764 66.4329 218.269 66.3024 218.802 66.3024C219.813 66.3024 220.579 66.6014 221.101 67.1993C221.633 67.7863 221.9 68.5907 221.9 69.6125V74.8794H220.106V69.8571C220.106 69.2049 219.943 68.7266 219.617 68.4222C219.302 68.1178 218.861 67.9656 218.296 67.9656C217.894 67.9656 217.535 68.0798 217.22 68.3081C216.905 68.5255 216.66 68.819 216.486 69.1886C216.312 69.5582 216.225 69.955 216.225 70.3789V74.8794H214.432V66.5633ZM226.916 75.0098C226.547 75.0098 226.199 74.9501 225.873 74.8305C225.547 74.7109 225.28 74.5533 225.074 74.3576C224.606 73.8902 224.372 73.2542 224.372 72.4498V68.145H222.921V66.5633H224.372V64.2153H226.166V66.5633H228.188V68.145H226.166V72.0585C226.166 72.5041 226.253 72.8194 226.427 73.0042C226.59 73.2216 226.873 73.3303 227.275 73.3303C227.46 73.3303 227.623 73.3086 227.764 73.2651C227.905 73.2107 228.058 73.1292 228.221 73.0205V74.7653C227.862 74.9283 227.427 75.0098 226.916 75.0098ZM239.202 75.1403C238.071 75.1403 237.039 74.874 236.104 74.3413C235.169 73.8086 234.435 73.0749 233.902 72.14C233.37 71.2051 233.103 70.1724 233.103 69.0418C233.103 67.9113 233.37 66.8786 233.902 65.9437C234.435 65.0088 235.169 64.275 236.104 63.7424C237.039 63.2097 238.071 62.9434 239.202 62.9434C240.082 62.9434 240.881 63.1064 241.599 63.4326C242.327 63.7587 242.969 64.2316 243.523 64.8512L242.219 66.1067C241.816 65.6284 241.371 65.2751 240.881 65.0469C240.392 64.8077 239.832 64.6881 239.202 64.6881C238.419 64.6881 237.702 64.8675 237.05 65.2262C236.408 65.585 235.897 66.0959 235.517 66.759C235.136 67.4112 234.946 68.1722 234.946 69.0418C234.946 69.9115 235.136 70.6779 235.517 71.341C235.897 71.9932 236.408 72.4987 237.05 72.8574C237.702 73.2162 238.419 73.3955 239.202 73.3955C240.506 73.3955 241.615 72.852 242.528 71.7649L243.849 73.0368C243.284 73.6999 242.604 74.2163 241.811 74.5859C241.017 74.9555 240.148 75.1403 239.202 75.1403ZM245.435 63.2043H247.229V74.8794H245.435V63.2043ZM252.37 75.1403C251.359 75.1403 250.587 74.8413 250.054 74.2435C249.532 73.6347 249.272 72.7922 249.272 71.716V66.5633H251.065V71.4714C251.065 72.1454 251.223 72.6509 251.538 72.9879C251.864 73.3249 252.288 73.4934 252.81 73.4934C253.234 73.4934 253.609 73.3847 253.935 73.1673C254.261 72.939 254.511 72.64 254.685 72.2704C254.859 71.9008 254.946 71.504 254.946 71.0801V66.5633H256.74V74.8794H255.044V73.8032H254.946C254.718 74.1945 254.364 74.5152 253.886 74.7653C253.408 75.0153 252.902 75.1403 252.37 75.1403ZM263.263 75.1403C262.676 75.1403 262.148 75.0098 261.681 74.7489C261.213 74.488 260.86 74.1728 260.621 73.8032H260.54V74.8794H258.827V63.2043H260.621V66.4818L260.54 67.6558H260.621C260.86 67.2753 261.213 66.9547 261.681 66.6938C262.148 66.4329 262.676 66.3024 263.263 66.3024C264.013 66.3024 264.692 66.4927 265.301 66.8731C265.91 67.2536 266.388 67.7808 266.736 68.4548C267.095 69.1179 267.274 69.8734 267.274 70.7214C267.274 71.5693 267.095 72.3302 266.736 73.0042C266.388 73.6673 265.91 74.1891 265.301 74.5696C264.692 74.9501 264.013 75.1403 263.263 75.1403ZM263.002 73.4934C263.437 73.4934 263.844 73.3792 264.225 73.151C264.605 72.9227 264.91 72.5966 265.138 72.1726C265.366 71.7486 265.48 71.2649 265.48 70.7214C265.48 70.1778 265.366 69.6995 265.138 69.2864C264.91 68.8625 264.605 68.5363 264.225 68.3081C263.844 68.0798 263.437 67.9656 263.002 67.9656C262.567 67.9656 262.159 68.0798 261.779 68.3081C261.409 68.5363 261.11 68.8625 260.882 69.2864C260.654 69.6995 260.54 70.1778 260.54 70.7214C260.54 71.2649 260.654 71.7486 260.882 72.1726C261.11 72.5966 261.409 72.9227 261.779 73.151C262.159 73.3792 262.567 73.4934 263.002 73.4934ZM271.86 75.1403C270.904 75.1403 270.121 74.9337 269.512 74.5207C268.904 74.0967 268.474 73.5586 268.224 72.9064L269.822 72.2052C270.018 72.64 270.29 72.9716 270.638 73.1999C270.996 73.4282 271.404 73.5423 271.86 73.5423C272.306 73.5423 272.681 73.4662 272.986 73.314C273.29 73.151 273.442 72.9118 273.442 72.5966C273.442 72.2922 273.312 72.053 273.051 71.8791C272.79 71.7052 272.388 71.553 271.844 71.4225L270.849 71.1779C270.186 71.0149 269.637 70.7268 269.203 70.3137C268.768 69.9006 268.55 69.3788 268.55 68.7483C268.55 68.2591 268.692 67.8298 268.974 67.4602C269.268 67.0905 269.659 66.8079 270.148 66.6122C270.638 66.4057 271.17 66.3024 271.746 66.3024C272.518 66.3024 273.198 66.46 273.785 66.7753C274.372 67.0797 274.796 67.5254 275.056 68.1124L273.491 68.7972C273.176 68.1559 272.6 67.8352 271.763 67.8352C271.36 67.8352 271.023 67.9167 270.752 68.0798C270.48 68.2428 270.344 68.4548 270.344 68.7157C270.344 68.9657 270.447 69.1723 270.654 69.3353C270.86 69.4875 271.165 69.618 271.567 69.7267L272.79 70.0365C273.605 70.243 274.219 70.5583 274.632 70.9823C275.056 71.3953 275.268 71.9063 275.268 72.515C275.268 73.0368 275.116 73.4988 274.812 73.901C274.518 74.2924 274.111 74.5968 273.589 74.8142C273.067 75.0316 272.491 75.1403 271.86 75.1403Z" fill="#616161"/>
<rect width="23.3115" height="7.81905" rx="3.90953" transform="matrix(-0.866025 0.5 0.5 0.866025 174.504 27.7881)" fill="#FBBC04"/>
<rect width="23.3115" height="7.81905" rx="3.90953" transform="matrix(0.866025 -0.5 -0.5 -0.866025 131.371 38.4272)" fill="#EA4335"/>
<rect x="131.041" y="27.7871" width="23.3115" height="7.81905" rx="3.90953" transform="rotate(30 131.041 27.7871)" fill="#4285F4"/>
<rect x="174.504" y="38.4272" width="23.3115" height="7.81905" rx="3.64648" transform="rotate(-150 174.504 38.4272)" fill="#0F9D58"/>
<path d="M28.179 96.7864C27.4164 96.7864 26.7234 96.6067 26.1 96.2474C25.4767 95.888 24.9854 95.3967 24.626 94.7734C24.274 94.1427 24.098 93.4424 24.098 92.6724C24.098 91.9024 24.274 91.2057 24.626 90.5824C24.9854 89.9517 25.4767 89.4567 26.1 89.0974C26.7234 88.738 27.4164 88.5584 28.179 88.5584C28.7657 88.5584 29.301 88.672 29.785 88.8994C30.2764 89.1194 30.7017 89.4347 31.061 89.8454L30.39 90.4944C30.0894 90.135 29.7594 89.871 29.4 89.7024C29.048 89.5337 28.641 89.4494 28.179 89.4494C27.607 89.4494 27.0827 89.585 26.606 89.8564C26.1294 90.1204 25.748 90.498 25.462 90.9894C25.1834 91.4734 25.044 92.0344 25.044 92.6724C25.044 93.3104 25.1834 93.875 25.462 94.3664C25.748 94.8504 26.1294 95.228 26.606 95.4994C27.0827 95.7634 27.607 95.8954 28.179 95.8954C29.1324 95.8954 29.9427 95.503 30.61 94.7184L31.292 95.3784C30.9254 95.811 30.4744 96.1557 29.939 96.4124C29.4037 96.6617 28.817 96.7864 28.179 96.7864ZM34.3232 96.7864C33.6485 96.7864 33.1315 96.5884 32.7722 96.1924C32.4202 95.7964 32.2442 95.2427 32.2442 94.5314V91.0004H33.1792V94.3884C33.1792 94.9237 33.3002 95.316 33.5422 95.5654C33.7842 95.8147 34.1105 95.9394 34.5212 95.9394C34.8365 95.9394 35.1152 95.855 35.3572 95.6864C35.6065 95.5177 35.7972 95.2977 35.9292 95.0264C36.0685 94.755 36.1382 94.469 36.1382 94.1684V91.0004H37.0732V96.6104H36.1822V95.7964H36.1382C35.9842 96.075 35.7385 96.3097 35.4012 96.5004C35.0639 96.691 34.7045 96.7864 34.3232 96.7864ZM38.4542 91.0004H39.3452V91.8254H39.3892C39.5506 91.5394 39.7926 91.301 40.1152 91.1104C40.4379 90.9197 40.7789 90.8244 41.1382 90.8244C41.5489 90.8244 41.9046 90.9234 42.2052 91.1214C42.5132 91.3194 42.7332 91.5834 42.8652 91.9134C43.0632 91.5834 43.3236 91.3194 43.6462 91.1214C43.9762 90.9234 44.3576 90.8244 44.7902 90.8244C45.4356 90.8244 45.9196 91.0224 46.2422 91.4184C46.5722 91.807 46.7372 92.3387 46.7372 93.0134V96.6104H45.8132V93.1564C45.8132 92.6357 45.7069 92.258 45.4942 92.0234C45.2816 91.7887 44.9662 91.6714 44.5482 91.6714C44.2696 91.6714 44.0166 91.752 43.7892 91.9134C43.5619 92.0747 43.3822 92.291 43.2502 92.5624C43.1256 92.8337 43.0632 93.127 43.0632 93.4424V96.6104H42.1282V93.1674C42.1282 92.6394 42.0219 92.258 41.8092 92.0234C41.5966 91.7887 41.2849 91.6714 40.8742 91.6714C40.5956 91.6714 40.3426 91.7557 40.1152 91.9244C39.8879 92.0857 39.7082 92.3057 39.5762 92.5844C39.4516 92.8557 39.3892 93.149 39.3892 93.4644V96.6104H38.4542V91.0004ZM48.0792 91.0004H48.9702V91.8254H49.0142C49.1756 91.5394 49.4176 91.301 49.7402 91.1104C50.0629 90.9197 50.4039 90.8244 50.7632 90.8244C51.1739 90.8244 51.5296 90.9234 51.8302 91.1214C52.1382 91.3194 52.3582 91.5834 52.4902 91.9134C52.6882 91.5834 52.9486 91.3194 53.2712 91.1214C53.6012 90.9234 53.9826 90.8244 54.4152 90.8244C55.0606 90.8244 55.5446 91.0224 55.8672 91.4184C56.1972 91.807 56.3622 92.3387 56.3622 93.0134V96.6104H55.4382V93.1564C55.4382 92.6357 55.3319 92.258 55.1192 92.0234C54.9066 91.7887 54.5912 91.6714 54.1732 91.6714C53.8946 91.6714 53.6416 91.752 53.4142 91.9134C53.1869 92.0747 53.0072 92.291 52.8752 92.5624C52.7506 92.8337 52.6882 93.127 52.6882 93.4424V96.6104H51.7532V93.1674C51.7532 92.6394 51.6469 92.258 51.4342 92.0234C51.2216 91.7887 50.9099 91.6714 50.4992 91.6714C50.2206 91.6714 49.9676 91.7557 49.7402 91.9244C49.5129 92.0857 49.3332 92.3057 49.2012 92.5844C49.0766 92.8557 49.0142 93.149 49.0142 93.4644V96.6104H48.0792V91.0004ZM58.2542 89.9664C58.0709 89.9664 57.9132 89.9004 57.7812 89.7684C57.6492 89.6364 57.5832 89.4787 57.5832 89.2954C57.5832 89.112 57.6492 88.958 57.7812 88.8334C57.9132 88.7014 58.0709 88.6354 58.2542 88.6354C58.4376 88.6354 58.5952 88.7014 58.7272 88.8334C58.8592 88.958 58.9252 89.112 58.9252 89.2954C58.9252 89.4787 58.8592 89.6364 58.7272 89.7684C58.6026 89.9004 58.4449 89.9664 58.2542 89.9664ZM57.7922 91.0004H58.7162V96.6104H57.7922V91.0004ZM60.1857 91.0004H61.0767V91.8254H61.1207C61.2747 91.5467 61.5203 91.312 61.8577 91.1214C62.195 90.9234 62.5543 90.8244 62.9357 90.8244C63.6103 90.8244 64.1237 91.0224 64.4757 91.4184C64.835 91.807 65.0147 92.3387 65.0147 93.0134V96.6104H64.0797V93.1564C64.0797 92.6357 63.955 92.258 63.7057 92.0234C63.4563 91.7887 63.1153 91.6714 62.6827 91.6714C62.382 91.6714 62.1107 91.7557 61.8687 91.9244C61.634 92.093 61.4507 92.3167 61.3187 92.5954C61.1867 92.8667 61.1207 93.1527 61.1207 93.4534V96.6104H60.1857V91.0004ZM68.256 96.7864C67.6546 96.7864 67.1523 96.647 66.749 96.3684C66.3456 96.0824 66.0596 95.7194 65.891 95.2794L66.727 94.9054C66.8663 95.2427 67.0716 95.503 67.343 95.6864C67.6216 95.8697 67.926 95.9614 68.256 95.9614C68.608 95.9614 68.9086 95.8917 69.158 95.7524C69.4073 95.6057 69.532 95.4004 69.532 95.1364C69.532 94.9017 69.433 94.7147 69.235 94.5754C69.037 94.4287 68.7253 94.304 68.3 94.2014L67.618 94.0254C67.1706 93.9154 66.804 93.7284 66.518 93.4644C66.232 93.2004 66.089 92.8594 66.089 92.4414C66.089 92.1187 66.1843 91.8364 66.375 91.5944C66.573 91.345 66.8333 91.1544 67.156 91.0224C67.4786 90.8904 67.827 90.8244 68.201 90.8244C68.6923 90.8244 69.1286 90.9307 69.51 91.1434C69.8986 91.356 70.1736 91.653 70.335 92.0344L69.521 92.4084C69.2716 91.9097 68.828 91.6604 68.19 91.6604C67.882 91.6604 67.6106 91.7337 67.376 91.8804C67.1486 92.0197 67.035 92.1994 67.035 92.4194C67.035 92.6247 67.1156 92.7934 67.277 92.9254C67.4383 93.05 67.6803 93.1527 68.003 93.2334L68.817 93.4424C69.367 93.5817 69.7813 93.7907 70.06 94.0694C70.3386 94.3407 70.478 94.6744 70.478 95.0704C70.478 95.415 70.379 95.7194 70.181 95.9834C69.983 96.24 69.7153 96.438 69.378 96.5774C69.0406 96.7167 68.6666 96.7864 68.256 96.7864ZM77.722 96.7864C76.9593 96.7864 76.2663 96.6067 75.643 96.2474C75.0197 95.888 74.5283 95.3967 74.169 94.7734C73.817 94.1427 73.641 93.4424 73.641 92.6724C73.641 91.9024 73.817 91.2057 74.169 90.5824C74.5283 89.9517 75.0197 89.4567 75.643 89.0974C76.2663 88.738 76.9593 88.5584 77.722 88.5584C78.3087 88.5584 78.844 88.672 79.328 88.8994C79.8193 89.1194 80.2447 89.4347 80.604 89.8454L79.933 90.4944C79.6323 90.135 79.3023 89.871 78.943 89.7024C78.591 89.5337 78.184 89.4494 77.722 89.4494C77.15 89.4494 76.6257 89.585 76.149 89.8564C75.6723 90.1204 75.291 90.498 75.005 90.9894C74.7263 91.4734 74.587 92.0344 74.587 92.6724C74.587 93.3104 74.7263 93.875 75.005 94.3664C75.291 94.8504 75.6723 95.228 76.149 95.4994C76.6257 95.7634 77.15 95.8954 77.722 95.8954C78.6753 95.8954 79.4857 95.503 80.153 94.7184L80.835 95.3784C80.4683 95.811 80.0173 96.1557 79.482 96.4124C78.9467 96.6617 78.36 96.7864 77.722 96.7864ZM84.3625 96.7864C83.8125 96.7864 83.3175 96.6544 82.8775 96.3904C82.4375 96.1264 82.0928 95.767 81.8435 95.3124C81.6015 94.8577 81.4805 94.3554 81.4805 93.8054C81.4805 93.2554 81.6015 92.753 81.8435 92.2984C82.0928 91.8437 82.4375 91.4844 82.8775 91.2204C83.3175 90.9564 83.8125 90.8244 84.3625 90.8244C84.9125 90.8244 85.4075 90.9564 85.8475 91.2204C86.2875 91.4844 86.6285 91.8437 86.8705 92.2984C87.1198 92.753 87.2445 93.2554 87.2445 93.8054C87.2445 94.3554 87.1198 94.8577 86.8705 95.3124C86.6285 95.767 86.2875 96.1264 85.8475 96.3904C85.4075 96.6544 84.9125 96.7864 84.3625 96.7864ZM84.3625 95.9394C84.7071 95.9394 85.0261 95.855 85.3195 95.6864C85.6201 95.5104 85.8585 95.261 86.0345 94.9384C86.2178 94.6157 86.3095 94.238 86.3095 93.8054C86.3095 93.3727 86.2178 92.995 86.0345 92.6724C85.8585 92.3497 85.6201 92.104 85.3195 91.9354C85.0261 91.7594 84.7071 91.6714 84.3625 91.6714C84.0178 91.6714 83.6951 91.7594 83.3945 91.9354C83.0938 92.104 82.8518 92.3497 82.6685 92.6724C82.4925 92.995 82.4045 93.3727 82.4045 93.8054C82.4045 94.238 82.4925 94.6157 82.6685 94.9384C82.8518 95.261 83.0938 95.5104 83.3945 95.6864C83.6951 95.855 84.0178 95.9394 84.3625 95.9394ZM88.2765 88.7344H89.2115V96.6104H88.2765V88.7344ZM90.5968 88.7344H91.5318V96.6104H90.5968V88.7344ZM95.3604 96.7864C94.8251 96.7864 94.3447 96.658 93.9194 96.4014C93.4941 96.1447 93.1604 95.7927 92.9184 95.3454C92.6837 94.8907 92.5664 94.381 92.5664 93.8164C92.5664 93.2737 92.6764 92.775 92.8964 92.3204C93.1237 91.8657 93.4427 91.5027 93.8534 91.2314C94.2641 90.96 94.7407 90.8244 95.2834 90.8244C95.8334 90.8244 96.3101 90.949 96.7134 91.1984C97.1167 91.4404 97.4247 91.7777 97.6374 92.2104C97.8574 92.643 97.9674 93.138 97.9674 93.6954C97.9674 93.8054 97.9564 93.9007 97.9344 93.9814H93.5014C93.5234 94.4067 93.6261 94.766 93.8094 95.0594C93.9927 95.3527 94.2237 95.5727 94.5024 95.7194C94.7884 95.866 95.0854 95.9394 95.3934 95.9394C96.1121 95.9394 96.6657 95.602 97.0544 94.9274L97.8464 95.3124C97.6044 95.767 97.2744 96.1264 96.8564 96.3904C96.4457 96.6544 95.9471 96.7864 95.3604 96.7864ZM96.9774 93.2114C96.9627 92.9767 96.8967 92.742 96.7794 92.5074C96.6621 92.2727 96.4751 92.0747 96.2184 91.9134C95.9691 91.752 95.6537 91.6714 95.2724 91.6714C94.8324 91.6714 94.4584 91.8144 94.1504 92.1004C93.8497 92.379 93.6517 92.7494 93.5564 93.2114H96.9774ZM101.579 99.1624C100.919 99.1624 100.373 99.0084 99.9404 98.7004C99.515 98.3924 99.229 98.022 99.0824 97.5894L99.9294 97.2264C100.054 97.549 100.259 97.8094 100.545 98.0074C100.839 98.2127 101.183 98.3154 101.579 98.3154C102.159 98.3154 102.606 98.1467 102.921 97.8094C103.244 97.472 103.405 96.9954 103.405 96.3794V95.7524H103.361C103.178 96.0384 102.918 96.273 102.58 96.4564C102.25 96.6324 101.873 96.7204 101.447 96.7204C100.963 96.7204 100.52 96.5957 100.116 96.3464C99.7204 96.097 99.405 95.7487 99.1704 95.3014C98.9357 94.854 98.8184 94.3444 98.8184 93.7724C98.8184 93.2077 98.9357 92.7017 99.1704 92.2544C99.405 91.7997 99.7204 91.4477 100.116 91.1984C100.52 90.949 100.963 90.8244 101.447 90.8244C101.873 90.8244 102.25 90.916 102.58 91.0994C102.918 91.2754 103.178 91.51 103.361 91.8034H103.405V91.0004H104.296V96.3904C104.296 97.2924 104.047 97.978 103.548 98.4474C103.05 98.924 102.393 99.1624 101.579 99.1624ZM101.579 95.8734C101.917 95.8734 102.221 95.789 102.492 95.6204C102.771 95.4517 102.991 95.2097 103.152 94.8944C103.321 94.579 103.405 94.205 103.405 93.7724C103.405 93.3324 103.321 92.9547 103.152 92.6394C102.991 92.324 102.771 92.0857 102.492 91.9244C102.221 91.7557 101.917 91.6714 101.579 91.6714C101.242 91.6714 100.934 91.7557 100.655 91.9244C100.377 92.093 100.153 92.335 99.9844 92.6504C99.823 92.9657 99.7424 93.3397 99.7424 93.7724C99.7424 94.205 99.823 94.5827 99.9844 94.9054C100.153 95.2207 100.377 95.4627 100.655 95.6314C100.934 95.7927 101.242 95.8734 101.579 95.8734ZM108.122 96.7864C107.587 96.7864 107.106 96.658 106.681 96.4014C106.256 96.1447 105.922 95.7927 105.68 95.3454C105.445 94.8907 105.328 94.381 105.328 93.8164C105.328 93.2737 105.438 92.775 105.658 92.3204C105.885 91.8657 106.204 91.5027 106.615 91.2314C107.026 90.96 107.502 90.8244 108.045 90.8244C108.595 90.8244 109.072 90.949 109.475 91.1984C109.878 91.4404 110.186 91.7777 110.399 92.2104C110.619 92.643 110.729 93.138 110.729 93.6954C110.729 93.8054 110.718 93.9007 110.696 93.9814H106.263C106.285 94.4067 106.388 94.766 106.571 95.0594C106.754 95.3527 106.985 95.5727 107.264 95.7194C107.55 95.866 107.847 95.9394 108.155 95.9394C108.874 95.9394 109.427 95.602 109.816 94.9274L110.608 95.3124C110.366 95.767 110.036 96.1264 109.618 96.3904C109.207 96.6544 108.709 96.7864 108.122 96.7864ZM109.739 93.2114C109.724 92.9767 109.658 92.742 109.541 92.5074C109.424 92.2727 109.237 92.0747 108.98 91.9134C108.731 91.752 108.415 91.6714 108.034 91.6714C107.594 91.6714 107.22 91.8144 106.912 92.1004C106.611 92.379 106.413 92.7494 106.318 93.2114H109.739ZM116.965 96.7864C116.415 96.7864 115.92 96.6544 115.48 96.3904C115.04 96.1264 114.695 95.767 114.446 95.3124C114.204 94.8577 114.083 94.3554 114.083 93.8054C114.083 93.2554 114.204 92.753 114.446 92.2984C114.695 91.8437 115.04 91.4844 115.48 91.2204C115.92 90.9564 116.415 90.8244 116.965 90.8244C117.515 90.8244 118.01 90.9564 118.45 91.2204C118.89 91.4844 119.231 91.8437 119.473 92.2984C119.722 92.753 119.847 93.2554 119.847 93.8054C119.847 94.3554 119.722 94.8577 119.473 95.3124C119.231 95.767 118.89 96.1264 118.45 96.3904C118.01 96.6544 117.515 96.7864 116.965 96.7864ZM116.965 95.9394C117.31 95.9394 117.629 95.855 117.922 95.6864C118.223 95.5104 118.461 95.261 118.637 94.9384C118.82 94.6157 118.912 94.238 118.912 93.8054C118.912 93.3727 118.82 92.995 118.637 92.6724C118.461 92.3497 118.223 92.104 117.922 91.9354C117.629 91.7594 117.31 91.6714 116.965 91.6714C116.62 91.6714 116.298 91.7594 115.997 91.9354C115.696 92.104 115.454 92.3497 115.271 92.6724C115.095 92.995 115.007 93.3727 115.007 93.8054C115.007 94.238 115.095 94.6157 115.271 94.9384C115.454 95.261 115.696 95.5104 115.997 95.6864C116.298 95.855 116.62 95.9394 116.965 95.9394ZM121.421 91.8474H120.387V91.0004H121.421V90.3954C121.421 90.0434 121.501 89.7354 121.663 89.4714C121.824 89.2074 122.04 89.0057 122.312 88.8664C122.583 88.7197 122.884 88.6464 123.214 88.6464C123.529 88.6464 123.804 88.6904 124.039 88.7784V89.6914C123.907 89.64 123.782 89.5997 123.665 89.5704C123.547 89.5337 123.408 89.5154 123.247 89.5154C123.005 89.5154 122.796 89.6034 122.62 89.7794C122.444 89.948 122.356 90.1864 122.356 90.4944V91.0004H123.797V91.8474H122.356V96.6104H121.421V91.8474ZM127.683 88.7344H132.237V89.6254H128.607V92.2324H131.885V93.1124H128.607V95.7194H132.237V96.6104H127.683V88.7344ZM133.447 91.0004H134.338V91.8254H134.382C134.536 91.5467 134.782 91.312 135.119 91.1214C135.457 90.9234 135.816 90.8244 136.197 90.8244C136.872 90.8244 137.385 91.0224 137.737 91.4184C138.097 91.807 138.276 92.3387 138.276 93.0134V96.6104H137.341V93.1564C137.341 92.6357 137.217 92.258 136.967 92.0234C136.718 91.7887 136.377 91.6714 135.944 91.6714C135.644 91.6714 135.372 91.7557 135.13 91.9244C134.896 92.093 134.712 92.3167 134.58 92.5954C134.448 92.8667 134.382 93.1527 134.382 93.4534V96.6104H133.447V91.0004ZM142.024 99.1624C141.364 99.1624 140.817 99.0084 140.385 98.7004C139.959 98.3924 139.673 98.022 139.527 97.5894L140.374 97.2264C140.498 97.549 140.704 97.8094 140.99 98.0074C141.283 98.2127 141.628 98.3154 142.024 98.3154C142.603 98.3154 143.05 98.1467 143.366 97.8094C143.688 97.472 143.85 96.9954 143.85 96.3794V95.7524H143.806C143.622 96.0384 143.362 96.273 143.025 96.4564C142.695 96.6324 142.317 96.7204 141.892 96.7204C141.408 96.7204 140.964 96.5957 140.561 96.3464C140.165 96.097 139.849 95.7487 139.615 95.3014C139.38 94.854 139.263 94.3444 139.263 93.7724C139.263 93.2077 139.38 92.7017 139.615 92.2544C139.849 91.7997 140.165 91.4477 140.561 91.1984C140.964 90.949 141.408 90.8244 141.892 90.8244C142.317 90.8244 142.695 90.916 143.025 91.0994C143.362 91.2754 143.622 91.51 143.806 91.8034H143.85V91.0004H144.741V96.3904C144.741 97.2924 144.491 97.978 143.993 98.4474C143.494 98.924 142.838 99.1624 142.024 99.1624ZM142.024 95.8734C142.361 95.8734 142.665 95.789 142.937 95.6204C143.215 95.4517 143.435 95.2097 143.597 94.8944C143.765 94.579 143.85 94.205 143.85 93.7724C143.85 93.3324 143.765 92.9547 143.597 92.6394C143.435 92.324 143.215 92.0857 142.937 91.9244C142.665 91.7557 142.361 91.6714 142.024 91.6714C141.686 91.6714 141.378 91.7557 141.1 91.9244C140.821 92.093 140.597 92.335 140.429 92.6504C140.267 92.9657 140.187 93.3397 140.187 93.7724C140.187 94.205 140.267 94.5827 140.429 94.9054C140.597 95.2207 140.821 95.4627 141.1 95.6314C141.378 95.7927 141.686 95.8734 142.024 95.8734ZM146.673 89.9664C146.49 89.9664 146.332 89.9004 146.2 89.7684C146.068 89.6364 146.002 89.4787 146.002 89.2954C146.002 89.112 146.068 88.958 146.2 88.8334C146.332 88.7014 146.49 88.6354 146.673 88.6354C146.857 88.6354 147.014 88.7014 147.146 88.8334C147.278 88.958 147.344 89.112 147.344 89.2954C147.344 89.4787 147.278 89.6364 147.146 89.7684C147.022 89.9004 146.864 89.9664 146.673 89.9664ZM146.211 91.0004H147.135V96.6104H146.211V91.0004ZM148.605 91.0004H149.496V91.8254H149.54C149.694 91.5467 149.939 91.312 150.277 91.1214C150.614 90.9234 150.973 90.8244 151.355 90.8244C152.029 90.8244 152.543 91.0224 152.895 91.4184C153.254 91.807 153.434 92.3387 153.434 93.0134V96.6104H152.499V93.1564C152.499 92.6357 152.374 92.258 152.125 92.0234C151.875 91.7887 151.534 91.6714 151.102 91.6714C150.801 91.6714 150.53 91.7557 150.288 91.9244C150.053 92.093 149.87 92.3167 149.738 92.5954C149.606 92.8667 149.54 93.1527 149.54 93.4534V96.6104H148.605V91.0004ZM157.268 96.7864C156.732 96.7864 156.252 96.658 155.827 96.4014C155.401 96.1447 155.068 95.7927 154.826 95.3454C154.591 94.8907 154.474 94.381 154.474 93.8164C154.474 93.2737 154.584 92.775 154.804 92.3204C155.031 91.8657 155.35 91.5027 155.761 91.2314C156.171 90.96 156.648 90.8244 157.191 90.8244C157.741 90.8244 158.217 90.949 158.621 91.1984C159.024 91.4404 159.332 91.7777 159.545 92.2104C159.765 92.643 159.875 93.138 159.875 93.6954C159.875 93.8054 159.864 93.9007 159.842 93.9814H155.409C155.431 94.4067 155.533 94.766 155.717 95.0594C155.9 95.3527 156.131 95.5727 156.41 95.7194C156.696 95.866 156.993 95.9394 157.301 95.9394C158.019 95.9394 158.573 95.602 158.962 94.9274L159.754 95.3124C159.512 95.767 159.182 96.1264 158.764 96.3904C158.353 96.6544 157.854 96.7864 157.268 96.7864ZM158.885 93.2114C158.87 92.9767 158.804 92.742 158.687 92.5074C158.569 92.2727 158.382 92.0747 158.126 91.9134C157.876 91.752 157.561 91.6714 157.18 91.6714C156.74 91.6714 156.366 91.8144 156.058 92.1004C155.757 92.379 155.559 92.7494 155.464 93.2114H158.885ZM163.52 96.7864C162.984 96.7864 162.504 96.658 162.079 96.4014C161.653 96.1447 161.32 95.7927 161.078 95.3454C160.843 94.8907 160.726 94.381 160.726 93.8164C160.726 93.2737 160.836 92.775 161.056 92.3204C161.283 91.8657 161.602 91.5027 162.013 91.2314C162.423 90.96 162.9 90.8244 163.443 90.8244C163.993 90.8244 164.469 90.949 164.873 91.1984C165.276 91.4404 165.584 91.7777 165.797 92.2104C166.017 92.643 166.127 93.138 166.127 93.6954C166.127 93.8054 166.116 93.9007 166.094 93.9814H161.661C161.683 94.4067 161.785 94.766 161.969 95.0594C162.152 95.3527 162.383 95.5727 162.662 95.7194C162.948 95.866 163.245 95.9394 163.553 95.9394C164.271 95.9394 164.825 95.602 165.214 94.9274L166.006 95.3124C165.764 95.767 165.434 96.1264 165.016 96.3904C164.605 96.6544 164.106 96.7864 163.52 96.7864ZM165.137 93.2114C165.122 92.9767 165.056 92.742 164.939 92.5074C164.821 92.2727 164.634 92.0747 164.378 91.9134C164.128 91.752 163.813 91.6714 163.432 91.6714C162.992 91.6714 162.618 91.8144 162.31 92.1004C162.009 92.379 161.811 92.7494 161.716 93.2114H165.137ZM167.221 91.0004H168.112V91.9024H168.156C168.266 91.5944 168.478 91.3414 168.794 91.1434C169.109 90.938 169.439 90.8354 169.784 90.8354C170.04 90.8354 170.26 90.872 170.444 90.9454V91.9574C170.209 91.84 169.945 91.7814 169.652 91.7814C169.38 91.7814 169.131 91.8584 168.904 92.0124C168.676 92.1664 168.493 92.3754 168.354 92.6394C168.222 92.896 168.156 93.1747 168.156 93.4754V96.6104H167.221V91.0004ZM171.896 89.9664C171.712 89.9664 171.555 89.9004 171.423 89.7684C171.291 89.6364 171.225 89.4787 171.225 89.2954C171.225 89.112 171.291 88.958 171.423 88.8334C171.555 88.7014 171.712 88.6354 171.896 88.6354C172.079 88.6354 172.237 88.7014 172.369 88.8334C172.501 88.958 172.567 89.112 172.567 89.2954C172.567 89.4787 172.501 89.6364 172.369 89.7684C172.244 89.9004 172.086 89.9664 171.896 89.9664ZM171.434 91.0004H172.358V96.6104H171.434V91.0004ZM173.827 91.0004H174.718V91.8254H174.762C174.916 91.5467 175.162 91.312 175.499 91.1214C175.837 90.9234 176.196 90.8244 176.577 90.8244C177.252 90.8244 177.765 91.0224 178.117 91.4184C178.477 91.807 178.656 92.3387 178.656 93.0134V96.6104H177.721V93.1564C177.721 92.6357 177.597 92.258 177.347 92.0234C177.098 91.7887 176.757 91.6714 176.324 91.6714C176.024 91.6714 175.752 91.7557 175.51 91.9244C175.276 92.093 175.092 92.3167 174.96 92.5954C174.828 92.8667 174.762 93.1527 174.762 93.4534V96.6104H173.827V91.0004ZM182.404 99.1624C181.744 99.1624 181.197 99.0084 180.765 98.7004C180.339 98.3924 180.053 98.022 179.907 97.5894L180.754 97.2264C180.878 97.549 181.084 97.8094 181.37 98.0074C181.663 98.2127 182.008 98.3154 182.404 98.3154C182.983 98.3154 183.43 98.1467 183.746 97.8094C184.068 97.472 184.23 96.9954 184.23 96.3794V95.7524H184.186C184.002 96.0384 183.742 96.273 183.405 96.4564C183.075 96.6324 182.697 96.7204 182.272 96.7204C181.788 96.7204 181.344 96.5957 180.941 96.3464C180.545 96.097 180.229 95.7487 179.995 95.3014C179.76 94.854 179.643 94.3444 179.643 93.7724C179.643 93.2077 179.76 92.7017 179.995 92.2544C180.229 91.7997 180.545 91.4477 180.941 91.1984C181.344 90.949 181.788 90.8244 182.272 90.8244C182.697 90.8244 183.075 90.916 183.405 91.0994C183.742 91.2754 184.002 91.51 184.186 91.8034H184.23V91.0004H185.121V96.3904C185.121 97.2924 184.871 97.978 184.373 98.4474C183.874 98.924 183.218 99.1624 182.404 99.1624ZM182.404 95.8734C182.741 95.8734 183.045 95.789 183.317 95.6204C183.595 95.4517 183.815 95.2097 183.977 94.8944C184.145 94.579 184.23 94.205 184.23 93.7724C184.23 93.3324 184.145 92.9547 183.977 92.6394C183.815 92.324 183.595 92.0857 183.317 91.9244C183.045 91.7557 182.741 91.6714 182.404 91.6714C182.066 91.6714 181.758 91.7557 181.48 91.9244C181.201 92.093 180.977 92.335 180.809 92.6504C180.647 92.9657 180.567 93.3397 180.567 93.7724C180.567 94.205 180.647 94.5827 180.809 94.9054C180.977 95.2207 181.201 95.4627 181.48 95.6314C181.758 95.7927 182.066 95.8734 182.404 95.8734ZM189.494 91.8474H188.46V91.0004H189.494V90.3954C189.494 90.0434 189.575 89.7354 189.736 89.4714C189.897 89.2074 190.114 89.0057 190.385 88.8664C190.656 88.7197 190.957 88.6464 191.287 88.6464C191.602 88.6464 191.877 88.6904 192.112 88.7784V89.6914C191.98 89.64 191.855 89.5997 191.738 89.5704C191.621 89.5337 191.481 89.5154 191.32 89.5154C191.078 89.5154 190.869 89.6034 190.693 89.7794C190.517 89.948 190.429 90.1864 190.429 90.4944V91.0004H191.87V91.8474H190.429V96.6104H189.494V91.8474ZM195.254 96.7864C194.704 96.7864 194.209 96.6544 193.769 96.3904C193.329 96.1264 192.984 95.767 192.735 95.3124C192.493 94.8577 192.372 94.3554 192.372 93.8054C192.372 93.2554 192.493 92.753 192.735 92.2984C192.984 91.8437 193.329 91.4844 193.769 91.2204C194.209 90.9564 194.704 90.8244 195.254 90.8244C195.804 90.8244 196.299 90.9564 196.739 91.2204C197.179 91.4844 197.52 91.8437 197.762 92.2984C198.011 92.753 198.136 93.2554 198.136 93.8054C198.136 94.3554 198.011 94.8577 197.762 95.3124C197.52 95.767 197.179 96.1264 196.739 96.3904C196.299 96.6544 195.804 96.7864 195.254 96.7864ZM195.254 95.9394C195.599 95.9394 195.918 95.855 196.211 95.6864C196.512 95.5104 196.75 95.261 196.926 94.9384C197.109 94.6157 197.201 94.238 197.201 93.8054C197.201 93.3727 197.109 92.995 196.926 92.6724C196.75 92.3497 196.512 92.104 196.211 91.9354C195.918 91.7594 195.599 91.6714 195.254 91.6714C194.909 91.6714 194.587 91.7594 194.286 91.9354C193.985 92.104 193.743 92.3497 193.56 92.6724C193.384 92.995 193.296 93.3727 193.296 93.8054C193.296 94.238 193.384 94.6157 193.56 94.9384C193.743 95.261 193.985 95.5104 194.286 95.6864C194.587 95.855 194.909 95.9394 195.254 95.9394ZM199.114 91.0004H200.005V91.9024H200.049C200.159 91.5944 200.372 91.3414 200.687 91.1434C201.003 90.938 201.333 90.8354 201.677 90.8354C201.934 90.8354 202.154 90.872 202.337 90.9454V91.9574C202.103 91.84 201.839 91.7814 201.545 91.7814C201.274 91.7814 201.025 91.8584 200.797 92.0124C200.57 92.1664 200.387 92.3754 200.247 92.6394C200.115 92.896 200.049 93.1747 200.049 93.4754V96.6104H199.114V91.0004ZM205.18 91.0004H206.137L207.479 95.4334H207.49L208.898 91.0004H209.866L211.285 95.4224H211.296L212.627 91.0004H213.573L211.758 96.6104H210.812L209.36 92.1334L207.919 96.6104H206.984L205.18 91.0004ZM216.824 96.7864C216.274 96.7864 215.779 96.6544 215.339 96.3904C214.899 96.1264 214.555 95.767 214.305 95.3124C214.063 94.8577 213.942 94.3554 213.942 93.8054C213.942 93.2554 214.063 92.753 214.305 92.2984C214.555 91.8437 214.899 91.4844 215.339 91.2204C215.779 90.9564 216.274 90.8244 216.824 90.8244C217.374 90.8244 217.869 90.9564 218.309 91.2204C218.749 91.4844 219.09 91.8437 219.332 92.2984C219.582 92.753 219.706 93.2554 219.706 93.8054C219.706 94.3554 219.582 94.8577 219.332 95.3124C219.09 95.767 218.749 96.1264 218.309 96.3904C217.869 96.6544 217.374 96.7864 216.824 96.7864ZM216.824 95.9394C217.169 95.9394 217.488 95.855 217.781 95.6864C218.082 95.5104 218.32 95.261 218.496 94.9384C218.68 94.6157 218.771 94.238 218.771 93.8054C218.771 93.3727 218.68 92.995 218.496 92.6724C218.32 92.3497 218.082 92.104 217.781 91.9354C217.488 91.7594 217.169 91.6714 216.824 91.6714C216.48 91.6714 216.157 91.7594 215.856 91.9354C215.556 92.104 215.314 92.3497 215.13 92.6724C214.954 92.995 214.866 93.3727 214.866 93.8054C214.866 94.238 214.954 94.6157 215.13 94.9384C215.314 95.261 215.556 95.5104 215.856 95.6864C216.157 95.855 216.48 95.9394 216.824 95.9394ZM220.685 91.0004H221.576V91.8254H221.62C221.781 91.5394 222.023 91.301 222.346 91.1104C222.668 90.9197 223.009 90.8244 223.369 90.8244C223.779 90.8244 224.135 90.9234 224.436 91.1214C224.744 91.3194 224.964 91.5834 225.096 91.9134C225.294 91.5834 225.554 91.3194 225.877 91.1214C226.207 90.9234 226.588 90.8244 227.021 90.8244C227.666 90.8244 228.15 91.0224 228.473 91.4184C228.803 91.807 228.968 92.3387 228.968 93.0134V96.6104H228.044V93.1564C228.044 92.6357 227.937 92.258 227.725 92.0234C227.512 91.7887 227.197 91.6714 226.779 91.6714C226.5 91.6714 226.247 91.752 226.02 91.9134C225.792 92.0747 225.613 92.291 225.481 92.5624C225.356 92.8337 225.294 93.127 225.294 93.4424V96.6104H224.359V93.1674C224.359 92.6394 224.252 92.258 224.04 92.0234C223.827 91.7887 223.515 91.6714 223.105 91.6714C222.826 91.6714 222.573 91.7557 222.346 91.9244C222.118 92.0857 221.939 92.3057 221.807 92.5844C221.682 92.8557 221.62 93.149 221.62 93.4644V96.6104H220.685V91.0004ZM232.807 96.7864C232.271 96.7864 231.791 96.658 231.366 96.4014C230.94 96.1447 230.607 95.7927 230.365 95.3454C230.13 94.8907 230.013 94.381 230.013 93.8164C230.013 93.2737 230.123 92.775 230.343 92.3204C230.57 91.8657 230.889 91.5027 231.3 91.2314C231.71 90.96 232.187 90.8244 232.73 90.8244C233.28 90.8244 233.756 90.949 234.16 91.1984C234.563 91.4404 234.871 91.7777 235.084 92.2104C235.304 92.643 235.414 93.138 235.414 93.6954C235.414 93.8054 235.403 93.9007 235.381 93.9814H230.948C230.97 94.4067 231.072 94.766 231.256 95.0594C231.439 95.3527 231.67 95.5727 231.949 95.7194C232.235 95.866 232.532 95.9394 232.84 95.9394C233.558 95.9394 234.112 95.602 234.501 94.9274L235.293 95.3124C235.051 95.767 234.721 96.1264 234.303 96.3904C233.892 96.6544 233.393 96.7864 232.807 96.7864ZM234.424 93.2114C234.409 92.9767 234.343 92.742 234.226 92.5074C234.108 92.2727 233.921 92.0747 233.665 91.9134C233.415 91.752 233.1 91.6714 232.719 91.6714C232.279 91.6714 231.905 91.8144 231.597 92.1004C231.296 92.379 231.098 92.7494 231.003 93.2114H234.424ZM236.508 91.0004H237.399V91.8254H237.443C237.597 91.5467 237.843 91.312 238.18 91.1214C238.517 90.9234 238.877 90.8244 239.258 90.8244C239.933 90.8244 240.446 91.0224 240.798 91.4184C241.157 91.807 241.337 92.3387 241.337 93.0134V96.6104H240.402V93.1564C240.402 92.6357 240.277 92.258 240.028 92.0234C239.779 91.7887 239.438 91.6714 239.005 91.6714C238.704 91.6714 238.433 91.7557 238.191 91.9244C237.956 92.093 237.773 92.3167 237.641 92.5954C237.509 92.8667 237.443 93.1527 237.443 93.4534V96.6104H236.508V91.0004ZM242.542 97.5234L243.125 96.6104C242.993 96.5884 242.876 96.5187 242.773 96.4014C242.67 96.284 242.619 96.141 242.619 95.9724C242.619 95.7817 242.685 95.6204 242.817 95.4884C242.956 95.349 243.125 95.2794 243.323 95.2794C243.521 95.2794 243.686 95.349 243.818 95.4884C243.957 95.6204 244.027 95.7817 244.027 95.9724C244.027 96.097 244.001 96.218 243.95 96.3354C243.899 96.4454 243.822 96.5737 243.719 96.7204L242.993 97.8204L242.542 97.5234ZM248.071 88.7344H249.215L253.164 95.0044H253.208L253.164 93.4864V88.7344H254.099V96.6104H253.131L248.995 90.0434H248.951L248.995 91.5614V96.6104H248.071V88.7344ZM257.304 96.7864C256.893 96.7864 256.527 96.7057 256.204 96.5444C255.881 96.383 255.632 96.163 255.456 95.8844C255.28 95.5984 255.192 95.2757 255.192 94.9164C255.192 94.3224 255.416 93.8604 255.863 93.5304C256.31 93.193 256.875 93.0244 257.557 93.0244C257.894 93.0244 258.206 93.061 258.492 93.1344C258.785 93.2077 259.009 93.292 259.163 93.3874V93.0464C259.163 92.6284 259.016 92.2947 258.723 92.0454C258.43 91.7887 258.059 91.6604 257.612 91.6604C257.297 91.6604 257.007 91.73 256.743 91.8694C256.479 92.0014 256.27 92.1884 256.116 92.4304L255.412 91.9024C255.632 91.565 255.933 91.301 256.314 91.1104C256.703 90.9197 257.132 90.8244 257.601 90.8244C258.364 90.8244 258.961 91.026 259.394 91.4294C259.834 91.8254 260.054 92.368 260.054 93.0574V96.6104H259.163V95.8074H259.119C258.958 96.0787 258.716 96.3097 258.393 96.5004C258.07 96.691 257.707 96.7864 257.304 96.7864ZM257.392 95.9614C257.707 95.9614 258.001 95.8807 258.272 95.7194C258.543 95.558 258.76 95.3417 258.921 95.0704C259.082 94.799 259.163 94.502 259.163 94.1794C258.987 94.062 258.771 93.9667 258.514 93.8934C258.257 93.82 257.986 93.7834 257.7 93.7834C257.187 93.7834 256.798 93.8897 256.534 94.1024C256.277 94.315 256.149 94.59 256.149 94.9274C256.149 95.2354 256.266 95.4847 256.501 95.6754C256.736 95.866 257.033 95.9614 257.392 95.9614ZM263.765 99.1624C263.105 99.1624 262.559 99.0084 262.126 98.7004C261.701 98.3924 261.415 98.022 261.268 97.5894L262.115 97.2264C262.24 97.549 262.445 97.8094 262.731 98.0074C263.024 98.2127 263.369 98.3154 263.765 98.3154C264.344 98.3154 264.792 98.1467 265.107 97.8094C265.43 97.472 265.591 96.9954 265.591 96.3794V95.7524H265.547C265.364 96.0384 265.103 96.273 264.766 96.4564C264.436 96.6324 264.058 96.7204 263.633 96.7204C263.149 96.7204 262.705 96.5957 262.302 96.3464C261.906 96.097 261.591 95.7487 261.356 95.3014C261.121 94.854 261.004 94.3444 261.004 93.7724C261.004 93.2077 261.121 92.7017 261.356 92.2544C261.591 91.7997 261.906 91.4477 262.302 91.1984C262.705 90.949 263.149 90.8244 263.633 90.8244C264.058 90.8244 264.436 90.916 264.766 91.0994C265.103 91.2754 265.364 91.51 265.547 91.8034H265.591V91.0004H266.482V96.3904C266.482 97.2924 266.233 97.978 265.734 98.4474C265.235 98.924 264.579 99.1624 263.765 99.1624ZM263.765 95.8734C264.102 95.8734 264.407 95.789 264.678 95.6204C264.957 95.4517 265.177 95.2097 265.338 94.8944C265.507 94.579 265.591 94.205 265.591 93.7724C265.591 93.3324 265.507 92.9547 265.338 92.6394C265.177 92.324 264.957 92.0857 264.678 91.9244C264.407 91.7557 264.102 91.6714 263.765 91.6714C263.428 91.6714 263.12 91.7557 262.841 91.9244C262.562 92.093 262.339 92.335 262.17 92.6504C262.009 92.9657 261.928 93.3397 261.928 93.7724C261.928 94.205 262.009 94.5827 262.17 94.9054C262.339 95.2207 262.562 95.4627 262.841 95.6314C263.12 95.7927 263.428 95.8734 263.765 95.8734ZM267.82 91.0004H268.711V91.8364H268.755C268.924 91.5504 269.177 91.312 269.514 91.1214C269.859 90.9234 270.244 90.8244 270.669 90.8244C271.168 90.8244 271.623 90.9527 272.033 91.2094C272.444 91.466 272.767 91.8217 273.001 92.2764C273.236 92.731 273.353 93.2407 273.353 93.8054C273.353 94.3774 273.236 94.8907 273.001 95.3454C272.767 95.7927 272.444 96.1447 272.033 96.4014C271.623 96.658 271.168 96.7864 270.669 96.7864C270.244 96.7864 269.859 96.691 269.514 96.5004C269.177 96.3024 268.924 96.064 268.755 95.7854H268.711L268.755 96.5554V98.9864H267.82V91.0004ZM270.559 95.9394C270.882 95.9394 271.186 95.8514 271.472 95.6754C271.758 95.4994 271.986 95.25 272.154 94.9274C272.33 94.5974 272.418 94.2234 272.418 93.8054C272.418 93.3874 272.33 93.017 272.154 92.6944C271.986 92.3644 271.758 92.1114 271.472 91.9354C271.186 91.7594 270.882 91.6714 270.559 91.6714C270.237 91.6714 269.932 91.7594 269.646 91.9354C269.36 92.1114 269.133 92.3607 268.964 92.6834C268.796 93.006 268.711 93.38 268.711 93.8054C268.711 94.2307 268.796 94.6047 268.964 94.9274C269.133 95.25 269.36 95.4994 269.646 95.6754C269.932 95.8514 270.237 95.9394 270.559 95.9394ZM276.42 96.7864C275.745 96.7864 275.228 96.5884 274.869 96.1924C274.517 95.7964 274.341 95.2427 274.341 94.5314V91.0004H275.276V94.3884C275.276 94.9237 275.397 95.316 275.639 95.5654C275.881 95.8147 276.207 95.9394 276.618 95.9394C276.933 95.9394 277.212 95.855 277.454 95.6864C277.703 95.5177 277.894 95.2977 278.026 95.0264C278.165 94.755 278.235 94.469 278.235 94.1684V91.0004H279.17V96.6104H278.279V95.7964H278.235C278.081 96.075 277.835 96.3097 277.498 96.5004C277.161 96.691 276.801 96.7864 276.42 96.7864ZM280.551 91.0004H281.442V91.9024H281.486C281.596 91.5944 281.809 91.3414 282.124 91.1434C282.439 90.938 282.769 90.8354 283.114 90.8354C283.371 90.8354 283.591 90.872 283.774 90.9454V91.9574C283.539 91.84 283.275 91.7814 282.982 91.7814C282.711 91.7814 282.461 91.8584 282.234 92.0124C282.007 92.1664 281.823 92.3754 281.684 92.6394C281.552 92.896 281.486 93.1747 281.486 93.4754V96.6104H280.551V91.0004Z" fill="#616161"/>
</svg>
