<svg width="304" height="120" viewBox="0 0 304 120" fill="none" xmlns="http://www.w3.org/2000/svg">
<rect width="304" height="120" rx="6" fill="#E8EAED"/>
<path d="M34.0871 75.1403C32.9783 75.1403 31.9564 74.874 31.0216 74.3413C30.0867 73.8086 29.342 73.0803 28.7876 72.1563C28.2441 71.2214 27.9723 70.1833 27.9723 69.0418C27.9723 67.9004 28.2441 66.8677 28.7876 65.9437C29.342 65.0088 30.0867 64.275 31.0216 63.7424C31.9564 63.2097 32.9783 62.9434 34.0871 62.9434C34.9676 62.9434 35.7884 63.101 36.5493 63.4163C37.3102 63.7315 37.9462 64.1718 38.4571 64.737L37.1852 66.0089C36.8048 65.585 36.3482 65.2588 35.8155 65.0306C35.2937 64.8023 34.7122 64.6881 34.0708 64.6881C33.3207 64.6881 32.6195 64.8675 31.9673 65.2262C31.3151 65.585 30.7933 66.0959 30.4019 66.759C30.0106 67.4221 29.8149 68.1831 29.8149 69.0418C29.8149 69.9006 30.0106 70.6616 30.4019 71.3247C30.7933 71.9878 31.3151 72.4987 31.9673 72.8574C32.6195 73.2162 33.3261 73.3955 34.0871 73.3955C34.7828 73.3955 35.3644 73.2923 35.8318 73.0857C36.2993 72.8792 36.7178 72.602 37.0874 72.2541C37.3266 72.015 37.5277 71.716 37.6907 71.3573C37.8647 70.9986 37.9788 70.6072 38.0332 70.1833H34.0708V68.5527H39.7616C39.8159 68.857 39.8431 69.1723 39.8431 69.4984C39.8431 70.2376 39.729 70.9496 39.5007 71.6345C39.2724 72.3085 38.9082 72.8955 38.4082 73.3955C37.3102 74.5587 35.8699 75.1403 34.0871 75.1403ZM45.4753 75.1403C44.6383 75.1403 43.8882 74.9501 43.2251 74.5696C42.562 74.1782 42.0456 73.6456 41.676 72.9716C41.3064 72.2976 41.1216 71.5475 41.1216 70.7214C41.1216 69.8952 41.3064 69.1451 41.676 68.4711C42.0456 67.7971 42.562 67.2699 43.2251 66.8894C43.8882 66.4981 44.6383 66.3024 45.4753 66.3024C46.3124 66.3024 47.0624 66.4981 47.7256 66.8894C48.3887 67.2808 48.905 67.8134 49.2746 68.4874C49.6442 69.1614 49.829 69.9061 49.829 70.7214C49.829 71.5475 49.6442 72.2976 49.2746 72.9716C48.905 73.6456 48.3887 74.1782 47.7256 74.5696C47.0624 74.9501 46.3124 75.1403 45.4753 75.1403ZM45.4753 73.4934C45.9319 73.4934 46.3559 73.3847 46.7472 73.1673C47.1385 72.939 47.4484 72.6183 47.6766 72.2052C47.9158 71.7812 48.0354 71.2866 48.0354 70.7214C48.0354 70.1561 47.9158 69.6669 47.6766 69.2538C47.4484 68.8407 47.1385 68.5255 46.7472 68.3081C46.3559 68.0798 45.9319 67.9656 45.4753 67.9656C45.0188 67.9656 44.5948 68.0798 44.2035 68.3081C43.8121 68.5255 43.4969 68.8407 43.2577 69.2538C43.0294 69.6669 42.9153 70.1561 42.9153 70.7214C42.9153 71.2866 43.0294 71.7812 43.2577 72.2052C43.4969 72.6183 43.8121 72.939 44.2035 73.1673C44.5948 73.3847 45.0188 73.4934 45.4753 73.4934ZM55.38 75.1403C54.5429 75.1403 53.7928 74.9501 53.1297 74.5696C52.4666 74.1782 51.9503 73.6456 51.5807 72.9716C51.2111 72.2976 51.0263 71.5475 51.0263 70.7214C51.0263 69.8952 51.2111 69.1451 51.5807 68.4711C51.9503 67.7971 52.4666 67.2699 53.1297 66.8894C53.7928 66.4981 54.5429 66.3024 55.38 66.3024C56.217 66.3024 56.9671 66.4981 57.6302 66.8894C58.2933 67.2808 58.8097 67.8134 59.1793 68.4874C59.5489 69.1614 59.7337 69.9061 59.7337 70.7214C59.7337 71.5475 59.5489 72.2976 59.1793 72.9716C58.8097 73.6456 58.2933 74.1782 57.6302 74.5696C56.9671 74.9501 56.217 75.1403 55.38 75.1403ZM55.38 73.4934C55.8365 73.4934 56.2605 73.3847 56.6518 73.1673C57.0432 72.939 57.353 72.6183 57.5813 72.2052C57.8204 71.7812 57.94 71.2866 57.94 70.7214C57.94 70.1561 57.8204 69.6669 57.5813 69.2538C57.353 68.8407 57.0432 68.5255 56.6518 68.3081C56.2605 68.0798 55.8365 67.9656 55.38 67.9656C54.9234 67.9656 54.4994 68.0798 54.1081 68.3081C53.7167 68.5255 53.4015 68.8407 53.1623 69.2538C52.9341 69.6669 52.8199 70.1561 52.8199 70.7214C52.8199 71.2866 52.9341 71.7812 53.1623 72.2052C53.4015 72.6183 53.7167 72.939 54.1081 73.1673C54.4994 73.3847 54.9234 73.4934 55.38 73.4934ZM65.1378 78.6624C64.116 78.6624 63.2681 78.4287 62.5941 77.9612C61.931 77.4938 61.4853 76.9394 61.257 76.298L62.9365 75.5969C63.1105 76.0317 63.3877 76.3795 63.7681 76.6404C64.1595 76.9122 64.6161 77.0481 65.1378 77.0481C65.8988 77.0481 66.4912 76.8198 66.9152 76.3632C67.35 75.9175 67.5674 75.287 67.5674 74.4717V73.7054H67.4696C67.1978 74.0967 66.8337 74.4065 66.3771 74.6348C65.9314 74.8522 65.4151 74.9609 64.828 74.9609C64.1323 74.9609 63.4855 74.7816 62.8876 74.4228C62.2897 74.0641 61.8114 73.5586 61.4527 72.9064C61.1048 72.2433 60.9309 71.4877 60.9309 70.6398C60.9309 69.7919 61.1048 69.0418 61.4527 68.3896C61.8114 67.7265 62.2897 67.2156 62.8876 66.8568C63.4855 66.4872 64.1323 66.3024 64.828 66.3024C65.4042 66.3024 65.9205 66.4166 66.3771 66.6448C66.8337 66.8731 67.1978 67.1829 67.4696 67.5743H67.5674V66.5633H69.2796V74.4228C69.2796 75.3251 69.1057 76.0915 68.7578 76.722C68.4099 77.3633 67.9207 77.8471 67.2902 78.1732C66.6706 78.4993 65.9532 78.6624 65.1378 78.6624ZM65.1542 73.3303C65.589 73.3303 65.9912 73.2271 66.3608 73.0205C66.7304 72.8031 67.0239 72.4933 67.2413 72.0911C67.4587 71.678 67.5674 71.1942 67.5674 70.6398C67.5674 69.7919 67.3337 69.1342 66.8663 68.6668C66.4097 68.1885 65.839 67.9493 65.1542 67.9493C64.7085 67.9493 64.3008 68.058 63.9312 68.2755C63.5616 68.482 63.2681 68.7864 63.0507 69.1886C62.8333 69.5908 62.7246 70.0746 62.7246 70.6398C62.7246 71.2051 62.8333 71.6888 63.0507 72.0911C63.2681 72.4933 63.5616 72.8031 63.9312 73.0205C64.3008 73.2271 64.7085 73.3303 65.1542 73.3303ZM71.3876 63.2043H73.1813V74.8794H71.3876V63.2043ZM79.0087 75.1403C78.1934 75.1403 77.4596 74.9501 76.8074 74.5696C76.166 74.1891 75.6605 73.6673 75.2909 73.0042C74.9322 72.3302 74.7528 71.5747 74.7528 70.7377C74.7528 69.9441 74.9267 69.2103 75.2746 68.5363C75.6333 67.8515 76.1279 67.308 76.7584 66.9057C77.3889 66.5035 78.1064 66.3024 78.9108 66.3024C79.7479 66.3024 80.4708 66.4872 81.0795 66.8568C81.6992 67.2264 82.1666 67.7319 82.4819 68.3733C82.808 69.0147 82.971 69.7376 82.971 70.542C82.971 70.6942 82.9547 70.8844 82.9221 71.1127H76.5465C76.6117 71.8845 76.8835 72.4824 77.3618 72.9064C77.8509 73.3195 78.4162 73.526 79.0576 73.526C79.5685 73.526 80.0088 73.4119 80.3784 73.1836C80.7589 72.9444 81.0632 72.6237 81.2915 72.2215L82.808 72.939C82.4166 73.6238 81.9057 74.1619 81.2752 74.5533C80.6447 74.9446 79.8892 75.1403 79.0087 75.1403ZM81.1448 69.743C81.123 69.4495 81.0306 69.1614 80.8676 68.8788C80.7045 68.5853 80.4545 68.3407 80.1175 68.145C79.7914 67.9493 79.3892 67.8515 78.9108 67.8515C78.3347 67.8515 77.8455 68.0254 77.4433 68.3733C77.052 68.7103 76.7802 69.1668 76.628 69.743H81.1448ZM88.7197 63.2043H92.4538C93.6604 63.2043 94.7149 63.4489 95.6171 63.938C96.5194 64.4272 97.2097 65.1175 97.688 66.0089C98.1772 66.8894 98.4218 67.9004 98.4218 69.0418C98.4218 70.1833 98.1772 71.1997 97.688 72.0911C97.2097 72.9716 96.5194 73.6564 95.6171 74.1456C94.7149 74.6348 93.6604 74.8794 92.4538 74.8794H88.7197V63.2043ZM92.4212 73.1346C93.7256 73.1346 94.742 72.7759 95.4704 72.0585C96.2096 71.3301 96.5792 70.3246 96.5792 69.0418C96.5792 67.77 96.2096 66.7699 95.4704 66.0415C94.742 65.3132 93.7256 64.949 92.4212 64.949H90.546V73.1346H92.4212ZM103.77 75.1403C102.955 75.1403 102.221 74.9501 101.569 74.5696C100.928 74.1891 100.422 73.6673 100.052 73.0042C99.6938 72.3302 99.5144 71.5747 99.5144 70.7377C99.5144 69.9441 99.6883 69.2103 100.036 68.5363C100.395 67.8515 100.89 67.308 101.52 66.9057C102.151 66.5035 102.868 66.3024 103.672 66.3024C104.509 66.3024 105.232 66.4872 105.841 66.8568C106.461 67.2264 106.928 67.7319 107.243 68.3733C107.57 69.0147 107.733 69.7376 107.733 70.542C107.733 70.6942 107.716 70.8844 107.684 71.1127H101.308C101.373 71.8845 101.645 72.4824 102.123 72.9064C102.613 73.3195 103.178 73.526 103.819 73.526C104.33 73.526 104.77 73.4119 105.14 73.1836C105.52 72.9444 105.825 72.6237 106.053 72.2215L107.57 72.939C107.178 73.6238 106.667 74.1619 106.037 74.5533C105.406 74.9446 104.651 75.1403 103.77 75.1403ZM105.906 69.743C105.885 69.4495 105.792 69.1614 105.629 68.8788C105.466 68.5853 105.216 68.3407 104.879 68.145C104.553 67.9493 104.151 67.8515 103.672 67.8515C103.096 67.8515 102.607 68.0254 102.205 68.3733C101.814 68.7103 101.542 69.1668 101.39 69.743H105.906ZM108.277 66.5633H110.283L112.582 72.5639H112.647L114.995 66.5633H116.952L113.495 74.8794H111.702L108.277 66.5633ZM121.669 75.1403C120.853 75.1403 120.12 74.9501 119.467 74.5696C118.826 74.1891 118.321 73.6673 117.951 73.0042C117.592 72.3302 117.413 71.5747 117.413 70.7377C117.413 69.9441 117.587 69.2103 117.935 68.5363C118.293 67.8515 118.788 67.308 119.418 66.9057C120.049 66.5035 120.766 66.3024 121.571 66.3024C122.408 66.3024 123.131 66.4872 123.74 66.8568C124.359 67.2264 124.827 67.7319 125.142 68.3733C125.468 69.0147 125.631 69.7376 125.631 70.542C125.631 70.6942 125.615 70.8844 125.582 71.1127H119.206C119.272 71.8845 119.543 72.4824 120.022 72.9064C120.511 73.3195 121.076 73.526 121.718 73.526C122.229 73.526 122.669 73.4119 123.038 73.1836C123.419 72.9444 123.723 72.6237 123.952 72.2215L125.468 72.939C125.077 73.6238 124.566 74.1619 123.935 74.5533C123.305 74.9446 122.549 75.1403 121.669 75.1403ZM123.805 69.743C123.783 69.4495 123.691 69.1614 123.528 68.8788C123.365 68.5853 123.114 68.3407 122.777 68.145C122.451 67.9493 122.049 67.8515 121.571 67.8515C120.995 67.8515 120.506 68.0254 120.103 68.3733C119.712 68.7103 119.44 69.1668 119.288 69.743H123.805ZM127.264 63.2043H129.058V74.8794H127.264V63.2043ZM134.983 75.1403C134.146 75.1403 133.396 74.9501 132.733 74.5696C132.07 74.1782 131.554 73.6456 131.184 72.9716C130.814 72.2976 130.63 71.5475 130.63 70.7214C130.63 69.8952 130.814 69.1451 131.184 68.4711C131.554 67.7971 132.07 67.2699 132.733 66.8894C133.396 66.4981 134.146 66.3024 134.983 66.3024C135.82 66.3024 136.57 66.4981 137.234 66.8894C137.897 67.2808 138.413 67.8134 138.783 68.4874C139.152 69.1614 139.337 69.9061 139.337 70.7214C139.337 71.5475 139.152 72.2976 138.783 72.9716C138.413 73.6456 137.897 74.1782 137.234 74.5696C136.57 74.9501 135.82 75.1403 134.983 75.1403ZM134.983 73.4934C135.44 73.4934 135.864 73.3847 136.255 73.1673C136.647 72.939 136.956 72.6183 137.185 72.2052C137.424 71.7812 137.543 71.2866 137.543 70.7214C137.543 70.1561 137.424 69.6669 137.185 69.2538C136.956 68.8407 136.647 68.5255 136.255 68.3081C135.864 68.0798 135.44 67.9656 134.983 67.9656C134.527 67.9656 134.103 68.0798 133.711 68.3081C133.32 68.5255 133.005 68.8407 132.766 69.2538C132.537 69.6669 132.423 70.1561 132.423 70.7214C132.423 71.2866 132.537 71.7812 132.766 72.2052C133.005 72.6183 133.32 72.939 133.711 73.1673C134.103 73.3847 134.527 73.4934 134.983 73.4934ZM140.846 66.5633H142.558V67.6558H142.64C142.879 67.2753 143.232 66.9547 143.7 66.6938C144.167 66.4329 144.694 66.3024 145.281 66.3024C146.031 66.3024 146.711 66.4927 147.319 66.8731C147.928 67.2536 148.407 67.7808 148.754 68.4548C149.113 69.1179 149.293 69.8734 149.293 70.7214C149.293 71.5693 149.113 72.3302 148.754 73.0042C148.407 73.6673 147.928 74.1891 147.319 74.5696C146.711 74.9501 146.031 75.1403 145.281 75.1403C144.694 75.1403 144.167 75.0098 143.7 74.7489C143.232 74.488 142.879 74.1728 142.64 73.8032H142.558L142.64 74.9609V78.4015H140.846V66.5633ZM145.02 73.4934C145.455 73.4934 145.863 73.3792 146.243 73.151C146.624 72.9227 146.928 72.5966 147.156 72.1726C147.385 71.7486 147.499 71.2649 147.499 70.7214C147.499 70.1778 147.385 69.6995 147.156 69.2864C146.928 68.8625 146.624 68.5363 146.243 68.3081C145.863 68.0798 145.455 67.9656 145.02 67.9656C144.586 67.9656 144.178 68.0798 143.797 68.3081C143.428 68.5363 143.129 68.8625 142.901 69.2864C142.672 69.6995 142.558 70.1778 142.558 70.7214C142.558 71.2649 142.672 71.7486 142.901 72.1726C143.129 72.5966 143.428 72.9227 143.797 73.151C144.178 73.3792 144.586 73.4934 145.02 73.4934ZM154.727 75.1403C153.911 75.1403 153.178 74.9501 152.525 74.5696C151.884 74.1891 151.378 73.6673 151.009 73.0042C150.65 72.3302 150.471 71.5747 150.471 70.7377C150.471 69.9441 150.645 69.2103 150.993 68.5363C151.351 67.8515 151.846 67.308 152.476 66.9057C153.107 66.5035 153.824 66.3024 154.629 66.3024C155.466 66.3024 156.189 66.4872 156.797 66.8568C157.417 67.2264 157.885 67.7319 158.2 68.3733C158.526 69.0147 158.689 69.7376 158.689 70.542C158.689 70.6942 158.673 70.8844 158.64 71.1127H152.264C152.33 71.8845 152.601 72.4824 153.08 72.9064C153.569 73.3195 154.134 73.526 154.776 73.526C155.286 73.526 155.727 73.4119 156.096 73.1836C156.477 72.9444 156.781 72.6237 157.009 72.2215L158.526 72.939C158.135 73.6238 157.624 74.1619 156.993 74.5533C156.363 74.9446 155.607 75.1403 154.727 75.1403ZM156.863 69.743C156.841 69.4495 156.749 69.1614 156.586 68.8788C156.422 68.5853 156.172 68.3407 155.835 68.145C155.509 67.9493 155.107 67.8515 154.629 67.8515C154.053 67.8515 153.563 68.0254 153.161 68.3733C152.77 68.7103 152.498 69.1668 152.346 69.743H156.863ZM160.322 66.5633H162.035V67.7863H162.116C162.301 67.3623 162.622 67.0145 163.078 66.7427C163.535 66.46 164.018 66.3187 164.529 66.3187C164.932 66.3187 165.269 66.3731 165.54 66.4818V68.3407C165.062 68.1667 164.633 68.0798 164.252 68.0798C163.839 68.0798 163.469 68.1885 163.143 68.4059C162.828 68.6233 162.578 68.9168 162.393 69.2864C162.208 69.6452 162.116 70.0419 162.116 70.4768V74.8794H160.322V66.5633ZM173.912 75.1403C172.944 75.1403 172.075 74.8577 171.303 74.2924C170.531 73.7271 169.998 72.9335 169.705 71.9117L171.433 71.2105C171.607 71.8519 171.912 72.3791 172.346 72.7922C172.792 73.1944 173.325 73.3955 173.944 73.3955C174.521 73.3955 175.01 73.2488 175.412 72.9553C175.814 72.6509 176.015 72.2378 176.015 71.716C176.015 71.2377 175.836 70.8464 175.477 70.542C175.129 70.2267 174.515 69.9115 173.635 69.5962L172.901 69.3353C172.118 69.0636 171.46 68.6722 170.928 68.1613C170.395 67.6504 170.129 66.9764 170.129 66.1394C170.129 65.5632 170.286 65.0306 170.602 64.5414C170.917 64.0522 171.352 63.6663 171.906 63.3836C172.471 63.0901 173.107 62.9434 173.814 62.9434C174.836 62.9434 175.651 63.1934 176.26 63.6935C176.869 64.1826 177.276 64.737 177.483 65.3567L175.836 66.0578C175.716 65.6882 175.488 65.3621 175.151 65.0795C174.814 64.7968 174.379 64.6555 173.847 64.6555C173.314 64.6555 172.863 64.7914 172.493 65.0632C172.134 65.3349 171.955 65.6828 171.955 66.1067C171.955 66.509 172.118 66.8405 172.444 67.1014C172.77 67.3623 173.281 67.6123 173.977 67.8515L174.711 68.0961C175.711 68.4439 176.483 68.9005 177.026 69.4658C177.581 70.0202 177.858 70.7648 177.858 71.6997C177.858 72.4607 177.662 73.102 177.271 73.6238C176.88 74.1348 176.379 74.5152 175.771 74.7653C175.173 75.0153 174.553 75.1403 173.912 75.1403ZM182.648 75.0098C182.278 75.0098 181.93 74.9501 181.604 74.8305C181.278 74.7109 181.012 74.5533 180.805 74.3576C180.338 73.8902 180.104 73.2542 180.104 72.4498V68.145H178.653V66.5633H180.104V64.2153H181.898V66.5633H183.92V68.145H181.898V72.0585C181.898 72.5041 181.985 72.8194 182.159 73.0042C182.322 73.2216 182.604 73.3303 183.007 73.3303C183.191 73.3303 183.354 73.3086 183.496 73.2651C183.637 73.2107 183.789 73.1292 183.952 73.0205V74.7653C183.594 74.9283 183.159 75.0098 182.648 75.0098ZM188.658 75.1403C187.647 75.1403 186.876 74.8413 186.343 74.2435C185.821 73.6347 185.56 72.7922 185.56 71.716V66.5633H187.354V71.4714C187.354 72.1454 187.511 72.6509 187.827 72.9879C188.153 73.3249 188.577 73.4934 189.099 73.4934C189.523 73.4934 189.898 73.3847 190.224 73.1673C190.55 72.939 190.8 72.64 190.974 72.2704C191.148 71.9008 191.235 71.504 191.235 71.0801V66.5633H193.028V74.8794H191.333V73.8032H191.235C191.006 74.1945 190.653 74.5152 190.175 74.7653C189.696 75.0153 189.191 75.1403 188.658 75.1403ZM198.591 75.1403C197.841 75.1403 197.162 74.9501 196.553 74.5696C195.944 74.1891 195.46 73.6673 195.102 73.0042C194.754 72.3302 194.58 71.5693 194.58 70.7214C194.58 69.8734 194.754 69.1179 195.102 68.4548C195.46 67.7808 195.944 67.2536 196.553 66.8731C197.162 66.4927 197.841 66.3024 198.591 66.3024C199.178 66.3024 199.705 66.4329 200.173 66.6938C200.64 66.9547 200.994 67.2753 201.233 67.6558H201.314L201.233 66.4818V63.2043H203.026V74.8794H201.314V73.8032H201.233C200.994 74.1728 200.64 74.488 200.173 74.7489C199.705 75.0098 199.178 75.1403 198.591 75.1403ZM198.852 73.4934C199.287 73.4934 199.689 73.3792 200.059 73.151C200.439 72.9227 200.744 72.5966 200.972 72.1726C201.2 71.7486 201.314 71.2649 201.314 70.7214C201.314 70.1778 201.2 69.6995 200.972 69.2864C200.744 68.8625 200.439 68.5363 200.059 68.3081C199.689 68.0798 199.287 67.9656 198.852 67.9656C198.417 67.9656 198.01 68.0798 197.629 68.3081C197.249 68.5363 196.944 68.8625 196.716 69.2864C196.488 69.6995 196.374 70.1778 196.374 70.7214C196.374 71.2649 196.488 71.7486 196.716 72.1726C196.944 72.5966 197.249 72.9227 197.629 73.151C198.01 73.3792 198.417 73.4934 198.852 73.4934ZM208.836 75.1403C208.021 75.1403 207.287 74.9501 206.635 74.5696C205.993 74.1891 205.488 73.6673 205.118 73.0042C204.759 72.3302 204.58 71.5747 204.58 70.7377C204.58 69.9441 204.754 69.2103 205.102 68.5363C205.461 67.8515 205.955 67.308 206.586 66.9057C207.216 66.5035 207.934 66.3024 208.738 66.3024C209.575 66.3024 210.298 66.4872 210.907 66.8568C211.526 67.2264 211.994 67.7319 212.309 68.3733C212.635 69.0147 212.798 69.7376 212.798 70.542C212.798 70.6942 212.782 70.8844 212.749 71.1127H206.374C206.439 71.8845 206.711 72.4824 207.189 72.9064C207.678 73.3195 208.243 73.526 208.885 73.526C209.396 73.526 209.836 73.4119 210.206 73.1836C210.586 72.9444 210.89 72.6237 211.119 72.2215L212.635 72.939C212.244 73.6238 211.733 74.1619 211.102 74.5533C210.472 74.9446 209.716 75.1403 208.836 75.1403ZM210.972 69.743C210.95 69.4495 210.858 69.1614 210.695 68.8788C210.532 68.5853 210.282 68.3407 209.945 68.145C209.619 67.9493 209.216 67.8515 208.738 67.8515C208.162 67.8515 207.673 68.0254 207.271 68.3733C206.879 68.7103 206.607 69.1668 206.455 69.743H210.972ZM214.432 66.5633H216.144V67.6558H216.225C216.464 67.2645 216.818 66.9438 217.285 66.6938C217.764 66.4329 218.269 66.3024 218.802 66.3024C219.813 66.3024 220.579 66.6014 221.101 67.1993C221.633 67.7863 221.9 68.5907 221.9 69.6125V74.8794H220.106V69.8571C220.106 69.2049 219.943 68.7266 219.617 68.4222C219.302 68.1178 218.861 67.9656 218.296 67.9656C217.894 67.9656 217.535 68.0798 217.22 68.3081C216.905 68.5255 216.66 68.819 216.486 69.1886C216.312 69.5582 216.225 69.955 216.225 70.3789V74.8794H214.432V66.5633ZM226.916 75.0098C226.547 75.0098 226.199 74.9501 225.873 74.8305C225.547 74.7109 225.28 74.5533 225.074 74.3576C224.606 73.8902 224.372 73.2542 224.372 72.4498V68.145H222.921V66.5633H224.372V64.2153H226.166V66.5633H228.188V68.145H226.166V72.0585C226.166 72.5041 226.253 72.8194 226.427 73.0042C226.59 73.2216 226.873 73.3303 227.275 73.3303C227.46 73.3303 227.623 73.3086 227.764 73.2651C227.905 73.2107 228.058 73.1292 228.221 73.0205V74.7653C227.862 74.9283 227.427 75.0098 226.916 75.0098ZM239.202 75.1403C238.071 75.1403 237.039 74.874 236.104 74.3413C235.169 73.8086 234.435 73.0749 233.902 72.14C233.37 71.2051 233.103 70.1724 233.103 69.0418C233.103 67.9113 233.37 66.8786 233.902 65.9437C234.435 65.0088 235.169 64.275 236.104 63.7424C237.039 63.2097 238.071 62.9434 239.202 62.9434C240.082 62.9434 240.881 63.1064 241.599 63.4326C242.327 63.7587 242.969 64.2316 243.523 64.8512L242.219 66.1067C241.816 65.6284 241.371 65.2751 240.881 65.0469C240.392 64.8077 239.832 64.6881 239.202 64.6881C238.419 64.6881 237.702 64.8675 237.05 65.2262C236.408 65.585 235.897 66.0959 235.517 66.759C235.136 67.4112 234.946 68.1722 234.946 69.0418C234.946 69.9115 235.136 70.6779 235.517 71.341C235.897 71.9932 236.408 72.4987 237.05 72.8574C237.702 73.2162 238.419 73.3955 239.202 73.3955C240.506 73.3955 241.615 72.852 242.528 71.7649L243.849 73.0368C243.284 73.6999 242.604 74.2163 241.811 74.5859C241.017 74.9555 240.148 75.1403 239.202 75.1403ZM245.435 63.2043H247.229V74.8794H245.435V63.2043ZM252.37 75.1403C251.359 75.1403 250.587 74.8413 250.054 74.2435C249.532 73.6347 249.272 72.7922 249.272 71.716V66.5633H251.065V71.4714C251.065 72.1454 251.223 72.6509 251.538 72.9879C251.864 73.3249 252.288 73.4934 252.81 73.4934C253.234 73.4934 253.609 73.3847 253.935 73.1673C254.261 72.939 254.511 72.64 254.685 72.2704C254.859 71.9008 254.946 71.504 254.946 71.0801V66.5633H256.74V74.8794H255.044V73.8032H254.946C254.718 74.1945 254.364 74.5152 253.886 74.7653C253.408 75.0153 252.902 75.1403 252.37 75.1403ZM263.263 75.1403C262.676 75.1403 262.148 75.0098 261.681 74.7489C261.213 74.488 260.86 74.1728 260.621 73.8032H260.54V74.8794H258.827V63.2043H260.621V66.4818L260.54 67.6558H260.621C260.86 67.2753 261.213 66.9547 261.681 66.6938C262.148 66.4329 262.676 66.3024 263.263 66.3024C264.013 66.3024 264.692 66.4927 265.301 66.8731C265.91 67.2536 266.388 67.7808 266.736 68.4548C267.095 69.1179 267.274 69.8734 267.274 70.7214C267.274 71.5693 267.095 72.3302 266.736 73.0042C266.388 73.6673 265.91 74.1891 265.301 74.5696C264.692 74.9501 264.013 75.1403 263.263 75.1403ZM263.002 73.4934C263.437 73.4934 263.844 73.3792 264.225 73.151C264.605 72.9227 264.91 72.5966 265.138 72.1726C265.366 71.7486 265.48 71.2649 265.48 70.7214C265.48 70.1778 265.366 69.6995 265.138 69.2864C264.91 68.8625 264.605 68.5363 264.225 68.3081C263.844 68.0798 263.437 67.9656 263.002 67.9656C262.567 67.9656 262.159 68.0798 261.779 68.3081C261.409 68.5363 261.11 68.8625 260.882 69.2864C260.654 69.6995 260.54 70.1778 260.54 70.7214C260.54 71.2649 260.654 71.7486 260.882 72.1726C261.11 72.5966 261.409 72.9227 261.779 73.151C262.159 73.3792 262.567 73.4934 263.002 73.4934ZM271.86 75.1403C270.904 75.1403 270.121 74.9337 269.512 74.5207C268.904 74.0967 268.474 73.5586 268.224 72.9064L269.822 72.2052C270.018 72.64 270.29 72.9716 270.638 73.1999C270.996 73.4282 271.404 73.5423 271.86 73.5423C272.306 73.5423 272.681 73.4662 272.986 73.314C273.29 73.151 273.442 72.9118 273.442 72.5966C273.442 72.2922 273.312 72.053 273.051 71.8791C272.79 71.7052 272.388 71.553 271.844 71.4225L270.849 71.1779C270.186 71.0149 269.637 70.7268 269.203 70.3137C268.768 69.9006 268.55 69.3788 268.55 68.7483C268.55 68.2591 268.692 67.8298 268.974 67.4602C269.268 67.0905 269.659 66.8079 270.148 66.6122C270.638 66.4057 271.17 66.3024 271.746 66.3024C272.518 66.3024 273.198 66.46 273.785 66.7753C274.372 67.0797 274.796 67.5254 275.056 68.1124L273.491 68.7972C273.176 68.1559 272.6 67.8352 271.763 67.8352C271.36 67.8352 271.023 67.9167 270.752 68.0798C270.48 68.2428 270.344 68.4548 270.344 68.7157C270.344 68.9657 270.447 69.1723 270.654 69.3353C270.86 69.4875 271.165 69.618 271.567 69.7267L272.79 70.0365C273.605 70.243 274.219 70.5583 274.632 70.9823C275.056 71.3953 275.268 71.9063 275.268 72.515C275.268 73.0368 275.116 73.4988 274.812 73.901C274.518 74.2924 274.111 74.5968 273.589 74.8142C273.067 75.0316 272.491 75.1403 271.86 75.1403Z" fill="#616161"/>
<rect width="23.3115" height="7.81905" rx="3.90953" transform="matrix(-0.866025 0.5 0.5 0.866025 174.504 27.7881)" fill="#FBBC04"/>
<rect width="23.3115" height="7.81905" rx="3.90953" transform="matrix(0.866025 -0.5 -0.5 -0.866025 131.371 38.4272)" fill="#EA4335"/>
<rect x="131.041" y="27.7871" width="23.3115" height="7.81905" rx="3.90953" transform="rotate(30 131.041 27.7871)" fill="#4285F4"/>
<rect x="174.504" y="38.4272" width="23.3115" height="7.81905" rx="3.64648" transform="rotate(-150 174.504 38.4272)" fill="#0F9D58"/>
<path d="M30.7715 88.0184H31.8995L34.0235 94.2464L34.3115 95.0984H34.3595L34.6595 94.2464L36.8795 88.0184H38.0075L34.8635 96.6104H33.8075L30.7715 88.0184ZM39.2837 89.3624C39.0837 89.3624 38.9117 89.2904 38.7677 89.1464C38.6237 89.0024 38.5517 88.8304 38.5517 88.6304C38.5517 88.4304 38.6237 88.2624 38.7677 88.1264C38.9117 87.9824 39.0837 87.9104 39.2837 87.9104C39.4837 87.9104 39.6557 87.9824 39.7997 88.1264C39.9437 88.2624 40.0157 88.4304 40.0157 88.6304C40.0157 88.8304 39.9437 89.0024 39.7997 89.1464C39.6637 89.2904 39.4917 89.3624 39.2837 89.3624ZM38.7797 90.4904H39.7877V96.6104H38.7797V90.4904ZM43.5268 96.8024C42.8708 96.8024 42.3228 96.6504 41.8828 96.3464C41.4428 96.0344 41.1308 95.6384 40.9468 95.1584L41.8588 94.7504C42.0108 95.1184 42.2348 95.4024 42.5308 95.6024C42.8348 95.8024 43.1668 95.9024 43.5268 95.9024C43.9108 95.9024 44.2388 95.8264 44.5108 95.6744C44.7828 95.5144 44.9188 95.2904 44.9188 95.0024C44.9188 94.7464 44.8108 94.5424 44.5948 94.3904C44.3788 94.2304 44.0388 94.0944 43.5748 93.9824L42.8308 93.7904C42.3428 93.6704 41.9428 93.4664 41.6308 93.1784C41.3188 92.8904 41.1628 92.5184 41.1628 92.0624C41.1628 91.7104 41.2668 91.4024 41.4748 91.1384C41.6908 90.8664 41.9748 90.6584 42.3268 90.5144C42.6788 90.3704 43.0588 90.2984 43.4668 90.2984C44.0028 90.2984 44.4788 90.4144 44.8948 90.6464C45.3188 90.8784 45.6188 91.2024 45.7948 91.6184L44.9068 92.0264C44.6348 91.4824 44.1508 91.2104 43.4548 91.2104C43.1188 91.2104 42.8228 91.2904 42.5668 91.4504C42.3188 91.6024 42.1948 91.7984 42.1948 92.0384C42.1948 92.2624 42.2828 92.4464 42.4588 92.5904C42.6348 92.7264 42.8988 92.8384 43.2508 92.9264L44.1388 93.1544C44.7388 93.3064 45.1908 93.5344 45.4948 93.8384C45.7988 94.1344 45.9508 94.4984 45.9508 94.9304C45.9508 95.3064 45.8428 95.6384 45.6268 95.9264C45.4108 96.2064 45.1188 96.4224 44.7508 96.5744C44.3828 96.7264 43.9748 96.8024 43.5268 96.8024ZM46.3906 90.4904H47.4826L49.3786 95.4104H49.4026L51.3226 90.4904H52.3906L49.8946 96.6104H48.8626L46.3906 90.4904ZM55.7749 96.8024C55.1909 96.8024 54.6669 96.6624 54.2029 96.3824C53.7389 96.1024 53.3749 95.7184 53.1109 95.2304C52.8549 94.7344 52.7269 94.1784 52.7269 93.5624C52.7269 92.9704 52.8469 92.4264 53.0869 91.9304C53.3349 91.4344 53.6829 91.0384 54.1309 90.7424C54.5789 90.4464 55.0989 90.2984 55.6909 90.2984C56.2909 90.2984 56.8109 90.4344 57.2509 90.7064C57.6909 90.9704 58.0269 91.3384 58.2589 91.8104C58.4989 92.2824 58.6189 92.8224 58.6189 93.4304C58.6189 93.5504 58.6069 93.6544 58.5829 93.7424H53.7469C53.7709 94.2064 53.8829 94.5984 54.0829 94.9184C54.2829 95.2384 54.5349 95.4784 54.8389 95.6384C55.1509 95.7984 55.4749 95.8784 55.8109 95.8784C56.5949 95.8784 57.1989 95.5104 57.6229 94.7744L58.4869 95.1944C58.2229 95.6904 57.8629 96.0824 57.4069 96.3704C56.9589 96.6584 56.4149 96.8024 55.7749 96.8024ZM57.5389 92.9024C57.5229 92.6464 57.4509 92.3904 57.3229 92.1344C57.1949 91.8784 56.9909 91.6624 56.7109 91.4864C56.4389 91.3104 56.0949 91.2224 55.6789 91.2224C55.1989 91.2224 54.7909 91.3784 54.4549 91.6904C54.1269 91.9944 53.9109 92.3984 53.8069 92.9024H57.5389ZM62.0072 96.8024C61.3512 96.8024 60.8032 96.6504 60.3632 96.3464C59.9232 96.0344 59.6112 95.6384 59.4272 95.1584L60.3392 94.7504C60.4912 95.1184 60.7152 95.4024 61.0112 95.6024C61.3152 95.8024 61.6472 95.9024 62.0072 95.9024C62.3912 95.9024 62.7192 95.8264 62.9912 95.6744C63.2632 95.5144 63.3992 95.2904 63.3992 95.0024C63.3992 94.7464 63.2912 94.5424 63.0752 94.3904C62.8592 94.2304 62.5192 94.0944 62.0552 93.9824L61.3112 93.7904C60.8232 93.6704 60.4232 93.4664 60.1112 93.1784C59.7992 92.8904 59.6432 92.5184 59.6432 92.0624C59.6432 91.7104 59.7472 91.4024 59.9552 91.1384C60.1712 90.8664 60.4552 90.6584 60.8072 90.5144C61.1592 90.3704 61.5392 90.2984 61.9472 90.2984C62.4832 90.2984 62.9592 90.4144 63.3752 90.6464C63.7992 90.8784 64.0992 91.2024 64.2752 91.6184L63.3872 92.0264C63.1152 91.4824 62.6312 91.2104 61.9352 91.2104C61.5992 91.2104 61.3032 91.2904 61.0472 91.4504C60.7992 91.6024 60.6752 91.7984 60.6752 92.0384C60.6752 92.2624 60.7632 92.4464 60.9392 92.5904C61.1152 92.7264 61.3792 92.8384 61.7312 92.9264L62.6192 93.1544C63.2192 93.3064 63.6712 93.5344 63.9752 93.8384C64.2792 94.1344 64.4312 94.4984 64.4312 94.9304C64.4312 95.3064 64.3232 95.6384 64.1072 95.9264C63.8912 96.2064 63.5992 96.4224 63.2312 96.5744C62.8632 96.7264 62.4552 96.8024 62.0072 96.8024ZM64.8711 90.4904H65.9631L67.8591 95.4104H67.8831L69.8031 90.4904H70.8711L68.3751 96.6104H67.3431L64.8711 90.4904ZM73.546 96.8024C73.098 96.8024 72.698 96.7144 72.346 96.5384C71.994 96.3624 71.722 96.1224 71.53 95.8184C71.338 95.5064 71.242 95.1544 71.242 94.7624C71.242 94.1144 71.486 93.6104 71.974 93.2504C72.462 92.8824 73.078 92.6984 73.822 92.6984C74.19 92.6984 74.53 92.7384 74.842 92.8184C75.162 92.8984 75.406 92.9904 75.574 93.0944V92.7224C75.574 92.2664 75.414 91.9024 75.094 91.6304C74.774 91.3504 74.37 91.2104 73.882 91.2104C73.538 91.2104 73.222 91.2864 72.934 91.4384C72.646 91.5824 72.418 91.7864 72.25 92.0504L71.482 91.4744C71.722 91.1064 72.05 90.8184 72.466 90.6104C72.89 90.4024 73.358 90.2984 73.87 90.2984C74.702 90.2984 75.354 90.5184 75.826 90.9584C76.306 91.3904 76.546 91.9824 76.546 92.7344V96.6104H75.574V95.7344H75.526C75.35 96.0304 75.086 96.2824 74.734 96.4904C74.382 96.6984 73.986 96.8024 73.546 96.8024ZM73.642 95.9024C73.986 95.9024 74.306 95.8144 74.602 95.6384C74.898 95.4624 75.134 95.2264 75.31 94.9304C75.486 94.6344 75.574 94.3104 75.574 93.9584C75.382 93.8304 75.146 93.7264 74.866 93.6464C74.586 93.5664 74.29 93.5264 73.978 93.5264C73.418 93.5264 72.994 93.6424 72.706 93.8744C72.426 94.1064 72.286 94.4064 72.286 94.7744C72.286 95.1104 72.414 95.3824 72.67 95.5904C72.926 95.7984 73.25 95.9024 73.642 95.9024ZM77.965 90.4904H78.937V91.4744H78.985C79.105 91.1384 79.337 90.8624 79.681 90.6464C80.025 90.4224 80.385 90.3104 80.761 90.3104C81.041 90.3104 81.281 90.3504 81.481 90.4304V91.5344C81.225 91.4064 80.937 91.3424 80.617 91.3424C80.321 91.3424 80.049 91.4264 79.801 91.5944C79.553 91.7624 79.353 91.9904 79.201 92.2784C79.057 92.5584 78.985 92.8624 78.985 93.1904V96.6104H77.965V90.4904ZM84.1866 96.8024C83.7386 96.8024 83.3386 96.7144 82.9866 96.5384C82.6346 96.3624 82.3626 96.1224 82.1706 95.8184C81.9786 95.5064 81.8826 95.1544 81.8826 94.7624C81.8826 94.1144 82.1266 93.6104 82.6146 93.2504C83.1026 92.8824 83.7186 92.6984 84.4626 92.6984C84.8306 92.6984 85.1706 92.7384 85.4826 92.8184C85.8026 92.8984 86.0466 92.9904 86.2146 93.0944V92.7224C86.2146 92.2664 86.0546 91.9024 85.7346 91.6304C85.4146 91.3504 85.0106 91.2104 84.5226 91.2104C84.1786 91.2104 83.8626 91.2864 83.5746 91.4384C83.2866 91.5824 83.0586 91.7864 82.8906 92.0504L82.1226 91.4744C82.3626 91.1064 82.6906 90.8184 83.1066 90.6104C83.5306 90.4024 83.9986 90.2984 84.5106 90.2984C85.3426 90.2984 85.9946 90.5184 86.4666 90.9584C86.9466 91.3904 87.1866 91.9824 87.1866 92.7344V96.6104H86.2146V95.7344H86.1666C85.9906 96.0304 85.7266 96.2824 85.3746 96.4904C85.0226 96.6984 84.6266 96.8024 84.1866 96.8024ZM84.2826 95.9024C84.6266 95.9024 84.9466 95.8144 85.2426 95.6384C85.5386 95.4624 85.7746 95.2264 85.9506 94.9304C86.1266 94.6344 86.2146 94.3104 86.2146 93.9584C86.0226 93.8304 85.7866 93.7264 85.5066 93.6464C85.2266 93.5664 84.9306 93.5264 84.6186 93.5264C84.0586 93.5264 83.6346 93.6424 83.3466 93.8744C83.0666 94.1064 82.9266 94.4064 82.9266 94.7744C82.9266 95.1104 83.0546 95.3824 83.3106 95.5904C83.5666 95.7984 83.8906 95.9024 84.2826 95.9024ZM90.3604 96.2264L87.8284 90.4904H88.9324L90.8524 95.0384H90.8764L92.7244 90.4904H93.8284L90.0484 99.2024H88.9924L90.3604 96.2264ZM96.3272 96.8024C95.8792 96.8024 95.4792 96.7144 95.1272 96.5384C94.7752 96.3624 94.5032 96.1224 94.3112 95.8184C94.1192 95.5064 94.0232 95.1544 94.0232 94.7624C94.0232 94.1144 94.2672 93.6104 94.7552 93.2504C95.2432 92.8824 95.8592 92.6984 96.6032 92.6984C96.9712 92.6984 97.3112 92.7384 97.6232 92.8184C97.9432 92.8984 98.1872 92.9904 98.3552 93.0944V92.7224C98.3552 92.2664 98.1952 91.9024 97.8752 91.6304C97.5552 91.3504 97.1512 91.2104 96.6632 91.2104C96.3192 91.2104 96.0032 91.2864 95.7152 91.4384C95.4272 91.5824 95.1992 91.7864 95.0312 92.0504L94.2632 91.4744C94.5032 91.1064 94.8312 90.8184 95.2472 90.6104C95.6712 90.4024 96.1392 90.2984 96.6512 90.2984C97.4832 90.2984 98.1352 90.5184 98.6072 90.9584C99.0872 91.3904 99.3272 91.9824 99.3272 92.7344V96.6104H98.3552V95.7344H98.3072C98.1312 96.0304 97.8672 96.2824 97.5152 96.4904C97.1632 96.6984 96.7672 96.8024 96.3272 96.8024ZM96.4232 95.9024C96.7672 95.9024 97.0872 95.8144 97.3832 95.6384C97.6792 95.4624 97.9152 95.2264 98.0912 94.9304C98.2672 94.6344 98.3552 94.3104 98.3552 93.9584C98.1632 93.8304 97.9272 93.7264 97.6472 93.6464C97.3672 93.5664 97.0712 93.5264 96.7592 93.5264C96.1992 93.5264 95.7752 93.6424 95.4872 93.8744C95.2072 94.1064 95.0672 94.4064 95.0672 94.7744C95.0672 95.1104 95.1952 95.3824 95.4512 95.5904C95.7072 95.7984 96.0312 95.9024 96.4232 95.9024ZM103.739 88.0184H104.987L109.295 94.8584H109.343L109.295 93.2024V88.0184H110.315V96.6104H109.259L104.747 89.4464H104.699L104.747 91.1024V96.6104H103.739V88.0184ZM113.812 96.8024C113.364 96.8024 112.964 96.7144 112.612 96.5384C112.26 96.3624 111.988 96.1224 111.796 95.8184C111.604 95.5064 111.508 95.1544 111.508 94.7624C111.508 94.1144 111.752 93.6104 112.24 93.2504C112.728 92.8824 113.344 92.6984 114.088 92.6984C114.456 92.6984 114.796 92.7384 115.108 92.8184C115.428 92.8984 115.672 92.9904 115.84 93.0944V92.7224C115.84 92.2664 115.68 91.9024 115.36 91.6304C115.04 91.3504 114.636 91.2104 114.148 91.2104C113.804 91.2104 113.488 91.2864 113.2 91.4384C112.912 91.5824 112.684 91.7864 112.516 92.0504L111.748 91.4744C111.988 91.1064 112.316 90.8184 112.732 90.6104C113.156 90.4024 113.624 90.2984 114.136 90.2984C114.968 90.2984 115.62 90.5184 116.092 90.9584C116.572 91.3904 116.812 91.9824 116.812 92.7344V96.6104H115.84V95.7344H115.792C115.616 96.0304 115.352 96.2824 115 96.4904C114.648 96.6984 114.252 96.8024 113.812 96.8024ZM113.908 95.9024C114.252 95.9024 114.572 95.8144 114.868 95.6384C115.164 95.4624 115.4 95.2264 115.576 94.9304C115.752 94.6344 115.84 94.3104 115.84 93.9584C115.648 93.8304 115.412 93.7264 115.132 93.6464C114.852 93.5664 114.556 93.5264 114.244 93.5264C113.684 93.5264 113.26 93.6424 112.972 93.8744C112.692 94.1064 112.552 94.4064 112.552 94.7744C112.552 95.1104 112.68 95.3824 112.936 95.5904C113.192 95.7984 113.516 95.9024 113.908 95.9024ZM120.465 96.7064C120.217 96.7064 119.985 96.6664 119.769 96.5864C119.561 96.5064 119.385 96.3984 119.241 96.2624C119.081 96.1104 118.961 95.9344 118.881 95.7344C118.801 95.5344 118.761 95.2904 118.761 95.0024V91.4144H117.693V90.4904H118.761V88.7624H119.781V90.4904H121.269V91.4144H119.781V94.7504C119.781 95.0864 119.845 95.3344 119.973 95.4944C120.125 95.6704 120.345 95.7584 120.633 95.7584C120.865 95.7584 121.089 95.6904 121.305 95.5544V96.5504C121.185 96.6064 121.061 96.6464 120.933 96.6704C120.813 96.6944 120.657 96.7064 120.465 96.7064ZM123.167 89.3624C122.967 89.3624 122.795 89.2904 122.651 89.1464C122.507 89.0024 122.435 88.8304 122.435 88.6304C122.435 88.4304 122.507 88.2624 122.651 88.1264C122.795 87.9824 122.967 87.9104 123.167 87.9104C123.367 87.9104 123.539 87.9824 123.683 88.1264C123.827 88.2624 123.899 88.4304 123.899 88.6304C123.899 88.8304 123.827 89.0024 123.683 89.1464C123.547 89.2904 123.375 89.3624 123.167 89.3624ZM122.663 90.4904H123.671V96.6104H122.663V90.4904ZM128.035 96.8024C127.435 96.8024 126.895 96.6584 126.415 96.3704C125.935 96.0824 125.559 95.6904 125.287 95.1944C125.023 94.6984 124.891 94.1504 124.891 93.5504C124.891 92.9504 125.023 92.4024 125.287 91.9064C125.559 91.4104 125.935 91.0184 126.415 90.7304C126.895 90.4424 127.435 90.2984 128.035 90.2984C128.635 90.2984 129.175 90.4424 129.655 90.7304C130.135 91.0184 130.507 91.4104 130.771 91.9064C131.043 92.4024 131.179 92.9504 131.179 93.5504C131.179 94.1504 131.043 94.6984 130.771 95.1944C130.507 95.6904 130.135 96.0824 129.655 96.3704C129.175 96.6584 128.635 96.8024 128.035 96.8024ZM128.035 95.8784C128.411 95.8784 128.759 95.7864 129.079 95.6024C129.407 95.4104 129.667 95.1384 129.859 94.7864C130.059 94.4344 130.159 94.0224 130.159 93.5504C130.159 93.0784 130.059 92.6664 129.859 92.3144C129.667 91.9624 129.407 91.6944 129.079 91.5104C128.759 91.3184 128.411 91.2224 128.035 91.2224C127.659 91.2224 127.307 91.3184 126.979 91.5104C126.651 91.6944 126.387 91.9624 126.187 92.3144C125.995 92.6664 125.899 93.0784 125.899 93.5504C125.899 94.0224 125.995 94.4344 126.187 94.7864C126.387 95.1384 126.651 95.4104 126.979 95.6024C127.307 95.7864 127.659 95.8784 128.035 95.8784ZM132.246 90.4904H133.218V91.3904H133.266C133.434 91.0864 133.702 90.8304 134.07 90.6224C134.438 90.4064 134.83 90.2984 135.246 90.2984C135.982 90.2984 136.542 90.5144 136.926 90.9464C137.318 91.3704 137.514 91.9504 137.514 92.6864V96.6104H136.494V92.8424C136.494 92.2744 136.358 91.8624 136.086 91.6064C135.814 91.3504 135.442 91.2224 134.97 91.2224C134.642 91.2224 134.346 91.3144 134.082 91.4984C133.826 91.6824 133.626 91.9264 133.482 92.2304C133.338 92.5264 133.266 92.8384 133.266 93.1664V96.6104H132.246V90.4904ZM140.87 96.8024C140.422 96.8024 140.022 96.7144 139.67 96.5384C139.318 96.3624 139.046 96.1224 138.854 95.8184C138.662 95.5064 138.566 95.1544 138.566 94.7624C138.566 94.1144 138.81 93.6104 139.298 93.2504C139.786 92.8824 140.402 92.6984 141.146 92.6984C141.514 92.6984 141.854 92.7384 142.166 92.8184C142.486 92.8984 142.73 92.9904 142.898 93.0944V92.7224C142.898 92.2664 142.738 91.9024 142.418 91.6304C142.098 91.3504 141.694 91.2104 141.206 91.2104C140.862 91.2104 140.546 91.2864 140.258 91.4384C139.97 91.5824 139.742 91.7864 139.574 92.0504L138.806 91.4744C139.046 91.1064 139.374 90.8184 139.79 90.6104C140.214 90.4024 140.682 90.2984 141.194 90.2984C142.026 90.2984 142.678 90.5184 143.15 90.9584C143.63 91.3904 143.87 91.9824 143.87 92.7344V96.6104H142.898V95.7344H142.85C142.674 96.0304 142.41 96.2824 142.058 96.4904C141.706 96.6984 141.31 96.8024 140.87 96.8024ZM140.966 95.9024C141.31 95.9024 141.63 95.8144 141.926 95.6384C142.222 95.4624 142.458 95.2264 142.634 94.9304C142.81 94.6344 142.898 94.3104 142.898 93.9584C142.706 93.8304 142.47 93.7264 142.19 93.6464C141.91 93.5664 141.614 93.5264 141.302 93.5264C140.742 93.5264 140.318 93.6424 140.03 93.8744C139.75 94.1064 139.61 94.4064 139.61 94.7744C139.61 95.1104 139.738 95.3824 139.994 95.5904C140.25 95.7984 140.574 95.9024 140.966 95.9024ZM145.289 88.0184H146.309V96.6104H145.289V88.0184ZM150.814 88.0184H151.822V96.6104H150.814V88.0184ZM153.539 90.4904H154.511V91.3904H154.559C154.727 91.0864 154.995 90.8304 155.363 90.6224C155.731 90.4064 156.123 90.2984 156.539 90.2984C157.275 90.2984 157.835 90.5144 158.219 90.9464C158.611 91.3704 158.807 91.9504 158.807 92.6864V96.6104H157.787V92.8424C157.787 92.2744 157.651 91.8624 157.379 91.6064C157.107 91.3504 156.735 91.2224 156.263 91.2224C155.935 91.2224 155.639 91.3144 155.375 91.4984C155.119 91.6824 154.919 91.9264 154.775 92.2304C154.631 92.5264 154.559 92.8384 154.559 93.1664V96.6104H153.539V90.4904ZM162.343 96.8024C161.687 96.8024 161.139 96.6504 160.699 96.3464C160.259 96.0344 159.947 95.6384 159.763 95.1584L160.675 94.7504C160.827 95.1184 161.051 95.4024 161.347 95.6024C161.651 95.8024 161.983 95.9024 162.343 95.9024C162.727 95.9024 163.055 95.8264 163.327 95.6744C163.599 95.5144 163.735 95.2904 163.735 95.0024C163.735 94.7464 163.627 94.5424 163.411 94.3904C163.195 94.2304 162.855 94.0944 162.391 93.9824L161.647 93.7904C161.159 93.6704 160.759 93.4664 160.447 93.1784C160.135 92.8904 159.979 92.5184 159.979 92.0624C159.979 91.7104 160.083 91.4024 160.291 91.1384C160.507 90.8664 160.791 90.6584 161.143 90.5144C161.495 90.3704 161.875 90.2984 162.283 90.2984C162.819 90.2984 163.295 90.4144 163.711 90.6464C164.135 90.8784 164.435 91.2024 164.611 91.6184L163.723 92.0264C163.451 91.4824 162.967 91.2104 162.271 91.2104C161.935 91.2104 161.639 91.2904 161.383 91.4504C161.135 91.6024 161.011 91.7984 161.011 92.0384C161.011 92.2624 161.099 92.4464 161.275 92.5904C161.451 92.7264 161.715 92.8384 162.067 92.9264L162.955 93.1544C163.555 93.3064 164.007 93.5344 164.311 93.8384C164.615 94.1344 164.767 94.4984 164.767 94.9304C164.767 95.3064 164.659 95.6384 164.443 95.9264C164.227 96.2064 163.935 96.4224 163.567 96.5744C163.199 96.7264 162.791 96.8024 162.343 96.8024ZM168.172 96.7064C167.924 96.7064 167.692 96.6664 167.476 96.5864C167.268 96.5064 167.092 96.3984 166.948 96.2624C166.788 96.1104 166.668 95.9344 166.588 95.7344C166.508 95.5344 166.468 95.2904 166.468 95.0024V91.4144H165.4V90.4904H166.468V88.7624H167.488V90.4904H168.976V91.4144H167.488V94.7504C167.488 95.0864 167.552 95.3344 167.68 95.4944C167.832 95.6704 168.052 95.7584 168.34 95.7584C168.572 95.7584 168.796 95.6904 169.012 95.5544V96.5504C168.892 96.6064 168.768 96.6464 168.64 96.6704C168.52 96.6944 168.364 96.7064 168.172 96.7064ZM170.874 89.3624C170.674 89.3624 170.502 89.2904 170.358 89.1464C170.214 89.0024 170.142 88.8304 170.142 88.6304C170.142 88.4304 170.214 88.2624 170.358 88.1264C170.502 87.9824 170.674 87.9104 170.874 87.9104C171.074 87.9104 171.246 87.9824 171.39 88.1264C171.534 88.2624 171.606 88.4304 171.606 88.6304C171.606 88.8304 171.534 89.0024 171.39 89.1464C171.254 89.2904 171.082 89.3624 170.874 89.3624ZM170.37 90.4904H171.378V96.6104H170.37V90.4904ZM175.274 96.7064C175.026 96.7064 174.794 96.6664 174.578 96.5864C174.37 96.5064 174.194 96.3984 174.05 96.2624C173.89 96.1104 173.77 95.9344 173.69 95.7344C173.61 95.5344 173.57 95.2904 173.57 95.0024V91.4144H172.502V90.4904H173.57V88.7624H174.59V90.4904H176.078V91.4144H174.59V94.7504C174.59 95.0864 174.654 95.3344 174.782 95.4944C174.934 95.6704 175.154 95.7584 175.442 95.7584C175.674 95.7584 175.898 95.6904 176.114 95.5544V96.5504C175.994 96.6064 175.87 96.6464 175.742 96.6704C175.622 96.6944 175.466 96.7064 175.274 96.7064ZM179.537 96.8024C178.801 96.8024 178.237 96.5864 177.845 96.1544C177.461 95.7224 177.269 95.1184 177.269 94.3424V90.4904H178.289V94.1864C178.289 94.7704 178.421 95.1984 178.685 95.4704C178.949 95.7424 179.305 95.8784 179.753 95.8784C180.097 95.8784 180.401 95.7864 180.665 95.6024C180.937 95.4184 181.145 95.1784 181.289 94.8824C181.441 94.5864 181.517 94.2744 181.517 93.9464V90.4904H182.537V96.6104H181.565V95.7224H181.517C181.349 96.0264 181.081 96.2824 180.713 96.4904C180.345 96.6984 179.953 96.8024 179.537 96.8024ZM186.454 96.7064C186.206 96.7064 185.974 96.6664 185.758 96.5864C185.55 96.5064 185.374 96.3984 185.23 96.2624C185.07 96.1104 184.95 95.9344 184.87 95.7344C184.79 95.5344 184.75 95.2904 184.75 95.0024V91.4144H183.682V90.4904H184.75V88.7624H185.77V90.4904H187.258V91.4144H185.77V94.7504C185.77 95.0864 185.834 95.3344 185.962 95.4944C186.114 95.6704 186.334 95.7584 186.622 95.7584C186.854 95.7584 187.078 95.6904 187.294 95.5544V96.5504C187.174 96.6064 187.05 96.6464 186.922 96.6704C186.802 96.6944 186.646 96.7064 186.454 96.7064ZM190.951 96.8024C190.367 96.8024 189.843 96.6624 189.379 96.3824C188.915 96.1024 188.551 95.7184 188.287 95.2304C188.031 94.7344 187.903 94.1784 187.903 93.5624C187.903 92.9704 188.023 92.4264 188.263 91.9304C188.511 91.4344 188.859 91.0384 189.307 90.7424C189.755 90.4464 190.275 90.2984 190.867 90.2984C191.467 90.2984 191.987 90.4344 192.427 90.7064C192.867 90.9704 193.203 91.3384 193.435 91.8104C193.675 92.2824 193.795 92.8224 193.795 93.4304C193.795 93.5504 193.783 93.6544 193.759 93.7424H188.923C188.947 94.2064 189.059 94.5984 189.259 94.9184C189.459 95.2384 189.711 95.4784 190.015 95.6384C190.327 95.7984 190.651 95.8784 190.987 95.8784C191.771 95.8784 192.375 95.5104 192.799 94.7744L193.663 95.1944C193.399 95.6904 193.039 96.0824 192.583 96.3704C192.135 96.6584 191.591 96.8024 190.951 96.8024ZM192.715 92.9024C192.699 92.6464 192.627 92.3904 192.499 92.1344C192.371 91.8784 192.167 91.6624 191.887 91.4864C191.615 91.3104 191.271 91.2224 190.855 91.2224C190.375 91.2224 189.967 91.3784 189.631 91.6904C189.303 91.9944 189.087 92.3984 188.983 92.9024H192.715ZM201.731 96.8024C200.907 96.8024 200.159 96.6024 199.487 96.2024C198.815 95.8024 198.287 95.2624 197.903 94.5824C197.519 93.8944 197.327 93.1384 197.327 92.3144C197.327 91.4984 197.519 90.7464 197.903 90.0584C198.287 89.3704 198.815 88.8264 199.487 88.4264C200.159 88.0264 200.907 87.8264 201.731 87.8264C202.555 87.8264 203.303 88.0264 203.975 88.4264C204.647 88.8264 205.175 89.3704 205.559 90.0584C205.951 90.7464 206.147 91.4984 206.147 92.3144C206.147 93.1384 205.955 93.8944 205.571 94.5824C205.187 95.2624 204.655 95.8024 203.975 96.2024C203.303 96.6024 202.555 96.8024 201.731 96.8024ZM201.731 95.8304C202.347 95.8304 202.911 95.6824 203.423 95.3864C203.943 95.0824 204.351 94.6664 204.647 94.1384C204.951 93.6024 205.103 92.9944 205.103 92.3144C205.103 91.6344 204.951 91.0304 204.647 90.5024C204.351 89.9664 203.943 89.5504 203.423 89.2544C202.911 88.9504 202.347 88.7984 201.731 88.7984C201.115 88.7984 200.551 88.9504 200.039 89.2544C199.527 89.5504 199.119 89.9664 198.815 90.5024C198.511 91.0384 198.359 91.6424 198.359 92.3144C198.359 92.9864 198.511 93.5904 198.815 94.1264C199.119 94.6624 199.527 95.0824 200.039 95.3864C200.551 95.6824 201.115 95.8304 201.731 95.8304ZM208.153 91.4144H207.025V90.4904H208.153V89.8304C208.153 89.4464 208.241 89.1104 208.417 88.8224C208.593 88.5344 208.829 88.3144 209.125 88.1624C209.421 88.0024 209.749 87.9224 210.109 87.9224C210.453 87.9224 210.753 87.9704 211.009 88.0664V89.0624C210.865 89.0064 210.729 88.9624 210.601 88.9304C210.473 88.8904 210.321 88.8704 210.145 88.8704C209.881 88.8704 209.653 88.9664 209.461 89.1584C209.269 89.3424 209.173 89.6024 209.173 89.9384V90.4904H210.745V91.4144H209.173V96.6104H208.153V91.4144ZM216.269 88.9904H213.857V88.0184H219.689V88.9904H217.289V96.6104H216.269V88.9904ZM222.533 96.8024C221.949 96.8024 221.425 96.6624 220.961 96.3824C220.497 96.1024 220.133 95.7184 219.869 95.2304C219.613 94.7344 219.485 94.1784 219.485 93.5624C219.485 92.9704 219.605 92.4264 219.845 91.9304C220.093 91.4344 220.441 91.0384 220.889 90.7424C221.337 90.4464 221.857 90.2984 222.449 90.2984C223.049 90.2984 223.569 90.4344 224.009 90.7064C224.449 90.9704 224.785 91.3384 225.017 91.8104C225.257 92.2824 225.377 92.8224 225.377 93.4304C225.377 93.5504 225.365 93.6544 225.341 93.7424H220.505C220.529 94.2064 220.641 94.5984 220.841 94.9184C221.041 95.2384 221.293 95.4784 221.597 95.6384C221.909 95.7984 222.233 95.8784 222.569 95.8784C223.353 95.8784 223.957 95.5104 224.381 94.7744L225.245 95.1944C224.981 95.6904 224.621 96.0824 224.165 96.3704C223.717 96.6584 223.173 96.8024 222.533 96.8024ZM224.297 92.9024C224.281 92.6464 224.209 92.3904 224.081 92.1344C223.953 91.8784 223.749 91.6624 223.469 91.4864C223.197 91.3104 222.853 91.2224 222.437 91.2224C221.957 91.2224 221.549 91.3784 221.213 91.6904C220.885 91.9944 220.669 92.3984 220.565 92.9024H224.297ZM229.401 96.8024C228.809 96.8024 228.277 96.6624 227.805 96.3824C227.333 96.0944 226.965 95.7064 226.701 95.2184C226.437 94.7224 226.305 94.1664 226.305 93.5504C226.305 92.9344 226.437 92.3784 226.701 91.8824C226.965 91.3864 227.333 90.9984 227.805 90.7184C228.277 90.4384 228.809 90.2984 229.401 90.2984C230.065 90.2984 230.621 90.4544 231.069 90.7664C231.525 91.0704 231.849 91.4784 232.041 91.9904L231.117 92.3744C230.965 91.9984 230.737 91.7144 230.433 91.5224C230.137 91.3224 229.777 91.2224 229.353 91.2224C228.993 91.2224 228.657 91.3224 228.345 91.5224C228.033 91.7144 227.781 91.9864 227.589 92.3384C227.405 92.6904 227.313 93.0944 227.313 93.5504C227.313 94.0064 227.405 94.4104 227.589 94.7624C227.781 95.1144 228.033 95.3904 228.345 95.5904C228.657 95.7824 228.993 95.8784 229.353 95.8784C229.785 95.8784 230.157 95.7784 230.469 95.5784C230.781 95.3784 231.013 95.0944 231.165 94.7264L232.077 95.1104C231.869 95.6144 231.533 96.0224 231.069 96.3344C230.613 96.6464 230.057 96.8024 229.401 96.8024ZM233.18 88.0184H234.2V90.5504L234.152 91.3904H234.2C234.368 91.0784 234.632 90.8184 234.992 90.6104C235.36 90.4024 235.76 90.2984 236.192 90.2984C236.936 90.2984 237.504 90.5184 237.896 90.9584C238.288 91.3904 238.484 91.9664 238.484 92.6864V96.6104H237.464V92.8424C237.464 92.2904 237.324 91.8824 237.044 91.6184C236.764 91.3544 236.4 91.2224 235.952 91.2224C235.632 91.2224 235.336 91.3184 235.064 91.5104C234.8 91.7024 234.588 91.9504 234.428 92.2544C234.276 92.5584 234.2 92.8744 234.2 93.2024V96.6104H233.18V88.0184ZM239.953 90.4904H240.925V91.3904H240.973C241.141 91.0864 241.409 90.8304 241.777 90.6224C242.145 90.4064 242.537 90.2984 242.953 90.2984C243.689 90.2984 244.249 90.5144 244.633 90.9464C245.025 91.3704 245.221 91.9504 245.221 92.6864V96.6104H244.201V92.8424C244.201 92.2744 244.065 91.8624 243.793 91.6064C243.521 91.3504 243.149 91.2224 242.677 91.2224C242.349 91.2224 242.053 91.3144 241.789 91.4984C241.533 91.6824 241.333 91.9264 241.189 92.2304C241.045 92.5264 240.973 92.8384 240.973 93.1664V96.6104H239.953V90.4904ZM249.5 96.8024C248.9 96.8024 248.36 96.6584 247.88 96.3704C247.4 96.0824 247.024 95.6904 246.752 95.1944C246.488 94.6984 246.356 94.1504 246.356 93.5504C246.356 92.9504 246.488 92.4024 246.752 91.9064C247.024 91.4104 247.4 91.0184 247.88 90.7304C248.36 90.4424 248.9 90.2984 249.5 90.2984C250.1 90.2984 250.64 90.4424 251.12 90.7304C251.6 91.0184 251.972 91.4104 252.236 91.9064C252.508 92.4024 252.644 92.9504 252.644 93.5504C252.644 94.1504 252.508 94.6984 252.236 95.1944C251.972 95.6904 251.6 96.0824 251.12 96.3704C250.64 96.6584 250.1 96.8024 249.5 96.8024ZM249.5 95.8784C249.876 95.8784 250.224 95.7864 250.544 95.6024C250.872 95.4104 251.132 95.1384 251.324 94.7864C251.524 94.4344 251.624 94.0224 251.624 93.5504C251.624 93.0784 251.524 92.6664 251.324 92.3144C251.132 91.9624 250.872 91.6944 250.544 91.5104C250.224 91.3184 249.876 91.2224 249.5 91.2224C249.124 91.2224 248.772 91.3184 248.444 91.5104C248.116 91.6944 247.852 91.9624 247.652 92.3144C247.46 92.6664 247.364 93.0784 247.364 93.5504C247.364 94.0224 247.46 94.4344 247.652 94.7864C247.852 95.1384 248.116 95.4104 248.444 95.6024C248.772 95.7864 249.124 95.8784 249.5 95.8784ZM253.77 88.0184H254.79V96.6104H253.77V88.0184ZM259.062 96.8024C258.462 96.8024 257.922 96.6584 257.442 96.3704C256.962 96.0824 256.586 95.6904 256.314 95.1944C256.05 94.6984 255.918 94.1504 255.918 93.5504C255.918 92.9504 256.05 92.4024 256.314 91.9064C256.586 91.4104 256.962 91.0184 257.442 90.7304C257.922 90.4424 258.462 90.2984 259.062 90.2984C259.662 90.2984 260.202 90.4424 260.682 90.7304C261.162 91.0184 261.534 91.4104 261.798 91.9064C262.07 92.4024 262.206 92.9504 262.206 93.5504C262.206 94.1504 262.07 94.6984 261.798 95.1944C261.534 95.6904 261.162 96.0824 260.682 96.3704C260.202 96.6584 259.662 96.8024 259.062 96.8024ZM259.062 95.8784C259.438 95.8784 259.786 95.7864 260.106 95.6024C260.434 95.4104 260.694 95.1384 260.886 94.7864C261.086 94.4344 261.186 94.0224 261.186 93.5504C261.186 93.0784 261.086 92.6664 260.886 92.3144C260.694 91.9624 260.434 91.6944 260.106 91.5104C259.786 91.3184 259.438 91.2224 259.062 91.2224C258.686 91.2224 258.334 91.3184 258.006 91.5104C257.678 91.6944 257.414 91.9624 257.214 92.3144C257.022 92.6664 256.926 93.0784 256.926 93.5504C256.926 94.0224 257.022 94.4344 257.214 94.7864C257.414 95.1384 257.678 95.4104 258.006 95.6024C258.334 95.7864 258.686 95.8784 259.062 95.8784ZM266.079 99.3944C265.359 99.3944 264.763 99.2264 264.291 98.8904C263.827 98.5544 263.515 98.1504 263.355 97.6784L264.279 97.2824C264.415 97.6344 264.639 97.9184 264.951 98.1344C265.271 98.3584 265.647 98.4704 266.079 98.4704C266.711 98.4704 267.199 98.2864 267.543 97.9184C267.895 97.5504 268.071 97.0304 268.071 96.3584V95.6744H268.023C267.823 95.9864 267.539 96.2424 267.171 96.4424C266.811 96.6344 266.399 96.7304 265.935 96.7304C265.407 96.7304 264.923 96.5944 264.483 96.3224C264.051 96.0504 263.707 95.6704 263.451 95.1824C263.195 94.6944 263.067 94.1384 263.067 93.5144C263.067 92.8984 263.195 92.3464 263.451 91.8584C263.707 91.3624 264.051 90.9784 264.483 90.7064C264.923 90.4344 265.407 90.2984 265.935 90.2984C266.399 90.2984 266.811 90.3984 267.171 90.5984C267.539 90.7904 267.823 91.0464 268.023 91.3664H268.071V90.4904H269.043V96.3704C269.043 97.3544 268.771 98.1024 268.227 98.6144C267.683 99.1344 266.967 99.3944 266.079 99.3944ZM266.079 95.8064C266.447 95.8064 266.779 95.7144 267.075 95.5304C267.379 95.3464 267.619 95.0824 267.795 94.7384C267.979 94.3944 268.071 93.9864 268.071 93.5144C268.071 93.0344 267.979 92.6224 267.795 92.2784C267.619 91.9344 267.379 91.6744 267.075 91.4984C266.779 91.3144 266.447 91.2224 266.079 91.2224C265.711 91.2224 265.375 91.3144 265.071 91.4984C264.767 91.6824 264.523 91.9464 264.339 92.2904C264.163 92.6344 264.075 93.0424 264.075 93.5144C264.075 93.9864 264.163 94.3984 264.339 94.7504C264.523 95.0944 264.767 95.3584 265.071 95.5424C265.375 95.7184 265.711 95.8064 266.079 95.8064ZM272.423 96.2264L269.891 90.4904H270.995L272.915 95.0384H272.939L274.787 90.4904H275.891L272.111 99.2024H271.055L272.423 96.2264Z" fill="#616161"/>
</svg>
