<svg width="304" height="120" viewBox="0 0 304 120" fill="none" xmlns="http://www.w3.org/2000/svg">
<rect width="304" height="120" rx="6" fill="#282828"/>
<path d="M34.0871 75.1403C32.9783 75.1403 31.9564 74.874 31.0216 74.3413C30.0867 73.8086 29.342 73.0803 28.7876 72.1563C28.2441 71.2214 27.9723 70.1833 27.9723 69.0418C27.9723 67.9004 28.2441 66.8677 28.7876 65.9437C29.342 65.0088 30.0867 64.275 31.0216 63.7424C31.9564 63.2097 32.9783 62.9434 34.0871 62.9434C34.9676 62.9434 35.7884 63.101 36.5493 63.4163C37.3102 63.7315 37.9462 64.1718 38.4571 64.737L37.1852 66.0089C36.8048 65.585 36.3482 65.2588 35.8155 65.0306C35.2937 64.8023 34.7122 64.6881 34.0708 64.6881C33.3207 64.6881 32.6195 64.8675 31.9673 65.2262C31.3151 65.585 30.7933 66.0959 30.4019 66.759C30.0106 67.4221 29.8149 68.1831 29.8149 69.0418C29.8149 69.9006 30.0106 70.6616 30.4019 71.3247C30.7933 71.9878 31.3151 72.4987 31.9673 72.8574C32.6195 73.2162 33.3261 73.3955 34.0871 73.3955C34.7828 73.3955 35.3644 73.2923 35.8318 73.0857C36.2993 72.8792 36.7178 72.602 37.0874 72.2541C37.3266 72.015 37.5277 71.716 37.6907 71.3573C37.8647 70.9986 37.9788 70.6072 38.0332 70.1833H34.0708V68.5527H39.7616C39.8159 68.857 39.8431 69.1723 39.8431 69.4984C39.8431 70.2376 39.729 70.9496 39.5007 71.6345C39.2724 72.3085 38.9082 72.8955 38.4082 73.3955C37.3102 74.5587 35.8699 75.1403 34.0871 75.1403ZM45.4753 75.1403C44.6383 75.1403 43.8882 74.9501 43.2251 74.5696C42.562 74.1782 42.0456 73.6456 41.676 72.9716C41.3064 72.2976 41.1216 71.5475 41.1216 70.7214C41.1216 69.8952 41.3064 69.1451 41.676 68.4711C42.0456 67.7971 42.562 67.2699 43.2251 66.8894C43.8882 66.4981 44.6383 66.3024 45.4753 66.3024C46.3124 66.3024 47.0624 66.4981 47.7256 66.8894C48.3887 67.2808 48.905 67.8134 49.2746 68.4874C49.6442 69.1614 49.829 69.9061 49.829 70.7214C49.829 71.5475 49.6442 72.2976 49.2746 72.9716C48.905 73.6456 48.3887 74.1782 47.7256 74.5696C47.0624 74.9501 46.3124 75.1403 45.4753 75.1403ZM45.4753 73.4934C45.9319 73.4934 46.3559 73.3847 46.7472 73.1673C47.1385 72.939 47.4484 72.6183 47.6766 72.2052C47.9158 71.7812 48.0354 71.2866 48.0354 70.7214C48.0354 70.1561 47.9158 69.6669 47.6766 69.2538C47.4484 68.8407 47.1385 68.5255 46.7472 68.3081C46.3559 68.0798 45.9319 67.9656 45.4753 67.9656C45.0188 67.9656 44.5948 68.0798 44.2035 68.3081C43.8121 68.5255 43.4969 68.8407 43.2577 69.2538C43.0294 69.6669 42.9153 70.1561 42.9153 70.7214C42.9153 71.2866 43.0294 71.7812 43.2577 72.2052C43.4969 72.6183 43.8121 72.939 44.2035 73.1673C44.5948 73.3847 45.0188 73.4934 45.4753 73.4934ZM55.38 75.1403C54.5429 75.1403 53.7928 74.9501 53.1297 74.5696C52.4666 74.1782 51.9503 73.6456 51.5807 72.9716C51.2111 72.2976 51.0263 71.5475 51.0263 70.7214C51.0263 69.8952 51.2111 69.1451 51.5807 68.4711C51.9503 67.7971 52.4666 67.2699 53.1297 66.8894C53.7928 66.4981 54.5429 66.3024 55.38 66.3024C56.217 66.3024 56.9671 66.4981 57.6302 66.8894C58.2933 67.2808 58.8097 67.8134 59.1793 68.4874C59.5489 69.1614 59.7337 69.9061 59.7337 70.7214C59.7337 71.5475 59.5489 72.2976 59.1793 72.9716C58.8097 73.6456 58.2933 74.1782 57.6302 74.5696C56.9671 74.9501 56.217 75.1403 55.38 75.1403ZM55.38 73.4934C55.8365 73.4934 56.2605 73.3847 56.6518 73.1673C57.0432 72.939 57.353 72.6183 57.5813 72.2052C57.8204 71.7812 57.94 71.2866 57.94 70.7214C57.94 70.1561 57.8204 69.6669 57.5813 69.2538C57.353 68.8407 57.0432 68.5255 56.6518 68.3081C56.2605 68.0798 55.8365 67.9656 55.38 67.9656C54.9234 67.9656 54.4994 68.0798 54.1081 68.3081C53.7167 68.5255 53.4015 68.8407 53.1623 69.2538C52.9341 69.6669 52.8199 70.1561 52.8199 70.7214C52.8199 71.2866 52.9341 71.7812 53.1623 72.2052C53.4015 72.6183 53.7167 72.939 54.1081 73.1673C54.4994 73.3847 54.9234 73.4934 55.38 73.4934ZM65.1378 78.6624C64.116 78.6624 63.2681 78.4287 62.5941 77.9612C61.931 77.4938 61.4853 76.9394 61.257 76.298L62.9365 75.5969C63.1105 76.0317 63.3877 76.3795 63.7681 76.6404C64.1595 76.9122 64.6161 77.0481 65.1378 77.0481C65.8988 77.0481 66.4912 76.8198 66.9152 76.3632C67.35 75.9175 67.5674 75.287 67.5674 74.4717V73.7054H67.4696C67.1978 74.0967 66.8337 74.4065 66.3771 74.6348C65.9314 74.8522 65.4151 74.9609 64.828 74.9609C64.1323 74.9609 63.4855 74.7816 62.8876 74.4228C62.2897 74.0641 61.8114 73.5586 61.4527 72.9064C61.1048 72.2433 60.9309 71.4877 60.9309 70.6398C60.9309 69.7919 61.1048 69.0418 61.4527 68.3896C61.8114 67.7265 62.2897 67.2156 62.8876 66.8568C63.4855 66.4872 64.1323 66.3024 64.828 66.3024C65.4042 66.3024 65.9205 66.4166 66.3771 66.6448C66.8337 66.8731 67.1978 67.1829 67.4696 67.5743H67.5674V66.5633H69.2796V74.4228C69.2796 75.3251 69.1057 76.0915 68.7578 76.722C68.4099 77.3633 67.9207 77.8471 67.2902 78.1732C66.6706 78.4993 65.9532 78.6624 65.1378 78.6624ZM65.1542 73.3303C65.589 73.3303 65.9912 73.2271 66.3608 73.0205C66.7304 72.8031 67.0239 72.4933 67.2413 72.0911C67.4587 71.678 67.5674 71.1942 67.5674 70.6398C67.5674 69.7919 67.3337 69.1342 66.8663 68.6668C66.4097 68.1885 65.839 67.9493 65.1542 67.9493C64.7085 67.9493 64.3008 68.058 63.9312 68.2755C63.5616 68.482 63.2681 68.7864 63.0507 69.1886C62.8333 69.5908 62.7246 70.0746 62.7246 70.6398C62.7246 71.2051 62.8333 71.6888 63.0507 72.0911C63.2681 72.4933 63.5616 72.8031 63.9312 73.0205C64.3008 73.2271 64.7085 73.3303 65.1542 73.3303ZM71.3876 63.2043H73.1813V74.8794H71.3876V63.2043ZM79.0087 75.1403C78.1934 75.1403 77.4596 74.9501 76.8074 74.5696C76.166 74.1891 75.6605 73.6673 75.2909 73.0042C74.9322 72.3302 74.7528 71.5747 74.7528 70.7377C74.7528 69.9441 74.9267 69.2103 75.2746 68.5363C75.6333 67.8515 76.1279 67.308 76.7584 66.9057C77.3889 66.5035 78.1064 66.3024 78.9108 66.3024C79.7479 66.3024 80.4708 66.4872 81.0795 66.8568C81.6992 67.2264 82.1666 67.7319 82.4819 68.3733C82.808 69.0147 82.971 69.7376 82.971 70.542C82.971 70.6942 82.9547 70.8844 82.9221 71.1127H76.5465C76.6117 71.8845 76.8835 72.4824 77.3618 72.9064C77.8509 73.3195 78.4162 73.526 79.0576 73.526C79.5685 73.526 80.0088 73.4119 80.3784 73.1836C80.7589 72.9444 81.0632 72.6237 81.2915 72.2215L82.808 72.939C82.4166 73.6238 81.9057 74.1619 81.2752 74.5533C80.6447 74.9446 79.8892 75.1403 79.0087 75.1403ZM81.1448 69.743C81.123 69.4495 81.0306 69.1614 80.8676 68.8788C80.7045 68.5853 80.4545 68.3407 80.1175 68.145C79.7914 67.9493 79.3892 67.8515 78.9108 67.8515C78.3347 67.8515 77.8455 68.0254 77.4433 68.3733C77.052 68.7103 76.7802 69.1668 76.628 69.743H81.1448ZM88.7197 63.2043H92.4538C93.6604 63.2043 94.7149 63.4489 95.6171 63.938C96.5194 64.4272 97.2097 65.1175 97.688 66.0089C98.1772 66.8894 98.4218 67.9004 98.4218 69.0418C98.4218 70.1833 98.1772 71.1997 97.688 72.0911C97.2097 72.9716 96.5194 73.6564 95.6171 74.1456C94.7149 74.6348 93.6604 74.8794 92.4538 74.8794H88.7197V63.2043ZM92.4212 73.1346C93.7256 73.1346 94.742 72.7759 95.4704 72.0585C96.2096 71.3301 96.5792 70.3246 96.5792 69.0418C96.5792 67.77 96.2096 66.7699 95.4704 66.0415C94.742 65.3132 93.7256 64.949 92.4212 64.949H90.546V73.1346H92.4212ZM103.77 75.1403C102.955 75.1403 102.221 74.9501 101.569 74.5696C100.928 74.1891 100.422 73.6673 100.052 73.0042C99.6938 72.3302 99.5144 71.5747 99.5144 70.7377C99.5144 69.9441 99.6883 69.2103 100.036 68.5363C100.395 67.8515 100.89 67.308 101.52 66.9057C102.151 66.5035 102.868 66.3024 103.672 66.3024C104.509 66.3024 105.232 66.4872 105.841 66.8568C106.461 67.2264 106.928 67.7319 107.243 68.3733C107.57 69.0147 107.733 69.7376 107.733 70.542C107.733 70.6942 107.716 70.8844 107.684 71.1127H101.308C101.373 71.8845 101.645 72.4824 102.123 72.9064C102.613 73.3195 103.178 73.526 103.819 73.526C104.33 73.526 104.77 73.4119 105.14 73.1836C105.52 72.9444 105.825 72.6237 106.053 72.2215L107.57 72.939C107.178 73.6238 106.667 74.1619 106.037 74.5533C105.406 74.9446 104.651 75.1403 103.77 75.1403ZM105.906 69.743C105.885 69.4495 105.792 69.1614 105.629 68.8788C105.466 68.5853 105.216 68.3407 104.879 68.145C104.553 67.9493 104.151 67.8515 103.672 67.8515C103.096 67.8515 102.607 68.0254 102.205 68.3733C101.814 68.7103 101.542 69.1668 101.39 69.743H105.906ZM108.277 66.5633H110.283L112.582 72.5639H112.647L114.995 66.5633H116.952L113.495 74.8794H111.702L108.277 66.5633ZM121.669 75.1403C120.853 75.1403 120.12 74.9501 119.467 74.5696C118.826 74.1891 118.321 73.6673 117.951 73.0042C117.592 72.3302 117.413 71.5747 117.413 70.7377C117.413 69.9441 117.587 69.2103 117.935 68.5363C118.293 67.8515 118.788 67.308 119.418 66.9057C120.049 66.5035 120.766 66.3024 121.571 66.3024C122.408 66.3024 123.131 66.4872 123.74 66.8568C124.359 67.2264 124.827 67.7319 125.142 68.3733C125.468 69.0147 125.631 69.7376 125.631 70.542C125.631 70.6942 125.615 70.8844 125.582 71.1127H119.206C119.272 71.8845 119.543 72.4824 120.022 72.9064C120.511 73.3195 121.076 73.526 121.718 73.526C122.229 73.526 122.669 73.4119 123.038 73.1836C123.419 72.9444 123.723 72.6237 123.952 72.2215L125.468 72.939C125.077 73.6238 124.566 74.1619 123.935 74.5533C123.305 74.9446 122.549 75.1403 121.669 75.1403ZM123.805 69.743C123.783 69.4495 123.691 69.1614 123.528 68.8788C123.365 68.5853 123.114 68.3407 122.777 68.145C122.451 67.9493 122.049 67.8515 121.571 67.8515C120.995 67.8515 120.506 68.0254 120.103 68.3733C119.712 68.7103 119.44 69.1668 119.288 69.743H123.805ZM127.264 63.2043H129.058V74.8794H127.264V63.2043ZM134.983 75.1403C134.146 75.1403 133.396 74.9501 132.733 74.5696C132.07 74.1782 131.554 73.6456 131.184 72.9716C130.814 72.2976 130.63 71.5475 130.63 70.7214C130.63 69.8952 130.814 69.1451 131.184 68.4711C131.554 67.7971 132.07 67.2699 132.733 66.8894C133.396 66.4981 134.146 66.3024 134.983 66.3024C135.82 66.3024 136.57 66.4981 137.234 66.8894C137.897 67.2808 138.413 67.8134 138.783 68.4874C139.152 69.1614 139.337 69.9061 139.337 70.7214C139.337 71.5475 139.152 72.2976 138.783 72.9716C138.413 73.6456 137.897 74.1782 137.234 74.5696C136.57 74.9501 135.82 75.1403 134.983 75.1403ZM134.983 73.4934C135.44 73.4934 135.864 73.3847 136.255 73.1673C136.647 72.939 136.956 72.6183 137.185 72.2052C137.424 71.7812 137.543 71.2866 137.543 70.7214C137.543 70.1561 137.424 69.6669 137.185 69.2538C136.956 68.8407 136.647 68.5255 136.255 68.3081C135.864 68.0798 135.44 67.9656 134.983 67.9656C134.527 67.9656 134.103 68.0798 133.711 68.3081C133.32 68.5255 133.005 68.8407 132.766 69.2538C132.537 69.6669 132.423 70.1561 132.423 70.7214C132.423 71.2866 132.537 71.7812 132.766 72.2052C133.005 72.6183 133.32 72.939 133.711 73.1673C134.103 73.3847 134.527 73.4934 134.983 73.4934ZM140.846 66.5633H142.558V67.6558H142.64C142.879 67.2753 143.232 66.9547 143.7 66.6938C144.167 66.4329 144.694 66.3024 145.281 66.3024C146.031 66.3024 146.711 66.4927 147.319 66.8731C147.928 67.2536 148.407 67.7808 148.754 68.4548C149.113 69.1179 149.293 69.8734 149.293 70.7214C149.293 71.5693 149.113 72.3302 148.754 73.0042C148.407 73.6673 147.928 74.1891 147.319 74.5696C146.711 74.9501 146.031 75.1403 145.281 75.1403C144.694 75.1403 144.167 75.0098 143.7 74.7489C143.232 74.488 142.879 74.1728 142.64 73.8032H142.558L142.64 74.9609V78.4015H140.846V66.5633ZM145.02 73.4934C145.455 73.4934 145.863 73.3792 146.243 73.151C146.624 72.9227 146.928 72.5966 147.156 72.1726C147.385 71.7486 147.499 71.2649 147.499 70.7214C147.499 70.1778 147.385 69.6995 147.156 69.2864C146.928 68.8625 146.624 68.5363 146.243 68.3081C145.863 68.0798 145.455 67.9656 145.02 67.9656C144.586 67.9656 144.178 68.0798 143.797 68.3081C143.428 68.5363 143.129 68.8625 142.901 69.2864C142.672 69.6995 142.558 70.1778 142.558 70.7214C142.558 71.2649 142.672 71.7486 142.901 72.1726C143.129 72.5966 143.428 72.9227 143.797 73.151C144.178 73.3792 144.586 73.4934 145.02 73.4934ZM154.727 75.1403C153.911 75.1403 153.178 74.9501 152.525 74.5696C151.884 74.1891 151.378 73.6673 151.009 73.0042C150.65 72.3302 150.471 71.5747 150.471 70.7377C150.471 69.9441 150.645 69.2103 150.993 68.5363C151.351 67.8515 151.846 67.308 152.476 66.9057C153.107 66.5035 153.824 66.3024 154.629 66.3024C155.466 66.3024 156.189 66.4872 156.797 66.8568C157.417 67.2264 157.885 67.7319 158.2 68.3733C158.526 69.0147 158.689 69.7376 158.689 70.542C158.689 70.6942 158.673 70.8844 158.64 71.1127H152.264C152.33 71.8845 152.601 72.4824 153.08 72.9064C153.569 73.3195 154.134 73.526 154.776 73.526C155.286 73.526 155.727 73.4119 156.096 73.1836C156.477 72.9444 156.781 72.6237 157.009 72.2215L158.526 72.939C158.135 73.6238 157.624 74.1619 156.993 74.5533C156.363 74.9446 155.607 75.1403 154.727 75.1403ZM156.863 69.743C156.841 69.4495 156.749 69.1614 156.586 68.8788C156.422 68.5853 156.172 68.3407 155.835 68.145C155.509 67.9493 155.107 67.8515 154.629 67.8515C154.053 67.8515 153.563 68.0254 153.161 68.3733C152.77 68.7103 152.498 69.1668 152.346 69.743H156.863ZM160.322 66.5633H162.035V67.7863H162.116C162.301 67.3623 162.622 67.0145 163.078 66.7427C163.535 66.46 164.018 66.3187 164.529 66.3187C164.932 66.3187 165.269 66.3731 165.54 66.4818V68.3407C165.062 68.1667 164.633 68.0798 164.252 68.0798C163.839 68.0798 163.469 68.1885 163.143 68.4059C162.828 68.6233 162.578 68.9168 162.393 69.2864C162.208 69.6452 162.116 70.0419 162.116 70.4768V74.8794H160.322V66.5633ZM173.912 75.1403C172.944 75.1403 172.075 74.8577 171.303 74.2924C170.531 73.7271 169.998 72.9335 169.705 71.9117L171.433 71.2105C171.607 71.8519 171.912 72.3791 172.346 72.7922C172.792 73.1944 173.325 73.3955 173.944 73.3955C174.521 73.3955 175.01 73.2488 175.412 72.9553C175.814 72.6509 176.015 72.2378 176.015 71.716C176.015 71.2377 175.836 70.8464 175.477 70.542C175.129 70.2267 174.515 69.9115 173.635 69.5962L172.901 69.3353C172.118 69.0636 171.46 68.6722 170.928 68.1613C170.395 67.6504 170.129 66.9764 170.129 66.1394C170.129 65.5632 170.286 65.0306 170.602 64.5414C170.917 64.0522 171.352 63.6663 171.906 63.3836C172.471 63.0901 173.107 62.9434 173.814 62.9434C174.836 62.9434 175.651 63.1934 176.26 63.6935C176.869 64.1826 177.276 64.737 177.483 65.3567L175.836 66.0578C175.716 65.6882 175.488 65.3621 175.151 65.0795C174.814 64.7968 174.379 64.6555 173.847 64.6555C173.314 64.6555 172.863 64.7914 172.493 65.0632C172.134 65.3349 171.955 65.6828 171.955 66.1067C171.955 66.509 172.118 66.8405 172.444 67.1014C172.77 67.3623 173.281 67.6123 173.977 67.8515L174.711 68.0961C175.711 68.4439 176.483 68.9005 177.026 69.4658C177.581 70.0202 177.858 70.7648 177.858 71.6997C177.858 72.4607 177.662 73.102 177.271 73.6238C176.88 74.1348 176.379 74.5152 175.771 74.7653C175.173 75.0153 174.553 75.1403 173.912 75.1403ZM182.648 75.0098C182.278 75.0098 181.93 74.9501 181.604 74.8305C181.278 74.7109 181.012 74.5533 180.805 74.3576C180.338 73.8902 180.104 73.2542 180.104 72.4498V68.145H178.653V66.5633H180.104V64.2153H181.898V66.5633H183.92V68.145H181.898V72.0585C181.898 72.5041 181.985 72.8194 182.159 73.0042C182.322 73.2216 182.604 73.3303 183.007 73.3303C183.191 73.3303 183.354 73.3086 183.496 73.2651C183.637 73.2107 183.789 73.1292 183.952 73.0205V74.7653C183.594 74.9283 183.159 75.0098 182.648 75.0098ZM188.658 75.1403C187.647 75.1403 186.876 74.8413 186.343 74.2435C185.821 73.6347 185.56 72.7922 185.56 71.716V66.5633H187.354V71.4714C187.354 72.1454 187.511 72.6509 187.827 72.9879C188.153 73.3249 188.577 73.4934 189.099 73.4934C189.523 73.4934 189.898 73.3847 190.224 73.1673C190.55 72.939 190.8 72.64 190.974 72.2704C191.148 71.9008 191.235 71.504 191.235 71.0801V66.5633H193.028V74.8794H191.333V73.8032H191.235C191.006 74.1945 190.653 74.5152 190.175 74.7653C189.696 75.0153 189.191 75.1403 188.658 75.1403ZM198.591 75.1403C197.841 75.1403 197.162 74.9501 196.553 74.5696C195.944 74.1891 195.46 73.6673 195.102 73.0042C194.754 72.3302 194.58 71.5693 194.58 70.7214C194.58 69.8734 194.754 69.1179 195.102 68.4548C195.46 67.7808 195.944 67.2536 196.553 66.8731C197.162 66.4927 197.841 66.3024 198.591 66.3024C199.178 66.3024 199.705 66.4329 200.173 66.6938C200.64 66.9547 200.994 67.2753 201.233 67.6558H201.314L201.233 66.4818V63.2043H203.026V74.8794H201.314V73.8032H201.233C200.994 74.1728 200.64 74.488 200.173 74.7489C199.705 75.0098 199.178 75.1403 198.591 75.1403ZM198.852 73.4934C199.287 73.4934 199.689 73.3792 200.059 73.151C200.439 72.9227 200.744 72.5966 200.972 72.1726C201.2 71.7486 201.314 71.2649 201.314 70.7214C201.314 70.1778 201.2 69.6995 200.972 69.2864C200.744 68.8625 200.439 68.5363 200.059 68.3081C199.689 68.0798 199.287 67.9656 198.852 67.9656C198.417 67.9656 198.01 68.0798 197.629 68.3081C197.249 68.5363 196.944 68.8625 196.716 69.2864C196.488 69.6995 196.374 70.1778 196.374 70.7214C196.374 71.2649 196.488 71.7486 196.716 72.1726C196.944 72.5966 197.249 72.9227 197.629 73.151C198.01 73.3792 198.417 73.4934 198.852 73.4934ZM208.836 75.1403C208.021 75.1403 207.287 74.9501 206.635 74.5696C205.993 74.1891 205.488 73.6673 205.118 73.0042C204.759 72.3302 204.58 71.5747 204.58 70.7377C204.58 69.9441 204.754 69.2103 205.102 68.5363C205.461 67.8515 205.955 67.308 206.586 66.9057C207.216 66.5035 207.934 66.3024 208.738 66.3024C209.575 66.3024 210.298 66.4872 210.907 66.8568C211.526 67.2264 211.994 67.7319 212.309 68.3733C212.635 69.0147 212.798 69.7376 212.798 70.542C212.798 70.6942 212.782 70.8844 212.749 71.1127H206.374C206.439 71.8845 206.711 72.4824 207.189 72.9064C207.678 73.3195 208.243 73.526 208.885 73.526C209.396 73.526 209.836 73.4119 210.206 73.1836C210.586 72.9444 210.89 72.6237 211.119 72.2215L212.635 72.939C212.244 73.6238 211.733 74.1619 211.102 74.5533C210.472 74.9446 209.716 75.1403 208.836 75.1403ZM210.972 69.743C210.95 69.4495 210.858 69.1614 210.695 68.8788C210.532 68.5853 210.282 68.3407 209.945 68.145C209.619 67.9493 209.216 67.8515 208.738 67.8515C208.162 67.8515 207.673 68.0254 207.271 68.3733C206.879 68.7103 206.607 69.1668 206.455 69.743H210.972ZM214.432 66.5633H216.144V67.6558H216.225C216.464 67.2645 216.818 66.9438 217.285 66.6938C217.764 66.4329 218.269 66.3024 218.802 66.3024C219.813 66.3024 220.579 66.6014 221.101 67.1993C221.633 67.7863 221.9 68.5907 221.9 69.6125V74.8794H220.106V69.8571C220.106 69.2049 219.943 68.7266 219.617 68.4222C219.302 68.1178 218.861 67.9656 218.296 67.9656C217.894 67.9656 217.535 68.0798 217.22 68.3081C216.905 68.5255 216.66 68.819 216.486 69.1886C216.312 69.5582 216.225 69.955 216.225 70.3789V74.8794H214.432V66.5633ZM226.916 75.0098C226.547 75.0098 226.199 74.9501 225.873 74.8305C225.547 74.7109 225.28 74.5533 225.074 74.3576C224.606 73.8902 224.372 73.2542 224.372 72.4498V68.145H222.921V66.5633H224.372V64.2153H226.166V66.5633H228.188V68.145H226.166V72.0585C226.166 72.5041 226.253 72.8194 226.427 73.0042C226.59 73.2216 226.873 73.3303 227.275 73.3303C227.46 73.3303 227.623 73.3086 227.764 73.2651C227.905 73.2107 228.058 73.1292 228.221 73.0205V74.7653C227.862 74.9283 227.427 75.0098 226.916 75.0098ZM239.202 75.1403C238.071 75.1403 237.039 74.874 236.104 74.3413C235.169 73.8086 234.435 73.0749 233.902 72.14C233.37 71.2051 233.103 70.1724 233.103 69.0418C233.103 67.9113 233.37 66.8786 233.902 65.9437C234.435 65.0088 235.169 64.275 236.104 63.7424C237.039 63.2097 238.071 62.9434 239.202 62.9434C240.082 62.9434 240.881 63.1064 241.599 63.4326C242.327 63.7587 242.969 64.2316 243.523 64.8512L242.219 66.1067C241.816 65.6284 241.371 65.2751 240.881 65.0469C240.392 64.8077 239.832 64.6881 239.202 64.6881C238.419 64.6881 237.702 64.8675 237.05 65.2262C236.408 65.585 235.897 66.0959 235.517 66.759C235.136 67.4112 234.946 68.1722 234.946 69.0418C234.946 69.9115 235.136 70.6779 235.517 71.341C235.897 71.9932 236.408 72.4987 237.05 72.8574C237.702 73.2162 238.419 73.3955 239.202 73.3955C240.506 73.3955 241.615 72.852 242.528 71.7649L243.849 73.0368C243.284 73.6999 242.604 74.2163 241.811 74.5859C241.017 74.9555 240.148 75.1403 239.202 75.1403ZM245.435 63.2043H247.229V74.8794H245.435V63.2043ZM252.37 75.1403C251.359 75.1403 250.587 74.8413 250.054 74.2435C249.532 73.6347 249.272 72.7922 249.272 71.716V66.5633H251.065V71.4714C251.065 72.1454 251.223 72.6509 251.538 72.9879C251.864 73.3249 252.288 73.4934 252.81 73.4934C253.234 73.4934 253.609 73.3847 253.935 73.1673C254.261 72.939 254.511 72.64 254.685 72.2704C254.859 71.9008 254.946 71.504 254.946 71.0801V66.5633H256.74V74.8794H255.044V73.8032H254.946C254.718 74.1945 254.364 74.5152 253.886 74.7653C253.408 75.0153 252.902 75.1403 252.37 75.1403ZM263.263 75.1403C262.676 75.1403 262.148 75.0098 261.681 74.7489C261.213 74.488 260.86 74.1728 260.621 73.8032H260.54V74.8794H258.827V63.2043H260.621V66.4818L260.54 67.6558H260.621C260.86 67.2753 261.213 66.9547 261.681 66.6938C262.148 66.4329 262.676 66.3024 263.263 66.3024C264.013 66.3024 264.692 66.4927 265.301 66.8731C265.91 67.2536 266.388 67.7808 266.736 68.4548C267.095 69.1179 267.274 69.8734 267.274 70.7214C267.274 71.5693 267.095 72.3302 266.736 73.0042C266.388 73.6673 265.91 74.1891 265.301 74.5696C264.692 74.9501 264.013 75.1403 263.263 75.1403ZM263.002 73.4934C263.437 73.4934 263.844 73.3792 264.225 73.151C264.605 72.9227 264.91 72.5966 265.138 72.1726C265.366 71.7486 265.48 71.2649 265.48 70.7214C265.48 70.1778 265.366 69.6995 265.138 69.2864C264.91 68.8625 264.605 68.5363 264.225 68.3081C263.844 68.0798 263.437 67.9656 263.002 67.9656C262.567 67.9656 262.159 68.0798 261.779 68.3081C261.409 68.5363 261.11 68.8625 260.882 69.2864C260.654 69.6995 260.54 70.1778 260.54 70.7214C260.54 71.2649 260.654 71.7486 260.882 72.1726C261.11 72.5966 261.409 72.9227 261.779 73.151C262.159 73.3792 262.567 73.4934 263.002 73.4934ZM271.86 75.1403C270.904 75.1403 270.121 74.9337 269.512 74.5207C268.904 74.0967 268.474 73.5586 268.224 72.9064L269.822 72.2052C270.018 72.64 270.29 72.9716 270.638 73.1999C270.996 73.4282 271.404 73.5423 271.86 73.5423C272.306 73.5423 272.681 73.4662 272.986 73.314C273.29 73.151 273.442 72.9118 273.442 72.5966C273.442 72.2922 273.312 72.053 273.051 71.8791C272.79 71.7052 272.388 71.553 271.844 71.4225L270.849 71.1779C270.186 71.0149 269.637 70.7268 269.203 70.3137C268.768 69.9006 268.55 69.3788 268.55 68.7483C268.55 68.2591 268.692 67.8298 268.974 67.4602C269.268 67.0905 269.659 66.8079 270.148 66.6122C270.638 66.4057 271.17 66.3024 271.746 66.3024C272.518 66.3024 273.198 66.46 273.785 66.7753C274.372 67.0797 274.796 67.5254 275.056 68.1124L273.491 68.7972C273.176 68.1559 272.6 67.8352 271.763 67.8352C271.36 67.8352 271.023 67.9167 270.752 68.0798C270.48 68.2428 270.344 68.4548 270.344 68.7157C270.344 68.9657 270.447 69.1723 270.654 69.3353C270.86 69.4875 271.165 69.618 271.567 69.7267L272.79 70.0365C273.605 70.243 274.219 70.5583 274.632 70.9823C275.056 71.3953 275.268 71.9063 275.268 72.515C275.268 73.0368 275.116 73.4988 274.812 73.901C274.518 74.2924 274.111 74.5968 273.589 74.8142C273.067 75.0316 272.491 75.1403 271.86 75.1403Z" fill="white"/>
<rect width="23.3115" height="7.81905" rx="3.90953" transform="matrix(-0.866025 0.5 0.5 0.866025 174.504 27.7881)" fill="#FBBC04"/>
<rect width="23.3115" height="7.81905" rx="3.90953" transform="matrix(0.866025 -0.5 -0.5 -0.866025 131.371 38.4272)" fill="#EA4335"/>
<rect x="131.041" y="27.7871" width="23.3115" height="7.81905" rx="3.90953" transform="rotate(30 131.041 27.7871)" fill="#4285F4"/>
<rect x="174.504" y="38.4272" width="23.3115" height="7.81905" rx="3.64648" transform="rotate(-150 174.504 38.4272)" fill="#0F9D58"/>
<path d="M55.4346 88.0184H58.5186C58.9506 88.0184 59.3546 88.1184 59.7306 88.3184C60.1146 88.5184 60.4186 88.7944 60.6426 89.1464C60.8666 89.4984 60.9786 89.8944 60.9786 90.3344C60.9786 90.7504 60.8706 91.1144 60.6546 91.4264C60.4466 91.7384 60.1626 91.9784 59.8026 92.1464V92.1944C60.2346 92.3384 60.5866 92.5864 60.8586 92.9384C61.1306 93.2904 61.2666 93.7024 61.2666 94.1744C61.2666 94.6384 61.1466 95.0584 60.9066 95.4344C60.6746 95.8024 60.3586 96.0904 59.9586 96.2984C59.5666 96.5064 59.1426 96.6104 58.6866 96.6104H55.4346V88.0184ZM58.5186 91.7384C58.8066 91.7384 59.0586 91.6704 59.2746 91.5344C59.4986 91.3984 59.6706 91.2264 59.7906 91.0184C59.9106 90.8024 59.9706 90.5824 59.9706 90.3584C59.9706 90.1424 59.9106 89.9304 59.7906 89.7224C59.6786 89.5064 59.5146 89.3304 59.2986 89.1944C59.0906 89.0584 58.8466 88.9904 58.5666 88.9904H56.4426V91.7384H58.5186ZM58.7466 95.6384C59.0346 95.6384 59.2906 95.5664 59.5146 95.4224C59.7466 95.2784 59.9226 95.0944 60.0426 94.8704C60.1706 94.6384 60.2346 94.4024 60.2346 94.1624C60.2346 93.9224 60.1706 93.6904 60.0426 93.4664C59.9146 93.2344 59.7346 93.0504 59.5026 92.9144C59.2706 92.7704 59.0026 92.6984 58.6986 92.6984H56.4426V95.6384H58.7466ZM64.464 96.8024C64.016 96.8024 63.616 96.7144 63.264 96.5384C62.912 96.3624 62.64 96.1224 62.448 95.8184C62.256 95.5064 62.16 95.1544 62.16 94.7624C62.16 94.1144 62.404 93.6104 62.892 93.2504C63.38 92.8824 63.996 92.6984 64.74 92.6984C65.108 92.6984 65.448 92.7384 65.76 92.8184C66.08 92.8984 66.324 92.9904 66.492 93.0944V92.7224C66.492 92.2664 66.332 91.9024 66.012 91.6304C65.692 91.3504 65.288 91.2104 64.8 91.2104C64.456 91.2104 64.14 91.2864 63.852 91.4384C63.564 91.5824 63.336 91.7864 63.168 92.0504L62.4 91.4744C62.64 91.1064 62.968 90.8184 63.384 90.6104C63.808 90.4024 64.276 90.2984 64.788 90.2984C65.62 90.2984 66.272 90.5184 66.744 90.9584C67.224 91.3904 67.464 91.9824 67.464 92.7344V96.6104H66.492V95.7344H66.444C66.268 96.0304 66.004 96.2824 65.652 96.4904C65.3 96.6984 64.904 96.8024 64.464 96.8024ZM64.56 95.9024C64.904 95.9024 65.224 95.8144 65.52 95.6384C65.816 95.4624 66.052 95.2264 66.228 94.9304C66.404 94.6344 66.492 94.3104 66.492 93.9584C66.3 93.8304 66.064 93.7264 65.784 93.6464C65.504 93.5664 65.208 93.5264 64.896 93.5264C64.336 93.5264 63.912 93.6424 63.624 93.8744C63.344 94.1064 63.204 94.4064 63.204 94.7744C63.204 95.1104 63.332 95.3824 63.588 95.5904C63.844 95.7984 64.168 95.9024 64.56 95.9024ZM69.483 89.3624C69.283 89.3624 69.111 89.2904 68.967 89.1464C68.823 89.0024 68.751 88.8304 68.751 88.6304C68.751 88.4304 68.823 88.2624 68.967 88.1264C69.111 87.9824 69.283 87.9104 69.483 87.9104C69.683 87.9104 69.855 87.9824 69.999 88.1264C70.143 88.2624 70.215 88.4304 70.215 88.6304C70.215 88.8304 70.143 89.0024 69.999 89.1464C69.863 89.2904 69.691 89.3624 69.483 89.3624ZM68.307 99.3224C68.115 99.3224 67.935 99.2944 67.767 99.2384V98.2664C67.831 98.3064 67.911 98.3384 68.007 98.3624C68.103 98.3864 68.191 98.3984 68.271 98.3984C68.519 98.3984 68.699 98.3184 68.811 98.1584C68.923 98.0064 68.979 97.7784 68.979 97.4744V90.4904H69.987V97.4744C69.987 98.0904 69.839 98.5504 69.543 98.8544C69.247 99.1664 68.835 99.3224 68.307 99.3224ZM73.4874 96.8024C73.0394 96.8024 72.6394 96.7144 72.2874 96.5384C71.9354 96.3624 71.6634 96.1224 71.4714 95.8184C71.2794 95.5064 71.1834 95.1544 71.1834 94.7624C71.1834 94.1144 71.4274 93.6104 71.9154 93.2504C72.4034 92.8824 73.0194 92.6984 73.7634 92.6984C74.1314 92.6984 74.4714 92.7384 74.7834 92.8184C75.1034 92.8984 75.3474 92.9904 75.5154 93.0944V92.7224C75.5154 92.2664 75.3554 91.9024 75.0354 91.6304C74.7154 91.3504 74.3114 91.2104 73.8234 91.2104C73.4794 91.2104 73.1634 91.2864 72.8754 91.4384C72.5874 91.5824 72.3594 91.7864 72.1914 92.0504L71.4234 91.4744C71.6634 91.1064 71.9914 90.8184 72.4074 90.6104C72.8314 90.4024 73.2994 90.2984 73.8114 90.2984C74.6434 90.2984 75.2954 90.5184 75.7674 90.9584C76.2474 91.3904 76.4874 91.9824 76.4874 92.7344V96.6104H75.5154V95.7344H75.4674C75.2914 96.0304 75.0274 96.2824 74.6754 96.4904C74.3234 96.6984 73.9274 96.8024 73.4874 96.8024ZM73.5834 95.9024C73.9274 95.9024 74.2474 95.8144 74.5434 95.6384C74.8394 95.4624 75.0754 95.2264 75.2514 94.9304C75.4274 94.6344 75.5154 94.3104 75.5154 93.9584C75.3234 93.8304 75.0874 93.7264 74.8074 93.6464C74.5274 93.5664 74.2314 93.5264 73.9194 93.5264C73.3594 93.5264 72.9354 93.6424 72.6474 93.8744C72.3674 94.1064 72.2274 94.4064 72.2274 94.7744C72.2274 95.1104 72.3554 95.3824 72.6114 95.5904C72.8674 95.7984 73.1914 95.9024 73.5834 95.9024ZM78.5064 89.3624C78.3064 89.3624 78.1344 89.2904 77.9904 89.1464C77.8464 89.0024 77.7744 88.8304 77.7744 88.6304C77.7744 88.4304 77.8464 88.2624 77.9904 88.1264C78.1344 87.9824 78.3064 87.9104 78.5064 87.9104C78.7064 87.9104 78.8784 87.9824 79.0224 88.1264C79.1664 88.2624 79.2384 88.4304 79.2384 88.6304C79.2384 88.8304 79.1664 89.0024 79.0224 89.1464C78.8864 89.2904 78.7144 89.3624 78.5064 89.3624ZM77.3304 99.3224C77.1384 99.3224 76.9584 99.2944 76.7904 99.2384V98.2664C76.8544 98.3064 76.9344 98.3384 77.0304 98.3624C77.1264 98.3864 77.2144 98.3984 77.2944 98.3984C77.5424 98.3984 77.7224 98.3184 77.8344 98.1584C77.9464 98.0064 78.0024 97.7784 78.0024 97.4744V90.4904H79.0104V97.4744C79.0104 98.0904 78.8624 98.5504 78.5664 98.8544C78.2704 99.1664 77.8584 99.3224 77.3304 99.3224ZM83.6065 88.0184H84.6145V96.6104H83.6065V88.0184ZM86.3322 90.4904H87.3042V91.3904H87.3522C87.5202 91.0864 87.7882 90.8304 88.1562 90.6224C88.5242 90.4064 88.9162 90.2984 89.3322 90.2984C90.0682 90.2984 90.6282 90.5144 91.0122 90.9464C91.4042 91.3704 91.6002 91.9504 91.6002 92.6864V96.6104H90.5802V92.8424C90.5802 92.2744 90.4442 91.8624 90.1722 91.6064C89.9002 91.3504 89.5282 91.2224 89.0562 91.2224C88.7282 91.2224 88.4322 91.3144 88.1682 91.4984C87.9122 91.6824 87.7122 91.9264 87.5682 92.2304C87.4242 92.5264 87.3522 92.8384 87.3522 93.1664V96.6104H86.3322V90.4904ZM95.1361 96.8024C94.4801 96.8024 93.9321 96.6504 93.4921 96.3464C93.0521 96.0344 92.7401 95.6384 92.5561 95.1584L93.4681 94.7504C93.6201 95.1184 93.8441 95.4024 94.1401 95.6024C94.4441 95.8024 94.7761 95.9024 95.1361 95.9024C95.5201 95.9024 95.8481 95.8264 96.1201 95.6744C96.3921 95.5144 96.5281 95.2904 96.5281 95.0024C96.5281 94.7464 96.4201 94.5424 96.2041 94.3904C95.9881 94.2304 95.6481 94.0944 95.1841 93.9824L94.4401 93.7904C93.9521 93.6704 93.5521 93.4664 93.2401 93.1784C92.9281 92.8904 92.7721 92.5184 92.7721 92.0624C92.7721 91.7104 92.8761 91.4024 93.0841 91.1384C93.3001 90.8664 93.5841 90.6584 93.9361 90.5144C94.2881 90.3704 94.6681 90.2984 95.0761 90.2984C95.6121 90.2984 96.0881 90.4144 96.5041 90.6464C96.9281 90.8784 97.2281 91.2024 97.4041 91.6184L96.5161 92.0264C96.2441 91.4824 95.7601 91.2104 95.0641 91.2104C94.7281 91.2104 94.4321 91.2904 94.1761 91.4504C93.9281 91.6024 93.8041 91.7984 93.8041 92.0384C93.8041 92.2624 93.8921 92.4464 94.0681 92.5904C94.2441 92.7264 94.5081 92.8384 94.8601 92.9264L95.7481 93.1544C96.3481 93.3064 96.8001 93.5344 97.1041 93.8384C97.4081 94.1344 97.5601 94.4984 97.5601 94.9304C97.5601 95.3064 97.4521 95.6384 97.2361 95.9264C97.0201 96.2064 96.7281 96.4224 96.3601 96.5744C95.9921 96.7264 95.5841 96.8024 95.1361 96.8024ZM100.965 96.7064C100.717 96.7064 100.485 96.6664 100.269 96.5864C100.061 96.5064 99.8854 96.3984 99.7414 96.2624C99.5814 96.1104 99.4614 95.9344 99.3814 95.7344C99.3014 95.5344 99.2614 95.2904 99.2614 95.0024V91.4144H98.1934V90.4904H99.2614V88.7624H100.281V90.4904H101.769V91.4144H100.281V94.7504C100.281 95.0864 100.345 95.3344 100.473 95.4944C100.625 95.6704 100.845 95.7584 101.133 95.7584C101.365 95.7584 101.589 95.6904 101.805 95.5544V96.5504C101.685 96.6064 101.561 96.6464 101.433 96.6704C101.313 96.6944 101.157 96.7064 100.965 96.7064ZM103.667 89.3624C103.467 89.3624 103.295 89.2904 103.151 89.1464C103.007 89.0024 102.935 88.8304 102.935 88.6304C102.935 88.4304 103.007 88.2624 103.151 88.1264C103.295 87.9824 103.467 87.9104 103.667 87.9104C103.867 87.9104 104.039 87.9824 104.183 88.1264C104.327 88.2624 104.399 88.4304 104.399 88.6304C104.399 88.8304 104.327 89.0024 104.183 89.1464C104.047 89.2904 103.875 89.3624 103.667 89.3624ZM103.163 90.4904H104.171V96.6104H103.163V90.4904ZM108.067 96.7064C107.819 96.7064 107.587 96.6664 107.371 96.5864C107.163 96.5064 106.987 96.3984 106.843 96.2624C106.683 96.1104 106.563 95.9344 106.483 95.7344C106.403 95.5344 106.363 95.2904 106.363 95.0024V91.4144H105.295V90.4904H106.363V88.7624H107.383V90.4904H108.871V91.4144H107.383V94.7504C107.383 95.0864 107.447 95.3344 107.575 95.4944C107.727 95.6704 107.947 95.7584 108.235 95.7584C108.467 95.7584 108.691 95.6904 108.907 95.5544V96.5504C108.787 96.6064 108.663 96.6464 108.535 96.6704C108.415 96.6944 108.259 96.7064 108.067 96.7064ZM112.33 96.8024C111.594 96.8024 111.03 96.5864 110.638 96.1544C110.254 95.7224 110.062 95.1184 110.062 94.3424V90.4904H111.082V94.1864C111.082 94.7704 111.214 95.1984 111.478 95.4704C111.742 95.7424 112.098 95.8784 112.546 95.8784C112.89 95.8784 113.194 95.7864 113.458 95.6024C113.73 95.4184 113.938 95.1784 114.082 94.8824C114.234 94.5864 114.31 94.2744 114.31 93.9464V90.4904H115.33V96.6104H114.358V95.7224H114.31C114.142 96.0264 113.874 96.2824 113.506 96.4904C113.138 96.6984 112.746 96.8024 112.33 96.8024ZM119.247 96.7064C118.999 96.7064 118.767 96.6664 118.551 96.5864C118.343 96.5064 118.167 96.3984 118.023 96.2624C117.863 96.1104 117.743 95.9344 117.663 95.7344C117.583 95.5344 117.543 95.2904 117.543 95.0024V91.4144H116.475V90.4904H117.543V88.7624H118.563V90.4904H120.051V91.4144H118.563V94.7504C118.563 95.0864 118.627 95.3344 118.755 95.4944C118.907 95.6704 119.127 95.7584 119.415 95.7584C119.647 95.7584 119.871 95.6904 120.087 95.5544V96.5504C119.967 96.6064 119.843 96.6464 119.715 96.6704C119.595 96.6944 119.439 96.7064 119.247 96.7064ZM123.744 96.8024C123.16 96.8024 122.636 96.6624 122.172 96.3824C121.708 96.1024 121.344 95.7184 121.08 95.2304C120.824 94.7344 120.696 94.1784 120.696 93.5624C120.696 92.9704 120.816 92.4264 121.056 91.9304C121.304 91.4344 121.652 91.0384 122.1 90.7424C122.548 90.4464 123.068 90.2984 123.66 90.2984C124.26 90.2984 124.78 90.4344 125.22 90.7064C125.66 90.9704 125.996 91.3384 126.228 91.8104C126.468 92.2824 126.588 92.8224 126.588 93.4304C126.588 93.5504 126.576 93.6544 126.552 93.7424H121.716C121.74 94.2064 121.852 94.5984 122.052 94.9184C122.252 95.2384 122.504 95.4784 122.808 95.6384C123.12 95.7984 123.444 95.8784 123.78 95.8784C124.564 95.8784 125.168 95.5104 125.592 94.7744L126.456 95.1944C126.192 95.6904 125.832 96.0824 125.376 96.3704C124.928 96.6584 124.384 96.8024 123.744 96.8024ZM125.508 92.9024C125.492 92.6464 125.42 92.3904 125.292 92.1344C125.164 91.8784 124.96 91.6624 124.68 91.4864C124.408 91.3104 124.064 91.2224 123.648 91.2224C123.168 91.2224 122.76 91.3784 122.424 91.6904C122.096 91.9944 121.88 92.3984 121.776 92.9024H125.508ZM133.39 96.8024C132.79 96.8024 132.25 96.6584 131.77 96.3704C131.29 96.0824 130.914 95.6904 130.642 95.1944C130.378 94.6984 130.246 94.1504 130.246 93.5504C130.246 92.9504 130.378 92.4024 130.642 91.9064C130.914 91.4104 131.29 91.0184 131.77 90.7304C132.25 90.4424 132.79 90.2984 133.39 90.2984C133.99 90.2984 134.53 90.4424 135.01 90.7304C135.49 91.0184 135.862 91.4104 136.126 91.9064C136.398 92.4024 136.534 92.9504 136.534 93.5504C136.534 94.1504 136.398 94.6984 136.126 95.1944C135.862 95.6904 135.49 96.0824 135.01 96.3704C134.53 96.6584 133.99 96.8024 133.39 96.8024ZM133.39 95.8784C133.766 95.8784 134.114 95.7864 134.434 95.6024C134.762 95.4104 135.022 95.1384 135.214 94.7864C135.414 94.4344 135.514 94.0224 135.514 93.5504C135.514 93.0784 135.414 92.6664 135.214 92.3144C135.022 91.9624 134.762 91.6944 134.434 91.5104C134.114 91.3184 133.766 91.2224 133.39 91.2224C133.014 91.2224 132.662 91.3184 132.334 91.5104C132.006 91.6944 131.742 91.9624 131.542 92.3144C131.35 92.6664 131.254 93.0784 131.254 93.5504C131.254 94.0224 131.35 94.4344 131.542 94.7864C131.742 95.1384 132.006 95.4104 132.334 95.6024C132.662 95.7864 133.014 95.8784 133.39 95.8784ZM138.251 91.4144H137.123V90.4904H138.251V89.8304C138.251 89.4464 138.339 89.1104 138.515 88.8224C138.691 88.5344 138.927 88.3144 139.223 88.1624C139.519 88.0024 139.847 87.9224 140.207 87.9224C140.551 87.9224 140.851 87.9704 141.107 88.0664V89.0624C140.963 89.0064 140.827 88.9624 140.699 88.9304C140.571 88.8904 140.419 88.8704 140.243 88.8704C139.979 88.8704 139.751 88.9664 139.559 89.1584C139.367 89.3424 139.271 89.6024 139.271 89.9384V90.4904H140.843V91.4144H139.271V96.6104H138.251V91.4144ZM146.367 88.9904H143.955V88.0184H149.787V88.9904H147.387V96.6104H146.367V88.9904ZM152.63 96.8024C152.046 96.8024 151.522 96.6624 151.058 96.3824C150.594 96.1024 150.23 95.7184 149.966 95.2304C149.71 94.7344 149.582 94.1784 149.582 93.5624C149.582 92.9704 149.702 92.4264 149.942 91.9304C150.19 91.4344 150.538 91.0384 150.986 90.7424C151.434 90.4464 151.954 90.2984 152.546 90.2984C153.146 90.2984 153.666 90.4344 154.106 90.7064C154.546 90.9704 154.882 91.3384 155.114 91.8104C155.354 92.2824 155.474 92.8224 155.474 93.4304C155.474 93.5504 155.462 93.6544 155.438 93.7424H150.602C150.626 94.2064 150.738 94.5984 150.938 94.9184C151.138 95.2384 151.39 95.4784 151.694 95.6384C152.006 95.7984 152.33 95.8784 152.666 95.8784C153.45 95.8784 154.054 95.5104 154.478 94.7744L155.342 95.1944C155.078 95.6904 154.718 96.0824 154.262 96.3704C153.814 96.6584 153.27 96.8024 152.63 96.8024ZM154.394 92.9024C154.378 92.6464 154.306 92.3904 154.178 92.1344C154.05 91.8784 153.846 91.6624 153.566 91.4864C153.294 91.3104 152.95 91.2224 152.534 91.2224C152.054 91.2224 151.646 91.3784 151.31 91.6904C150.982 91.9944 150.766 92.3984 150.662 92.9024H154.394ZM159.499 96.8024C158.907 96.8024 158.375 96.6624 157.903 96.3824C157.431 96.0944 157.063 95.7064 156.799 95.2184C156.535 94.7224 156.403 94.1664 156.403 93.5504C156.403 92.9344 156.535 92.3784 156.799 91.8824C157.063 91.3864 157.431 90.9984 157.903 90.7184C158.375 90.4384 158.907 90.2984 159.499 90.2984C160.163 90.2984 160.719 90.4544 161.167 90.7664C161.623 91.0704 161.947 91.4784 162.139 91.9904L161.215 92.3744C161.063 91.9984 160.835 91.7144 160.531 91.5224C160.235 91.3224 159.875 91.2224 159.451 91.2224C159.091 91.2224 158.755 91.3224 158.443 91.5224C158.131 91.7144 157.879 91.9864 157.687 92.3384C157.503 92.6904 157.411 93.0944 157.411 93.5504C157.411 94.0064 157.503 94.4104 157.687 94.7624C157.879 95.1144 158.131 95.3904 158.443 95.5904C158.755 95.7824 159.091 95.8784 159.451 95.8784C159.883 95.8784 160.255 95.7784 160.567 95.5784C160.879 95.3784 161.111 95.0944 161.263 94.7264L162.175 95.1104C161.967 95.6144 161.631 96.0224 161.167 96.3344C160.711 96.6464 160.155 96.8024 159.499 96.8024ZM163.277 88.0184H164.297V90.5504L164.249 91.3904H164.297C164.465 91.0784 164.729 90.8184 165.089 90.6104C165.457 90.4024 165.857 90.2984 166.289 90.2984C167.033 90.2984 167.601 90.5184 167.993 90.9584C168.385 91.3904 168.581 91.9664 168.581 92.6864V96.6104H167.561V92.8424C167.561 92.2904 167.421 91.8824 167.141 91.6184C166.861 91.3544 166.497 91.2224 166.049 91.2224C165.729 91.2224 165.433 91.3184 165.161 91.5104C164.897 91.7024 164.685 91.9504 164.525 92.2544C164.373 92.5584 164.297 92.8744 164.297 93.2024V96.6104H163.277V88.0184ZM170.051 90.4904H171.023V91.3904H171.071C171.239 91.0864 171.507 90.8304 171.875 90.6224C172.243 90.4064 172.635 90.2984 173.051 90.2984C173.787 90.2984 174.347 90.5144 174.731 90.9464C175.123 91.3704 175.319 91.9504 175.319 92.6864V96.6104H174.299V92.8424C174.299 92.2744 174.163 91.8624 173.891 91.6064C173.619 91.3504 173.247 91.2224 172.775 91.2224C172.447 91.2224 172.151 91.3144 171.887 91.4984C171.631 91.6824 171.431 91.9264 171.287 92.2304C171.143 92.5264 171.071 92.8384 171.071 93.1664V96.6104H170.051V90.4904ZM179.597 96.8024C178.997 96.8024 178.457 96.6584 177.977 96.3704C177.497 96.0824 177.121 95.6904 176.849 95.1944C176.585 94.6984 176.453 94.1504 176.453 93.5504C176.453 92.9504 176.585 92.4024 176.849 91.9064C177.121 91.4104 177.497 91.0184 177.977 90.7304C178.457 90.4424 178.997 90.2984 179.597 90.2984C180.197 90.2984 180.737 90.4424 181.217 90.7304C181.697 91.0184 182.069 91.4104 182.333 91.9064C182.605 92.4024 182.741 92.9504 182.741 93.5504C182.741 94.1504 182.605 94.6984 182.333 95.1944C182.069 95.6904 181.697 96.0824 181.217 96.3704C180.737 96.6584 180.197 96.8024 179.597 96.8024ZM179.597 95.8784C179.973 95.8784 180.321 95.7864 180.641 95.6024C180.969 95.4104 181.229 95.1384 181.421 94.7864C181.621 94.4344 181.721 94.0224 181.721 93.5504C181.721 93.0784 181.621 92.6664 181.421 92.3144C181.229 91.9624 180.969 91.6944 180.641 91.5104C180.321 91.3184 179.973 91.2224 179.597 91.2224C179.221 91.2224 178.869 91.3184 178.541 91.5104C178.213 91.6944 177.949 91.9624 177.749 92.3144C177.557 92.6664 177.461 93.0784 177.461 93.5504C177.461 94.0224 177.557 94.4344 177.749 94.7864C177.949 95.1384 178.213 95.4104 178.541 95.6024C178.869 95.7864 179.221 95.8784 179.597 95.8784ZM183.867 88.0184H184.887V96.6104H183.867V88.0184ZM189.16 96.8024C188.56 96.8024 188.02 96.6584 187.54 96.3704C187.06 96.0824 186.684 95.6904 186.412 95.1944C186.148 94.6984 186.016 94.1504 186.016 93.5504C186.016 92.9504 186.148 92.4024 186.412 91.9064C186.684 91.4104 187.06 91.0184 187.54 90.7304C188.02 90.4424 188.56 90.2984 189.16 90.2984C189.76 90.2984 190.3 90.4424 190.78 90.7304C191.26 91.0184 191.632 91.4104 191.896 91.9064C192.168 92.4024 192.304 92.9504 192.304 93.5504C192.304 94.1504 192.168 94.6984 191.896 95.1944C191.632 95.6904 191.26 96.0824 190.78 96.3704C190.3 96.6584 189.76 96.8024 189.16 96.8024ZM189.16 95.8784C189.536 95.8784 189.884 95.7864 190.204 95.6024C190.532 95.4104 190.792 95.1384 190.984 94.7864C191.184 94.4344 191.284 94.0224 191.284 93.5504C191.284 93.0784 191.184 92.6664 190.984 92.3144C190.792 91.9624 190.532 91.6944 190.204 91.5104C189.884 91.3184 189.536 91.2224 189.16 91.2224C188.784 91.2224 188.432 91.3184 188.104 91.5104C187.776 91.6944 187.512 91.9624 187.312 92.3144C187.12 92.6664 187.024 93.0784 187.024 93.5504C187.024 94.0224 187.12 94.4344 187.312 94.7864C187.512 95.1384 187.776 95.4104 188.104 95.6024C188.432 95.7864 188.784 95.8784 189.16 95.8784ZM196.176 99.3944C195.456 99.3944 194.86 99.2264 194.388 98.8904C193.924 98.5544 193.612 98.1504 193.452 97.6784L194.376 97.2824C194.512 97.6344 194.736 97.9184 195.048 98.1344C195.368 98.3584 195.744 98.4704 196.176 98.4704C196.808 98.4704 197.296 98.2864 197.64 97.9184C197.992 97.5504 198.168 97.0304 198.168 96.3584V95.6744H198.12C197.92 95.9864 197.636 96.2424 197.268 96.4424C196.908 96.6344 196.496 96.7304 196.032 96.7304C195.504 96.7304 195.02 96.5944 194.58 96.3224C194.148 96.0504 193.804 95.6704 193.548 95.1824C193.292 94.6944 193.164 94.1384 193.164 93.5144C193.164 92.8984 193.292 92.3464 193.548 91.8584C193.804 91.3624 194.148 90.9784 194.58 90.7064C195.02 90.4344 195.504 90.2984 196.032 90.2984C196.496 90.2984 196.908 90.3984 197.268 90.5984C197.636 90.7904 197.92 91.0464 198.12 91.3664H198.168V90.4904H199.14V96.3704C199.14 97.3544 198.868 98.1024 198.324 98.6144C197.78 99.1344 197.064 99.3944 196.176 99.3944ZM196.176 95.8064C196.544 95.8064 196.876 95.7144 197.172 95.5304C197.476 95.3464 197.716 95.0824 197.892 94.7384C198.076 94.3944 198.168 93.9864 198.168 93.5144C198.168 93.0344 198.076 92.6224 197.892 92.2784C197.716 91.9344 197.476 91.6744 197.172 91.4984C196.876 91.3144 196.544 91.2224 196.176 91.2224C195.808 91.2224 195.472 91.3144 195.168 91.4984C194.864 91.6824 194.62 91.9464 194.436 92.2904C194.26 92.6344 194.172 93.0424 194.172 93.5144C194.172 93.9864 194.26 94.3984 194.436 94.7504C194.62 95.0944 194.864 95.3584 195.168 95.5424C195.472 95.7184 195.808 95.8064 196.176 95.8064ZM202.521 96.2264L199.989 90.4904H201.093L203.013 95.0384H203.037L204.885 90.4904H205.989L202.209 99.2024H201.153L202.521 96.2264ZM205.848 97.6064L206.484 96.6104C206.34 96.5864 206.212 96.5104 206.1 96.3824C205.988 96.2544 205.932 96.0984 205.932 95.9144C205.932 95.7064 206.004 95.5304 206.148 95.3864C206.3 95.2344 206.484 95.1584 206.7 95.1584C206.916 95.1584 207.096 95.2344 207.24 95.3864C207.392 95.5304 207.468 95.7064 207.468 95.9144C207.468 96.0504 207.44 96.1824 207.384 96.3104C207.328 96.4304 207.244 96.5704 207.132 96.7304L206.34 97.9304L205.848 97.6064ZM210.643 88.0184H211.771L213.331 94.3304L213.475 94.9184H213.523L213.703 94.3304L215.623 88.0184H216.679L218.515 94.3304L218.695 94.9184H218.743L220.435 88.0184H221.563L219.247 96.6104H218.191L216.367 90.3944L216.175 89.7224H216.127L215.923 90.3944L214.027 96.6104H212.971L210.643 88.0184ZM224.003 96.8024C223.555 96.8024 223.155 96.7144 222.803 96.5384C222.451 96.3624 222.179 96.1224 221.987 95.8184C221.795 95.5064 221.699 95.1544 221.699 94.7624C221.699 94.1144 221.943 93.6104 222.431 93.2504C222.919 92.8824 223.535 92.6984 224.279 92.6984C224.647 92.6984 224.987 92.7384 225.299 92.8184C225.619 92.8984 225.863 92.9904 226.031 93.0944V92.7224C226.031 92.2664 225.871 91.9024 225.551 91.6304C225.231 91.3504 224.827 91.2104 224.339 91.2104C223.995 91.2104 223.679 91.2864 223.391 91.4384C223.103 91.5824 222.875 91.7864 222.707 92.0504L221.939 91.4744C222.179 91.1064 222.507 90.8184 222.923 90.6104C223.347 90.4024 223.815 90.2984 224.327 90.2984C225.159 90.2984 225.811 90.5184 226.283 90.9584C226.763 91.3904 227.003 91.9824 227.003 92.7344V96.6104H226.031V95.7344H225.983C225.807 96.0304 225.543 96.2824 225.191 96.4904C224.839 96.6984 224.443 96.8024 224.003 96.8024ZM224.099 95.9024C224.443 95.9024 224.763 95.8144 225.059 95.6384C225.355 95.4624 225.591 95.2264 225.767 94.9304C225.943 94.6344 226.031 94.3104 226.031 93.9584C225.839 93.8304 225.603 93.7264 225.323 93.6464C225.043 93.5664 224.747 93.5264 224.435 93.5264C223.875 93.5264 223.451 93.6424 223.163 93.8744C222.883 94.1064 222.743 94.4064 222.743 94.7744C222.743 95.1104 222.871 95.3824 223.127 95.5904C223.383 95.7984 223.707 95.9024 224.099 95.9024ZM228.422 90.4904H229.394V91.4744H229.442C229.562 91.1384 229.794 90.8624 230.138 90.6464C230.482 90.4224 230.842 90.3104 231.218 90.3104C231.498 90.3104 231.738 90.3504 231.938 90.4304V91.5344C231.682 91.4064 231.394 91.3424 231.074 91.3424C230.778 91.3424 230.506 91.4264 230.258 91.5944C230.01 91.7624 229.81 91.9904 229.658 92.2784C229.514 92.5584 229.442 92.8624 229.442 93.1904V96.6104H228.422V90.4904ZM235.151 96.8024C234.607 96.8024 234.111 96.6624 233.663 96.3824C233.223 96.1024 232.875 95.7184 232.619 95.2304C232.363 94.7344 232.235 94.1744 232.235 93.5504C232.235 92.9344 232.363 92.3784 232.619 91.8824C232.875 91.3864 233.223 90.9984 233.663 90.7184C234.111 90.4384 234.607 90.2984 235.151 90.2984C235.623 90.2984 236.043 90.4064 236.411 90.6224C236.779 90.8304 237.059 91.0904 237.251 91.4024H237.299L237.251 90.5504V88.0184H238.271V96.6104H237.299V95.7104H237.251C237.059 96.0144 236.779 96.2744 236.411 96.4904C236.043 96.6984 235.623 96.8024 235.151 96.8024ZM235.271 95.8784C235.631 95.8784 235.963 95.7824 236.267 95.5904C236.579 95.3984 236.827 95.1264 237.011 94.7744C237.203 94.4224 237.299 94.0144 237.299 93.5504C237.299 93.0864 237.203 92.6784 237.011 92.3264C236.827 91.9744 236.579 91.7024 236.267 91.5104C235.963 91.3184 235.631 91.2224 235.271 91.2224C234.919 91.2224 234.587 91.3184 234.275 91.5104C233.963 91.7024 233.711 91.9784 233.519 92.3384C233.335 92.6904 233.243 93.0944 233.243 93.5504C233.243 94.0064 233.335 94.4144 233.519 94.7744C233.711 95.1264 233.963 95.3984 234.275 95.5904C234.587 95.7824 234.919 95.8784 235.271 95.8784ZM239.777 88.0184H240.797V90.5504L240.749 91.3904H240.797C240.965 91.0784 241.229 90.8184 241.589 90.6104C241.957 90.4024 242.357 90.2984 242.789 90.2984C243.533 90.2984 244.101 90.5184 244.493 90.9584C244.885 91.3904 245.081 91.9664 245.081 92.6864V96.6104H244.061V92.8424C244.061 92.2904 243.921 91.8824 243.641 91.6184C243.361 91.3544 242.997 91.2224 242.549 91.2224C242.229 91.2224 241.933 91.3184 241.661 91.5104C241.397 91.7024 241.185 91.9504 241.025 92.2544C240.873 92.5584 240.797 92.8744 240.797 93.2024V96.6104H239.777V88.0184ZM248.448 96.8024C248 96.8024 247.6 96.7144 247.248 96.5384C246.896 96.3624 246.624 96.1224 246.432 95.8184C246.24 95.5064 246.144 95.1544 246.144 94.7624C246.144 94.1144 246.388 93.6104 246.876 93.2504C247.364 92.8824 247.98 92.6984 248.724 92.6984C249.092 92.6984 249.432 92.7384 249.744 92.8184C250.064 92.8984 250.308 92.9904 250.476 93.0944V92.7224C250.476 92.2664 250.316 91.9024 249.996 91.6304C249.676 91.3504 249.272 91.2104 248.784 91.2104C248.44 91.2104 248.124 91.2864 247.836 91.4384C247.548 91.5824 247.32 91.7864 247.152 92.0504L246.384 91.4744C246.624 91.1064 246.952 90.8184 247.368 90.6104C247.792 90.4024 248.26 90.2984 248.772 90.2984C249.604 90.2984 250.256 90.5184 250.728 90.9584C251.208 91.3904 251.448 91.9824 251.448 92.7344V96.6104H250.476V95.7344H250.428C250.252 96.0304 249.988 96.2824 249.636 96.4904C249.284 96.6984 248.888 96.8024 248.448 96.8024ZM248.544 95.9024C248.888 95.9024 249.208 95.8144 249.504 95.6384C249.8 95.4624 250.036 95.2264 250.212 94.9304C250.388 94.6344 250.476 94.3104 250.476 93.9584C250.284 93.8304 250.048 93.7264 249.768 93.6464C249.488 93.5664 249.192 93.5264 248.88 93.5264C248.32 93.5264 247.896 93.6424 247.608 93.8744C247.328 94.1064 247.188 94.4064 247.188 94.7744C247.188 95.1104 247.316 95.3824 247.572 95.5904C247.828 95.7984 248.152 95.9024 248.544 95.9024Z" fill="white"/>
</svg>
