<svg width="304" height="120" viewBox="0 0 304 120" fill="none" xmlns="http://www.w3.org/2000/svg">
<rect width="304" height="120" rx="6" fill="#E8EAED"/>
<path d="M120.636 43.3618H125.563C126.38 43.3618 127.137 43.5458 127.832 43.9138C128.527 44.2818 129.079 44.7997 129.488 45.4676C129.911 46.1218 130.122 46.8646 130.122 47.696C130.122 48.5274 129.911 49.277 129.488 49.9449C129.079 50.5991 128.527 51.1102 127.832 51.4782C127.137 51.8462 126.38 52.0302 125.563 52.0302H122.353V58H120.636V43.3618ZM125.604 50.3742C126.149 50.3742 126.626 50.2447 127.035 49.9858C127.457 49.7268 127.784 49.3929 128.016 48.984C128.248 48.5751 128.364 48.1458 128.364 47.696C128.364 47.2462 128.248 46.8169 128.016 46.408C127.784 45.9991 127.457 45.6652 127.035 45.4062C126.626 45.1473 126.149 45.0178 125.604 45.0178H122.353V50.3742H125.604ZM136.153 58.3271C135.131 58.3271 134.211 58.0818 133.393 57.5911C132.575 57.1004 131.935 56.4326 131.471 55.5876C131.022 54.7425 130.797 53.8089 130.797 52.7867C130.797 51.7644 131.022 50.8308 131.471 49.9858C131.935 49.1407 132.575 48.4729 133.393 47.9822C134.211 47.4916 135.131 47.2462 136.153 47.2462C137.175 47.2462 138.095 47.4916 138.913 47.9822C139.731 48.4729 140.365 49.1407 140.815 49.9858C141.278 50.8308 141.51 51.7644 141.51 52.7867C141.51 53.8089 141.278 54.7425 140.815 55.5876C140.365 56.4326 139.731 57.1004 138.913 57.5911C138.095 58.0818 137.175 58.3271 136.153 58.3271ZM136.153 56.7529C136.794 56.7529 137.387 56.5961 137.932 56.2827C138.491 55.9556 138.934 55.4921 139.261 54.8924C139.602 54.2927 139.772 53.5908 139.772 52.7867C139.772 51.9825 139.602 51.2806 139.261 50.6809C138.934 50.0812 138.491 49.6246 137.932 49.3111C137.387 48.984 136.794 48.8204 136.153 48.8204C135.513 48.8204 134.913 48.984 134.354 49.3111C133.795 49.6246 133.346 50.0812 133.005 50.6809C132.678 51.2806 132.514 51.9825 132.514 52.7867C132.514 53.5908 132.678 54.2927 133.005 54.8924C133.346 55.4921 133.795 55.9556 134.354 56.2827C134.913 56.5961 135.513 56.7529 136.153 56.7529ZM143.428 43.3618H145.166V58H143.428V43.3618ZM150.93 57.3458L146.616 47.5733H148.497L151.768 55.3218H151.809L154.957 47.5733H156.838L150.398 62.416H148.599L150.93 57.3458ZM162.462 62.7431C161.236 62.7431 160.22 62.4569 159.416 61.8844C158.625 61.312 158.094 60.6237 157.821 59.8196L159.396 59.1449C159.627 59.7446 160.009 60.2284 160.54 60.5964C161.086 60.9781 161.726 61.1689 162.462 61.1689C163.539 61.1689 164.37 60.8554 164.956 60.2284C165.556 59.6015 165.856 58.7156 165.856 57.5707V56.4053H165.774C165.433 56.9369 164.95 57.373 164.323 57.7138C163.709 58.0409 163.007 58.2044 162.217 58.2044C161.317 58.2044 160.493 57.9727 159.743 57.5093C159.007 57.0459 158.421 56.3985 157.985 55.5671C157.549 54.7357 157.331 53.7884 157.331 52.7253C157.331 51.6759 157.549 50.7354 157.985 49.904C158.421 49.059 159.007 48.4047 159.743 47.9413C160.493 47.4779 161.317 47.2462 162.217 47.2462C163.007 47.2462 163.709 47.4166 164.323 47.7573C164.95 48.0844 165.433 48.5206 165.774 49.0658H165.856V47.5733H167.512V57.5911C167.512 59.2676 167.049 60.5419 166.122 61.4142C165.195 62.3001 163.975 62.7431 162.462 62.7431ZM162.462 56.6302C163.089 56.6302 163.655 56.4735 164.159 56.16C164.677 55.8465 165.086 55.3967 165.386 54.8107C165.699 54.2246 165.856 53.5295 165.856 52.7253C165.856 51.9076 165.699 51.2056 165.386 50.6196C165.086 50.0335 164.677 49.5905 164.159 49.2907C163.655 48.9772 163.089 48.8204 162.462 48.8204C161.835 48.8204 161.263 48.9772 160.745 49.2907C160.227 49.6041 159.811 50.0539 159.498 50.64C159.198 51.2261 159.048 51.9212 159.048 52.7253C159.048 53.5295 159.198 54.2314 159.498 54.8311C159.811 55.4172 160.227 55.867 160.745 56.1804C161.263 56.4803 161.835 56.6302 162.462 56.6302ZM174.786 58.3271C173.764 58.3271 172.844 58.0818 172.026 57.5911C171.208 57.1004 170.568 56.4326 170.104 55.5876C169.654 54.7425 169.43 53.8089 169.43 52.7867C169.43 51.7644 169.654 50.8308 170.104 49.9858C170.568 49.1407 171.208 48.4729 172.026 47.9822C172.844 47.4916 173.764 47.2462 174.786 47.2462C175.808 47.2462 176.728 47.4916 177.546 47.9822C178.364 48.4729 178.998 49.1407 179.447 49.9858C179.911 50.8308 180.142 51.7644 180.142 52.7867C180.142 53.8089 179.911 54.7425 179.447 55.5876C178.998 56.4326 178.364 57.1004 177.546 57.5911C176.728 58.0818 175.808 58.3271 174.786 58.3271ZM174.786 56.7529C175.427 56.7529 176.02 56.5961 176.565 56.2827C177.124 55.9556 177.566 55.4921 177.894 54.8924C178.234 54.2927 178.405 53.5908 178.405 52.7867C178.405 51.9825 178.234 51.2806 177.894 50.6809C177.566 50.0812 177.124 49.6246 176.565 49.3111C176.02 48.984 175.427 48.8204 174.786 48.8204C174.145 48.8204 173.546 48.984 172.987 49.3111C172.428 49.6246 171.978 50.0812 171.638 50.6809C171.31 51.2806 171.147 51.9825 171.147 52.7867C171.147 53.5908 171.31 54.2927 171.638 54.8924C171.978 55.4921 172.428 55.9556 172.987 56.2827C173.546 56.5961 174.145 56.7529 174.786 56.7529ZM181.961 47.5733H183.617V49.1067H183.699C183.985 48.5887 184.441 48.1526 185.068 47.7982C185.695 47.4302 186.363 47.2462 187.072 47.2462C188.326 47.2462 189.28 47.6142 189.934 48.3502C190.602 49.0726 190.936 50.0607 190.936 51.3147V58H189.198V51.5804C189.198 50.6127 188.966 49.9108 188.503 49.4747C188.04 49.0385 187.406 48.8204 186.602 48.8204C186.043 48.8204 185.539 48.9772 185.089 49.2907C184.653 49.6041 184.312 50.0199 184.067 50.5378C183.821 51.0421 183.699 51.5736 183.699 52.1324V58H181.961V47.5733ZM204.99 58.3271C203.614 58.3271 202.346 57.9932 201.187 57.3253C200.029 56.6575 199.109 55.7375 198.427 54.5653C197.746 53.3932 197.405 52.0984 197.405 50.6809C197.405 49.2634 197.746 47.9686 198.427 46.7964C199.109 45.6243 200.029 44.7043 201.187 44.0364C202.346 43.3686 203.614 43.0347 204.99 43.0347C206.067 43.0347 207.075 43.2255 208.016 43.6071C208.97 43.9887 209.754 44.5271 210.367 45.2222L209.12 46.4693C208.657 45.8969 208.064 45.4607 207.341 45.1609C206.619 44.8474 205.842 44.6907 205.011 44.6907C203.975 44.6907 203.007 44.9428 202.107 45.4471C201.222 45.9378 200.506 46.6397 199.961 47.5529C199.429 48.4524 199.163 49.4951 199.163 50.6809C199.163 51.8667 199.429 52.9161 199.961 53.8293C200.506 54.7289 201.228 55.4308 202.128 55.9351C203.027 56.4258 203.988 56.6711 205.011 56.6711C205.992 56.6711 206.81 56.5212 207.464 56.2213C208.132 55.9079 208.704 55.499 209.181 54.9947C209.536 54.613 209.822 54.1564 210.04 53.6249C210.258 53.0797 210.394 52.48 210.449 51.8258H205.031V50.2107H212.064C212.132 50.5923 212.166 50.9467 212.166 51.2738C212.166 52.1733 212.023 53.0524 211.737 53.9111C211.451 54.7561 210.994 55.499 210.367 56.1396C209.018 57.5979 207.225 58.3271 204.99 58.3271ZM218.187 58.3271C216.933 58.3271 215.972 57.9591 215.304 57.2231C214.65 56.4871 214.323 55.4581 214.323 54.136V47.5733H216.06V53.8702C216.06 54.8652 216.285 55.5944 216.735 56.0578C217.185 56.5212 217.791 56.7529 218.555 56.7529C219.141 56.7529 219.659 56.5961 220.108 56.2827C220.572 55.9692 220.926 55.5603 221.171 55.056C221.43 54.5517 221.56 54.0201 221.56 53.4613V47.5733H223.298V58H221.642V56.4871H221.56C221.274 57.005 220.817 57.4412 220.19 57.7956C219.563 58.1499 218.895 58.3271 218.187 58.3271ZM226.887 45.6516C226.546 45.6516 226.253 45.5289 226.008 45.2836C225.762 45.0382 225.64 44.7452 225.64 44.4044C225.64 44.0637 225.762 43.7775 226.008 43.5458C226.253 43.3004 226.546 43.1778 226.887 43.1778C227.227 43.1778 227.52 43.3004 227.766 43.5458C228.011 43.7775 228.134 44.0637 228.134 44.4044C228.134 44.7452 228.011 45.0382 227.766 45.2836C227.534 45.5289 227.241 45.6516 226.887 45.6516ZM226.028 47.5733H227.745V58H226.028V47.5733ZM230.476 43.3618H232.214V58H230.476V43.3618ZM239.105 58.3271C238.178 58.3271 237.333 58.0886 236.57 57.6116C235.82 57.1345 235.227 56.4803 234.791 55.6489C234.355 54.8039 234.137 53.8498 234.137 52.7867C234.137 51.7372 234.355 50.7899 234.791 49.9449C235.227 49.0999 235.82 48.4388 236.57 47.9618C237.333 47.4847 238.178 47.2462 239.105 47.2462C239.909 47.2462 240.625 47.4302 241.252 47.7982C241.879 48.1526 242.356 48.5956 242.683 49.1271H242.765L242.683 47.6756V43.3618H244.421V58H242.765V56.4667H242.683C242.356 56.9846 241.879 57.4276 241.252 57.7956C240.625 58.1499 239.909 58.3271 239.105 58.3271ZM239.309 56.7529C239.923 56.7529 240.488 56.5893 241.006 56.2622C241.538 55.9351 241.96 55.4717 242.274 54.872C242.601 54.2723 242.765 53.5772 242.765 52.7867C242.765 51.9961 242.601 51.301 242.274 50.7013C241.96 50.1016 241.538 49.6382 241.006 49.3111C240.488 48.984 239.923 48.8204 239.309 48.8204C238.71 48.8204 238.144 48.984 237.613 49.3111C237.081 49.6382 236.652 50.1084 236.325 50.7218C236.011 51.3215 235.854 52.0098 235.854 52.7867C235.854 53.5636 236.011 54.2587 236.325 54.872C236.652 55.4717 237.081 55.9351 237.613 56.2622C238.144 56.5893 238.71 56.7529 239.309 56.7529Z" fill="#616161"/>
<path d="M120.257 68.8548H122.665L127.081 76.2148H127.203L127.081 74.0988V68.8548H129.135V79.8335H126.958L122.297 72.0595H122.174L122.297 74.1755V79.8335H120.257V68.8548ZM133.529 80.0788C132.701 80.0788 132.021 79.8386 131.49 79.3582C130.958 78.8675 130.692 78.2286 130.692 77.4415C130.692 76.9202 130.83 76.4602 131.106 76.0615C131.382 75.6628 131.76 75.3562 132.241 75.1415C132.721 74.9268 133.253 74.8195 133.836 74.8195C134.643 74.8195 135.333 74.9371 135.906 75.1722V74.8348C135.906 74.4055 135.742 74.0579 135.415 73.7922C135.098 73.5264 134.669 73.3935 134.127 73.3935C133.759 73.3935 133.401 73.4804 133.054 73.6542C132.716 73.8177 132.435 74.0375 132.21 74.3135L130.922 73.3015C131.3 72.8108 131.776 72.4326 132.348 72.1668C132.921 71.9011 133.544 71.7682 134.219 71.7682C135.415 71.7682 136.325 72.0442 136.948 72.5962C137.572 73.1482 137.884 73.9557 137.884 75.0188V79.8335H135.906V79.0362H135.783C135.548 79.3428 135.236 79.5933 134.848 79.7875C134.469 79.9817 134.03 80.0788 133.529 80.0788ZM134.004 78.5148C134.587 78.5148 135.047 78.3308 135.384 77.9628C135.732 77.5846 135.906 77.1451 135.906 76.6442C135.384 76.3988 134.837 76.2762 134.265 76.2762C133.222 76.2762 132.701 76.6646 132.701 77.4415C132.701 77.7584 132.813 78.0191 133.038 78.2235C133.263 78.4177 133.585 78.5148 134.004 78.5148ZM143.26 83.3908C142.269 83.3908 141.446 83.1659 140.792 82.7162C140.138 82.2766 139.698 81.7451 139.473 81.1215L141.359 80.3548C141.523 80.7433 141.773 81.0499 142.11 81.2748C142.448 81.4997 142.831 81.6122 143.26 81.6122C143.894 81.6122 144.395 81.4179 144.763 81.0295C145.141 80.6411 145.33 80.0891 145.33 79.3735V78.7602H145.208C144.962 79.1077 144.64 79.3735 144.242 79.5575C143.843 79.7415 143.388 79.8335 142.877 79.8335C142.233 79.8335 141.63 79.6699 141.068 79.3428C140.516 79.0055 140.071 78.5353 139.734 77.9322C139.396 77.3188 139.228 76.6084 139.228 75.8008C139.228 74.9933 139.396 74.2879 139.734 73.6848C140.071 73.0715 140.516 72.6013 141.068 72.2742C141.63 71.9368 142.233 71.7682 142.877 71.7682C143.388 71.7682 143.843 71.8602 144.242 72.0442C144.64 72.2282 144.962 72.4939 145.208 72.8415H145.33V72.0135H147.262V79.2968C147.262 80.1351 147.099 80.8608 146.772 81.4742C146.445 82.0875 145.98 82.5577 145.376 82.8848C144.773 83.2222 144.068 83.3908 143.26 83.3908ZM143.291 78.0088C143.853 78.0088 144.334 77.8146 144.732 77.4262C145.131 77.0275 145.33 76.4857 145.33 75.8008C145.33 75.0955 145.131 74.5537 144.732 74.1755C144.344 73.7871 143.864 73.5928 143.291 73.5928C142.719 73.5928 142.233 73.7871 141.834 74.1755C141.436 74.5639 141.236 75.1057 141.236 75.8008C141.236 76.4959 141.436 77.0377 141.834 77.4262C142.233 77.8146 142.719 78.0088 143.291 78.0088ZM149.164 72.0135H151.05V72.9642H151.173C151.387 72.6268 151.699 72.3457 152.108 72.1208C152.517 71.8857 152.987 71.7682 153.519 71.7682C154.224 71.7682 154.863 71.9471 155.435 72.3048C156.018 72.6524 156.473 73.1431 156.8 73.7768C157.127 74.4106 157.291 75.1262 157.291 75.9235C157.291 76.7311 157.127 77.4517 156.8 78.0855C156.473 78.7091 156.018 79.1997 155.435 79.5575C154.863 79.9051 154.224 80.0788 153.519 80.0788C152.987 80.0788 152.512 79.9664 152.093 79.7415C151.684 79.5166 151.377 79.2355 151.173 78.8982H151.05L151.173 80.0022V83.1455H149.164V72.0135ZM153.166 78.2235C153.544 78.2235 153.897 78.1264 154.224 77.9322C154.551 77.7379 154.812 77.4671 155.006 77.1195C155.2 76.7719 155.297 76.3733 155.297 75.9235C155.297 75.4737 155.2 75.0751 155.006 74.7275C154.812 74.3799 154.551 74.1142 154.224 73.9302C153.897 73.7359 153.544 73.6388 153.166 73.6388C152.798 73.6388 152.451 73.7359 152.123 73.9302C151.796 74.1142 151.536 74.3799 151.341 74.7275C151.147 75.0751 151.05 75.4737 151.05 75.9235C151.05 76.3733 151.147 76.7719 151.341 77.1195C151.536 77.4671 151.796 77.7379 152.123 77.9322C152.451 78.1264 152.798 78.2235 153.166 78.2235ZM161.585 80.0788C160.645 80.0788 159.929 79.7875 159.439 79.2048C158.948 78.6222 158.703 77.8095 158.703 76.7668V72.0135H160.711V76.5215C160.711 77.0531 160.839 77.4722 161.095 77.7788C161.35 78.0753 161.687 78.2235 162.107 78.2235C162.679 78.2235 163.134 78.0139 163.471 77.5948C163.809 77.1757 163.977 76.6442 163.977 76.0002V72.0135H165.986V79.8335H164.1V78.8522H163.977C163.742 79.2304 163.41 79.5319 162.981 79.7568C162.561 79.9715 162.096 80.0788 161.585 80.0788ZM167.943 72.0135H169.829V73.0562H169.952C170.146 72.6882 170.447 72.3866 170.856 72.1515C171.265 71.9062 171.715 71.7835 172.206 71.7835C172.563 71.7835 172.89 71.8397 173.187 71.9522V73.9608C172.911 73.8586 172.676 73.7871 172.482 73.7462C172.298 73.6951 172.098 73.6695 171.884 73.6695C171.291 73.6695 170.82 73.8842 170.473 74.3135C170.125 74.7428 169.952 75.2846 169.952 75.9388V79.8335H167.943V72.0135Z" fill="#616161"/>
<circle cx="82.4272" cy="62.3672" r="13.4116" fill="#8248E5"/>
<circle cx="82.5002" cy="62.3078" r="25.5676" stroke="black" stroke-width="0.572136"/>
<circle cx="82.5002" cy="62.3078" r="25.5676" stroke="black" stroke-width="0.572136"/>
<circle cx="82.5002" cy="62.3078" r="18.9426" stroke="black" stroke-width="0.572136"/>
<circle cx="82.5002" cy="62.3078" r="18.9426" stroke="black" stroke-width="0.572136"/>
<circle cx="82.4987" cy="36.6159" r="1.61586" fill="#8248E5"/>
<circle cx="93.6491" cy="85.0919" r="1.61586" fill="#8248E5"/>
<circle cx="102.374" cy="45.9879" r="1.61586" fill="#8248E5"/>
<circle cx="62.6256" cy="45.9879" r="1.61586" fill="#8248E5"/>
<circle cx="57.6159" cy="67.317" r="1.61586" fill="#8248E5"/>
<circle cx="107.385" cy="67.317" r="1.61586" fill="#8248E5"/>
<circle cx="71.3502" cy="85.0919" r="1.61586" fill="#8248E5"/>
<circle cx="82.5011" cy="43.0793" r="1.45427" fill="#8248E5"/>
<circle cx="82.5011" cy="81.3752" r="1.45427" fill="#8248E5"/>
<path d="M89.0857 62.6323V65.6126C89.0846 65.7985 89.0355 65.9808 88.9432 66.1419C88.8508 66.303 88.7184 66.4373 88.5588 66.5317L85.9862 68.0187C85.8269 68.114 85.6449 68.1643 85.4594 68.1643C85.2739 68.1643 85.0918 68.114 84.9325 68.0187L82.3599 66.5317C82.2004 66.4373 82.0679 66.303 81.9756 66.1419C81.8833 65.9808 81.8341 65.7985 81.8331 65.6126V64.7761L83.1502 64.0089V65.4629L85.4552 66.8053L87.7603 65.4629V62.7841L85.4552 61.4416L80.0549 64.581C79.8941 64.6719 79.7126 64.7197 79.528 64.7197C79.3434 64.7197 79.162 64.6719 79.0012 64.581L76.4286 63.0877C76.2715 62.9919 76.1416 62.8571 76.0515 62.6963C75.9614 62.5355 75.914 62.3542 75.9141 62.1697V59.1894C75.9151 59.0036 75.9642 58.8212 76.0566 58.6601C76.149 58.499 76.2814 58.3647 76.4409 58.2703L79.0135 56.7833C79.1732 56.6889 79.3551 56.6392 79.5404 56.6392C79.7257 56.6392 79.9076 56.6889 80.0672 56.7833L82.6398 58.2703C82.7994 58.3647 82.9318 58.499 83.0241 58.6601C83.1165 58.8212 83.1656 59.0036 83.1667 59.1894V60.0259L81.8413 60.788V59.3422L79.5363 57.9998L77.2312 59.3422V62.0179L79.5363 63.3603L84.9366 60.221C85.0974 60.1301 85.2789 60.0823 85.4635 60.0823C85.6481 60.0823 85.8295 60.1301 85.9904 60.221L88.5629 61.7143C88.7216 61.8091 88.8531 61.9434 88.9447 62.1043C89.0363 62.2651 89.0849 62.4471 89.0857 62.6323Z" fill="white"/>
</svg>
