<svg width="304" height="120" viewBox="0 0 304 120" fill="none" xmlns="http://www.w3.org/2000/svg">
<rect width="304" height="120" rx="6" fill="#E8EAED"/>
<path d="M34.0871 75.1403C32.9783 75.1403 31.9564 74.874 31.0216 74.3413C30.0867 73.8086 29.342 73.0803 28.7876 72.1563C28.2441 71.2214 27.9723 70.1833 27.9723 69.0418C27.9723 67.9004 28.2441 66.8677 28.7876 65.9437C29.342 65.0088 30.0867 64.275 31.0216 63.7424C31.9564 63.2097 32.9783 62.9434 34.0871 62.9434C34.9676 62.9434 35.7884 63.101 36.5493 63.4163C37.3102 63.7315 37.9462 64.1718 38.4571 64.737L37.1852 66.0089C36.8048 65.585 36.3482 65.2588 35.8155 65.0306C35.2937 64.8023 34.7122 64.6881 34.0708 64.6881C33.3207 64.6881 32.6195 64.8675 31.9673 65.2262C31.3151 65.585 30.7933 66.0959 30.4019 66.759C30.0106 67.4221 29.8149 68.1831 29.8149 69.0418C29.8149 69.9006 30.0106 70.6616 30.4019 71.3247C30.7933 71.9878 31.3151 72.4987 31.9673 72.8574C32.6195 73.2162 33.3261 73.3955 34.0871 73.3955C34.7828 73.3955 35.3644 73.2923 35.8318 73.0857C36.2993 72.8792 36.7178 72.602 37.0874 72.2541C37.3266 72.015 37.5277 71.716 37.6907 71.3573C37.8647 70.9986 37.9788 70.6072 38.0332 70.1833H34.0708V68.5527H39.7616C39.8159 68.857 39.8431 69.1723 39.8431 69.4984C39.8431 70.2376 39.729 70.9496 39.5007 71.6345C39.2724 72.3085 38.9082 72.8955 38.4082 73.3955C37.3102 74.5587 35.8699 75.1403 34.0871 75.1403ZM45.4753 75.1403C44.6383 75.1403 43.8882 74.9501 43.2251 74.5696C42.562 74.1782 42.0456 73.6456 41.676 72.9716C41.3064 72.2976 41.1216 71.5475 41.1216 70.7214C41.1216 69.8952 41.3064 69.1451 41.676 68.4711C42.0456 67.7971 42.562 67.2699 43.2251 66.8894C43.8882 66.4981 44.6383 66.3024 45.4753 66.3024C46.3124 66.3024 47.0624 66.4981 47.7256 66.8894C48.3887 67.2808 48.905 67.8134 49.2746 68.4874C49.6442 69.1614 49.829 69.9061 49.829 70.7214C49.829 71.5475 49.6442 72.2976 49.2746 72.9716C48.905 73.6456 48.3887 74.1782 47.7256 74.5696C47.0624 74.9501 46.3124 75.1403 45.4753 75.1403ZM45.4753 73.4934C45.9319 73.4934 46.3559 73.3847 46.7472 73.1673C47.1385 72.939 47.4484 72.6183 47.6766 72.2052C47.9158 71.7812 48.0354 71.2866 48.0354 70.7214C48.0354 70.1561 47.9158 69.6669 47.6766 69.2538C47.4484 68.8407 47.1385 68.5255 46.7472 68.3081C46.3559 68.0798 45.9319 67.9656 45.4753 67.9656C45.0188 67.9656 44.5948 68.0798 44.2035 68.3081C43.8121 68.5255 43.4969 68.8407 43.2577 69.2538C43.0294 69.6669 42.9153 70.1561 42.9153 70.7214C42.9153 71.2866 43.0294 71.7812 43.2577 72.2052C43.4969 72.6183 43.8121 72.939 44.2035 73.1673C44.5948 73.3847 45.0188 73.4934 45.4753 73.4934ZM55.38 75.1403C54.5429 75.1403 53.7928 74.9501 53.1297 74.5696C52.4666 74.1782 51.9503 73.6456 51.5807 72.9716C51.2111 72.2976 51.0263 71.5475 51.0263 70.7214C51.0263 69.8952 51.2111 69.1451 51.5807 68.4711C51.9503 67.7971 52.4666 67.2699 53.1297 66.8894C53.7928 66.4981 54.5429 66.3024 55.38 66.3024C56.217 66.3024 56.9671 66.4981 57.6302 66.8894C58.2933 67.2808 58.8097 67.8134 59.1793 68.4874C59.5489 69.1614 59.7337 69.9061 59.7337 70.7214C59.7337 71.5475 59.5489 72.2976 59.1793 72.9716C58.8097 73.6456 58.2933 74.1782 57.6302 74.5696C56.9671 74.9501 56.217 75.1403 55.38 75.1403ZM55.38 73.4934C55.8365 73.4934 56.2605 73.3847 56.6518 73.1673C57.0432 72.939 57.353 72.6183 57.5813 72.2052C57.8204 71.7812 57.94 71.2866 57.94 70.7214C57.94 70.1561 57.8204 69.6669 57.5813 69.2538C57.353 68.8407 57.0432 68.5255 56.6518 68.3081C56.2605 68.0798 55.8365 67.9656 55.38 67.9656C54.9234 67.9656 54.4994 68.0798 54.1081 68.3081C53.7167 68.5255 53.4015 68.8407 53.1623 69.2538C52.9341 69.6669 52.8199 70.1561 52.8199 70.7214C52.8199 71.2866 52.9341 71.7812 53.1623 72.2052C53.4015 72.6183 53.7167 72.939 54.1081 73.1673C54.4994 73.3847 54.9234 73.4934 55.38 73.4934ZM65.1378 78.6624C64.116 78.6624 63.2681 78.4287 62.5941 77.9612C61.931 77.4938 61.4853 76.9394 61.257 76.298L62.9365 75.5969C63.1105 76.0317 63.3877 76.3795 63.7681 76.6404C64.1595 76.9122 64.6161 77.0481 65.1378 77.0481C65.8988 77.0481 66.4912 76.8198 66.9152 76.3632C67.35 75.9175 67.5674 75.287 67.5674 74.4717V73.7054H67.4696C67.1978 74.0967 66.8337 74.4065 66.3771 74.6348C65.9314 74.8522 65.4151 74.9609 64.828 74.9609C64.1323 74.9609 63.4855 74.7816 62.8876 74.4228C62.2897 74.0641 61.8114 73.5586 61.4527 72.9064C61.1048 72.2433 60.9309 71.4877 60.9309 70.6398C60.9309 69.7919 61.1048 69.0418 61.4527 68.3896C61.8114 67.7265 62.2897 67.2156 62.8876 66.8568C63.4855 66.4872 64.1323 66.3024 64.828 66.3024C65.4042 66.3024 65.9205 66.4166 66.3771 66.6448C66.8337 66.8731 67.1978 67.1829 67.4696 67.5743H67.5674V66.5633H69.2796V74.4228C69.2796 75.3251 69.1057 76.0915 68.7578 76.722C68.4099 77.3633 67.9207 77.8471 67.2902 78.1732C66.6706 78.4993 65.9532 78.6624 65.1378 78.6624ZM65.1542 73.3303C65.589 73.3303 65.9912 73.2271 66.3608 73.0205C66.7304 72.8031 67.0239 72.4933 67.2413 72.0911C67.4587 71.678 67.5674 71.1942 67.5674 70.6398C67.5674 69.7919 67.3337 69.1342 66.8663 68.6668C66.4097 68.1885 65.839 67.9493 65.1542 67.9493C64.7085 67.9493 64.3008 68.058 63.9312 68.2755C63.5616 68.482 63.2681 68.7864 63.0507 69.1886C62.8333 69.5908 62.7246 70.0746 62.7246 70.6398C62.7246 71.2051 62.8333 71.6888 63.0507 72.0911C63.2681 72.4933 63.5616 72.8031 63.9312 73.0205C64.3008 73.2271 64.7085 73.3303 65.1542 73.3303ZM71.3876 63.2043H73.1813V74.8794H71.3876V63.2043ZM79.0087 75.1403C78.1934 75.1403 77.4596 74.9501 76.8074 74.5696C76.166 74.1891 75.6605 73.6673 75.2909 73.0042C74.9322 72.3302 74.7528 71.5747 74.7528 70.7377C74.7528 69.9441 74.9267 69.2103 75.2746 68.5363C75.6333 67.8515 76.1279 67.308 76.7584 66.9057C77.3889 66.5035 78.1064 66.3024 78.9108 66.3024C79.7479 66.3024 80.4708 66.4872 81.0795 66.8568C81.6992 67.2264 82.1666 67.7319 82.4819 68.3733C82.808 69.0147 82.971 69.7376 82.971 70.542C82.971 70.6942 82.9547 70.8844 82.9221 71.1127H76.5465C76.6117 71.8845 76.8835 72.4824 77.3618 72.9064C77.8509 73.3195 78.4162 73.526 79.0576 73.526C79.5685 73.526 80.0088 73.4119 80.3784 73.1836C80.7589 72.9444 81.0632 72.6237 81.2915 72.2215L82.808 72.939C82.4166 73.6238 81.9057 74.1619 81.2752 74.5533C80.6447 74.9446 79.8892 75.1403 79.0087 75.1403ZM81.1448 69.743C81.123 69.4495 81.0306 69.1614 80.8676 68.8788C80.7045 68.5853 80.4545 68.3407 80.1175 68.145C79.7914 67.9493 79.3892 67.8515 78.9108 67.8515C78.3347 67.8515 77.8455 68.0254 77.4433 68.3733C77.052 68.7103 76.7802 69.1668 76.628 69.743H81.1448ZM88.7197 63.2043H92.4538C93.6604 63.2043 94.7149 63.4489 95.6171 63.938C96.5194 64.4272 97.2097 65.1175 97.688 66.0089C98.1772 66.8894 98.4218 67.9004 98.4218 69.0418C98.4218 70.1833 98.1772 71.1997 97.688 72.0911C97.2097 72.9716 96.5194 73.6564 95.6171 74.1456C94.7149 74.6348 93.6604 74.8794 92.4538 74.8794H88.7197V63.2043ZM92.4212 73.1346C93.7256 73.1346 94.742 72.7759 95.4704 72.0585C96.2096 71.3301 96.5792 70.3246 96.5792 69.0418C96.5792 67.77 96.2096 66.7699 95.4704 66.0415C94.742 65.3132 93.7256 64.949 92.4212 64.949H90.546V73.1346H92.4212ZM103.77 75.1403C102.955 75.1403 102.221 74.9501 101.569 74.5696C100.928 74.1891 100.422 73.6673 100.052 73.0042C99.6938 72.3302 99.5144 71.5747 99.5144 70.7377C99.5144 69.9441 99.6883 69.2103 100.036 68.5363C100.395 67.8515 100.89 67.308 101.52 66.9057C102.151 66.5035 102.868 66.3024 103.672 66.3024C104.509 66.3024 105.232 66.4872 105.841 66.8568C106.461 67.2264 106.928 67.7319 107.243 68.3733C107.57 69.0147 107.733 69.7376 107.733 70.542C107.733 70.6942 107.716 70.8844 107.684 71.1127H101.308C101.373 71.8845 101.645 72.4824 102.123 72.9064C102.613 73.3195 103.178 73.526 103.819 73.526C104.33 73.526 104.77 73.4119 105.14 73.1836C105.52 72.9444 105.825 72.6237 106.053 72.2215L107.57 72.939C107.178 73.6238 106.667 74.1619 106.037 74.5533C105.406 74.9446 104.651 75.1403 103.77 75.1403ZM105.906 69.743C105.885 69.4495 105.792 69.1614 105.629 68.8788C105.466 68.5853 105.216 68.3407 104.879 68.145C104.553 67.9493 104.151 67.8515 103.672 67.8515C103.096 67.8515 102.607 68.0254 102.205 68.3733C101.814 68.7103 101.542 69.1668 101.39 69.743H105.906ZM108.277 66.5633H110.283L112.582 72.5639H112.647L114.995 66.5633H116.952L113.495 74.8794H111.702L108.277 66.5633ZM121.669 75.1403C120.853 75.1403 120.12 74.9501 119.467 74.5696C118.826 74.1891 118.321 73.6673 117.951 73.0042C117.592 72.3302 117.413 71.5747 117.413 70.7377C117.413 69.9441 117.587 69.2103 117.935 68.5363C118.293 67.8515 118.788 67.308 119.418 66.9057C120.049 66.5035 120.766 66.3024 121.571 66.3024C122.408 66.3024 123.131 66.4872 123.74 66.8568C124.359 67.2264 124.827 67.7319 125.142 68.3733C125.468 69.0147 125.631 69.7376 125.631 70.542C125.631 70.6942 125.615 70.8844 125.582 71.1127H119.206C119.272 71.8845 119.543 72.4824 120.022 72.9064C120.511 73.3195 121.076 73.526 121.718 73.526C122.229 73.526 122.669 73.4119 123.038 73.1836C123.419 72.9444 123.723 72.6237 123.952 72.2215L125.468 72.939C125.077 73.6238 124.566 74.1619 123.935 74.5533C123.305 74.9446 122.549 75.1403 121.669 75.1403ZM123.805 69.743C123.783 69.4495 123.691 69.1614 123.528 68.8788C123.365 68.5853 123.114 68.3407 122.777 68.145C122.451 67.9493 122.049 67.8515 121.571 67.8515C120.995 67.8515 120.506 68.0254 120.103 68.3733C119.712 68.7103 119.44 69.1668 119.288 69.743H123.805ZM127.264 63.2043H129.058V74.8794H127.264V63.2043ZM134.983 75.1403C134.146 75.1403 133.396 74.9501 132.733 74.5696C132.07 74.1782 131.554 73.6456 131.184 72.9716C130.814 72.2976 130.63 71.5475 130.63 70.7214C130.63 69.8952 130.814 69.1451 131.184 68.4711C131.554 67.7971 132.07 67.2699 132.733 66.8894C133.396 66.4981 134.146 66.3024 134.983 66.3024C135.82 66.3024 136.57 66.4981 137.234 66.8894C137.897 67.2808 138.413 67.8134 138.783 68.4874C139.152 69.1614 139.337 69.9061 139.337 70.7214C139.337 71.5475 139.152 72.2976 138.783 72.9716C138.413 73.6456 137.897 74.1782 137.234 74.5696C136.57 74.9501 135.82 75.1403 134.983 75.1403ZM134.983 73.4934C135.44 73.4934 135.864 73.3847 136.255 73.1673C136.647 72.939 136.956 72.6183 137.185 72.2052C137.424 71.7812 137.543 71.2866 137.543 70.7214C137.543 70.1561 137.424 69.6669 137.185 69.2538C136.956 68.8407 136.647 68.5255 136.255 68.3081C135.864 68.0798 135.44 67.9656 134.983 67.9656C134.527 67.9656 134.103 68.0798 133.711 68.3081C133.32 68.5255 133.005 68.8407 132.766 69.2538C132.537 69.6669 132.423 70.1561 132.423 70.7214C132.423 71.2866 132.537 71.7812 132.766 72.2052C133.005 72.6183 133.32 72.939 133.711 73.1673C134.103 73.3847 134.527 73.4934 134.983 73.4934ZM140.846 66.5633H142.558V67.6558H142.64C142.879 67.2753 143.232 66.9547 143.7 66.6938C144.167 66.4329 144.694 66.3024 145.281 66.3024C146.031 66.3024 146.711 66.4927 147.319 66.8731C147.928 67.2536 148.407 67.7808 148.754 68.4548C149.113 69.1179 149.293 69.8734 149.293 70.7214C149.293 71.5693 149.113 72.3302 148.754 73.0042C148.407 73.6673 147.928 74.1891 147.319 74.5696C146.711 74.9501 146.031 75.1403 145.281 75.1403C144.694 75.1403 144.167 75.0098 143.7 74.7489C143.232 74.488 142.879 74.1728 142.64 73.8032H142.558L142.64 74.9609V78.4015H140.846V66.5633ZM145.02 73.4934C145.455 73.4934 145.863 73.3792 146.243 73.151C146.624 72.9227 146.928 72.5966 147.156 72.1726C147.385 71.7486 147.499 71.2649 147.499 70.7214C147.499 70.1778 147.385 69.6995 147.156 69.2864C146.928 68.8625 146.624 68.5363 146.243 68.3081C145.863 68.0798 145.455 67.9656 145.02 67.9656C144.586 67.9656 144.178 68.0798 143.797 68.3081C143.428 68.5363 143.129 68.8625 142.901 69.2864C142.672 69.6995 142.558 70.1778 142.558 70.7214C142.558 71.2649 142.672 71.7486 142.901 72.1726C143.129 72.5966 143.428 72.9227 143.797 73.151C144.178 73.3792 144.586 73.4934 145.02 73.4934ZM154.727 75.1403C153.911 75.1403 153.178 74.9501 152.525 74.5696C151.884 74.1891 151.378 73.6673 151.009 73.0042C150.65 72.3302 150.471 71.5747 150.471 70.7377C150.471 69.9441 150.645 69.2103 150.993 68.5363C151.351 67.8515 151.846 67.308 152.476 66.9057C153.107 66.5035 153.824 66.3024 154.629 66.3024C155.466 66.3024 156.189 66.4872 156.797 66.8568C157.417 67.2264 157.885 67.7319 158.2 68.3733C158.526 69.0147 158.689 69.7376 158.689 70.542C158.689 70.6942 158.673 70.8844 158.64 71.1127H152.264C152.33 71.8845 152.601 72.4824 153.08 72.9064C153.569 73.3195 154.134 73.526 154.776 73.526C155.286 73.526 155.727 73.4119 156.096 73.1836C156.477 72.9444 156.781 72.6237 157.009 72.2215L158.526 72.939C158.135 73.6238 157.624 74.1619 156.993 74.5533C156.363 74.9446 155.607 75.1403 154.727 75.1403ZM156.863 69.743C156.841 69.4495 156.749 69.1614 156.586 68.8788C156.422 68.5853 156.172 68.3407 155.835 68.145C155.509 67.9493 155.107 67.8515 154.629 67.8515C154.053 67.8515 153.563 68.0254 153.161 68.3733C152.77 68.7103 152.498 69.1668 152.346 69.743H156.863ZM160.322 66.5633H162.035V67.7863H162.116C162.301 67.3623 162.622 67.0145 163.078 66.7427C163.535 66.46 164.018 66.3187 164.529 66.3187C164.932 66.3187 165.269 66.3731 165.54 66.4818V68.3407C165.062 68.1667 164.633 68.0798 164.252 68.0798C163.839 68.0798 163.469 68.1885 163.143 68.4059C162.828 68.6233 162.578 68.9168 162.393 69.2864C162.208 69.6452 162.116 70.0419 162.116 70.4768V74.8794H160.322V66.5633ZM173.912 75.1403C172.944 75.1403 172.075 74.8577 171.303 74.2924C170.531 73.7271 169.998 72.9335 169.705 71.9117L171.433 71.2105C171.607 71.8519 171.912 72.3791 172.346 72.7922C172.792 73.1944 173.325 73.3955 173.944 73.3955C174.521 73.3955 175.01 73.2488 175.412 72.9553C175.814 72.6509 176.015 72.2378 176.015 71.716C176.015 71.2377 175.836 70.8464 175.477 70.542C175.129 70.2267 174.515 69.9115 173.635 69.5962L172.901 69.3353C172.118 69.0636 171.46 68.6722 170.928 68.1613C170.395 67.6504 170.129 66.9764 170.129 66.1394C170.129 65.5632 170.286 65.0306 170.602 64.5414C170.917 64.0522 171.352 63.6663 171.906 63.3836C172.471 63.0901 173.107 62.9434 173.814 62.9434C174.836 62.9434 175.651 63.1934 176.26 63.6935C176.869 64.1826 177.276 64.737 177.483 65.3567L175.836 66.0578C175.716 65.6882 175.488 65.3621 175.151 65.0795C174.814 64.7968 174.379 64.6555 173.847 64.6555C173.314 64.6555 172.863 64.7914 172.493 65.0632C172.134 65.3349 171.955 65.6828 171.955 66.1067C171.955 66.509 172.118 66.8405 172.444 67.1014C172.77 67.3623 173.281 67.6123 173.977 67.8515L174.711 68.0961C175.711 68.4439 176.483 68.9005 177.026 69.4658C177.581 70.0202 177.858 70.7648 177.858 71.6997C177.858 72.4607 177.662 73.102 177.271 73.6238C176.88 74.1348 176.379 74.5152 175.771 74.7653C175.173 75.0153 174.553 75.1403 173.912 75.1403ZM182.648 75.0098C182.278 75.0098 181.93 74.9501 181.604 74.8305C181.278 74.7109 181.012 74.5533 180.805 74.3576C180.338 73.8902 180.104 73.2542 180.104 72.4498V68.145H178.653V66.5633H180.104V64.2153H181.898V66.5633H183.92V68.145H181.898V72.0585C181.898 72.5041 181.985 72.8194 182.159 73.0042C182.322 73.2216 182.604 73.3303 183.007 73.3303C183.191 73.3303 183.354 73.3086 183.496 73.2651C183.637 73.2107 183.789 73.1292 183.952 73.0205V74.7653C183.594 74.9283 183.159 75.0098 182.648 75.0098ZM188.658 75.1403C187.647 75.1403 186.876 74.8413 186.343 74.2435C185.821 73.6347 185.56 72.7922 185.56 71.716V66.5633H187.354V71.4714C187.354 72.1454 187.511 72.6509 187.827 72.9879C188.153 73.3249 188.577 73.4934 189.099 73.4934C189.523 73.4934 189.898 73.3847 190.224 73.1673C190.55 72.939 190.8 72.64 190.974 72.2704C191.148 71.9008 191.235 71.504 191.235 71.0801V66.5633H193.028V74.8794H191.333V73.8032H191.235C191.006 74.1945 190.653 74.5152 190.175 74.7653C189.696 75.0153 189.191 75.1403 188.658 75.1403ZM198.591 75.1403C197.841 75.1403 197.162 74.9501 196.553 74.5696C195.944 74.1891 195.46 73.6673 195.102 73.0042C194.754 72.3302 194.58 71.5693 194.58 70.7214C194.58 69.8734 194.754 69.1179 195.102 68.4548C195.46 67.7808 195.944 67.2536 196.553 66.8731C197.162 66.4927 197.841 66.3024 198.591 66.3024C199.178 66.3024 199.705 66.4329 200.173 66.6938C200.64 66.9547 200.994 67.2753 201.233 67.6558H201.314L201.233 66.4818V63.2043H203.026V74.8794H201.314V73.8032H201.233C200.994 74.1728 200.64 74.488 200.173 74.7489C199.705 75.0098 199.178 75.1403 198.591 75.1403ZM198.852 73.4934C199.287 73.4934 199.689 73.3792 200.059 73.151C200.439 72.9227 200.744 72.5966 200.972 72.1726C201.2 71.7486 201.314 71.2649 201.314 70.7214C201.314 70.1778 201.2 69.6995 200.972 69.2864C200.744 68.8625 200.439 68.5363 200.059 68.3081C199.689 68.0798 199.287 67.9656 198.852 67.9656C198.417 67.9656 198.01 68.0798 197.629 68.3081C197.249 68.5363 196.944 68.8625 196.716 69.2864C196.488 69.6995 196.374 70.1778 196.374 70.7214C196.374 71.2649 196.488 71.7486 196.716 72.1726C196.944 72.5966 197.249 72.9227 197.629 73.151C198.01 73.3792 198.417 73.4934 198.852 73.4934ZM208.836 75.1403C208.021 75.1403 207.287 74.9501 206.635 74.5696C205.993 74.1891 205.488 73.6673 205.118 73.0042C204.759 72.3302 204.58 71.5747 204.58 70.7377C204.58 69.9441 204.754 69.2103 205.102 68.5363C205.461 67.8515 205.955 67.308 206.586 66.9057C207.216 66.5035 207.934 66.3024 208.738 66.3024C209.575 66.3024 210.298 66.4872 210.907 66.8568C211.526 67.2264 211.994 67.7319 212.309 68.3733C212.635 69.0147 212.798 69.7376 212.798 70.542C212.798 70.6942 212.782 70.8844 212.749 71.1127H206.374C206.439 71.8845 206.711 72.4824 207.189 72.9064C207.678 73.3195 208.243 73.526 208.885 73.526C209.396 73.526 209.836 73.4119 210.206 73.1836C210.586 72.9444 210.89 72.6237 211.119 72.2215L212.635 72.939C212.244 73.6238 211.733 74.1619 211.102 74.5533C210.472 74.9446 209.716 75.1403 208.836 75.1403ZM210.972 69.743C210.95 69.4495 210.858 69.1614 210.695 68.8788C210.532 68.5853 210.282 68.3407 209.945 68.145C209.619 67.9493 209.216 67.8515 208.738 67.8515C208.162 67.8515 207.673 68.0254 207.271 68.3733C206.879 68.7103 206.607 69.1668 206.455 69.743H210.972ZM214.432 66.5633H216.144V67.6558H216.225C216.464 67.2645 216.818 66.9438 217.285 66.6938C217.764 66.4329 218.269 66.3024 218.802 66.3024C219.813 66.3024 220.579 66.6014 221.101 67.1993C221.633 67.7863 221.9 68.5907 221.9 69.6125V74.8794H220.106V69.8571C220.106 69.2049 219.943 68.7266 219.617 68.4222C219.302 68.1178 218.861 67.9656 218.296 67.9656C217.894 67.9656 217.535 68.0798 217.22 68.3081C216.905 68.5255 216.66 68.819 216.486 69.1886C216.312 69.5582 216.225 69.955 216.225 70.3789V74.8794H214.432V66.5633ZM226.916 75.0098C226.547 75.0098 226.199 74.9501 225.873 74.8305C225.547 74.7109 225.28 74.5533 225.074 74.3576C224.606 73.8902 224.372 73.2542 224.372 72.4498V68.145H222.921V66.5633H224.372V64.2153H226.166V66.5633H228.188V68.145H226.166V72.0585C226.166 72.5041 226.253 72.8194 226.427 73.0042C226.59 73.2216 226.873 73.3303 227.275 73.3303C227.46 73.3303 227.623 73.3086 227.764 73.2651C227.905 73.2107 228.058 73.1292 228.221 73.0205V74.7653C227.862 74.9283 227.427 75.0098 226.916 75.0098ZM239.202 75.1403C238.071 75.1403 237.039 74.874 236.104 74.3413C235.169 73.8086 234.435 73.0749 233.902 72.14C233.37 71.2051 233.103 70.1724 233.103 69.0418C233.103 67.9113 233.37 66.8786 233.902 65.9437C234.435 65.0088 235.169 64.275 236.104 63.7424C237.039 63.2097 238.071 62.9434 239.202 62.9434C240.082 62.9434 240.881 63.1064 241.599 63.4326C242.327 63.7587 242.969 64.2316 243.523 64.8512L242.219 66.1067C241.816 65.6284 241.371 65.2751 240.881 65.0469C240.392 64.8077 239.832 64.6881 239.202 64.6881C238.419 64.6881 237.702 64.8675 237.05 65.2262C236.408 65.585 235.897 66.0959 235.517 66.759C235.136 67.4112 234.946 68.1722 234.946 69.0418C234.946 69.9115 235.136 70.6779 235.517 71.341C235.897 71.9932 236.408 72.4987 237.05 72.8574C237.702 73.2162 238.419 73.3955 239.202 73.3955C240.506 73.3955 241.615 72.852 242.528 71.7649L243.849 73.0368C243.284 73.6999 242.604 74.2163 241.811 74.5859C241.017 74.9555 240.148 75.1403 239.202 75.1403ZM245.435 63.2043H247.229V74.8794H245.435V63.2043ZM252.37 75.1403C251.359 75.1403 250.587 74.8413 250.054 74.2435C249.532 73.6347 249.272 72.7922 249.272 71.716V66.5633H251.065V71.4714C251.065 72.1454 251.223 72.6509 251.538 72.9879C251.864 73.3249 252.288 73.4934 252.81 73.4934C253.234 73.4934 253.609 73.3847 253.935 73.1673C254.261 72.939 254.511 72.64 254.685 72.2704C254.859 71.9008 254.946 71.504 254.946 71.0801V66.5633H256.74V74.8794H255.044V73.8032H254.946C254.718 74.1945 254.364 74.5152 253.886 74.7653C253.408 75.0153 252.902 75.1403 252.37 75.1403ZM263.263 75.1403C262.676 75.1403 262.148 75.0098 261.681 74.7489C261.213 74.488 260.86 74.1728 260.621 73.8032H260.54V74.8794H258.827V63.2043H260.621V66.4818L260.54 67.6558H260.621C260.86 67.2753 261.213 66.9547 261.681 66.6938C262.148 66.4329 262.676 66.3024 263.263 66.3024C264.013 66.3024 264.692 66.4927 265.301 66.8731C265.91 67.2536 266.388 67.7808 266.736 68.4548C267.095 69.1179 267.274 69.8734 267.274 70.7214C267.274 71.5693 267.095 72.3302 266.736 73.0042C266.388 73.6673 265.91 74.1891 265.301 74.5696C264.692 74.9501 264.013 75.1403 263.263 75.1403ZM263.002 73.4934C263.437 73.4934 263.844 73.3792 264.225 73.151C264.605 72.9227 264.91 72.5966 265.138 72.1726C265.366 71.7486 265.48 71.2649 265.48 70.7214C265.48 70.1778 265.366 69.6995 265.138 69.2864C264.91 68.8625 264.605 68.5363 264.225 68.3081C263.844 68.0798 263.437 67.9656 263.002 67.9656C262.567 67.9656 262.159 68.0798 261.779 68.3081C261.409 68.5363 261.11 68.8625 260.882 69.2864C260.654 69.6995 260.54 70.1778 260.54 70.7214C260.54 71.2649 260.654 71.7486 260.882 72.1726C261.11 72.5966 261.409 72.9227 261.779 73.151C262.159 73.3792 262.567 73.4934 263.002 73.4934ZM271.86 75.1403C270.904 75.1403 270.121 74.9337 269.512 74.5207C268.904 74.0967 268.474 73.5586 268.224 72.9064L269.822 72.2052C270.018 72.64 270.29 72.9716 270.638 73.1999C270.996 73.4282 271.404 73.5423 271.86 73.5423C272.306 73.5423 272.681 73.4662 272.986 73.314C273.29 73.151 273.442 72.9118 273.442 72.5966C273.442 72.2922 273.312 72.053 273.051 71.8791C272.79 71.7052 272.388 71.553 271.844 71.4225L270.849 71.1779C270.186 71.0149 269.637 70.7268 269.203 70.3137C268.768 69.9006 268.55 69.3788 268.55 68.7483C268.55 68.2591 268.692 67.8298 268.974 67.4602C269.268 67.0905 269.659 66.8079 270.148 66.6122C270.638 66.4057 271.17 66.3024 271.746 66.3024C272.518 66.3024 273.198 66.46 273.785 66.7753C274.372 67.0797 274.796 67.5254 275.056 68.1124L273.491 68.7972C273.176 68.1559 272.6 67.8352 271.763 67.8352C271.36 67.8352 271.023 67.9167 270.752 68.0798C270.48 68.2428 270.344 68.4548 270.344 68.7157C270.344 68.9657 270.447 69.1723 270.654 69.3353C270.86 69.4875 271.165 69.618 271.567 69.7267L272.79 70.0365C273.605 70.243 274.219 70.5583 274.632 70.9823C275.056 71.3953 275.268 71.9063 275.268 72.515C275.268 73.0368 275.116 73.4988 274.812 73.901C274.518 74.2924 274.111 74.5968 273.589 74.8142C273.067 75.0316 272.491 75.1403 271.86 75.1403Z" fill="#616161"/>
<rect width="23.3115" height="7.81905" rx="3.90953" transform="matrix(-0.866025 0.5 0.5 0.866025 174.504 27.7881)" fill="#FBBC04"/>
<rect width="23.3115" height="7.81905" rx="3.90953" transform="matrix(0.866025 -0.5 -0.5 -0.866025 131.371 38.4272)" fill="#EA4335"/>
<rect x="131.041" y="27.7871" width="23.3115" height="7.81905" rx="3.90953" transform="rotate(30 131.041 27.7871)" fill="#4285F4"/>
<rect x="174.504" y="38.4272" width="23.3115" height="7.81905" rx="3.64648" transform="rotate(-150 174.504 38.4272)" fill="#0F9D58"/>
<path d="M56.4307 88.0184H59.5147C59.9467 88.0184 60.3507 88.1184 60.7267 88.3184C61.1107 88.5184 61.4147 88.7944 61.6387 89.1464C61.8627 89.4984 61.9747 89.8944 61.9747 90.3344C61.9747 90.7504 61.8667 91.1144 61.6507 91.4264C61.4427 91.7384 61.1587 91.9784 60.7987 92.1464V92.1944C61.2307 92.3384 61.5827 92.5864 61.8547 92.9384C62.1267 93.2904 62.2627 93.7024 62.2627 94.1744C62.2627 94.6384 62.1427 95.0584 61.9027 95.4344C61.6707 95.8024 61.3547 96.0904 60.9547 96.2984C60.5627 96.5064 60.1387 96.6104 59.6827 96.6104H56.4307V88.0184ZM59.5147 91.7384C59.8027 91.7384 60.0547 91.6704 60.2707 91.5344C60.4947 91.3984 60.6667 91.2264 60.7867 91.0184C60.9067 90.8024 60.9667 90.5824 60.9667 90.3584C60.9667 90.1424 60.9067 89.9304 60.7867 89.7224C60.6747 89.5064 60.5107 89.3304 60.2947 89.1944C60.0867 89.0584 59.8427 88.9904 59.5627 88.9904H57.4387V91.7384H59.5147ZM59.7427 95.6384C60.0307 95.6384 60.2867 95.5664 60.5107 95.4224C60.7427 95.2784 60.9187 95.0944 61.0387 94.8704C61.1667 94.6384 61.2307 94.4024 61.2307 94.1624C61.2307 93.9224 61.1667 93.6904 61.0387 93.4664C60.9107 93.2344 60.7307 93.0504 60.4987 92.9144C60.2667 92.7704 59.9987 92.6984 59.6947 92.6984H57.4387V95.6384H59.7427ZM64.104 89.3624C63.904 89.3624 63.732 89.2904 63.588 89.1464C63.444 89.0024 63.372 88.8304 63.372 88.6304C63.372 88.4304 63.444 88.2624 63.588 88.1264C63.732 87.9824 63.904 87.9104 64.104 87.9104C64.304 87.9104 64.476 87.9824 64.62 88.1264C64.764 88.2624 64.836 88.4304 64.836 88.6304C64.836 88.8304 64.764 89.0024 64.62 89.1464C64.484 89.2904 64.312 89.3624 64.104 89.3624ZM63.6 90.4904H64.608V96.6104H63.6V90.4904ZM66.2111 90.4904H67.1831V91.4744H67.2311C67.3511 91.1384 67.5831 90.8624 67.9271 90.6464C68.2711 90.4224 68.6311 90.3104 69.0071 90.3104C69.2871 90.3104 69.5271 90.3504 69.7271 90.4304V91.5344C69.4711 91.4064 69.1831 91.3424 68.8631 91.3424C68.5671 91.3424 68.2951 91.4264 68.0471 91.5944C67.7991 91.7624 67.5991 91.9904 67.4471 92.2784C67.3031 92.5584 67.2311 92.8624 67.2311 93.1904V96.6104H66.2111V90.4904ZM70.7697 88.0184H71.7897V96.6104H70.7697V88.0184ZM75.1983 96.8024C74.7503 96.8024 74.3503 96.7144 73.9983 96.5384C73.6463 96.3624 73.3743 96.1224 73.1823 95.8184C72.9903 95.5064 72.8943 95.1544 72.8943 94.7624C72.8943 94.1144 73.1383 93.6104 73.6263 93.2504C74.1143 92.8824 74.7303 92.6984 75.4743 92.6984C75.8423 92.6984 76.1823 92.7384 76.4943 92.8184C76.8143 92.8984 77.0583 92.9904 77.2263 93.0944V92.7224C77.2263 92.2664 77.0663 91.9024 76.7463 91.6304C76.4263 91.3504 76.0223 91.2104 75.5343 91.2104C75.1903 91.2104 74.8743 91.2864 74.5863 91.4384C74.2983 91.5824 74.0703 91.7864 73.9023 92.0504L73.1343 91.4744C73.3743 91.1064 73.7023 90.8184 74.1183 90.6104C74.5423 90.4024 75.0103 90.2984 75.5223 90.2984C76.3543 90.2984 77.0063 90.5184 77.4783 90.9584C77.9583 91.3904 78.1983 91.9824 78.1983 92.7344V96.6104H77.2263V95.7344H77.1783C77.0023 96.0304 76.7383 96.2824 76.3863 96.4904C76.0343 96.6984 75.6383 96.8024 75.1983 96.8024ZM75.2943 95.9024C75.6383 95.9024 75.9583 95.8144 76.2543 95.6384C76.5503 95.4624 76.7863 95.2264 76.9623 94.9304C77.1383 94.6344 77.2263 94.3104 77.2263 93.9584C77.0343 93.8304 76.7983 93.7264 76.5183 93.6464C76.2383 93.5664 75.9423 93.5264 75.6303 93.5264C75.0703 93.5264 74.6463 93.6424 74.3583 93.8744C74.0783 94.1064 73.9383 94.4064 73.9383 94.7744C73.9383 95.1104 74.0663 95.3824 74.3223 95.5904C74.5783 95.7984 74.9023 95.9024 75.2943 95.9024ZM82.6104 88.0184H83.6184V96.6104H82.6104V88.0184ZM85.3361 90.4904H86.3081V91.3904H86.3561C86.5241 91.0864 86.7921 90.8304 87.1601 90.6224C87.5281 90.4064 87.9201 90.2984 88.3361 90.2984C89.0721 90.2984 89.6321 90.5144 90.0161 90.9464C90.4081 91.3704 90.6041 91.9504 90.6041 92.6864V96.6104H89.5841V92.8424C89.5841 92.2744 89.4481 91.8624 89.1761 91.6064C88.9041 91.3504 88.5321 91.2224 88.0601 91.2224C87.7321 91.2224 87.4361 91.3144 87.1721 91.4984C86.9161 91.6824 86.7161 91.9264 86.5721 92.2304C86.4281 92.5264 86.3561 92.8384 86.3561 93.1664V96.6104H85.3361V90.4904ZM94.14 96.8024C93.484 96.8024 92.936 96.6504 92.496 96.3464C92.056 96.0344 91.744 95.6384 91.56 95.1584L92.472 94.7504C92.624 95.1184 92.848 95.4024 93.144 95.6024C93.448 95.8024 93.78 95.9024 94.14 95.9024C94.524 95.9024 94.852 95.8264 95.124 95.6744C95.396 95.5144 95.532 95.2904 95.532 95.0024C95.532 94.7464 95.424 94.5424 95.208 94.3904C94.992 94.2304 94.652 94.0944 94.188 93.9824L93.444 93.7904C92.956 93.6704 92.556 93.4664 92.244 93.1784C91.932 92.8904 91.776 92.5184 91.776 92.0624C91.776 91.7104 91.88 91.4024 92.088 91.1384C92.304 90.8664 92.588 90.6584 92.94 90.5144C93.292 90.3704 93.672 90.2984 94.08 90.2984C94.616 90.2984 95.092 90.4144 95.508 90.6464C95.932 90.8784 96.232 91.2024 96.408 91.6184L95.52 92.0264C95.248 91.4824 94.764 91.2104 94.068 91.2104C93.732 91.2104 93.436 91.2904 93.18 91.4504C92.932 91.6024 92.808 91.7984 92.808 92.0384C92.808 92.2624 92.896 92.4464 93.072 92.5904C93.248 92.7264 93.512 92.8384 93.864 92.9264L94.752 93.1544C95.352 93.3064 95.804 93.5344 96.108 93.8384C96.412 94.1344 96.564 94.4984 96.564 94.9304C96.564 95.3064 96.456 95.6384 96.24 95.9264C96.024 96.2064 95.732 96.4224 95.364 96.5744C94.996 96.7264 94.588 96.8024 94.14 96.8024ZM99.9693 96.7064C99.7213 96.7064 99.4893 96.6664 99.2733 96.5864C99.0653 96.5064 98.8893 96.3984 98.7453 96.2624C98.5853 96.1104 98.4653 95.9344 98.3853 95.7344C98.3053 95.5344 98.2653 95.2904 98.2653 95.0024V91.4144H97.1973V90.4904H98.2653V88.7624H99.2853V90.4904H100.773V91.4144H99.2853V94.7504C99.2853 95.0864 99.3493 95.3344 99.4773 95.4944C99.6293 95.6704 99.8493 95.7584 100.137 95.7584C100.369 95.7584 100.593 95.6904 100.809 95.5544V96.5504C100.689 96.6064 100.565 96.6464 100.437 96.6704C100.317 96.6944 100.161 96.7064 99.9693 96.7064ZM102.67 89.3624C102.47 89.3624 102.298 89.2904 102.154 89.1464C102.01 89.0024 101.938 88.8304 101.938 88.6304C101.938 88.4304 102.01 88.2624 102.154 88.1264C102.298 87.9824 102.47 87.9104 102.67 87.9104C102.87 87.9104 103.042 87.9824 103.186 88.1264C103.33 88.2624 103.402 88.4304 103.402 88.6304C103.402 88.8304 103.33 89.0024 103.186 89.1464C103.05 89.2904 102.878 89.3624 102.67 89.3624ZM102.166 90.4904H103.174V96.6104H102.166V90.4904ZM107.071 96.7064C106.823 96.7064 106.591 96.6664 106.375 96.5864C106.167 96.5064 105.991 96.3984 105.847 96.2624C105.687 96.1104 105.567 95.9344 105.487 95.7344C105.407 95.5344 105.367 95.2904 105.367 95.0024V91.4144H104.299V90.4904H105.367V88.7624H106.387V90.4904H107.875V91.4144H106.387V94.7504C106.387 95.0864 106.451 95.3344 106.579 95.4944C106.731 95.6704 106.951 95.7584 107.239 95.7584C107.471 95.7584 107.695 95.6904 107.911 95.5544V96.5504C107.791 96.6064 107.667 96.6464 107.539 96.6704C107.419 96.6944 107.263 96.7064 107.071 96.7064ZM111.333 96.8024C110.597 96.8024 110.033 96.5864 109.641 96.1544C109.257 95.7224 109.065 95.1184 109.065 94.3424V90.4904H110.085V94.1864C110.085 94.7704 110.217 95.1984 110.481 95.4704C110.745 95.7424 111.101 95.8784 111.549 95.8784C111.893 95.8784 112.197 95.7864 112.461 95.6024C112.733 95.4184 112.941 95.1784 113.085 94.8824C113.237 94.5864 113.313 94.2744 113.313 93.9464V90.4904H114.333V96.6104H113.361V95.7224H113.313C113.145 96.0264 112.877 96.2824 112.509 96.4904C112.141 96.6984 111.749 96.8024 111.333 96.8024ZM118.251 96.7064C118.003 96.7064 117.771 96.6664 117.555 96.5864C117.347 96.5064 117.171 96.3984 117.027 96.2624C116.867 96.1104 116.747 95.9344 116.667 95.7344C116.587 95.5344 116.547 95.2904 116.547 95.0024V91.4144H115.479V90.4904H116.547V88.7624H117.567V90.4904H119.055V91.4144H117.567V94.7504C117.567 95.0864 117.631 95.3344 117.759 95.4944C117.911 95.6704 118.131 95.7584 118.419 95.7584C118.651 95.7584 118.875 95.6904 119.091 95.5544V96.5504C118.971 96.6064 118.847 96.6464 118.719 96.6704C118.599 96.6944 118.443 96.7064 118.251 96.7064ZM122.748 96.8024C122.164 96.8024 121.64 96.6624 121.176 96.3824C120.712 96.1024 120.348 95.7184 120.084 95.2304C119.828 94.7344 119.7 94.1784 119.7 93.5624C119.7 92.9704 119.82 92.4264 120.06 91.9304C120.308 91.4344 120.656 91.0384 121.104 90.7424C121.552 90.4464 122.072 90.2984 122.664 90.2984C123.264 90.2984 123.784 90.4344 124.224 90.7064C124.664 90.9704 125 91.3384 125.232 91.8104C125.472 92.2824 125.592 92.8224 125.592 93.4304C125.592 93.5504 125.58 93.6544 125.556 93.7424H120.72C120.744 94.2064 120.856 94.5984 121.056 94.9184C121.256 95.2384 121.508 95.4784 121.812 95.6384C122.124 95.7984 122.448 95.8784 122.784 95.8784C123.568 95.8784 124.172 95.5104 124.596 94.7744L125.46 95.1944C125.196 95.6904 124.836 96.0824 124.38 96.3704C123.932 96.6584 123.388 96.8024 122.748 96.8024ZM124.512 92.9024C124.496 92.6464 124.424 92.3904 124.296 92.1344C124.168 91.8784 123.964 91.6624 123.684 91.4864C123.412 91.3104 123.068 91.2224 122.652 91.2224C122.172 91.2224 121.764 91.3784 121.428 91.6904C121.1 91.9944 120.884 92.3984 120.78 92.9024H124.512ZM132.394 96.8024C131.794 96.8024 131.254 96.6584 130.774 96.3704C130.294 96.0824 129.918 95.6904 129.646 95.1944C129.382 94.6984 129.25 94.1504 129.25 93.5504C129.25 92.9504 129.382 92.4024 129.646 91.9064C129.918 91.4104 130.294 91.0184 130.774 90.7304C131.254 90.4424 131.794 90.2984 132.394 90.2984C132.994 90.2984 133.534 90.4424 134.014 90.7304C134.494 91.0184 134.866 91.4104 135.13 91.9064C135.402 92.4024 135.538 92.9504 135.538 93.5504C135.538 94.1504 135.402 94.6984 135.13 95.1944C134.866 95.6904 134.494 96.0824 134.014 96.3704C133.534 96.6584 132.994 96.8024 132.394 96.8024ZM132.394 95.8784C132.77 95.8784 133.118 95.7864 133.438 95.6024C133.766 95.4104 134.026 95.1384 134.218 94.7864C134.418 94.4344 134.518 94.0224 134.518 93.5504C134.518 93.0784 134.418 92.6664 134.218 92.3144C134.026 91.9624 133.766 91.6944 133.438 91.5104C133.118 91.3184 132.77 91.2224 132.394 91.2224C132.018 91.2224 131.666 91.3184 131.338 91.5104C131.01 91.6944 130.746 91.9624 130.546 92.3144C130.354 92.6664 130.258 93.0784 130.258 93.5504C130.258 94.0224 130.354 94.4344 130.546 94.7864C130.746 95.1384 131.01 95.4104 131.338 95.6024C131.666 95.7864 132.018 95.8784 132.394 95.8784ZM137.255 91.4144H136.127V90.4904H137.255V89.8304C137.255 89.4464 137.343 89.1104 137.519 88.8224C137.695 88.5344 137.931 88.3144 138.227 88.1624C138.523 88.0024 138.851 87.9224 139.211 87.9224C139.555 87.9224 139.855 87.9704 140.111 88.0664V89.0624C139.967 89.0064 139.831 88.9624 139.703 88.9304C139.575 88.8904 139.423 88.8704 139.247 88.8704C138.983 88.8704 138.755 88.9664 138.563 89.1584C138.371 89.3424 138.275 89.6024 138.275 89.9384V90.4904H139.847V91.4144H138.275V96.6104H137.255V91.4144ZM145.37 88.9904H142.958V88.0184H148.79V88.9904H146.39V96.6104H145.37V88.9904ZM151.634 96.8024C151.05 96.8024 150.526 96.6624 150.062 96.3824C149.598 96.1024 149.234 95.7184 148.97 95.2304C148.714 94.7344 148.586 94.1784 148.586 93.5624C148.586 92.9704 148.706 92.4264 148.946 91.9304C149.194 91.4344 149.542 91.0384 149.99 90.7424C150.438 90.4464 150.958 90.2984 151.55 90.2984C152.15 90.2984 152.67 90.4344 153.11 90.7064C153.55 90.9704 153.886 91.3384 154.118 91.8104C154.358 92.2824 154.478 92.8224 154.478 93.4304C154.478 93.5504 154.466 93.6544 154.442 93.7424H149.606C149.63 94.2064 149.742 94.5984 149.942 94.9184C150.142 95.2384 150.394 95.4784 150.698 95.6384C151.01 95.7984 151.334 95.8784 151.67 95.8784C152.454 95.8784 153.058 95.5104 153.482 94.7744L154.346 95.1944C154.082 95.6904 153.722 96.0824 153.266 96.3704C152.818 96.6584 152.274 96.8024 151.634 96.8024ZM153.398 92.9024C153.382 92.6464 153.31 92.3904 153.182 92.1344C153.054 91.8784 152.85 91.6624 152.57 91.4864C152.298 91.3104 151.954 91.2224 151.538 91.2224C151.058 91.2224 150.65 91.3784 150.314 91.6904C149.986 91.9944 149.77 92.3984 149.666 92.9024H153.398ZM158.503 96.8024C157.911 96.8024 157.379 96.6624 156.907 96.3824C156.435 96.0944 156.067 95.7064 155.803 95.2184C155.539 94.7224 155.407 94.1664 155.407 93.5504C155.407 92.9344 155.539 92.3784 155.803 91.8824C156.067 91.3864 156.435 90.9984 156.907 90.7184C157.379 90.4384 157.911 90.2984 158.503 90.2984C159.167 90.2984 159.723 90.4544 160.171 90.7664C160.627 91.0704 160.951 91.4784 161.143 91.9904L160.219 92.3744C160.067 91.9984 159.839 91.7144 159.535 91.5224C159.239 91.3224 158.879 91.2224 158.455 91.2224C158.095 91.2224 157.759 91.3224 157.447 91.5224C157.135 91.7144 156.883 91.9864 156.691 92.3384C156.507 92.6904 156.415 93.0944 156.415 93.5504C156.415 94.0064 156.507 94.4104 156.691 94.7624C156.883 95.1144 157.135 95.3904 157.447 95.5904C157.759 95.7824 158.095 95.8784 158.455 95.8784C158.887 95.8784 159.259 95.7784 159.571 95.5784C159.883 95.3784 160.115 95.0944 160.267 94.7264L161.179 95.1104C160.971 95.6144 160.635 96.0224 160.171 96.3344C159.715 96.6464 159.159 96.8024 158.503 96.8024ZM162.281 88.0184H163.301V90.5504L163.253 91.3904H163.301C163.469 91.0784 163.733 90.8184 164.093 90.6104C164.461 90.4024 164.861 90.2984 165.293 90.2984C166.037 90.2984 166.605 90.5184 166.997 90.9584C167.389 91.3904 167.585 91.9664 167.585 92.6864V96.6104H166.565V92.8424C166.565 92.2904 166.425 91.8824 166.145 91.6184C165.865 91.3544 165.501 91.2224 165.053 91.2224C164.733 91.2224 164.437 91.3184 164.165 91.5104C163.901 91.7024 163.689 91.9504 163.529 92.2544C163.377 92.5584 163.301 92.8744 163.301 93.2024V96.6104H162.281V88.0184ZM169.055 90.4904H170.027V91.3904H170.075C170.243 91.0864 170.511 90.8304 170.879 90.6224C171.247 90.4064 171.639 90.2984 172.055 90.2984C172.791 90.2984 173.351 90.5144 173.735 90.9464C174.127 91.3704 174.323 91.9504 174.323 92.6864V96.6104H173.303V92.8424C173.303 92.2744 173.167 91.8624 172.895 91.6064C172.623 91.3504 172.251 91.2224 171.779 91.2224C171.451 91.2224 171.155 91.3144 170.891 91.4984C170.635 91.6824 170.435 91.9264 170.291 92.2304C170.147 92.5264 170.075 92.8384 170.075 93.1664V96.6104H169.055V90.4904ZM178.601 96.8024C178.001 96.8024 177.461 96.6584 176.981 96.3704C176.501 96.0824 176.125 95.6904 175.853 95.1944C175.589 94.6984 175.457 94.1504 175.457 93.5504C175.457 92.9504 175.589 92.4024 175.853 91.9064C176.125 91.4104 176.501 91.0184 176.981 90.7304C177.461 90.4424 178.001 90.2984 178.601 90.2984C179.201 90.2984 179.741 90.4424 180.221 90.7304C180.701 91.0184 181.073 91.4104 181.337 91.9064C181.609 92.4024 181.745 92.9504 181.745 93.5504C181.745 94.1504 181.609 94.6984 181.337 95.1944C181.073 95.6904 180.701 96.0824 180.221 96.3704C179.741 96.6584 179.201 96.8024 178.601 96.8024ZM178.601 95.8784C178.977 95.8784 179.325 95.7864 179.645 95.6024C179.973 95.4104 180.233 95.1384 180.425 94.7864C180.625 94.4344 180.725 94.0224 180.725 93.5504C180.725 93.0784 180.625 92.6664 180.425 92.3144C180.233 91.9624 179.973 91.6944 179.645 91.5104C179.325 91.3184 178.977 91.2224 178.601 91.2224C178.225 91.2224 177.873 91.3184 177.545 91.5104C177.217 91.6944 176.953 91.9624 176.753 92.3144C176.561 92.6664 176.465 93.0784 176.465 93.5504C176.465 94.0224 176.561 94.4344 176.753 94.7864C176.953 95.1384 177.217 95.4104 177.545 95.6024C177.873 95.7864 178.225 95.8784 178.601 95.8784ZM182.871 88.0184H183.891V96.6104H182.871V88.0184ZM188.164 96.8024C187.564 96.8024 187.024 96.6584 186.544 96.3704C186.064 96.0824 185.688 95.6904 185.416 95.1944C185.152 94.6984 185.02 94.1504 185.02 93.5504C185.02 92.9504 185.152 92.4024 185.416 91.9064C185.688 91.4104 186.064 91.0184 186.544 90.7304C187.024 90.4424 187.564 90.2984 188.164 90.2984C188.764 90.2984 189.304 90.4424 189.784 90.7304C190.264 91.0184 190.636 91.4104 190.9 91.9064C191.172 92.4024 191.308 92.9504 191.308 93.5504C191.308 94.1504 191.172 94.6984 190.9 95.1944C190.636 95.6904 190.264 96.0824 189.784 96.3704C189.304 96.6584 188.764 96.8024 188.164 96.8024ZM188.164 95.8784C188.54 95.8784 188.888 95.7864 189.208 95.6024C189.536 95.4104 189.796 95.1384 189.988 94.7864C190.188 94.4344 190.288 94.0224 190.288 93.5504C190.288 93.0784 190.188 92.6664 189.988 92.3144C189.796 91.9624 189.536 91.6944 189.208 91.5104C188.888 91.3184 188.54 91.2224 188.164 91.2224C187.788 91.2224 187.436 91.3184 187.108 91.5104C186.78 91.6944 186.516 91.9624 186.316 92.3144C186.124 92.6664 186.028 93.0784 186.028 93.5504C186.028 94.0224 186.124 94.4344 186.316 94.7864C186.516 95.1384 186.78 95.4104 187.108 95.6024C187.436 95.7864 187.788 95.8784 188.164 95.8784ZM195.18 99.3944C194.46 99.3944 193.864 99.2264 193.392 98.8904C192.928 98.5544 192.616 98.1504 192.456 97.6784L193.38 97.2824C193.516 97.6344 193.74 97.9184 194.052 98.1344C194.372 98.3584 194.748 98.4704 195.18 98.4704C195.812 98.4704 196.3 98.2864 196.644 97.9184C196.996 97.5504 197.172 97.0304 197.172 96.3584V95.6744H197.124C196.924 95.9864 196.64 96.2424 196.272 96.4424C195.912 96.6344 195.5 96.7304 195.036 96.7304C194.508 96.7304 194.024 96.5944 193.584 96.3224C193.152 96.0504 192.808 95.6704 192.552 95.1824C192.296 94.6944 192.168 94.1384 192.168 93.5144C192.168 92.8984 192.296 92.3464 192.552 91.8584C192.808 91.3624 193.152 90.9784 193.584 90.7064C194.024 90.4344 194.508 90.2984 195.036 90.2984C195.5 90.2984 195.912 90.3984 196.272 90.5984C196.64 90.7904 196.924 91.0464 197.124 91.3664H197.172V90.4904H198.144V96.3704C198.144 97.3544 197.872 98.1024 197.328 98.6144C196.784 99.1344 196.068 99.3944 195.18 99.3944ZM195.18 95.8064C195.548 95.8064 195.88 95.7144 196.176 95.5304C196.48 95.3464 196.72 95.0824 196.896 94.7384C197.08 94.3944 197.172 93.9864 197.172 93.5144C197.172 93.0344 197.08 92.6224 196.896 92.2784C196.72 91.9344 196.48 91.6744 196.176 91.4984C195.88 91.3144 195.548 91.2224 195.18 91.2224C194.812 91.2224 194.476 91.3144 194.172 91.4984C193.868 91.6824 193.624 91.9464 193.44 92.2904C193.264 92.6344 193.176 93.0424 193.176 93.5144C193.176 93.9864 193.264 94.3984 193.44 94.7504C193.624 95.0944 193.868 95.3584 194.172 95.5424C194.476 95.7184 194.812 95.8064 195.18 95.8064ZM201.524 96.2264L198.992 90.4904H200.096L202.016 95.0384H202.04L203.888 90.4904H204.992L201.212 99.2024H200.156L201.524 96.2264ZM204.852 97.6064L205.488 96.6104C205.344 96.5864 205.216 96.5104 205.104 96.3824C204.992 96.2544 204.936 96.0984 204.936 95.9144C204.936 95.7064 205.008 95.5304 205.152 95.3864C205.304 95.2344 205.488 95.1584 205.704 95.1584C205.92 95.1584 206.1 95.2344 206.244 95.3864C206.396 95.5304 206.472 95.7064 206.472 95.9144C206.472 96.0504 206.444 96.1824 206.388 96.3104C206.332 96.4304 206.248 96.5704 206.136 96.7304L205.344 97.9304L204.852 97.6064ZM209.647 88.0184H210.775L212.335 94.3304L212.479 94.9184H212.527L212.707 94.3304L214.627 88.0184H215.683L217.519 94.3304L217.699 94.9184H217.747L219.439 88.0184H220.567L218.251 96.6104H217.195L215.371 90.3944L215.179 89.7224H215.131L214.927 90.3944L213.031 96.6104H211.975L209.647 88.0184ZM223.007 96.8024C222.559 96.8024 222.159 96.7144 221.807 96.5384C221.455 96.3624 221.183 96.1224 220.991 95.8184C220.799 95.5064 220.703 95.1544 220.703 94.7624C220.703 94.1144 220.947 93.6104 221.435 93.2504C221.923 92.8824 222.539 92.6984 223.283 92.6984C223.651 92.6984 223.991 92.7384 224.303 92.8184C224.623 92.8984 224.867 92.9904 225.035 93.0944V92.7224C225.035 92.2664 224.875 91.9024 224.555 91.6304C224.235 91.3504 223.831 91.2104 223.343 91.2104C222.999 91.2104 222.683 91.2864 222.395 91.4384C222.107 91.5824 221.879 91.7864 221.711 92.0504L220.943 91.4744C221.183 91.1064 221.511 90.8184 221.927 90.6104C222.351 90.4024 222.819 90.2984 223.331 90.2984C224.163 90.2984 224.815 90.5184 225.287 90.9584C225.767 91.3904 226.007 91.9824 226.007 92.7344V96.6104H225.035V95.7344H224.987C224.811 96.0304 224.547 96.2824 224.195 96.4904C223.843 96.6984 223.447 96.8024 223.007 96.8024ZM223.103 95.9024C223.447 95.9024 223.767 95.8144 224.063 95.6384C224.359 95.4624 224.595 95.2264 224.771 94.9304C224.947 94.6344 225.035 94.3104 225.035 93.9584C224.843 93.8304 224.607 93.7264 224.327 93.6464C224.047 93.5664 223.751 93.5264 223.439 93.5264C222.879 93.5264 222.455 93.6424 222.167 93.8744C221.887 94.1064 221.747 94.4064 221.747 94.7744C221.747 95.1104 221.875 95.3824 222.131 95.5904C222.387 95.7984 222.711 95.9024 223.103 95.9024ZM227.426 90.4904H228.398V91.4744H228.446C228.566 91.1384 228.798 90.8624 229.142 90.6464C229.486 90.4224 229.846 90.3104 230.222 90.3104C230.502 90.3104 230.742 90.3504 230.942 90.4304V91.5344C230.686 91.4064 230.398 91.3424 230.078 91.3424C229.782 91.3424 229.51 91.4264 229.262 91.5944C229.014 91.7624 228.814 91.9904 228.662 92.2784C228.518 92.5584 228.446 92.8624 228.446 93.1904V96.6104H227.426V90.4904ZM234.155 96.8024C233.611 96.8024 233.115 96.6624 232.667 96.3824C232.227 96.1024 231.879 95.7184 231.623 95.2304C231.367 94.7344 231.239 94.1744 231.239 93.5504C231.239 92.9344 231.367 92.3784 231.623 91.8824C231.879 91.3864 232.227 90.9984 232.667 90.7184C233.115 90.4384 233.611 90.2984 234.155 90.2984C234.627 90.2984 235.047 90.4064 235.415 90.6224C235.783 90.8304 236.063 91.0904 236.255 91.4024H236.303L236.255 90.5504V88.0184H237.275V96.6104H236.303V95.7104H236.255C236.063 96.0144 235.783 96.2744 235.415 96.4904C235.047 96.6984 234.627 96.8024 234.155 96.8024ZM234.275 95.8784C234.635 95.8784 234.967 95.7824 235.271 95.5904C235.583 95.3984 235.831 95.1264 236.015 94.7744C236.207 94.4224 236.303 94.0144 236.303 93.5504C236.303 93.0864 236.207 92.6784 236.015 92.3264C235.831 91.9744 235.583 91.7024 235.271 91.5104C234.967 91.3184 234.635 91.2224 234.275 91.2224C233.923 91.2224 233.591 91.3184 233.279 91.5104C232.967 91.7024 232.715 91.9784 232.523 92.3384C232.339 92.6904 232.247 93.0944 232.247 93.5504C232.247 94.0064 232.339 94.4144 232.523 94.7744C232.715 95.1264 232.967 95.3984 233.279 95.5904C233.591 95.7824 233.923 95.8784 234.275 95.8784ZM238.781 88.0184H239.801V90.5504L239.753 91.3904H239.801C239.969 91.0784 240.233 90.8184 240.593 90.6104C240.961 90.4024 241.361 90.2984 241.793 90.2984C242.537 90.2984 243.105 90.5184 243.497 90.9584C243.889 91.3904 244.085 91.9664 244.085 92.6864V96.6104H243.065V92.8424C243.065 92.2904 242.925 91.8824 242.645 91.6184C242.365 91.3544 242.001 91.2224 241.553 91.2224C241.233 91.2224 240.937 91.3184 240.665 91.5104C240.401 91.7024 240.189 91.9504 240.029 92.2544C239.877 92.5584 239.801 92.8744 239.801 93.2024V96.6104H238.781V88.0184ZM247.452 96.8024C247.004 96.8024 246.604 96.7144 246.252 96.5384C245.9 96.3624 245.628 96.1224 245.436 95.8184C245.244 95.5064 245.148 95.1544 245.148 94.7624C245.148 94.1144 245.392 93.6104 245.88 93.2504C246.368 92.8824 246.984 92.6984 247.728 92.6984C248.096 92.6984 248.436 92.7384 248.748 92.8184C249.068 92.8984 249.312 92.9904 249.48 93.0944V92.7224C249.48 92.2664 249.32 91.9024 249 91.6304C248.68 91.3504 248.276 91.2104 247.788 91.2104C247.444 91.2104 247.128 91.2864 246.84 91.4384C246.552 91.5824 246.324 91.7864 246.156 92.0504L245.388 91.4744C245.628 91.1064 245.956 90.8184 246.372 90.6104C246.796 90.4024 247.264 90.2984 247.776 90.2984C248.608 90.2984 249.26 90.5184 249.732 90.9584C250.212 91.3904 250.452 91.9824 250.452 92.7344V96.6104H249.48V95.7344H249.432C249.256 96.0304 248.992 96.2824 248.64 96.4904C248.288 96.6984 247.892 96.8024 247.452 96.8024ZM247.548 95.9024C247.892 95.9024 248.212 95.8144 248.508 95.6384C248.804 95.4624 249.04 95.2264 249.216 94.9304C249.392 94.6344 249.48 94.3104 249.48 93.9584C249.288 93.8304 249.052 93.7264 248.772 93.6464C248.492 93.5664 248.196 93.5264 247.884 93.5264C247.324 93.5264 246.9 93.6424 246.612 93.8744C246.332 94.1064 246.192 94.4064 246.192 94.7744C246.192 95.1104 246.32 95.3824 246.576 95.5904C246.832 95.7984 247.156 95.9024 247.548 95.9024Z" fill="#616161"/>
</svg>
