<svg width="304" height="120" viewBox="0 0 304 120" fill="none" xmlns="http://www.w3.org/2000/svg">
<rect width="304" height="120" rx="6" fill="#282828"/>
<path d="M131.636 40.3618H136.563C137.38 40.3618 138.137 40.5458 138.832 40.9138C139.527 41.2818 140.079 41.7997 140.488 42.4676C140.911 43.1218 141.122 43.8646 141.122 44.696C141.122 45.5274 140.911 46.277 140.488 46.9449C140.079 47.5991 139.527 48.1102 138.832 48.4782C138.137 48.8462 137.38 49.0302 136.563 49.0302H133.353V55H131.636V40.3618ZM136.604 47.3742C137.149 47.3742 137.626 47.2447 138.035 46.9858C138.457 46.7268 138.784 46.3929 139.016 45.984C139.248 45.5751 139.364 45.1458 139.364 44.696C139.364 44.2462 139.248 43.8169 139.016 43.408C138.784 42.9991 138.457 42.6652 138.035 42.4062C137.626 42.1473 137.149 42.0178 136.604 42.0178H133.353V47.3742H136.604ZM147.153 55.3271C146.131 55.3271 145.211 55.0818 144.393 54.5911C143.575 54.1004 142.935 53.4326 142.471 52.5876C142.022 51.7425 141.797 50.8089 141.797 49.7867C141.797 48.7644 142.022 47.8308 142.471 46.9858C142.935 46.1407 143.575 45.4729 144.393 44.9822C145.211 44.4916 146.131 44.2462 147.153 44.2462C148.175 44.2462 149.095 44.4916 149.913 44.9822C150.731 45.4729 151.365 46.1407 151.815 46.9858C152.278 47.8308 152.51 48.7644 152.51 49.7867C152.51 50.8089 152.278 51.7425 151.815 52.5876C151.365 53.4326 150.731 54.1004 149.913 54.5911C149.095 55.0818 148.175 55.3271 147.153 55.3271ZM147.153 53.7529C147.794 53.7529 148.387 53.5961 148.932 53.2827C149.491 52.9556 149.934 52.4921 150.261 51.8924C150.602 51.2927 150.772 50.5908 150.772 49.7867C150.772 48.9825 150.602 48.2806 150.261 47.6809C149.934 47.0812 149.491 46.6246 148.932 46.3111C148.387 45.984 147.794 45.8204 147.153 45.8204C146.513 45.8204 145.913 45.984 145.354 46.3111C144.795 46.6246 144.346 47.0812 144.005 47.6809C143.678 48.2806 143.514 48.9825 143.514 49.7867C143.514 50.5908 143.678 51.2927 144.005 51.8924C144.346 52.4921 144.795 52.9556 145.354 53.2827C145.913 53.5961 146.513 53.7529 147.153 53.7529ZM154.428 40.3618H156.166V55H154.428V40.3618ZM161.93 54.3458L157.616 44.5733H159.497L162.768 52.3218H162.809L165.957 44.5733H167.838L161.398 59.416H159.599L161.93 54.3458ZM173.462 59.7431C172.236 59.7431 171.22 59.4569 170.416 58.8844C169.625 58.312 169.094 57.6237 168.821 56.8196L170.396 56.1449C170.627 56.7446 171.009 57.2284 171.54 57.5964C172.086 57.9781 172.726 58.1689 173.462 58.1689C174.539 58.1689 175.37 57.8554 175.956 57.2284C176.556 56.6015 176.856 55.7156 176.856 54.5707V53.4053H176.774C176.433 53.9369 175.95 54.373 175.323 54.7138C174.709 55.0409 174.007 55.2044 173.217 55.2044C172.317 55.2044 171.493 54.9727 170.743 54.5093C170.007 54.0459 169.421 53.3985 168.985 52.5671C168.549 51.7357 168.331 50.7884 168.331 49.7253C168.331 48.6759 168.549 47.7354 168.985 46.904C169.421 46.059 170.007 45.4047 170.743 44.9413C171.493 44.4779 172.317 44.2462 173.217 44.2462C174.007 44.2462 174.709 44.4166 175.323 44.7573C175.95 45.0844 176.433 45.5206 176.774 46.0658H176.856V44.5733H178.512V54.5911C178.512 56.2676 178.049 57.5419 177.122 58.4142C176.195 59.3001 174.975 59.7431 173.462 59.7431ZM173.462 53.6302C174.089 53.6302 174.655 53.4735 175.159 53.16C175.677 52.8465 176.086 52.3967 176.386 51.8107C176.699 51.2246 176.856 50.5295 176.856 49.7253C176.856 48.9076 176.699 48.2056 176.386 47.6196C176.086 47.0335 175.677 46.5905 175.159 46.2907C174.655 45.9772 174.089 45.8204 173.462 45.8204C172.835 45.8204 172.263 45.9772 171.745 46.2907C171.227 46.6041 170.811 47.0539 170.498 47.64C170.198 48.2261 170.048 48.9212 170.048 49.7253C170.048 50.5295 170.198 51.2314 170.498 51.8311C170.811 52.4172 171.227 52.867 171.745 53.1804C172.263 53.4803 172.835 53.6302 173.462 53.6302ZM185.786 55.3271C184.764 55.3271 183.844 55.0818 183.026 54.5911C182.208 54.1004 181.568 53.4326 181.104 52.5876C180.654 51.7425 180.43 50.8089 180.43 49.7867C180.43 48.7644 180.654 47.8308 181.104 46.9858C181.568 46.1407 182.208 45.4729 183.026 44.9822C183.844 44.4916 184.764 44.2462 185.786 44.2462C186.808 44.2462 187.728 44.4916 188.546 44.9822C189.364 45.4729 189.998 46.1407 190.447 46.9858C190.911 47.8308 191.142 48.7644 191.142 49.7867C191.142 50.8089 190.911 51.7425 190.447 52.5876C189.998 53.4326 189.364 54.1004 188.546 54.5911C187.728 55.0818 186.808 55.3271 185.786 55.3271ZM185.786 53.7529C186.427 53.7529 187.02 53.5961 187.565 53.2827C188.124 52.9556 188.566 52.4921 188.894 51.8924C189.234 51.2927 189.405 50.5908 189.405 49.7867C189.405 48.9825 189.234 48.2806 188.894 47.6809C188.566 47.0812 188.124 46.6246 187.565 46.3111C187.02 45.984 186.427 45.8204 185.786 45.8204C185.145 45.8204 184.546 45.984 183.987 46.3111C183.428 46.6246 182.978 47.0812 182.638 47.6809C182.31 48.2806 182.147 48.9825 182.147 49.7867C182.147 50.5908 182.31 51.2927 182.638 51.8924C182.978 52.4921 183.428 52.9556 183.987 53.2827C184.546 53.5961 185.145 53.7529 185.786 53.7529ZM192.961 44.5733H194.617V46.1067H194.699C194.985 45.5887 195.441 45.1526 196.068 44.7982C196.695 44.4302 197.363 44.2462 198.072 44.2462C199.326 44.2462 200.28 44.6142 200.934 45.3502C201.602 46.0726 201.936 47.0607 201.936 48.3147V55H200.198V48.5804C200.198 47.6127 199.966 46.9108 199.503 46.4747C199.04 46.0385 198.406 45.8204 197.602 45.8204C197.043 45.8204 196.539 45.9772 196.089 46.2907C195.653 46.6041 195.312 47.0199 195.067 47.5378C194.821 48.0421 194.699 48.5736 194.699 49.1324V55H192.961V44.5733ZM215.99 55.3271C214.614 55.3271 213.346 54.9932 212.187 54.3253C211.029 53.6575 210.109 52.7375 209.427 51.5653C208.746 50.3932 208.405 49.0984 208.405 47.6809C208.405 46.2634 208.746 44.9686 209.427 43.7964C210.109 42.6243 211.029 41.7043 212.187 41.0364C213.346 40.3686 214.614 40.0347 215.99 40.0347C217.067 40.0347 218.075 40.2255 219.016 40.6071C219.97 40.9887 220.754 41.5271 221.367 42.2222L220.12 43.4693C219.657 42.8969 219.064 42.4607 218.341 42.1609C217.619 41.8474 216.842 41.6907 216.011 41.6907C214.975 41.6907 214.007 41.9428 213.107 42.4471C212.222 42.9378 211.506 43.6397 210.961 44.5529C210.429 45.4524 210.163 46.4951 210.163 47.6809C210.163 48.8667 210.429 49.9161 210.961 50.8293C211.506 51.7289 212.228 52.4308 213.128 52.9351C214.027 53.4258 214.988 53.6711 216.011 53.6711C216.992 53.6711 217.81 53.5212 218.464 53.2213C219.132 52.9079 219.704 52.499 220.181 51.9947C220.536 51.613 220.822 51.1564 221.04 50.6249C221.258 50.0797 221.394 49.48 221.449 48.8258H216.031V47.2107H223.064C223.132 47.5923 223.166 47.9467 223.166 48.2738C223.166 49.1733 223.023 50.0524 222.737 50.9111C222.451 51.7561 221.994 52.499 221.367 53.1396C220.018 54.5979 218.225 55.3271 215.99 55.3271ZM229.187 55.3271C227.933 55.3271 226.972 54.9591 226.304 54.2231C225.65 53.4871 225.323 52.4581 225.323 51.136V44.5733H227.06V50.8702C227.06 51.8652 227.285 52.5944 227.735 53.0578C228.185 53.5212 228.791 53.7529 229.555 53.7529C230.141 53.7529 230.659 53.5961 231.108 53.2827C231.572 52.9692 231.926 52.5603 232.171 52.056C232.43 51.5517 232.56 51.0201 232.56 50.4613V44.5733H234.298V55H232.642V53.4871H232.56C232.274 54.005 231.817 54.4412 231.19 54.7956C230.563 55.1499 229.895 55.3271 229.187 55.3271ZM237.887 42.6516C237.546 42.6516 237.253 42.5289 237.008 42.2836C236.762 42.0382 236.64 41.7452 236.64 41.4044C236.64 41.0637 236.762 40.7775 237.008 40.5458C237.253 40.3004 237.546 40.1778 237.887 40.1778C238.227 40.1778 238.52 40.3004 238.766 40.5458C239.011 40.7775 239.134 41.0637 239.134 41.4044C239.134 41.7452 239.011 42.0382 238.766 42.2836C238.534 42.5289 238.241 42.6516 237.887 42.6516ZM237.028 44.5733H238.745V55H237.028V44.5733ZM241.476 40.3618H243.214V55H241.476V40.3618ZM250.105 55.3271C249.178 55.3271 248.333 55.0886 247.57 54.6116C246.82 54.1345 246.227 53.4803 245.791 52.6489C245.355 51.8039 245.137 50.8498 245.137 49.7867C245.137 48.7372 245.355 47.7899 245.791 46.9449C246.227 46.0999 246.82 45.4388 247.57 44.9618C248.333 44.4847 249.178 44.2462 250.105 44.2462C250.909 44.2462 251.625 44.4302 252.252 44.7982C252.879 45.1526 253.356 45.5956 253.683 46.1271H253.765L253.683 44.6756V40.3618H255.421V55H253.765V53.4667H253.683C253.356 53.9846 252.879 54.4276 252.252 54.7956C251.625 55.1499 250.909 55.3271 250.105 55.3271ZM250.309 53.7529C250.923 53.7529 251.488 53.5893 252.006 53.2622C252.538 52.9351 252.96 52.4717 253.274 51.872C253.601 51.2723 253.765 50.5772 253.765 49.7867C253.765 48.9961 253.601 48.301 253.274 47.7013C252.96 47.1016 252.538 46.6382 252.006 46.3111C251.488 45.984 250.923 45.8204 250.309 45.8204C249.71 45.8204 249.144 45.984 248.613 46.3111C248.081 46.6382 247.652 47.1084 247.325 47.7218C247.011 48.3215 246.854 49.0098 246.854 49.7867C246.854 50.5636 247.011 51.2587 247.325 51.872C247.652 52.4717 248.081 52.9351 248.613 53.2622C249.144 53.5893 249.71 53.7529 250.309 53.7529Z" fill="white"/>
<path d="M131.257 65.8548H133.665L138.081 73.2148H138.203L138.081 71.0988V65.8548H140.135V76.8335H137.958L133.297 69.0595H133.174L133.297 71.1755V76.8335H131.257V65.8548ZM144.529 77.0788C143.701 77.0788 143.021 76.8386 142.49 76.3582C141.958 75.8675 141.692 75.2286 141.692 74.4415C141.692 73.9202 141.83 73.4602 142.106 73.0615C142.382 72.6628 142.76 72.3562 143.241 72.1415C143.721 71.9268 144.253 71.8195 144.836 71.8195C145.643 71.8195 146.333 71.9371 146.906 72.1722V71.8348C146.906 71.4055 146.742 71.0579 146.415 70.7922C146.098 70.5264 145.669 70.3935 145.127 70.3935C144.759 70.3935 144.401 70.4804 144.054 70.6542C143.716 70.8177 143.435 71.0375 143.21 71.3135L141.922 70.3015C142.3 69.8108 142.776 69.4326 143.348 69.1668C143.921 68.9011 144.544 68.7682 145.219 68.7682C146.415 68.7682 147.325 69.0442 147.948 69.5962C148.572 70.1482 148.884 70.9557 148.884 72.0188V76.8335H146.906V76.0362H146.783C146.548 76.3428 146.236 76.5933 145.848 76.7875C145.469 76.9817 145.03 77.0788 144.529 77.0788ZM145.004 75.5148C145.587 75.5148 146.047 75.3308 146.384 74.9628C146.732 74.5846 146.906 74.1451 146.906 73.6442C146.384 73.3988 145.837 73.2762 145.265 73.2762C144.222 73.2762 143.701 73.6646 143.701 74.4415C143.701 74.7584 143.813 75.0191 144.038 75.2235C144.263 75.4177 144.585 75.5148 145.004 75.5148ZM154.26 80.3908C153.269 80.3908 152.446 80.1659 151.792 79.7162C151.138 79.2766 150.698 78.7451 150.473 78.1215L152.359 77.3548C152.523 77.7433 152.773 78.0499 153.11 78.2748C153.448 78.4997 153.831 78.6122 154.26 78.6122C154.894 78.6122 155.395 78.4179 155.763 78.0295C156.141 77.6411 156.33 77.0891 156.33 76.3735V75.7602H156.208C155.962 76.1077 155.64 76.3735 155.242 76.5575C154.843 76.7415 154.388 76.8335 153.877 76.8335C153.233 76.8335 152.63 76.6699 152.068 76.3428C151.516 76.0055 151.071 75.5353 150.734 74.9322C150.396 74.3188 150.228 73.6084 150.228 72.8008C150.228 71.9933 150.396 71.2879 150.734 70.6848C151.071 70.0715 151.516 69.6013 152.068 69.2742C152.63 68.9368 153.233 68.7682 153.877 68.7682C154.388 68.7682 154.843 68.8602 155.242 69.0442C155.64 69.2282 155.962 69.4939 156.208 69.8415H156.33V69.0135H158.262V76.2968C158.262 77.1351 158.099 77.8608 157.772 78.4742C157.445 79.0875 156.98 79.5577 156.376 79.8848C155.773 80.2222 155.068 80.3908 154.26 80.3908ZM154.291 75.0088C154.853 75.0088 155.334 74.8146 155.732 74.4262C156.131 74.0275 156.33 73.4857 156.33 72.8008C156.33 72.0955 156.131 71.5537 155.732 71.1755C155.344 70.7871 154.864 70.5928 154.291 70.5928C153.719 70.5928 153.233 70.7871 152.834 71.1755C152.436 71.5639 152.236 72.1057 152.236 72.8008C152.236 73.4959 152.436 74.0377 152.834 74.4262C153.233 74.8146 153.719 75.0088 154.291 75.0088ZM160.164 69.0135H162.05V69.9642H162.173C162.387 69.6268 162.699 69.3457 163.108 69.1208C163.517 68.8857 163.987 68.7682 164.519 68.7682C165.224 68.7682 165.863 68.9471 166.435 69.3048C167.018 69.6524 167.473 70.1431 167.8 70.7768C168.127 71.4106 168.291 72.1262 168.291 72.9235C168.291 73.7311 168.127 74.4517 167.8 75.0855C167.473 75.7091 167.018 76.1997 166.435 76.5575C165.863 76.9051 165.224 77.0788 164.519 77.0788C163.987 77.0788 163.512 76.9664 163.093 76.7415C162.684 76.5166 162.377 76.2355 162.173 75.8982H162.05L162.173 77.0022V80.1455H160.164V69.0135ZM164.166 75.2235C164.544 75.2235 164.897 75.1264 165.224 74.9322C165.551 74.7379 165.812 74.4671 166.006 74.1195C166.2 73.7719 166.297 73.3733 166.297 72.9235C166.297 72.4737 166.2 72.0751 166.006 71.7275C165.812 71.3799 165.551 71.1142 165.224 70.9302C164.897 70.7359 164.544 70.6388 164.166 70.6388C163.798 70.6388 163.451 70.7359 163.123 70.9302C162.796 71.1142 162.536 71.3799 162.341 71.7275C162.147 72.0751 162.05 72.4737 162.05 72.9235C162.05 73.3733 162.147 73.7719 162.341 74.1195C162.536 74.4671 162.796 74.7379 163.123 74.9322C163.451 75.1264 163.798 75.2235 164.166 75.2235ZM172.585 77.0788C171.645 77.0788 170.929 76.7875 170.439 76.2048C169.948 75.6222 169.703 74.8095 169.703 73.7668V69.0135H171.711V73.5215C171.711 74.0531 171.839 74.4722 172.095 74.7788C172.35 75.0753 172.687 75.2235 173.107 75.2235C173.679 75.2235 174.134 75.0139 174.471 74.5948C174.809 74.1757 174.977 73.6442 174.977 73.0002V69.0135H176.986V76.8335H175.1V75.8522H174.977C174.742 76.2304 174.41 76.5319 173.981 76.7568C173.561 76.9715 173.096 77.0788 172.585 77.0788ZM178.943 69.0135H180.829V70.0562H180.952C181.146 69.6882 181.447 69.3866 181.856 69.1515C182.265 68.9062 182.715 68.7835 183.206 68.7835C183.563 68.7835 183.89 68.8397 184.187 68.9522V70.9608C183.911 70.8586 183.676 70.7871 183.482 70.7462C183.298 70.6951 183.098 70.6695 182.884 70.6695C182.291 70.6695 181.82 70.8842 181.473 71.3135C181.125 71.7428 180.952 72.2846 180.952 72.9388V76.8335H178.943V69.0135Z" fill="white"/>
<ellipse cx="88.4179" cy="57.8578" rx="14.9297" ry="14.6322" fill="#8248E5"/>
<path d="M116.993 57.7932C116.993 73.2079 104.241 85.7138 88.4988 85.7138C72.7566 85.7138 60.0048 73.2079 60.0048 57.7932C60.0048 42.3784 72.7566 29.8725 88.4988 29.8725C104.241 29.8725 116.993 42.3784 116.993 57.7932Z" stroke="white" stroke-width="0.572136"/>
<path d="M109.618 57.7932C109.618 69.2161 100.168 78.4859 88.4989 78.4859C76.8297 78.4859 67.3798 69.2161 67.3798 57.7932C67.3798 46.3704 76.8297 37.1005 88.4989 37.1005C100.168 37.1005 109.618 46.3704 109.618 57.7932Z" stroke="white" stroke-width="0.572136"/>
<ellipse cx="88.498" cy="29.7629" rx="1.79875" ry="1.76292" fill="#8248E5"/>
<ellipse cx="100.91" cy="82.6511" rx="1.79875" ry="1.76292" fill="#8248E5"/>
<ellipse cx="110.623" cy="39.988" rx="1.79875" ry="1.76292" fill="#8248E5"/>
<ellipse cx="66.3749" cy="39.988" rx="1.79875" ry="1.76292" fill="#8248E5"/>
<ellipse cx="60.7988" cy="63.2585" rx="1.79875" ry="1.76292" fill="#8248E5"/>
<ellipse cx="116.201" cy="63.2585" rx="1.79875" ry="1.76292" fill="#8248E5"/>
<ellipse cx="76.0878" cy="82.6511" rx="1.79875" ry="1.76292" fill="#8248E5"/>
<ellipse cx="88.5017" cy="36.8147" rx="1.61888" ry="1.58663" fill="#8248E5"/>
<ellipse cx="88.5017" cy="78.5959" rx="1.61888" ry="1.58663" fill="#8248E5"/>
<path d="M95.8305 58.147V61.3985C95.8293 61.6013 95.7746 61.8003 95.6718 61.9761C95.569 62.1518 95.4216 62.2983 95.244 62.4013L92.3802 64.0237C92.2029 64.1276 92.0002 64.1825 91.7937 64.1825C91.5872 64.1825 91.3846 64.1276 91.2072 64.0237L88.3434 62.4013C88.1658 62.2983 88.0184 62.1518 87.9156 61.9761C87.8128 61.8003 87.7581 61.6013 87.7569 61.3985V60.486L89.2232 59.6489V61.2352L91.7891 62.6998L94.3551 61.2352V58.3126L91.7891 56.848L85.7775 60.273C85.5985 60.3722 85.3965 60.4244 85.191 60.4244C84.9855 60.4244 84.7835 60.3722 84.6045 60.273L81.7407 58.6439C81.5658 58.5394 81.4213 58.3923 81.3209 58.2169C81.2206 58.0414 81.1679 57.8436 81.168 57.6423V54.3907C81.1692 54.188 81.2238 53.989 81.3266 53.8132C81.4294 53.6375 81.5769 53.491 81.7545 53.388L84.6182 51.7656C84.796 51.6627 84.9985 51.6084 85.2047 51.6084C85.411 51.6084 85.6135 51.6627 85.7913 51.7656L88.655 53.388C88.8326 53.491 88.98 53.6375 89.0828 53.8132C89.1857 53.989 89.2403 54.188 89.2415 54.3907V55.3033L87.7661 56.1348V54.5575L85.2002 53.0929L82.6342 54.5575V57.4767L85.2002 58.9413L91.2118 55.5163C91.3908 55.4171 91.5928 55.365 91.7983 55.365C92.0038 55.365 92.2058 55.4171 92.3848 55.5163L95.2486 57.1454C95.4252 57.2488 95.5716 57.3954 95.6735 57.5709C95.7755 57.7464 95.8296 57.9449 95.8305 58.147Z" fill="white"/>
</svg>
