<svg width="304" height="120" viewBox="0 0 304 120" fill="none" xmlns="http://www.w3.org/2000/svg">
<rect width="304" height="120" rx="6" fill="#E8EAED"/>
<path d="M120.636 43.3618H125.563C126.38 43.3618 127.137 43.5458 127.832 43.9138C128.527 44.2818 129.079 44.7997 129.488 45.4676C129.911 46.1218 130.122 46.8646 130.122 47.696C130.122 48.5274 129.911 49.277 129.488 49.9449C129.079 50.5991 128.527 51.1102 127.832 51.4782C127.137 51.8462 126.38 52.0302 125.563 52.0302H122.353V58H120.636V43.3618ZM125.604 50.3742C126.149 50.3742 126.626 50.2447 127.035 49.9858C127.457 49.7268 127.784 49.3929 128.016 48.984C128.248 48.5751 128.364 48.1458 128.364 47.696C128.364 47.2462 128.248 46.8169 128.016 46.408C127.784 45.9991 127.457 45.6652 127.035 45.4062C126.626 45.1473 126.149 45.0178 125.604 45.0178H122.353V50.3742H125.604ZM132.167 43.3618H133.905V58H132.167V43.3618ZM141.184 58.3271C140.162 58.3271 139.242 58.0818 138.424 57.5911C137.607 57.1004 136.966 56.4326 136.503 55.5876C136.053 54.7425 135.828 53.8089 135.828 52.7867C135.828 51.7644 136.053 50.8308 136.503 49.9858C136.966 49.1407 137.607 48.4729 138.424 47.9822C139.242 47.4916 140.162 47.2462 141.184 47.2462C142.207 47.2462 143.127 47.4916 143.944 47.9822C144.762 48.4729 145.396 49.1407 145.846 49.9858C146.309 50.8308 146.541 51.7644 146.541 52.7867C146.541 53.8089 146.309 54.7425 145.846 55.5876C145.396 56.4326 144.762 57.1004 143.944 57.5911C143.127 58.0818 142.207 58.3271 141.184 58.3271ZM141.184 56.7529C141.825 56.7529 142.418 56.5961 142.963 56.2827C143.522 55.9556 143.965 55.4921 144.292 54.8924C144.633 54.2927 144.803 53.5908 144.803 52.7867C144.803 51.9825 144.633 51.2806 144.292 50.6809C143.965 50.0812 143.522 49.6246 142.963 49.3111C142.418 48.984 141.825 48.8204 141.184 48.8204C140.544 48.8204 139.944 48.984 139.385 49.3111C138.827 49.6246 138.377 50.0812 138.036 50.6809C137.709 51.2806 137.545 51.9825 137.545 52.7867C137.545 53.5908 137.709 54.2927 138.036 54.8924C138.377 55.4921 138.827 55.9556 139.385 56.2827C139.944 56.5961 140.544 56.7529 141.184 56.7529ZM151.349 57.3458L147.035 47.5733H148.916L152.187 55.3218H152.228L155.376 47.5733H157.257L150.817 62.416H149.018L151.349 57.3458ZM162.881 62.7431C161.655 62.7431 160.639 62.4569 159.835 61.8844C159.045 61.312 158.513 60.6237 158.241 59.8196L159.815 59.1449C160.046 59.7446 160.428 60.2284 160.96 60.5964C161.505 60.9781 162.145 61.1689 162.881 61.1689C163.958 61.1689 164.79 60.8554 165.376 60.2284C165.975 59.6015 166.275 58.7156 166.275 57.5707V56.4053H166.193C165.853 56.9369 165.369 57.373 164.742 57.7138C164.129 58.0409 163.427 58.2044 162.636 58.2044C161.737 58.2044 160.912 57.9727 160.162 57.5093C159.426 57.0459 158.84 56.3985 158.404 55.5671C157.968 54.7357 157.75 53.7884 157.75 52.7253C157.75 51.6759 157.968 50.7354 158.404 49.904C158.84 49.059 159.426 48.4047 160.162 47.9413C160.912 47.4779 161.737 47.2462 162.636 47.2462C163.427 47.2462 164.129 47.4166 164.742 47.7573C165.369 48.0844 165.853 48.5206 166.193 49.0658H166.275V47.5733H167.931V57.5911C167.931 59.2676 167.468 60.5419 166.541 61.4142C165.614 62.3001 164.394 62.7431 162.881 62.7431ZM162.881 56.6302C163.508 56.6302 164.074 56.4735 164.578 56.16C165.096 55.8465 165.505 55.3967 165.805 54.8107C166.118 54.2246 166.275 53.5295 166.275 52.7253C166.275 51.9076 166.118 51.2056 165.805 50.6196C165.505 50.0335 165.096 49.5905 164.578 49.2907C164.074 48.9772 163.508 48.8204 162.881 48.8204C162.254 48.8204 161.682 48.9772 161.164 49.2907C160.646 49.6041 160.23 50.0539 159.917 50.64C159.617 51.2261 159.467 51.9212 159.467 52.7253C159.467 53.5295 159.617 54.2314 159.917 54.8311C160.23 55.4172 160.646 55.867 161.164 56.1804C161.682 56.4803 162.254 56.6302 162.881 56.6302ZM175.205 58.3271C174.183 58.3271 173.263 58.0818 172.445 57.5911C171.628 57.1004 170.987 56.4326 170.524 55.5876C170.074 54.7425 169.849 53.8089 169.849 52.7867C169.849 51.7644 170.074 50.8308 170.524 49.9858C170.987 49.1407 171.628 48.4729 172.445 47.9822C173.263 47.4916 174.183 47.2462 175.205 47.2462C176.228 47.2462 177.148 47.4916 177.965 47.9822C178.783 48.4729 179.417 49.1407 179.867 49.9858C180.33 50.8308 180.562 51.7644 180.562 52.7867C180.562 53.8089 180.33 54.7425 179.867 55.5876C179.417 56.4326 178.783 57.1004 177.965 57.5911C177.148 58.0818 176.228 58.3271 175.205 58.3271ZM175.205 56.7529C175.846 56.7529 176.439 56.5961 176.984 56.2827C177.543 55.9556 177.986 55.4921 178.313 54.8924C178.654 54.2927 178.824 53.5908 178.824 52.7867C178.824 51.9825 178.654 51.2806 178.313 50.6809C177.986 50.0812 177.543 49.6246 176.984 49.3111C176.439 48.984 175.846 48.8204 175.205 48.8204C174.565 48.8204 173.965 48.984 173.406 49.3111C172.847 49.6246 172.398 50.0812 172.057 50.6809C171.73 51.2806 171.566 51.9825 171.566 52.7867C171.566 53.5908 171.73 54.2927 172.057 54.8924C172.398 55.4921 172.847 55.9556 173.406 56.2827C173.965 56.5961 174.565 56.7529 175.205 56.7529ZM182.38 47.5733H184.036V49.1067H184.118C184.404 48.5887 184.861 48.1526 185.488 47.7982C186.115 47.4302 186.782 47.2462 187.491 47.2462C188.745 47.2462 189.699 47.6142 190.353 48.3502C191.021 49.0726 191.355 50.0607 191.355 51.3147V58H189.617V51.5804C189.617 50.6127 189.386 49.9108 188.922 49.4747C188.459 49.0385 187.825 48.8204 187.021 48.8204C186.462 48.8204 185.958 48.9772 185.508 49.2907C185.072 49.6041 184.731 50.0199 184.486 50.5378C184.24 51.0421 184.118 51.5736 184.118 52.1324V58H182.38V47.5733ZM205.409 58.3271C204.033 58.3271 202.765 57.9932 201.607 57.3253C200.448 56.6575 199.528 55.7375 198.847 54.5653C198.165 53.3932 197.825 52.0984 197.825 50.6809C197.825 49.2634 198.165 47.9686 198.847 46.7964C199.528 45.6243 200.448 44.7043 201.607 44.0364C202.765 43.3686 204.033 43.0347 205.409 43.0347C206.486 43.0347 207.495 43.2255 208.435 43.6071C209.389 43.9887 210.173 44.5271 210.786 45.2222L209.539 46.4693C209.076 45.8969 208.483 45.4607 207.761 45.1609C207.038 44.8474 206.261 44.6907 205.43 44.6907C204.394 44.6907 203.426 44.9428 202.527 45.4471C201.641 45.9378 200.925 46.6397 200.38 47.5529C199.849 48.4524 199.583 49.4951 199.583 50.6809C199.583 51.8667 199.849 52.9161 200.38 53.8293C200.925 54.7289 201.648 55.4308 202.547 55.9351C203.447 56.4258 204.408 56.6711 205.43 56.6711C206.411 56.6711 207.229 56.5212 207.883 56.2213C208.551 55.9079 209.123 55.499 209.601 54.9947C209.955 54.613 210.241 54.1564 210.459 53.6249C210.677 53.0797 210.814 52.48 210.868 51.8258H205.45V50.2107H212.483C212.551 50.5923 212.585 50.9467 212.585 51.2738C212.585 52.1733 212.442 53.0524 212.156 53.9111C211.87 54.7561 211.413 55.499 210.786 56.1396C209.437 57.5979 207.645 58.3271 205.409 58.3271ZM218.606 58.3271C217.352 58.3271 216.391 57.9591 215.723 57.2231C215.069 56.4871 214.742 55.4581 214.742 54.136V47.5733H216.48V53.8702C216.48 54.8652 216.704 55.5944 217.154 56.0578C217.604 56.5212 218.211 56.7529 218.974 56.7529C219.56 56.7529 220.078 56.5961 220.528 56.2827C220.991 55.9692 221.345 55.5603 221.591 55.056C221.85 54.5517 221.979 54.0201 221.979 53.4613V47.5733H223.717V58H222.061V56.4871H221.979C221.693 57.005 221.236 57.4412 220.609 57.7956C219.982 58.1499 219.315 58.3271 218.606 58.3271ZM227.306 45.6516C226.965 45.6516 226.672 45.5289 226.427 45.2836C226.181 45.0382 226.059 44.7452 226.059 44.4044C226.059 44.0637 226.181 43.7775 226.427 43.5458C226.672 43.3004 226.965 43.1778 227.306 43.1778C227.647 43.1778 227.94 43.3004 228.185 43.5458C228.43 43.7775 228.553 44.0637 228.553 44.4044C228.553 44.7452 228.43 45.0382 228.185 45.2836C227.953 45.5289 227.66 45.6516 227.306 45.6516ZM226.447 47.5733H228.165V58H226.447V47.5733ZM230.896 43.3618H232.633V58H230.896V43.3618ZM239.524 58.3271C238.597 58.3271 237.752 58.0886 236.989 57.6116C236.24 57.1345 235.647 56.4803 235.211 55.6489C234.774 54.8039 234.556 53.8498 234.556 52.7867C234.556 51.7372 234.774 50.7899 235.211 49.9449C235.647 49.0999 236.24 48.4388 236.989 47.9618C237.752 47.4847 238.597 47.2462 239.524 47.2462C240.328 47.2462 241.044 47.4302 241.671 47.7982C242.298 48.1526 242.775 48.5956 243.102 49.1271H243.184L243.102 47.6756V43.3618H244.84V58H243.184V56.4667H243.102C242.775 56.9846 242.298 57.4276 241.671 57.7956C241.044 58.1499 240.328 58.3271 239.524 58.3271ZM239.729 56.7529C240.342 56.7529 240.908 56.5893 241.426 56.2622C241.957 55.9351 242.38 55.4717 242.693 54.872C243.02 54.2723 243.184 53.5772 243.184 52.7867C243.184 51.9961 243.02 51.301 242.693 50.7013C242.38 50.1016 241.957 49.6382 241.426 49.3111C240.908 48.984 240.342 48.8204 239.729 48.8204C239.129 48.8204 238.563 48.984 238.032 49.3111C237.5 49.6382 237.071 50.1084 236.744 50.7218C236.43 51.3215 236.274 52.0098 236.274 52.7867C236.274 53.5636 236.43 54.2587 236.744 54.872C237.071 55.4717 237.5 55.9351 238.032 56.2622C238.563 56.5893 239.129 56.7529 239.729 56.7529Z" fill="#616161"/>
<path d="M120.257 68.8548H122.665L127.081 76.2148H127.203L127.081 74.0988V68.8548H129.135V79.8335H126.958L122.297 72.0595H122.174L122.297 74.1755V79.8335H120.257V68.8548ZM133.529 80.0788C132.701 80.0788 132.021 79.8386 131.49 79.3582C130.958 78.8675 130.692 78.2286 130.692 77.4415C130.692 76.9202 130.83 76.4602 131.106 76.0615C131.382 75.6628 131.76 75.3562 132.241 75.1415C132.721 74.9268 133.253 74.8195 133.836 74.8195C134.643 74.8195 135.333 74.9371 135.906 75.1722V74.8348C135.906 74.4055 135.742 74.0579 135.415 73.7922C135.098 73.5264 134.669 73.3935 134.127 73.3935C133.759 73.3935 133.401 73.4804 133.054 73.6542C132.716 73.8177 132.435 74.0375 132.21 74.3135L130.922 73.3015C131.3 72.8108 131.776 72.4326 132.348 72.1668C132.921 71.9011 133.544 71.7682 134.219 71.7682C135.415 71.7682 136.325 72.0442 136.948 72.5962C137.572 73.1482 137.884 73.9557 137.884 75.0188V79.8335H135.906V79.0362H135.783C135.548 79.3428 135.236 79.5933 134.848 79.7875C134.469 79.9817 134.03 80.0788 133.529 80.0788ZM134.004 78.5148C134.587 78.5148 135.047 78.3308 135.384 77.9628C135.732 77.5846 135.906 77.1451 135.906 76.6442C135.384 76.3988 134.837 76.2762 134.265 76.2762C133.222 76.2762 132.701 76.6646 132.701 77.4415C132.701 77.7584 132.813 78.0191 133.038 78.2235C133.263 78.4177 133.585 78.5148 134.004 78.5148ZM143.26 83.3908C142.269 83.3908 141.446 83.1659 140.792 82.7162C140.138 82.2766 139.698 81.7451 139.473 81.1215L141.359 80.3548C141.523 80.7433 141.773 81.0499 142.11 81.2748C142.448 81.4997 142.831 81.6122 143.26 81.6122C143.894 81.6122 144.395 81.4179 144.763 81.0295C145.141 80.6411 145.33 80.0891 145.33 79.3735V78.7602H145.208C144.962 79.1077 144.64 79.3735 144.242 79.5575C143.843 79.7415 143.388 79.8335 142.877 79.8335C142.233 79.8335 141.63 79.6699 141.068 79.3428C140.516 79.0055 140.071 78.5353 139.734 77.9322C139.396 77.3188 139.228 76.6084 139.228 75.8008C139.228 74.9933 139.396 74.2879 139.734 73.6848C140.071 73.0715 140.516 72.6013 141.068 72.2742C141.63 71.9368 142.233 71.7682 142.877 71.7682C143.388 71.7682 143.843 71.8602 144.242 72.0442C144.64 72.2282 144.962 72.4939 145.208 72.8415H145.33V72.0135H147.262V79.2968C147.262 80.1351 147.099 80.8608 146.772 81.4742C146.445 82.0875 145.98 82.5577 145.376 82.8848C144.773 83.2222 144.068 83.3908 143.26 83.3908ZM143.291 78.0088C143.853 78.0088 144.334 77.8146 144.732 77.4262C145.131 77.0275 145.33 76.4857 145.33 75.8008C145.33 75.0955 145.131 74.5537 144.732 74.1755C144.344 73.7871 143.864 73.5928 143.291 73.5928C142.719 73.5928 142.233 73.7871 141.834 74.1755C141.436 74.5639 141.236 75.1057 141.236 75.8008C141.236 76.4959 141.436 77.0377 141.834 77.4262C142.233 77.8146 142.719 78.0088 143.291 78.0088ZM149.164 72.0135H151.05V72.9642H151.173C151.387 72.6268 151.699 72.3457 152.108 72.1208C152.517 71.8857 152.987 71.7682 153.519 71.7682C154.224 71.7682 154.863 71.9471 155.435 72.3048C156.018 72.6524 156.473 73.1431 156.8 73.7768C157.127 74.4106 157.291 75.1262 157.291 75.9235C157.291 76.7311 157.127 77.4517 156.8 78.0855C156.473 78.7091 156.018 79.1997 155.435 79.5575C154.863 79.9051 154.224 80.0788 153.519 80.0788C152.987 80.0788 152.512 79.9664 152.093 79.7415C151.684 79.5166 151.377 79.2355 151.173 78.8982H151.05L151.173 80.0022V83.1455H149.164V72.0135ZM153.166 78.2235C153.544 78.2235 153.897 78.1264 154.224 77.9322C154.551 77.7379 154.812 77.4671 155.006 77.1195C155.2 76.7719 155.297 76.3733 155.297 75.9235C155.297 75.4737 155.2 75.0751 155.006 74.7275C154.812 74.3799 154.551 74.1142 154.224 73.9302C153.897 73.7359 153.544 73.6388 153.166 73.6388C152.798 73.6388 152.451 73.7359 152.123 73.9302C151.796 74.1142 151.536 74.3799 151.341 74.7275C151.147 75.0751 151.05 75.4737 151.05 75.9235C151.05 76.3733 151.147 76.7719 151.341 77.1195C151.536 77.4671 151.796 77.7379 152.123 77.9322C152.451 78.1264 152.798 78.2235 153.166 78.2235ZM161.585 80.0788C160.645 80.0788 159.929 79.7875 159.439 79.2048C158.948 78.6222 158.703 77.8095 158.703 76.7668V72.0135H160.711V76.5215C160.711 77.0531 160.839 77.4722 161.095 77.7788C161.35 78.0753 161.687 78.2235 162.107 78.2235C162.679 78.2235 163.134 78.0139 163.471 77.5948C163.809 77.1757 163.977 76.6442 163.977 76.0002V72.0135H165.986V79.8335H164.1V78.8522H163.977C163.742 79.2304 163.41 79.5319 162.981 79.7568C162.561 79.9715 162.096 80.0788 161.585 80.0788ZM167.943 72.0135H169.829V73.0562H169.952C170.146 72.6882 170.447 72.3866 170.856 72.1515C171.265 71.9062 171.715 71.7835 172.206 71.7835C172.563 71.7835 172.89 71.8397 173.187 71.9522V73.9608C172.911 73.8586 172.676 73.7871 172.482 73.7462C172.298 73.6951 172.098 73.6695 171.884 73.6695C171.291 73.6695 170.82 73.8842 170.473 74.3135C170.125 74.7428 169.952 75.2846 169.952 75.9388V79.8335H167.943V72.0135Z" fill="#616161"/>
<circle cx="82.4272" cy="62.3672" r="13.4116" fill="#8248E5"/>
<circle cx="82.5002" cy="62.3078" r="25.5676" stroke="black" stroke-width="0.572136"/>
<circle cx="82.5002" cy="62.3078" r="25.5676" stroke="black" stroke-width="0.572136"/>
<circle cx="82.5002" cy="62.3078" r="18.9426" stroke="black" stroke-width="0.572136"/>
<circle cx="82.5002" cy="62.3078" r="18.9426" stroke="black" stroke-width="0.572136"/>
<circle cx="82.4987" cy="36.6159" r="1.61586" fill="#8248E5"/>
<circle cx="93.6491" cy="85.0919" r="1.61586" fill="#8248E5"/>
<circle cx="102.374" cy="45.9879" r="1.61586" fill="#8248E5"/>
<circle cx="62.6256" cy="45.9879" r="1.61586" fill="#8248E5"/>
<circle cx="57.6159" cy="67.317" r="1.61586" fill="#8248E5"/>
<circle cx="107.385" cy="67.317" r="1.61586" fill="#8248E5"/>
<circle cx="71.3502" cy="85.0919" r="1.61586" fill="#8248E5"/>
<circle cx="82.5011" cy="43.0793" r="1.45427" fill="#8248E5"/>
<circle cx="82.5011" cy="81.3752" r="1.45427" fill="#8248E5"/>
<path d="M89.0857 62.6323V65.6126C89.0846 65.7985 89.0355 65.9808 88.9432 66.1419C88.8508 66.303 88.7184 66.4373 88.5588 66.5317L85.9862 68.0187C85.8269 68.114 85.6449 68.1643 85.4594 68.1643C85.2739 68.1643 85.0918 68.114 84.9325 68.0187L82.3599 66.5317C82.2004 66.4373 82.0679 66.303 81.9756 66.1419C81.8833 65.9808 81.8341 65.7985 81.8331 65.6126V64.7761L83.1502 64.0089V65.4629L85.4552 66.8053L87.7603 65.4629V62.7841L85.4552 61.4416L80.0549 64.581C79.8941 64.6719 79.7126 64.7197 79.528 64.7197C79.3434 64.7197 79.162 64.6719 79.0012 64.581L76.4286 63.0877C76.2715 62.9919 76.1416 62.8571 76.0515 62.6963C75.9614 62.5355 75.914 62.3542 75.9141 62.1697V59.1894C75.9151 59.0036 75.9642 58.8212 76.0566 58.6601C76.149 58.499 76.2814 58.3647 76.4409 58.2703L79.0135 56.7833C79.1732 56.6889 79.3551 56.6392 79.5404 56.6392C79.7257 56.6392 79.9076 56.6889 80.0672 56.7833L82.6398 58.2703C82.7994 58.3647 82.9318 58.499 83.0241 58.6601C83.1165 58.8212 83.1656 59.0036 83.1667 59.1894V60.0259L81.8413 60.788V59.3422L79.5363 57.9998L77.2312 59.3422V62.0179L79.5363 63.3603L84.9366 60.221C85.0974 60.1301 85.2789 60.0823 85.4635 60.0823C85.6481 60.0823 85.8295 60.1301 85.9904 60.221L88.5629 61.7143C88.7216 61.8091 88.8531 61.9434 88.9447 62.1043C89.0363 62.2651 89.0849 62.4471 89.0857 62.6323Z" fill="white"/>
</svg>
