<svg width="304" height="120" viewBox="0 0 304 120" fill="none" xmlns="http://www.w3.org/2000/svg">
<rect width="304" height="120" rx="6" fill="#E8EAED"/>
<path d="M34.0871 75.1403C32.9783 75.1403 31.9564 74.874 31.0216 74.3413C30.0867 73.8086 29.342 73.0803 28.7876 72.1563C28.2441 71.2214 27.9723 70.1833 27.9723 69.0418C27.9723 67.9004 28.2441 66.8677 28.7876 65.9437C29.342 65.0088 30.0867 64.275 31.0216 63.7424C31.9564 63.2097 32.9783 62.9434 34.0871 62.9434C34.9676 62.9434 35.7884 63.101 36.5493 63.4163C37.3102 63.7315 37.9462 64.1718 38.4571 64.737L37.1852 66.0089C36.8048 65.585 36.3482 65.2588 35.8155 65.0306C35.2937 64.8023 34.7122 64.6881 34.0708 64.6881C33.3207 64.6881 32.6195 64.8675 31.9673 65.2262C31.3151 65.585 30.7933 66.0959 30.4019 66.759C30.0106 67.4221 29.8149 68.1831 29.8149 69.0418C29.8149 69.9006 30.0106 70.6616 30.4019 71.3247C30.7933 71.9878 31.3151 72.4987 31.9673 72.8574C32.6195 73.2162 33.3261 73.3955 34.0871 73.3955C34.7828 73.3955 35.3644 73.2923 35.8318 73.0857C36.2993 72.8792 36.7178 72.602 37.0874 72.2541C37.3266 72.015 37.5277 71.716 37.6907 71.3573C37.8647 70.9986 37.9788 70.6072 38.0332 70.1833H34.0708V68.5527H39.7616C39.8159 68.857 39.8431 69.1723 39.8431 69.4984C39.8431 70.2376 39.729 70.9496 39.5007 71.6345C39.2724 72.3085 38.9082 72.8955 38.4082 73.3955C37.3102 74.5587 35.8699 75.1403 34.0871 75.1403ZM45.4753 75.1403C44.6383 75.1403 43.8882 74.9501 43.2251 74.5696C42.562 74.1782 42.0456 73.6456 41.676 72.9716C41.3064 72.2976 41.1216 71.5475 41.1216 70.7214C41.1216 69.8952 41.3064 69.1451 41.676 68.4711C42.0456 67.7971 42.562 67.2699 43.2251 66.8894C43.8882 66.4981 44.6383 66.3024 45.4753 66.3024C46.3124 66.3024 47.0624 66.4981 47.7256 66.8894C48.3887 67.2808 48.905 67.8134 49.2746 68.4874C49.6442 69.1614 49.829 69.9061 49.829 70.7214C49.829 71.5475 49.6442 72.2976 49.2746 72.9716C48.905 73.6456 48.3887 74.1782 47.7256 74.5696C47.0624 74.9501 46.3124 75.1403 45.4753 75.1403ZM45.4753 73.4934C45.9319 73.4934 46.3559 73.3847 46.7472 73.1673C47.1385 72.939 47.4484 72.6183 47.6766 72.2052C47.9158 71.7812 48.0354 71.2866 48.0354 70.7214C48.0354 70.1561 47.9158 69.6669 47.6766 69.2538C47.4484 68.8407 47.1385 68.5255 46.7472 68.3081C46.3559 68.0798 45.9319 67.9656 45.4753 67.9656C45.0188 67.9656 44.5948 68.0798 44.2035 68.3081C43.8121 68.5255 43.4969 68.8407 43.2577 69.2538C43.0294 69.6669 42.9153 70.1561 42.9153 70.7214C42.9153 71.2866 43.0294 71.7812 43.2577 72.2052C43.4969 72.6183 43.8121 72.939 44.2035 73.1673C44.5948 73.3847 45.0188 73.4934 45.4753 73.4934ZM55.38 75.1403C54.5429 75.1403 53.7928 74.9501 53.1297 74.5696C52.4666 74.1782 51.9503 73.6456 51.5807 72.9716C51.2111 72.2976 51.0263 71.5475 51.0263 70.7214C51.0263 69.8952 51.2111 69.1451 51.5807 68.4711C51.9503 67.7971 52.4666 67.2699 53.1297 66.8894C53.7928 66.4981 54.5429 66.3024 55.38 66.3024C56.217 66.3024 56.9671 66.4981 57.6302 66.8894C58.2933 67.2808 58.8097 67.8134 59.1793 68.4874C59.5489 69.1614 59.7337 69.9061 59.7337 70.7214C59.7337 71.5475 59.5489 72.2976 59.1793 72.9716C58.8097 73.6456 58.2933 74.1782 57.6302 74.5696C56.9671 74.9501 56.217 75.1403 55.38 75.1403ZM55.38 73.4934C55.8365 73.4934 56.2605 73.3847 56.6518 73.1673C57.0432 72.939 57.353 72.6183 57.5813 72.2052C57.8204 71.7812 57.94 71.2866 57.94 70.7214C57.94 70.1561 57.8204 69.6669 57.5813 69.2538C57.353 68.8407 57.0432 68.5255 56.6518 68.3081C56.2605 68.0798 55.8365 67.9656 55.38 67.9656C54.9234 67.9656 54.4994 68.0798 54.1081 68.3081C53.7167 68.5255 53.4015 68.8407 53.1623 69.2538C52.9341 69.6669 52.8199 70.1561 52.8199 70.7214C52.8199 71.2866 52.9341 71.7812 53.1623 72.2052C53.4015 72.6183 53.7167 72.939 54.1081 73.1673C54.4994 73.3847 54.9234 73.4934 55.38 73.4934ZM65.1378 78.6624C64.116 78.6624 63.2681 78.4287 62.5941 77.9612C61.931 77.4938 61.4853 76.9394 61.257 76.298L62.9365 75.5969C63.1105 76.0317 63.3877 76.3795 63.7681 76.6404C64.1595 76.9122 64.6161 77.0481 65.1378 77.0481C65.8988 77.0481 66.4912 76.8198 66.9152 76.3632C67.35 75.9175 67.5674 75.287 67.5674 74.4717V73.7054H67.4696C67.1978 74.0967 66.8337 74.4065 66.3771 74.6348C65.9314 74.8522 65.4151 74.9609 64.828 74.9609C64.1323 74.9609 63.4855 74.7816 62.8876 74.4228C62.2897 74.0641 61.8114 73.5586 61.4527 72.9064C61.1048 72.2433 60.9309 71.4877 60.9309 70.6398C60.9309 69.7919 61.1048 69.0418 61.4527 68.3896C61.8114 67.7265 62.2897 67.2156 62.8876 66.8568C63.4855 66.4872 64.1323 66.3024 64.828 66.3024C65.4042 66.3024 65.9205 66.4166 66.3771 66.6448C66.8337 66.8731 67.1978 67.1829 67.4696 67.5743H67.5674V66.5633H69.2796V74.4228C69.2796 75.3251 69.1057 76.0915 68.7578 76.722C68.4099 77.3633 67.9207 77.8471 67.2902 78.1732C66.6706 78.4993 65.9532 78.6624 65.1378 78.6624ZM65.1542 73.3303C65.589 73.3303 65.9912 73.2271 66.3608 73.0205C66.7304 72.8031 67.0239 72.4933 67.2413 72.0911C67.4587 71.678 67.5674 71.1942 67.5674 70.6398C67.5674 69.7919 67.3337 69.1342 66.8663 68.6668C66.4097 68.1885 65.839 67.9493 65.1542 67.9493C64.7085 67.9493 64.3008 68.058 63.9312 68.2755C63.5616 68.482 63.2681 68.7864 63.0507 69.1886C62.8333 69.5908 62.7246 70.0746 62.7246 70.6398C62.7246 71.2051 62.8333 71.6888 63.0507 72.0911C63.2681 72.4933 63.5616 72.8031 63.9312 73.0205C64.3008 73.2271 64.7085 73.3303 65.1542 73.3303ZM71.3876 63.2043H73.1813V74.8794H71.3876V63.2043ZM79.0087 75.1403C78.1934 75.1403 77.4596 74.9501 76.8074 74.5696C76.166 74.1891 75.6605 73.6673 75.2909 73.0042C74.9322 72.3302 74.7528 71.5747 74.7528 70.7377C74.7528 69.9441 74.9267 69.2103 75.2746 68.5363C75.6333 67.8515 76.1279 67.308 76.7584 66.9057C77.3889 66.5035 78.1064 66.3024 78.9108 66.3024C79.7479 66.3024 80.4708 66.4872 81.0795 66.8568C81.6992 67.2264 82.1666 67.7319 82.4819 68.3733C82.808 69.0147 82.971 69.7376 82.971 70.542C82.971 70.6942 82.9547 70.8844 82.9221 71.1127H76.5465C76.6117 71.8845 76.8835 72.4824 77.3618 72.9064C77.8509 73.3195 78.4162 73.526 79.0576 73.526C79.5685 73.526 80.0088 73.4119 80.3784 73.1836C80.7589 72.9444 81.0632 72.6237 81.2915 72.2215L82.808 72.939C82.4166 73.6238 81.9057 74.1619 81.2752 74.5533C80.6447 74.9446 79.8892 75.1403 79.0087 75.1403ZM81.1448 69.743C81.123 69.4495 81.0306 69.1614 80.8676 68.8788C80.7045 68.5853 80.4545 68.3407 80.1175 68.145C79.7914 67.9493 79.3892 67.8515 78.9108 67.8515C78.3347 67.8515 77.8455 68.0254 77.4433 68.3733C77.052 68.7103 76.7802 69.1668 76.628 69.743H81.1448ZM88.7197 63.2043H92.4538C93.6604 63.2043 94.7149 63.4489 95.6171 63.938C96.5194 64.4272 97.2097 65.1175 97.688 66.0089C98.1772 66.8894 98.4218 67.9004 98.4218 69.0418C98.4218 70.1833 98.1772 71.1997 97.688 72.0911C97.2097 72.9716 96.5194 73.6564 95.6171 74.1456C94.7149 74.6348 93.6604 74.8794 92.4538 74.8794H88.7197V63.2043ZM92.4212 73.1346C93.7256 73.1346 94.742 72.7759 95.4704 72.0585C96.2096 71.3301 96.5792 70.3246 96.5792 69.0418C96.5792 67.77 96.2096 66.7699 95.4704 66.0415C94.742 65.3132 93.7256 64.949 92.4212 64.949H90.546V73.1346H92.4212ZM103.77 75.1403C102.955 75.1403 102.221 74.9501 101.569 74.5696C100.928 74.1891 100.422 73.6673 100.052 73.0042C99.6938 72.3302 99.5144 71.5747 99.5144 70.7377C99.5144 69.9441 99.6883 69.2103 100.036 68.5363C100.395 67.8515 100.89 67.308 101.52 66.9057C102.151 66.5035 102.868 66.3024 103.672 66.3024C104.509 66.3024 105.232 66.4872 105.841 66.8568C106.461 67.2264 106.928 67.7319 107.243 68.3733C107.57 69.0147 107.733 69.7376 107.733 70.542C107.733 70.6942 107.716 70.8844 107.684 71.1127H101.308C101.373 71.8845 101.645 72.4824 102.123 72.9064C102.613 73.3195 103.178 73.526 103.819 73.526C104.33 73.526 104.77 73.4119 105.14 73.1836C105.52 72.9444 105.825 72.6237 106.053 72.2215L107.57 72.939C107.178 73.6238 106.667 74.1619 106.037 74.5533C105.406 74.9446 104.651 75.1403 103.77 75.1403ZM105.906 69.743C105.885 69.4495 105.792 69.1614 105.629 68.8788C105.466 68.5853 105.216 68.3407 104.879 68.145C104.553 67.9493 104.151 67.8515 103.672 67.8515C103.096 67.8515 102.607 68.0254 102.205 68.3733C101.814 68.7103 101.542 69.1668 101.39 69.743H105.906ZM108.277 66.5633H110.283L112.582 72.5639H112.647L114.995 66.5633H116.952L113.495 74.8794H111.702L108.277 66.5633ZM121.669 75.1403C120.853 75.1403 120.12 74.9501 119.467 74.5696C118.826 74.1891 118.321 73.6673 117.951 73.0042C117.592 72.3302 117.413 71.5747 117.413 70.7377C117.413 69.9441 117.587 69.2103 117.935 68.5363C118.293 67.8515 118.788 67.308 119.418 66.9057C120.049 66.5035 120.766 66.3024 121.571 66.3024C122.408 66.3024 123.131 66.4872 123.74 66.8568C124.359 67.2264 124.827 67.7319 125.142 68.3733C125.468 69.0147 125.631 69.7376 125.631 70.542C125.631 70.6942 125.615 70.8844 125.582 71.1127H119.206C119.272 71.8845 119.543 72.4824 120.022 72.9064C120.511 73.3195 121.076 73.526 121.718 73.526C122.229 73.526 122.669 73.4119 123.038 73.1836C123.419 72.9444 123.723 72.6237 123.952 72.2215L125.468 72.939C125.077 73.6238 124.566 74.1619 123.935 74.5533C123.305 74.9446 122.549 75.1403 121.669 75.1403ZM123.805 69.743C123.783 69.4495 123.691 69.1614 123.528 68.8788C123.365 68.5853 123.114 68.3407 122.777 68.145C122.451 67.9493 122.049 67.8515 121.571 67.8515C120.995 67.8515 120.506 68.0254 120.103 68.3733C119.712 68.7103 119.44 69.1668 119.288 69.743H123.805ZM127.264 63.2043H129.058V74.8794H127.264V63.2043ZM134.983 75.1403C134.146 75.1403 133.396 74.9501 132.733 74.5696C132.07 74.1782 131.554 73.6456 131.184 72.9716C130.814 72.2976 130.63 71.5475 130.63 70.7214C130.63 69.8952 130.814 69.1451 131.184 68.4711C131.554 67.7971 132.07 67.2699 132.733 66.8894C133.396 66.4981 134.146 66.3024 134.983 66.3024C135.82 66.3024 136.57 66.4981 137.234 66.8894C137.897 67.2808 138.413 67.8134 138.783 68.4874C139.152 69.1614 139.337 69.9061 139.337 70.7214C139.337 71.5475 139.152 72.2976 138.783 72.9716C138.413 73.6456 137.897 74.1782 137.234 74.5696C136.57 74.9501 135.82 75.1403 134.983 75.1403ZM134.983 73.4934C135.44 73.4934 135.864 73.3847 136.255 73.1673C136.647 72.939 136.956 72.6183 137.185 72.2052C137.424 71.7812 137.543 71.2866 137.543 70.7214C137.543 70.1561 137.424 69.6669 137.185 69.2538C136.956 68.8407 136.647 68.5255 136.255 68.3081C135.864 68.0798 135.44 67.9656 134.983 67.9656C134.527 67.9656 134.103 68.0798 133.711 68.3081C133.32 68.5255 133.005 68.8407 132.766 69.2538C132.537 69.6669 132.423 70.1561 132.423 70.7214C132.423 71.2866 132.537 71.7812 132.766 72.2052C133.005 72.6183 133.32 72.939 133.711 73.1673C134.103 73.3847 134.527 73.4934 134.983 73.4934ZM140.846 66.5633H142.558V67.6558H142.64C142.879 67.2753 143.232 66.9547 143.7 66.6938C144.167 66.4329 144.694 66.3024 145.281 66.3024C146.031 66.3024 146.711 66.4927 147.319 66.8731C147.928 67.2536 148.407 67.7808 148.754 68.4548C149.113 69.1179 149.293 69.8734 149.293 70.7214C149.293 71.5693 149.113 72.3302 148.754 73.0042C148.407 73.6673 147.928 74.1891 147.319 74.5696C146.711 74.9501 146.031 75.1403 145.281 75.1403C144.694 75.1403 144.167 75.0098 143.7 74.7489C143.232 74.488 142.879 74.1728 142.64 73.8032H142.558L142.64 74.9609V78.4015H140.846V66.5633ZM145.02 73.4934C145.455 73.4934 145.863 73.3792 146.243 73.151C146.624 72.9227 146.928 72.5966 147.156 72.1726C147.385 71.7486 147.499 71.2649 147.499 70.7214C147.499 70.1778 147.385 69.6995 147.156 69.2864C146.928 68.8625 146.624 68.5363 146.243 68.3081C145.863 68.0798 145.455 67.9656 145.02 67.9656C144.586 67.9656 144.178 68.0798 143.797 68.3081C143.428 68.5363 143.129 68.8625 142.901 69.2864C142.672 69.6995 142.558 70.1778 142.558 70.7214C142.558 71.2649 142.672 71.7486 142.901 72.1726C143.129 72.5966 143.428 72.9227 143.797 73.151C144.178 73.3792 144.586 73.4934 145.02 73.4934ZM154.727 75.1403C153.911 75.1403 153.178 74.9501 152.525 74.5696C151.884 74.1891 151.378 73.6673 151.009 73.0042C150.65 72.3302 150.471 71.5747 150.471 70.7377C150.471 69.9441 150.645 69.2103 150.993 68.5363C151.351 67.8515 151.846 67.308 152.476 66.9057C153.107 66.5035 153.824 66.3024 154.629 66.3024C155.466 66.3024 156.189 66.4872 156.797 66.8568C157.417 67.2264 157.885 67.7319 158.2 68.3733C158.526 69.0147 158.689 69.7376 158.689 70.542C158.689 70.6942 158.673 70.8844 158.64 71.1127H152.264C152.33 71.8845 152.601 72.4824 153.08 72.9064C153.569 73.3195 154.134 73.526 154.776 73.526C155.286 73.526 155.727 73.4119 156.096 73.1836C156.477 72.9444 156.781 72.6237 157.009 72.2215L158.526 72.939C158.135 73.6238 157.624 74.1619 156.993 74.5533C156.363 74.9446 155.607 75.1403 154.727 75.1403ZM156.863 69.743C156.841 69.4495 156.749 69.1614 156.586 68.8788C156.422 68.5853 156.172 68.3407 155.835 68.145C155.509 67.9493 155.107 67.8515 154.629 67.8515C154.053 67.8515 153.563 68.0254 153.161 68.3733C152.77 68.7103 152.498 69.1668 152.346 69.743H156.863ZM160.322 66.5633H162.035V67.7863H162.116C162.301 67.3623 162.622 67.0145 163.078 66.7427C163.535 66.46 164.018 66.3187 164.529 66.3187C164.932 66.3187 165.269 66.3731 165.54 66.4818V68.3407C165.062 68.1667 164.633 68.0798 164.252 68.0798C163.839 68.0798 163.469 68.1885 163.143 68.4059C162.828 68.6233 162.578 68.9168 162.393 69.2864C162.208 69.6452 162.116 70.0419 162.116 70.4768V74.8794H160.322V66.5633ZM173.912 75.1403C172.944 75.1403 172.075 74.8577 171.303 74.2924C170.531 73.7271 169.998 72.9335 169.705 71.9117L171.433 71.2105C171.607 71.8519 171.912 72.3791 172.346 72.7922C172.792 73.1944 173.325 73.3955 173.944 73.3955C174.521 73.3955 175.01 73.2488 175.412 72.9553C175.814 72.6509 176.015 72.2378 176.015 71.716C176.015 71.2377 175.836 70.8464 175.477 70.542C175.129 70.2267 174.515 69.9115 173.635 69.5962L172.901 69.3353C172.118 69.0636 171.46 68.6722 170.928 68.1613C170.395 67.6504 170.129 66.9764 170.129 66.1394C170.129 65.5632 170.286 65.0306 170.602 64.5414C170.917 64.0522 171.352 63.6663 171.906 63.3836C172.471 63.0901 173.107 62.9434 173.814 62.9434C174.836 62.9434 175.651 63.1934 176.26 63.6935C176.869 64.1826 177.276 64.737 177.483 65.3567L175.836 66.0578C175.716 65.6882 175.488 65.3621 175.151 65.0795C174.814 64.7968 174.379 64.6555 173.847 64.6555C173.314 64.6555 172.863 64.7914 172.493 65.0632C172.134 65.3349 171.955 65.6828 171.955 66.1067C171.955 66.509 172.118 66.8405 172.444 67.1014C172.77 67.3623 173.281 67.6123 173.977 67.8515L174.711 68.0961C175.711 68.4439 176.483 68.9005 177.026 69.4658C177.581 70.0202 177.858 70.7648 177.858 71.6997C177.858 72.4607 177.662 73.102 177.271 73.6238C176.88 74.1348 176.379 74.5152 175.771 74.7653C175.173 75.0153 174.553 75.1403 173.912 75.1403ZM182.648 75.0098C182.278 75.0098 181.93 74.9501 181.604 74.8305C181.278 74.7109 181.012 74.5533 180.805 74.3576C180.338 73.8902 180.104 73.2542 180.104 72.4498V68.145H178.653V66.5633H180.104V64.2153H181.898V66.5633H183.92V68.145H181.898V72.0585C181.898 72.5041 181.985 72.8194 182.159 73.0042C182.322 73.2216 182.604 73.3303 183.007 73.3303C183.191 73.3303 183.354 73.3086 183.496 73.2651C183.637 73.2107 183.789 73.1292 183.952 73.0205V74.7653C183.594 74.9283 183.159 75.0098 182.648 75.0098ZM188.658 75.1403C187.647 75.1403 186.876 74.8413 186.343 74.2435C185.821 73.6347 185.56 72.7922 185.56 71.716V66.5633H187.354V71.4714C187.354 72.1454 187.511 72.6509 187.827 72.9879C188.153 73.3249 188.577 73.4934 189.099 73.4934C189.523 73.4934 189.898 73.3847 190.224 73.1673C190.55 72.939 190.8 72.64 190.974 72.2704C191.148 71.9008 191.235 71.504 191.235 71.0801V66.5633H193.028V74.8794H191.333V73.8032H191.235C191.006 74.1945 190.653 74.5152 190.175 74.7653C189.696 75.0153 189.191 75.1403 188.658 75.1403ZM198.591 75.1403C197.841 75.1403 197.162 74.9501 196.553 74.5696C195.944 74.1891 195.46 73.6673 195.102 73.0042C194.754 72.3302 194.58 71.5693 194.58 70.7214C194.58 69.8734 194.754 69.1179 195.102 68.4548C195.46 67.7808 195.944 67.2536 196.553 66.8731C197.162 66.4927 197.841 66.3024 198.591 66.3024C199.178 66.3024 199.705 66.4329 200.173 66.6938C200.64 66.9547 200.994 67.2753 201.233 67.6558H201.314L201.233 66.4818V63.2043H203.026V74.8794H201.314V73.8032H201.233C200.994 74.1728 200.64 74.488 200.173 74.7489C199.705 75.0098 199.178 75.1403 198.591 75.1403ZM198.852 73.4934C199.287 73.4934 199.689 73.3792 200.059 73.151C200.439 72.9227 200.744 72.5966 200.972 72.1726C201.2 71.7486 201.314 71.2649 201.314 70.7214C201.314 70.1778 201.2 69.6995 200.972 69.2864C200.744 68.8625 200.439 68.5363 200.059 68.3081C199.689 68.0798 199.287 67.9656 198.852 67.9656C198.417 67.9656 198.01 68.0798 197.629 68.3081C197.249 68.5363 196.944 68.8625 196.716 69.2864C196.488 69.6995 196.374 70.1778 196.374 70.7214C196.374 71.2649 196.488 71.7486 196.716 72.1726C196.944 72.5966 197.249 72.9227 197.629 73.151C198.01 73.3792 198.417 73.4934 198.852 73.4934ZM208.836 75.1403C208.021 75.1403 207.287 74.9501 206.635 74.5696C205.993 74.1891 205.488 73.6673 205.118 73.0042C204.759 72.3302 204.58 71.5747 204.58 70.7377C204.58 69.9441 204.754 69.2103 205.102 68.5363C205.461 67.8515 205.955 67.308 206.586 66.9057C207.216 66.5035 207.934 66.3024 208.738 66.3024C209.575 66.3024 210.298 66.4872 210.907 66.8568C211.526 67.2264 211.994 67.7319 212.309 68.3733C212.635 69.0147 212.798 69.7376 212.798 70.542C212.798 70.6942 212.782 70.8844 212.749 71.1127H206.374C206.439 71.8845 206.711 72.4824 207.189 72.9064C207.678 73.3195 208.243 73.526 208.885 73.526C209.396 73.526 209.836 73.4119 210.206 73.1836C210.586 72.9444 210.89 72.6237 211.119 72.2215L212.635 72.939C212.244 73.6238 211.733 74.1619 211.102 74.5533C210.472 74.9446 209.716 75.1403 208.836 75.1403ZM210.972 69.743C210.95 69.4495 210.858 69.1614 210.695 68.8788C210.532 68.5853 210.282 68.3407 209.945 68.145C209.619 67.9493 209.216 67.8515 208.738 67.8515C208.162 67.8515 207.673 68.0254 207.271 68.3733C206.879 68.7103 206.607 69.1668 206.455 69.743H210.972ZM214.432 66.5633H216.144V67.6558H216.225C216.464 67.2645 216.818 66.9438 217.285 66.6938C217.764 66.4329 218.269 66.3024 218.802 66.3024C219.813 66.3024 220.579 66.6014 221.101 67.1993C221.633 67.7863 221.9 68.5907 221.9 69.6125V74.8794H220.106V69.8571C220.106 69.2049 219.943 68.7266 219.617 68.4222C219.302 68.1178 218.861 67.9656 218.296 67.9656C217.894 67.9656 217.535 68.0798 217.22 68.3081C216.905 68.5255 216.66 68.819 216.486 69.1886C216.312 69.5582 216.225 69.955 216.225 70.3789V74.8794H214.432V66.5633ZM226.916 75.0098C226.547 75.0098 226.199 74.9501 225.873 74.8305C225.547 74.7109 225.28 74.5533 225.074 74.3576C224.606 73.8902 224.372 73.2542 224.372 72.4498V68.145H222.921V66.5633H224.372V64.2153H226.166V66.5633H228.188V68.145H226.166V72.0585C226.166 72.5041 226.253 72.8194 226.427 73.0042C226.59 73.2216 226.873 73.3303 227.275 73.3303C227.46 73.3303 227.623 73.3086 227.764 73.2651C227.905 73.2107 228.058 73.1292 228.221 73.0205V74.7653C227.862 74.9283 227.427 75.0098 226.916 75.0098ZM239.202 75.1403C238.071 75.1403 237.039 74.874 236.104 74.3413C235.169 73.8086 234.435 73.0749 233.902 72.14C233.37 71.2051 233.103 70.1724 233.103 69.0418C233.103 67.9113 233.37 66.8786 233.902 65.9437C234.435 65.0088 235.169 64.275 236.104 63.7424C237.039 63.2097 238.071 62.9434 239.202 62.9434C240.082 62.9434 240.881 63.1064 241.599 63.4326C242.327 63.7587 242.969 64.2316 243.523 64.8512L242.219 66.1067C241.816 65.6284 241.371 65.2751 240.881 65.0469C240.392 64.8077 239.832 64.6881 239.202 64.6881C238.419 64.6881 237.702 64.8675 237.05 65.2262C236.408 65.585 235.897 66.0959 235.517 66.759C235.136 67.4112 234.946 68.1722 234.946 69.0418C234.946 69.9115 235.136 70.6779 235.517 71.341C235.897 71.9932 236.408 72.4987 237.05 72.8574C237.702 73.2162 238.419 73.3955 239.202 73.3955C240.506 73.3955 241.615 72.852 242.528 71.7649L243.849 73.0368C243.284 73.6999 242.604 74.2163 241.811 74.5859C241.017 74.9555 240.148 75.1403 239.202 75.1403ZM245.435 63.2043H247.229V74.8794H245.435V63.2043ZM252.37 75.1403C251.359 75.1403 250.587 74.8413 250.054 74.2435C249.532 73.6347 249.272 72.7922 249.272 71.716V66.5633H251.065V71.4714C251.065 72.1454 251.223 72.6509 251.538 72.9879C251.864 73.3249 252.288 73.4934 252.81 73.4934C253.234 73.4934 253.609 73.3847 253.935 73.1673C254.261 72.939 254.511 72.64 254.685 72.2704C254.859 71.9008 254.946 71.504 254.946 71.0801V66.5633H256.74V74.8794H255.044V73.8032H254.946C254.718 74.1945 254.364 74.5152 253.886 74.7653C253.408 75.0153 252.902 75.1403 252.37 75.1403ZM263.263 75.1403C262.676 75.1403 262.148 75.0098 261.681 74.7489C261.213 74.488 260.86 74.1728 260.621 73.8032H260.54V74.8794H258.827V63.2043H260.621V66.4818L260.54 67.6558H260.621C260.86 67.2753 261.213 66.9547 261.681 66.6938C262.148 66.4329 262.676 66.3024 263.263 66.3024C264.013 66.3024 264.692 66.4927 265.301 66.8731C265.91 67.2536 266.388 67.7808 266.736 68.4548C267.095 69.1179 267.274 69.8734 267.274 70.7214C267.274 71.5693 267.095 72.3302 266.736 73.0042C266.388 73.6673 265.91 74.1891 265.301 74.5696C264.692 74.9501 264.013 75.1403 263.263 75.1403ZM263.002 73.4934C263.437 73.4934 263.844 73.3792 264.225 73.151C264.605 72.9227 264.91 72.5966 265.138 72.1726C265.366 71.7486 265.48 71.2649 265.48 70.7214C265.48 70.1778 265.366 69.6995 265.138 69.2864C264.91 68.8625 264.605 68.5363 264.225 68.3081C263.844 68.0798 263.437 67.9656 263.002 67.9656C262.567 67.9656 262.159 68.0798 261.779 68.3081C261.409 68.5363 261.11 68.8625 260.882 69.2864C260.654 69.6995 260.54 70.1778 260.54 70.7214C260.54 71.2649 260.654 71.7486 260.882 72.1726C261.11 72.5966 261.409 72.9227 261.779 73.151C262.159 73.3792 262.567 73.4934 263.002 73.4934ZM271.86 75.1403C270.904 75.1403 270.121 74.9337 269.512 74.5207C268.904 74.0967 268.474 73.5586 268.224 72.9064L269.822 72.2052C270.018 72.64 270.29 72.9716 270.638 73.1999C270.996 73.4282 271.404 73.5423 271.86 73.5423C272.306 73.5423 272.681 73.4662 272.986 73.314C273.29 73.151 273.442 72.9118 273.442 72.5966C273.442 72.2922 273.312 72.053 273.051 71.8791C272.79 71.7052 272.388 71.553 271.844 71.4225L270.849 71.1779C270.186 71.0149 269.637 70.7268 269.203 70.3137C268.768 69.9006 268.55 69.3788 268.55 68.7483C268.55 68.2591 268.692 67.8298 268.974 67.4602C269.268 67.0905 269.659 66.8079 270.148 66.6122C270.638 66.4057 271.17 66.3024 271.746 66.3024C272.518 66.3024 273.198 66.46 273.785 66.7753C274.372 67.0797 274.796 67.5254 275.056 68.1124L273.491 68.7972C273.176 68.1559 272.6 67.8352 271.763 67.8352C271.36 67.8352 271.023 67.9167 270.752 68.0798C270.48 68.2428 270.344 68.4548 270.344 68.7157C270.344 68.9657 270.447 69.1723 270.654 69.3353C270.86 69.4875 271.165 69.618 271.567 69.7267L272.79 70.0365C273.605 70.243 274.219 70.5583 274.632 70.9823C275.056 71.3953 275.268 71.9063 275.268 72.515C275.268 73.0368 275.116 73.4988 274.812 73.901C274.518 74.2924 274.111 74.5968 273.589 74.8142C273.067 75.0316 272.491 75.1403 271.86 75.1403Z" fill="#616161"/>
<rect width="23.3115" height="7.81905" rx="3.90953" transform="matrix(-0.866025 0.5 0.5 0.866025 174.504 27.7881)" fill="#FBBC04"/>
<rect width="23.3115" height="7.81905" rx="3.90953" transform="matrix(0.866025 -0.5 -0.5 -0.866025 131.371 38.4272)" fill="#EA4335"/>
<rect x="131.041" y="27.7871" width="23.3115" height="7.81905" rx="3.90953" transform="rotate(30 131.041 27.7871)" fill="#4285F4"/>
<rect x="174.504" y="38.4272" width="23.3115" height="7.81905" rx="3.64648" transform="rotate(-150 174.504 38.4272)" fill="#0F9D58"/>
<path d="M29.4641 95.7704C28.9041 95.7704 28.3907 95.6004 27.9241 95.2604C27.4574 94.9204 27.1374 94.4437 26.9641 93.8304L27.7741 93.5004C27.8874 93.927 28.0974 94.277 28.4041 94.5504C28.7107 94.8237 29.0707 94.9604 29.4841 94.9604C29.8974 94.9604 30.2474 94.8504 30.5341 94.6304C30.8207 94.4037 30.9641 94.097 30.9641 93.7104C30.9641 93.377 30.8407 93.1037 30.5941 92.8904C30.3541 92.6704 29.9574 92.467 29.4041 92.2804L28.9541 92.1204C28.4474 91.9404 28.0341 91.7037 27.7141 91.4104C27.3941 91.117 27.2341 90.7104 27.2341 90.1904C27.2341 89.8504 27.3274 89.537 27.5141 89.2504C27.7007 88.957 27.9607 88.7237 28.2941 88.5504C28.6274 88.377 29.0007 88.2904 29.4141 88.2904C29.8274 88.2904 30.1874 88.367 30.4941 88.5204C30.8007 88.6737 31.0441 88.8604 31.2241 89.0804C31.4107 89.3004 31.5407 89.517 31.6141 89.7304L30.8141 90.0704C30.7474 89.8237 30.5941 89.6004 30.3541 89.4004C30.1207 89.2004 29.8107 89.1004 29.4241 89.1004C29.0574 89.1004 28.7441 89.2037 28.4841 89.4104C28.2241 89.617 28.0941 89.877 28.0941 90.1904C28.0941 90.4704 28.2041 90.7004 28.4241 90.8804C28.6441 91.0537 28.9774 91.217 29.4241 91.3704L29.8941 91.5304C30.5007 91.7504 30.9741 92.027 31.3141 92.3604C31.6541 92.687 31.8241 93.1337 31.8241 93.7004C31.8241 94.1604 31.7041 94.547 31.4641 94.8604C31.2307 95.1737 30.9341 95.4037 30.5741 95.5504C30.2141 95.697 29.8441 95.7704 29.4641 95.7704ZM34.6056 95.6904C34.399 95.6904 34.2056 95.657 34.0256 95.5904C33.8523 95.5237 33.7056 95.4337 33.5856 95.3204C33.4523 95.1937 33.3523 95.047 33.2856 94.8804C33.219 94.7137 33.1856 94.5104 33.1856 94.2704V91.2804H32.2956V90.5104H33.1856V89.0704H34.0356V90.5104H35.2756V91.2804H34.0356V94.0604C34.0356 94.3404 34.089 94.547 34.1956 94.6804C34.3223 94.827 34.5056 94.9004 34.7456 94.9004C34.939 94.9004 35.1256 94.8437 35.3056 94.7304V95.5604C35.2056 95.607 35.1023 95.6404 34.9956 95.6604C34.8956 95.6804 34.7656 95.6904 34.6056 95.6904ZM36.8677 95.6704C36.6877 95.6704 36.5344 95.6104 36.4077 95.4904C36.2877 95.3637 36.2277 95.2104 36.2277 95.0304C36.2277 94.857 36.2877 94.7104 36.4077 94.5904C36.5344 94.4637 36.6877 94.4004 36.8677 94.4004C37.0411 94.4004 37.1877 94.4637 37.3077 94.5904C37.4344 94.7104 37.4977 94.857 37.4977 95.0304C37.4977 95.2104 37.4344 95.3637 37.3077 95.4904C37.1877 95.6104 37.0411 95.6704 36.8677 95.6704ZM40.1244 88.4504H41.0644L42.8344 93.6404L43.0744 94.3504H43.1144L43.3644 93.6404L45.2144 88.4504H46.1544L43.5344 95.6104H42.6544L40.1244 88.4504ZM47.2179 89.5704C47.0512 89.5704 46.9079 89.5104 46.7879 89.3904C46.6679 89.2704 46.6079 89.127 46.6079 88.9604C46.6079 88.7937 46.6679 88.6537 46.7879 88.5404C46.9079 88.4204 47.0512 88.3604 47.2179 88.3604C47.3846 88.3604 47.5279 88.4204 47.6479 88.5404C47.7679 88.6537 47.8279 88.7937 47.8279 88.9604C47.8279 89.127 47.7679 89.2704 47.6479 89.3904C47.5346 89.5104 47.3912 89.5704 47.2179 89.5704ZM46.7979 90.5104H47.6379V95.6104H46.7979V90.5104ZM48.9738 90.5104H49.7838V91.2604H49.8238C49.9638 91.007 50.1871 90.7937 50.4938 90.6204C50.8004 90.4404 51.1271 90.3504 51.4738 90.3504C52.0871 90.3504 52.5538 90.5304 52.8738 90.8904C53.2004 91.2437 53.3638 91.727 53.3638 92.3404V95.6104H52.5138V92.4704C52.5138 91.997 52.4004 91.6537 52.1738 91.4404C51.9471 91.227 51.6371 91.1204 51.2438 91.1204C50.9704 91.1204 50.7238 91.197 50.5038 91.3504C50.2904 91.5037 50.1238 91.707 50.0038 91.9604C49.8838 92.207 49.8238 92.467 49.8238 92.7404V95.6104H48.9738V90.5104ZM56.8892 95.7704C56.3959 95.7704 55.9526 95.6537 55.5592 95.4204C55.1659 95.1804 54.8592 94.857 54.6392 94.4504C54.4192 94.037 54.3092 93.5737 54.3092 93.0604C54.3092 92.547 54.4192 92.0837 54.6392 91.6704C54.8592 91.257 55.1659 90.9337 55.5592 90.7004C55.9526 90.467 56.3959 90.3504 56.8892 90.3504C57.4426 90.3504 57.9059 90.4804 58.2792 90.7404C58.6592 90.9937 58.9292 91.3337 59.0892 91.7604L58.3192 92.0804C58.1926 91.767 58.0026 91.5304 57.7492 91.3704C57.5026 91.2037 57.2026 91.1204 56.8492 91.1204C56.5492 91.1204 56.2692 91.2037 56.0092 91.3704C55.7492 91.5304 55.5392 91.757 55.3792 92.0504C55.2259 92.3437 55.1492 92.6804 55.1492 93.0604C55.1492 93.4404 55.2259 93.777 55.3792 94.0704C55.5392 94.3637 55.7492 94.5937 56.0092 94.7604C56.2692 94.9204 56.5492 95.0004 56.8492 95.0004C57.2092 95.0004 57.5192 94.917 57.7792 94.7504C58.0392 94.5837 58.2326 94.347 58.3592 94.0404L59.1192 94.3604C58.9459 94.7804 58.6659 95.1204 58.2792 95.3804C57.8992 95.6404 57.4359 95.7704 56.8892 95.7704ZM62.2594 95.7704C61.7727 95.7704 61.336 95.6537 60.9494 95.4204C60.5627 95.187 60.2594 94.867 60.0394 94.4604C59.826 94.047 59.7194 93.5837 59.7194 93.0704C59.7194 92.577 59.8194 92.1237 60.0194 91.7104C60.226 91.297 60.516 90.967 60.8894 90.7204C61.2627 90.4737 61.696 90.3504 62.1894 90.3504C62.6894 90.3504 63.1227 90.4637 63.4894 90.6904C63.856 90.9104 64.136 91.217 64.3294 91.6104C64.5294 92.0037 64.6294 92.4537 64.6294 92.9604C64.6294 93.0604 64.6194 93.147 64.5994 93.2204H60.5694C60.5894 93.607 60.6827 93.9337 60.8494 94.2004C61.016 94.467 61.226 94.667 61.4794 94.8004C61.7394 94.9337 62.0094 95.0004 62.2894 95.0004C62.9427 95.0004 63.446 94.6937 63.7994 94.0804L64.5194 94.4304C64.2994 94.8437 63.9994 95.1704 63.6194 95.4104C63.246 95.6504 62.7927 95.7704 62.2594 95.7704ZM63.7294 92.5204C63.716 92.307 63.656 92.0937 63.5494 91.8804C63.4427 91.667 63.2727 91.487 63.0394 91.3404C62.8127 91.1937 62.526 91.1204 62.1794 91.1204C61.7794 91.1204 61.4394 91.2504 61.1594 91.5104C60.886 91.7637 60.706 92.1004 60.6194 92.5204H63.7294ZM65.6241 90.5104H66.4341V91.2604H66.4741C66.6141 91.007 66.8375 90.7937 67.1441 90.6204C67.4508 90.4404 67.7775 90.3504 68.1241 90.3504C68.7375 90.3504 69.2041 90.5304 69.5241 90.8904C69.8508 91.2437 70.0141 91.727 70.0141 92.3404V95.6104H69.1641V92.4704C69.1641 91.997 69.0508 91.6537 68.8241 91.4404C68.5975 91.227 68.2875 91.1204 67.8941 91.1204C67.6208 91.1204 67.3741 91.197 67.1541 91.3504C66.9408 91.5037 66.7741 91.707 66.6541 91.9604C66.5341 92.207 66.4741 92.467 66.4741 92.7404V95.6104H65.6241V90.5104ZM72.9357 95.6904C72.729 95.6904 72.5357 95.657 72.3557 95.5904C72.1824 95.5237 72.0357 95.4337 71.9157 95.3204C71.7824 95.1937 71.6824 95.047 71.6157 94.8804C71.549 94.7137 71.5157 94.5104 71.5157 94.2704V91.2804H70.6257V90.5104H71.5157V89.0704H72.3657V90.5104H73.6057V91.2804H72.3657V94.0604C72.3657 94.3404 72.419 94.547 72.5257 94.6804C72.6524 94.827 72.8357 94.9004 73.0757 94.9004C73.269 94.9004 73.4557 94.8437 73.6357 94.7304V95.5604C73.5357 95.607 73.4324 95.6404 73.3257 95.6604C73.2257 95.6804 73.0957 95.6904 72.9357 95.6904ZM77.132 88.4504H79.542C79.942 88.4504 80.312 88.5404 80.652 88.7204C80.992 88.9004 81.262 89.1537 81.462 89.4804C81.6687 89.8004 81.772 90.1637 81.772 90.5704C81.772 90.977 81.6687 91.3437 81.462 91.6704C81.262 91.9904 80.992 92.2404 80.652 92.4204C80.312 92.6004 79.942 92.6904 79.542 92.6904H77.972V95.6104H77.132V88.4504ZM79.562 91.8804C79.8287 91.8804 80.062 91.817 80.262 91.6904C80.4687 91.5637 80.6287 91.4004 80.742 91.2004C80.8554 91.0004 80.912 90.7904 80.912 90.5704C80.912 90.3504 80.8554 90.1404 80.742 89.9404C80.6287 89.7404 80.4687 89.577 80.262 89.4504C80.062 89.3237 79.8287 89.2604 79.562 89.2604H77.972V91.8804H79.562ZM84.1584 95.7704C83.7851 95.7704 83.4518 95.697 83.1584 95.5504C82.8651 95.4037 82.6384 95.2037 82.4784 94.9504C82.3184 94.6904 82.2384 94.397 82.2384 94.0704C82.2384 93.5304 82.4418 93.1104 82.8484 92.8104C83.2551 92.5037 83.7684 92.3504 84.3884 92.3504C84.6951 92.3504 84.9784 92.3837 85.2384 92.4504C85.5051 92.517 85.7084 92.5937 85.8484 92.6804V92.3704C85.8484 91.9904 85.7151 91.687 85.4484 91.4604C85.1818 91.227 84.8451 91.1104 84.4384 91.1104C84.1518 91.1104 83.8884 91.1737 83.6484 91.3004C83.4084 91.4204 83.2184 91.5904 83.0784 91.8104L82.4384 91.3304C82.6384 91.0237 82.9118 90.7837 83.2584 90.6104C83.6118 90.437 84.0018 90.3504 84.4284 90.3504C85.1218 90.3504 85.6651 90.5337 86.0584 90.9004C86.4584 91.2604 86.6584 91.7537 86.6584 92.3804V95.6104H85.8484V94.8804H85.8084C85.6618 95.127 85.4418 95.337 85.1484 95.5104C84.8551 95.6837 84.5251 95.7704 84.1584 95.7704ZM84.2384 95.0204C84.5251 95.0204 84.7918 94.947 85.0384 94.8004C85.2851 94.6537 85.4818 94.457 85.6284 94.2104C85.7751 93.9637 85.8484 93.6937 85.8484 93.4004C85.6884 93.2937 85.4918 93.207 85.2584 93.1404C85.0251 93.0737 84.7784 93.0404 84.5184 93.0404C84.0518 93.0404 83.6984 93.137 83.4584 93.3304C83.2251 93.5237 83.1084 93.7737 83.1084 94.0804C83.1084 94.3604 83.2151 94.587 83.4284 94.7604C83.6418 94.9337 83.9118 95.0204 84.2384 95.0204ZM87.8409 88.4504H88.6909V95.6104H87.8409V88.4504ZM89.9503 88.4504H90.8003V95.6104H89.9503V88.4504ZM94.3609 95.7704C93.8609 95.7704 93.4109 95.6504 93.0109 95.4104C92.6109 95.1704 92.2975 94.8437 92.0709 94.4304C91.8509 94.017 91.7409 93.5604 91.7409 93.0604C91.7409 92.5604 91.8509 92.1037 92.0709 91.6904C92.2975 91.277 92.6109 90.9504 93.0109 90.7104C93.4109 90.4704 93.8609 90.3504 94.3609 90.3504C94.8609 90.3504 95.3109 90.4704 95.7109 90.7104C96.1109 90.9504 96.4209 91.277 96.6409 91.6904C96.8675 92.1037 96.9809 92.5604 96.9809 93.0604C96.9809 93.5604 96.8675 94.017 96.6409 94.4304C96.4209 94.8437 96.1109 95.1704 95.7109 95.4104C95.3109 95.6504 94.8609 95.7704 94.3609 95.7704ZM94.3609 95.0004C94.6742 95.0004 94.9642 94.9237 95.2309 94.7704C95.5042 94.6104 95.7209 94.3837 95.8809 94.0904C96.0475 93.797 96.1309 93.4537 96.1309 93.0604C96.1309 92.667 96.0475 92.3237 95.8809 92.0304C95.7209 91.737 95.5042 91.5137 95.2309 91.3604C94.9642 91.2004 94.6742 91.1204 94.3609 91.1204C94.0475 91.1204 93.7542 91.2004 93.4809 91.3604C93.2075 91.5137 92.9875 91.737 92.8209 92.0304C92.6609 92.3237 92.5809 92.667 92.5809 93.0604C92.5809 93.4537 92.6609 93.797 92.8209 94.0904C92.9875 94.3837 93.2075 94.6104 93.4809 94.7704C93.7542 94.9237 94.0475 95.0004 94.3609 95.0004ZM99.7814 95.6904C99.5747 95.6904 99.3814 95.657 99.2014 95.5904C99.0281 95.5237 98.8814 95.4337 98.7614 95.3204C98.6281 95.1937 98.5281 95.047 98.4614 94.8804C98.3947 94.7137 98.3614 94.5104 98.3614 94.2704V91.2804H97.4714V90.5104H98.3614V89.0704H99.2114V90.5104H100.451V91.2804H99.2114V94.0604C99.2114 94.3404 99.2647 94.547 99.3714 94.6804C99.4981 94.827 99.6814 94.9004 99.9214 94.9004C100.115 94.9004 100.301 94.8437 100.481 94.7304V95.5604C100.381 95.607 100.278 95.6404 100.171 95.6604C100.071 95.6804 99.9414 95.6904 99.7814 95.6904ZM102.032 89.5704C101.866 89.5704 101.722 89.5104 101.602 89.3904C101.482 89.2704 101.422 89.127 101.422 88.9604C101.422 88.7937 101.482 88.6537 101.602 88.5404C101.722 88.4204 101.866 88.3604 102.032 88.3604C102.199 88.3604 102.342 88.4204 102.462 88.5404C102.582 88.6537 102.642 88.7937 102.642 88.9604C102.642 89.127 102.582 89.2704 102.462 89.3904C102.349 89.5104 102.206 89.5704 102.032 89.5704ZM101.612 90.5104H102.452V95.6104H101.612V90.5104ZM109.447 95.7704C108.754 95.7704 108.124 95.607 107.557 95.2804C106.99 94.9537 106.544 94.507 106.217 93.9404C105.897 93.367 105.737 92.7304 105.737 92.0304C105.737 91.3304 105.897 90.697 106.217 90.1304C106.544 89.557 106.99 89.107 107.557 88.7804C108.124 88.4537 108.754 88.2904 109.447 88.2904C109.98 88.2904 110.467 88.3937 110.907 88.6004C111.354 88.8004 111.74 89.087 112.067 89.4604L111.457 90.0504C111.184 89.7237 110.884 89.4837 110.557 89.3304C110.237 89.177 109.867 89.1004 109.447 89.1004C108.927 89.1004 108.45 89.2237 108.017 89.4704C107.584 89.7104 107.237 90.0537 106.977 90.5004C106.724 90.9404 106.597 91.4504 106.597 92.0304C106.597 92.6104 106.724 93.1237 106.977 93.5704C107.237 94.0104 107.584 94.3537 108.017 94.6004C108.45 94.8404 108.927 94.9604 109.447 94.9604C110.314 94.9604 111.05 94.6037 111.657 93.8904L112.277 94.4904C111.944 94.8837 111.534 95.197 111.047 95.4304C110.56 95.657 110.027 95.7704 109.447 95.7704ZM115.484 95.7704C114.984 95.7704 114.534 95.6504 114.134 95.4104C113.734 95.1704 113.421 94.8437 113.194 94.4304C112.974 94.017 112.864 93.5604 112.864 93.0604C112.864 92.5604 112.974 92.1037 113.194 91.6904C113.421 91.277 113.734 90.9504 114.134 90.7104C114.534 90.4704 114.984 90.3504 115.484 90.3504C115.984 90.3504 116.434 90.4704 116.834 90.7104C117.234 90.9504 117.544 91.277 117.764 91.6904C117.991 92.1037 118.104 92.5604 118.104 93.0604C118.104 93.5604 117.991 94.017 117.764 94.4304C117.544 94.8437 117.234 95.1704 116.834 95.4104C116.434 95.6504 115.984 95.7704 115.484 95.7704ZM115.484 95.0004C115.797 95.0004 116.087 94.9237 116.354 94.7704C116.627 94.6104 116.844 94.3837 117.004 94.0904C117.171 93.797 117.254 93.4537 117.254 93.0604C117.254 92.667 117.171 92.3237 117.004 92.0304C116.844 91.737 116.627 91.5137 116.354 91.3604C116.087 91.2004 115.797 91.1204 115.484 91.1204C115.171 91.1204 114.877 91.2004 114.604 91.3604C114.331 91.5137 114.111 91.737 113.944 92.0304C113.784 92.3237 113.704 92.667 113.704 93.0604C113.704 93.4537 113.784 93.797 113.944 94.0904C114.111 94.3837 114.331 94.6104 114.604 94.7704C114.877 94.9237 115.171 95.0004 115.484 95.0004ZM119.042 88.4504H119.892V95.6104H119.042V88.4504ZM121.151 88.4504H122.001V95.6104H121.151V88.4504ZM125.482 95.7704C124.995 95.7704 124.559 95.6537 124.172 95.4204C123.785 95.187 123.482 94.867 123.262 94.4604C123.049 94.047 122.942 93.5837 122.942 93.0704C122.942 92.577 123.042 92.1237 123.242 91.7104C123.449 91.297 123.739 90.967 124.112 90.7204C124.485 90.4737 124.919 90.3504 125.412 90.3504C125.912 90.3504 126.345 90.4637 126.712 90.6904C127.079 90.9104 127.359 91.217 127.552 91.6104C127.752 92.0037 127.852 92.4537 127.852 92.9604C127.852 93.0604 127.842 93.147 127.822 93.2204H123.792C123.812 93.607 123.905 93.9337 124.072 94.2004C124.239 94.467 124.449 94.667 124.702 94.8004C124.962 94.9337 125.232 95.0004 125.512 95.0004C126.165 95.0004 126.669 94.6937 127.022 94.0804L127.742 94.4304C127.522 94.8437 127.222 95.1704 126.842 95.4104C126.469 95.6504 126.015 95.7704 125.482 95.7704ZM126.952 92.5204C126.939 92.307 126.879 92.0937 126.772 91.8804C126.665 91.667 126.495 91.487 126.262 91.3404C126.035 91.1937 125.749 91.1204 125.402 91.1204C125.002 91.1204 124.662 91.2504 124.382 91.5104C124.109 91.7637 123.929 92.1004 123.842 92.5204H126.952ZM131.136 97.9304C130.536 97.9304 130.039 97.7904 129.646 97.5104C129.259 97.2304 128.999 96.8937 128.866 96.5004L129.636 96.1704C129.749 96.4637 129.936 96.7004 130.196 96.8804C130.462 97.067 130.776 97.1604 131.136 97.1604C131.662 97.1604 132.069 97.007 132.356 96.7004C132.649 96.3937 132.796 95.9604 132.796 95.4004V94.8304H132.756C132.589 95.0904 132.352 95.3037 132.046 95.4704C131.746 95.6304 131.402 95.7104 131.016 95.7104C130.576 95.7104 130.172 95.597 129.806 95.3704C129.446 95.1437 129.159 94.827 128.946 94.4204C128.732 94.0137 128.626 93.5504 128.626 93.0304C128.626 92.517 128.732 92.057 128.946 91.6504C129.159 91.237 129.446 90.917 129.806 90.6904C130.172 90.4637 130.576 90.3504 131.016 90.3504C131.402 90.3504 131.746 90.4337 132.046 90.6004C132.352 90.7604 132.589 90.9737 132.756 91.2404H132.796V90.5104H133.606V95.4104C133.606 96.2304 133.379 96.8537 132.926 97.2804C132.472 97.7137 131.876 97.9304 131.136 97.9304ZM131.136 94.9404C131.442 94.9404 131.719 94.8637 131.966 94.7104C132.219 94.557 132.419 94.337 132.566 94.0504C132.719 93.7637 132.796 93.4237 132.796 93.0304C132.796 92.6304 132.719 92.287 132.566 92.0004C132.419 91.7137 132.219 91.497 131.966 91.3504C131.719 91.197 131.442 91.1204 131.136 91.1204C130.829 91.1204 130.549 91.197 130.296 91.3504C130.042 91.5037 129.839 91.7237 129.686 92.0104C129.539 92.297 129.466 92.637 129.466 93.0304C129.466 93.4237 129.539 93.767 129.686 94.0604C129.839 94.347 130.042 94.567 130.296 94.7204C130.549 94.867 130.829 94.9404 131.136 94.9404ZM137.084 95.7704C136.597 95.7704 136.16 95.6537 135.774 95.4204C135.387 95.187 135.084 94.867 134.864 94.4604C134.65 94.047 134.544 93.5837 134.544 93.0704C134.544 92.577 134.644 92.1237 134.844 91.7104C135.05 91.297 135.34 90.967 135.714 90.7204C136.087 90.4737 136.52 90.3504 137.014 90.3504C137.514 90.3504 137.947 90.4637 138.314 90.6904C138.68 90.9104 138.96 91.217 139.154 91.6104C139.354 92.0037 139.454 92.4537 139.454 92.9604C139.454 93.0604 139.444 93.147 139.424 93.2204H135.394C135.414 93.607 135.507 93.9337 135.674 94.2004C135.84 94.467 136.05 94.667 136.304 94.8004C136.564 94.9337 136.834 95.0004 137.114 95.0004C137.767 95.0004 138.27 94.6937 138.624 94.0804L139.344 94.4304C139.124 94.8437 138.824 95.1704 138.444 95.4104C138.07 95.6504 137.617 95.7704 137.084 95.7704ZM138.554 92.5204C138.54 92.307 138.48 92.0937 138.374 91.8804C138.267 91.667 138.097 91.487 137.864 91.3404C137.637 91.1937 137.35 91.1204 137.004 91.1204C136.604 91.1204 136.264 91.2504 135.984 91.5104C135.71 91.7637 135.53 92.1004 135.444 92.5204H138.554ZM145.123 95.7704C144.623 95.7704 144.173 95.6504 143.773 95.4104C143.373 95.1704 143.059 94.8437 142.833 94.4304C142.613 94.017 142.503 93.5604 142.503 93.0604C142.503 92.5604 142.613 92.1037 142.833 91.6904C143.059 91.277 143.373 90.9504 143.773 90.7104C144.173 90.4704 144.623 90.3504 145.123 90.3504C145.623 90.3504 146.073 90.4704 146.473 90.7104C146.873 90.9504 147.183 91.277 147.403 91.6904C147.629 92.1037 147.743 92.5604 147.743 93.0604C147.743 93.5604 147.629 94.017 147.403 94.4304C147.183 94.8437 146.873 95.1704 146.473 95.4104C146.073 95.6504 145.623 95.7704 145.123 95.7704ZM145.123 95.0004C145.436 95.0004 145.726 94.9237 145.993 94.7704C146.266 94.6104 146.483 94.3837 146.643 94.0904C146.809 93.797 146.893 93.4537 146.893 93.0604C146.893 92.667 146.809 92.3237 146.643 92.0304C146.483 91.737 146.266 91.5137 145.993 91.3604C145.726 91.2004 145.436 91.1204 145.123 91.1204C144.809 91.1204 144.516 91.2004 144.243 91.3604C143.969 91.5137 143.749 91.737 143.583 92.0304C143.423 92.3237 143.343 92.667 143.343 93.0604C143.343 93.4537 143.423 93.797 143.583 94.0904C143.749 94.3837 143.969 94.6104 144.243 94.7704C144.516 94.9237 144.809 95.0004 145.123 95.0004ZM149.173 91.2804H148.233V90.5104H149.173V89.9604C149.173 89.6404 149.246 89.3604 149.393 89.1204C149.54 88.8804 149.736 88.697 149.983 88.5704C150.23 88.437 150.503 88.3704 150.803 88.3704C151.09 88.3704 151.34 88.4104 151.553 88.4904V89.3204C151.433 89.2737 151.32 89.237 151.213 89.2104C151.106 89.177 150.98 89.1604 150.833 89.1604C150.613 89.1604 150.423 89.2404 150.263 89.4004C150.103 89.5537 150.023 89.7704 150.023 90.0504V90.5104H151.333V91.2804H150.023V95.6104H149.173V91.2804ZM154.866 88.4504H159.006V89.2604H155.706V91.6304H158.686V92.4304H155.706V94.8004H159.006V95.6104H154.866V88.4504ZM160.107 90.5104H160.917V91.2604H160.957C161.097 91.007 161.32 90.7937 161.627 90.6204C161.933 90.4404 162.26 90.3504 162.607 90.3504C163.22 90.3504 163.687 90.5304 164.007 90.8904C164.333 91.2437 164.497 91.727 164.497 92.3404V95.6104H163.647V92.4704C163.647 91.997 163.533 91.6537 163.307 91.4404C163.08 91.227 162.77 91.1204 162.377 91.1204C162.103 91.1204 161.857 91.197 161.637 91.3504C161.423 91.5037 161.257 91.707 161.137 91.9604C161.017 92.207 160.957 92.467 160.957 92.7404V95.6104H160.107V90.5104ZM167.903 97.9304C167.303 97.9304 166.807 97.7904 166.413 97.5104C166.027 97.2304 165.767 96.8937 165.633 96.5004L166.403 96.1704C166.517 96.4637 166.703 96.7004 166.963 96.8804C167.23 97.067 167.543 97.1604 167.903 97.1604C168.43 97.1604 168.837 97.007 169.123 96.7004C169.417 96.3937 169.563 95.9604 169.563 95.4004V94.8304H169.523C169.357 95.0904 169.12 95.3037 168.813 95.4704C168.513 95.6304 168.17 95.7104 167.783 95.7104C167.343 95.7104 166.94 95.597 166.573 95.3704C166.213 95.1437 165.927 94.827 165.713 94.4204C165.5 94.0137 165.393 93.5504 165.393 93.0304C165.393 92.517 165.5 92.057 165.713 91.6504C165.927 91.237 166.213 90.917 166.573 90.6904C166.94 90.4637 167.343 90.3504 167.783 90.3504C168.17 90.3504 168.513 90.4337 168.813 90.6004C169.12 90.7604 169.357 90.9737 169.523 91.2404H169.563V90.5104H170.373V95.4104C170.373 96.2304 170.147 96.8537 169.693 97.2804C169.24 97.7137 168.643 97.9304 167.903 97.9304ZM167.903 94.9404C168.21 94.9404 168.487 94.8637 168.733 94.7104C168.987 94.557 169.187 94.337 169.333 94.0504C169.487 93.7637 169.563 93.4237 169.563 93.0304C169.563 92.6304 169.487 92.287 169.333 92.0004C169.187 91.7137 168.987 91.497 168.733 91.3504C168.487 91.197 168.21 91.1204 167.903 91.1204C167.597 91.1204 167.317 91.197 167.063 91.3504C166.81 91.5037 166.607 91.7237 166.453 92.0104C166.307 92.297 166.233 92.637 166.233 93.0304C166.233 93.4237 166.307 93.767 166.453 94.0604C166.607 94.347 166.81 94.567 167.063 94.7204C167.317 94.867 167.597 94.9404 167.903 94.9404ZM172.13 89.5704C171.963 89.5704 171.82 89.5104 171.7 89.3904C171.58 89.2704 171.52 89.127 171.52 88.9604C171.52 88.7937 171.58 88.6537 171.7 88.5404C171.82 88.4204 171.963 88.3604 172.13 88.3604C172.297 88.3604 172.44 88.4204 172.56 88.5404C172.68 88.6537 172.74 88.7937 172.74 88.9604C172.74 89.127 172.68 89.2704 172.56 89.3904C172.447 89.5104 172.303 89.5704 172.13 89.5704ZM171.71 90.5104H172.55V95.6104H171.71V90.5104ZM173.886 90.5104H174.696V91.2604H174.736C174.876 91.007 175.099 90.7937 175.406 90.6204C175.713 90.4404 176.039 90.3504 176.386 90.3504C176.999 90.3504 177.466 90.5304 177.786 90.8904C178.113 91.2437 178.276 91.727 178.276 92.3404V95.6104H177.426V92.4704C177.426 91.997 177.313 91.6537 177.086 91.4404C176.859 91.227 176.549 91.1204 176.156 91.1204C175.883 91.1204 175.636 91.197 175.416 91.3504C175.203 91.5037 175.036 91.707 174.916 91.9604C174.796 92.207 174.736 92.467 174.736 92.7404V95.6104H173.886V90.5104ZM181.761 95.7704C181.275 95.7704 180.838 95.6537 180.451 95.4204C180.065 95.187 179.761 94.867 179.541 94.4604C179.328 94.047 179.221 93.5837 179.221 93.0704C179.221 92.577 179.321 92.1237 179.521 91.7104C179.728 91.297 180.018 90.967 180.391 90.7204C180.765 90.4737 181.198 90.3504 181.691 90.3504C182.191 90.3504 182.625 90.4637 182.991 90.6904C183.358 90.9104 183.638 91.217 183.831 91.6104C184.031 92.0037 184.131 92.4537 184.131 92.9604C184.131 93.0604 184.121 93.147 184.101 93.2204H180.071C180.091 93.607 180.185 93.9337 180.351 94.2004C180.518 94.467 180.728 94.667 180.981 94.8004C181.241 94.9337 181.511 95.0004 181.791 95.0004C182.445 95.0004 182.948 94.6937 183.301 94.0804L184.021 94.4304C183.801 94.8437 183.501 95.1704 183.121 95.4104C182.748 95.6504 182.295 95.7704 181.761 95.7704ZM183.231 92.5204C183.218 92.307 183.158 92.0937 183.051 91.8804C182.945 91.667 182.775 91.487 182.541 91.3404C182.315 91.1937 182.028 91.1204 181.681 91.1204C181.281 91.1204 180.941 91.2504 180.661 91.5104C180.388 91.7637 180.208 92.1004 180.121 92.5204H183.231ZM187.445 95.7704C186.958 95.7704 186.522 95.6537 186.135 95.4204C185.748 95.187 185.445 94.867 185.225 94.4604C185.012 94.047 184.905 93.5837 184.905 93.0704C184.905 92.577 185.005 92.1237 185.205 91.7104C185.412 91.297 185.702 90.967 186.075 90.7204C186.448 90.4737 186.882 90.3504 187.375 90.3504C187.875 90.3504 188.308 90.4637 188.675 90.6904C189.042 90.9104 189.322 91.217 189.515 91.6104C189.715 92.0037 189.815 92.4537 189.815 92.9604C189.815 93.0604 189.805 93.147 189.785 93.2204H185.755C185.775 93.607 185.868 93.9337 186.035 94.2004C186.202 94.467 186.412 94.667 186.665 94.8004C186.925 94.9337 187.195 95.0004 187.475 95.0004C188.128 95.0004 188.632 94.6937 188.985 94.0804L189.705 94.4304C189.485 94.8437 189.185 95.1704 188.805 95.4104C188.432 95.6504 187.978 95.7704 187.445 95.7704ZM188.915 92.5204C188.902 92.307 188.842 92.0937 188.735 91.8804C188.628 91.667 188.458 91.487 188.225 91.3404C187.998 91.1937 187.712 91.1204 187.365 91.1204C186.965 91.1204 186.625 91.2504 186.345 91.5104C186.072 91.7637 185.892 92.1004 185.805 92.5204H188.915ZM190.81 90.5104H191.62V91.3304H191.66C191.76 91.0504 191.953 90.8204 192.24 90.6404C192.526 90.4537 192.826 90.3604 193.14 90.3604C193.373 90.3604 193.573 90.3937 193.74 90.4604V91.3804C193.526 91.2737 193.286 91.2204 193.02 91.2204C192.773 91.2204 192.546 91.2904 192.34 91.4304C192.133 91.5704 191.966 91.7604 191.84 92.0004C191.72 92.2337 191.66 92.487 191.66 92.7604V95.6104H190.81V90.5104ZM195.06 89.5704C194.893 89.5704 194.75 89.5104 194.63 89.3904C194.51 89.2704 194.45 89.127 194.45 88.9604C194.45 88.7937 194.51 88.6537 194.63 88.5404C194.75 88.4204 194.893 88.3604 195.06 88.3604C195.226 88.3604 195.37 88.4204 195.49 88.5404C195.61 88.6537 195.67 88.7937 195.67 88.9604C195.67 89.127 195.61 89.2704 195.49 89.3904C195.376 89.5104 195.233 89.5704 195.06 89.5704ZM194.64 90.5104H195.48V95.6104H194.64V90.5104ZM196.816 90.5104H197.626V91.2604H197.666C197.806 91.007 198.029 90.7937 198.336 90.6204C198.642 90.4404 198.969 90.3504 199.316 90.3504C199.929 90.3504 200.396 90.5304 200.716 90.8904C201.042 91.2437 201.206 91.727 201.206 92.3404V95.6104H200.356V92.4704C200.356 91.997 200.242 91.6537 200.016 91.4404C199.789 91.227 199.479 91.1204 199.086 91.1204C198.812 91.1204 198.566 91.197 198.346 91.3504C198.132 91.5037 197.966 91.707 197.846 91.9604C197.726 92.207 197.666 92.467 197.666 92.7404V95.6104H196.816V90.5104ZM204.612 97.9304C204.012 97.9304 203.516 97.7904 203.122 97.5104C202.736 97.2304 202.476 96.8937 202.342 96.5004L203.112 96.1704C203.226 96.4637 203.412 96.7004 203.672 96.8804C203.939 97.067 204.252 97.1604 204.612 97.1604C205.139 97.1604 205.546 97.007 205.832 96.7004C206.126 96.3937 206.272 95.9604 206.272 95.4004V94.8304H206.232C206.066 95.0904 205.829 95.3037 205.522 95.4704C205.222 95.6304 204.879 95.7104 204.492 95.7104C204.052 95.7104 203.649 95.597 203.282 95.3704C202.922 95.1437 202.636 94.827 202.422 94.4204C202.209 94.0137 202.102 93.5504 202.102 93.0304C202.102 92.517 202.209 92.057 202.422 91.6504C202.636 91.237 202.922 90.917 203.282 90.6904C203.649 90.4637 204.052 90.3504 204.492 90.3504C204.879 90.3504 205.222 90.4337 205.522 90.6004C205.829 90.7604 206.066 90.9737 206.232 91.2404H206.272V90.5104H207.082V95.4104C207.082 96.2304 206.856 96.8537 206.402 97.2804C205.949 97.7137 205.352 97.9304 204.612 97.9304ZM204.612 94.9404C204.919 94.9404 205.196 94.8637 205.442 94.7104C205.696 94.557 205.896 94.337 206.042 94.0504C206.196 93.7637 206.272 93.4237 206.272 93.0304C206.272 92.6304 206.196 92.287 206.042 92.0004C205.896 91.7137 205.696 91.497 205.442 91.3504C205.196 91.197 204.919 91.1204 204.612 91.1204C204.306 91.1204 204.026 91.197 203.772 91.3504C203.519 91.5037 203.316 91.7237 203.162 92.0104C203.016 92.297 202.942 92.637 202.942 93.0304C202.942 93.4237 203.016 93.767 203.162 94.0604C203.316 94.347 203.519 94.567 203.772 94.7204C204.026 94.867 204.306 94.9404 204.612 94.9404ZM212.293 95.7704C211.92 95.7704 211.587 95.697 211.293 95.5504C211 95.4037 210.773 95.2037 210.613 94.9504C210.453 94.6904 210.373 94.397 210.373 94.0704C210.373 93.5304 210.577 93.1104 210.983 92.8104C211.39 92.5037 211.903 92.3504 212.523 92.3504C212.83 92.3504 213.113 92.3837 213.373 92.4504C213.64 92.517 213.843 92.5937 213.983 92.6804V92.3704C213.983 91.9904 213.85 91.687 213.583 91.4604C213.317 91.227 212.98 91.1104 212.573 91.1104C212.287 91.1104 212.023 91.1737 211.783 91.3004C211.543 91.4204 211.353 91.5904 211.213 91.8104L210.573 91.3304C210.773 91.0237 211.047 90.7837 211.393 90.6104C211.747 90.437 212.137 90.3504 212.563 90.3504C213.257 90.3504 213.8 90.5337 214.193 90.9004C214.593 91.2604 214.793 91.7537 214.793 92.3804V95.6104H213.983V94.8804H213.943C213.797 95.127 213.577 95.337 213.283 95.5104C212.99 95.6837 212.66 95.7704 212.293 95.7704ZM212.373 95.0204C212.66 95.0204 212.927 94.947 213.173 94.8004C213.42 94.6537 213.617 94.457 213.763 94.2104C213.91 93.9637 213.983 93.6937 213.983 93.4004C213.823 93.2937 213.627 93.207 213.393 93.1404C213.16 93.0737 212.913 93.0404 212.653 93.0404C212.187 93.0404 211.833 93.137 211.593 93.3304C211.36 93.5237 211.243 93.7737 211.243 94.0804C211.243 94.3604 211.35 94.587 211.563 94.7604C211.777 94.9337 212.047 95.0204 212.373 95.0204ZM215.976 90.5104H216.786V91.2604H216.826C216.966 91.007 217.189 90.7937 217.496 90.6204C217.802 90.4404 218.129 90.3504 218.476 90.3504C219.089 90.3504 219.556 90.5304 219.876 90.8904C220.202 91.2437 220.366 91.727 220.366 92.3404V95.6104H219.516V92.4704C219.516 91.997 219.402 91.6537 219.176 91.4404C218.949 91.227 218.639 91.1204 218.246 91.1204C217.972 91.1204 217.726 91.197 217.506 91.3504C217.292 91.5037 217.126 91.707 217.006 91.9604C216.886 92.207 216.826 92.467 216.826 92.7404V95.6104H215.976V90.5104ZM223.741 95.7704C223.288 95.7704 222.875 95.6537 222.501 95.4204C222.135 95.187 221.845 94.867 221.631 94.4604C221.418 94.047 221.311 93.5804 221.311 93.0604C221.311 92.547 221.418 92.0837 221.631 91.6704C221.845 91.257 222.135 90.9337 222.501 90.7004C222.875 90.467 223.288 90.3504 223.741 90.3504C224.135 90.3504 224.485 90.4404 224.791 90.6204C225.098 90.7937 225.331 91.0104 225.491 91.2704H225.531L225.491 90.5604V88.4504H226.341V95.6104H225.531V94.8604H225.491C225.331 95.1137 225.098 95.3304 224.791 95.5104C224.485 95.6837 224.135 95.7704 223.741 95.7704ZM223.841 95.0004C224.141 95.0004 224.418 94.9204 224.671 94.7604C224.931 94.6004 225.138 94.3737 225.291 94.0804C225.451 93.787 225.531 93.447 225.531 93.0604C225.531 92.6737 225.451 92.3337 225.291 92.0404C225.138 91.747 224.931 91.5204 224.671 91.3604C224.418 91.2004 224.141 91.1204 223.841 91.1204C223.548 91.1204 223.271 91.2004 223.011 91.3604C222.751 91.5204 222.541 91.7504 222.381 92.0504C222.228 92.3437 222.151 92.6804 222.151 93.0604C222.151 93.4404 222.228 93.7804 222.381 94.0804C222.541 94.3737 222.751 94.6004 223.011 94.7604C223.271 94.9204 223.548 95.0004 223.841 95.0004ZM231.161 89.2604H229.151V88.4504H234.011V89.2604H232.011V95.6104H231.161V89.2604ZM236.38 95.7704C235.894 95.7704 235.457 95.6537 235.07 95.4204C234.684 95.187 234.38 94.867 234.16 94.4604C233.947 94.047 233.84 93.5837 233.84 93.0704C233.84 92.577 233.94 92.1237 234.14 91.7104C234.347 91.297 234.637 90.967 235.01 90.7204C235.384 90.4737 235.817 90.3504 236.31 90.3504C236.81 90.3504 237.244 90.4637 237.61 90.6904C237.977 90.9104 238.257 91.217 238.45 91.6104C238.65 92.0037 238.75 92.4537 238.75 92.9604C238.75 93.0604 238.74 93.147 238.72 93.2204H234.69C234.71 93.607 234.804 93.9337 234.97 94.2004C235.137 94.467 235.347 94.667 235.6 94.8004C235.86 94.9337 236.13 95.0004 236.41 95.0004C237.064 95.0004 237.567 94.6937 237.92 94.0804L238.64 94.4304C238.42 94.8437 238.12 95.1704 237.74 95.4104C237.367 95.6504 236.914 95.7704 236.38 95.7704ZM237.85 92.5204C237.837 92.307 237.777 92.0937 237.67 91.8804C237.564 91.667 237.394 91.487 237.16 91.3404C236.934 91.1937 236.647 91.1204 236.3 91.1204C235.9 91.1204 235.56 91.2504 235.28 91.5104C235.007 91.7637 234.827 92.1004 234.74 92.5204H237.85ZM242.104 95.7704C241.611 95.7704 241.167 95.6537 240.774 95.4204C240.381 95.1804 240.074 94.857 239.854 94.4504C239.634 94.037 239.524 93.5737 239.524 93.0604C239.524 92.547 239.634 92.0837 239.854 91.6704C240.074 91.257 240.381 90.9337 240.774 90.7004C241.167 90.467 241.611 90.3504 242.104 90.3504C242.657 90.3504 243.121 90.4804 243.494 90.7404C243.874 90.9937 244.144 91.3337 244.304 91.7604L243.534 92.0804C243.407 91.767 243.217 91.5304 242.964 91.3704C242.717 91.2037 242.417 91.1204 242.064 91.1204C241.764 91.1204 241.484 91.2037 241.224 91.3704C240.964 91.5304 240.754 91.757 240.594 92.0504C240.441 92.3437 240.364 92.6804 240.364 93.0604C240.364 93.4404 240.441 93.777 240.594 94.0704C240.754 94.3637 240.964 94.5937 241.224 94.7604C241.484 94.9204 241.764 95.0004 242.064 95.0004C242.424 95.0004 242.734 94.917 242.994 94.7504C243.254 94.5837 243.447 94.347 243.574 94.0404L244.334 94.3604C244.161 94.7804 243.881 95.1204 243.494 95.3804C243.114 95.6404 242.651 95.7704 242.104 95.7704ZM245.253 88.4504H246.103V90.5604L246.063 91.2604H246.103C246.243 91.0004 246.463 90.7837 246.763 90.6104C247.07 90.437 247.403 90.3504 247.763 90.3504C248.383 90.3504 248.856 90.5337 249.183 90.9004C249.51 91.2604 249.673 91.7404 249.673 92.3404V95.6104H248.823V92.4704C248.823 92.0104 248.706 91.6704 248.473 91.4504C248.24 91.2304 247.936 91.1204 247.563 91.1204C247.296 91.1204 247.05 91.2004 246.823 91.3604C246.603 91.5204 246.426 91.727 246.293 91.9804C246.166 92.2337 246.103 92.497 246.103 92.7704V95.6104H245.253V88.4504ZM250.898 90.5104H251.708V91.2604H251.748C251.888 91.007 252.111 90.7937 252.418 90.6204C252.724 90.4404 253.051 90.3504 253.398 90.3504C254.011 90.3504 254.478 90.5304 254.798 90.8904C255.124 91.2437 255.288 91.727 255.288 92.3404V95.6104H254.438V92.4704C254.438 91.997 254.324 91.6537 254.098 91.4404C253.871 91.227 253.561 91.1204 253.168 91.1204C252.894 91.1204 252.648 91.197 252.428 91.3504C252.214 91.5037 252.048 91.707 251.928 91.9604C251.808 92.207 251.748 92.467 251.748 92.7404V95.6104H250.898V90.5104ZM258.853 95.7704C258.353 95.7704 257.903 95.6504 257.503 95.4104C257.103 95.1704 256.79 94.8437 256.563 94.4304C256.343 94.017 256.233 93.5604 256.233 93.0604C256.233 92.5604 256.343 92.1037 256.563 91.6904C256.79 91.277 257.103 90.9504 257.503 90.7104C257.903 90.4704 258.353 90.3504 258.853 90.3504C259.353 90.3504 259.803 90.4704 260.203 90.7104C260.603 90.9504 260.913 91.277 261.133 91.6904C261.36 92.1037 261.473 92.5604 261.473 93.0604C261.473 93.5604 261.36 94.017 261.133 94.4304C260.913 94.8437 260.603 95.1704 260.203 95.4104C259.803 95.6504 259.353 95.7704 258.853 95.7704ZM258.853 95.0004C259.166 95.0004 259.456 94.9237 259.723 94.7704C259.996 94.6104 260.213 94.3837 260.373 94.0904C260.54 93.797 260.623 93.4537 260.623 93.0604C260.623 92.667 260.54 92.3237 260.373 92.0304C260.213 91.737 259.996 91.5137 259.723 91.3604C259.456 91.2004 259.166 91.1204 258.853 91.1204C258.54 91.1204 258.246 91.2004 257.973 91.3604C257.7 91.5137 257.48 91.737 257.313 92.0304C257.153 92.3237 257.073 92.667 257.073 93.0604C257.073 93.4537 257.153 93.797 257.313 94.0904C257.48 94.3837 257.7 94.6104 257.973 94.7704C258.246 94.9237 258.54 95.0004 258.853 95.0004ZM262.411 88.4504H263.261V95.6104H262.411V88.4504ZM266.822 95.7704C266.322 95.7704 265.872 95.6504 265.472 95.4104C265.072 95.1704 264.758 94.8437 264.532 94.4304C264.312 94.017 264.202 93.5604 264.202 93.0604C264.202 92.5604 264.312 92.1037 264.532 91.6904C264.758 91.277 265.072 90.9504 265.472 90.7104C265.872 90.4704 266.322 90.3504 266.822 90.3504C267.322 90.3504 267.772 90.4704 268.172 90.7104C268.572 90.9504 268.882 91.277 269.102 91.6904C269.328 92.1037 269.442 92.5604 269.442 93.0604C269.442 93.5604 269.328 94.017 269.102 94.4304C268.882 94.8437 268.572 95.1704 268.172 95.4104C267.772 95.6504 267.322 95.7704 266.822 95.7704ZM266.822 95.0004C267.135 95.0004 267.425 94.9237 267.692 94.7704C267.965 94.6104 268.182 94.3837 268.342 94.0904C268.508 93.797 268.592 93.4537 268.592 93.0604C268.592 92.667 268.508 92.3237 268.342 92.0304C268.182 91.737 267.965 91.5137 267.692 91.3604C267.425 91.2004 267.135 91.1204 266.822 91.1204C266.508 91.1204 266.215 91.2004 265.942 91.3604C265.668 91.5137 265.448 91.737 265.282 92.0304C265.122 92.3237 265.042 92.667 265.042 93.0604C265.042 93.4537 265.122 93.797 265.282 94.0904C265.448 94.3837 265.668 94.6104 265.942 94.7704C266.215 94.9237 266.508 95.0004 266.822 95.0004ZM272.669 97.9304C272.069 97.9304 271.572 97.7904 271.179 97.5104C270.792 97.2304 270.532 96.8937 270.399 96.5004L271.169 96.1704C271.282 96.4637 271.469 96.7004 271.729 96.8804C271.995 97.067 272.309 97.1604 272.669 97.1604C273.195 97.1604 273.602 97.007 273.889 96.7004C274.182 96.3937 274.329 95.9604 274.329 95.4004V94.8304H274.289C274.122 95.0904 273.885 95.3037 273.579 95.4704C273.279 95.6304 272.935 95.7104 272.549 95.7104C272.109 95.7104 271.705 95.597 271.339 95.3704C270.979 95.1437 270.692 94.827 270.479 94.4204C270.265 94.0137 270.159 93.5504 270.159 93.0304C270.159 92.517 270.265 92.057 270.479 91.6504C270.692 91.237 270.979 90.917 271.339 90.6904C271.705 90.4637 272.109 90.3504 272.549 90.3504C272.935 90.3504 273.279 90.4337 273.579 90.6004C273.885 90.7604 274.122 90.9737 274.289 91.2404H274.329V90.5104H275.139V95.4104C275.139 96.2304 274.912 96.8537 274.459 97.2804C274.005 97.7137 273.409 97.9304 272.669 97.9304ZM272.669 94.9404C272.975 94.9404 273.252 94.8637 273.499 94.7104C273.752 94.557 273.952 94.337 274.099 94.0504C274.252 93.7637 274.329 93.4237 274.329 93.0304C274.329 92.6304 274.252 92.287 274.099 92.0004C273.952 91.7137 273.752 91.497 273.499 91.3504C273.252 91.197 272.975 91.1204 272.669 91.1204C272.362 91.1204 272.082 91.197 271.829 91.3504C271.575 91.5037 271.372 91.7237 271.219 92.0104C271.072 92.297 270.999 92.637 270.999 93.0304C270.999 93.4237 271.072 93.767 271.219 94.0604C271.372 94.347 271.575 94.567 271.829 94.7204C272.082 94.867 272.362 94.9404 272.669 94.9404ZM277.956 95.2904L275.846 90.5104H276.766L278.366 94.3004H278.386L279.926 90.5104H280.846L277.696 97.7704H276.816L277.956 95.2904Z" fill="#616161"/>
</svg>
