<svg width="304" height="120" viewBox="0 0 304 120" fill="none" xmlns="http://www.w3.org/2000/svg">
<rect width="304" height="120" rx="6" fill="#E8EAED"/>
<path d="M34.0871 75.1403C32.9783 75.1403 31.9564 74.874 31.0216 74.3413C30.0867 73.8086 29.342 73.0803 28.7876 72.1563C28.2441 71.2214 27.9723 70.1833 27.9723 69.0418C27.9723 67.9004 28.2441 66.8677 28.7876 65.9437C29.342 65.0088 30.0867 64.275 31.0216 63.7424C31.9564 63.2097 32.9783 62.9434 34.0871 62.9434C34.9676 62.9434 35.7884 63.101 36.5493 63.4163C37.3102 63.7315 37.9462 64.1718 38.4571 64.737L37.1852 66.0089C36.8048 65.585 36.3482 65.2588 35.8155 65.0306C35.2937 64.8023 34.7122 64.6881 34.0708 64.6881C33.3207 64.6881 32.6195 64.8675 31.9673 65.2262C31.3151 65.585 30.7933 66.0959 30.4019 66.759C30.0106 67.4221 29.8149 68.1831 29.8149 69.0418C29.8149 69.9006 30.0106 70.6616 30.4019 71.3247C30.7933 71.9878 31.3151 72.4987 31.9673 72.8574C32.6195 73.2162 33.3261 73.3955 34.0871 73.3955C34.7828 73.3955 35.3644 73.2923 35.8318 73.0857C36.2993 72.8792 36.7178 72.602 37.0874 72.2541C37.3266 72.015 37.5277 71.716 37.6907 71.3573C37.8647 70.9986 37.9788 70.6072 38.0332 70.1833H34.0708V68.5527H39.7616C39.8159 68.857 39.8431 69.1723 39.8431 69.4984C39.8431 70.2376 39.729 70.9496 39.5007 71.6345C39.2724 72.3085 38.9082 72.8955 38.4082 73.3955C37.3102 74.5587 35.8699 75.1403 34.0871 75.1403ZM45.4753 75.1403C44.6383 75.1403 43.8882 74.9501 43.2251 74.5696C42.562 74.1782 42.0456 73.6456 41.676 72.9716C41.3064 72.2976 41.1216 71.5475 41.1216 70.7214C41.1216 69.8952 41.3064 69.1451 41.676 68.4711C42.0456 67.7971 42.562 67.2699 43.2251 66.8894C43.8882 66.4981 44.6383 66.3024 45.4753 66.3024C46.3124 66.3024 47.0624 66.4981 47.7256 66.8894C48.3887 67.2808 48.905 67.8134 49.2746 68.4874C49.6442 69.1614 49.829 69.9061 49.829 70.7214C49.829 71.5475 49.6442 72.2976 49.2746 72.9716C48.905 73.6456 48.3887 74.1782 47.7256 74.5696C47.0624 74.9501 46.3124 75.1403 45.4753 75.1403ZM45.4753 73.4934C45.9319 73.4934 46.3559 73.3847 46.7472 73.1673C47.1385 72.939 47.4484 72.6183 47.6766 72.2052C47.9158 71.7812 48.0354 71.2866 48.0354 70.7214C48.0354 70.1561 47.9158 69.6669 47.6766 69.2538C47.4484 68.8407 47.1385 68.5255 46.7472 68.3081C46.3559 68.0798 45.9319 67.9656 45.4753 67.9656C45.0188 67.9656 44.5948 68.0798 44.2035 68.3081C43.8121 68.5255 43.4969 68.8407 43.2577 69.2538C43.0294 69.6669 42.9153 70.1561 42.9153 70.7214C42.9153 71.2866 43.0294 71.7812 43.2577 72.2052C43.4969 72.6183 43.8121 72.939 44.2035 73.1673C44.5948 73.3847 45.0188 73.4934 45.4753 73.4934ZM55.38 75.1403C54.5429 75.1403 53.7928 74.9501 53.1297 74.5696C52.4666 74.1782 51.9503 73.6456 51.5807 72.9716C51.2111 72.2976 51.0263 71.5475 51.0263 70.7214C51.0263 69.8952 51.2111 69.1451 51.5807 68.4711C51.9503 67.7971 52.4666 67.2699 53.1297 66.8894C53.7928 66.4981 54.5429 66.3024 55.38 66.3024C56.217 66.3024 56.9671 66.4981 57.6302 66.8894C58.2933 67.2808 58.8097 67.8134 59.1793 68.4874C59.5489 69.1614 59.7337 69.9061 59.7337 70.7214C59.7337 71.5475 59.5489 72.2976 59.1793 72.9716C58.8097 73.6456 58.2933 74.1782 57.6302 74.5696C56.9671 74.9501 56.217 75.1403 55.38 75.1403ZM55.38 73.4934C55.8365 73.4934 56.2605 73.3847 56.6518 73.1673C57.0432 72.939 57.353 72.6183 57.5813 72.2052C57.8204 71.7812 57.94 71.2866 57.94 70.7214C57.94 70.1561 57.8204 69.6669 57.5813 69.2538C57.353 68.8407 57.0432 68.5255 56.6518 68.3081C56.2605 68.0798 55.8365 67.9656 55.38 67.9656C54.9234 67.9656 54.4994 68.0798 54.1081 68.3081C53.7167 68.5255 53.4015 68.8407 53.1623 69.2538C52.9341 69.6669 52.8199 70.1561 52.8199 70.7214C52.8199 71.2866 52.9341 71.7812 53.1623 72.2052C53.4015 72.6183 53.7167 72.939 54.1081 73.1673C54.4994 73.3847 54.9234 73.4934 55.38 73.4934ZM65.1378 78.6624C64.116 78.6624 63.2681 78.4287 62.5941 77.9612C61.931 77.4938 61.4853 76.9394 61.257 76.298L62.9365 75.5969C63.1105 76.0317 63.3877 76.3795 63.7681 76.6404C64.1595 76.9122 64.6161 77.0481 65.1378 77.0481C65.8988 77.0481 66.4912 76.8198 66.9152 76.3632C67.35 75.9175 67.5674 75.287 67.5674 74.4717V73.7054H67.4696C67.1978 74.0967 66.8337 74.4065 66.3771 74.6348C65.9314 74.8522 65.4151 74.9609 64.828 74.9609C64.1323 74.9609 63.4855 74.7816 62.8876 74.4228C62.2897 74.0641 61.8114 73.5586 61.4527 72.9064C61.1048 72.2433 60.9309 71.4877 60.9309 70.6398C60.9309 69.7919 61.1048 69.0418 61.4527 68.3896C61.8114 67.7265 62.2897 67.2156 62.8876 66.8568C63.4855 66.4872 64.1323 66.3024 64.828 66.3024C65.4042 66.3024 65.9205 66.4166 66.3771 66.6448C66.8337 66.8731 67.1978 67.1829 67.4696 67.5743H67.5674V66.5633H69.2796V74.4228C69.2796 75.3251 69.1057 76.0915 68.7578 76.722C68.4099 77.3633 67.9207 77.8471 67.2902 78.1732C66.6706 78.4993 65.9532 78.6624 65.1378 78.6624ZM65.1542 73.3303C65.589 73.3303 65.9912 73.2271 66.3608 73.0205C66.7304 72.8031 67.0239 72.4933 67.2413 72.0911C67.4587 71.678 67.5674 71.1942 67.5674 70.6398C67.5674 69.7919 67.3337 69.1342 66.8663 68.6668C66.4097 68.1885 65.839 67.9493 65.1542 67.9493C64.7085 67.9493 64.3008 68.058 63.9312 68.2755C63.5616 68.482 63.2681 68.7864 63.0507 69.1886C62.8333 69.5908 62.7246 70.0746 62.7246 70.6398C62.7246 71.2051 62.8333 71.6888 63.0507 72.0911C63.2681 72.4933 63.5616 72.8031 63.9312 73.0205C64.3008 73.2271 64.7085 73.3303 65.1542 73.3303ZM71.3876 63.2043H73.1813V74.8794H71.3876V63.2043ZM79.0087 75.1403C78.1934 75.1403 77.4596 74.9501 76.8074 74.5696C76.166 74.1891 75.6605 73.6673 75.2909 73.0042C74.9322 72.3302 74.7528 71.5747 74.7528 70.7377C74.7528 69.9441 74.9267 69.2103 75.2746 68.5363C75.6333 67.8515 76.1279 67.308 76.7584 66.9057C77.3889 66.5035 78.1064 66.3024 78.9108 66.3024C79.7479 66.3024 80.4708 66.4872 81.0795 66.8568C81.6992 67.2264 82.1666 67.7319 82.4819 68.3733C82.808 69.0147 82.971 69.7376 82.971 70.542C82.971 70.6942 82.9547 70.8844 82.9221 71.1127H76.5465C76.6117 71.8845 76.8835 72.4824 77.3618 72.9064C77.8509 73.3195 78.4162 73.526 79.0576 73.526C79.5685 73.526 80.0088 73.4119 80.3784 73.1836C80.7589 72.9444 81.0632 72.6237 81.2915 72.2215L82.808 72.939C82.4166 73.6238 81.9057 74.1619 81.2752 74.5533C80.6447 74.9446 79.8892 75.1403 79.0087 75.1403ZM81.1448 69.743C81.123 69.4495 81.0306 69.1614 80.8676 68.8788C80.7045 68.5853 80.4545 68.3407 80.1175 68.145C79.7914 67.9493 79.3892 67.8515 78.9108 67.8515C78.3347 67.8515 77.8455 68.0254 77.4433 68.3733C77.052 68.7103 76.7802 69.1668 76.628 69.743H81.1448ZM88.7197 63.2043H92.4538C93.6604 63.2043 94.7149 63.4489 95.6171 63.938C96.5194 64.4272 97.2097 65.1175 97.688 66.0089C98.1772 66.8894 98.4218 67.9004 98.4218 69.0418C98.4218 70.1833 98.1772 71.1997 97.688 72.0911C97.2097 72.9716 96.5194 73.6564 95.6171 74.1456C94.7149 74.6348 93.6604 74.8794 92.4538 74.8794H88.7197V63.2043ZM92.4212 73.1346C93.7256 73.1346 94.742 72.7759 95.4704 72.0585C96.2096 71.3301 96.5792 70.3246 96.5792 69.0418C96.5792 67.77 96.2096 66.7699 95.4704 66.0415C94.742 65.3132 93.7256 64.949 92.4212 64.949H90.546V73.1346H92.4212ZM103.77 75.1403C102.955 75.1403 102.221 74.9501 101.569 74.5696C100.928 74.1891 100.422 73.6673 100.052 73.0042C99.6938 72.3302 99.5144 71.5747 99.5144 70.7377C99.5144 69.9441 99.6883 69.2103 100.036 68.5363C100.395 67.8515 100.89 67.308 101.52 66.9057C102.151 66.5035 102.868 66.3024 103.672 66.3024C104.509 66.3024 105.232 66.4872 105.841 66.8568C106.461 67.2264 106.928 67.7319 107.243 68.3733C107.57 69.0147 107.733 69.7376 107.733 70.542C107.733 70.6942 107.716 70.8844 107.684 71.1127H101.308C101.373 71.8845 101.645 72.4824 102.123 72.9064C102.613 73.3195 103.178 73.526 103.819 73.526C104.33 73.526 104.77 73.4119 105.14 73.1836C105.52 72.9444 105.825 72.6237 106.053 72.2215L107.57 72.939C107.178 73.6238 106.667 74.1619 106.037 74.5533C105.406 74.9446 104.651 75.1403 103.77 75.1403ZM105.906 69.743C105.885 69.4495 105.792 69.1614 105.629 68.8788C105.466 68.5853 105.216 68.3407 104.879 68.145C104.553 67.9493 104.151 67.8515 103.672 67.8515C103.096 67.8515 102.607 68.0254 102.205 68.3733C101.814 68.7103 101.542 69.1668 101.39 69.743H105.906ZM108.277 66.5633H110.283L112.582 72.5639H112.647L114.995 66.5633H116.952L113.495 74.8794H111.702L108.277 66.5633ZM121.669 75.1403C120.853 75.1403 120.12 74.9501 119.467 74.5696C118.826 74.1891 118.321 73.6673 117.951 73.0042C117.592 72.3302 117.413 71.5747 117.413 70.7377C117.413 69.9441 117.587 69.2103 117.935 68.5363C118.293 67.8515 118.788 67.308 119.418 66.9057C120.049 66.5035 120.766 66.3024 121.571 66.3024C122.408 66.3024 123.131 66.4872 123.74 66.8568C124.359 67.2264 124.827 67.7319 125.142 68.3733C125.468 69.0147 125.631 69.7376 125.631 70.542C125.631 70.6942 125.615 70.8844 125.582 71.1127H119.206C119.272 71.8845 119.543 72.4824 120.022 72.9064C120.511 73.3195 121.076 73.526 121.718 73.526C122.229 73.526 122.669 73.4119 123.038 73.1836C123.419 72.9444 123.723 72.6237 123.952 72.2215L125.468 72.939C125.077 73.6238 124.566 74.1619 123.935 74.5533C123.305 74.9446 122.549 75.1403 121.669 75.1403ZM123.805 69.743C123.783 69.4495 123.691 69.1614 123.528 68.8788C123.365 68.5853 123.114 68.3407 122.777 68.145C122.451 67.9493 122.049 67.8515 121.571 67.8515C120.995 67.8515 120.506 68.0254 120.103 68.3733C119.712 68.7103 119.44 69.1668 119.288 69.743H123.805ZM127.264 63.2043H129.058V74.8794H127.264V63.2043ZM134.983 75.1403C134.146 75.1403 133.396 74.9501 132.733 74.5696C132.07 74.1782 131.554 73.6456 131.184 72.9716C130.814 72.2976 130.63 71.5475 130.63 70.7214C130.63 69.8952 130.814 69.1451 131.184 68.4711C131.554 67.7971 132.07 67.2699 132.733 66.8894C133.396 66.4981 134.146 66.3024 134.983 66.3024C135.82 66.3024 136.57 66.4981 137.234 66.8894C137.897 67.2808 138.413 67.8134 138.783 68.4874C139.152 69.1614 139.337 69.9061 139.337 70.7214C139.337 71.5475 139.152 72.2976 138.783 72.9716C138.413 73.6456 137.897 74.1782 137.234 74.5696C136.57 74.9501 135.82 75.1403 134.983 75.1403ZM134.983 73.4934C135.44 73.4934 135.864 73.3847 136.255 73.1673C136.647 72.939 136.956 72.6183 137.185 72.2052C137.424 71.7812 137.543 71.2866 137.543 70.7214C137.543 70.1561 137.424 69.6669 137.185 69.2538C136.956 68.8407 136.647 68.5255 136.255 68.3081C135.864 68.0798 135.44 67.9656 134.983 67.9656C134.527 67.9656 134.103 68.0798 133.711 68.3081C133.32 68.5255 133.005 68.8407 132.766 69.2538C132.537 69.6669 132.423 70.1561 132.423 70.7214C132.423 71.2866 132.537 71.7812 132.766 72.2052C133.005 72.6183 133.32 72.939 133.711 73.1673C134.103 73.3847 134.527 73.4934 134.983 73.4934ZM140.846 66.5633H142.558V67.6558H142.64C142.879 67.2753 143.232 66.9547 143.7 66.6938C144.167 66.4329 144.694 66.3024 145.281 66.3024C146.031 66.3024 146.711 66.4927 147.319 66.8731C147.928 67.2536 148.407 67.7808 148.754 68.4548C149.113 69.1179 149.293 69.8734 149.293 70.7214C149.293 71.5693 149.113 72.3302 148.754 73.0042C148.407 73.6673 147.928 74.1891 147.319 74.5696C146.711 74.9501 146.031 75.1403 145.281 75.1403C144.694 75.1403 144.167 75.0098 143.7 74.7489C143.232 74.488 142.879 74.1728 142.64 73.8032H142.558L142.64 74.9609V78.4015H140.846V66.5633ZM145.02 73.4934C145.455 73.4934 145.863 73.3792 146.243 73.151C146.624 72.9227 146.928 72.5966 147.156 72.1726C147.385 71.7486 147.499 71.2649 147.499 70.7214C147.499 70.1778 147.385 69.6995 147.156 69.2864C146.928 68.8625 146.624 68.5363 146.243 68.3081C145.863 68.0798 145.455 67.9656 145.02 67.9656C144.586 67.9656 144.178 68.0798 143.797 68.3081C143.428 68.5363 143.129 68.8625 142.901 69.2864C142.672 69.6995 142.558 70.1778 142.558 70.7214C142.558 71.2649 142.672 71.7486 142.901 72.1726C143.129 72.5966 143.428 72.9227 143.797 73.151C144.178 73.3792 144.586 73.4934 145.02 73.4934ZM154.727 75.1403C153.911 75.1403 153.178 74.9501 152.525 74.5696C151.884 74.1891 151.378 73.6673 151.009 73.0042C150.65 72.3302 150.471 71.5747 150.471 70.7377C150.471 69.9441 150.645 69.2103 150.993 68.5363C151.351 67.8515 151.846 67.308 152.476 66.9057C153.107 66.5035 153.824 66.3024 154.629 66.3024C155.466 66.3024 156.189 66.4872 156.797 66.8568C157.417 67.2264 157.885 67.7319 158.2 68.3733C158.526 69.0147 158.689 69.7376 158.689 70.542C158.689 70.6942 158.673 70.8844 158.64 71.1127H152.264C152.33 71.8845 152.601 72.4824 153.08 72.9064C153.569 73.3195 154.134 73.526 154.776 73.526C155.286 73.526 155.727 73.4119 156.096 73.1836C156.477 72.9444 156.781 72.6237 157.009 72.2215L158.526 72.939C158.135 73.6238 157.624 74.1619 156.993 74.5533C156.363 74.9446 155.607 75.1403 154.727 75.1403ZM156.863 69.743C156.841 69.4495 156.749 69.1614 156.586 68.8788C156.422 68.5853 156.172 68.3407 155.835 68.145C155.509 67.9493 155.107 67.8515 154.629 67.8515C154.053 67.8515 153.563 68.0254 153.161 68.3733C152.77 68.7103 152.498 69.1668 152.346 69.743H156.863ZM160.322 66.5633H162.035V67.7863H162.116C162.301 67.3623 162.622 67.0145 163.078 66.7427C163.535 66.46 164.018 66.3187 164.529 66.3187C164.932 66.3187 165.269 66.3731 165.54 66.4818V68.3407C165.062 68.1667 164.633 68.0798 164.252 68.0798C163.839 68.0798 163.469 68.1885 163.143 68.4059C162.828 68.6233 162.578 68.9168 162.393 69.2864C162.208 69.6452 162.116 70.0419 162.116 70.4768V74.8794H160.322V66.5633ZM173.912 75.1403C172.944 75.1403 172.075 74.8577 171.303 74.2924C170.531 73.7271 169.998 72.9335 169.705 71.9117L171.433 71.2105C171.607 71.8519 171.912 72.3791 172.346 72.7922C172.792 73.1944 173.325 73.3955 173.944 73.3955C174.521 73.3955 175.01 73.2488 175.412 72.9553C175.814 72.6509 176.015 72.2378 176.015 71.716C176.015 71.2377 175.836 70.8464 175.477 70.542C175.129 70.2267 174.515 69.9115 173.635 69.5962L172.901 69.3353C172.118 69.0636 171.46 68.6722 170.928 68.1613C170.395 67.6504 170.129 66.9764 170.129 66.1394C170.129 65.5632 170.286 65.0306 170.602 64.5414C170.917 64.0522 171.352 63.6663 171.906 63.3836C172.471 63.0901 173.107 62.9434 173.814 62.9434C174.836 62.9434 175.651 63.1934 176.26 63.6935C176.869 64.1826 177.276 64.737 177.483 65.3567L175.836 66.0578C175.716 65.6882 175.488 65.3621 175.151 65.0795C174.814 64.7968 174.379 64.6555 173.847 64.6555C173.314 64.6555 172.863 64.7914 172.493 65.0632C172.134 65.3349 171.955 65.6828 171.955 66.1067C171.955 66.509 172.118 66.8405 172.444 67.1014C172.77 67.3623 173.281 67.6123 173.977 67.8515L174.711 68.0961C175.711 68.4439 176.483 68.9005 177.026 69.4658C177.581 70.0202 177.858 70.7648 177.858 71.6997C177.858 72.4607 177.662 73.102 177.271 73.6238C176.88 74.1348 176.379 74.5152 175.771 74.7653C175.173 75.0153 174.553 75.1403 173.912 75.1403ZM182.648 75.0098C182.278 75.0098 181.93 74.9501 181.604 74.8305C181.278 74.7109 181.012 74.5533 180.805 74.3576C180.338 73.8902 180.104 73.2542 180.104 72.4498V68.145H178.653V66.5633H180.104V64.2153H181.898V66.5633H183.92V68.145H181.898V72.0585C181.898 72.5041 181.985 72.8194 182.159 73.0042C182.322 73.2216 182.604 73.3303 183.007 73.3303C183.191 73.3303 183.354 73.3086 183.496 73.2651C183.637 73.2107 183.789 73.1292 183.952 73.0205V74.7653C183.594 74.9283 183.159 75.0098 182.648 75.0098ZM188.658 75.1403C187.647 75.1403 186.876 74.8413 186.343 74.2435C185.821 73.6347 185.56 72.7922 185.56 71.716V66.5633H187.354V71.4714C187.354 72.1454 187.511 72.6509 187.827 72.9879C188.153 73.3249 188.577 73.4934 189.099 73.4934C189.523 73.4934 189.898 73.3847 190.224 73.1673C190.55 72.939 190.8 72.64 190.974 72.2704C191.148 71.9008 191.235 71.504 191.235 71.0801V66.5633H193.028V74.8794H191.333V73.8032H191.235C191.006 74.1945 190.653 74.5152 190.175 74.7653C189.696 75.0153 189.191 75.1403 188.658 75.1403ZM198.591 75.1403C197.841 75.1403 197.162 74.9501 196.553 74.5696C195.944 74.1891 195.46 73.6673 195.102 73.0042C194.754 72.3302 194.58 71.5693 194.58 70.7214C194.58 69.8734 194.754 69.1179 195.102 68.4548C195.46 67.7808 195.944 67.2536 196.553 66.8731C197.162 66.4927 197.841 66.3024 198.591 66.3024C199.178 66.3024 199.705 66.4329 200.173 66.6938C200.64 66.9547 200.994 67.2753 201.233 67.6558H201.314L201.233 66.4818V63.2043H203.026V74.8794H201.314V73.8032H201.233C200.994 74.1728 200.64 74.488 200.173 74.7489C199.705 75.0098 199.178 75.1403 198.591 75.1403ZM198.852 73.4934C199.287 73.4934 199.689 73.3792 200.059 73.151C200.439 72.9227 200.744 72.5966 200.972 72.1726C201.2 71.7486 201.314 71.2649 201.314 70.7214C201.314 70.1778 201.2 69.6995 200.972 69.2864C200.744 68.8625 200.439 68.5363 200.059 68.3081C199.689 68.0798 199.287 67.9656 198.852 67.9656C198.417 67.9656 198.01 68.0798 197.629 68.3081C197.249 68.5363 196.944 68.8625 196.716 69.2864C196.488 69.6995 196.374 70.1778 196.374 70.7214C196.374 71.2649 196.488 71.7486 196.716 72.1726C196.944 72.5966 197.249 72.9227 197.629 73.151C198.01 73.3792 198.417 73.4934 198.852 73.4934ZM208.836 75.1403C208.021 75.1403 207.287 74.9501 206.635 74.5696C205.993 74.1891 205.488 73.6673 205.118 73.0042C204.759 72.3302 204.58 71.5747 204.58 70.7377C204.58 69.9441 204.754 69.2103 205.102 68.5363C205.461 67.8515 205.955 67.308 206.586 66.9057C207.216 66.5035 207.934 66.3024 208.738 66.3024C209.575 66.3024 210.298 66.4872 210.907 66.8568C211.526 67.2264 211.994 67.7319 212.309 68.3733C212.635 69.0147 212.798 69.7376 212.798 70.542C212.798 70.6942 212.782 70.8844 212.749 71.1127H206.374C206.439 71.8845 206.711 72.4824 207.189 72.9064C207.678 73.3195 208.243 73.526 208.885 73.526C209.396 73.526 209.836 73.4119 210.206 73.1836C210.586 72.9444 210.89 72.6237 211.119 72.2215L212.635 72.939C212.244 73.6238 211.733 74.1619 211.102 74.5533C210.472 74.9446 209.716 75.1403 208.836 75.1403ZM210.972 69.743C210.95 69.4495 210.858 69.1614 210.695 68.8788C210.532 68.5853 210.282 68.3407 209.945 68.145C209.619 67.9493 209.216 67.8515 208.738 67.8515C208.162 67.8515 207.673 68.0254 207.271 68.3733C206.879 68.7103 206.607 69.1668 206.455 69.743H210.972ZM214.432 66.5633H216.144V67.6558H216.225C216.464 67.2645 216.818 66.9438 217.285 66.6938C217.764 66.4329 218.269 66.3024 218.802 66.3024C219.813 66.3024 220.579 66.6014 221.101 67.1993C221.633 67.7863 221.9 68.5907 221.9 69.6125V74.8794H220.106V69.8571C220.106 69.2049 219.943 68.7266 219.617 68.4222C219.302 68.1178 218.861 67.9656 218.296 67.9656C217.894 67.9656 217.535 68.0798 217.22 68.3081C216.905 68.5255 216.66 68.819 216.486 69.1886C216.312 69.5582 216.225 69.955 216.225 70.3789V74.8794H214.432V66.5633ZM226.916 75.0098C226.547 75.0098 226.199 74.9501 225.873 74.8305C225.547 74.7109 225.28 74.5533 225.074 74.3576C224.606 73.8902 224.372 73.2542 224.372 72.4498V68.145H222.921V66.5633H224.372V64.2153H226.166V66.5633H228.188V68.145H226.166V72.0585C226.166 72.5041 226.253 72.8194 226.427 73.0042C226.59 73.2216 226.873 73.3303 227.275 73.3303C227.46 73.3303 227.623 73.3086 227.764 73.2651C227.905 73.2107 228.058 73.1292 228.221 73.0205V74.7653C227.862 74.9283 227.427 75.0098 226.916 75.0098ZM239.202 75.1403C238.071 75.1403 237.039 74.874 236.104 74.3413C235.169 73.8086 234.435 73.0749 233.902 72.14C233.37 71.2051 233.103 70.1724 233.103 69.0418C233.103 67.9113 233.37 66.8786 233.902 65.9437C234.435 65.0088 235.169 64.275 236.104 63.7424C237.039 63.2097 238.071 62.9434 239.202 62.9434C240.082 62.9434 240.881 63.1064 241.599 63.4326C242.327 63.7587 242.969 64.2316 243.523 64.8512L242.219 66.1067C241.816 65.6284 241.371 65.2751 240.881 65.0469C240.392 64.8077 239.832 64.6881 239.202 64.6881C238.419 64.6881 237.702 64.8675 237.05 65.2262C236.408 65.585 235.897 66.0959 235.517 66.759C235.136 67.4112 234.946 68.1722 234.946 69.0418C234.946 69.9115 235.136 70.6779 235.517 71.341C235.897 71.9932 236.408 72.4987 237.05 72.8574C237.702 73.2162 238.419 73.3955 239.202 73.3955C240.506 73.3955 241.615 72.852 242.528 71.7649L243.849 73.0368C243.284 73.6999 242.604 74.2163 241.811 74.5859C241.017 74.9555 240.148 75.1403 239.202 75.1403ZM245.435 63.2043H247.229V74.8794H245.435V63.2043ZM252.37 75.1403C251.359 75.1403 250.587 74.8413 250.054 74.2435C249.532 73.6347 249.272 72.7922 249.272 71.716V66.5633H251.065V71.4714C251.065 72.1454 251.223 72.6509 251.538 72.9879C251.864 73.3249 252.288 73.4934 252.81 73.4934C253.234 73.4934 253.609 73.3847 253.935 73.1673C254.261 72.939 254.511 72.64 254.685 72.2704C254.859 71.9008 254.946 71.504 254.946 71.0801V66.5633H256.74V74.8794H255.044V73.8032H254.946C254.718 74.1945 254.364 74.5152 253.886 74.7653C253.408 75.0153 252.902 75.1403 252.37 75.1403ZM263.263 75.1403C262.676 75.1403 262.148 75.0098 261.681 74.7489C261.213 74.488 260.86 74.1728 260.621 73.8032H260.54V74.8794H258.827V63.2043H260.621V66.4818L260.54 67.6558H260.621C260.86 67.2753 261.213 66.9547 261.681 66.6938C262.148 66.4329 262.676 66.3024 263.263 66.3024C264.013 66.3024 264.692 66.4927 265.301 66.8731C265.91 67.2536 266.388 67.7808 266.736 68.4548C267.095 69.1179 267.274 69.8734 267.274 70.7214C267.274 71.5693 267.095 72.3302 266.736 73.0042C266.388 73.6673 265.91 74.1891 265.301 74.5696C264.692 74.9501 264.013 75.1403 263.263 75.1403ZM263.002 73.4934C263.437 73.4934 263.844 73.3792 264.225 73.151C264.605 72.9227 264.91 72.5966 265.138 72.1726C265.366 71.7486 265.48 71.2649 265.48 70.7214C265.48 70.1778 265.366 69.6995 265.138 69.2864C264.91 68.8625 264.605 68.5363 264.225 68.3081C263.844 68.0798 263.437 67.9656 263.002 67.9656C262.567 67.9656 262.159 68.0798 261.779 68.3081C261.409 68.5363 261.11 68.8625 260.882 69.2864C260.654 69.6995 260.54 70.1778 260.54 70.7214C260.54 71.2649 260.654 71.7486 260.882 72.1726C261.11 72.5966 261.409 72.9227 261.779 73.151C262.159 73.3792 262.567 73.4934 263.002 73.4934ZM271.86 75.1403C270.904 75.1403 270.121 74.9337 269.512 74.5207C268.904 74.0967 268.474 73.5586 268.224 72.9064L269.822 72.2052C270.018 72.64 270.29 72.9716 270.638 73.1999C270.996 73.4282 271.404 73.5423 271.86 73.5423C272.306 73.5423 272.681 73.4662 272.986 73.314C273.29 73.151 273.442 72.9118 273.442 72.5966C273.442 72.2922 273.312 72.053 273.051 71.8791C272.79 71.7052 272.388 71.553 271.844 71.4225L270.849 71.1779C270.186 71.0149 269.637 70.7268 269.203 70.3137C268.768 69.9006 268.55 69.3788 268.55 68.7483C268.55 68.2591 268.692 67.8298 268.974 67.4602C269.268 67.0905 269.659 66.8079 270.148 66.6122C270.638 66.4057 271.17 66.3024 271.746 66.3024C272.518 66.3024 273.198 66.46 273.785 66.7753C274.372 67.0797 274.796 67.5254 275.056 68.1124L273.491 68.7972C273.176 68.1559 272.6 67.8352 271.763 67.8352C271.36 67.8352 271.023 67.9167 270.752 68.0798C270.48 68.2428 270.344 68.4548 270.344 68.7157C270.344 68.9657 270.447 69.1723 270.654 69.3353C270.86 69.4875 271.165 69.618 271.567 69.7267L272.79 70.0365C273.605 70.243 274.219 70.5583 274.632 70.9823C275.056 71.3953 275.268 71.9063 275.268 72.515C275.268 73.0368 275.116 73.4988 274.812 73.901C274.518 74.2924 274.111 74.5968 273.589 74.8142C273.067 75.0316 272.491 75.1403 271.86 75.1403Z" fill="#616161"/>
<rect width="23.3115" height="7.81905" rx="3.90953" transform="matrix(-0.866025 0.5 0.5 0.866025 174.504 27.7881)" fill="#FBBC04"/>
<rect width="23.3115" height="7.81905" rx="3.90953" transform="matrix(0.866025 -0.5 -0.5 -0.866025 131.371 38.4272)" fill="#EA4335"/>
<rect x="131.041" y="27.7871" width="23.3115" height="7.81905" rx="3.90953" transform="rotate(30 131.041 27.7871)" fill="#4285F4"/>
<rect x="174.504" y="38.4272" width="23.3115" height="7.81905" rx="3.64648" transform="rotate(-150 174.504 38.4272)" fill="#0F9D58"/>
<path d="M31.6315 88.7344H32.5555V96.6104H31.6315V88.7344ZM34.13 91.0004H35.021V91.8254H35.065C35.219 91.5467 35.4647 91.312 35.802 91.1214C36.1393 90.9234 36.4987 90.8244 36.88 90.8244C37.5547 90.8244 38.068 91.0224 38.42 91.4184C38.7793 91.807 38.959 92.3387 38.959 93.0134V96.6104H38.024V93.1564C38.024 92.6357 37.8993 92.258 37.65 92.0234C37.4007 91.7887 37.0597 91.6714 36.627 91.6714C36.3263 91.6714 36.055 91.7557 35.813 91.9244C35.5783 92.093 35.395 92.3167 35.263 92.5954C35.131 92.8667 35.065 93.1527 35.065 93.4534V96.6104H34.13V91.0004ZM42.672 96.7864C42.1734 96.7864 41.7187 96.658 41.308 96.4014C40.9047 96.1447 40.5857 95.7927 40.351 95.3454C40.1164 94.8907 39.999 94.3774 39.999 93.8054C39.999 93.2407 40.1164 92.731 40.351 92.2764C40.5857 91.8217 40.9047 91.466 41.308 91.2094C41.7187 90.9527 42.1734 90.8244 42.672 90.8244C43.1047 90.8244 43.4897 90.9234 43.827 91.1214C44.1644 91.312 44.421 91.5504 44.597 91.8364H44.641L44.597 91.0554V88.7344H45.532V96.6104H44.641V95.7854H44.597C44.421 96.064 44.1644 96.3024 43.827 96.5004C43.4897 96.691 43.1047 96.7864 42.672 96.7864ZM42.782 95.9394C43.112 95.9394 43.4164 95.8514 43.695 95.6754C43.981 95.4994 44.2084 95.25 44.377 94.9274C44.553 94.6047 44.641 94.2307 44.641 93.8054C44.641 93.38 44.553 93.006 44.377 92.6834C44.2084 92.3607 43.981 92.1114 43.695 91.9354C43.4164 91.7594 43.112 91.6714 42.782 91.6714C42.4594 91.6714 42.155 91.7594 41.869 91.9354C41.583 92.1114 41.352 92.3644 41.176 92.6944C41.0074 93.017 40.923 93.3874 40.923 93.8054C40.923 94.2234 41.0074 94.5974 41.176 94.9274C41.352 95.25 41.583 95.4994 41.869 95.6754C42.155 95.8514 42.4594 95.9394 42.782 95.9394ZM47.4632 89.9664C47.2799 89.9664 47.1222 89.9004 46.9902 89.7684C46.8582 89.6364 46.7922 89.4787 46.7922 89.2954C46.7922 89.112 46.8582 88.958 46.9902 88.8334C47.1222 88.7014 47.2799 88.6354 47.4632 88.6354C47.6465 88.6354 47.8042 88.7014 47.9362 88.8334C48.0682 88.958 48.1342 89.112 48.1342 89.2954C48.1342 89.4787 48.0682 89.6364 47.9362 89.7684C47.8115 89.9004 47.6539 89.9664 47.4632 89.9664ZM47.0012 91.0004H47.9252V96.6104H47.0012V91.0004ZM51.1339 96.7864C50.7233 96.7864 50.3566 96.7057 50.0339 96.5444C49.7113 96.383 49.4619 96.163 49.2859 95.8844C49.1099 95.5984 49.0219 95.2757 49.0219 94.9164C49.0219 94.3224 49.2456 93.8604 49.6929 93.5304C50.1403 93.193 50.7049 93.0244 51.3869 93.0244C51.7243 93.0244 52.0359 93.061 52.3219 93.1344C52.6153 93.2077 52.8389 93.292 52.9929 93.3874V93.0464C52.9929 92.6284 52.8463 92.2947 52.5529 92.0454C52.2596 91.7887 51.8893 91.6604 51.4419 91.6604C51.1266 91.6604 50.8369 91.73 50.5729 91.8694C50.3089 92.0014 50.0999 92.1884 49.9459 92.4304L49.2419 91.9024C49.4619 91.565 49.7626 91.301 50.1439 91.1104C50.5326 90.9197 50.9616 90.8244 51.4309 90.8244C52.1936 90.8244 52.7913 91.026 53.2239 91.4294C53.6639 91.8254 53.8839 92.368 53.8839 93.0574V96.6104H52.9929V95.8074H52.9489C52.7876 96.0787 52.5456 96.3097 52.2229 96.5004C51.9003 96.691 51.5373 96.7864 51.1339 96.7864ZM51.2219 95.9614C51.5373 95.9614 51.8306 95.8807 52.1019 95.7194C52.3733 95.558 52.5896 95.3417 52.7509 95.0704C52.9123 94.799 52.9929 94.502 52.9929 94.1794C52.8169 94.062 52.6006 93.9667 52.3439 93.8934C52.0873 93.82 51.8159 93.7834 51.5299 93.7834C51.0166 93.7834 50.6279 93.8897 50.3639 94.1024C50.1073 94.315 49.9789 94.59 49.9789 94.9274C49.9789 95.2354 50.0963 95.4847 50.3309 95.6754C50.5656 95.866 50.8626 95.9614 51.2219 95.9614ZM55.1847 91.0004H56.0757V91.8254H56.1197C56.2737 91.5467 56.5194 91.312 56.8567 91.1214C57.194 90.9234 57.5534 90.8244 57.9347 90.8244C58.6094 90.8244 59.1227 91.0224 59.4747 91.4184C59.834 91.807 60.0137 92.3387 60.0137 93.0134V96.6104H59.0787V93.1564C59.0787 92.6357 58.954 92.258 58.7047 92.0234C58.4554 91.7887 58.1144 91.6714 57.6817 91.6714C57.381 91.6714 57.1097 91.7557 56.8677 91.9244C56.633 92.093 56.4497 92.3167 56.3177 92.5954C56.1857 92.8667 56.1197 93.1527 56.1197 93.4534V96.6104H55.1847V91.0004ZM64.0944 88.7344H65.0184V96.6104H64.0944V88.7344ZM66.5929 91.0004H67.4839V91.8254H67.5279C67.6819 91.5467 67.9276 91.312 68.2649 91.1214C68.6022 90.9234 68.9616 90.8244 69.3429 90.8244C70.0176 90.8244 70.5309 91.0224 70.8829 91.4184C71.2422 91.807 71.4219 92.3387 71.4219 93.0134V96.6104H70.4869V93.1564C70.4869 92.6357 70.3622 92.258 70.1129 92.0234C69.8636 91.7887 69.5226 91.6714 69.0899 91.6714C68.7892 91.6714 68.5179 91.7557 68.2759 91.9244C68.0412 92.093 67.8579 92.3167 67.7259 92.5954C67.5939 92.8667 67.5279 93.1527 67.5279 93.4534V96.6104H66.5929V91.0004ZM74.6632 96.7864C74.0619 96.7864 73.5595 96.647 73.1562 96.3684C72.7529 96.0824 72.4669 95.7194 72.2982 95.2794L73.1342 94.9054C73.2735 95.2427 73.4789 95.503 73.7502 95.6864C74.0289 95.8697 74.3332 95.9614 74.6632 95.9614C75.0152 95.9614 75.3159 95.8917 75.5652 95.7524C75.8145 95.6057 75.9392 95.4004 75.9392 95.1364C75.9392 94.9017 75.8402 94.7147 75.6422 94.5754C75.4442 94.4287 75.1325 94.304 74.7072 94.2014L74.0252 94.0254C73.5779 93.9154 73.2112 93.7284 72.9252 93.4644C72.6392 93.2004 72.4962 92.8594 72.4962 92.4414C72.4962 92.1187 72.5915 91.8364 72.7822 91.5944C72.9802 91.345 73.2405 91.1544 73.5632 91.0224C73.8859 90.8904 74.2342 90.8244 74.6082 90.8244C75.0995 90.8244 75.5359 90.9307 75.9172 91.1434C76.3059 91.356 76.5809 91.653 76.7422 92.0344L75.9282 92.4084C75.6789 91.9097 75.2352 91.6604 74.5972 91.6604C74.2892 91.6604 74.0179 91.7337 73.7832 91.8804C73.5559 92.0197 73.4422 92.1994 73.4422 92.4194C73.4422 92.6247 73.5229 92.7934 73.6842 92.9254C73.8455 93.05 74.0875 93.1527 74.4102 93.2334L75.2242 93.4424C75.7742 93.5817 76.1885 93.7907 76.4672 94.0694C76.7459 94.3407 76.8852 94.6744 76.8852 95.0704C76.8852 95.415 76.7862 95.7194 76.5882 95.9834C76.3902 96.24 76.1225 96.438 75.7852 96.5774C75.4479 96.7167 75.0739 96.7864 74.6632 96.7864ZM80.0067 96.6984C79.7794 96.6984 79.5667 96.6617 79.3687 96.5884C79.178 96.515 79.0167 96.416 78.8847 96.2914C78.738 96.152 78.628 95.9907 78.5547 95.8074C78.4814 95.624 78.4447 95.4004 78.4447 95.1364V91.8474H77.4657V91.0004H78.4447V89.4164H79.3797V91.0004H80.7437V91.8474H79.3797V94.9054C79.3797 95.2134 79.4384 95.4407 79.5557 95.5874C79.695 95.7487 79.8967 95.8294 80.1607 95.8294C80.3734 95.8294 80.5787 95.767 80.7767 95.6424V96.5554C80.6667 96.6067 80.553 96.6434 80.4357 96.6654C80.3257 96.6874 80.1827 96.6984 80.0067 96.6984ZM82.4827 89.9664C82.2994 89.9664 82.1417 89.9004 82.0097 89.7684C81.8777 89.6364 81.8117 89.4787 81.8117 89.2954C81.8117 89.112 81.8777 88.958 82.0097 88.8334C82.1417 88.7014 82.2994 88.6354 82.4827 88.6354C82.6661 88.6354 82.8237 88.7014 82.9557 88.8334C83.0877 88.958 83.1537 89.112 83.1537 89.2954C83.1537 89.4787 83.0877 89.6364 82.9557 89.7684C82.8311 89.9004 82.6734 89.9664 82.4827 89.9664ZM82.0207 91.0004H82.9447V96.6104H82.0207V91.0004ZM86.5165 96.6984C86.2891 96.6984 86.0765 96.6617 85.8785 96.5884C85.6878 96.515 85.5265 96.416 85.3945 96.2914C85.2478 96.152 85.1378 95.9907 85.0645 95.8074C84.9911 95.624 84.9545 95.4004 84.9545 95.1364V91.8474H83.9755V91.0004H84.9545V89.4164H85.8895V91.0004H87.2535V91.8474H85.8895V94.9054C85.8895 95.2134 85.9481 95.4407 86.0655 95.5874C86.2048 95.7487 86.4065 95.8294 86.6705 95.8294C86.8831 95.8294 87.0885 95.767 87.2865 95.6424V96.5554C87.1765 96.6067 87.0628 96.6434 86.9455 96.6654C86.8355 96.6874 86.6925 96.6984 86.5165 96.6984ZM90.4238 96.7864C89.7491 96.7864 89.2321 96.5884 88.8728 96.1924C88.5208 95.7964 88.3448 95.2427 88.3448 94.5314V91.0004H89.2798V94.3884C89.2798 94.9237 89.4008 95.316 89.6428 95.5654C89.8848 95.8147 90.2111 95.9394 90.6218 95.9394C90.9371 95.9394 91.2158 95.855 91.4578 95.6864C91.7071 95.5177 91.8978 95.2977 92.0298 95.0264C92.1691 94.755 92.2388 94.469 92.2388 94.1684V91.0004H93.1738V96.6104H92.2828V95.7964H92.2388C92.0848 96.075 91.8391 96.3097 91.5018 96.5004C91.1645 96.691 90.8051 96.7864 90.4238 96.7864ZM96.7645 96.6984C96.5372 96.6984 96.3245 96.6617 96.1265 96.5884C95.9359 96.515 95.7745 96.416 95.6425 96.2914C95.4959 96.152 95.3859 95.9907 95.3125 95.8074C95.2392 95.624 95.2025 95.4004 95.2025 95.1364V91.8474H94.2235V91.0004H95.2025V89.4164H96.1375V91.0004H97.5015V91.8474H96.1375V94.9054C96.1375 95.2134 96.1962 95.4407 96.3135 95.5874C96.4529 95.7487 96.6545 95.8294 96.9185 95.8294C97.1312 95.8294 97.3365 95.767 97.5345 95.6424V96.5554C97.4245 96.6067 97.3109 96.6434 97.1935 96.6654C97.0835 96.6874 96.9405 96.6984 96.7645 96.6984ZM100.887 96.7864C100.351 96.7864 99.8711 96.658 99.4458 96.4014C99.0204 96.1447 98.6868 95.7927 98.4448 95.3454C98.2101 94.8907 98.0928 94.381 98.0928 93.8164C98.0928 93.2737 98.2028 92.775 98.4228 92.3204C98.6501 91.8657 98.9691 91.5027 99.3798 91.2314C99.7904 90.96 100.267 90.8244 100.81 90.8244C101.36 90.8244 101.836 90.949 102.24 91.1984C102.643 91.4404 102.951 91.7777 103.164 92.2104C103.384 92.643 103.494 93.138 103.494 93.6954C103.494 93.8054 103.483 93.9007 103.461 93.9814H99.0278C99.0498 94.4067 99.1524 94.766 99.3358 95.0594C99.5191 95.3527 99.7501 95.5727 100.029 95.7194C100.315 95.866 100.612 95.9394 100.92 95.9394C101.638 95.9394 102.192 95.602 102.581 94.9274L103.373 95.3124C103.131 95.767 102.801 96.1264 102.383 96.3904C101.972 96.6544 101.473 96.7864 100.887 96.7864ZM102.504 93.2114C102.489 92.9767 102.423 92.742 102.306 92.5074C102.188 92.2727 102.001 92.0747 101.745 91.9134C101.495 91.752 101.18 91.6714 100.799 91.6714C100.359 91.6714 99.9848 91.8144 99.6768 92.1004C99.3761 92.379 99.1781 92.7494 99.0828 93.2114H102.504ZM109.73 96.7864C109.18 96.7864 108.685 96.6544 108.245 96.3904C107.805 96.1264 107.46 95.767 107.211 95.3124C106.969 94.8577 106.848 94.3554 106.848 93.8054C106.848 93.2554 106.969 92.753 107.211 92.2984C107.46 91.8437 107.805 91.4844 108.245 91.2204C108.685 90.9564 109.18 90.8244 109.73 90.8244C110.28 90.8244 110.775 90.9564 111.215 91.2204C111.655 91.4844 111.996 91.8437 112.238 92.2984C112.487 92.753 112.612 93.2554 112.612 93.8054C112.612 94.3554 112.487 94.8577 112.238 95.3124C111.996 95.767 111.655 96.1264 111.215 96.3904C110.775 96.6544 110.28 96.7864 109.73 96.7864ZM109.73 95.9394C110.074 95.9394 110.393 95.855 110.687 95.6864C110.987 95.5104 111.226 95.261 111.402 94.9384C111.585 94.6157 111.677 94.238 111.677 93.8054C111.677 93.3727 111.585 92.995 111.402 92.6724C111.226 92.3497 110.987 92.104 110.687 91.9354C110.393 91.7594 110.074 91.6714 109.73 91.6714C109.385 91.6714 109.062 91.7594 108.762 91.9354C108.461 92.104 108.219 92.3497 108.036 92.6724C107.86 92.995 107.772 93.3727 107.772 93.8054C107.772 94.238 107.86 94.6157 108.036 94.9384C108.219 95.261 108.461 95.5104 108.762 95.6864C109.062 95.855 109.385 95.9394 109.73 95.9394ZM114.185 91.8474H113.151V91.0004H114.185V90.3954C114.185 90.0434 114.266 89.7354 114.427 89.4714C114.589 89.2074 114.805 89.0057 115.076 88.8664C115.348 88.7197 115.648 88.6464 115.978 88.6464C116.294 88.6464 116.569 88.6904 116.803 88.7784V89.6914C116.671 89.64 116.547 89.5997 116.429 89.5704C116.312 89.5337 116.173 89.5154 116.011 89.5154C115.769 89.5154 115.56 89.6034 115.384 89.7794C115.208 89.948 115.12 90.1864 115.12 90.4944V91.0004H116.561V91.8474H115.12V96.6104H114.185V91.8474ZM120.448 88.7344H121.372V96.6104H120.448V88.7344ZM122.946 91.0004H123.837V91.8254H123.881C124.035 91.5467 124.281 91.312 124.618 91.1214C124.956 90.9234 125.315 90.8244 125.696 90.8244C126.371 90.8244 126.884 91.0224 127.236 91.4184C127.596 91.807 127.775 92.3387 127.775 93.0134V96.6104H126.84V93.1564C126.84 92.6357 126.716 92.258 126.466 92.0234C126.217 91.7887 125.876 91.6714 125.443 91.6714C125.143 91.6714 124.871 91.7557 124.629 91.9244C124.395 92.093 124.211 92.3167 124.079 92.5954C123.947 92.8667 123.881 93.1527 123.881 93.4534V96.6104H122.946V91.0004ZM129.654 91.8474H128.62V91.0004H129.654V90.3954C129.654 90.0434 129.735 89.7354 129.896 89.4714C130.057 89.2074 130.274 89.0057 130.545 88.8664C130.816 88.7197 131.117 88.6464 131.447 88.6464C131.762 88.6464 132.037 88.6904 132.272 88.7784V89.6914C132.14 89.64 132.015 89.5997 131.898 89.5704C131.781 89.5337 131.641 89.5154 131.48 89.5154C131.238 89.5154 131.029 89.6034 130.853 89.7794C130.677 89.948 130.589 90.1864 130.589 90.4944V91.0004H132.03V91.8474H130.589V96.6104H129.654V91.8474ZM135.414 96.7864C134.864 96.7864 134.369 96.6544 133.929 96.3904C133.489 96.1264 133.145 95.767 132.895 95.3124C132.653 94.8577 132.532 94.3554 132.532 93.8054C132.532 93.2554 132.653 92.753 132.895 92.2984C133.145 91.8437 133.489 91.4844 133.929 91.2204C134.369 90.9564 134.864 90.8244 135.414 90.8244C135.964 90.8244 136.459 90.9564 136.899 91.2204C137.339 91.4844 137.68 91.8437 137.922 92.2984C138.172 92.753 138.296 93.2554 138.296 93.8054C138.296 94.3554 138.172 94.8577 137.922 95.3124C137.68 95.767 137.339 96.1264 136.899 96.3904C136.459 96.6544 135.964 96.7864 135.414 96.7864ZM135.414 95.9394C135.759 95.9394 136.078 95.855 136.371 95.6864C136.672 95.5104 136.91 95.261 137.086 94.9384C137.27 94.6157 137.361 94.238 137.361 93.8054C137.361 93.3727 137.27 92.995 137.086 92.6724C136.91 92.3497 136.672 92.104 136.371 91.9354C136.078 91.7594 135.759 91.6714 135.414 91.6714C135.07 91.6714 134.747 91.7594 134.446 91.9354C134.146 92.104 133.904 92.3497 133.72 92.6724C133.544 92.995 133.456 93.3727 133.456 93.8054C133.456 94.238 133.544 94.6157 133.72 94.9384C133.904 95.261 134.146 95.5104 134.446 95.6864C134.747 95.855 135.07 95.9394 135.414 95.9394ZM139.275 91.0004H140.166V91.9024H140.21C140.32 91.5944 140.532 91.3414 140.848 91.1434C141.163 90.938 141.493 90.8354 141.838 90.8354C142.094 90.8354 142.314 90.872 142.498 90.9454V91.9574C142.263 91.84 141.999 91.7814 141.706 91.7814C141.434 91.7814 141.185 91.8584 140.958 92.0124C140.73 92.1664 140.547 92.3754 140.408 92.6394C140.276 92.896 140.21 93.1747 140.21 93.4754V96.6104H139.275V91.0004ZM143.4 91.0004H144.291V91.8254H144.335C144.496 91.5394 144.738 91.301 145.061 91.1104C145.383 90.9197 145.724 90.8244 146.084 90.8244C146.494 90.8244 146.85 90.9234 147.151 91.1214C147.459 91.3194 147.679 91.5834 147.811 91.9134C148.009 91.5834 148.269 91.3194 148.592 91.1214C148.922 90.9234 149.303 90.8244 149.736 90.8244C150.381 90.8244 150.865 91.0224 151.188 91.4184C151.518 91.807 151.683 92.3387 151.683 93.0134V96.6104H150.759V93.1564C150.759 92.6357 150.652 92.258 150.44 92.0234C150.227 91.7887 149.912 91.6714 149.494 91.6714C149.215 91.6714 148.962 91.752 148.735 91.9134C148.507 92.0747 148.328 92.291 148.196 92.5624C148.071 92.8337 148.009 93.127 148.009 93.4424V96.6104H147.074V93.1674C147.074 92.6394 146.967 92.258 146.755 92.0234C146.542 91.7887 146.23 91.6714 145.82 91.6714C145.541 91.6714 145.288 91.7557 145.061 91.9244C144.833 92.0857 144.654 92.3057 144.522 92.5844C144.397 92.8557 144.335 93.149 144.335 93.4644V96.6104H143.4V91.0004ZM154.764 96.7864C154.353 96.7864 153.986 96.7057 153.664 96.5444C153.341 96.383 153.092 96.163 152.916 95.8844C152.74 95.5984 152.652 95.2757 152.652 94.9164C152.652 94.3224 152.875 93.8604 153.323 93.5304C153.77 93.193 154.335 93.0244 155.017 93.0244C155.354 93.0244 155.666 93.061 155.952 93.1344C156.245 93.2077 156.469 93.292 156.623 93.3874V93.0464C156.623 92.6284 156.476 92.2947 156.183 92.0454C155.889 91.7887 155.519 91.6604 155.072 91.6604C154.756 91.6604 154.467 91.73 154.203 91.8694C153.939 92.0014 153.73 92.1884 153.576 92.4304L152.872 91.9024C153.092 91.565 153.392 91.301 153.774 91.1104C154.162 90.9197 154.591 90.8244 155.061 90.8244C155.823 90.8244 156.421 91.026 156.854 91.4294C157.294 91.8254 157.514 92.368 157.514 93.0574V96.6104H156.623V95.8074H156.579C156.417 96.0787 156.175 96.3097 155.853 96.5004C155.53 96.691 155.167 96.7864 154.764 96.7864ZM154.852 95.9614C155.167 95.9614 155.46 95.8807 155.732 95.7194C156.003 95.558 156.219 95.3417 156.381 95.0704C156.542 94.799 156.623 94.502 156.623 94.1794C156.447 94.062 156.23 93.9667 155.974 93.8934C155.717 93.82 155.446 93.7834 155.16 93.7834C154.646 93.7834 154.258 93.8897 153.994 94.1024C153.737 94.315 153.609 94.59 153.609 94.9274C153.609 95.2354 153.726 95.4847 153.961 95.6754C154.195 95.866 154.492 95.9614 154.852 95.9614ZM160.863 96.6984C160.636 96.6984 160.423 96.6617 160.225 96.5884C160.034 96.515 159.873 96.416 159.741 96.2914C159.594 96.152 159.484 95.9907 159.411 95.8074C159.338 95.624 159.301 95.4004 159.301 95.1364V91.8474H158.322V91.0004H159.301V89.4164H160.236V91.0004H161.6V91.8474H160.236V94.9054C160.236 95.2134 160.295 95.4407 160.412 95.5874C160.551 95.7487 160.753 95.8294 161.017 95.8294C161.23 95.8294 161.435 95.767 161.633 95.6424V96.5554C161.523 96.6067 161.409 96.6434 161.292 96.6654C161.182 96.6874 161.039 96.6984 160.863 96.6984ZM163.339 89.9664C163.156 89.9664 162.998 89.9004 162.866 89.7684C162.734 89.6364 162.668 89.4787 162.668 89.2954C162.668 89.112 162.734 88.958 162.866 88.8334C162.998 88.7014 163.156 88.6354 163.339 88.6354C163.523 88.6354 163.68 88.7014 163.812 88.8334C163.944 88.958 164.01 89.112 164.01 89.2954C164.01 89.4787 163.944 89.6364 163.812 89.7684C163.688 89.9004 163.53 89.9664 163.339 89.9664ZM162.877 91.0004H163.801V96.6104H162.877V91.0004ZM167.802 96.7864C167.252 96.7864 166.757 96.6544 166.317 96.3904C165.877 96.1264 165.532 95.767 165.283 95.3124C165.041 94.8577 164.92 94.3554 164.92 93.8054C164.92 93.2554 165.041 92.753 165.283 92.2984C165.532 91.8437 165.877 91.4844 166.317 91.2204C166.757 90.9564 167.252 90.8244 167.802 90.8244C168.352 90.8244 168.847 90.9564 169.287 91.2204C169.727 91.4844 170.068 91.8437 170.31 92.2984C170.559 92.753 170.684 93.2554 170.684 93.8054C170.684 94.3554 170.559 94.8577 170.31 95.3124C170.068 95.767 169.727 96.1264 169.287 96.3904C168.847 96.6544 168.352 96.7864 167.802 96.7864ZM167.802 95.9394C168.147 95.9394 168.466 95.855 168.759 95.6864C169.06 95.5104 169.298 95.261 169.474 94.9384C169.657 94.6157 169.749 94.238 169.749 93.8054C169.749 93.3727 169.657 92.995 169.474 92.6724C169.298 92.3497 169.06 92.104 168.759 91.9354C168.466 91.7594 168.147 91.6714 167.802 91.6714C167.457 91.6714 167.135 91.7594 166.834 91.9354C166.533 92.104 166.291 92.3497 166.108 92.6724C165.932 92.995 165.844 93.3727 165.844 93.8054C165.844 94.238 165.932 94.6157 166.108 94.9384C166.291 95.261 166.533 95.5104 166.834 95.6864C167.135 95.855 167.457 95.9394 167.802 95.9394ZM171.662 91.0004H172.553V91.8254H172.597C172.751 91.5467 172.997 91.312 173.334 91.1214C173.672 90.9234 174.031 90.8244 174.412 90.8244C175.087 90.8244 175.6 91.0224 175.952 91.4184C176.312 91.807 176.491 92.3387 176.491 93.0134V96.6104H175.556V93.1564C175.556 92.6357 175.432 92.258 175.182 92.0234C174.933 91.7887 174.592 91.6714 174.159 91.6714C173.859 91.6714 173.587 91.7557 173.345 91.9244C173.111 92.093 172.927 92.3167 172.795 92.5954C172.663 92.8667 172.597 93.1527 172.597 93.4534V96.6104H171.662V91.0004ZM181.748 89.6254H179.537V88.7344H184.883V89.6254H182.683V96.6104H181.748V89.6254ZM187.49 96.7864C186.955 96.7864 186.475 96.658 186.049 96.4014C185.624 96.1447 185.29 95.7927 185.048 95.3454C184.814 94.8907 184.696 94.381 184.696 93.8164C184.696 93.2737 184.806 92.775 185.026 92.3204C185.254 91.8657 185.573 91.5027 185.983 91.2314C186.394 90.96 186.871 90.8244 187.413 90.8244C187.963 90.8244 188.44 90.949 188.843 91.1984C189.247 91.4404 189.555 91.7777 189.767 92.2104C189.987 92.643 190.097 93.138 190.097 93.6954C190.097 93.8054 190.086 93.9007 190.064 93.9814H185.631C185.653 94.4067 185.756 94.766 185.939 95.0594C186.123 95.3527 186.354 95.5727 186.632 95.7194C186.918 95.866 187.215 95.9394 187.523 95.9394C188.242 95.9394 188.796 95.602 189.184 94.9274L189.976 95.3124C189.734 95.767 189.404 96.1264 188.986 96.3904C188.576 96.6544 188.077 96.7864 187.49 96.7864ZM189.107 93.2114C189.093 92.9767 189.027 92.742 188.909 92.5074C188.792 92.2727 188.605 92.0747 188.348 91.9134C188.099 91.752 187.784 91.6714 187.402 91.6714C186.962 91.6714 186.588 91.8144 186.28 92.1004C185.98 92.379 185.782 92.7494 185.686 93.2114H189.107ZM193.786 96.7864C193.244 96.7864 192.756 96.658 192.323 96.4014C191.891 96.1374 191.553 95.7817 191.311 95.3344C191.069 94.8797 190.948 94.37 190.948 93.8054C190.948 93.2407 191.069 92.731 191.311 92.2764C191.553 91.8217 191.891 91.466 192.323 91.2094C192.756 90.9527 193.244 90.8244 193.786 90.8244C194.395 90.8244 194.905 90.9674 195.315 91.2534C195.733 91.532 196.03 91.906 196.206 92.3754L195.359 92.7274C195.22 92.3827 195.011 92.1224 194.732 91.9464C194.461 91.763 194.131 91.6714 193.742 91.6714C193.412 91.6714 193.104 91.763 192.818 91.9464C192.532 92.1224 192.301 92.3717 192.125 92.6944C191.957 93.017 191.872 93.3874 191.872 93.8054C191.872 94.2234 191.957 94.5937 192.125 94.9164C192.301 95.239 192.532 95.492 192.818 95.6754C193.104 95.8514 193.412 95.9394 193.742 95.9394C194.138 95.9394 194.479 95.8477 194.765 95.6644C195.051 95.481 195.264 95.2207 195.403 94.8834L196.239 95.2354C196.049 95.6974 195.741 96.0714 195.315 96.3574C194.897 96.6434 194.388 96.7864 193.786 96.7864ZM197.25 88.7344H198.185V91.0554L198.141 91.8254H198.185C198.339 91.5394 198.581 91.301 198.911 91.1104C199.248 90.9197 199.615 90.8244 200.011 90.8244C200.693 90.8244 201.214 91.026 201.573 91.4294C201.932 91.8254 202.112 92.3534 202.112 93.0134V96.6104H201.177V93.1564C201.177 92.6504 201.049 92.2764 200.792 92.0344C200.535 91.7924 200.202 91.6714 199.791 91.6714C199.498 91.6714 199.226 91.7594 198.977 91.9354C198.735 92.1114 198.541 92.3387 198.394 92.6174C198.255 92.896 198.185 93.1857 198.185 93.4864V96.6104H197.25V88.7344ZM203.459 91.0004H204.35V91.8254H204.394C204.548 91.5467 204.794 91.312 205.131 91.1214C205.468 90.9234 205.828 90.8244 206.209 90.8244C206.884 90.8244 207.397 91.0224 207.749 91.4184C208.108 91.807 208.288 92.3387 208.288 93.0134V96.6104H207.353V93.1564C207.353 92.6357 207.228 92.258 206.979 92.0234C206.73 91.7887 206.389 91.6714 205.956 91.6714C205.655 91.6714 205.384 91.7557 205.142 91.9244C204.907 92.093 204.724 92.3167 204.592 92.5954C204.46 92.8667 204.394 93.1527 204.394 93.4534V96.6104H203.459V91.0004ZM212.21 96.7864C211.66 96.7864 211.165 96.6544 210.725 96.3904C210.285 96.1264 209.94 95.767 209.691 95.3124C209.449 94.8577 209.328 94.3554 209.328 93.8054C209.328 93.2554 209.449 92.753 209.691 92.2984C209.94 91.8437 210.285 91.4844 210.725 91.2204C211.165 90.9564 211.66 90.8244 212.21 90.8244C212.76 90.8244 213.255 90.9564 213.695 91.2204C214.135 91.4844 214.476 91.8437 214.718 92.2984C214.967 92.753 215.092 93.2554 215.092 93.8054C215.092 94.3554 214.967 94.8577 214.718 95.3124C214.476 95.767 214.135 96.1264 213.695 96.3904C213.255 96.6544 212.76 96.7864 212.21 96.7864ZM212.21 95.9394C212.555 95.9394 212.874 95.855 213.167 95.6864C213.468 95.5104 213.706 95.261 213.882 94.9384C214.065 94.6157 214.157 94.238 214.157 93.8054C214.157 93.3727 214.065 92.995 213.882 92.6724C213.706 92.3497 213.468 92.104 213.167 91.9354C212.874 91.7594 212.555 91.6714 212.21 91.6714C211.865 91.6714 211.543 91.7594 211.242 91.9354C210.941 92.104 210.699 92.3497 210.516 92.6724C210.34 92.995 210.252 93.3727 210.252 93.8054C210.252 94.238 210.34 94.6157 210.516 94.9384C210.699 95.261 210.941 95.5104 211.242 95.6864C211.543 95.855 211.865 95.9394 212.21 95.9394ZM216.124 88.7344H217.059V96.6104H216.124V88.7344ZM220.976 96.7864C220.426 96.7864 219.931 96.6544 219.491 96.3904C219.051 96.1264 218.706 95.767 218.457 95.3124C218.215 94.8577 218.094 94.3554 218.094 93.8054C218.094 93.2554 218.215 92.753 218.457 92.2984C218.706 91.8437 219.051 91.4844 219.491 91.2204C219.931 90.9564 220.426 90.8244 220.976 90.8244C221.526 90.8244 222.021 90.9564 222.461 91.2204C222.901 91.4844 223.242 91.8437 223.484 92.2984C223.733 92.753 223.858 93.2554 223.858 93.8054C223.858 94.3554 223.733 94.8577 223.484 95.3124C223.242 95.767 222.901 96.1264 222.461 96.3904C222.021 96.6544 221.526 96.7864 220.976 96.7864ZM220.976 95.9394C221.32 95.9394 221.639 95.855 221.933 95.6864C222.233 95.5104 222.472 95.261 222.648 94.9384C222.831 94.6157 222.923 94.238 222.923 93.8054C222.923 93.3727 222.831 92.995 222.648 92.6724C222.472 92.3497 222.233 92.104 221.933 91.9354C221.639 91.7594 221.32 91.6714 220.976 91.6714C220.631 91.6714 220.308 91.7594 220.008 91.9354C219.707 92.104 219.465 92.3497 219.282 92.6724C219.106 92.995 219.018 93.3727 219.018 93.8054C219.018 94.238 219.106 94.6157 219.282 94.9384C219.465 95.261 219.707 95.5104 220.008 95.6864C220.308 95.855 220.631 95.9394 220.976 95.9394ZM227.407 99.1624C226.747 99.1624 226.201 99.0084 225.768 98.7004C225.343 98.3924 225.057 98.022 224.91 97.5894L225.757 97.2264C225.882 97.549 226.087 97.8094 226.373 98.0074C226.667 98.2127 227.011 98.3154 227.407 98.3154C227.987 98.3154 228.434 98.1467 228.749 97.8094C229.072 97.472 229.233 96.9954 229.233 96.3794V95.7524H229.189C229.006 96.0384 228.746 96.273 228.408 96.4564C228.078 96.6324 227.701 96.7204 227.275 96.7204C226.791 96.7204 226.348 96.5957 225.944 96.3464C225.548 96.097 225.233 95.7487 224.998 95.3014C224.764 94.854 224.646 94.3444 224.646 93.7724C224.646 93.2077 224.764 92.7017 224.998 92.2544C225.233 91.7997 225.548 91.4477 225.944 91.1984C226.348 90.949 226.791 90.8244 227.275 90.8244C227.701 90.8244 228.078 90.916 228.408 91.0994C228.746 91.2754 229.006 91.51 229.189 91.8034H229.233V91.0004H230.124V96.3904C230.124 97.2924 229.875 97.978 229.376 98.4474C228.878 98.924 228.221 99.1624 227.407 99.1624ZM227.407 95.8734C227.745 95.8734 228.049 95.789 228.32 95.6204C228.599 95.4517 228.819 95.2097 228.98 94.8944C229.149 94.579 229.233 94.205 229.233 93.7724C229.233 93.3324 229.149 92.9547 228.98 92.6394C228.819 92.324 228.599 92.0857 228.32 91.9244C228.049 91.7557 227.745 91.6714 227.407 91.6714C227.07 91.6714 226.762 91.7557 226.483 91.9244C226.205 92.093 225.981 92.335 225.812 92.6504C225.651 92.9657 225.57 93.3397 225.57 93.7724C225.57 94.205 225.651 94.5827 225.812 94.9054C225.981 95.2207 226.205 95.4627 226.483 95.6314C226.762 95.7927 227.07 95.8734 227.407 95.8734ZM233.223 96.2584L230.902 91.0004H231.914L233.674 95.1694H233.696L235.39 91.0004H236.402L232.937 98.9864H231.969L233.223 96.2584ZM239.922 88.7344H241.066L245.015 95.0044H245.059L245.015 93.4864V88.7344H245.95V96.6104H244.982L240.846 90.0434H240.802L240.846 91.5614V96.6104H239.922V88.7344ZM249.155 96.7864C248.745 96.7864 248.378 96.7057 248.055 96.5444C247.733 96.383 247.483 96.163 247.307 95.8844C247.131 95.5984 247.043 95.2757 247.043 94.9164C247.043 94.3224 247.267 93.8604 247.714 93.5304C248.162 93.193 248.726 93.0244 249.408 93.0244C249.746 93.0244 250.057 93.061 250.343 93.1344C250.637 93.2077 250.86 93.292 251.014 93.3874V93.0464C251.014 92.6284 250.868 92.2947 250.574 92.0454C250.281 91.7887 249.911 91.6604 249.463 91.6604C249.148 91.6604 248.858 91.73 248.594 91.8694C248.33 92.0014 248.121 92.1884 247.967 92.4304L247.263 91.9024C247.483 91.565 247.784 91.301 248.165 91.1104C248.554 90.9197 248.983 90.8244 249.452 90.8244C250.215 90.8244 250.813 91.026 251.245 91.4294C251.685 91.8254 251.905 92.368 251.905 93.0574V96.6104H251.014V95.8074H250.97C250.809 96.0787 250.567 96.3097 250.244 96.5004C249.922 96.691 249.559 96.7864 249.155 96.7864ZM249.243 95.9614C249.559 95.9614 249.852 95.8807 250.123 95.7194C250.395 95.558 250.611 95.3417 250.772 95.0704C250.934 94.799 251.014 94.502 251.014 94.1794C250.838 94.062 250.622 93.9667 250.365 93.8934C250.109 93.82 249.837 93.7834 249.551 93.7834C249.038 93.7834 248.649 93.8897 248.385 94.1024C248.129 94.315 248 94.59 248 94.9274C248 95.2354 248.118 95.4847 248.352 95.6754C248.587 95.866 248.884 95.9614 249.243 95.9614ZM255.616 99.1624C254.956 99.1624 254.41 99.0084 253.977 98.7004C253.552 98.3924 253.266 98.022 253.119 97.5894L253.966 97.2264C254.091 97.549 254.296 97.8094 254.582 98.0074C254.876 98.2127 255.22 98.3154 255.616 98.3154C256.196 98.3154 256.643 98.1467 256.958 97.8094C257.281 97.472 257.442 96.9954 257.442 96.3794V95.7524H257.398C257.215 96.0384 256.955 96.273 256.617 96.4564C256.287 96.6324 255.91 96.7204 255.484 96.7204C255 96.7204 254.557 96.5957 254.153 96.3464C253.757 96.097 253.442 95.7487 253.207 95.3014C252.973 94.854 252.855 94.3444 252.855 93.7724C252.855 93.2077 252.973 92.7017 253.207 92.2544C253.442 91.7997 253.757 91.4477 254.153 91.1984C254.557 90.949 255 90.8244 255.484 90.8244C255.91 90.8244 256.287 90.916 256.617 91.0994C256.955 91.2754 257.215 91.51 257.398 91.8034H257.442V91.0004H258.333V96.3904C258.333 97.2924 258.084 97.978 257.585 98.4474C257.087 98.924 256.43 99.1624 255.616 99.1624ZM255.616 95.8734C255.954 95.8734 256.258 95.789 256.529 95.6204C256.808 95.4517 257.028 95.2097 257.189 94.8944C257.358 94.579 257.442 94.205 257.442 93.7724C257.442 93.3324 257.358 92.9547 257.189 92.6394C257.028 92.324 256.808 92.0857 256.529 91.9244C256.258 91.7557 255.954 91.6714 255.616 91.6714C255.279 91.6714 254.971 91.7557 254.692 91.9244C254.414 92.093 254.19 92.335 254.021 92.6504C253.86 92.9657 253.779 93.3397 253.779 93.7724C253.779 94.205 253.86 94.5827 254.021 94.9054C254.19 95.2207 254.414 95.4627 254.692 95.6314C254.971 95.7927 255.279 95.8734 255.616 95.8734ZM259.672 91.0004H260.563V91.8364H260.607C260.776 91.5504 261.029 91.312 261.366 91.1214C261.711 90.9234 262.096 90.8244 262.521 90.8244C263.02 90.8244 263.474 90.9527 263.885 91.2094C264.296 91.466 264.618 91.8217 264.853 92.2764C265.088 92.731 265.205 93.2407 265.205 93.8054C265.205 94.3774 265.088 94.8907 264.853 95.3454C264.618 95.7927 264.296 96.1447 263.885 96.4014C263.474 96.658 263.02 96.7864 262.521 96.7864C262.096 96.7864 261.711 96.691 261.366 96.5004C261.029 96.3024 260.776 96.064 260.607 95.7854H260.563L260.607 96.5554V98.9864H259.672V91.0004ZM262.411 95.9394C262.734 95.9394 263.038 95.8514 263.324 95.6754C263.61 95.4994 263.837 95.25 264.006 94.9274C264.182 94.5974 264.27 94.2234 264.27 93.8054C264.27 93.3874 264.182 93.017 264.006 92.6944C263.837 92.3644 263.61 92.1114 263.324 91.9354C263.038 91.7594 262.734 91.6714 262.411 91.6714C262.088 91.6714 261.784 91.7594 261.498 91.9354C261.212 92.1114 260.985 92.3607 260.816 92.6834C260.647 93.006 260.563 93.38 260.563 93.8054C260.563 94.2307 260.647 94.6047 260.816 94.9274C260.985 95.25 261.212 95.4994 261.498 95.6754C261.784 95.8514 262.088 95.9394 262.411 95.9394ZM268.271 96.7864C267.597 96.7864 267.08 96.5884 266.72 96.1924C266.368 95.7964 266.192 95.2427 266.192 94.5314V91.0004H267.127V94.3884C267.127 94.9237 267.248 95.316 267.49 95.5654C267.732 95.8147 268.059 95.9394 268.469 95.9394C268.785 95.9394 269.063 95.855 269.305 95.6864C269.555 95.5177 269.745 95.2977 269.877 95.0264C270.017 94.755 270.086 94.469 270.086 94.1684V91.0004H271.021V96.6104H270.13V95.7964H270.086C269.932 96.075 269.687 96.3097 269.349 96.5004C269.012 96.691 268.653 96.7864 268.271 96.7864ZM272.402 91.0004H273.293V91.9024H273.337C273.447 91.5944 273.66 91.3414 273.975 91.1434C274.291 90.938 274.621 90.8354 274.965 90.8354C275.222 90.8354 275.442 90.872 275.625 90.9454V91.9574C275.391 91.84 275.127 91.7814 274.833 91.7814C274.562 91.7814 274.313 91.8584 274.085 92.0124C273.858 92.1664 273.675 92.3754 273.535 92.6394C273.403 92.896 273.337 93.1747 273.337 93.4754V96.6104H272.402V91.0004Z" fill="#616161"/>
</svg>
