<svg width="304" height="120" viewBox="0 0 304 120" fill="none" xmlns="http://www.w3.org/2000/svg">
<rect width="304" height="120" rx="6" fill="#E8EAED"/>
<path d="M34.0871 75.1403C32.9783 75.1403 31.9564 74.874 31.0216 74.3413C30.0867 73.8086 29.342 73.0803 28.7876 72.1563C28.2441 71.2214 27.9723 70.1833 27.9723 69.0418C27.9723 67.9004 28.2441 66.8677 28.7876 65.9437C29.342 65.0088 30.0867 64.275 31.0216 63.7424C31.9564 63.2097 32.9783 62.9434 34.0871 62.9434C34.9676 62.9434 35.7884 63.101 36.5493 63.4163C37.3102 63.7315 37.9462 64.1718 38.4571 64.737L37.1852 66.0089C36.8048 65.585 36.3482 65.2588 35.8155 65.0306C35.2937 64.8023 34.7122 64.6881 34.0708 64.6881C33.3207 64.6881 32.6195 64.8675 31.9673 65.2262C31.3151 65.585 30.7933 66.0959 30.4019 66.759C30.0106 67.4221 29.8149 68.1831 29.8149 69.0418C29.8149 69.9006 30.0106 70.6616 30.4019 71.3247C30.7933 71.9878 31.3151 72.4987 31.9673 72.8574C32.6195 73.2162 33.3261 73.3955 34.0871 73.3955C34.7828 73.3955 35.3644 73.2923 35.8318 73.0857C36.2993 72.8792 36.7178 72.602 37.0874 72.2541C37.3266 72.015 37.5277 71.716 37.6907 71.3573C37.8647 70.9986 37.9788 70.6072 38.0332 70.1833H34.0708V68.5527H39.7616C39.8159 68.857 39.8431 69.1723 39.8431 69.4984C39.8431 70.2376 39.729 70.9496 39.5007 71.6345C39.2724 72.3085 38.9082 72.8955 38.4082 73.3955C37.3102 74.5587 35.8699 75.1403 34.0871 75.1403ZM45.4753 75.1403C44.6383 75.1403 43.8882 74.9501 43.2251 74.5696C42.562 74.1782 42.0456 73.6456 41.676 72.9716C41.3064 72.2976 41.1216 71.5475 41.1216 70.7214C41.1216 69.8952 41.3064 69.1451 41.676 68.4711C42.0456 67.7971 42.562 67.2699 43.2251 66.8894C43.8882 66.4981 44.6383 66.3024 45.4753 66.3024C46.3124 66.3024 47.0624 66.4981 47.7256 66.8894C48.3887 67.2808 48.905 67.8134 49.2746 68.4874C49.6442 69.1614 49.829 69.9061 49.829 70.7214C49.829 71.5475 49.6442 72.2976 49.2746 72.9716C48.905 73.6456 48.3887 74.1782 47.7256 74.5696C47.0624 74.9501 46.3124 75.1403 45.4753 75.1403ZM45.4753 73.4934C45.9319 73.4934 46.3559 73.3847 46.7472 73.1673C47.1385 72.939 47.4484 72.6183 47.6766 72.2052C47.9158 71.7812 48.0354 71.2866 48.0354 70.7214C48.0354 70.1561 47.9158 69.6669 47.6766 69.2538C47.4484 68.8407 47.1385 68.5255 46.7472 68.3081C46.3559 68.0798 45.9319 67.9656 45.4753 67.9656C45.0188 67.9656 44.5948 68.0798 44.2035 68.3081C43.8121 68.5255 43.4969 68.8407 43.2577 69.2538C43.0294 69.6669 42.9153 70.1561 42.9153 70.7214C42.9153 71.2866 43.0294 71.7812 43.2577 72.2052C43.4969 72.6183 43.8121 72.939 44.2035 73.1673C44.5948 73.3847 45.0188 73.4934 45.4753 73.4934ZM55.38 75.1403C54.5429 75.1403 53.7928 74.9501 53.1297 74.5696C52.4666 74.1782 51.9503 73.6456 51.5807 72.9716C51.2111 72.2976 51.0263 71.5475 51.0263 70.7214C51.0263 69.8952 51.2111 69.1451 51.5807 68.4711C51.9503 67.7971 52.4666 67.2699 53.1297 66.8894C53.7928 66.4981 54.5429 66.3024 55.38 66.3024C56.217 66.3024 56.9671 66.4981 57.6302 66.8894C58.2933 67.2808 58.8097 67.8134 59.1793 68.4874C59.5489 69.1614 59.7337 69.9061 59.7337 70.7214C59.7337 71.5475 59.5489 72.2976 59.1793 72.9716C58.8097 73.6456 58.2933 74.1782 57.6302 74.5696C56.9671 74.9501 56.217 75.1403 55.38 75.1403ZM55.38 73.4934C55.8365 73.4934 56.2605 73.3847 56.6518 73.1673C57.0432 72.939 57.353 72.6183 57.5813 72.2052C57.8204 71.7812 57.94 71.2866 57.94 70.7214C57.94 70.1561 57.8204 69.6669 57.5813 69.2538C57.353 68.8407 57.0432 68.5255 56.6518 68.3081C56.2605 68.0798 55.8365 67.9656 55.38 67.9656C54.9234 67.9656 54.4994 68.0798 54.1081 68.3081C53.7167 68.5255 53.4015 68.8407 53.1623 69.2538C52.9341 69.6669 52.8199 70.1561 52.8199 70.7214C52.8199 71.2866 52.9341 71.7812 53.1623 72.2052C53.4015 72.6183 53.7167 72.939 54.1081 73.1673C54.4994 73.3847 54.9234 73.4934 55.38 73.4934ZM65.1378 78.6624C64.116 78.6624 63.2681 78.4287 62.5941 77.9612C61.931 77.4938 61.4853 76.9394 61.257 76.298L62.9365 75.5969C63.1105 76.0317 63.3877 76.3795 63.7681 76.6404C64.1595 76.9122 64.6161 77.0481 65.1378 77.0481C65.8988 77.0481 66.4912 76.8198 66.9152 76.3632C67.35 75.9175 67.5674 75.287 67.5674 74.4717V73.7054H67.4696C67.1978 74.0967 66.8337 74.4065 66.3771 74.6348C65.9314 74.8522 65.4151 74.9609 64.828 74.9609C64.1323 74.9609 63.4855 74.7816 62.8876 74.4228C62.2897 74.0641 61.8114 73.5586 61.4527 72.9064C61.1048 72.2433 60.9309 71.4877 60.9309 70.6398C60.9309 69.7919 61.1048 69.0418 61.4527 68.3896C61.8114 67.7265 62.2897 67.2156 62.8876 66.8568C63.4855 66.4872 64.1323 66.3024 64.828 66.3024C65.4042 66.3024 65.9205 66.4166 66.3771 66.6448C66.8337 66.8731 67.1978 67.1829 67.4696 67.5743H67.5674V66.5633H69.2796V74.4228C69.2796 75.3251 69.1057 76.0915 68.7578 76.722C68.4099 77.3633 67.9207 77.8471 67.2902 78.1732C66.6706 78.4993 65.9532 78.6624 65.1378 78.6624ZM65.1542 73.3303C65.589 73.3303 65.9912 73.2271 66.3608 73.0205C66.7304 72.8031 67.0239 72.4933 67.2413 72.0911C67.4587 71.678 67.5674 71.1942 67.5674 70.6398C67.5674 69.7919 67.3337 69.1342 66.8663 68.6668C66.4097 68.1885 65.839 67.9493 65.1542 67.9493C64.7085 67.9493 64.3008 68.058 63.9312 68.2755C63.5616 68.482 63.2681 68.7864 63.0507 69.1886C62.8333 69.5908 62.7246 70.0746 62.7246 70.6398C62.7246 71.2051 62.8333 71.6888 63.0507 72.0911C63.2681 72.4933 63.5616 72.8031 63.9312 73.0205C64.3008 73.2271 64.7085 73.3303 65.1542 73.3303ZM71.3876 63.2043H73.1813V74.8794H71.3876V63.2043ZM79.0087 75.1403C78.1934 75.1403 77.4596 74.9501 76.8074 74.5696C76.166 74.1891 75.6605 73.6673 75.2909 73.0042C74.9322 72.3302 74.7528 71.5747 74.7528 70.7377C74.7528 69.9441 74.9267 69.2103 75.2746 68.5363C75.6333 67.8515 76.1279 67.308 76.7584 66.9057C77.3889 66.5035 78.1064 66.3024 78.9108 66.3024C79.7479 66.3024 80.4708 66.4872 81.0795 66.8568C81.6992 67.2264 82.1666 67.7319 82.4819 68.3733C82.808 69.0147 82.971 69.7376 82.971 70.542C82.971 70.6942 82.9547 70.8844 82.9221 71.1127H76.5465C76.6117 71.8845 76.8835 72.4824 77.3618 72.9064C77.8509 73.3195 78.4162 73.526 79.0576 73.526C79.5685 73.526 80.0088 73.4119 80.3784 73.1836C80.7589 72.9444 81.0632 72.6237 81.2915 72.2215L82.808 72.939C82.4166 73.6238 81.9057 74.1619 81.2752 74.5533C80.6447 74.9446 79.8892 75.1403 79.0087 75.1403ZM81.1448 69.743C81.123 69.4495 81.0306 69.1614 80.8676 68.8788C80.7045 68.5853 80.4545 68.3407 80.1175 68.145C79.7914 67.9493 79.3892 67.8515 78.9108 67.8515C78.3347 67.8515 77.8455 68.0254 77.4433 68.3733C77.052 68.7103 76.7802 69.1668 76.628 69.743H81.1448ZM88.7197 63.2043H92.4538C93.6604 63.2043 94.7149 63.4489 95.6171 63.938C96.5194 64.4272 97.2097 65.1175 97.688 66.0089C98.1772 66.8894 98.4218 67.9004 98.4218 69.0418C98.4218 70.1833 98.1772 71.1997 97.688 72.0911C97.2097 72.9716 96.5194 73.6564 95.6171 74.1456C94.7149 74.6348 93.6604 74.8794 92.4538 74.8794H88.7197V63.2043ZM92.4212 73.1346C93.7256 73.1346 94.742 72.7759 95.4704 72.0585C96.2096 71.3301 96.5792 70.3246 96.5792 69.0418C96.5792 67.77 96.2096 66.7699 95.4704 66.0415C94.742 65.3132 93.7256 64.949 92.4212 64.949H90.546V73.1346H92.4212ZM103.77 75.1403C102.955 75.1403 102.221 74.9501 101.569 74.5696C100.928 74.1891 100.422 73.6673 100.052 73.0042C99.6938 72.3302 99.5144 71.5747 99.5144 70.7377C99.5144 69.9441 99.6883 69.2103 100.036 68.5363C100.395 67.8515 100.89 67.308 101.52 66.9057C102.151 66.5035 102.868 66.3024 103.672 66.3024C104.509 66.3024 105.232 66.4872 105.841 66.8568C106.461 67.2264 106.928 67.7319 107.243 68.3733C107.57 69.0147 107.733 69.7376 107.733 70.542C107.733 70.6942 107.716 70.8844 107.684 71.1127H101.308C101.373 71.8845 101.645 72.4824 102.123 72.9064C102.613 73.3195 103.178 73.526 103.819 73.526C104.33 73.526 104.77 73.4119 105.14 73.1836C105.52 72.9444 105.825 72.6237 106.053 72.2215L107.57 72.939C107.178 73.6238 106.667 74.1619 106.037 74.5533C105.406 74.9446 104.651 75.1403 103.77 75.1403ZM105.906 69.743C105.885 69.4495 105.792 69.1614 105.629 68.8788C105.466 68.5853 105.216 68.3407 104.879 68.145C104.553 67.9493 104.151 67.8515 103.672 67.8515C103.096 67.8515 102.607 68.0254 102.205 68.3733C101.814 68.7103 101.542 69.1668 101.39 69.743H105.906ZM108.277 66.5633H110.283L112.582 72.5639H112.647L114.995 66.5633H116.952L113.495 74.8794H111.702L108.277 66.5633ZM121.669 75.1403C120.853 75.1403 120.12 74.9501 119.467 74.5696C118.826 74.1891 118.321 73.6673 117.951 73.0042C117.592 72.3302 117.413 71.5747 117.413 70.7377C117.413 69.9441 117.587 69.2103 117.935 68.5363C118.293 67.8515 118.788 67.308 119.418 66.9057C120.049 66.5035 120.766 66.3024 121.571 66.3024C122.408 66.3024 123.131 66.4872 123.74 66.8568C124.359 67.2264 124.827 67.7319 125.142 68.3733C125.468 69.0147 125.631 69.7376 125.631 70.542C125.631 70.6942 125.615 70.8844 125.582 71.1127H119.206C119.272 71.8845 119.543 72.4824 120.022 72.9064C120.511 73.3195 121.076 73.526 121.718 73.526C122.229 73.526 122.669 73.4119 123.038 73.1836C123.419 72.9444 123.723 72.6237 123.952 72.2215L125.468 72.939C125.077 73.6238 124.566 74.1619 123.935 74.5533C123.305 74.9446 122.549 75.1403 121.669 75.1403ZM123.805 69.743C123.783 69.4495 123.691 69.1614 123.528 68.8788C123.365 68.5853 123.114 68.3407 122.777 68.145C122.451 67.9493 122.049 67.8515 121.571 67.8515C120.995 67.8515 120.506 68.0254 120.103 68.3733C119.712 68.7103 119.44 69.1668 119.288 69.743H123.805ZM127.264 63.2043H129.058V74.8794H127.264V63.2043ZM134.983 75.1403C134.146 75.1403 133.396 74.9501 132.733 74.5696C132.07 74.1782 131.554 73.6456 131.184 72.9716C130.814 72.2976 130.63 71.5475 130.63 70.7214C130.63 69.8952 130.814 69.1451 131.184 68.4711C131.554 67.7971 132.07 67.2699 132.733 66.8894C133.396 66.4981 134.146 66.3024 134.983 66.3024C135.82 66.3024 136.57 66.4981 137.234 66.8894C137.897 67.2808 138.413 67.8134 138.783 68.4874C139.152 69.1614 139.337 69.9061 139.337 70.7214C139.337 71.5475 139.152 72.2976 138.783 72.9716C138.413 73.6456 137.897 74.1782 137.234 74.5696C136.57 74.9501 135.82 75.1403 134.983 75.1403ZM134.983 73.4934C135.44 73.4934 135.864 73.3847 136.255 73.1673C136.647 72.939 136.956 72.6183 137.185 72.2052C137.424 71.7812 137.543 71.2866 137.543 70.7214C137.543 70.1561 137.424 69.6669 137.185 69.2538C136.956 68.8407 136.647 68.5255 136.255 68.3081C135.864 68.0798 135.44 67.9656 134.983 67.9656C134.527 67.9656 134.103 68.0798 133.711 68.3081C133.32 68.5255 133.005 68.8407 132.766 69.2538C132.537 69.6669 132.423 70.1561 132.423 70.7214C132.423 71.2866 132.537 71.7812 132.766 72.2052C133.005 72.6183 133.32 72.939 133.711 73.1673C134.103 73.3847 134.527 73.4934 134.983 73.4934ZM140.846 66.5633H142.558V67.6558H142.64C142.879 67.2753 143.232 66.9547 143.7 66.6938C144.167 66.4329 144.694 66.3024 145.281 66.3024C146.031 66.3024 146.711 66.4927 147.319 66.8731C147.928 67.2536 148.407 67.7808 148.754 68.4548C149.113 69.1179 149.293 69.8734 149.293 70.7214C149.293 71.5693 149.113 72.3302 148.754 73.0042C148.407 73.6673 147.928 74.1891 147.319 74.5696C146.711 74.9501 146.031 75.1403 145.281 75.1403C144.694 75.1403 144.167 75.0098 143.7 74.7489C143.232 74.488 142.879 74.1728 142.64 73.8032H142.558L142.64 74.9609V78.4015H140.846V66.5633ZM145.02 73.4934C145.455 73.4934 145.863 73.3792 146.243 73.151C146.624 72.9227 146.928 72.5966 147.156 72.1726C147.385 71.7486 147.499 71.2649 147.499 70.7214C147.499 70.1778 147.385 69.6995 147.156 69.2864C146.928 68.8625 146.624 68.5363 146.243 68.3081C145.863 68.0798 145.455 67.9656 145.02 67.9656C144.586 67.9656 144.178 68.0798 143.797 68.3081C143.428 68.5363 143.129 68.8625 142.901 69.2864C142.672 69.6995 142.558 70.1778 142.558 70.7214C142.558 71.2649 142.672 71.7486 142.901 72.1726C143.129 72.5966 143.428 72.9227 143.797 73.151C144.178 73.3792 144.586 73.4934 145.02 73.4934ZM154.727 75.1403C153.911 75.1403 153.178 74.9501 152.525 74.5696C151.884 74.1891 151.378 73.6673 151.009 73.0042C150.65 72.3302 150.471 71.5747 150.471 70.7377C150.471 69.9441 150.645 69.2103 150.993 68.5363C151.351 67.8515 151.846 67.308 152.476 66.9057C153.107 66.5035 153.824 66.3024 154.629 66.3024C155.466 66.3024 156.189 66.4872 156.797 66.8568C157.417 67.2264 157.885 67.7319 158.2 68.3733C158.526 69.0147 158.689 69.7376 158.689 70.542C158.689 70.6942 158.673 70.8844 158.64 71.1127H152.264C152.33 71.8845 152.601 72.4824 153.08 72.9064C153.569 73.3195 154.134 73.526 154.776 73.526C155.286 73.526 155.727 73.4119 156.096 73.1836C156.477 72.9444 156.781 72.6237 157.009 72.2215L158.526 72.939C158.135 73.6238 157.624 74.1619 156.993 74.5533C156.363 74.9446 155.607 75.1403 154.727 75.1403ZM156.863 69.743C156.841 69.4495 156.749 69.1614 156.586 68.8788C156.422 68.5853 156.172 68.3407 155.835 68.145C155.509 67.9493 155.107 67.8515 154.629 67.8515C154.053 67.8515 153.563 68.0254 153.161 68.3733C152.77 68.7103 152.498 69.1668 152.346 69.743H156.863ZM160.322 66.5633H162.035V67.7863H162.116C162.301 67.3623 162.622 67.0145 163.078 66.7427C163.535 66.46 164.018 66.3187 164.529 66.3187C164.932 66.3187 165.269 66.3731 165.54 66.4818V68.3407C165.062 68.1667 164.633 68.0798 164.252 68.0798C163.839 68.0798 163.469 68.1885 163.143 68.4059C162.828 68.6233 162.578 68.9168 162.393 69.2864C162.208 69.6452 162.116 70.0419 162.116 70.4768V74.8794H160.322V66.5633ZM173.912 75.1403C172.944 75.1403 172.075 74.8577 171.303 74.2924C170.531 73.7271 169.998 72.9335 169.705 71.9117L171.433 71.2105C171.607 71.8519 171.912 72.3791 172.346 72.7922C172.792 73.1944 173.325 73.3955 173.944 73.3955C174.521 73.3955 175.01 73.2488 175.412 72.9553C175.814 72.6509 176.015 72.2378 176.015 71.716C176.015 71.2377 175.836 70.8464 175.477 70.542C175.129 70.2267 174.515 69.9115 173.635 69.5962L172.901 69.3353C172.118 69.0636 171.46 68.6722 170.928 68.1613C170.395 67.6504 170.129 66.9764 170.129 66.1394C170.129 65.5632 170.286 65.0306 170.602 64.5414C170.917 64.0522 171.352 63.6663 171.906 63.3836C172.471 63.0901 173.107 62.9434 173.814 62.9434C174.836 62.9434 175.651 63.1934 176.26 63.6935C176.869 64.1826 177.276 64.737 177.483 65.3567L175.836 66.0578C175.716 65.6882 175.488 65.3621 175.151 65.0795C174.814 64.7968 174.379 64.6555 173.847 64.6555C173.314 64.6555 172.863 64.7914 172.493 65.0632C172.134 65.3349 171.955 65.6828 171.955 66.1067C171.955 66.509 172.118 66.8405 172.444 67.1014C172.77 67.3623 173.281 67.6123 173.977 67.8515L174.711 68.0961C175.711 68.4439 176.483 68.9005 177.026 69.4658C177.581 70.0202 177.858 70.7648 177.858 71.6997C177.858 72.4607 177.662 73.102 177.271 73.6238C176.88 74.1348 176.379 74.5152 175.771 74.7653C175.173 75.0153 174.553 75.1403 173.912 75.1403ZM182.648 75.0098C182.278 75.0098 181.93 74.9501 181.604 74.8305C181.278 74.7109 181.012 74.5533 180.805 74.3576C180.338 73.8902 180.104 73.2542 180.104 72.4498V68.145H178.653V66.5633H180.104V64.2153H181.898V66.5633H183.92V68.145H181.898V72.0585C181.898 72.5041 181.985 72.8194 182.159 73.0042C182.322 73.2216 182.604 73.3303 183.007 73.3303C183.191 73.3303 183.354 73.3086 183.496 73.2651C183.637 73.2107 183.789 73.1292 183.952 73.0205V74.7653C183.594 74.9283 183.159 75.0098 182.648 75.0098ZM188.658 75.1403C187.647 75.1403 186.876 74.8413 186.343 74.2435C185.821 73.6347 185.56 72.7922 185.56 71.716V66.5633H187.354V71.4714C187.354 72.1454 187.511 72.6509 187.827 72.9879C188.153 73.3249 188.577 73.4934 189.099 73.4934C189.523 73.4934 189.898 73.3847 190.224 73.1673C190.55 72.939 190.8 72.64 190.974 72.2704C191.148 71.9008 191.235 71.504 191.235 71.0801V66.5633H193.028V74.8794H191.333V73.8032H191.235C191.006 74.1945 190.653 74.5152 190.175 74.7653C189.696 75.0153 189.191 75.1403 188.658 75.1403ZM198.591 75.1403C197.841 75.1403 197.162 74.9501 196.553 74.5696C195.944 74.1891 195.46 73.6673 195.102 73.0042C194.754 72.3302 194.58 71.5693 194.58 70.7214C194.58 69.8734 194.754 69.1179 195.102 68.4548C195.46 67.7808 195.944 67.2536 196.553 66.8731C197.162 66.4927 197.841 66.3024 198.591 66.3024C199.178 66.3024 199.705 66.4329 200.173 66.6938C200.64 66.9547 200.994 67.2753 201.233 67.6558H201.314L201.233 66.4818V63.2043H203.026V74.8794H201.314V73.8032H201.233C200.994 74.1728 200.64 74.488 200.173 74.7489C199.705 75.0098 199.178 75.1403 198.591 75.1403ZM198.852 73.4934C199.287 73.4934 199.689 73.3792 200.059 73.151C200.439 72.9227 200.744 72.5966 200.972 72.1726C201.2 71.7486 201.314 71.2649 201.314 70.7214C201.314 70.1778 201.2 69.6995 200.972 69.2864C200.744 68.8625 200.439 68.5363 200.059 68.3081C199.689 68.0798 199.287 67.9656 198.852 67.9656C198.417 67.9656 198.01 68.0798 197.629 68.3081C197.249 68.5363 196.944 68.8625 196.716 69.2864C196.488 69.6995 196.374 70.1778 196.374 70.7214C196.374 71.2649 196.488 71.7486 196.716 72.1726C196.944 72.5966 197.249 72.9227 197.629 73.151C198.01 73.3792 198.417 73.4934 198.852 73.4934ZM208.836 75.1403C208.021 75.1403 207.287 74.9501 206.635 74.5696C205.993 74.1891 205.488 73.6673 205.118 73.0042C204.759 72.3302 204.58 71.5747 204.58 70.7377C204.58 69.9441 204.754 69.2103 205.102 68.5363C205.461 67.8515 205.955 67.308 206.586 66.9057C207.216 66.5035 207.934 66.3024 208.738 66.3024C209.575 66.3024 210.298 66.4872 210.907 66.8568C211.526 67.2264 211.994 67.7319 212.309 68.3733C212.635 69.0147 212.798 69.7376 212.798 70.542C212.798 70.6942 212.782 70.8844 212.749 71.1127H206.374C206.439 71.8845 206.711 72.4824 207.189 72.9064C207.678 73.3195 208.243 73.526 208.885 73.526C209.396 73.526 209.836 73.4119 210.206 73.1836C210.586 72.9444 210.89 72.6237 211.119 72.2215L212.635 72.939C212.244 73.6238 211.733 74.1619 211.102 74.5533C210.472 74.9446 209.716 75.1403 208.836 75.1403ZM210.972 69.743C210.95 69.4495 210.858 69.1614 210.695 68.8788C210.532 68.5853 210.282 68.3407 209.945 68.145C209.619 67.9493 209.216 67.8515 208.738 67.8515C208.162 67.8515 207.673 68.0254 207.271 68.3733C206.879 68.7103 206.607 69.1668 206.455 69.743H210.972ZM214.432 66.5633H216.144V67.6558H216.225C216.464 67.2645 216.818 66.9438 217.285 66.6938C217.764 66.4329 218.269 66.3024 218.802 66.3024C219.813 66.3024 220.579 66.6014 221.101 67.1993C221.633 67.7863 221.9 68.5907 221.9 69.6125V74.8794H220.106V69.8571C220.106 69.2049 219.943 68.7266 219.617 68.4222C219.302 68.1178 218.861 67.9656 218.296 67.9656C217.894 67.9656 217.535 68.0798 217.22 68.3081C216.905 68.5255 216.66 68.819 216.486 69.1886C216.312 69.5582 216.225 69.955 216.225 70.3789V74.8794H214.432V66.5633ZM226.916 75.0098C226.547 75.0098 226.199 74.9501 225.873 74.8305C225.547 74.7109 225.28 74.5533 225.074 74.3576C224.606 73.8902 224.372 73.2542 224.372 72.4498V68.145H222.921V66.5633H224.372V64.2153H226.166V66.5633H228.188V68.145H226.166V72.0585C226.166 72.5041 226.253 72.8194 226.427 73.0042C226.59 73.2216 226.873 73.3303 227.275 73.3303C227.46 73.3303 227.623 73.3086 227.764 73.2651C227.905 73.2107 228.058 73.1292 228.221 73.0205V74.7653C227.862 74.9283 227.427 75.0098 226.916 75.0098ZM239.202 75.1403C238.071 75.1403 237.039 74.874 236.104 74.3413C235.169 73.8086 234.435 73.0749 233.902 72.14C233.37 71.2051 233.103 70.1724 233.103 69.0418C233.103 67.9113 233.37 66.8786 233.902 65.9437C234.435 65.0088 235.169 64.275 236.104 63.7424C237.039 63.2097 238.071 62.9434 239.202 62.9434C240.082 62.9434 240.881 63.1064 241.599 63.4326C242.327 63.7587 242.969 64.2316 243.523 64.8512L242.219 66.1067C241.816 65.6284 241.371 65.2751 240.881 65.0469C240.392 64.8077 239.832 64.6881 239.202 64.6881C238.419 64.6881 237.702 64.8675 237.05 65.2262C236.408 65.585 235.897 66.0959 235.517 66.759C235.136 67.4112 234.946 68.1722 234.946 69.0418C234.946 69.9115 235.136 70.6779 235.517 71.341C235.897 71.9932 236.408 72.4987 237.05 72.8574C237.702 73.2162 238.419 73.3955 239.202 73.3955C240.506 73.3955 241.615 72.852 242.528 71.7649L243.849 73.0368C243.284 73.6999 242.604 74.2163 241.811 74.5859C241.017 74.9555 240.148 75.1403 239.202 75.1403ZM245.435 63.2043H247.229V74.8794H245.435V63.2043ZM252.37 75.1403C251.359 75.1403 250.587 74.8413 250.054 74.2435C249.532 73.6347 249.272 72.7922 249.272 71.716V66.5633H251.065V71.4714C251.065 72.1454 251.223 72.6509 251.538 72.9879C251.864 73.3249 252.288 73.4934 252.81 73.4934C253.234 73.4934 253.609 73.3847 253.935 73.1673C254.261 72.939 254.511 72.64 254.685 72.2704C254.859 71.9008 254.946 71.504 254.946 71.0801V66.5633H256.74V74.8794H255.044V73.8032H254.946C254.718 74.1945 254.364 74.5152 253.886 74.7653C253.408 75.0153 252.902 75.1403 252.37 75.1403ZM263.263 75.1403C262.676 75.1403 262.148 75.0098 261.681 74.7489C261.213 74.488 260.86 74.1728 260.621 73.8032H260.54V74.8794H258.827V63.2043H260.621V66.4818L260.54 67.6558H260.621C260.86 67.2753 261.213 66.9547 261.681 66.6938C262.148 66.4329 262.676 66.3024 263.263 66.3024C264.013 66.3024 264.692 66.4927 265.301 66.8731C265.91 67.2536 266.388 67.7808 266.736 68.4548C267.095 69.1179 267.274 69.8734 267.274 70.7214C267.274 71.5693 267.095 72.3302 266.736 73.0042C266.388 73.6673 265.91 74.1891 265.301 74.5696C264.692 74.9501 264.013 75.1403 263.263 75.1403ZM263.002 73.4934C263.437 73.4934 263.844 73.3792 264.225 73.151C264.605 72.9227 264.91 72.5966 265.138 72.1726C265.366 71.7486 265.48 71.2649 265.48 70.7214C265.48 70.1778 265.366 69.6995 265.138 69.2864C264.91 68.8625 264.605 68.5363 264.225 68.3081C263.844 68.0798 263.437 67.9656 263.002 67.9656C262.567 67.9656 262.159 68.0798 261.779 68.3081C261.409 68.5363 261.11 68.8625 260.882 69.2864C260.654 69.6995 260.54 70.1778 260.54 70.7214C260.54 71.2649 260.654 71.7486 260.882 72.1726C261.11 72.5966 261.409 72.9227 261.779 73.151C262.159 73.3792 262.567 73.4934 263.002 73.4934ZM271.86 75.1403C270.904 75.1403 270.121 74.9337 269.512 74.5207C268.904 74.0967 268.474 73.5586 268.224 72.9064L269.822 72.2052C270.018 72.64 270.29 72.9716 270.638 73.1999C270.996 73.4282 271.404 73.5423 271.86 73.5423C272.306 73.5423 272.681 73.4662 272.986 73.314C273.29 73.151 273.442 72.9118 273.442 72.5966C273.442 72.2922 273.312 72.053 273.051 71.8791C272.79 71.7052 272.388 71.553 271.844 71.4225L270.849 71.1779C270.186 71.0149 269.637 70.7268 269.203 70.3137C268.768 69.9006 268.55 69.3788 268.55 68.7483C268.55 68.2591 268.692 67.8298 268.974 67.4602C269.268 67.0905 269.659 66.8079 270.148 66.6122C270.638 66.4057 271.17 66.3024 271.746 66.3024C272.518 66.3024 273.198 66.46 273.785 66.7753C274.372 67.0797 274.796 67.5254 275.056 68.1124L273.491 68.7972C273.176 68.1559 272.6 67.8352 271.763 67.8352C271.36 67.8352 271.023 67.9167 270.752 68.0798C270.48 68.2428 270.344 68.4548 270.344 68.7157C270.344 68.9657 270.447 69.1723 270.654 69.3353C270.86 69.4875 271.165 69.618 271.567 69.7267L272.79 70.0365C273.605 70.243 274.219 70.5583 274.632 70.9823C275.056 71.3953 275.268 71.9063 275.268 72.515C275.268 73.0368 275.116 73.4988 274.812 73.901C274.518 74.2924 274.111 74.5968 273.589 74.8142C273.067 75.0316 272.491 75.1403 271.86 75.1403Z" fill="#616161"/>
<rect width="23.3115" height="7.81905" rx="3.90953" transform="matrix(-0.866025 0.5 0.5 0.866025 174.504 27.7881)" fill="#FBBC04"/>
<rect width="23.3115" height="7.81905" rx="3.90953" transform="matrix(0.866025 -0.5 -0.5 -0.866025 131.371 38.4272)" fill="#EA4335"/>
<rect x="131.041" y="27.7871" width="23.3115" height="7.81905" rx="3.90953" transform="rotate(30 131.041 27.7871)" fill="#4285F4"/>
<rect x="174.504" y="38.4272" width="23.3115" height="7.81905" rx="3.64648" transform="rotate(-150 174.504 38.4272)" fill="#0F9D58"/>
<path d="M34.3709 96.8024C33.5629 96.8024 32.8189 96.6064 32.1389 96.2144C31.4589 95.8224 30.9189 95.2824 30.5189 94.5944C30.1189 93.9064 29.9189 93.1464 29.9189 92.3144C29.9189 91.4824 30.1189 90.7224 30.5189 90.0344C30.9189 89.3464 31.4589 88.8064 32.1389 88.4144C32.8189 88.0224 33.5629 87.8264 34.3709 87.8264C35.0029 87.8264 35.5949 87.9384 36.1469 88.1624C36.7069 88.3864 37.1669 88.7024 37.5269 89.1104L36.7949 89.8424C36.5229 89.5064 36.1749 89.2504 35.7509 89.0744C35.3269 88.8904 34.8709 88.7984 34.3829 88.7984C33.7749 88.7984 33.2069 88.9464 32.6789 89.2424C32.1589 89.5304 31.7389 89.9424 31.4189 90.4784C31.1069 91.0064 30.9509 91.6184 30.9509 92.3144C30.9509 93.0104 31.1069 93.6264 31.4189 94.1624C31.7389 94.6904 32.1629 95.1024 32.6909 95.3984C33.2189 95.6864 33.7829 95.8304 34.3829 95.8304C34.9589 95.8304 35.4389 95.7424 35.8229 95.5664C36.2149 95.3824 36.5509 95.1424 36.8309 94.8464C37.0389 94.6224 37.2069 94.3544 37.3349 94.0424C37.4629 93.7224 37.5429 93.3704 37.5749 92.9864H34.3949V92.0384H38.5229C38.5629 92.2624 38.5829 92.4704 38.5829 92.6624C38.5829 93.1904 38.4989 93.7064 38.3309 94.2104C38.1629 94.7064 37.8949 95.1424 37.5269 95.5184C36.7349 96.3744 35.6829 96.8024 34.3709 96.8024ZM42.658 96.8024C42.058 96.8024 41.518 96.6584 41.038 96.3704C40.558 96.0824 40.182 95.6904 39.91 95.1944C39.646 94.6984 39.514 94.1504 39.514 93.5504C39.514 92.9504 39.646 92.4024 39.91 91.9064C40.182 91.4104 40.558 91.0184 41.038 90.7304C41.518 90.4424 42.058 90.2984 42.658 90.2984C43.258 90.2984 43.798 90.4424 44.278 90.7304C44.758 91.0184 45.13 91.4104 45.394 91.9064C45.666 92.4024 45.802 92.9504 45.802 93.5504C45.802 94.1504 45.666 94.6984 45.394 95.1944C45.13 95.6904 44.758 96.0824 44.278 96.3704C43.798 96.6584 43.258 96.8024 42.658 96.8024ZM42.658 95.8784C43.034 95.8784 43.382 95.7864 43.702 95.6024C44.03 95.4104 44.29 95.1384 44.482 94.7864C44.682 94.4344 44.782 94.0224 44.782 93.5504C44.782 93.0784 44.682 92.6664 44.482 92.3144C44.29 91.9624 44.03 91.6944 43.702 91.5104C43.382 91.3184 43.034 91.2224 42.658 91.2224C42.282 91.2224 41.93 91.3184 41.602 91.5104C41.274 91.6944 41.01 91.9624 40.81 92.3144C40.618 92.6664 40.522 93.0784 40.522 93.5504C40.522 94.0224 40.618 94.4344 40.81 94.7864C41.01 95.1384 41.274 95.4104 41.602 95.6024C41.93 95.7864 42.282 95.8784 42.658 95.8784ZM46.1387 90.4904H47.2307L49.1267 95.4104H49.1507L51.0707 90.4904H52.1387L49.6427 96.6104H48.6107L46.1387 90.4904ZM55.523 96.8024C54.939 96.8024 54.415 96.6624 53.951 96.3824C53.487 96.1024 53.123 95.7184 52.859 95.2304C52.603 94.7344 52.475 94.1784 52.475 93.5624C52.475 92.9704 52.595 92.4264 52.835 91.9304C53.083 91.4344 53.431 91.0384 53.879 90.7424C54.327 90.4464 54.847 90.2984 55.439 90.2984C56.039 90.2984 56.559 90.4344 56.999 90.7064C57.439 90.9704 57.775 91.3384 58.007 91.8104C58.247 92.2824 58.367 92.8224 58.367 93.4304C58.367 93.5504 58.355 93.6544 58.331 93.7424H53.495C53.519 94.2064 53.631 94.5984 53.831 94.9184C54.031 95.2384 54.283 95.4784 54.587 95.6384C54.899 95.7984 55.223 95.8784 55.559 95.8784C56.343 95.8784 56.947 95.5104 57.371 94.7744L58.235 95.1944C57.971 95.6904 57.611 96.0824 57.155 96.3704C56.707 96.6584 56.163 96.8024 55.523 96.8024ZM57.287 92.9024C57.271 92.6464 57.199 92.3904 57.071 92.1344C56.943 91.8784 56.739 91.6624 56.459 91.4864C56.187 91.3104 55.843 91.2224 55.427 91.2224C54.947 91.2224 54.539 91.3784 54.203 91.6904C53.875 91.9944 53.659 92.3984 53.555 92.9024H57.287ZM59.5607 90.4904H60.5327V91.4744H60.5807C60.7007 91.1384 60.9327 90.8624 61.2767 90.6464C61.6207 90.4224 61.9807 90.3104 62.3567 90.3104C62.6367 90.3104 62.8767 90.3504 63.0767 90.4304V91.5344C62.8207 91.4064 62.5327 91.3424 62.2127 91.3424C61.9167 91.3424 61.6447 91.4264 61.3967 91.5944C61.1487 91.7624 60.9487 91.9904 60.7967 92.2784C60.6527 92.5584 60.5807 92.8624 60.5807 93.1904V96.6104H59.5607V90.4904ZM64.0607 90.4904H65.0327V91.3904H65.0807C65.2487 91.0864 65.5167 90.8304 65.8847 90.6224C66.2527 90.4064 66.6447 90.2984 67.0607 90.2984C67.7967 90.2984 68.3567 90.5144 68.7407 90.9464C69.1327 91.3704 69.3287 91.9504 69.3287 92.6864V96.6104H68.3087V92.8424C68.3087 92.2744 68.1727 91.8624 67.9007 91.6064C67.6287 91.3504 67.2567 91.2224 66.7847 91.2224C66.4567 91.2224 66.1607 91.3144 65.8967 91.4984C65.6407 91.6824 65.4407 91.9264 65.2967 92.2304C65.1527 92.5264 65.0807 92.8384 65.0807 93.1664V96.6104H64.0607V90.4904ZM70.7873 90.4904H71.7593V91.3904H71.8073C71.9833 91.0784 72.2473 90.8184 72.5993 90.6104C72.9513 90.4024 73.3233 90.2984 73.7153 90.2984C74.1633 90.2984 74.5513 90.4064 74.8793 90.6224C75.2153 90.8384 75.4553 91.1264 75.5993 91.4864C75.8153 91.1264 76.0993 90.8384 76.4513 90.6224C76.8113 90.4064 77.2273 90.2984 77.6993 90.2984C78.4033 90.2984 78.9313 90.5144 79.2833 90.9464C79.6433 91.3704 79.8233 91.9504 79.8233 92.6864V96.6104H78.8153V92.8424C78.8153 92.2744 78.6993 91.8624 78.4673 91.6064C78.2353 91.3504 77.8913 91.2224 77.4353 91.2224C77.1313 91.2224 76.8553 91.3104 76.6073 91.4864C76.3593 91.6624 76.1633 91.8984 76.0193 92.1944C75.8833 92.4904 75.8153 92.8104 75.8153 93.1544V96.6104H74.7953V92.8544C74.7953 92.2784 74.6793 91.8624 74.4473 91.6064C74.2153 91.3504 73.8753 91.2224 73.4273 91.2224C73.1233 91.2224 72.8473 91.3144 72.5993 91.4984C72.3513 91.6744 72.1553 91.9144 72.0113 92.2184C71.8753 92.5144 71.8073 92.8344 71.8073 93.1784V96.6104H70.7873V90.4904ZM84.0113 96.8024C83.4273 96.8024 82.9033 96.6624 82.4393 96.3824C81.9753 96.1024 81.6113 95.7184 81.3473 95.2304C81.0913 94.7344 80.9633 94.1784 80.9633 93.5624C80.9633 92.9704 81.0833 92.4264 81.3232 91.9304C81.5713 91.4344 81.9193 91.0384 82.3673 90.7424C82.8153 90.4464 83.3353 90.2984 83.9273 90.2984C84.5273 90.2984 85.0473 90.4344 85.4873 90.7064C85.9273 90.9704 86.2633 91.3384 86.4953 91.8104C86.7353 92.2824 86.8553 92.8224 86.8553 93.4304C86.8553 93.5504 86.8433 93.6544 86.8193 93.7424H81.9833C82.0073 94.2064 82.1193 94.5984 82.3193 94.9184C82.5193 95.2384 82.7713 95.4784 83.0753 95.6384C83.3873 95.7984 83.7113 95.8784 84.0473 95.8784C84.8313 95.8784 85.4353 95.5104 85.8593 94.7744L86.7233 95.1944C86.4593 95.6904 86.0993 96.0824 85.6433 96.3704C85.1953 96.6584 84.6513 96.8024 84.0113 96.8024ZM85.7753 92.9024C85.7593 92.6464 85.6873 92.3904 85.5593 92.1344C85.4313 91.8784 85.2273 91.6624 84.9473 91.4864C84.6753 91.3104 84.3313 91.2224 83.9153 91.2224C83.4353 91.2224 83.0273 91.3784 82.6913 91.6904C82.3633 91.9944 82.1473 92.3984 82.0433 92.9024H85.7753ZM88.049 90.4904H89.021V91.3904H89.069C89.237 91.0864 89.505 90.8304 89.873 90.6224C90.241 90.4064 90.633 90.2984 91.049 90.2984C91.785 90.2984 92.345 90.5144 92.729 90.9464C93.121 91.3704 93.317 91.9504 93.317 92.6864V96.6104H92.297V92.8424C92.297 92.2744 92.161 91.8624 91.889 91.6064C91.617 91.3504 91.245 91.2224 90.773 91.2224C90.445 91.2224 90.149 91.3144 89.885 91.4984C89.629 91.6824 89.429 91.9264 89.285 92.2304C89.141 92.5264 89.069 92.8384 89.069 93.1664V96.6104H88.049V90.4904ZM96.8228 96.7064C96.5748 96.7064 96.3428 96.6664 96.1268 96.5864C95.9188 96.5064 95.7428 96.3984 95.5988 96.2624C95.4388 96.1104 95.3188 95.9344 95.2388 95.7344C95.1588 95.5344 95.1188 95.2904 95.1188 95.0024V91.4144H94.0508V90.4904H95.1188V88.7624H96.1388V90.4904H97.6268V91.4144H96.1388V94.7504C96.1388 95.0864 96.2028 95.3344 96.3308 95.4944C96.4828 95.6704 96.7028 95.7584 96.9908 95.7584C97.2228 95.7584 97.4468 95.6904 97.6628 95.5544V96.5504C97.5428 96.6064 97.4188 96.6464 97.2908 96.6704C97.1708 96.6944 97.0148 96.7064 96.8228 96.7064ZM105.656 96.8024C104.824 96.8024 104.068 96.6064 103.388 96.2144C102.708 95.8224 102.172 95.2864 101.78 94.6064C101.396 93.9184 101.204 93.1544 101.204 92.3144C101.204 91.4744 101.396 90.7144 101.78 90.0344C102.172 89.3464 102.708 88.8064 103.388 88.4144C104.068 88.0224 104.824 87.8264 105.656 87.8264C106.296 87.8264 106.88 87.9504 107.408 88.1984C107.944 88.4384 108.408 88.7824 108.8 89.2304L108.068 89.9384C107.74 89.5464 107.38 89.2584 106.988 89.0744C106.604 88.8904 106.16 88.7984 105.656 88.7984C105.032 88.7984 104.46 88.9464 103.94 89.2424C103.42 89.5304 103.004 89.9424 102.692 90.4784C102.388 91.0064 102.236 91.6184 102.236 92.3144C102.236 93.0104 102.388 93.6264 102.692 94.1624C103.004 94.6904 103.42 95.1024 103.94 95.3984C104.46 95.6864 105.032 95.8304 105.656 95.8304C106.696 95.8304 107.58 95.4024 108.308 94.5464L109.052 95.2664C108.652 95.7384 108.16 96.1144 107.576 96.3944C106.992 96.6664 106.352 96.8024 105.656 96.8024ZM112.9 96.8024C112.3 96.8024 111.76 96.6584 111.28 96.3704C110.8 96.0824 110.424 95.6904 110.152 95.1944C109.888 94.6984 109.756 94.1504 109.756 93.5504C109.756 92.9504 109.888 92.4024 110.152 91.9064C110.424 91.4104 110.8 91.0184 111.28 90.7304C111.76 90.4424 112.3 90.2984 112.9 90.2984C113.5 90.2984 114.04 90.4424 114.52 90.7304C115 91.0184 115.372 91.4104 115.636 91.9064C115.908 92.4024 116.044 92.9504 116.044 93.5504C116.044 94.1504 115.908 94.6984 115.636 95.1944C115.372 95.6904 115 96.0824 114.52 96.3704C114.04 96.6584 113.5 96.8024 112.9 96.8024ZM112.9 95.8784C113.276 95.8784 113.624 95.7864 113.944 95.6024C114.272 95.4104 114.532 95.1384 114.724 94.7864C114.924 94.4344 115.024 94.0224 115.024 93.5504C115.024 93.0784 114.924 92.6664 114.724 92.3144C114.532 91.9624 114.272 91.6944 113.944 91.5104C113.624 91.3184 113.276 91.2224 112.9 91.2224C112.524 91.2224 112.172 91.3184 111.844 91.5104C111.516 91.6944 111.252 91.9624 111.052 92.3144C110.86 92.6664 110.764 93.0784 110.764 93.5504C110.764 94.0224 110.86 94.4344 111.052 94.7864C111.252 95.1384 111.516 95.4104 111.844 95.6024C112.172 95.7864 112.524 95.8784 112.9 95.8784ZM117.17 88.0184H118.19V96.6104H117.17V88.0184ZM119.701 88.0184H120.721V96.6104H119.701V88.0184ZM124.898 96.8024C124.314 96.8024 123.79 96.6624 123.326 96.3824C122.862 96.1024 122.498 95.7184 122.234 95.2304C121.978 94.7344 121.85 94.1784 121.85 93.5624C121.85 92.9704 121.97 92.4264 122.21 91.9304C122.458 91.4344 122.806 91.0384 123.254 90.7424C123.702 90.4464 124.222 90.2984 124.814 90.2984C125.414 90.2984 125.934 90.4344 126.374 90.7064C126.814 90.9704 127.15 91.3384 127.382 91.8104C127.622 92.2824 127.742 92.8224 127.742 93.4304C127.742 93.5504 127.73 93.6544 127.706 93.7424H122.87C122.894 94.2064 123.006 94.5984 123.206 94.9184C123.406 95.2384 123.658 95.4784 123.962 95.6384C124.274 95.7984 124.598 95.8784 124.934 95.8784C125.718 95.8784 126.322 95.5104 126.746 94.7744L127.61 95.1944C127.346 95.6904 126.986 96.0824 126.53 96.3704C126.082 96.6584 125.538 96.8024 124.898 96.8024ZM126.662 92.9024C126.646 92.6464 126.574 92.3904 126.446 92.1344C126.318 91.8784 126.114 91.6624 125.834 91.4864C125.562 91.3104 125.218 91.2224 124.802 91.2224C124.322 91.2224 123.914 91.3784 123.578 91.6904C123.25 91.9944 123.034 92.3984 122.93 92.9024H126.662ZM131.682 99.3944C130.962 99.3944 130.366 99.2264 129.894 98.8904C129.43 98.5544 129.118 98.1504 128.958 97.6784L129.882 97.2824C130.018 97.6344 130.242 97.9184 130.554 98.1344C130.874 98.3584 131.25 98.4704 131.682 98.4704C132.314 98.4704 132.802 98.2864 133.146 97.9184C133.498 97.5504 133.674 97.0304 133.674 96.3584V95.6744H133.626C133.426 95.9864 133.142 96.2424 132.774 96.4424C132.414 96.6344 132.002 96.7304 131.538 96.7304C131.01 96.7304 130.526 96.5944 130.086 96.3224C129.654 96.0504 129.31 95.6704 129.054 95.1824C128.798 94.6944 128.67 94.1384 128.67 93.5144C128.67 92.8984 128.798 92.3464 129.054 91.8584C129.31 91.3624 129.654 90.9784 130.086 90.7064C130.526 90.4344 131.01 90.2984 131.538 90.2984C132.002 90.2984 132.414 90.3984 132.774 90.5984C133.142 90.7904 133.426 91.0464 133.626 91.3664H133.674V90.4904H134.646V96.3704C134.646 97.3544 134.374 98.1024 133.83 98.6144C133.286 99.1344 132.57 99.3944 131.682 99.3944ZM131.682 95.8064C132.05 95.8064 132.382 95.7144 132.678 95.5304C132.982 95.3464 133.222 95.0824 133.398 94.7384C133.582 94.3944 133.674 93.9864 133.674 93.5144C133.674 93.0344 133.582 92.6224 133.398 92.2784C133.222 91.9344 132.982 91.6744 132.678 91.4984C132.382 91.3144 132.05 91.2224 131.682 91.2224C131.314 91.2224 130.978 91.3144 130.674 91.4984C130.37 91.6824 130.126 91.9464 129.942 92.2904C129.766 92.6344 129.678 93.0424 129.678 93.5144C129.678 93.9864 129.766 94.3984 129.942 94.7504C130.126 95.0944 130.37 95.3584 130.674 95.5424C130.978 95.7184 131.314 95.8064 131.682 95.8064ZM138.82 96.8024C138.236 96.8024 137.712 96.6624 137.248 96.3824C136.784 96.1024 136.42 95.7184 136.156 95.2304C135.9 94.7344 135.772 94.1784 135.772 93.5624C135.772 92.9704 135.892 92.4264 136.132 91.9304C136.38 91.4344 136.728 91.0384 137.176 90.7424C137.624 90.4464 138.144 90.2984 138.736 90.2984C139.336 90.2984 139.856 90.4344 140.296 90.7064C140.736 90.9704 141.072 91.3384 141.304 91.8104C141.544 92.2824 141.664 92.8224 141.664 93.4304C141.664 93.5504 141.652 93.6544 141.628 93.7424H136.792C136.816 94.2064 136.928 94.5984 137.128 94.9184C137.328 95.2384 137.58 95.4784 137.884 95.6384C138.196 95.7984 138.52 95.8784 138.856 95.8784C139.64 95.8784 140.244 95.5104 140.668 94.7744L141.532 95.1944C141.268 95.6904 140.908 96.0824 140.452 96.3704C140.004 96.6584 139.46 96.8024 138.82 96.8024ZM140.584 92.9024C140.568 92.6464 140.496 92.3904 140.368 92.1344C140.24 91.8784 140.036 91.6624 139.756 91.4864C139.484 91.3104 139.14 91.2224 138.724 91.2224C138.244 91.2224 137.836 91.3784 137.5 91.6904C137.172 91.9944 136.956 92.3984 136.852 92.9024H140.584ZM149.6 96.8024C148.776 96.8024 148.028 96.6024 147.356 96.2024C146.684 95.8024 146.156 95.2624 145.772 94.5824C145.388 93.8944 145.196 93.1384 145.196 92.3144C145.196 91.4984 145.388 90.7464 145.772 90.0584C146.156 89.3704 146.684 88.8264 147.356 88.4264C148.028 88.0264 148.776 87.8264 149.6 87.8264C150.424 87.8264 151.172 88.0264 151.844 88.4264C152.516 88.8264 153.044 89.3704 153.428 90.0584C153.82 90.7464 154.016 91.4984 154.016 92.3144C154.016 93.1384 153.824 93.8944 153.44 94.5824C153.056 95.2624 152.524 95.8024 151.844 96.2024C151.172 96.6024 150.424 96.8024 149.6 96.8024ZM149.6 95.8304C150.216 95.8304 150.78 95.6824 151.292 95.3864C151.812 95.0824 152.22 94.6664 152.516 94.1384C152.82 93.6024 152.972 92.9944 152.972 92.3144C152.972 91.6344 152.82 91.0304 152.516 90.5024C152.22 89.9664 151.812 89.5504 151.292 89.2544C150.78 88.9504 150.216 88.7984 149.6 88.7984C148.984 88.7984 148.42 88.9504 147.908 89.2544C147.396 89.5504 146.988 89.9664 146.684 90.5024C146.38 91.0384 146.228 91.6424 146.228 92.3144C146.228 92.9864 146.38 93.5904 146.684 94.1264C146.988 94.6624 147.396 95.0824 147.908 95.3864C148.42 95.6824 148.984 95.8304 149.6 95.8304ZM156.023 91.4144H154.895V90.4904H156.023V89.8304C156.023 89.4464 156.111 89.1104 156.287 88.8224C156.463 88.5344 156.699 88.3144 156.995 88.1624C157.291 88.0024 157.619 87.9224 157.979 87.9224C158.323 87.9224 158.623 87.9704 158.879 88.0664V89.0624C158.735 89.0064 158.599 88.9624 158.471 88.9304C158.343 88.8904 158.191 88.8704 158.015 88.8704C157.751 88.8704 157.523 88.9664 157.331 89.1584C157.139 89.3424 157.043 89.6024 157.043 89.9384V90.4904H158.615V91.4144H157.043V96.6104H156.023V91.4144ZM162.855 88.0184H167.823V88.9904H163.863V91.8344H167.439V92.7944H163.863V95.6384H167.823V96.6104H162.855V88.0184ZM169.143 90.4904H170.115V91.3904H170.163C170.331 91.0864 170.599 90.8304 170.967 90.6224C171.335 90.4064 171.727 90.2984 172.143 90.2984C172.879 90.2984 173.439 90.5144 173.823 90.9464C174.215 91.3704 174.411 91.9504 174.411 92.6864V96.6104H173.391V92.8424C173.391 92.2744 173.255 91.8624 172.983 91.6064C172.711 91.3504 172.339 91.2224 171.867 91.2224C171.539 91.2224 171.243 91.3144 170.979 91.4984C170.723 91.6824 170.523 91.9264 170.379 92.2304C170.235 92.5264 170.163 92.8384 170.163 93.1664V96.6104H169.143V90.4904ZM178.499 99.3944C177.779 99.3944 177.183 99.2264 176.711 98.8904C176.247 98.5544 175.935 98.1504 175.775 97.6784L176.699 97.2824C176.835 97.6344 177.059 97.9184 177.371 98.1344C177.691 98.3584 178.067 98.4704 178.499 98.4704C179.131 98.4704 179.619 98.2864 179.963 97.9184C180.315 97.5504 180.491 97.0304 180.491 96.3584V95.6744H180.443C180.243 95.9864 179.959 96.2424 179.591 96.4424C179.231 96.6344 178.819 96.7304 178.355 96.7304C177.827 96.7304 177.343 96.5944 176.903 96.3224C176.471 96.0504 176.127 95.6704 175.871 95.1824C175.615 94.6944 175.487 94.1384 175.487 93.5144C175.487 92.8984 175.615 92.3464 175.871 91.8584C176.127 91.3624 176.471 90.9784 176.903 90.7064C177.343 90.4344 177.827 90.2984 178.355 90.2984C178.819 90.2984 179.231 90.3984 179.591 90.5984C179.959 90.7904 180.243 91.0464 180.443 91.3664H180.491V90.4904H181.463V96.3704C181.463 97.3544 181.191 98.1024 180.647 98.6144C180.103 99.1344 179.387 99.3944 178.499 99.3944ZM178.499 95.8064C178.867 95.8064 179.199 95.7144 179.495 95.5304C179.799 95.3464 180.039 95.0824 180.215 94.7384C180.399 94.3944 180.491 93.9864 180.491 93.5144C180.491 93.0344 180.399 92.6224 180.215 92.2784C180.039 91.9344 179.799 91.6744 179.495 91.4984C179.199 91.3144 178.867 91.2224 178.499 91.2224C178.131 91.2224 177.795 91.3144 177.491 91.4984C177.187 91.6824 176.943 91.9464 176.759 92.2904C176.583 92.6344 176.495 93.0424 176.495 93.5144C176.495 93.9864 176.583 94.3984 176.759 94.7504C176.943 95.0944 177.187 95.3584 177.491 95.5424C177.795 95.7184 178.131 95.8064 178.499 95.8064ZM183.571 89.3624C183.371 89.3624 183.199 89.2904 183.055 89.1464C182.911 89.0024 182.839 88.8304 182.839 88.6304C182.839 88.4304 182.911 88.2624 183.055 88.1264C183.199 87.9824 183.371 87.9104 183.571 87.9104C183.771 87.9104 183.943 87.9824 184.087 88.1264C184.231 88.2624 184.303 88.4304 184.303 88.6304C184.303 88.8304 184.231 89.0024 184.087 89.1464C183.951 89.2904 183.779 89.3624 183.571 89.3624ZM183.067 90.4904H184.075V96.6104H183.067V90.4904ZM185.678 90.4904H186.65V91.3904H186.698C186.866 91.0864 187.134 90.8304 187.502 90.6224C187.87 90.4064 188.262 90.2984 188.678 90.2984C189.414 90.2984 189.974 90.5144 190.358 90.9464C190.75 91.3704 190.946 91.9504 190.946 92.6864V96.6104H189.926V92.8424C189.926 92.2744 189.79 91.8624 189.518 91.6064C189.246 91.3504 188.874 91.2224 188.402 91.2224C188.074 91.2224 187.778 91.3144 187.514 91.4984C187.258 91.6824 187.058 91.9264 186.914 92.2304C186.77 92.5264 186.698 92.8384 186.698 93.1664V96.6104H185.678V90.4904ZM195.128 96.8024C194.544 96.8024 194.02 96.6624 193.556 96.3824C193.092 96.1024 192.728 95.7184 192.464 95.2304C192.208 94.7344 192.08 94.1784 192.08 93.5624C192.08 92.9704 192.2 92.4264 192.44 91.9304C192.688 91.4344 193.036 91.0384 193.484 90.7424C193.932 90.4464 194.452 90.2984 195.044 90.2984C195.644 90.2984 196.164 90.4344 196.604 90.7064C197.044 90.9704 197.38 91.3384 197.612 91.8104C197.852 92.2824 197.972 92.8224 197.972 93.4304C197.972 93.5504 197.96 93.6544 197.936 93.7424H193.1C193.124 94.2064 193.236 94.5984 193.436 94.9184C193.636 95.2384 193.888 95.4784 194.192 95.6384C194.504 95.7984 194.828 95.8784 195.164 95.8784C195.948 95.8784 196.552 95.5104 196.976 94.7744L197.84 95.1944C197.576 95.6904 197.216 96.0824 196.76 96.3704C196.312 96.6584 195.768 96.8024 195.128 96.8024ZM196.892 92.9024C196.876 92.6464 196.804 92.3904 196.676 92.1344C196.548 91.8784 196.344 91.6624 196.064 91.4864C195.792 91.3104 195.448 91.2224 195.032 91.2224C194.552 91.2224 194.144 91.3784 193.808 91.6904C193.48 91.9944 193.264 92.3984 193.16 92.9024H196.892ZM201.949 96.8024C201.365 96.8024 200.841 96.6624 200.377 96.3824C199.913 96.1024 199.549 95.7184 199.285 95.2304C199.029 94.7344 198.901 94.1784 198.901 93.5624C198.901 92.9704 199.021 92.4264 199.261 91.9304C199.509 91.4344 199.857 91.0384 200.305 90.7424C200.753 90.4464 201.273 90.2984 201.865 90.2984C202.465 90.2984 202.985 90.4344 203.425 90.7064C203.865 90.9704 204.201 91.3384 204.433 91.8104C204.673 92.2824 204.793 92.8224 204.793 93.4304C204.793 93.5504 204.781 93.6544 204.757 93.7424H199.921C199.945 94.2064 200.057 94.5984 200.257 94.9184C200.457 95.2384 200.709 95.4784 201.013 95.6384C201.325 95.7984 201.649 95.8784 201.985 95.8784C202.769 95.8784 203.373 95.5104 203.797 94.7744L204.661 95.1944C204.397 95.6904 204.037 96.0824 203.581 96.3704C203.133 96.6584 202.589 96.8024 201.949 96.8024ZM203.713 92.9024C203.697 92.6464 203.625 92.3904 203.497 92.1344C203.369 91.8784 203.165 91.6624 202.885 91.4864C202.613 91.3104 202.269 91.2224 201.853 91.2224C201.373 91.2224 200.965 91.3784 200.629 91.6904C200.301 91.9944 200.085 92.3984 199.981 92.9024H203.713ZM205.986 90.4904H206.958V91.4744H207.006C207.126 91.1384 207.358 90.8624 207.702 90.6464C208.046 90.4224 208.406 90.3104 208.782 90.3104C209.062 90.3104 209.302 90.3504 209.502 90.4304V91.5344C209.246 91.4064 208.958 91.3424 208.638 91.3424C208.342 91.3424 208.07 91.4264 207.822 91.5944C207.574 91.7624 207.374 91.9904 207.222 92.2784C207.078 92.5584 207.006 92.8624 207.006 93.1904V96.6104H205.986V90.4904ZM211.086 89.3624C210.886 89.3624 210.714 89.2904 210.57 89.1464C210.426 89.0024 210.354 88.8304 210.354 88.6304C210.354 88.4304 210.426 88.2624 210.57 88.1264C210.714 87.9824 210.886 87.9104 211.086 87.9104C211.286 87.9104 211.458 87.9824 211.602 88.1264C211.746 88.2624 211.818 88.4304 211.818 88.6304C211.818 88.8304 211.746 89.0024 211.602 89.1464C211.466 89.2904 211.294 89.3624 211.086 89.3624ZM210.582 90.4904H211.59V96.6104H210.582V90.4904ZM213.194 90.4904H214.166V91.3904H214.214C214.382 91.0864 214.65 90.8304 215.018 90.6224C215.386 90.4064 215.778 90.2984 216.194 90.2984C216.93 90.2984 217.49 90.5144 217.874 90.9464C218.266 91.3704 218.462 91.9504 218.462 92.6864V96.6104H217.442V92.8424C217.442 92.2744 217.306 91.8624 217.034 91.6064C216.762 91.3504 216.39 91.2224 215.918 91.2224C215.59 91.2224 215.294 91.3144 215.03 91.4984C214.774 91.6824 214.574 91.9264 214.43 92.2304C214.286 92.5264 214.214 92.8384 214.214 93.1664V96.6104H213.194V90.4904ZM222.549 99.3944C221.829 99.3944 221.233 99.2264 220.761 98.8904C220.297 98.5544 219.985 98.1504 219.825 97.6784L220.749 97.2824C220.885 97.6344 221.109 97.9184 221.421 98.1344C221.741 98.3584 222.117 98.4704 222.549 98.4704C223.181 98.4704 223.669 98.2864 224.013 97.9184C224.365 97.5504 224.541 97.0304 224.541 96.3584V95.6744H224.493C224.293 95.9864 224.009 96.2424 223.641 96.4424C223.281 96.6344 222.869 96.7304 222.405 96.7304C221.877 96.7304 221.393 96.5944 220.953 96.3224C220.521 96.0504 220.177 95.6704 219.921 95.1824C219.665 94.6944 219.537 94.1384 219.537 93.5144C219.537 92.8984 219.665 92.3464 219.921 91.8584C220.177 91.3624 220.521 90.9784 220.953 90.7064C221.393 90.4344 221.877 90.2984 222.405 90.2984C222.869 90.2984 223.281 90.3984 223.641 90.5984C224.009 90.7904 224.293 91.0464 224.493 91.3664H224.541V90.4904H225.513V96.3704C225.513 97.3544 225.241 98.1024 224.697 98.6144C224.153 99.1344 223.437 99.3944 222.549 99.3944ZM222.549 95.8064C222.917 95.8064 223.249 95.7144 223.545 95.5304C223.849 95.3464 224.089 95.0824 224.265 94.7384C224.449 94.3944 224.541 93.9864 224.541 93.5144C224.541 93.0344 224.449 92.6224 224.265 92.2784C224.089 91.9344 223.849 91.6744 223.545 91.4984C223.249 91.3144 222.917 91.2224 222.549 91.2224C222.181 91.2224 221.845 91.3144 221.541 91.4984C221.237 91.6824 220.993 91.9464 220.809 92.2904C220.633 92.6344 220.545 93.0424 220.545 93.5144C220.545 93.9864 220.633 94.3984 220.809 94.7504C220.993 95.0944 221.237 95.3584 221.541 95.5424C221.845 95.7184 222.181 95.8064 222.549 95.8064ZM232.123 88.0184H233.275L236.539 96.6104H235.423L234.559 94.2464H230.851L229.987 96.6104H228.871L232.123 88.0184ZM234.211 93.2864L233.071 90.1904L232.723 89.2664H232.675L232.339 90.1904L231.199 93.2864H234.211ZM237.475 90.4904H238.447V91.3904H238.495C238.671 91.0784 238.935 90.8184 239.287 90.6104C239.639 90.4024 240.011 90.2984 240.403 90.2984C240.851 90.2984 241.239 90.4064 241.567 90.6224C241.903 90.8384 242.143 91.1264 242.287 91.4864C242.503 91.1264 242.787 90.8384 243.139 90.6224C243.499 90.4064 243.915 90.2984 244.387 90.2984C245.091 90.2984 245.619 90.5144 245.971 90.9464C246.331 91.3704 246.511 91.9504 246.511 92.6864V96.6104H245.503V92.8424C245.503 92.2744 245.387 91.8624 245.155 91.6064C244.923 91.3504 244.579 91.2224 244.123 91.2224C243.819 91.2224 243.543 91.3104 243.295 91.4864C243.047 91.6624 242.851 91.8984 242.707 92.1944C242.571 92.4904 242.503 92.8104 242.503 93.1544V96.6104H241.483V92.8544C241.483 92.2784 241.367 91.8624 241.135 91.6064C240.903 91.3504 240.563 91.2224 240.115 91.2224C239.811 91.2224 239.535 91.3144 239.287 91.4984C239.039 91.6744 238.843 91.9144 238.699 92.2184C238.563 92.5144 238.495 92.8344 238.495 93.1784V96.6104H237.475V90.4904ZM247.975 90.4904H248.947V91.4744H248.995C249.115 91.1384 249.347 90.8624 249.691 90.6464C250.035 90.4224 250.395 90.3104 250.771 90.3104C251.051 90.3104 251.291 90.3504 251.491 90.4304V91.5344C251.235 91.4064 250.947 91.3424 250.627 91.3424C250.331 91.3424 250.059 91.4264 249.811 91.5944C249.563 91.7624 249.363 91.9904 249.211 92.2784C249.067 92.5584 248.995 92.8624 248.995 93.1904V96.6104H247.975V90.4904ZM254.196 96.8024C253.748 96.8024 253.348 96.7144 252.996 96.5384C252.644 96.3624 252.372 96.1224 252.18 95.8184C251.988 95.5064 251.892 95.1544 251.892 94.7624C251.892 94.1144 252.136 93.6104 252.624 93.2504C253.112 92.8824 253.728 92.6984 254.472 92.6984C254.84 92.6984 255.18 92.7384 255.492 92.8184C255.812 92.8984 256.056 92.9904 256.224 93.0944V92.7224C256.224 92.2664 256.064 91.9024 255.744 91.6304C255.424 91.3504 255.02 91.2104 254.532 91.2104C254.188 91.2104 253.872 91.2864 253.584 91.4384C253.296 91.5824 253.068 91.7864 252.9 92.0504L252.132 91.4744C252.372 91.1064 252.7 90.8184 253.116 90.6104C253.54 90.4024 254.008 90.2984 254.52 90.2984C255.352 90.2984 256.004 90.5184 256.476 90.9584C256.956 91.3904 257.196 91.9824 257.196 92.7344V96.6104H256.224V95.7344H256.176C256 96.0304 255.736 96.2824 255.384 96.4904C255.032 96.6984 254.636 96.8024 254.196 96.8024ZM254.292 95.9024C254.636 95.9024 254.956 95.8144 255.252 95.6384C255.548 95.4624 255.784 95.2264 255.96 94.9304C256.136 94.6344 256.224 94.3104 256.224 93.9584C256.032 93.8304 255.796 93.7264 255.516 93.6464C255.236 93.5664 254.94 93.5264 254.628 93.5264C254.068 93.5264 253.644 93.6424 253.356 93.8744C253.076 94.1064 252.936 94.4064 252.936 94.7744C252.936 95.1104 253.064 95.3824 253.32 95.5904C253.576 95.7984 253.9 95.9024 254.292 95.9024ZM257.826 90.4904H258.918L260.814 95.4104H260.838L262.758 90.4904H263.826L261.33 96.6104H260.298L257.826 90.4904ZM266.501 96.8024C266.053 96.8024 265.653 96.7144 265.301 96.5384C264.949 96.3624 264.677 96.1224 264.485 95.8184C264.293 95.5064 264.197 95.1544 264.197 94.7624C264.197 94.1144 264.441 93.6104 264.929 93.2504C265.417 92.8824 266.033 92.6984 266.777 92.6984C267.145 92.6984 267.485 92.7384 267.797 92.8184C268.117 92.8984 268.361 92.9904 268.529 93.0944V92.7224C268.529 92.2664 268.369 91.9024 268.049 91.6304C267.729 91.3504 267.325 91.2104 266.837 91.2104C266.493 91.2104 266.177 91.2864 265.889 91.4384C265.601 91.5824 265.373 91.7864 265.205 92.0504L264.437 91.4744C264.677 91.1064 265.005 90.8184 265.421 90.6104C265.845 90.4024 266.313 90.2984 266.825 90.2984C267.657 90.2984 268.309 90.5184 268.781 90.9584C269.261 91.3904 269.501 91.9824 269.501 92.7344V96.6104H268.529V95.7344H268.481C268.305 96.0304 268.041 96.2824 267.689 96.4904C267.337 96.6984 266.941 96.8024 266.501 96.8024ZM266.597 95.9024C266.941 95.9024 267.261 95.8144 267.557 95.6384C267.853 95.4624 268.089 95.2264 268.265 94.9304C268.441 94.6344 268.529 94.3104 268.529 93.9584C268.337 93.8304 268.101 93.7264 267.821 93.6464C267.541 93.5664 267.245 93.5264 266.933 93.5264C266.373 93.5264 265.949 93.6424 265.661 93.8744C265.381 94.1064 265.241 94.4064 265.241 94.7744C265.241 95.1104 265.369 95.3824 265.625 95.5904C265.881 95.7984 266.205 95.9024 266.597 95.9024ZM273.155 96.7064C272.907 96.7064 272.675 96.6664 272.459 96.5864C272.251 96.5064 272.075 96.3984 271.931 96.2624C271.771 96.1104 271.651 95.9344 271.571 95.7344C271.491 95.5344 271.451 95.2904 271.451 95.0024V91.4144H270.383V90.4904H271.451V88.7624H272.471V90.4904H273.959V91.4144H272.471V94.7504C272.471 95.0864 272.535 95.3344 272.663 95.4944C272.815 95.6704 273.035 95.7584 273.323 95.7584C273.555 95.7584 273.779 95.6904 273.995 95.5544V96.5504C273.875 96.6064 273.751 96.6464 273.623 96.6704C273.503 96.6944 273.347 96.7064 273.155 96.7064ZM275.856 89.3624C275.656 89.3624 275.484 89.2904 275.34 89.1464C275.196 89.0024 275.124 88.8304 275.124 88.6304C275.124 88.4304 275.196 88.2624 275.34 88.1264C275.484 87.9824 275.656 87.9104 275.856 87.9104C276.056 87.9104 276.228 87.9824 276.372 88.1264C276.516 88.2624 276.588 88.4304 276.588 88.6304C276.588 88.8304 276.516 89.0024 276.372 89.1464C276.236 89.2904 276.064 89.3624 275.856 89.3624ZM275.352 90.4904H276.36V96.6104H275.352V90.4904Z" fill="#616161"/>
</svg>
