<svg width="304" height="120" viewBox="0 0 304 120" fill="none" xmlns="http://www.w3.org/2000/svg">
<rect width="304" height="120" rx="6" fill="#282828"/>
<path d="M34.0871 75.1403C32.9783 75.1403 31.9564 74.874 31.0216 74.3413C30.0867 73.8086 29.342 73.0803 28.7876 72.1563C28.2441 71.2214 27.9723 70.1833 27.9723 69.0418C27.9723 67.9004 28.2441 66.8677 28.7876 65.9437C29.342 65.0088 30.0867 64.275 31.0216 63.7424C31.9564 63.2097 32.9783 62.9434 34.0871 62.9434C34.9676 62.9434 35.7884 63.101 36.5493 63.4163C37.3102 63.7315 37.9462 64.1718 38.4571 64.737L37.1852 66.0089C36.8048 65.585 36.3482 65.2588 35.8155 65.0306C35.2937 64.8023 34.7122 64.6881 34.0708 64.6881C33.3207 64.6881 32.6195 64.8675 31.9673 65.2262C31.3151 65.585 30.7933 66.0959 30.4019 66.759C30.0106 67.4221 29.8149 68.1831 29.8149 69.0418C29.8149 69.9006 30.0106 70.6616 30.4019 71.3247C30.7933 71.9878 31.3151 72.4987 31.9673 72.8574C32.6195 73.2162 33.3261 73.3955 34.0871 73.3955C34.7828 73.3955 35.3644 73.2923 35.8318 73.0857C36.2993 72.8792 36.7178 72.602 37.0874 72.2541C37.3266 72.015 37.5277 71.716 37.6907 71.3573C37.8647 70.9986 37.9788 70.6072 38.0332 70.1833H34.0708V68.5527H39.7616C39.8159 68.857 39.8431 69.1723 39.8431 69.4984C39.8431 70.2376 39.729 70.9496 39.5007 71.6345C39.2724 72.3085 38.9082 72.8955 38.4082 73.3955C37.3102 74.5587 35.8699 75.1403 34.0871 75.1403ZM45.4753 75.1403C44.6383 75.1403 43.8882 74.9501 43.2251 74.5696C42.562 74.1782 42.0456 73.6456 41.676 72.9716C41.3064 72.2976 41.1216 71.5475 41.1216 70.7214C41.1216 69.8952 41.3064 69.1451 41.676 68.4711C42.0456 67.7971 42.562 67.2699 43.2251 66.8894C43.8882 66.4981 44.6383 66.3024 45.4753 66.3024C46.3124 66.3024 47.0624 66.4981 47.7256 66.8894C48.3887 67.2808 48.905 67.8134 49.2746 68.4874C49.6442 69.1614 49.829 69.9061 49.829 70.7214C49.829 71.5475 49.6442 72.2976 49.2746 72.9716C48.905 73.6456 48.3887 74.1782 47.7256 74.5696C47.0624 74.9501 46.3124 75.1403 45.4753 75.1403ZM45.4753 73.4934C45.9319 73.4934 46.3559 73.3847 46.7472 73.1673C47.1385 72.939 47.4484 72.6183 47.6766 72.2052C47.9158 71.7812 48.0354 71.2866 48.0354 70.7214C48.0354 70.1561 47.9158 69.6669 47.6766 69.2538C47.4484 68.8407 47.1385 68.5255 46.7472 68.3081C46.3559 68.0798 45.9319 67.9656 45.4753 67.9656C45.0188 67.9656 44.5948 68.0798 44.2035 68.3081C43.8121 68.5255 43.4969 68.8407 43.2577 69.2538C43.0294 69.6669 42.9153 70.1561 42.9153 70.7214C42.9153 71.2866 43.0294 71.7812 43.2577 72.2052C43.4969 72.6183 43.8121 72.939 44.2035 73.1673C44.5948 73.3847 45.0188 73.4934 45.4753 73.4934ZM55.38 75.1403C54.5429 75.1403 53.7928 74.9501 53.1297 74.5696C52.4666 74.1782 51.9503 73.6456 51.5807 72.9716C51.2111 72.2976 51.0263 71.5475 51.0263 70.7214C51.0263 69.8952 51.2111 69.1451 51.5807 68.4711C51.9503 67.7971 52.4666 67.2699 53.1297 66.8894C53.7928 66.4981 54.5429 66.3024 55.38 66.3024C56.217 66.3024 56.9671 66.4981 57.6302 66.8894C58.2933 67.2808 58.8097 67.8134 59.1793 68.4874C59.5489 69.1614 59.7337 69.9061 59.7337 70.7214C59.7337 71.5475 59.5489 72.2976 59.1793 72.9716C58.8097 73.6456 58.2933 74.1782 57.6302 74.5696C56.9671 74.9501 56.217 75.1403 55.38 75.1403ZM55.38 73.4934C55.8365 73.4934 56.2605 73.3847 56.6518 73.1673C57.0432 72.939 57.353 72.6183 57.5813 72.2052C57.8204 71.7812 57.94 71.2866 57.94 70.7214C57.94 70.1561 57.8204 69.6669 57.5813 69.2538C57.353 68.8407 57.0432 68.5255 56.6518 68.3081C56.2605 68.0798 55.8365 67.9656 55.38 67.9656C54.9234 67.9656 54.4994 68.0798 54.1081 68.3081C53.7167 68.5255 53.4015 68.8407 53.1623 69.2538C52.9341 69.6669 52.8199 70.1561 52.8199 70.7214C52.8199 71.2866 52.9341 71.7812 53.1623 72.2052C53.4015 72.6183 53.7167 72.939 54.1081 73.1673C54.4994 73.3847 54.9234 73.4934 55.38 73.4934ZM65.1378 78.6624C64.116 78.6624 63.2681 78.4287 62.5941 77.9612C61.931 77.4938 61.4853 76.9394 61.257 76.298L62.9365 75.5969C63.1105 76.0317 63.3877 76.3795 63.7681 76.6404C64.1595 76.9122 64.6161 77.0481 65.1378 77.0481C65.8988 77.0481 66.4912 76.8198 66.9152 76.3632C67.35 75.9175 67.5674 75.287 67.5674 74.4717V73.7054H67.4696C67.1978 74.0967 66.8337 74.4065 66.3771 74.6348C65.9314 74.8522 65.4151 74.9609 64.828 74.9609C64.1323 74.9609 63.4855 74.7816 62.8876 74.4228C62.2897 74.0641 61.8114 73.5586 61.4527 72.9064C61.1048 72.2433 60.9309 71.4877 60.9309 70.6398C60.9309 69.7919 61.1048 69.0418 61.4527 68.3896C61.8114 67.7265 62.2897 67.2156 62.8876 66.8568C63.4855 66.4872 64.1323 66.3024 64.828 66.3024C65.4042 66.3024 65.9205 66.4166 66.3771 66.6448C66.8337 66.8731 67.1978 67.1829 67.4696 67.5743H67.5674V66.5633H69.2796V74.4228C69.2796 75.3251 69.1057 76.0915 68.7578 76.722C68.4099 77.3633 67.9207 77.8471 67.2902 78.1732C66.6706 78.4993 65.9532 78.6624 65.1378 78.6624ZM65.1542 73.3303C65.589 73.3303 65.9912 73.2271 66.3608 73.0205C66.7304 72.8031 67.0239 72.4933 67.2413 72.0911C67.4587 71.678 67.5674 71.1942 67.5674 70.6398C67.5674 69.7919 67.3337 69.1342 66.8663 68.6668C66.4097 68.1885 65.839 67.9493 65.1542 67.9493C64.7085 67.9493 64.3008 68.058 63.9312 68.2755C63.5616 68.482 63.2681 68.7864 63.0507 69.1886C62.8333 69.5908 62.7246 70.0746 62.7246 70.6398C62.7246 71.2051 62.8333 71.6888 63.0507 72.0911C63.2681 72.4933 63.5616 72.8031 63.9312 73.0205C64.3008 73.2271 64.7085 73.3303 65.1542 73.3303ZM71.3876 63.2043H73.1813V74.8794H71.3876V63.2043ZM79.0087 75.1403C78.1934 75.1403 77.4596 74.9501 76.8074 74.5696C76.166 74.1891 75.6605 73.6673 75.2909 73.0042C74.9322 72.3302 74.7528 71.5747 74.7528 70.7377C74.7528 69.9441 74.9267 69.2103 75.2746 68.5363C75.6333 67.8515 76.1279 67.308 76.7584 66.9057C77.3889 66.5035 78.1064 66.3024 78.9108 66.3024C79.7479 66.3024 80.4708 66.4872 81.0795 66.8568C81.6992 67.2264 82.1666 67.7319 82.4819 68.3733C82.808 69.0147 82.971 69.7376 82.971 70.542C82.971 70.6942 82.9547 70.8844 82.9221 71.1127H76.5465C76.6117 71.8845 76.8835 72.4824 77.3618 72.9064C77.8509 73.3195 78.4162 73.526 79.0576 73.526C79.5685 73.526 80.0088 73.4119 80.3784 73.1836C80.7589 72.9444 81.0632 72.6237 81.2915 72.2215L82.808 72.939C82.4166 73.6238 81.9057 74.1619 81.2752 74.5533C80.6447 74.9446 79.8892 75.1403 79.0087 75.1403ZM81.1448 69.743C81.123 69.4495 81.0306 69.1614 80.8676 68.8788C80.7045 68.5853 80.4545 68.3407 80.1175 68.145C79.7914 67.9493 79.3892 67.8515 78.9108 67.8515C78.3347 67.8515 77.8455 68.0254 77.4433 68.3733C77.052 68.7103 76.7802 69.1668 76.628 69.743H81.1448ZM88.7197 63.2043H92.4538C93.6604 63.2043 94.7149 63.4489 95.6171 63.938C96.5194 64.4272 97.2097 65.1175 97.688 66.0089C98.1772 66.8894 98.4218 67.9004 98.4218 69.0418C98.4218 70.1833 98.1772 71.1997 97.688 72.0911C97.2097 72.9716 96.5194 73.6564 95.6171 74.1456C94.7149 74.6348 93.6604 74.8794 92.4538 74.8794H88.7197V63.2043ZM92.4212 73.1346C93.7256 73.1346 94.742 72.7759 95.4704 72.0585C96.2096 71.3301 96.5792 70.3246 96.5792 69.0418C96.5792 67.77 96.2096 66.7699 95.4704 66.0415C94.742 65.3132 93.7256 64.949 92.4212 64.949H90.546V73.1346H92.4212ZM103.77 75.1403C102.955 75.1403 102.221 74.9501 101.569 74.5696C100.928 74.1891 100.422 73.6673 100.052 73.0042C99.6938 72.3302 99.5144 71.5747 99.5144 70.7377C99.5144 69.9441 99.6883 69.2103 100.036 68.5363C100.395 67.8515 100.89 67.308 101.52 66.9057C102.151 66.5035 102.868 66.3024 103.672 66.3024C104.509 66.3024 105.232 66.4872 105.841 66.8568C106.461 67.2264 106.928 67.7319 107.243 68.3733C107.57 69.0147 107.733 69.7376 107.733 70.542C107.733 70.6942 107.716 70.8844 107.684 71.1127H101.308C101.373 71.8845 101.645 72.4824 102.123 72.9064C102.613 73.3195 103.178 73.526 103.819 73.526C104.33 73.526 104.77 73.4119 105.14 73.1836C105.52 72.9444 105.825 72.6237 106.053 72.2215L107.57 72.939C107.178 73.6238 106.667 74.1619 106.037 74.5533C105.406 74.9446 104.651 75.1403 103.77 75.1403ZM105.906 69.743C105.885 69.4495 105.792 69.1614 105.629 68.8788C105.466 68.5853 105.216 68.3407 104.879 68.145C104.553 67.9493 104.151 67.8515 103.672 67.8515C103.096 67.8515 102.607 68.0254 102.205 68.3733C101.814 68.7103 101.542 69.1668 101.39 69.743H105.906ZM108.277 66.5633H110.283L112.582 72.5639H112.647L114.995 66.5633H116.952L113.495 74.8794H111.702L108.277 66.5633ZM121.669 75.1403C120.853 75.1403 120.12 74.9501 119.467 74.5696C118.826 74.1891 118.321 73.6673 117.951 73.0042C117.592 72.3302 117.413 71.5747 117.413 70.7377C117.413 69.9441 117.587 69.2103 117.935 68.5363C118.293 67.8515 118.788 67.308 119.418 66.9057C120.049 66.5035 120.766 66.3024 121.571 66.3024C122.408 66.3024 123.131 66.4872 123.74 66.8568C124.359 67.2264 124.827 67.7319 125.142 68.3733C125.468 69.0147 125.631 69.7376 125.631 70.542C125.631 70.6942 125.615 70.8844 125.582 71.1127H119.206C119.272 71.8845 119.543 72.4824 120.022 72.9064C120.511 73.3195 121.076 73.526 121.718 73.526C122.229 73.526 122.669 73.4119 123.038 73.1836C123.419 72.9444 123.723 72.6237 123.952 72.2215L125.468 72.939C125.077 73.6238 124.566 74.1619 123.935 74.5533C123.305 74.9446 122.549 75.1403 121.669 75.1403ZM123.805 69.743C123.783 69.4495 123.691 69.1614 123.528 68.8788C123.365 68.5853 123.114 68.3407 122.777 68.145C122.451 67.9493 122.049 67.8515 121.571 67.8515C120.995 67.8515 120.506 68.0254 120.103 68.3733C119.712 68.7103 119.44 69.1668 119.288 69.743H123.805ZM127.264 63.2043H129.058V74.8794H127.264V63.2043ZM134.983 75.1403C134.146 75.1403 133.396 74.9501 132.733 74.5696C132.07 74.1782 131.554 73.6456 131.184 72.9716C130.814 72.2976 130.63 71.5475 130.63 70.7214C130.63 69.8952 130.814 69.1451 131.184 68.4711C131.554 67.7971 132.07 67.2699 132.733 66.8894C133.396 66.4981 134.146 66.3024 134.983 66.3024C135.82 66.3024 136.57 66.4981 137.234 66.8894C137.897 67.2808 138.413 67.8134 138.783 68.4874C139.152 69.1614 139.337 69.9061 139.337 70.7214C139.337 71.5475 139.152 72.2976 138.783 72.9716C138.413 73.6456 137.897 74.1782 137.234 74.5696C136.57 74.9501 135.82 75.1403 134.983 75.1403ZM134.983 73.4934C135.44 73.4934 135.864 73.3847 136.255 73.1673C136.647 72.939 136.956 72.6183 137.185 72.2052C137.424 71.7812 137.543 71.2866 137.543 70.7214C137.543 70.1561 137.424 69.6669 137.185 69.2538C136.956 68.8407 136.647 68.5255 136.255 68.3081C135.864 68.0798 135.44 67.9656 134.983 67.9656C134.527 67.9656 134.103 68.0798 133.711 68.3081C133.32 68.5255 133.005 68.8407 132.766 69.2538C132.537 69.6669 132.423 70.1561 132.423 70.7214C132.423 71.2866 132.537 71.7812 132.766 72.2052C133.005 72.6183 133.32 72.939 133.711 73.1673C134.103 73.3847 134.527 73.4934 134.983 73.4934ZM140.846 66.5633H142.558V67.6558H142.64C142.879 67.2753 143.232 66.9547 143.7 66.6938C144.167 66.4329 144.694 66.3024 145.281 66.3024C146.031 66.3024 146.711 66.4927 147.319 66.8731C147.928 67.2536 148.407 67.7808 148.754 68.4548C149.113 69.1179 149.293 69.8734 149.293 70.7214C149.293 71.5693 149.113 72.3302 148.754 73.0042C148.407 73.6673 147.928 74.1891 147.319 74.5696C146.711 74.9501 146.031 75.1403 145.281 75.1403C144.694 75.1403 144.167 75.0098 143.7 74.7489C143.232 74.488 142.879 74.1728 142.64 73.8032H142.558L142.64 74.9609V78.4015H140.846V66.5633ZM145.02 73.4934C145.455 73.4934 145.863 73.3792 146.243 73.151C146.624 72.9227 146.928 72.5966 147.156 72.1726C147.385 71.7486 147.499 71.2649 147.499 70.7214C147.499 70.1778 147.385 69.6995 147.156 69.2864C146.928 68.8625 146.624 68.5363 146.243 68.3081C145.863 68.0798 145.455 67.9656 145.02 67.9656C144.586 67.9656 144.178 68.0798 143.797 68.3081C143.428 68.5363 143.129 68.8625 142.901 69.2864C142.672 69.6995 142.558 70.1778 142.558 70.7214C142.558 71.2649 142.672 71.7486 142.901 72.1726C143.129 72.5966 143.428 72.9227 143.797 73.151C144.178 73.3792 144.586 73.4934 145.02 73.4934ZM154.727 75.1403C153.911 75.1403 153.178 74.9501 152.525 74.5696C151.884 74.1891 151.378 73.6673 151.009 73.0042C150.65 72.3302 150.471 71.5747 150.471 70.7377C150.471 69.9441 150.645 69.2103 150.993 68.5363C151.351 67.8515 151.846 67.308 152.476 66.9057C153.107 66.5035 153.824 66.3024 154.629 66.3024C155.466 66.3024 156.189 66.4872 156.797 66.8568C157.417 67.2264 157.885 67.7319 158.2 68.3733C158.526 69.0147 158.689 69.7376 158.689 70.542C158.689 70.6942 158.673 70.8844 158.64 71.1127H152.264C152.33 71.8845 152.601 72.4824 153.08 72.9064C153.569 73.3195 154.134 73.526 154.776 73.526C155.286 73.526 155.727 73.4119 156.096 73.1836C156.477 72.9444 156.781 72.6237 157.009 72.2215L158.526 72.939C158.135 73.6238 157.624 74.1619 156.993 74.5533C156.363 74.9446 155.607 75.1403 154.727 75.1403ZM156.863 69.743C156.841 69.4495 156.749 69.1614 156.586 68.8788C156.422 68.5853 156.172 68.3407 155.835 68.145C155.509 67.9493 155.107 67.8515 154.629 67.8515C154.053 67.8515 153.563 68.0254 153.161 68.3733C152.77 68.7103 152.498 69.1668 152.346 69.743H156.863ZM160.322 66.5633H162.035V67.7863H162.116C162.301 67.3623 162.622 67.0145 163.078 66.7427C163.535 66.46 164.018 66.3187 164.529 66.3187C164.932 66.3187 165.269 66.3731 165.54 66.4818V68.3407C165.062 68.1667 164.633 68.0798 164.252 68.0798C163.839 68.0798 163.469 68.1885 163.143 68.4059C162.828 68.6233 162.578 68.9168 162.393 69.2864C162.208 69.6452 162.116 70.0419 162.116 70.4768V74.8794H160.322V66.5633ZM173.912 75.1403C172.944 75.1403 172.075 74.8577 171.303 74.2924C170.531 73.7271 169.998 72.9335 169.705 71.9117L171.433 71.2105C171.607 71.8519 171.912 72.3791 172.346 72.7922C172.792 73.1944 173.325 73.3955 173.944 73.3955C174.521 73.3955 175.01 73.2488 175.412 72.9553C175.814 72.6509 176.015 72.2378 176.015 71.716C176.015 71.2377 175.836 70.8464 175.477 70.542C175.129 70.2267 174.515 69.9115 173.635 69.5962L172.901 69.3353C172.118 69.0636 171.46 68.6722 170.928 68.1613C170.395 67.6504 170.129 66.9764 170.129 66.1394C170.129 65.5632 170.286 65.0306 170.602 64.5414C170.917 64.0522 171.352 63.6663 171.906 63.3836C172.471 63.0901 173.107 62.9434 173.814 62.9434C174.836 62.9434 175.651 63.1934 176.26 63.6935C176.869 64.1826 177.276 64.737 177.483 65.3567L175.836 66.0578C175.716 65.6882 175.488 65.3621 175.151 65.0795C174.814 64.7968 174.379 64.6555 173.847 64.6555C173.314 64.6555 172.863 64.7914 172.493 65.0632C172.134 65.3349 171.955 65.6828 171.955 66.1067C171.955 66.509 172.118 66.8405 172.444 67.1014C172.77 67.3623 173.281 67.6123 173.977 67.8515L174.711 68.0961C175.711 68.4439 176.483 68.9005 177.026 69.4658C177.581 70.0202 177.858 70.7648 177.858 71.6997C177.858 72.4607 177.662 73.102 177.271 73.6238C176.88 74.1348 176.379 74.5152 175.771 74.7653C175.173 75.0153 174.553 75.1403 173.912 75.1403ZM182.648 75.0098C182.278 75.0098 181.93 74.9501 181.604 74.8305C181.278 74.7109 181.012 74.5533 180.805 74.3576C180.338 73.8902 180.104 73.2542 180.104 72.4498V68.145H178.653V66.5633H180.104V64.2153H181.898V66.5633H183.92V68.145H181.898V72.0585C181.898 72.5041 181.985 72.8194 182.159 73.0042C182.322 73.2216 182.604 73.3303 183.007 73.3303C183.191 73.3303 183.354 73.3086 183.496 73.2651C183.637 73.2107 183.789 73.1292 183.952 73.0205V74.7653C183.594 74.9283 183.159 75.0098 182.648 75.0098ZM188.658 75.1403C187.647 75.1403 186.876 74.8413 186.343 74.2435C185.821 73.6347 185.56 72.7922 185.56 71.716V66.5633H187.354V71.4714C187.354 72.1454 187.511 72.6509 187.827 72.9879C188.153 73.3249 188.577 73.4934 189.099 73.4934C189.523 73.4934 189.898 73.3847 190.224 73.1673C190.55 72.939 190.8 72.64 190.974 72.2704C191.148 71.9008 191.235 71.504 191.235 71.0801V66.5633H193.028V74.8794H191.333V73.8032H191.235C191.006 74.1945 190.653 74.5152 190.175 74.7653C189.696 75.0153 189.191 75.1403 188.658 75.1403ZM198.591 75.1403C197.841 75.1403 197.162 74.9501 196.553 74.5696C195.944 74.1891 195.46 73.6673 195.102 73.0042C194.754 72.3302 194.58 71.5693 194.58 70.7214C194.58 69.8734 194.754 69.1179 195.102 68.4548C195.46 67.7808 195.944 67.2536 196.553 66.8731C197.162 66.4927 197.841 66.3024 198.591 66.3024C199.178 66.3024 199.705 66.4329 200.173 66.6938C200.64 66.9547 200.994 67.2753 201.233 67.6558H201.314L201.233 66.4818V63.2043H203.026V74.8794H201.314V73.8032H201.233C200.994 74.1728 200.64 74.488 200.173 74.7489C199.705 75.0098 199.178 75.1403 198.591 75.1403ZM198.852 73.4934C199.287 73.4934 199.689 73.3792 200.059 73.151C200.439 72.9227 200.744 72.5966 200.972 72.1726C201.2 71.7486 201.314 71.2649 201.314 70.7214C201.314 70.1778 201.2 69.6995 200.972 69.2864C200.744 68.8625 200.439 68.5363 200.059 68.3081C199.689 68.0798 199.287 67.9656 198.852 67.9656C198.417 67.9656 198.01 68.0798 197.629 68.3081C197.249 68.5363 196.944 68.8625 196.716 69.2864C196.488 69.6995 196.374 70.1778 196.374 70.7214C196.374 71.2649 196.488 71.7486 196.716 72.1726C196.944 72.5966 197.249 72.9227 197.629 73.151C198.01 73.3792 198.417 73.4934 198.852 73.4934ZM208.836 75.1403C208.021 75.1403 207.287 74.9501 206.635 74.5696C205.993 74.1891 205.488 73.6673 205.118 73.0042C204.759 72.3302 204.58 71.5747 204.58 70.7377C204.58 69.9441 204.754 69.2103 205.102 68.5363C205.461 67.8515 205.955 67.308 206.586 66.9057C207.216 66.5035 207.934 66.3024 208.738 66.3024C209.575 66.3024 210.298 66.4872 210.907 66.8568C211.526 67.2264 211.994 67.7319 212.309 68.3733C212.635 69.0147 212.798 69.7376 212.798 70.542C212.798 70.6942 212.782 70.8844 212.749 71.1127H206.374C206.439 71.8845 206.711 72.4824 207.189 72.9064C207.678 73.3195 208.243 73.526 208.885 73.526C209.396 73.526 209.836 73.4119 210.206 73.1836C210.586 72.9444 210.89 72.6237 211.119 72.2215L212.635 72.939C212.244 73.6238 211.733 74.1619 211.102 74.5533C210.472 74.9446 209.716 75.1403 208.836 75.1403ZM210.972 69.743C210.95 69.4495 210.858 69.1614 210.695 68.8788C210.532 68.5853 210.282 68.3407 209.945 68.145C209.619 67.9493 209.216 67.8515 208.738 67.8515C208.162 67.8515 207.673 68.0254 207.271 68.3733C206.879 68.7103 206.607 69.1668 206.455 69.743H210.972ZM214.432 66.5633H216.144V67.6558H216.225C216.464 67.2645 216.818 66.9438 217.285 66.6938C217.764 66.4329 218.269 66.3024 218.802 66.3024C219.813 66.3024 220.579 66.6014 221.101 67.1993C221.633 67.7863 221.9 68.5907 221.9 69.6125V74.8794H220.106V69.8571C220.106 69.2049 219.943 68.7266 219.617 68.4222C219.302 68.1178 218.861 67.9656 218.296 67.9656C217.894 67.9656 217.535 68.0798 217.22 68.3081C216.905 68.5255 216.66 68.819 216.486 69.1886C216.312 69.5582 216.225 69.955 216.225 70.3789V74.8794H214.432V66.5633ZM226.916 75.0098C226.547 75.0098 226.199 74.9501 225.873 74.8305C225.547 74.7109 225.28 74.5533 225.074 74.3576C224.606 73.8902 224.372 73.2542 224.372 72.4498V68.145H222.921V66.5633H224.372V64.2153H226.166V66.5633H228.188V68.145H226.166V72.0585C226.166 72.5041 226.253 72.8194 226.427 73.0042C226.59 73.2216 226.873 73.3303 227.275 73.3303C227.46 73.3303 227.623 73.3086 227.764 73.2651C227.905 73.2107 228.058 73.1292 228.221 73.0205V74.7653C227.862 74.9283 227.427 75.0098 226.916 75.0098ZM239.202 75.1403C238.071 75.1403 237.039 74.874 236.104 74.3413C235.169 73.8086 234.435 73.0749 233.902 72.14C233.37 71.2051 233.103 70.1724 233.103 69.0418C233.103 67.9113 233.37 66.8786 233.902 65.9437C234.435 65.0088 235.169 64.275 236.104 63.7424C237.039 63.2097 238.071 62.9434 239.202 62.9434C240.082 62.9434 240.881 63.1064 241.599 63.4326C242.327 63.7587 242.969 64.2316 243.523 64.8512L242.219 66.1067C241.816 65.6284 241.371 65.2751 240.881 65.0469C240.392 64.8077 239.832 64.6881 239.202 64.6881C238.419 64.6881 237.702 64.8675 237.05 65.2262C236.408 65.585 235.897 66.0959 235.517 66.759C235.136 67.4112 234.946 68.1722 234.946 69.0418C234.946 69.9115 235.136 70.6779 235.517 71.341C235.897 71.9932 236.408 72.4987 237.05 72.8574C237.702 73.2162 238.419 73.3955 239.202 73.3955C240.506 73.3955 241.615 72.852 242.528 71.7649L243.849 73.0368C243.284 73.6999 242.604 74.2163 241.811 74.5859C241.017 74.9555 240.148 75.1403 239.202 75.1403ZM245.435 63.2043H247.229V74.8794H245.435V63.2043ZM252.37 75.1403C251.359 75.1403 250.587 74.8413 250.054 74.2435C249.532 73.6347 249.272 72.7922 249.272 71.716V66.5633H251.065V71.4714C251.065 72.1454 251.223 72.6509 251.538 72.9879C251.864 73.3249 252.288 73.4934 252.81 73.4934C253.234 73.4934 253.609 73.3847 253.935 73.1673C254.261 72.939 254.511 72.64 254.685 72.2704C254.859 71.9008 254.946 71.504 254.946 71.0801V66.5633H256.74V74.8794H255.044V73.8032H254.946C254.718 74.1945 254.364 74.5152 253.886 74.7653C253.408 75.0153 252.902 75.1403 252.37 75.1403ZM263.263 75.1403C262.676 75.1403 262.148 75.0098 261.681 74.7489C261.213 74.488 260.86 74.1728 260.621 73.8032H260.54V74.8794H258.827V63.2043H260.621V66.4818L260.54 67.6558H260.621C260.86 67.2753 261.213 66.9547 261.681 66.6938C262.148 66.4329 262.676 66.3024 263.263 66.3024C264.013 66.3024 264.692 66.4927 265.301 66.8731C265.91 67.2536 266.388 67.7808 266.736 68.4548C267.095 69.1179 267.274 69.8734 267.274 70.7214C267.274 71.5693 267.095 72.3302 266.736 73.0042C266.388 73.6673 265.91 74.1891 265.301 74.5696C264.692 74.9501 264.013 75.1403 263.263 75.1403ZM263.002 73.4934C263.437 73.4934 263.844 73.3792 264.225 73.151C264.605 72.9227 264.91 72.5966 265.138 72.1726C265.366 71.7486 265.48 71.2649 265.48 70.7214C265.48 70.1778 265.366 69.6995 265.138 69.2864C264.91 68.8625 264.605 68.5363 264.225 68.3081C263.844 68.0798 263.437 67.9656 263.002 67.9656C262.567 67.9656 262.159 68.0798 261.779 68.3081C261.409 68.5363 261.11 68.8625 260.882 69.2864C260.654 69.6995 260.54 70.1778 260.54 70.7214C260.54 71.2649 260.654 71.7486 260.882 72.1726C261.11 72.5966 261.409 72.9227 261.779 73.151C262.159 73.3792 262.567 73.4934 263.002 73.4934ZM271.86 75.1403C270.904 75.1403 270.121 74.9337 269.512 74.5207C268.904 74.0967 268.474 73.5586 268.224 72.9064L269.822 72.2052C270.018 72.64 270.29 72.9716 270.638 73.1999C270.996 73.4282 271.404 73.5423 271.86 73.5423C272.306 73.5423 272.681 73.4662 272.986 73.314C273.29 73.151 273.442 72.9118 273.442 72.5966C273.442 72.2922 273.312 72.053 273.051 71.8791C272.79 71.7052 272.388 71.553 271.844 71.4225L270.849 71.1779C270.186 71.0149 269.637 70.7268 269.203 70.3137C268.768 69.9006 268.55 69.3788 268.55 68.7483C268.55 68.2591 268.692 67.8298 268.974 67.4602C269.268 67.0905 269.659 66.8079 270.148 66.6122C270.638 66.4057 271.17 66.3024 271.746 66.3024C272.518 66.3024 273.198 66.46 273.785 66.7753C274.372 67.0797 274.796 67.5254 275.056 68.1124L273.491 68.7972C273.176 68.1559 272.6 67.8352 271.763 67.8352C271.36 67.8352 271.023 67.9167 270.752 68.0798C270.48 68.2428 270.344 68.4548 270.344 68.7157C270.344 68.9657 270.447 69.1723 270.654 69.3353C270.86 69.4875 271.165 69.618 271.567 69.7267L272.79 70.0365C273.605 70.243 274.219 70.5583 274.632 70.9823C275.056 71.3953 275.268 71.9063 275.268 72.515C275.268 73.0368 275.116 73.4988 274.812 73.901C274.518 74.2924 274.111 74.5968 273.589 74.8142C273.067 75.0316 272.491 75.1403 271.86 75.1403Z" fill="white"/>
<rect width="23.3115" height="7.81905" rx="3.90953" transform="matrix(-0.866025 0.5 0.5 0.866025 174.504 27.7881)" fill="#FBBC04"/>
<rect width="23.3115" height="7.81905" rx="3.90953" transform="matrix(0.866025 -0.5 -0.5 -0.866025 131.371 38.4272)" fill="#EA4335"/>
<rect x="131.041" y="27.7871" width="23.3115" height="7.81905" rx="3.90953" transform="rotate(30 131.041 27.7871)" fill="#4285F4"/>
<rect x="174.504" y="38.4272" width="23.3115" height="7.81905" rx="3.64648" transform="rotate(-150 174.504 38.4272)" fill="#0F9D58"/>
<path d="M38.3787 96.8024C37.5707 96.8024 36.8267 96.6064 36.1467 96.2144C35.4667 95.8224 34.9267 95.2824 34.5267 94.5944C34.1267 93.9064 33.9267 93.1464 33.9267 92.3144C33.9267 91.4824 34.1267 90.7224 34.5267 90.0344C34.9267 89.3464 35.4667 88.8064 36.1467 88.4144C36.8267 88.0224 37.5707 87.8264 38.3787 87.8264C39.0107 87.8264 39.6027 87.9384 40.1547 88.1624C40.7147 88.3864 41.1747 88.7024 41.5347 89.1104L40.8027 89.8424C40.5307 89.5064 40.1827 89.2504 39.7587 89.0744C39.3347 88.8904 38.8787 88.7984 38.3907 88.7984C37.7827 88.7984 37.2147 88.9464 36.6867 89.2424C36.1667 89.5304 35.7467 89.9424 35.4267 90.4784C35.1147 91.0064 34.9587 91.6184 34.9587 92.3144C34.9587 93.0104 35.1147 93.6264 35.4267 94.1624C35.7467 94.6904 36.1707 95.1024 36.6987 95.3984C37.2267 95.6864 37.7907 95.8304 38.3907 95.8304C38.9667 95.8304 39.4467 95.7424 39.8307 95.5664C40.2227 95.3824 40.5587 95.1424 40.8387 94.8464C41.0467 94.6224 41.2147 94.3544 41.3427 94.0424C41.4707 93.7224 41.5507 93.3704 41.5827 92.9864H38.4027V92.0384H42.5307C42.5707 92.2624 42.5907 92.4704 42.5907 92.6624C42.5907 93.1904 42.5067 93.7064 42.3387 94.2104C42.1707 94.7064 41.9027 95.1424 41.5347 95.5184C40.7427 96.3744 39.6907 96.8024 38.3787 96.8024ZM46.6658 96.8024C46.0658 96.8024 45.5258 96.6584 45.0458 96.3704C44.5658 96.0824 44.1898 95.6904 43.9178 95.1944C43.6538 94.6984 43.5218 94.1504 43.5218 93.5504C43.5218 92.9504 43.6538 92.4024 43.9178 91.9064C44.1898 91.4104 44.5658 91.0184 45.0458 90.7304C45.5258 90.4424 46.0658 90.2984 46.6658 90.2984C47.2658 90.2984 47.8058 90.4424 48.2858 90.7304C48.7658 91.0184 49.1378 91.4104 49.4018 91.9064C49.6738 92.4024 49.8098 92.9504 49.8098 93.5504C49.8098 94.1504 49.6738 94.6984 49.4018 95.1944C49.1378 95.6904 48.7658 96.0824 48.2858 96.3704C47.8058 96.6584 47.2658 96.8024 46.6658 96.8024ZM46.6658 95.8784C47.0418 95.8784 47.3898 95.7864 47.7098 95.6024C48.0378 95.4104 48.2978 95.1384 48.4898 94.7864C48.6898 94.4344 48.7898 94.0224 48.7898 93.5504C48.7898 93.0784 48.6898 92.6664 48.4898 92.3144C48.2978 91.9624 48.0378 91.6944 47.7098 91.5104C47.3898 91.3184 47.0418 91.2224 46.6658 91.2224C46.2898 91.2224 45.9378 91.3184 45.6098 91.5104C45.2818 91.6944 45.0178 91.9624 44.8178 92.3144C44.6258 92.6664 44.5298 93.0784 44.5298 93.5504C44.5298 94.0224 44.6258 94.4344 44.8178 94.7864C45.0178 95.1384 45.2818 95.4104 45.6098 95.6024C45.9378 95.7864 46.2898 95.8784 46.6658 95.8784ZM50.1465 90.4904H51.2385L53.1345 95.4104H53.1585L55.0785 90.4904H56.1465L53.6505 96.6104H52.6185L50.1465 90.4904ZM59.5308 96.8024C58.9468 96.8024 58.4228 96.6624 57.9588 96.3824C57.4948 96.1024 57.1308 95.7184 56.8668 95.2304C56.6108 94.7344 56.4828 94.1784 56.4828 93.5624C56.4828 92.9704 56.6028 92.4264 56.8428 91.9304C57.0908 91.4344 57.4388 91.0384 57.8868 90.7424C58.3348 90.4464 58.8548 90.2984 59.4468 90.2984C60.0468 90.2984 60.5668 90.4344 61.0068 90.7064C61.4468 90.9704 61.7828 91.3384 62.0148 91.8104C62.2548 92.2824 62.3748 92.8224 62.3748 93.4304C62.3748 93.5504 62.3628 93.6544 62.3388 93.7424H57.5028C57.5268 94.2064 57.6388 94.5984 57.8388 94.9184C58.0388 95.2384 58.2908 95.4784 58.5948 95.6384C58.9068 95.7984 59.2308 95.8784 59.5668 95.8784C60.3508 95.8784 60.9548 95.5104 61.3788 94.7744L62.2428 95.1944C61.9788 95.6904 61.6188 96.0824 61.1628 96.3704C60.7148 96.6584 60.1708 96.8024 59.5308 96.8024ZM61.2948 92.9024C61.2788 92.6464 61.2068 92.3904 61.0788 92.1344C60.9508 91.8784 60.7468 91.6624 60.4668 91.4864C60.1948 91.3104 59.8508 91.2224 59.4348 91.2224C58.9548 91.2224 58.5468 91.3784 58.2108 91.6904C57.8828 91.9944 57.6668 92.3984 57.5628 92.9024H61.2948ZM63.5685 90.4904H64.5405V91.4744H64.5885C64.7085 91.1384 64.9405 90.8624 65.2845 90.6464C65.6285 90.4224 65.9885 90.3104 66.3645 90.3104C66.6445 90.3104 66.8845 90.3504 67.0845 90.4304V91.5344C66.8285 91.4064 66.5405 91.3424 66.2205 91.3424C65.9245 91.3424 65.6525 91.4264 65.4045 91.5944C65.1565 91.7624 64.9565 91.9904 64.8045 92.2784C64.6605 92.5584 64.5885 92.8624 64.5885 93.1904V96.6104H63.5685V90.4904ZM68.0685 90.4904H69.0405V91.3904H69.0885C69.2565 91.0864 69.5245 90.8304 69.8925 90.6224C70.2605 90.4064 70.6525 90.2984 71.0685 90.2984C71.8045 90.2984 72.3645 90.5144 72.7485 90.9464C73.1405 91.3704 73.3365 91.9504 73.3365 92.6864V96.6104H72.3165V92.8424C72.3165 92.2744 72.1805 91.8624 71.9085 91.6064C71.6365 91.3504 71.2645 91.2224 70.7925 91.2224C70.4645 91.2224 70.1685 91.3144 69.9045 91.4984C69.6485 91.6824 69.4485 91.9264 69.3045 92.2304C69.1605 92.5264 69.0885 92.8384 69.0885 93.1664V96.6104H68.0685V90.4904ZM74.7951 90.4904H75.7671V91.3904H75.8151C75.9911 91.0784 76.2551 90.8184 76.6071 90.6104C76.9591 90.4024 77.3311 90.2984 77.7231 90.2984C78.1711 90.2984 78.5591 90.4064 78.8871 90.6224C79.2231 90.8384 79.4631 91.1264 79.6071 91.4864C79.8231 91.1264 80.1071 90.8384 80.4591 90.6224C80.8191 90.4064 81.2351 90.2984 81.7071 90.2984C82.4111 90.2984 82.9391 90.5144 83.2911 90.9464C83.6511 91.3704 83.8311 91.9504 83.8311 92.6864V96.6104H82.8231V92.8424C82.8231 92.2744 82.7071 91.8624 82.4751 91.6064C82.2431 91.3504 81.8991 91.2224 81.4431 91.2224C81.1391 91.2224 80.8631 91.3104 80.6151 91.4864C80.3671 91.6624 80.1711 91.8984 80.0271 92.1944C79.8911 92.4904 79.8231 92.8104 79.8231 93.1544V96.6104H78.8031V92.8544C78.8031 92.2784 78.6871 91.8624 78.4551 91.6064C78.2231 91.3504 77.8831 91.2224 77.4351 91.2224C77.1311 91.2224 76.8551 91.3144 76.6071 91.4984C76.3591 91.6744 76.1631 91.9144 76.0191 92.2184C75.8831 92.5144 75.8151 92.8344 75.8151 93.1784V96.6104H74.7951V90.4904ZM88.0191 96.8024C87.4351 96.8024 86.9111 96.6624 86.4471 96.3824C85.9831 96.1024 85.6191 95.7184 85.3551 95.2304C85.0991 94.7344 84.9711 94.1784 84.9711 93.5624C84.9711 92.9704 85.0911 92.4264 85.3311 91.9304C85.5791 91.4344 85.9271 91.0384 86.3751 90.7424C86.8231 90.4464 87.3431 90.2984 87.9351 90.2984C88.5351 90.2984 89.0551 90.4344 89.4951 90.7064C89.9351 90.9704 90.2711 91.3384 90.5031 91.8104C90.7431 92.2824 90.8631 92.8224 90.8631 93.4304C90.8631 93.5504 90.8511 93.6544 90.8271 93.7424H85.9911C86.0151 94.2064 86.1271 94.5984 86.3271 94.9184C86.5271 95.2384 86.7791 95.4784 87.0831 95.6384C87.3951 95.7984 87.7191 95.8784 88.0551 95.8784C88.8391 95.8784 89.4431 95.5104 89.8671 94.7744L90.7311 95.1944C90.4671 95.6904 90.1071 96.0824 89.6511 96.3704C89.2031 96.6584 88.6591 96.8024 88.0191 96.8024ZM89.7831 92.9024C89.7671 92.6464 89.6951 92.3904 89.5671 92.1344C89.4391 91.8784 89.2351 91.6624 88.9551 91.4864C88.6831 91.3104 88.3391 91.2224 87.9231 91.2224C87.4431 91.2224 87.0351 91.3784 86.6991 91.6904C86.3711 91.9944 86.1551 92.3984 86.0511 92.9024H89.7831ZM92.0568 90.4904H93.0288V91.3904H93.0768C93.2448 91.0864 93.5128 90.8304 93.8808 90.6224C94.2488 90.4064 94.6408 90.2984 95.0568 90.2984C95.7928 90.2984 96.3528 90.5144 96.7368 90.9464C97.1288 91.3704 97.3248 91.9504 97.3248 92.6864V96.6104H96.3048V92.8424C96.3048 92.2744 96.1688 91.8624 95.8968 91.6064C95.6248 91.3504 95.2528 91.2224 94.7808 91.2224C94.4528 91.2224 94.1568 91.3144 93.8928 91.4984C93.6368 91.6824 93.4368 91.9264 93.2928 92.2304C93.1488 92.5264 93.0768 92.8384 93.0768 93.1664V96.6104H92.0568V90.4904ZM100.831 96.7064C100.583 96.7064 100.351 96.6664 100.135 96.5864C99.9267 96.5064 99.7507 96.3984 99.6067 96.2624C99.4467 96.1104 99.3267 95.9344 99.2467 95.7344C99.1667 95.5344 99.1267 95.2904 99.1267 95.0024V91.4144H98.0587V90.4904H99.1267V88.7624H100.147V90.4904H101.635V91.4144H100.147V94.7504C100.147 95.0864 100.211 95.3344 100.339 95.4944C100.491 95.6704 100.711 95.7584 100.999 95.7584C101.231 95.7584 101.455 95.6904 101.671 95.5544V96.5504C101.551 96.6064 101.427 96.6464 101.299 96.6704C101.179 96.6944 101.023 96.7064 100.831 96.7064ZM109.664 96.8024C108.832 96.8024 108.076 96.6064 107.396 96.2144C106.716 95.8224 106.18 95.2864 105.788 94.6064C105.404 93.9184 105.212 93.1544 105.212 92.3144C105.212 91.4744 105.404 90.7144 105.788 90.0344C106.18 89.3464 106.716 88.8064 107.396 88.4144C108.076 88.0224 108.832 87.8264 109.664 87.8264C110.304 87.8264 110.888 87.9504 111.416 88.1984C111.952 88.4384 112.416 88.7824 112.808 89.2304L112.076 89.9384C111.748 89.5464 111.388 89.2584 110.996 89.0744C110.612 88.8904 110.168 88.7984 109.664 88.7984C109.04 88.7984 108.468 88.9464 107.948 89.2424C107.428 89.5304 107.012 89.9424 106.7 90.4784C106.396 91.0064 106.244 91.6184 106.244 92.3144C106.244 93.0104 106.396 93.6264 106.7 94.1624C107.012 94.6904 107.428 95.1024 107.948 95.3984C108.468 95.6864 109.04 95.8304 109.664 95.8304C110.704 95.8304 111.588 95.4024 112.316 94.5464L113.06 95.2664C112.66 95.7384 112.168 96.1144 111.584 96.3944C111 96.6664 110.36 96.8024 109.664 96.8024ZM116.908 96.8024C116.308 96.8024 115.768 96.6584 115.288 96.3704C114.808 96.0824 114.432 95.6904 114.16 95.1944C113.896 94.6984 113.764 94.1504 113.764 93.5504C113.764 92.9504 113.896 92.4024 114.16 91.9064C114.432 91.4104 114.808 91.0184 115.288 90.7304C115.768 90.4424 116.308 90.2984 116.908 90.2984C117.508 90.2984 118.048 90.4424 118.528 90.7304C119.008 91.0184 119.38 91.4104 119.644 91.9064C119.916 92.4024 120.052 92.9504 120.052 93.5504C120.052 94.1504 119.916 94.6984 119.644 95.1944C119.38 95.6904 119.008 96.0824 118.528 96.3704C118.048 96.6584 117.508 96.8024 116.908 96.8024ZM116.908 95.8784C117.284 95.8784 117.632 95.7864 117.952 95.6024C118.28 95.4104 118.54 95.1384 118.732 94.7864C118.932 94.4344 119.032 94.0224 119.032 93.5504C119.032 93.0784 118.932 92.6664 118.732 92.3144C118.54 91.9624 118.28 91.6944 117.952 91.5104C117.632 91.3184 117.284 91.2224 116.908 91.2224C116.532 91.2224 116.18 91.3184 115.852 91.5104C115.524 91.6944 115.26 91.9624 115.06 92.3144C114.868 92.6664 114.772 93.0784 114.772 93.5504C114.772 94.0224 114.868 94.4344 115.06 94.7864C115.26 95.1384 115.524 95.4104 115.852 95.6024C116.18 95.7864 116.532 95.8784 116.908 95.8784ZM121.178 88.0184H122.198V96.6104H121.178V88.0184ZM123.709 88.0184H124.729V96.6104H123.709V88.0184ZM128.906 96.8024C128.322 96.8024 127.798 96.6624 127.334 96.3824C126.87 96.1024 126.506 95.7184 126.242 95.2304C125.986 94.7344 125.858 94.1784 125.858 93.5624C125.858 92.9704 125.978 92.4264 126.218 91.9304C126.466 91.4344 126.814 91.0384 127.262 90.7424C127.71 90.4464 128.23 90.2984 128.822 90.2984C129.422 90.2984 129.942 90.4344 130.382 90.7064C130.822 90.9704 131.158 91.3384 131.39 91.8104C131.63 92.2824 131.75 92.8224 131.75 93.4304C131.75 93.5504 131.738 93.6544 131.714 93.7424H126.878C126.902 94.2064 127.014 94.5984 127.214 94.9184C127.414 95.2384 127.666 95.4784 127.97 95.6384C128.282 95.7984 128.606 95.8784 128.942 95.8784C129.726 95.8784 130.33 95.5104 130.754 94.7744L131.618 95.1944C131.354 95.6904 130.994 96.0824 130.538 96.3704C130.09 96.6584 129.546 96.8024 128.906 96.8024ZM130.67 92.9024C130.654 92.6464 130.582 92.3904 130.454 92.1344C130.326 91.8784 130.122 91.6624 129.842 91.4864C129.57 91.3104 129.226 91.2224 128.81 91.2224C128.33 91.2224 127.922 91.3784 127.586 91.6904C127.258 91.9944 127.042 92.3984 126.938 92.9024H130.67ZM135.69 99.3944C134.97 99.3944 134.374 99.2264 133.902 98.8904C133.438 98.5544 133.126 98.1504 132.966 97.6784L133.89 97.2824C134.026 97.6344 134.25 97.9184 134.562 98.1344C134.882 98.3584 135.258 98.4704 135.69 98.4704C136.322 98.4704 136.81 98.2864 137.154 97.9184C137.506 97.5504 137.682 97.0304 137.682 96.3584V95.6744H137.634C137.434 95.9864 137.15 96.2424 136.782 96.4424C136.422 96.6344 136.01 96.7304 135.546 96.7304C135.018 96.7304 134.534 96.5944 134.094 96.3224C133.662 96.0504 133.318 95.6704 133.062 95.1824C132.806 94.6944 132.678 94.1384 132.678 93.5144C132.678 92.8984 132.806 92.3464 133.062 91.8584C133.318 91.3624 133.662 90.9784 134.094 90.7064C134.534 90.4344 135.018 90.2984 135.546 90.2984C136.01 90.2984 136.422 90.3984 136.782 90.5984C137.15 90.7904 137.434 91.0464 137.634 91.3664H137.682V90.4904H138.654V96.3704C138.654 97.3544 138.382 98.1024 137.838 98.6144C137.294 99.1344 136.578 99.3944 135.69 99.3944ZM135.69 95.8064C136.058 95.8064 136.39 95.7144 136.686 95.5304C136.99 95.3464 137.23 95.0824 137.406 94.7384C137.59 94.3944 137.682 93.9864 137.682 93.5144C137.682 93.0344 137.59 92.6224 137.406 92.2784C137.23 91.9344 136.99 91.6744 136.686 91.4984C136.39 91.3144 136.058 91.2224 135.69 91.2224C135.322 91.2224 134.986 91.3144 134.682 91.4984C134.378 91.6824 134.134 91.9464 133.95 92.2904C133.774 92.6344 133.686 93.0424 133.686 93.5144C133.686 93.9864 133.774 94.3984 133.95 94.7504C134.134 95.0944 134.378 95.3584 134.682 95.5424C134.986 95.7184 135.322 95.8064 135.69 95.8064ZM142.828 96.8024C142.244 96.8024 141.72 96.6624 141.256 96.3824C140.792 96.1024 140.428 95.7184 140.164 95.2304C139.908 94.7344 139.78 94.1784 139.78 93.5624C139.78 92.9704 139.9 92.4264 140.14 91.9304C140.388 91.4344 140.736 91.0384 141.184 90.7424C141.632 90.4464 142.152 90.2984 142.744 90.2984C143.344 90.2984 143.864 90.4344 144.304 90.7064C144.744 90.9704 145.08 91.3384 145.312 91.8104C145.552 92.2824 145.672 92.8224 145.672 93.4304C145.672 93.5504 145.66 93.6544 145.636 93.7424H140.8C140.824 94.2064 140.936 94.5984 141.136 94.9184C141.336 95.2384 141.588 95.4784 141.892 95.6384C142.204 95.7984 142.528 95.8784 142.864 95.8784C143.648 95.8784 144.252 95.5104 144.676 94.7744L145.54 95.1944C145.276 95.6904 144.916 96.0824 144.46 96.3704C144.012 96.6584 143.468 96.8024 142.828 96.8024ZM144.592 92.9024C144.576 92.6464 144.504 92.3904 144.376 92.1344C144.248 91.8784 144.044 91.6624 143.764 91.4864C143.492 91.3104 143.148 91.2224 142.732 91.2224C142.252 91.2224 141.844 91.3784 141.508 91.6904C141.18 91.9944 140.964 92.3984 140.86 92.9024H144.592ZM153.608 96.8024C152.784 96.8024 152.036 96.6024 151.364 96.2024C150.692 95.8024 150.164 95.2624 149.78 94.5824C149.396 93.8944 149.204 93.1384 149.204 92.3144C149.204 91.4984 149.396 90.7464 149.78 90.0584C150.164 89.3704 150.692 88.8264 151.364 88.4264C152.036 88.0264 152.784 87.8264 153.608 87.8264C154.432 87.8264 155.18 88.0264 155.852 88.4264C156.524 88.8264 157.052 89.3704 157.436 90.0584C157.828 90.7464 158.024 91.4984 158.024 92.3144C158.024 93.1384 157.832 93.8944 157.448 94.5824C157.064 95.2624 156.532 95.8024 155.852 96.2024C155.18 96.6024 154.432 96.8024 153.608 96.8024ZM153.608 95.8304C154.224 95.8304 154.788 95.6824 155.3 95.3864C155.82 95.0824 156.228 94.6664 156.524 94.1384C156.828 93.6024 156.98 92.9944 156.98 92.3144C156.98 91.6344 156.828 91.0304 156.524 90.5024C156.228 89.9664 155.82 89.5504 155.3 89.2544C154.788 88.9504 154.224 88.7984 153.608 88.7984C152.992 88.7984 152.428 88.9504 151.916 89.2544C151.404 89.5504 150.996 89.9664 150.692 90.5024C150.388 91.0384 150.236 91.6424 150.236 92.3144C150.236 92.9864 150.388 93.5904 150.692 94.1264C150.996 94.6624 151.404 95.0824 151.916 95.3864C152.428 95.6824 152.992 95.8304 153.608 95.8304ZM160.03 91.4144H158.902V90.4904H160.03V89.8304C160.03 89.4464 160.118 89.1104 160.294 88.8224C160.47 88.5344 160.706 88.3144 161.002 88.1624C161.298 88.0024 161.626 87.9224 161.986 87.9224C162.33 87.9224 162.63 87.9704 162.886 88.0664V89.0624C162.742 89.0064 162.606 88.9624 162.478 88.9304C162.35 88.8904 162.198 88.8704 162.022 88.8704C161.758 88.8704 161.53 88.9664 161.338 89.1584C161.146 89.3424 161.05 89.6024 161.05 89.9384V90.4904H162.622V91.4144H161.05V96.6104H160.03V91.4144ZM166.862 88.0184H171.83V88.9904H167.87V91.8344H171.446V92.7944H167.87V95.6384H171.83V96.6104H166.862V88.0184ZM173.151 90.4904H174.123V91.3904H174.171C174.339 91.0864 174.607 90.8304 174.975 90.6224C175.343 90.4064 175.735 90.2984 176.151 90.2984C176.887 90.2984 177.447 90.5144 177.831 90.9464C178.223 91.3704 178.419 91.9504 178.419 92.6864V96.6104H177.399V92.8424C177.399 92.2744 177.263 91.8624 176.991 91.6064C176.719 91.3504 176.347 91.2224 175.875 91.2224C175.547 91.2224 175.251 91.3144 174.987 91.4984C174.731 91.6824 174.531 91.9264 174.387 92.2304C174.243 92.5264 174.171 92.8384 174.171 93.1664V96.6104H173.151V90.4904ZM182.507 99.3944C181.787 99.3944 181.191 99.2264 180.719 98.8904C180.255 98.5544 179.943 98.1504 179.783 97.6784L180.707 97.2824C180.843 97.6344 181.067 97.9184 181.379 98.1344C181.699 98.3584 182.075 98.4704 182.507 98.4704C183.139 98.4704 183.627 98.2864 183.971 97.9184C184.323 97.5504 184.499 97.0304 184.499 96.3584V95.6744H184.451C184.251 95.9864 183.967 96.2424 183.599 96.4424C183.239 96.6344 182.827 96.7304 182.363 96.7304C181.835 96.7304 181.351 96.5944 180.911 96.3224C180.479 96.0504 180.135 95.6704 179.879 95.1824C179.623 94.6944 179.495 94.1384 179.495 93.5144C179.495 92.8984 179.623 92.3464 179.879 91.8584C180.135 91.3624 180.479 90.9784 180.911 90.7064C181.351 90.4344 181.835 90.2984 182.363 90.2984C182.827 90.2984 183.239 90.3984 183.599 90.5984C183.967 90.7904 184.251 91.0464 184.451 91.3664H184.499V90.4904H185.471V96.3704C185.471 97.3544 185.199 98.1024 184.655 98.6144C184.111 99.1344 183.395 99.3944 182.507 99.3944ZM182.507 95.8064C182.875 95.8064 183.207 95.7144 183.503 95.5304C183.807 95.3464 184.047 95.0824 184.223 94.7384C184.407 94.3944 184.499 93.9864 184.499 93.5144C184.499 93.0344 184.407 92.6224 184.223 92.2784C184.047 91.9344 183.807 91.6744 183.503 91.4984C183.207 91.3144 182.875 91.2224 182.507 91.2224C182.139 91.2224 181.803 91.3144 181.499 91.4984C181.195 91.6824 180.951 91.9464 180.767 92.2904C180.591 92.6344 180.503 93.0424 180.503 93.5144C180.503 93.9864 180.591 94.3984 180.767 94.7504C180.951 95.0944 181.195 95.3584 181.499 95.5424C181.803 95.7184 182.139 95.8064 182.507 95.8064ZM187.579 89.3624C187.379 89.3624 187.207 89.2904 187.063 89.1464C186.919 89.0024 186.847 88.8304 186.847 88.6304C186.847 88.4304 186.919 88.2624 187.063 88.1264C187.207 87.9824 187.379 87.9104 187.579 87.9104C187.779 87.9104 187.951 87.9824 188.095 88.1264C188.239 88.2624 188.311 88.4304 188.311 88.6304C188.311 88.8304 188.239 89.0024 188.095 89.1464C187.959 89.2904 187.787 89.3624 187.579 89.3624ZM187.075 90.4904H188.083V96.6104H187.075V90.4904ZM189.686 90.4904H190.658V91.3904H190.706C190.874 91.0864 191.142 90.8304 191.51 90.6224C191.878 90.4064 192.27 90.2984 192.686 90.2984C193.422 90.2984 193.982 90.5144 194.366 90.9464C194.758 91.3704 194.954 91.9504 194.954 92.6864V96.6104H193.934V92.8424C193.934 92.2744 193.798 91.8624 193.526 91.6064C193.254 91.3504 192.882 91.2224 192.41 91.2224C192.082 91.2224 191.786 91.3144 191.522 91.4984C191.266 91.6824 191.066 91.9264 190.922 92.2304C190.778 92.5264 190.706 92.8384 190.706 93.1664V96.6104H189.686V90.4904ZM199.136 96.8024C198.552 96.8024 198.028 96.6624 197.564 96.3824C197.1 96.1024 196.736 95.7184 196.472 95.2304C196.216 94.7344 196.088 94.1784 196.088 93.5624C196.088 92.9704 196.208 92.4264 196.448 91.9304C196.696 91.4344 197.044 91.0384 197.492 90.7424C197.94 90.4464 198.46 90.2984 199.052 90.2984C199.652 90.2984 200.172 90.4344 200.612 90.7064C201.052 90.9704 201.388 91.3384 201.62 91.8104C201.86 92.2824 201.98 92.8224 201.98 93.4304C201.98 93.5504 201.968 93.6544 201.944 93.7424H197.108C197.132 94.2064 197.244 94.5984 197.444 94.9184C197.644 95.2384 197.896 95.4784 198.2 95.6384C198.512 95.7984 198.836 95.8784 199.172 95.8784C199.956 95.8784 200.56 95.5104 200.984 94.7744L201.848 95.1944C201.584 95.6904 201.224 96.0824 200.768 96.3704C200.32 96.6584 199.776 96.8024 199.136 96.8024ZM200.9 92.9024C200.884 92.6464 200.812 92.3904 200.684 92.1344C200.556 91.8784 200.352 91.6624 200.072 91.4864C199.8 91.3104 199.456 91.2224 199.04 91.2224C198.56 91.2224 198.152 91.3784 197.816 91.6904C197.488 91.9944 197.272 92.3984 197.168 92.9024H200.9ZM205.957 96.8024C205.373 96.8024 204.849 96.6624 204.385 96.3824C203.921 96.1024 203.557 95.7184 203.293 95.2304C203.037 94.7344 202.909 94.1784 202.909 93.5624C202.909 92.9704 203.029 92.4264 203.269 91.9304C203.517 91.4344 203.865 91.0384 204.313 90.7424C204.761 90.4464 205.281 90.2984 205.873 90.2984C206.473 90.2984 206.993 90.4344 207.433 90.7064C207.873 90.9704 208.209 91.3384 208.441 91.8104C208.681 92.2824 208.801 92.8224 208.801 93.4304C208.801 93.5504 208.789 93.6544 208.765 93.7424H203.929C203.953 94.2064 204.065 94.5984 204.265 94.9184C204.465 95.2384 204.717 95.4784 205.021 95.6384C205.333 95.7984 205.657 95.8784 205.993 95.8784C206.777 95.8784 207.381 95.5104 207.805 94.7744L208.669 95.1944C208.405 95.6904 208.045 96.0824 207.589 96.3704C207.141 96.6584 206.597 96.8024 205.957 96.8024ZM207.721 92.9024C207.705 92.6464 207.633 92.3904 207.505 92.1344C207.377 91.8784 207.173 91.6624 206.893 91.4864C206.621 91.3104 206.277 91.2224 205.861 91.2224C205.381 91.2224 204.973 91.3784 204.637 91.6904C204.309 91.9944 204.093 92.3984 203.989 92.9024H207.721ZM209.994 90.4904H210.966V91.4744H211.014C211.134 91.1384 211.366 90.8624 211.71 90.6464C212.054 90.4224 212.414 90.3104 212.79 90.3104C213.07 90.3104 213.31 90.3504 213.51 90.4304V91.5344C213.254 91.4064 212.966 91.3424 212.646 91.3424C212.35 91.3424 212.078 91.4264 211.83 91.5944C211.582 91.7624 211.382 91.9904 211.23 92.2784C211.086 92.5584 211.014 92.8624 211.014 93.1904V96.6104H209.994V90.4904ZM215.094 89.3624C214.894 89.3624 214.722 89.2904 214.578 89.1464C214.434 89.0024 214.362 88.8304 214.362 88.6304C214.362 88.4304 214.434 88.2624 214.578 88.1264C214.722 87.9824 214.894 87.9104 215.094 87.9104C215.294 87.9104 215.466 87.9824 215.61 88.1264C215.754 88.2624 215.826 88.4304 215.826 88.6304C215.826 88.8304 215.754 89.0024 215.61 89.1464C215.474 89.2904 215.302 89.3624 215.094 89.3624ZM214.59 90.4904H215.598V96.6104H214.59V90.4904ZM217.201 90.4904H218.173V91.3904H218.221C218.389 91.0864 218.657 90.8304 219.025 90.6224C219.393 90.4064 219.785 90.2984 220.201 90.2984C220.937 90.2984 221.497 90.5144 221.881 90.9464C222.273 91.3704 222.469 91.9504 222.469 92.6864V96.6104H221.449V92.8424C221.449 92.2744 221.313 91.8624 221.041 91.6064C220.769 91.3504 220.397 91.2224 219.925 91.2224C219.597 91.2224 219.301 91.3144 219.037 91.4984C218.781 91.6824 218.581 91.9264 218.437 92.2304C218.293 92.5264 218.221 92.8384 218.221 93.1664V96.6104H217.201V90.4904ZM226.557 99.3944C225.837 99.3944 225.241 99.2264 224.769 98.8904C224.305 98.5544 223.993 98.1504 223.833 97.6784L224.757 97.2824C224.893 97.6344 225.117 97.9184 225.429 98.1344C225.749 98.3584 226.125 98.4704 226.557 98.4704C227.189 98.4704 227.677 98.2864 228.021 97.9184C228.373 97.5504 228.549 97.0304 228.549 96.3584V95.6744H228.501C228.301 95.9864 228.017 96.2424 227.649 96.4424C227.289 96.6344 226.877 96.7304 226.413 96.7304C225.885 96.7304 225.401 96.5944 224.961 96.3224C224.529 96.0504 224.185 95.6704 223.929 95.1824C223.673 94.6944 223.545 94.1384 223.545 93.5144C223.545 92.8984 223.673 92.3464 223.929 91.8584C224.185 91.3624 224.529 90.9784 224.961 90.7064C225.401 90.4344 225.885 90.2984 226.413 90.2984C226.877 90.2984 227.289 90.3984 227.649 90.5984C228.017 90.7904 228.301 91.0464 228.501 91.3664H228.549V90.4904H229.521V96.3704C229.521 97.3544 229.249 98.1024 228.705 98.6144C228.161 99.1344 227.445 99.3944 226.557 99.3944ZM226.557 95.8064C226.925 95.8064 227.257 95.7144 227.553 95.5304C227.857 95.3464 228.097 95.0824 228.273 94.7384C228.457 94.3944 228.549 93.9864 228.549 93.5144C228.549 93.0344 228.457 92.6224 228.273 92.2784C228.097 91.9344 227.857 91.6744 227.553 91.4984C227.257 91.3144 226.925 91.2224 226.557 91.2224C226.189 91.2224 225.853 91.3144 225.549 91.4984C225.245 91.6824 225.001 91.9464 224.817 92.2904C224.641 92.6344 224.553 93.0424 224.553 93.5144C224.553 93.9864 224.641 94.3984 224.817 94.7504C225.001 95.0944 225.245 95.3584 225.549 95.5424C225.853 95.7184 226.189 95.8064 226.557 95.8064ZM234.023 88.0184H235.271L239.579 94.8584H239.627L239.579 93.2024V88.0184H240.599V96.6104H239.543L235.031 89.4464H234.983L235.031 91.1024V96.6104H234.023V88.0184ZM244.095 96.8024C243.647 96.8024 243.247 96.7144 242.895 96.5384C242.543 96.3624 242.271 96.1224 242.079 95.8184C241.887 95.5064 241.791 95.1544 241.791 94.7624C241.791 94.1144 242.035 93.6104 242.523 93.2504C243.011 92.8824 243.627 92.6984 244.371 92.6984C244.739 92.6984 245.079 92.7384 245.391 92.8184C245.711 92.8984 245.955 92.9904 246.123 93.0944V92.7224C246.123 92.2664 245.963 91.9024 245.643 91.6304C245.323 91.3504 244.919 91.2104 244.431 91.2104C244.087 91.2104 243.771 91.2864 243.483 91.4384C243.195 91.5824 242.967 91.7864 242.799 92.0504L242.031 91.4744C242.271 91.1064 242.599 90.8184 243.015 90.6104C243.439 90.4024 243.907 90.2984 244.419 90.2984C245.251 90.2984 245.903 90.5184 246.375 90.9584C246.855 91.3904 247.095 91.9824 247.095 92.7344V96.6104H246.123V95.7344H246.075C245.899 96.0304 245.635 96.2824 245.283 96.4904C244.931 96.6984 244.535 96.8024 244.095 96.8024ZM244.191 95.9024C244.535 95.9024 244.855 95.8144 245.151 95.6384C245.447 95.4624 245.683 95.2264 245.859 94.9304C246.035 94.6344 246.123 94.3104 246.123 93.9584C245.931 93.8304 245.695 93.7264 245.415 93.6464C245.135 93.5664 244.839 93.5264 244.527 93.5264C243.967 93.5264 243.543 93.6424 243.255 93.8744C242.975 94.1064 242.835 94.4064 242.835 94.7744C242.835 95.1104 242.963 95.3824 243.219 95.5904C243.475 95.7984 243.799 95.9024 244.191 95.9024ZM251.143 99.3944C250.423 99.3944 249.827 99.2264 249.355 98.8904C248.891 98.5544 248.579 98.1504 248.419 97.6784L249.343 97.2824C249.479 97.6344 249.703 97.9184 250.015 98.1344C250.335 98.3584 250.711 98.4704 251.143 98.4704C251.775 98.4704 252.263 98.2864 252.607 97.9184C252.959 97.5504 253.135 97.0304 253.135 96.3584V95.6744H253.087C252.887 95.9864 252.603 96.2424 252.235 96.4424C251.875 96.6344 251.463 96.7304 250.999 96.7304C250.471 96.7304 249.987 96.5944 249.547 96.3224C249.115 96.0504 248.771 95.6704 248.515 95.1824C248.259 94.6944 248.131 94.1384 248.131 93.5144C248.131 92.8984 248.259 92.3464 248.515 91.8584C248.771 91.3624 249.115 90.9784 249.547 90.7064C249.987 90.4344 250.471 90.2984 250.999 90.2984C251.463 90.2984 251.875 90.3984 252.235 90.5984C252.603 90.7904 252.887 91.0464 253.087 91.3664H253.135V90.4904H254.107V96.3704C254.107 97.3544 253.835 98.1024 253.291 98.6144C252.747 99.1344 252.031 99.3944 251.143 99.3944ZM251.143 95.8064C251.511 95.8064 251.843 95.7144 252.139 95.5304C252.443 95.3464 252.683 95.0824 252.859 94.7384C253.043 94.3944 253.135 93.9864 253.135 93.5144C253.135 93.0344 253.043 92.6224 252.859 92.2784C252.683 91.9344 252.443 91.6744 252.139 91.4984C251.843 91.3144 251.511 91.2224 251.143 91.2224C250.775 91.2224 250.439 91.3144 250.135 91.4984C249.831 91.6824 249.587 91.9464 249.403 92.2904C249.227 92.6344 249.139 93.0424 249.139 93.5144C249.139 93.9864 249.227 94.3984 249.403 94.7504C249.587 95.0944 249.831 95.3584 250.135 95.5424C250.439 95.7184 250.775 95.8064 251.143 95.8064ZM255.567 90.4904H256.539V91.4024H256.587C256.771 91.0904 257.047 90.8304 257.415 90.6224C257.791 90.4064 258.211 90.2984 258.675 90.2984C259.219 90.2984 259.715 90.4384 260.163 90.7184C260.611 90.9984 260.963 91.3864 261.219 91.8824C261.475 92.3784 261.603 92.9344 261.603 93.5504C261.603 94.1744 261.475 94.7344 261.219 95.2304C260.963 95.7184 260.611 96.1024 260.163 96.3824C259.715 96.6624 259.219 96.8024 258.675 96.8024C258.211 96.8024 257.791 96.6984 257.415 96.4904C257.047 96.2744 256.771 96.0144 256.587 95.7104H256.539L256.587 96.5504V99.2024H255.567V90.4904ZM258.555 95.8784C258.907 95.8784 259.239 95.7824 259.551 95.5904C259.863 95.3984 260.111 95.1264 260.295 94.7744C260.487 94.4144 260.583 94.0064 260.583 93.5504C260.583 93.0944 260.487 92.6904 260.295 92.3384C260.111 91.9784 259.863 91.7024 259.551 91.5104C259.239 91.3184 258.907 91.2224 258.555 91.2224C258.203 91.2224 257.871 91.3184 257.559 91.5104C257.247 91.7024 256.999 91.9744 256.815 92.3264C256.631 92.6784 256.539 93.0864 256.539 93.5504C256.539 94.0144 256.631 94.4224 256.815 94.7744C256.999 95.1264 257.247 95.3984 257.559 95.5904C257.871 95.7824 258.203 95.8784 258.555 95.8784ZM264.949 96.8024C264.213 96.8024 263.649 96.5864 263.257 96.1544C262.873 95.7224 262.681 95.1184 262.681 94.3424V90.4904H263.701V94.1864C263.701 94.7704 263.833 95.1984 264.097 95.4704C264.361 95.7424 264.717 95.8784 265.165 95.8784C265.509 95.8784 265.813 95.7864 266.077 95.6024C266.349 95.4184 266.557 95.1784 266.701 94.8824C266.853 94.5864 266.929 94.2744 266.929 93.9464V90.4904H267.949V96.6104H266.977V95.7224H266.929C266.761 96.0264 266.493 96.2824 266.125 96.4904C265.757 96.6984 265.365 96.8024 264.949 96.8024ZM269.455 90.4904H270.427V91.4744H270.475C270.595 91.1384 270.827 90.8624 271.171 90.6464C271.515 90.4224 271.875 90.3104 272.251 90.3104C272.531 90.3104 272.771 90.3504 272.971 90.4304V91.5344C272.715 91.4064 272.427 91.3424 272.107 91.3424C271.811 91.3424 271.539 91.4264 271.291 91.5944C271.043 91.7624 270.843 91.9904 270.691 92.2784C270.547 92.5584 270.475 92.8624 270.475 93.1904V96.6104H269.455V90.4904Z" fill="white"/>
</svg>
