<svg width="1169" height="557" viewBox="0 0 1169 557" fill="none" xmlns="http://www.w3.org/2000/svg">
    <g filter="url(#filter0_i_165_6)">
        <path d="M238.114 13.2026L246.816 18.0923L261.003 16.3449L262.966 10.8957L271.341 8.87255L276.704 1.82155L285.893 0.725586L286.312 10.252L293.44 13.1183L298.863 20.9739L295.068 38.4325L296.277 52.2508L302.827 53.6915L303.861 59.9226L340.839 72.1925L358.479 68.8203L383.301 80.0251L392.437 98.0815L409.119 106.428L421.823 105.615L422.18 110.137L431.651 107.738L437.546 111.21L448.691 109.286L461.387 113.003L471.063 109.148L481.332 111.655L515.518 108.351L528.359 109.317L541.679 116.391L549.05 112.751L558.688 132.401L556.33 136.003L560.833 144.526L559.897 147.53L551.476 148.572L560.818 162.252L575.073 160.536L578.2 163.847L593.262 163.502L605.418 157.087L610.94 143.192L632.597 143.775L638.607 128.416L632.788 119.396L658.21 96.879L659.427 92.8782L654.833 87.2604L658.796 84.2562L659.99 74.4155L666.076 75.1821L669.043 71.419L676.84 73.856L704.103 52.9027L717.712 54.5352L719.895 52.1517L725.616 57.8613L728.354 53.7612L737.68 52.6726L738.167 46.0588L768.298 44.5642L778.918 56.6581L783.558 69.3496L783.505 80.4012L789.256 83.804L782.866 86.0342L765.431 81.4359L758.972 85.4594L762.373 95.7754L767.31 98.5112L770.132 112.084L785.642 114.353L788.883 113.924L788.366 109.371L796.231 109.402L798.818 113.149L802.621 108.766L804.873 115.28L809.429 114.314L811.985 110.712L818.915 109.854L819.859 106.168L832.996 112.092L842.056 110.513L878.775 91.3913L880.623 81.0679L894.689 79.0062L894.194 74.9597L900.242 78.8836L905.445 75.6034L909.294 77.7034L912.246 70.775L919.099 73.6415L920.294 90.8318L932.792 86.2487L942.019 88.433L944.94 93.3764L966.423 97.1854L970.675 92.1808L974.775 96.7638L976.753 93.0007L991.914 93.7134L994.447 91.0389L1000.19 93.2997L1001.59 88.7856L995.824 81.727L999.551 80.7919L997.223 75.2893L1010.16 70.7599L1012.56 73.7258L1025.06 74.1244L1034.57 63.594L1046.05 65.2647L1047.45 52.7188L1066.61 60.4516L1073.89 61.195L1077.25 58.298L1088.83 61.2716L1096.49 83.5586L1114.14 81.336L1127.69 73.5494L1147.51 85.8348L1156.86 86.9461L1160.13 81.3973L1169.23 85.1908L1180.38 81.7806L1188.56 72.7831L1200.23 68.1232L1211.7 70.5296L1229.28 87.5515L1235.76 101.738L1232.23 107.011L1234.5 112.299L1240.4 113.057L1241.66 107.876L1247.58 108.673L1264.72 121.158L1274.82 120.131L1277.43 125.695L1271.44 133.926L1243.1 147.162L1239.28 160.107L1241.51 170.445L1237.76 175.074L1242.82 188.31L1256.56 188.004L1257.15 216.767L1262.65 230.7L1251.11 235.651L1246.97 242.05L1251.79 247.499L1260.62 242.847L1269.37 244.303L1263.59 279.765L1268.65 290.303L1256.59 294.863L1251.62 301.193L1231.26 305.937L1236.2 314.69L1231.75 319.35L1232.99 322.538L1249.59 323.404L1256.33 328.347L1257.25 335.842L1257.15 349.17L1253.15 358.727L1246.79 359.248L1240.94 355.025L1234.98 358.444L1235.2 362.95L1247.14 364.138L1249.51 369.25L1239.03 379.167L1233.6 378.155L1233.14 381.827L1242.34 382.11L1246.42 385.582L1245 376.722L1256.67 377.634L1256.23 385.206L1276.32 399.163L1274.89 412.705L1285.09 413.364L1292.33 420.146L1302.07 421.104L1304.9 426.768L1310.27 428.485L1312.34 437.513L1295.75 444.104L1304.83 455.232L1289.58 467.763L1279.92 468.307L1277.27 461.049L1267.43 464.314L1260.69 448.472L1246 459.601L1239.86 472.108L1231.31 475.81L1231.84 484.271L1221.99 492.288L1221.56 503.538L1212.9 518.307L1212.89 528.178L1225.76 545.851L1214.3 555.807L1208.83 556.665L1212.87 563.701L1202.41 567.15L1200.35 570.828L1195.44 567.403L1187.91 570.737L1172.23 555.485L1159.43 552.511L1153.39 544.686L1160.55 539.958L1159.84 512.513L1156.91 508.183L1147.91 510.329L1147.67 498.603L1161.23 487.383L1157.56 477.963L1164.19 465.954L1165.98 448.465L1160.75 437.728L1142.92 425.465L1136.1 415.885L1128.92 414.268L1112.9 419.027L1106.27 431.075L1099.01 428.324L1097.45 423.511L1085.94 432.148L1069.79 419.671L1061.08 420.637L1059.57 416.467L1049.86 412.674L1048.71 427.182L1043.97 433.129L1046.53 437.168L1039.34 438.364L1027.42 426.983L1013.96 424.959L1009.9 421.219L1003.8 422.951L1007.93 417.326L1006.09 406.466L997.642 403.331L988.544 405.263L986.444 387.98L976.768 384.524L965.875 386.555L947.915 377.963L935.591 377.251L930.441 382.087L927.619 378.147L915.113 374.752L912.961 367.494L905.331 366.819L902.668 361.34L898.629 372.522L905.772 374.277L910.352 384.132L906.776 395.56L897.305 399.606L894.742 404.105L901.314 414.091L901.337 419.579L896.233 421.878L900.98 439.099L880.798 446.648L883.179 460.175L878.866 476.3L864.884 473.188L859.932 475.38L859.073 470.468L843.653 458.565L829.634 465.18L829.801 468.222L836.777 471.073L830.668 473.096L827.352 482.937L829.238 485.673L824.887 493.284L827.603 500.978L820.361 498.97L819.486 507.516L813.834 505.707L813.149 511.355L814.732 519.31L822.658 519.149L821.951 524.706L828.485 524.223L826.378 531.128L832.92 531.596L842.626 546.127L825.891 548.625L817.767 569.395L813.18 565.524L809.232 570.766L809.81 591.16L797.243 595.797L795.851 591.513L787.643 592.372L788.244 604.703L784.342 603.093L779.511 606.519L785.726 609.539L776.286 612.574L780.949 614.176L775.259 625.695L782.813 630.96L780.112 635.428L773.669 632.845L773.783 637.597L766.648 640.701L762.03 632.876L749.677 632.178L757.846 619.096L751.419 617.049L751.403 609.155L747.014 612.075L743.081 608.121L730.788 615.708L731.557 622.108L723.653 631.833L725.372 637.673L719.697 637.183L716.426 647.981L707.754 651.591L709.877 658.703L701.722 658.764L697.766 653.491L696.352 657.032L690.608 652.702L685.23 653.307L680.202 664.842L687.482 668.03L684.097 671.954L685.314 677.671L679.434 678.752L679.236 698.556L661.139 706.396L651.25 701.422L650.74 708.289L658.811 713.408L654.764 720.007L647.271 720.873L649.165 728.384L644.472 730.216L643.262 737.933L638.904 736.608L631.144 723.142L624.58 734.209L624.587 724.521L616.691 724.705L616.684 732.017L610.742 732.301L611.214 741.145L601.568 743.866L599.492 750.595L586.119 752.158L587.45 760.903L591.603 764.306L587.998 768.958L593.026 769.103L585.982 773.234L586.438 779.334L592.729 778.982L590.949 788.899L598.282 789.857L594.083 799.467L589.443 799.721L588.066 793.153L577.279 796.394L572.266 789.022L560.795 793.344L561.343 801.959L559.334 794.655L552.663 790.401L545.901 796.463L542.051 792.417L522.402 797.46L516.431 792.524L515.412 781.886L511.388 787.152L505.462 780.959L501.894 789.765L491.495 781.12L484.193 782.668L482.025 775.089L475.346 771.816L472.196 786.132L466.263 787.627L467.259 793.16L471.763 794.41L470.622 800.932L479.21 807.921L479.568 816.789L474.136 823.157L482.177 835.833L482.162 841.06L476.646 845.467L481.18 845.582L481.553 858.166L476.844 859.707L471.375 856.611L471.192 851.023L465.822 850.242L464.954 857.599L452.563 861.056L448.645 853.982L442.772 857.63L436.999 855.476L429.126 859.454L420.073 859.078L419.168 872.506L408.511 878.154L403.307 877.87L404.334 872.62H396.606L388.527 860.097L379.208 863.929L378.95 861.278L364.314 861.37L362.504 863.937L368.909 867.309L368.407 871.892L360.107 875.548L361.994 889.872L351.032 889.726L326.066 898.984L325.739 905.683L320.064 911.914L324.819 917.424L317.242 917.041L316.215 922.198L306.296 926.153L302.69 912.641L294.185 913.737L290.899 908.058L290.108 917.37L279.123 921.716L276.963 930.161L272.612 928.36L273.091 925.318L267.325 925.916L264.891 934.461L258.881 927.395L260.372 934.246L255.177 935.664L257.664 938.799L262.624 934.377L262.053 941.627L268.831 942.761L269.432 951.353L273.646 952.38L272.46 957.292L269.5 952.985L266.694 954.878L266.306 963.875L270.398 969.463L268.025 973.356L271.121 969.401L281.938 971.271L282.143 975.111L294.984 979.495L296.543 986.607L292.23 993.451L292.747 1003.36L284.068 999.49L273.487 1009.06L276.971 1012.02L284.334 1008.43L289.743 1011.12L277.26 1034.24L280.394 1042.29L277.511 1042.43L274.437 1035.83L269.721 1042.39L276.856 1043.7L272.962 1055.37L261.391 1061.06L254.69 1060.75L251.069 1053.38L247.417 1058.73L235.672 1064.6L236.151 1071.15L230.248 1072.4L234.942 1075.8L219.317 1083.37L214.669 1082.28L209.983 1076.78L206.18 1060.68L196.161 1059.38L193.461 1051.41L188.288 1061.3L163.946 1063.52L158.902 1059.98L163.056 1058.6L149.652 1032.36L136.827 1028.21L132.582 1011.86L128.155 1008.82L130.102 1006.01L125.013 984.806L117.536 957.806L114.219 957.484L120.19 950.617L113.869 951.866L113.732 944.846L105.988 932.553L106.209 925.433L110.187 923.77L106.072 917.999L109.746 911.798L106.916 911.247L105.189 883.726L99.7505 869.516L102.489 853.867L98.7768 853.774L100.808 849.506L96.1219 846.961L103.105 838.439L97.978 832.691L91.2078 807.047L85.7688 801.621L90.9948 800.97L91.8772 804.541L94.4864 800.226L88.6062 787.374L82.2392 783.894L88.3856 778.231L85.2439 777.763L84.9321 767.079L77.5 758.71L82.4598 754.257L75.8645 745.106L73.7878 735.526L77.1501 731.855L69.7181 716.458L67.725 701.613L65.7396 702.64L60.3843 693.696L61.7079 686.952L54.0096 675.065L56.0864 671.616L50.9972 662.159L53.6521 651.582L44.6302 647.336L45.3377 637.074L49.9779 637.304L52.6708 643.696L66.6068 647.007L64.4844 652.931L69.6572 658.886L68.4172 645.512L64.3095 638.936L54.4888 638.423L47.81 627.877L41.9221 624.758L43.8695 619.439L38.9554 604.962L44.2194 593.32L32.5427 567.247L34.7944 549.099L42.272 551.161L46.1668 545.175L50.906 551.59L52.8458 548.264L53.8194 538.76L43.9151 541.289L40.9484 532.667L48.8749 531.587L45.9538 525.18L48.563 520.543L52.3209 522.466L60.7646 516.305L56.0788 515.898L54.4888 506.196L49.666 506.341L48.5174 511.499L41.1766 517.638L33.6609 515.668L30.8768 528.919L24.9965 534.537L27.5145 526.015L22.471 524.474L26.0996 511.583L28.0013 513.039L29.8574 509.521L26.3202 508.962L28.047 500.286L20.6073 488.1L20.2954 469.047L23.6121 460.226L17.0244 452.677L14.9477 437.97L20.6073 433.172L21.581 427.294L18.1731 430.965L10.741 425.14L9.85864 415.453L13.8827 415.124L5.78893 381.854L0 374.175L0.174923 370.971L4.86087 369.814L2.16036 358.356L10.4368 351.658L9.06754 335.012L13.8447 323.784L24.0685 325.746L24.0989 321.753L29.401 322.404L29.2869 315.414L35.6387 308.609L50.9136 310.9L53.4999 317.874L51.3548 324.757L53.9031 327.738L58.3989 324.052L57.2426 328.221L64.028 335.471L65.2756 330.145L77.8347 332.659L85.2135 337.985L90.0591 326.251L101.645 321.576L105.159 311.782L111.8 313.261L114.15 310.732L115.223 314.249L124.078 311.943L123.043 287.142L117.931 280.658L124.047 276.543L135.351 255.114L132.339 254.593L132.179 247.726L125.736 245.764L119.742 237.671L125.667 233.877L127.858 226.106L132.46 224.956L134.978 235.824L141.338 232.344L152.307 238.743L157.001 248.469L162.402 251.351L167.225 248.622L174.74 250.5L189.087 242.254L190.213 233.501L186.599 228.941L193.119 228.857L196.618 222.841L202.239 223.883L206.804 220.679L206.096 203.987L198.124 186.912L199.942 179.562L185.603 177.362L184.218 172.825L178.985 174.902L173.782 167.2L175.44 157.191L160.69 158.164L149.28 147.986L153.243 146.584L156.94 154.01L164.09 150.676L172.907 153.052L173.698 148.116L186.584 147.296L188.113 130.949L197.645 131.807L206.644 125.799L207.336 107.842L209.862 109.605L222.573 104.914L225.54 94.2153L232.196 100.025L235.368 97.3653L250.285 98.1393L251.312 94.6139L254.598 97.4802L267.028 91.8472L267.173 84.0605L263.529 79.9374L257.862 85.0109L252.765 82.5277L248.018 85.7543L244.527 80.8954L225.966 80.9105L192.685 91.8395L186.904 74.2581L181.031 69.6674L196.641 66.234L198.352 56.7612L187.976 46.0163L190.167 41.2417L184.683 35.6317L238.114 13.1988V13.2026Z"
              fill="#FCFCFC"/>
    </g>
    <rect x="632" y="318.726" width="537" height="277" fill="#FCFCFC"/>
    <path d="M286.413 266.921C285.645 267.241 284.957 268.469 284.547 269.164C284.145 269.846 283.593 270.464 283.227 271.162C282.67 272.226 281.698 273.175 281.257 274.301C280.799 275.471 279.933 276.838 279.806 278.109C279.704 279.131 279.118 280.122 279.118 281.135C279.118 282.438 278.866 283.974 279.419 285.169C280.134 286.713 280.063 288.423 280.569 290.014C280.827 290.826 281.075 291.7 281.493 292.446C281.838 293.062 282.38 293.793 282.511 294.482C282.662 295.275 283.085 296.115 283.529 296.782"
          stroke="#F4B400" strokeWidth="3.72528" strokeLinecap="round"/>
    <path d="M284.188 302.52C284.334 304.133 285.767 305.549 286.474 306.963C286.887 307.79 287.25 308.427 287.929 309.067C288.274 309.394 289.113 309.983 289.566 310.185C290.199 310.466 291.443 310.479 291.904 311.055C292.342 311.602 296.346 311.286 296.945 311.029C299.087 310.111 301.446 309.113 303.128 307.431"
          stroke="#F4B400" strokeWidth="3.72528" strokeLinecap="round"/>
    <path d="M290.84 305.909C291.599 305.909 292.637 303.938 292.946 303.352C293.367 302.554 293.879 301.81 294.3 301.012C294.539 300.559 294.639 299.985 294.902 299.591"
          stroke="#F4B400" strokeWidth="3.72528" strokeLinecap="round"/>
    <path d="M297.76 304.857C298.359 304.857 298.856 303.962 299.181 303.536C299.533 303.073 299.822 302.583 300.091 302.065C300.35 301.568 300.78 301.212 301.036 300.728C301.5 299.85 302.122 298.621 302.122 297.636"
          stroke="#F4B400" strokeWidth="3.72528" strokeLinecap="round"/>
    <path d="M291.137 264.667C291.24 265.702 292.055 266.786 292.397 267.761C292.902 269.196 293.41 270.544 293.887 272.001C294.366 273.464 294.345 274.842 294.345 276.355"
          stroke="#F4B400" strokeWidth="3.72528" strokeLinecap="round"/>
    <path d="M302.369 263.062C302.69 265.764 303.073 268.491 303.273 271.199C303.343 272.136 303.447 273.366 303.235 274.293C303.04 275.146 302.833 276.806 302.369 277.502"
          stroke="#F4B400" strokeWidth="3.72528" strokeLinecap="round"/>
    <path d="M282.289 313.547C284.167 317.404 286.285 323.276 291.388 323.276C295.393 323.276 299.088 321.278 302.019 318.692C303.18 317.667 304.204 316.565 304.902 315.168C305.483 314.005 305.533 312.718 305.533 311.424C305.533 310.54 305.533 309.656 305.533 308.772C305.533 308.13 304.992 307.686 304.992 307.06"
          stroke="#F4B400" strokeWidth="3.72528" strokeLinecap="round"/>
    <path d="M281.57 314.087C281.57 319.763 281.594 325.454 281.75 331.104C281.78 332.166 282.303 333.367 282.511 334.407C282.762 335.659 283.593 336.831 283.873 338.091C284.063 338.95 284.409 339.945 284.774 340.754C285.064 341.399 285.216 342.468 285.634 343.006C286.075 343.572 286.064 344.254 286.525 344.818C286.966 345.357 287.163 346.158 287.606 346.69C288.004 347.167 288.1 347.789 288.337 348.332C288.667 349.087 289.096 349.767 289.358 350.524C290.501 353.825 291.069 357.753 293.192 360.584C294.378 362.165 296.225 363.157 297.607 364.538C298.506 365.437 299.643 366.152 300.409 367.161C301.318 368.356 302.537 369.526 303.553 370.654C305.63 372.963 308.016 374.934 310.129 377.231C311.567 378.793 312.289 380.596 313.372 382.386C314.671 384.532 315.513 386.896 316.386 389.223C317.412 391.96 318.717 394.522 319.869 397.191C321.103 400.049 322.583 403.018 324.444 405.529C325.283 406.663 325.976 407.862 326.976 408.863C327.898 409.784 328.961 410.748 329.679 411.826C330.365 412.855 331.509 413.497 332.302 414.448C332.715 414.945 333.714 416.43 334.364 416.43"
          stroke="#F4B400" strokeWidth="3.72528" strokeLinecap="round"/>
    <path d="M334.9 417.331C334.957 418.346 336.075 419.44 336.702 420.174C337.497 421.104 338.488 421.846 339.315 422.737C339.683 423.133 340.233 423.657 340.756 423.818C341.548 424.061 342.174 424.915 342.949 425.259C346.801 426.971 350.783 429.91 352.929 433.557C355.245 437.496 357.682 441.505 358.955 445.89C359.495 447.751 359.941 449.644 360.626 451.426C360.808 451.897 360.91 452.436 361.017 452.917C361.111 453.341 361.426 453.665 361.567 454.088"
          stroke="#F4B400" strokeWidth="3.72528" strokeLinecap="round"/>
    <path d="M360.668 454.449C361.145 455.402 361.679 456.219 362.069 457.232C362.489 458.319 362.836 459.289 363.191 460.395C363.735 462.092 364.402 464.092 364.452 465.9C364.55 469.42 364.812 472.899 364.812 476.431C364.812 479.946 365.079 483.397 365.753 486.842C366.462 490.467 367.225 494.113 367.835 497.773C368.181 499.849 368.886 501.78 369.357 503.819C369.781 505.658 370.085 507.482 370.758 509.264C371.062 510.068 371.134 510.949 371.479 511.747C371.835 512.571 372.193 513.621 372.42 514.489C372.942 516.489 374.356 518.29 375.083 520.255C376.062 522.907 376.178 525.849 377.465 528.424C378.328 530.15 379.462 531.73 380.308 533.469C381.152 535.205 381.503 537.034 382.25 538.814C382.49 539.387 383.196 542.547 383.911 541.116"
          stroke="#F4B400" strokeWidth="3.72528" strokeLinecap="round"/>
    <path d="M384.635 541.837C384.635 542.831 385.62 543.703 386.477 544.04C387.119 544.292 387.557 544.971 388.138 545.341C389.492 546.202 390.682 547.806 391.392 549.225C391.929 550.3 393.391 553.544 392.383 554.73C391.597 555.655 390.48 556.252 389.32 556.252"
          stroke="#F4B400" strokeWidth="3.72528" strokeLinecap="round"/>
    <path d="M357.607 557.153C369.007 557.153 380.431 556.973 391.842 556.973" stroke="#F4B400" strokeWidth="3.72528"
          strokeLinecap="round"/>
    <path d="M357.601 556.432C356.207 556.432 354.97 555.242 354.007 554.28C352.853 553.126 352.556 551.903 352.556 550.306C352.556 548.559 352.975 547.286 353.717 545.801C354.041 545.153 354.524 544.445 355.179 544.08C355.573 543.859 355.97 543.279 356.43 543.279C356.888 543.279 357.35 542.924 357.691 542.658C357.808 542.567 358.097 542.602 358.132 542.448C358.217 542.064 358.18 541.727 358.322 541.337C358.784 540.065 358.502 538.397 358.502 537.063C358.502 535.701 358.41 534.21 358.182 532.868C358.019 531.912 358.138 530.951 357.921 529.985C357.597 528.542 357.349 527.043 356.97 525.611C356.431 523.575 356.04 521.108 354.898 519.315C354.146 518.133 353.647 516.759 352.916 515.541C352.299 514.511 351.608 513.525 350.974 512.508C349.755 510.548 348.37 508.72 347.241 506.712C345.462 503.551 343.887 500.376 342.246 497.152C340.823 494.357 339.595 491.556 338.412 488.664C337.669 486.848 336.948 485.036 336.069 483.278C335.74 482.62 335.294 481.908 335.078 481.206C334.964 480.834 334.647 480.704 334.468 480.385C334.263 480.022 334.261 479.683 333.957 479.354C333.104 478.432 332.526 477.076 331.845 476.011C331.495 475.464 330.955 474.873 330.754 474.269"
          stroke="#F4B400" strokeWidth="3.72528" strokeLinecap="round"/>
    <path d="M358.143 547.963C358.143 550.577 358.683 553.374 358.683 555.891" stroke="#F4B400" strokeWidth="3.72528"
          strokeLinecap="round"/>
    <path d="M366.072 549.225C366.76 550.867 367.269 553.223 367.334 555.03C367.343 555.282 367.334 556.674 367.334 555.711"
          stroke="#F4B400" strokeWidth="3.72528" strokeLinecap="round"/>
    <path d="M373.281 548.324C374.509 550.891 374.723 553.301 374.723 556.092C374.723 556.686 374.723 558.467 374.723 557.873"
          stroke="#F4B400" strokeWidth="3.72528" strokeLinecap="round"/>
    <path d="M379.77 548.324C380.468 548.655 380.652 549.89 380.831 550.556C381.187 551.882 381.211 553.216 381.211 554.58C381.211 555.317 381.211 556.055 381.211 556.792"
          stroke="#F4B400" strokeWidth="3.72528" strokeLinecap="round"/>
    <path d="M330.214 474.089C328.446 474.089 326.677 474.089 324.909 474.089C322.47 474.089 319.838 474.103 317.421 474.409C315.562 474.645 312.344 474.624 311.655 476.862C311.484 477.42 311.037 478.055 310.795 478.593C310.522 479.2 310.399 480.217 310.755 480.796C311.76 482.429 310.367 484.758 309.583 486.151C309.136 486.947 308.285 487.585 307.732 488.323C306.912 489.416 306.331 490.65 305.569 491.747C304.547 493.219 305.04 494.861 306.25 496.071C306.918 496.739 307.352 497.594 307.872 498.373C308.365 499.114 309.173 499.916 309.453 500.756C309.807 501.817 310.576 502.772 310.925 503.819C311.302 504.952 311.576 506.182 312.106 507.242C312.53 508.09 312.556 509.369 312.556 510.306C312.556 511.643 312.782 513.369 311.976 514.53C311.366 515.408 310.995 516.414 310.294 517.243C309.6 518.063 308.502 519.151 308.062 520.105C306.997 522.414 305.513 524.59 304.448 526.922C302.994 530.108 300.782 533.081 299.493 536.352C298.346 539.264 296.683 541.872 295.299 544.64C293.495 548.248 292.016 552.211 292.016 556.252"
          stroke="#F4B400" strokeWidth="3.72528" strokeLinecap="round"/>
    <path d="M256.881 556.793C265.131 556.793 273.405 556.612 281.666 556.612C283.544 556.612 285.455 556.723 287.332 556.612C288.156 556.564 289.097 556.252 290.034 556.252"
          stroke="#F4B400" strokeWidth="3.72528" strokeLinecap="round"/>
    <path d="M256.343 555.891C255.945 556.245 254.934 556.104 254.451 556.062C253.501 555.979 252.9 555.068 252.299 554.45C250.488 552.587 250.217 550.482 250.217 548.003C250.217 545.855 251.992 543.904 253.961 543.099C255.205 542.589 256.551 542.37 257.865 542.108C258.792 541.922 259.765 541.992 260.667 541.797C262.582 541.383 264.549 541.117 266.513 541.117C267.55 541.117 268.585 540.986 269.576 540.656C270.371 540.391 271.246 540.3 271.979 539.855C274.654 538.231 277.305 536.839 279.146 534.129C281.29 530.974 282.454 527.17 283.47 523.539C283.833 522.242 284.337 520.971 284.812 519.715C285.192 518.709 285.383 517.564 285.903 516.612C286.611 515.313 287.348 513.96 287.775 512.558C288.41 510.469 288.415 508.515 288.415 506.341C288.415 504.62 286.722 501.303 285.442 500.225C281.598 496.988 276.6 494.564 273.811 490.205C271.605 486.758 270.577 483.009 270.577 478.954"
          stroke="#F4B400" strokeWidth="3.72528" strokeLinecap="round"/>
    <path d="M268.413 480.575C267.768 481.397 267.42 482.48 267.062 483.448C266.659 484.539 266.078 485.54 265.751 486.661C265.505 487.504 265.177 488.303 264.9 489.134C264.713 489.695 264.28 490.152 264.129 490.705C263.396 493.393 260.777 495.648 259.304 497.963C258.527 499.183 257.217 499.986 256.161 500.946C254.497 502.459 253.022 504.178 251.376 505.711C248.689 508.212 245.855 510.748 243.488 513.569C241.893 515.469 241.206 517.607 241.206 520.075C241.206 523.067 240.884 526.259 241.296 529.224C241.675 531.958 241.926 534.784 241.926 537.553C241.926 539.053 241.973 540.382 242.327 541.837C242.54 542.713 242.343 543.584 242.917 544.35C243.629 545.298 243.87 546.553 244.079 547.703C244.216 548.459 244.051 549.551 243.558 550.126C243.095 550.665 243.343 551.242 243.008 551.807C242.251 553.084 242.034 554.222 240.705 555.091C238.97 556.225 235.866 555.891 233.908 555.891C227.097 555.891 220.295 555.711 213.498 555.711C210.237 555.711 206.981 556.072 203.708 556.072C201.792 556.072 196.046 556.252 197.962 556.252"
          stroke="#F4B400" strokeWidth="3.72528" strokeLinecap="round"/>
    <path d="M197.964 556.072C192.875 556.314 187.798 556.072 182.738 556.072C181.45 556.072 180.162 556.072 178.874 556.072C178.174 556.072 177.434 556.177 176.792 555.892C176.035 555.555 175.899 554.288 175.711 553.539C175.485 552.634 175.698 551.667 175.581 550.746C175.479 549.937 175.261 549.244 175.261 548.414C175.261 547.19 175.16 545.92 175.271 544.7C175.402 543.259 176.191 542.249 176.962 541.127C177.461 540.402 178.38 539.771 179.185 539.455C180.163 539.071 181.057 538.364 182.108 538.094C182.89 537.892 183.818 537.357 184.63 537.333C185.639 537.303 186.425 536.677 187.373 536.612C188.487 536.535 189.797 535.625 190.796 535.171C192.11 534.574 193.065 533.573 194.14 532.648C195.692 531.312 196.167 528.808 196.482 526.882C196.639 525.924 196.731 524.778 197.423 523.999C198.465 522.827 200.855 522.652 202.368 522.107C207.195 520.37 209.193 515.771 211.197 511.477C212.314 509.083 212.962 506.494 214.08 504.099C214.451 503.305 214.296 502.597 214.37 501.747C214.725 497.672 214.54 493.516 214.54 489.414C214.54 487.031 214.671 484.677 214.18 482.337C213.695 480.026 213.802 477.567 213.059 475.31C212.253 472.862 211.564 470.304 210.576 467.923C209.96 466.437 209.497 464.876 208.935 463.368C208.27 461.585 207.298 459.938 206.653 458.133C205.702 455.475 204.862 452.788 203.95 450.125C203.208 447.959 203.38 445.369 202.468 443.278C201.993 442.188 202.575 440.918 202.248 439.814C201.981 438.913 202.108 437.91 202.108 436.971"
          stroke="#F4B400" strokeWidth="3.72528" strokeLinecap="round"/>
    <path d="M263.728 546.702C262.393 546.9 260.98 549.301 260.205 550.306C259.945 550.642 258.703 551.935 258.703 552.368C258.703 552.985 258.881 554.081 258.143 554.45"
          stroke="#F4B400" strokeWidth="3.72528" strokeLinecap="round"/>
    <path d="M271.657 546.702C271.242 549.051 270.326 551.277 269.595 553.539C269.472 553.919 268.692 555.891 268.954 555.891"
          stroke="#F4B400" strokeWidth="3.72528" strokeLinecap="round"/>
    <path d="M280.129 548.324C280.799 548.742 280.309 552.71 280.309 553.649C280.309 554.473 280.129 555.297 280.129 556.072"
          stroke="#F4B400" strokeWidth="3.72528" strokeLinecap="round"/>
    <path d="M192.015 544.36C190.178 547.665 187.33 550.826 187.33 554.81" stroke="#F4B400" strokeWidth="3.72528"
          strokeLinecap="round"/>
    <path d="M205.17 543.639V555.711" stroke="#F4B400" strokeWidth="3.72528" strokeLinecap="round"/>
    <path d="M220.125 544.54C220.342 546.355 220.283 548.164 220.305 549.986C220.321 551.27 220.666 552.519 220.666 553.799C220.666 554.233 220.666 554.667 220.666 555.101C220.666 555.716 220.305 556.199 220.305 556.792"
          stroke="#F4B400" strokeWidth="3.72528" strokeLinecap="round"/>
    <path d="M182.108 544.18C180.111 545.477 178.849 547.819 177.463 549.685C177.042 550.251 176.653 550.945 176.342 551.567"
          stroke="#F4B400" strokeWidth="3.72528" strokeLinecap="round"/>
    <path d="M238.142 522.018C236.904 524.013 235.969 526.152 235.079 528.314C234.61 529.452 233.918 530.481 233.417 531.607C232.798 533 231.715 534.221 231.195 535.631C230.591 537.27 229.917 538.891 229.493 540.586C228.759 543.523 228.953 546.574 228.953 549.575C228.953 551.2 228.706 553.039 229.093 554.631C229.228 555.187 229.313 555.682 229.313 556.252"
          stroke="#F4B400" strokeWidth="3.72528" strokeLinecap="round"/>
    <path d="M202.356 442.767C200.762 441.173 200.902 438.06 200.902 435.941C200.902 434.316 200.235 432.795 200.175 431.216C200.095 429.132 199.106 426.425 197.711 424.876C196.285 423.291 196.459 421.039 195.167 419.423C194.803 418.968 194.594 417.591 194.278 416.96C193.862 416.127 193.725 415.451 193.349 414.617C191.077 409.567 192.178 402.669 192.178 397.251C192.178 386.571 191.451 375.93 191.451 365.265C191.451 361.593 191.793 358.029 193.269 354.643C194.018 352.923 194.322 349.787 194.359 347.898C194.393 346.156 194.722 344.487 194.722 342.729C194.722 333.354 194.189 323.377 196.459 314.297C197.263 311.082 196.982 307.358 198.075 304.2C198.485 303.014 199.12 301.908 199.529 300.727C199.91 299.626 200.883 297.482 201.629 296.648C202.331 295.862 202.753 294.878 203.446 294.103C204.36 293.082 205.956 291.921 206.637 290.832C207.696 289.137 210.852 288.318 212.533 287.197"
          stroke="#F4B400" strokeWidth="3.72528" strokeLinecap="round"/>
    <path d="M232.159 288.288C227.213 290 220.664 290.969 216.55 286.854C215.44 285.744 213.696 285.454 212.531 284.289C211.582 283.341 210.228 282.38 209.058 281.745C208.057 281.202 207.195 280.318 206.352 279.564C205.717 278.996 202.694 278.067 203.848 277.202C205.467 275.987 207.364 276.02 209.28 276.858C212.128 278.104 215.831 278.11 218.912 278.11C224.462 278.11 229.807 277.319 235.067 275.566"
          stroke="#F4B400" strokeWidth="3.72528" strokeLinecap="round"/>
    <path d="M224.891 273.385C226.145 273.228 227.528 268.567 228.525 267.569C230.111 265.984 232.865 264.628 234.907 263.753C237.487 262.647 239.915 261.147 242.317 259.795C243.831 258.944 245.709 258.606 247.144 257.755C248.615 256.884 250.593 257.07 251.788 255.938C252.928 254.858 254.65 253.929 255.968 253.05C257.267 252.184 259.054 251.014 260.532 250.829C262.516 250.581 264.26 249.731 266.327 250.203C267.532 250.479 268.877 251.111 270.144 250.829C272.01 250.415 272.703 246.851 275.051 246.851C277.598 246.851 279.864 248.17 282.159 249.214C284.472 250.265 286.91 249.395 289.227 249.395"
          stroke="#F4B400" strokeWidth="3.72528" strokeLinecap="round"/>
    <path d="M294.26 253.03C292.875 251.645 291.49 250.299 291.49 248.202C291.49 247.356 291.292 246.639 292.096 246.192C292.801 245.801 294.28 246.149 294.991 246.24C296.5 246.435 297.917 246.562 299.28 247.279C300.391 247.864 301.757 249.595 301.078 250.953C300.606 251.897 299.39 252.651 298.414 252.895C297.451 253.136 296.583 253.582 295.645 253.895"
          stroke="#F4B400" strokeWidth="3.72528" strokeLinecap="round"/>
    <path d="M302.738 255.107C304.887 256.539 306.027 257.8 306.027 260.435C306.027 262.118 305.381 263.842 304.642 265.32"
          stroke="#F4B400" strokeWidth="3.72528" strokeLinecap="round"/>
    <path d="M268.279 256.718C266.643 256.718 265.104 256.048 263.465 255.966C262.81 255.933 262.122 255.815 261.426 255.815C260.457 255.815 259.598 256.146 258.685 256.451C257.712 256.775 256.531 257.028 255.868 257.838C254.778 259.17 253.406 260.33 252.216 261.565C251.022 262.805 249.974 264.575 248.271 265.142"
          stroke="#F4B400" strokeWidth="3.72528" strokeLinecap="round"/>
    <path d="M248.422 267.098C252.306 267.098 256.05 268.602 259.922 268.602C260.73 268.602 261.537 268.602 262.345 268.602C263.497 268.602 264.215 268.494 265.27 268.143C265.818 267.96 266.105 267.467 266.474 267.098C266.67 266.902 266.897 266.435 267.076 266.346"
          stroke="#F4B400" strokeWidth="3.72528" strokeLinecap="round"/>
    <path d="M259.402 263.337C259.72 263.267 259.753 262.846 260.138 262.736C260.499 262.633 260.615 262.181 261.057 262.134C261.378 262.1 261.823 261.676 262.11 261.532"
          stroke="#F4B400" strokeWidth="3.72528" strokeLinecap="round"/>
    <path d="M279.734 322.199C278.709 322.742 277.932 323.846 277.233 324.744C276.394 325.823 275.556 326.951 274.754 328.064C273.399 329.946 271.751 331.602 270.527 333.597C268.163 337.45 264.968 340.949 261.763 344.154C261.291 344.626 260.6 345.061 259.971 345.304C258.626 345.824 257.574 346.175 256.33 346.986C255.49 347.534 254.761 348.303 254.139 349.089C253.382 350.046 252.282 350.778 251.406 351.634C249.828 353.176 247.933 354.421 246.371 355.983C245.767 356.586 245.541 357.851 245.275 358.65"
          stroke="#F4B400" strokeWidth="1.86264" strokeLinecap="round"/>
    <path d="M243.68 373.389C243.68 371.105 246.955 368.954 248.814 368.21C250.567 367.509 252.25 366.936 254.037 366.318C255.56 365.791 257.216 365.679 258.718 365.112C260.295 364.516 261.875 363.553 263.288 362.633C269.05 358.881 273.518 353.652 275.958 347.185C276.535 345.657 277.463 344.255 278.138 342.759C278.74 341.425 279.557 340.101 280.373 338.886C281.067 337.854 281.28 336.548 281.967 335.544C282.332 335.01 282.39 334.445 282.719 333.951"
          stroke="#F4B400" strokeWidth="1.86264" strokeLinecap="round"/>
    <path d="M286.31 345.503C285.802 348.724 285.029 351.27 283.72 354.168C282.999 355.766 282.348 357.46 281.828 359.136C280.966 361.916 279.855 364.666 278.852 367.402C277.82 370.216 275.702 372.651 273.584 374.673C271.372 376.785 268.154 377.838 265.296 378.667C262.746 379.408 260.09 380.163 257.628 381.113C254.662 382.257 252.032 383.662 249.505 385.628C248.101 386.72 246.679 387.771 245.323 388.925C244.019 390.034 243.201 391.601 242.136 392.909C241.406 393.804 240.503 395.132 240.144 396.251C240.014 396.654 239.701 397.292 239.701 397.689"
          stroke="#F4B400" strokeWidth="1.86264" strokeLinecap="round"/>
    <path d="M234.884 280.429C234.62 280.396 234.694 280.336 234.598 280.142" stroke="#F4B400" strokeWidth="3.72528"
          strokeLinecap="round"/>
    <path d="M234.026 277.284C233.726 278.932 232.449 280.365 231.915 281.967C231.467 283.311 231.1 284.766 230.756 286.142C230.313 287.915 230.311 290.09 230.311 291.921C230.311 297.598 230.025 303.305 230.025 309.003C230.025 311.217 230.506 313.265 230.883 315.432C231.034 316.305 231.423 318.365 232.026 319.004C232.201 319.19 232.925 320.383 233.042 320.417C233.953 320.677 234.883 320.285 235.74 320.163C239.215 319.666 243.119 320.147 246.615 320.147C251.743 320.147 256.891 319.861 261.998 319.861C265.186 319.861 268.613 317.729 271.332 316.305C274 314.908 275.963 312.264 278.889 311.289"
          stroke="#F4B400" strokeWidth="1.86264" strokeLinecap="round"/>
    <path d="M215.738 293C215.505 295.564 214.62 297.973 214.595 300.589C214.572 303.063 214.809 305.352 215.103 307.796C215.665 312.454 215.453 317.178 215.453 321.861C215.453 323.806 215.738 325.638 215.738 327.576C215.738 329.634 217.471 328.32 218.739 327.719C219.755 327.238 220.422 326.97 221.326 326.306C222.244 325.634 223.185 325.128 224.295 324.989C225.25 324.869 225.965 324.433 226.994 324.433C228.267 324.433 229.575 325.496 230.582 326.148C233.582 328.089 235.584 330.716 238.186 333.006C238.94 333.669 239.813 334.879 240.742 335.292C240.898 335.361 241.844 335.863 241.456 335.863"
          stroke="#F4B400" strokeWidth="1.86264" strokeLinecap="round"/>
    <path d="M209.451 297.858C209.287 300.31 208.289 302.67 208.085 305.161C207.804 308.603 208.022 312.139 208.022 315.591C208.022 319.407 208.308 323.212 208.308 327.005C208.308 330.405 208.775 333.899 209.848 337.118C210.224 338.247 210.339 339.355 210.879 340.435C211.158 340.993 211.909 342.056 212.007 342.594C212.218 343.76 213.071 345.955 214.372 346.373C215.739 346.812 217.743 346.436 219.166 346.436C220.971 346.436 222.775 346.436 224.58 346.436C225.48 346.436 226.905 346.178 227.739 346.595C229.473 347.462 230.683 350.86 231.612 352.437C232.67 354.233 233.752 355.958 234.867 357.723C235.297 358.405 235.499 359.024 236.311 359.295"
          stroke="#F4B400" strokeWidth="1.86264" strokeLinecap="round"/>
    <path d="M196.936 347.625C198.633 349.747 198.526 353.567 199.183 356.102C199.658 357.935 199.976 359.752 200.571 361.539C200.815 362.271 201.499 364.501 202.157 364.877C203.523 365.657 204.815 366.459 205.71 367.851C207.803 371.107 209.45 374.542 210.023 378.41C210.254 379.97 210.312 381.53 210.552 383.087C210.803 384.719 211.451 386.354 211.51 388.011C211.536 388.736 212.408 391.049 211.808 391.349"
          stroke="#F4B400" strokeWidth="1.86264" strokeLinecap="round"/>
    <path d="M192.477 380.046C194.903 380.267 196.381 382.787 197.236 384.739C198.293 387.156 199.346 389.614 200.342 392.06C201.676 395.333 203.527 398.608 204.308 402.123C204.983 405.158 207.425 408.251 208.952 410.964C209.522 411.978 210.153 412.664 211.215 413.195C211.696 413.435 213.06 413.955 213 413.955"
          stroke="#F4B400" strokeWidth="1.86264" strokeLinecap="round"/>
    <path d="M193.961 409.493C195.321 409.629 196.404 410.616 197.233 411.641C198.359 413.034 199.616 414.213 200.786 415.558C202 416.954 203.186 418.418 204.966 419.011"
          stroke="#F4B400" strokeWidth="1.86264" strokeLinecap="round"/>
    <path d="M203.48 435.073C207.007 435.745 209.809 441.187 211.214 443.997" stroke="#F4B400" strokeWidth="1.86264"
          strokeLinecap="round"/>
    <path d="M218.947 441.022C220.954 443.475 222.836 446.172 225.788 447.566C227.597 448.42 230.062 448.161 232.002 448.161C233.313 448.161 234.575 448.459 235.902 448.459"
          stroke="#F4B400" strokeWidth="1.86264" strokeLinecap="round"/>
    <path d="M218.053 460.059C220.012 460.276 222.025 462.672 223.836 463.33C225.297 463.862 226.541 465.171 228.001 465.644C228.421 465.78 231.344 467.095 230.545 467.495"
          stroke="#F4B400" strokeWidth="1.86264" strokeLinecap="round"/>
    <path d="M224.004 472.254C225.311 473.43 226.788 474.847 227.573 476.418" stroke="#F4B400" strokeWidth="1.86264"
          strokeLinecap="round"/>
    <path d="M214.781 506.162C216.033 506.162 216.564 503.375 217.012 502.444C217.819 500.769 218.805 499.042 219.904 497.536C221.527 495.312 223.449 493.046 225.423 491.224C227.156 489.624 228.933 488.276 230.612 486.597C232.465 484.744 233.74 482.784 235.156 480.582C238.992 474.614 243.755 469.171 246.74 462.603C248.756 458.169 250.94 453.815 253.168 449.499C254.178 447.542 254.814 445.377 256.06 443.534C256.495 442.889 256.652 441.651 257.316 441.319"
          stroke="#F4B400" strokeWidth="1.86264" strokeLinecap="round"/>
    <path d="M229.061 488.316C229.061 486.288 228.837 484.136 229.127 482.135C229.398 480.272 229.918 478.637 229.953 476.715C229.974 475.592 230.108 474.264 230.267 473.146C230.422 472.068 230.972 471.075 231.143 470.006C231.355 468.686 231.359 467.448 231.457 466.123C231.691 462.967 233.324 459.828 233.523 456.721C233.666 454.472 234.367 451.959 235.374 449.945C236.131 448.43 236.997 446.941 237.323 445.252C237.598 443.832 238.43 442.808 238.596 441.32C238.872 438.836 240.461 436.357 240.959 433.867C241.292 432.2 241.909 430.382 243.041 429.124C243.893 428.177 244.581 427.007 245.718 426.381C248.054 425.096 250.622 423.705 252.857 422.283C253.83 421.664 255.079 421.425 256.145 420.945C257.36 420.398 258.719 419.673 259.995 419.325C261.225 418.99 262.319 418.35 263.565 417.954C264.884 417.534 266.194 416.844 267.497 416.334C270.04 415.339 272.898 414.619 275.033 412.765C276.046 411.885 277.406 411.478 278.437 410.551C281.218 408.047 283.994 405.721 286.633 403.082C289.051 400.663 291.656 397.962 293.458 395.051C294.221 393.817 294.968 392.551 295.54 391.217C295.773 390.672 296.063 389.823 296.581 389.564"
          stroke="#F4B400" strokeWidth="1.86264" strokeLinecap="round"/>
    <path d="M291.001 362.91C291.001 369.36 291.502 375.792 291.502 382.197C291.502 388.63 293.005 394.986 293.005 401.484C293.005 407.066 293.85 413.407 292.894 418.906C292.391 421.796 291.111 427.906 288.497 429.649C286.622 430.899 285.216 434.936 283.765 436.802C281.576 439.617 280.942 443.204 279.98 446.571C278.837 450.571 279.463 454.827 278.589 458.872C278.142 460.938 278.135 462.599 277.448 464.661C276.675 466.979 275.321 469.59 273.969 471.619"
          stroke="#F4B400" strokeWidth="1.86264" strokeLinecap="round"/>
    <path d="M302.024 374.933C305.356 376.044 303.527 392.694 303.527 395.695C303.527 402.584 302.11 408.747 301.495 415.511C301.036 420.561 297.194 426.273 295.289 430.929C294.002 434.074 291.504 436.608 291.504 440.058"
          stroke="#F4B400" strokeWidth="1.86264" strokeLinecap="round"/>
    <path d="M301.525 429.538C301.525 432.985 300.213 435.738 299.02 438.945C297.898 441.961 296.818 445.218 295.792 448.296C294.766 451.372 293.151 454.109 291.005 456.562C289.515 458.264 287.443 460.207 286.496 462.1"
          stroke="#F4B400" strokeWidth="1.86264" strokeLinecap="round"/>
    <path d="M318.059 399.48C320.108 407.903 320.925 418.026 317.447 426.142C315.533 430.608 314.212 435.559 311.547 439.557"
          stroke="#F4B400" strokeWidth="1.86264" strokeLinecap="round"/>
    <path d="M327.573 415.511C327.573 424.967 331.58 433.886 331.58 443.342C331.58 447.989 329.566 451.624 328.574 456.089C328.129 458.092 327.352 460.105 327.099 462.128C326.775 464.721 328.931 465.175 329.576 467.11"
          stroke="#F4B400" strokeWidth="1.86264" strokeLinecap="round"/>
    <path d="M339.095 427.534C338.643 432.506 338.519 436.497 340.71 441.06C342.162 444.085 343.604 446.483 343.604 449.799C343.604 451.728 343.604 453.658 343.604 455.587"
          stroke="#F4B400" strokeWidth="1.86264" strokeLinecap="round"/>
    <path d="M341.1 491.657C341.1 486.408 341.414 481.715 344.217 477.129C345.788 474.557 349.147 472.647 349.588 469.336C350.03 466.024 349.616 462.441 349.616 459.094"
          stroke="#F4B400" strokeWidth="1.86264" strokeLinecap="round"/>
    <path d="M362.639 477.63C360.105 480.481 358.711 484.047 356.906 487.399C355.75 489.546 358.157 496.653 356.127 497.668"
          stroke="#F4B400" strokeWidth="1.86264" strokeLinecap="round"/>
    <path d="M322.061 473.121C318.608 469.284 315.798 460.597 309.537 460.597" stroke="#F4B400" strokeWidth="1.86264"
          strokeLinecap="round"/>
    <path d="M232.391 504.682C236.974 502.807 242.235 502.618 246.807 500.674C250.242 499.215 253.536 497.026 256.687 495.108C259.013 493.692 261.076 492.26 262.894 490.182C263.562 489.418 264.193 488.029 264.953 487.649"
          stroke="#F4B400" strokeWidth="1.86264" strokeLinecap="round"/>
    <path d="M224.377 515.703C228.348 515.703 232.515 512.961 236.567 512.308C239.094 511.9 241.329 511.695 243.914 511.695"
          stroke="#F4B400" strokeWidth="1.86264" strokeLinecap="round"/>
    <path d="M364.311 455.733C364.508 457.607 366.766 458.47 368.171 459.226C369.959 460.189 371.794 460.862 373.727 461.432C375.475 461.948 377.224 462.457 378.956 462.995C380.99 463.626 383.109 463.775 385.165 464.271C390.034 465.447 394.87 466.96 399.433 469.051C403.189 470.773 406.734 472.411 409.942 475.036C412.525 477.149 414.748 479.993 416.743 482.654C417.603 483.801 418.548 484.878 419.358 486.066C420.248 487.372 421.097 488.747 422.034 490.018C425.716 495.015 426.625 501.207 427.171 507.206C427.313 508.769 427.331 510.47 427.365 512.027C427.412 514.207 427.083 516.836 425.537 518.512C423.96 520.22 421.359 520.843 419.092 521.32C417.741 521.605 416.093 521.815 414.701 521.903C413.031 522.007 411.399 522.097 409.717 522.097C405.931 522.097 402.258 521.088 398.503 520.82C396.9 520.705 395.412 519.993 393.846 519.891C393.169 519.846 392.565 519.283 391.875 519.145C390.735 518.917 389.352 518.275 388.301 517.766C386.263 516.78 384.345 515.488 382.612 514.049C381.724 513.312 380.827 512.582 379.936 511.843C379.298 511.313 378.821 510.618 378.2 510.107C376.085 508.365 374.943 505.477 372.501 504.081C372.031 503.813 371.178 503.213 370.847 502.753C370.611 502.425 370.275 502.174 370.009 501.875C369.765 501.601 369.844 501.26 369.642 500.956"
          stroke="#F4B400" strokeWidth="3.72528" strokeLinecap="round"/>
    <path d="M341.146 498.75C339.998 498.75 338.27 500.792 338.205 501.875C338.107 503.49 338.267 505.895 337.367 507.308C336.467 508.723 335.803 510.208 334.794 511.506C333.685 512.931 329.944 510.784 328.972 510.066C326.25 508.053 323.529 506.015 322.988 502.426C322.514 499.286 323.021 495.671 324.693 492.969C325.761 491.244 328.002 489.925 330.034 489.732C331.3 489.611 332.447 488.526 333.691 488.455C334.587 488.404 335.524 488.185 336.366 487.904"
          stroke="#F4B400" strokeWidth="3.72528" strokeLinecap="round"/>
    <path d="M336.185 490.662C332.382 490.662 329.508 494.582 328.28 497.831C328.166 498.134 327.534 501.674 328.209 501.467C329.08 501.199 329.637 499.465 329.935 498.75C330.572 497.223 330.854 495.682 330.854 494.032C330.854 493.81 330.932 493.365 330.834 493.143C330.44 492.258 328.569 494.114 328.362 494.379C327.486 495.501 325.777 499.023 327.3 500.303C330.119 502.671 331.376 497.06 331.508 495.421C331.585 494.456 331.796 492.195 331.12 491.325C330.583 490.636 329.414 493.586 329.383 493.664C328.268 496.546 327.332 499.684 327.075 502.774C326.972 504.018 326.932 505.691 327.821 506.716C328.267 507.231 329.183 506.942 329.669 506.675C331.659 505.587 332.2 502.697 332.284 500.65C332.365 498.687 332.295 496.265 331.303 494.502C330.692 493.415 329.699 494.804 329.271 495.37C327.556 497.639 326.104 500.606 326.197 503.509C326.24 504.847 326.756 506.496 328.086 507.094C330.591 508.221 329.678 498.502 329.302 497.484C328.95 496.531 327.913 494.681 326.769 496.054C324.917 498.277 325.669 503.034 327.821 504.868C329.105 505.962 331.24 502.978 331.794 502.202C333.235 500.184 333.522 498.03 334.337 495.788C334.558 495.179 334.519 495.083 334.316 495.88C333.696 498.322 333.071 500.862 332.774 503.366C332.725 503.782 332.445 505.133 332.733 505.552C333.133 506.134 334.38 502.144 334.408 502.008C334.888 499.707 334.898 497.352 334.898 495.012C334.898 493.943 334.896 493.569 334 494.665C331.9 497.234 330.801 500.616 330.078 503.806C330.003 504.138 329.089 507.805 329.608 508.085C329.99 508.29 331.955 505.321 332.1 505.103C333.848 502.474 334.989 499.318 335.491 496.207C335.684 495.011 335.709 493.941 336.175 492.806C336.186 492.78 336.65 491.693 336.696 491.805C336.808 492.079 336.638 492.854 336.614 493.041C336.438 494.453 336.203 495.857 335.961 497.259C335.41 500.443 334.703 503.587 334.102 506.757C334.032 507.125 333.992 507.487 333.979 507.86C333.964 508.317 334.013 506.946 334.061 506.492C334.303 504.222 334.952 502.272 335.869 500.2C336.253 499.333 337.091 497.385 336.88 499.71C336.581 502.999 334.952 506.164 333.54 509.096C333.251 509.695 332.587 511.561 332.692 510.904C333.337 506.872 335.653 503.013 337.064 499.2C337.249 498.697 337.559 497.343 338.115 497.096C338.456 496.944 339.073 496.423 339.137 496.074C339.252 495.44 339.31 494.895 339.31 494.236C339.31 494.042 339.321 494.658 339.198 494.808C338.96 495.099 338.694 495.269 338.575 495.625"
          stroke="#F4B400" strokeWidth="0.93132" strokeLinecap="round"/>
    <path d="M368.172 487.169C368.684 487.225 369.295 488.078 369.837 488.282C370.823 488.651 371.827 489.327 372.768 489.824C373.844 490.392 375.045 490.924 376.077 491.58C377.275 492.343 378.886 492.435 380.121 493.235C382.498 494.776 385.153 495.791 387.474 497.422C389.871 499.106 392.479 500.478 394.787 502.324C397.121 504.191 399.501 506.167 402.324 507.308C404.75 508.289 407.221 508.493 409.82 508.493C411.237 508.493 412.498 508.524 412.884 507.022C413.121 506.102 413.732 505.26 413.293 504.255C412.91 503.381 412.465 502.462 412.292 501.507C411.864 499.153 411.217 495.924 409.698 493.97C408.978 493.046 408.353 492.061 407.655 491.131C406.891 490.112 405.927 489.547 404.918 488.813C403.148 487.525 400.935 486.8 399.046 485.698C397.858 485.005 396.419 484.46 395.155 483.9C393.379 483.115 391.675 482.206 389.875 481.47C388.449 480.886 387.006 480.392 385.595 479.815C385.001 479.572 384.405 479.329 383.808 479.09C383.145 478.825 382.474 478.948 381.786 478.804C379.035 478.231 376.521 476.735 373.871 475.771C371.594 474.943 369.786 473.005 367.621 472.013C366.533 471.514 365.481 470.618 364.577 469.848C364.175 469.504 363.803 468.807 363.393 468.602"
          stroke="#F4B400" strokeWidth="3.72528" strokeLinecap="round"/>
    <path d="M373.871 462.352C373.871 464.451 373.698 466.628 374.198 468.684C374.372 469.402 374.606 470.072 374.606 470.808"
          stroke="#F4B400" strokeWidth="3.72528" strokeLinecap="round"/>
    <path d="M387.842 466.58C388.647 468.284 388.774 470.274 389.762 471.89C390.087 472.422 390.327 473.02 390.599 473.565"
          stroke="#F4B400" strokeWidth="3.72528" strokeLinecap="round"/>
    <path d="M402.547 472.646C403.34 474.275 403.944 476.543 404.018 478.385C404.05 479.194 404.569 479.927 404.569 480.734"
          stroke="#F4B400" strokeWidth="3.72528" strokeLinecap="round"/>
    <path d="M416.151 484.227C416.045 486.129 415.122 487.572 414.312 489.19" stroke="#F4B400" strokeWidth="3.72528"
          strokeLinecap="round"/>
    <path d="M424.611 499.485C423.444 499.591 422.177 500.525 421.026 500.864C420.528 501.011 419.988 500.956 419.474 500.956C418.658 500.956 418.728 501.039 418.728 501.875"
          stroke="#F4B400" strokeWidth="3.72528" strokeLinecap="round"/>
    <path d="M422.214 519.155C421.487 519.082 421.134 518.107 420.805 517.562C419.979 516.195 419.012 514.934 418.068 513.65C417.352 512.676 416.383 511.856 415.78 510.801C415.609 510.501 415.354 510.515 415.045 510.515"
          stroke="#F4B400" strokeWidth="3.72528" strokeLinecap="round"/>
    <path d="M400.895 520.993C401.372 519.621 401.382 517.718 401.446 516.255C401.472 515.646 401.814 515.178 401.814 514.559C401.814 513.987 402.415 511.735 401.814 511.434"
          stroke="#F4B400" strokeWidth="3.72528" strokeLinecap="round"/>
    <path d="M382.691 512.721C383.609 512.354 384.569 512.15 385.469 511.7C386.946 510.961 387.785 510.116 388.778 508.84C389.216 508.277 389.583 507.659 389.902 507.022C390.55 505.726 388.017 506.287 387.287 506.287"
          stroke="#F4B400" strokeWidth="3.72528" strokeLinecap="round"/>
    <path d="M374.424 502.978C376.865 501.694 377.181 499.539 377.181 497.096" stroke="#F4B400" strokeWidth="3.72528"
          strokeLinecap="round"/>
    <path d="M243.77 273.667C244.891 273.791 244.886 276.525 245.29 277.354C245.806 278.415 246.163 279.439 246.697 280.507C247.743 282.599 248.811 283.135 251.004 283.534C253.447 283.978 256.026 283.072 257.944 281.633C259.964 280.118 261.918 278.668 263.025 276.453"
          stroke="#F4B400" strokeWidth="1.86264" strokeLinecap="round"/>
    <path d="M241.742 275.947C241.742 278.726 241.488 281.483 241.488 284.251C241.488 287.043 241.648 289.883 241.474 292.669C241.346 294.726 241.15 296.521 241.545 298.581C241.752 299.666 241.565 300.964 242.642 301.649C243.83 302.405 245.849 302.043 247.161 302.043C248.33 302.043 248.75 301.654 249.652 301.03C250.674 300.323 251.668 299.48 252.763 298.89C253.082 298.718 254.781 297.658 253.903 298.243"
          stroke="#F4B400" strokeWidth="1.86264" strokeLinecap="round"/>
    <path d="M253.906 302.803C255.607 303.112 257.324 304.795 258.664 305.844C259.129 306.207 260.434 306.857 259.227 306.857"
          stroke="#F4B400" strokeWidth="1.86264" strokeLinecap="round"/>
    <path d="M246.303 307.871C250.247 308.462 252.349 313.21 256.747 311.418C260.939 309.71 265.849 309.112 269.612 306.604"
          stroke="#F4B400" strokeWidth="1.86264" strokeLinecap="round"/>
    <path d="M266.251 280.573C265.753 285.301 266.07 289.906 266.07 294.627C266.07 295.872 266.274 297.726 266.971 298.772"
          stroke="#F4B400" strokeWidth="1.86264" strokeLinecap="round"/>
    <path d="M518.344 469.699C518.344 466.59 518.715 463.523 518.715 460.503C518.715 456.793 518.794 452.923 520.014 449.476C521.362 445.668 521.684 440.994 521.684 436.931C521.684 433.204 522.926 429.454 523.89 426.05C524.474 423.986 525.181 421.915 525.766 419.85C526.314 417.914 527.622 415.286 527.622 413.338C527.622 411.61 529.106 410.258 529.106 408.469C529.106 406.756 530.287 403.665 531.147 402.103C531.949 400.646 531.992 399.046 532.817 397.588C533.728 395.98 534.41 393.729 535.044 391.971C536.282 388.535 539.115 385.395 539.889 381.88C540.227 380.348 542.273 378.857 542.466 377.199C542.564 376.363 544.081 374.279 544.611 373.745C546.933 371.402 547.599 367.472 550.631 365.673C551.776 364.993 552.437 363.618 553.6 362.885C554.679 362.204 556.196 360.556 556.94 359.514C558.441 357.41 560.582 355.548 562.424 353.689C564.03 352.069 566.356 350.544 567.62 348.737C568.292 347.776 569.804 347.273 570.671 346.49C571.323 345.901 571.926 345.114 572.609 344.618C574.297 343.392 576.934 341.222 578.011 339.375C578.704 338.185 580.479 336.778 581.722 336.295C582.492 335.997 583.861 334.632 584.485 334.049C585.256 333.329 586.465 332.338 587.454 331.968C589.637 331.152 591.267 328.993 593.309 327.849C595.396 326.679 597.312 325.329 599.33 324.02C603.879 321.069 608.749 318.872 613.556 316.447C617.418 314.499 621.465 312.313 625.782 311.287C633.018 309.569 640.203 307.045 647.698 306.44C651.05 306.169 654.326 305.587 657.677 305.316C660.706 305.072 664.093 305.227 667.017 304.359C672.586 302.707 679.372 303.423 685.181 303.423C691.422 303.423 697.662 303.423 703.902 303.423C708.3 303.423 713.958 304.158 717.963 306.024C720.187 307.06 723.05 307.084 725.262 308.125C729.18 309.97 733.378 311.244 737.467 312.619C738.496 312.965 740.38 313.977 741.199 314.658C742.755 315.951 745.101 316.598 746.848 317.716C754.131 322.377 762.312 325.791 769.012 331.323C771.751 333.584 774.914 335.416 777.754 337.585C779.314 338.777 781.088 339.96 782.496 341.33C783.727 342.528 785.519 343.31 786.579 344.618C788.85 347.419 792.02 349.609 794.743 351.899C796.114 353.053 797.382 354.925 798.537 356.31C799.876 357.917 801.351 359.564 802.784 361.095C805.527 364.026 807.534 367.653 810.33 370.583C812.144 372.484 813.058 375 814.866 376.824C817.651 379.634 820.159 382.815 822.659 385.812C823.975 387.389 823.641 390.608 824.886 392.179C825.467 392.911 825.908 394.252 825.999 395.175C826.122 396.416 827.439 397.324 827.484 398.462C827.553 400.202 829.13 401.619 829.339 403.413C829.545 405.177 831.376 407.261 831.855 409.031C832.252 410.5 832.812 412.999 833.875 414.191C835.187 415.661 834.809 417.728 835.648 419.517C836.446 421.216 837.15 422.944 837.875 424.677C838.706 426.662 839.179 428.838 840.102 430.752C840.704 432.001 842.329 434.654 842.329 435.995"
          stroke="#0F9D56" strokeWidth="5.34112" strokeLinecap="round"/>
    <path d="M834.537 415.772C834.691 417.171 836.037 418.931 836.578 420.266C837.278 421.993 837.755 424.166 838.805 425.697C839.734 427.051 839.804 428.65 840.269 430.191C840.689 431.584 841.217 432.828 841.217 434.289C841.217 436.125 841.531 438.379 842.145 440.115C842.756 441.841 842.42 443.935 843.279 445.545C844.161 447.198 844.557 449.508 844.557 451.35C844.557 453.938 844.928 456.573 844.928 459.214C844.928 462.753 845.671 466.086 845.671 469.7"
          stroke="#0F9D56" strokeWidth="5.34112" strokeLinecap="round"/>
    <path d="M641.982 288.941C642.168 291.187 642.187 293.435 642.473 295.678C642.595 296.633 642.689 297.527 642.689 298.492C642.689 299.202 642.689 299.912 642.689 300.623C642.689 301.485 642.52 302.653 643.043 301.068"
          stroke="#0F9D56" strokeWidth="5.34112" strokeLinecap="round"/>
    <path d="M655.59 285.553C655.59 287.552 655.673 289.524 655.757 291.517C655.815 292.894 655.602 294.353 655.806 295.718C655.931 296.555 656.183 297.369 656.287 298.205C656.311 298.397 656.297 299.249 656.297 299.107"
          stroke="#0F9D56" strokeWidth="5.34112" strokeLinecap="round"/>
    <path d="M667.604 284.125V297.68" stroke="#0F9D56" strokeWidth="5.34112" strokeLinecap="round"/>
    <path d="M680.863 283.056C680.863 286.16 681.747 289.2 681.747 292.33C681.747 293.638 681.747 294.945 681.747 296.253"
          stroke="#0F9D56" strokeWidth="5.34112" strokeLinecap="round"/>
    <path d="M695.886 282.698C695.886 287.671 695.709 292.772 695.709 297.679" stroke="#0F9D56" strokeWidth="5.34112"
          strokeLinecap="round"/>
    <path d="M708.613 285.73C708.687 287.815 708.967 289.864 708.967 291.973C708.967 293.055 709.143 294.102 709.143 295.183C709.143 296.253 709.143 297.323 709.143 298.393"
          stroke="#0F9D56" strokeWidth="5.34112" strokeLinecap="round"/>
    <path d="M719.393 288.405C720.696 292.791 720.806 297.422 720.806 301.96" stroke="#0F9D56" strokeWidth="5.34112"
          strokeLinecap="round"/>
    <path d="M636.678 283.948C639.045 281.558 642.558 280.557 645.691 279.766C647.713 279.256 649.723 278.83 651.799 278.518C654.258 278.148 656.649 277.439 659.123 277.131C663.454 276.592 667.583 275.565 671.986 275.565C676.712 275.565 681.438 275.565 686.164 275.565C688.723 275.565 691.283 275.565 693.842 275.565C696.278 275.565 698.968 275.233 701.344 275.833C703.589 276.399 705.975 276.633 708.256 277.071C710.856 277.571 713.274 278.844 715.767 279.667C718.346 280.519 720.836 281.596 723.357 282.521C723.765 282.67 724.264 282.827 724.693 282.877C725.114 282.927 725.427 283.413 725.93 283.413"
          stroke="#0F9D56" strokeWidth="5.34112" strokeLinecap="round"/>
    <path d="M668.492 267.718C670.818 268.472 673.496 268.416 675.915 268.431C679.07 268.45 682.225 268.431 685.38 268.431C687.292 268.431 689.203 268.431 691.114 268.431"
          stroke="#0F9D56" strokeWidth="5.34112" strokeLinecap="round"/>
    <path d="M673.082 258.443C676.652 258.443 680.301 258.594 683.824 257.908C684.871 257.705 686.149 257.552 687.221 257.552"
          stroke="#0F9D56" strokeWidth="5.34112" strokeLinecap="round"/>
    <path d="M676.092 249.17C678.684 249.17 681.322 248.991 683.868 248.991" stroke="#0F9D56" strokeWidth="5.34112"
          strokeLinecap="round"/>
    <path d="M644.799 430.783C645.483 436.997 646.229 443.414 646.229 449.7C646.229 453.324 646.229 456.947 646.229 460.57C646.229 462.033 646.203 463.499 646.229 464.962C646.257 466.59 646.801 468.099 646.801 469.74C646.801 481.269 647.658 492.661 647.658 504.208C647.658 514.717 647.087 525.147 647.087 535.661C647.087 543.335 647.372 550.977 647.372 558.619"
          stroke="#0F9D56" strokeWidth="5.34112" strokeLinecap="round"/>
    <path d="M716.005 429.051C716.005 453.684 715.719 478.337 715.719 502.989C715.719 521.45 716.577 539.874 716.577 558.329"
          stroke="#0F9D56" strokeWidth="5.34112" strokeLinecap="round"/>
    <path d="M670.252 559.484C670.252 553.658 670.538 548.003 670.538 542.17C670.538 538.995 670.538 535.821 670.538 532.647C670.538 529.907 669.996 526.502 670.601 523.83C671.085 521.695 670.258 519.193 670.887 517.128C671.558 514.93 672.174 512.988 673.112 510.86C674.582 507.521 680.1 508.119 683.057 508.119C684.864 508.119 687.705 508.971 688.998 510.139C689.767 510.832 690.358 511.177 690.841 512.03C691.209 512.679 691.542 513.994 692.128 514.467C692.664 514.9 692.865 516.147 693.193 516.776C693.687 517.723 693.776 518.662 694.13 519.661C694.883 521.79 695.131 524.574 695.131 526.811C695.131 537.545 695.417 548.184 695.417 558.906"
          stroke="#0F9D56" strokeWidth="5.34112" strokeLinecap="round"/>
    <path d="M654.814 487.919C658.475 487.919 662.027 488.785 665.713 488.785C673.37 488.785 681.028 488.785 688.685 488.785C694.553 488.785 700.42 488.785 706.288 488.785"
          stroke="#0F9D56" strokeWidth="5.34112" strokeLinecap="round"/>
    <path d="M646.233 420.106C645.681 420.175 644.427 420.899 645.232 421.548C645.344 421.639 645.439 421.011 645.359 421.132C645.176 421.408 644.264 421.836 644.231 421.26C644.15 419.866 645.25 419.448 645.645 420.843C645.815 421.445 645.594 420.556 645.677 420.266C645.817 419.77 646.601 420.614 646.805 420.683"
          stroke="#0F9D56" strokeWidth="5.34112" strokeLinecap="round"/>
    <path d="M716.009 421.26C716.087 420.637 716.656 421.399 716.804 421.612C717.049 421.965 716.161 422.331 715.866 421.676C715.56 420.997 716.097 420.288 716.28 421.115C716.487 422.057 715.618 421.517 715.438 420.971"
          stroke="#0F9D56" strokeWidth="5.34112" strokeLinecap="round"/>
    <path d="M627.93 437.708C629.529 437.708 631.373 437.981 632.95 437.692C635.297 437.261 638.057 437.344 640.29 436.49C641.691 435.953 642.93 434.979 644.293 434.47C644.867 434.255 645.316 433.54 645.818 433.396C647.104 433.025 648.743 432.039 650.012 431.937C650.856 431.869 651.347 431.071 652.237 431.071C653.173 431.071 654.11 430.782 655.096 430.782C657.623 430.782 660.623 430.31 663.04 431.007C664.44 431.411 666.383 431.071 667.837 431.071C669.649 431.071 671.46 431.071 673.271 431.071C676.935 431.071 680.6 431.071 684.265 431.071C687.834 431.071 691.602 430.758 695.131 431.295C697.186 431.608 700.233 430.725 702.137 431.792C702.616 432.061 703.593 432.087 704.139 432.209C705.53 432.521 706.937 432.771 708.285 433.315C708.91 433.567 709.398 433.394 710.001 433.732C710.98 434.281 712.095 434.808 713.147 435.111C715.196 435.702 716.963 437.476 719.152 437.708C720.715 437.874 722.166 438.574 723.727 438.574C726.149 438.574 728.573 438.387 730.94 437.932C732.285 437.674 733.671 437.291 735.023 437.147C735.556 437.09 736.073 436.873 736.596 436.842C738.026 436.757 733.731 436.979 732.306 437.131"
          stroke="#0F9D56" strokeWidth="5.34112" strokeLinecap="round"/>
    <path d="M627.357 453.002C630.17 453.286 632.788 453.065 635.587 453.002C636.888 452.973 640.849 453.69 641.656 452.265C641.887 451.856 642.608 451.496 642.974 451.127C643.624 450.471 644.531 449.986 645.246 449.395C647.045 447.91 649.831 446.579 652.077 446.013C658.823 444.311 665.889 444.634 672.81 444.634C680.483 444.634 688.156 444.634 695.83 444.634C697.914 444.634 699.932 444.707 701.994 444.938C703.254 445.08 704.244 445.812 705.425 446.077C706.043 446.215 706.551 446.451 706.982 446.926C707.388 447.373 707.789 447.095 708.285 447.295C711.43 448.564 714.703 449.623 718.008 450.549C719.882 451.075 721.528 451.845 723.441 452.121C725.222 452.377 726.88 453.291 728.716 453.291C730.206 453.291 731.522 453.579 733.021 453.579C733.754 453.579 737.277 453.318 736.024 453.002"
          stroke="#0F9D56" strokeWidth="5.34112" strokeLinecap="round"/>
    <path d="M626.783 467.431C631.454 467.431 636.506 467.788 641.081 466.79C643.343 466.296 644.874 464.74 646.801 463.551C648.808 462.314 650.865 461.398 653.028 460.505C654.412 459.934 655.786 459.982 657.222 459.64C658.851 459.252 660.733 458.774 662.417 458.774C665.526 458.774 668.634 458.774 671.743 458.774C678.394 458.774 685.046 458.774 691.697 458.774C695.924 458.774 700.817 458.167 704.978 459.127C706.788 459.544 708.854 459.526 710.586 460.072C712.327 460.621 713.949 461.288 715.654 461.884C722.533 464.287 729.456 466.277 736.879 466.277"
          stroke="#0F9D56" strokeWidth="5.34112" strokeLinecap="round"/>
    <path d="M678.256 410.294C675.825 410.294 674.824 413.615 674.824 415.713C674.824 417.308 674.726 418.234 675.905 419.304C676.544 419.885 678.682 419.608 679.543 419.801C680.756 420.073 682.757 419.959 683.832 419.384C686.414 418.005 685.417 415.189 685.135 412.908C684.813 410.306 681.589 410.294 679.4 410.294"
          stroke="#0F9D56" strokeWidth="5.34112" strokeLinecap="round"/>
    <path d="M521.092 477.128C538.25 477.128 555.276 478.586 572.412 478.586C584.765 478.586 597.117 478.586 609.47 478.586C613.32 478.586 618.118 479.323 621.752 478.1"
          stroke="#0F9D56" strokeWidth="5.34112" strokeLinecap="round"/>
    <path d="M485.936 490.736C519.31 490.736 552.685 490.736 586.06 490.736C597.512 490.736 608.964 490.736 620.416 490.736C622.709 490.736 625.001 490.736 627.293 490.736C628.122 490.736 630.861 491.192 629.46 490.25"
          stroke="#0F9D56" strokeWidth="5.34112" strokeLinecap="round"/>
    <path d="M463.781 506.289C500.208 506.289 536.779 507.285 573.11 504.939C591.818 503.731 610.704 504.345 629.461 504.345"
          stroke="#0F9D56" strokeWidth="5.34112" strokeLinecap="round"/>
    <path d="M744.383 478.176C763.652 478.176 782.923 478.074 802.192 478.176C815.124 478.245 828.042 478.868 840.972 478.868"
          stroke="#0F9D56" strokeWidth="5.34112" strokeLinecap="round"/>
    <path d="M730.682 489.929C762.78 489.929 794.897 490.274 827.005 490.274C832.58 490.274 838.155 490.274 843.731 490.274C849.99 490.274 856.449 489.805 862.683 490.447C867.755 490.969 872.868 490.966 877.963 490.966"
          stroke="#0F9D56" strokeWidth="5.34112" strokeLinecap="round"/>
    <path d="M730.682 505.482C740.882 505.482 751.085 505.609 761.28 505.213C766.175 505.023 771.019 504.216 775.913 504.119C780.04 504.037 784.173 504.1 788.3 504.1C805.858 504.1 823.394 503.754 840.952 503.754C860.14 503.754 917.702 504.1 898.514 504.1"
          stroke="#0F9D56" strokeWidth="5.34112" strokeLinecap="round"/>
    <path d="M753.975 513.777C753.975 517.506 754.66 521.215 754.66 524.991C754.66 527.27 754.66 529.548 754.66 531.827C754.66 533.991 754.66 536.154 754.66 538.317"
          stroke="#0F9D56" strokeWidth="5.34112" strokeLinecap="round"/>
    <path d="M777.951 514.814C778.182 518.535 779.28 522.142 779.321 525.875C779.345 528.006 779.321 530.138 779.321 532.269C779.321 534.201 778.979 536.097 778.979 537.972"
          stroke="#0F9D56" strokeWidth="5.34112" strokeLinecap="round"/>
    <path d="M801.244 516.888V540.737" stroke="#0F9D56" strokeWidth="5.34112" strokeLinecap="round"/>
    <path d="M826.248 516.197V537.972" stroke="#0F9D56" strokeWidth="5.34112" strokeLinecap="round"/>
    <path d="M850.225 516.888C850.225 519.686 850.468 522.536 850.586 525.337C850.702 528.083 850.588 531.112 850.986 533.824C851.197 535.263 851.595 536.481 851.595 537.953C851.595 538.784 851.608 539.647 851.937 538.317"
          stroke="#0F9D56" strokeWidth="5.34112" strokeLinecap="round"/>
    <path d="M875.227 514.123C875.227 521.64 875.569 529.103 875.569 536.589" stroke="#0F9D56" strokeWidth="5.34112"
          strokeLinecap="round"/>
    <path d="M486.129 515.506C487.642 515.506 487.499 516.301 487.499 517.772C487.499 521.498 487.527 525.119 487.004 528.813C486.512 532.292 486.814 542.869 486.814 539.355"
          stroke="#0F9D56" strokeWidth="5.34112" strokeLinecap="round"/>
    <path d="M510.791 516.888C510.791 521.855 510.791 526.822 510.791 531.789C510.791 534.085 512.161 536.267 512.161 538.317"
          stroke="#0F9D56" strokeWidth="5.34112" strokeLinecap="round"/>
    <path d="M534.766 515.506C534.766 522.907 535.451 530.247 535.451 537.626" stroke="#0F9D56" strokeWidth="5.34112"
          strokeLinecap="round"/>
    <path d="M558.057 516.888C558.057 522.554 558.618 528.246 559.408 533.824C559.59 535.111 559.769 536.224 559.769 537.626"
          stroke="#0F9D56" strokeWidth="5.34112" strokeLinecap="round"/>
    <path d="M583.402 515.506C583.402 518.674 583.072 522.042 583.478 525.184C583.742 527.225 584.087 528.989 584.087 531.079C584.087 533.264 583.744 539.812 583.744 537.626"
          stroke="#0F9D56" strokeWidth="5.34112" strokeLinecap="round"/>
    <path d="M605.668 515.506C605.668 520.572 606.353 525.612 606.353 530.695C606.353 532.544 606.353 534.394 606.353 536.244"
          stroke="#0F9D56" strokeWidth="5.34112" strokeLinecap="round"/>
    <path d="M1071.56 398.722C1071.56 417.185 1063.43 434.172 1063.43 452.326C1063.43 466.832 1063.02 481.407 1063.43 495.907C1063.53 499.486 1064.91 502.567 1064.91 506.299C1064.91 509.626 1064.91 512.954 1064.91 516.281C1064.91 523.688 1064.91 531.095 1064.91 538.503C1064.91 550.991 1069.34 562.443 1069.34 574.691"
          stroke="#DB4437" strokeWidth="5.39997" strokeLinecap="round"/>
    <path d="M1068.62 574.657C1068.55 575.169 1066.37 576.246 1065.95 576.456C1064.67 577.096 1063.08 577.509 1061.65 577.822C1057.4 578.752 1052.87 578.96 1048.53 578.96C1046.7 578.96 1044.6 579.335 1042.81 579.666C1040.99 580.001 1038.95 579.78 1037.1 579.78C1032.29 579.78 1027.48 579.78 1022.67 579.78C1019.2 579.78 1015.73 579.78 1012.25 579.78C1010.74 579.78 1009.22 579.78 1007.71 579.78C1005.17 579.78 1002.67 579.263 1000.16 578.846C996.337 578.208 992.364 577.589 988.813 576C987.533 575.427 986.346 575.096 985.102 574.35C984.576 574.034 983.979 573.476 983.417 573.268C982.993 573.111 982.554 573.097 982.188 572.767C981.844 572.458 980.944 572.35 980.913 571.788C980.839 570.462 980.913 569.109 980.913 567.781C980.913 561.632 980.708 555.514 980.708 549.362C980.708 546.248 980.503 543.147 980.503 540.027C980.503 538.639 980.298 537.273 980.298 535.883C980.298 534.152 980.421 532.37 980.253 530.646C979.922 527.254 979.753 523.848 979.376 520.458C979.207 518.938 979.281 517.414 979.114 515.893C978.937 514.275 978.497 512.669 978.454 511.043C978.409 509.343 977.98 507.678 977.737 506C977.452 504.039 977.288 502.074 977.019 500.114C976.451 495.959 976.815 491.577 976.815 487.387C976.815 480.716 977.32 473.871 976.109 467.294C975.594 464.502 975.359 461.5 975.141 458.665C974.957 456.27 974.644 453.837 974.31 451.459C974.107 450.012 973.816 448.195 973.286 446.837C972.916 445.89 972.912 444.964 972.603 444.037C972.406 443.448 972.102 442.816 972.102 442.181C972.102 441.412 971.692 440.599 971.692 439.825"
          stroke="#DB4437" strokeWidth="5.39997" strokeLinecap="round"/>
    <path d="M972.188 440.915C972.188 437.913 970.331 435.079 969.082 432.431C967.743 429.592 966.607 426.256 966.073 423.21C965.525 420.087 964.984 417.239 964.984 414.054C964.984 411.049 964.068 408.011 963.255 405.122C962.118 401.077 961.595 396.8 960.086 392.86C959.453 391.207 959.168 389.496 958.501 387.866C957.923 386.452 957.269 384.5 956.98 382.999C956.446 380.221 955.093 377.065 954.035 374.419C952.895 371.57 951.08 368.904 950.065 366.063C948.316 361.166 945.801 356.312 943.374 351.593C942.219 349.348 940.617 347.328 939.5 345.093C938.796 343.686 937.626 342.602 936.875 341.236C936.303 340.196 935.301 338.45 934.442 337.698C933.508 336.881 932.655 335.212 931.88 334.16C931.1 333.101 930.283 332.168 929.479 331.135C927.585 328.699 924.945 326.922 922.756 324.796C917.721 319.905 911.662 316.057 906.268 311.542C903.773 309.453 901.177 307.603 898.489 305.779C895.803 303.956 892.688 302.657 890.069 300.816C886.245 298.129 881.741 296.818 877.679 294.894C876.334 294.257 874.336 294.019 872.844 293.965C870.108 293.868 867.556 292.959 864.841 292.813C862.109 292.665 859.242 291.323 856.581 290.732C854.786 290.333 853.04 289.551 851.314 288.939C849.653 288.349 848.03 287.387 846.272 287.338C844.908 287.3 842.862 285.992 841.662 285.337C840.21 284.545 838.551 284.034 837.051 283.304C834.724 282.172 831.792 281.019 829.848 279.27C826.288 276.066 823.343 272.179 820.628 268.257C819.601 266.774 818.675 265.088 817.522 263.647C817.248 263.305 817.296 262.323 817.026 261.838C816.751 261.343 816.306 260.803 816.306 260.253C816.306 257.756 816.306 255.259 816.306 252.762"
          stroke="#DB4437" strokeWidth="5.39997" strokeLinecap="round"/>
    <path d="M816.021 252.186C816.021 250.355 816.244 248.538 816.309 246.775C816.396 244.427 815.971 241.626 816.613 239.38C816.808 238.699 817.231 238.154 817.526 237.491C817.927 236.588 818.171 235.711 818.614 234.769C819.144 233.643 819.773 229.483 821.047 229.119C821.182 229.08 822.176 227.429 822.424 227.182C823.074 226.531 823.941 226.213 824.601 225.613C826.229 224.133 828.577 223.387 830.284 222.059C834.104 219.088 838.347 216.209 843.41 215.576C846.091 215.241 848.74 215.016 851.462 215.016C853.936 215.016 856.812 214.763 859.177 214.088C862.389 213.17 865.979 212.135 869.342 212.135C873.083 212.135 876.823 212.135 880.563 212.135C882.484 212.135 884.405 212.135 886.326 212.135C887.804 212.135 890.321 212.317 891.673 211.686C895.735 209.791 901.004 210.273 905.343 209.605C907.787 209.229 910.493 209.541 912.963 209.541C915.988 209.541 919.014 209.541 922.039 209.541C924.926 209.541 927.813 209.541 930.699 209.541"
          stroke="#DB4437" strokeWidth="5.39997" strokeLinecap="round"/>
    <path d="M933.286 209.83C937.924 209.83 942.846 209.819 947.468 210.182C953.789 210.678 960.116 210.3 966.421 210.758C971.423 211.122 976.453 210.982 981.468 210.982C983.901 210.982 986.335 210.955 988.768 210.982C990.766 211.005 992.725 211.534 994.723 211.558C1004.36 211.677 1013.75 213.42 1023.12 215.528C1025.81 216.132 1028.78 216.707 1031.54 216.745C1032.98 216.765 1034.5 216.605 1035.93 216.809C1037.79 217.076 1039.51 217.489 1041.4 217.673C1043.95 217.922 1046.5 218.028 1049.05 218.25C1054.97 218.765 1061.05 219.474 1066.92 220.491C1069.74 220.98 1072.57 221.103 1075.4 221.483C1078.76 221.935 1082.49 222.039 1085.77 222.86C1089.6 223.817 1093.76 223.917 1097.52 225.101C1100.64 226.082 1103.64 226.934 1106.68 228.206C1110.42 229.77 1114.63 231.047 1118.56 232.08C1121.1 232.75 1123.59 234.077 1125.98 235.058C1129.84 236.635 1133.37 238.848 1137 240.66"
          stroke="#DB4437" strokeWidth="5.39997" strokeLinecap="round"/>
    <path d="M1137 241.524C1139.25 241.847 1141.36 243.66 1143.35 244.71C1145.15 245.654 1147.16 246.788 1148.54 248.312C1150.21 250.145 1152.79 251.283 1154.43 253.05C1156.23 254.992 1158.76 256.369 1160.05 258.813C1161.34 261.249 1162.83 263.763 1163.57 266.432C1163.96 267.817 1164.66 269.186 1164.66 270.642C1164.66 272.222 1164.66 273.801 1164.66 275.38C1164.66 278.563 1162.9 283.119 1160.9 285.625C1159.02 287.972 1157.67 289.788 1155.14 291.372C1153.93 292.123 1152.35 292.307 1151.13 292.989C1149.8 293.737 1148.53 294.529 1146.96 294.83C1144.65 295.269 1142.31 296.147 1140.1 296.911C1137.57 297.787 1134.84 298.123 1132.32 299.152C1130.92 299.726 1129.48 299.881 1128.07 300.432C1126.57 301.014 1124.74 301.722 1123.18 302.033C1119.7 302.729 1116.61 304.666 1113.37 305.939C1103.25 309.915 1097.02 320.3 1092.11 329.342C1090.85 331.682 1089.35 334.517 1088.72 337.122C1088.01 340.079 1086.67 342.86 1086 345.83C1085.18 349.484 1083.73 353.417 1081.68 356.491"
          stroke="#DB4437" strokeWidth="5.39997" strokeLinecap="round"/>
    <path d="M1081.39 357.355C1081.39 361.343 1078.61 364.335 1077.91 368.145C1077.72 369.186 1077.09 370.156 1076.84 371.186C1076.58 372.257 1076.53 373.386 1076.26 374.484C1075.72 376.712 1075.29 378.802 1074.62 380.967C1073.98 382.993 1074.04 385.258 1073.46 387.322C1073.01 388.965 1073.36 390.908 1072.45 392.444C1071.99 393.222 1072.11 394.342 1071.88 395.229C1071.71 395.855 1071.3 396.625 1071.3 397.262C1071.3 398.431 1071.01 399.627 1071.01 400.864"
          stroke="#DB4437" strokeWidth="5.39997" strokeLinecap="round"/>
    <path d="M1135.55 287.533C1134.37 286.203 1133.08 286.353 1131.66 285.425C1129.66 284.113 1127.44 283.147 1125.17 282.262C1116.3 278.791 1106.74 276.087 1097.39 274.459C1092.04 273.529 1086.16 273.443 1080.96 271.929C1077.6 270.95 1073.81 270.664 1070.32 270.664C1065.53 270.664 1061.01 270.268 1056.27 269.609C1052.9 269.142 1049.3 269.174 1045.91 269C1042.43 268.822 1038.88 268.182 1035.41 268.133C1026.93 268.016 1018.57 266.868 1010.09 266.868C1003.2 266.868 996.341 265.603 989.443 265.603C981.786 265.603 974.108 264.423 966.435 264.338C950.067 264.156 933.715 263.916 917.326 263.916C909.235 263.916 901.144 263.916 893.053 263.916C889.928 263.916 887.373 265.125 884.384 265.603C881.124 266.124 877.635 267.106 874.496 268.133C869.487 269.773 864.26 270.377 859.29 272.117C854.567 273.77 849.938 275.154 844.974 276.146"
          stroke="#DB4437" strokeWidth="5.39997" strokeLinecap="round"/>
    <path d="M928.856 135.845C929.898 135.975 931.781 137.305 932.639 137.895C934.009 138.836 935.537 139.558 937.011 140.442C937.844 140.942 939.01 141.368 939.92 141.753C940.73 142.096 941.477 142.889 942.301 143.321C944.421 144.431 946.194 146.264 948.391 147.24C949.345 147.664 949.837 148.535 950.622 149.139C951.263 149.633 952.122 150.416 952.611 151.038C954.014 152.824 955.793 154.175 956.937 156.208C959.402 160.59 961.118 165.315 963.976 169.473C966.305 172.861 967.801 176.682 968.528 180.883C969.321 185.464 968.739 190.615 968.739 195.263C968.739 197.589 968.671 199.469 966.901 201.172C966.244 201.803 964.88 202.336 964.459 203.131C963.901 204.184 962.408 206.297 961.143 206.929"
          stroke="#DB4437" strokeWidth="5.39997" strokeLinecap="round"/>
    <path d="M932.105 137.473C930.643 137.473 929.362 136.834 927.93 136.523C926.393 136.189 924.814 136.056 923.273 135.784C920.214 135.245 917.007 134.217 913.867 134.217C910.993 134.217 908.119 134.217 905.245 134.217C902.308 134.217 898.993 133.673 896.277 134.895C895.537 135.228 894.698 135.127 894.001 135.453C893.315 135.773 892.721 136.185 892.011 136.448C890.639 136.956 889.406 137.98 888.137 138.694C886.695 139.505 885.114 139.892 883.902 141.06C883.379 141.563 882.68 141.64 882.183 142.085C881.776 142.449 881.456 142.897 880.978 143.17C879.932 143.768 878.751 145.025 877.842 145.883C877.125 146.561 876.097 147.848 875.25 148.31C874.174 148.897 873.579 149.963 872.748 150.827C871.782 151.831 870.481 152.96 869.703 154.083C869.051 155.025 868.267 156.137 867.789 157.173C867.451 157.904 866.844 158.469 866.733 159.298C866.653 159.902 866.508 160.489 866.176 161.017C865.464 162.148 865.135 163.957 864.699 165.267C864.319 166.405 863.864 167.463 863.523 168.614C863.179 169.774 863.413 171.092 863.056 172.307C862.52 174.128 862.364 176.026 862.046 177.899C861.551 180.812 861.292 183.511 861.292 186.46C861.292 188.338 860.779 191.3 861.699 192.957C862.243 193.935 862.411 195.059 862.92 196.077C863.217 196.671 863.414 197.113 863.463 197.765C863.525 198.607 864.38 199.157 864.533 199.996C864.951 202.298 866.177 204.274 866.99 206.507C867.318 207.41 867.857 208.466 868.286 209.371C868.697 210.24 869.009 211.39 869.703 212.084"
          stroke="#DB4437" strokeWidth="5.39997" strokeLinecap="round"/>
    <path d="M912.3 133.946C912.451 132.432 913.194 130.76 913.656 129.333C914.756 125.936 915.772 122.499 916.761 119.068C917.32 117.131 918.01 115.23 918.962 113.461C919.377 112.691 919.896 111.782 919.896 110.884"
          stroke="#DB4437" strokeWidth="5.39997" strokeLinecap="round"/>
    <path d="M911.49 128.79C911.395 128.026 910.571 127.532 910.194 126.891C909.978 126.524 909.082 125.925 908.717 125.655C907.887 125.041 907.09 124.406 906.245 123.786C904.824 122.744 903.187 122.539 901.512 122.218C898.677 121.676 896.234 121.465 893.327 121.465C890.939 121.465 888.477 122.049 886.258 122.957C884.579 123.644 882.765 123.913 881.103 124.721C878.942 125.77 877.337 127.502 875.405 128.79"
          stroke="#DB4437" strokeWidth="5.39997" strokeLinecap="round"/>
    <path d="M890.055 134.488C886.779 134.488 883.503 134.488 880.227 134.488C878.325 134.488 877.693 134.036 876.203 133.011C875.334 132.414 874.593 131.369 873.776 130.961"
          stroke="#DB4437" strokeWidth="5.39997" strokeLinecap="round"/>
    <path d="M918.812 121.736C923.572 121.304 927.736 118.85 932.514 118.496C934.592 118.342 936.725 118.45 938.739 118.963C941.558 119.681 943.967 121.756 946.155 123.636C948.047 125.261 949.685 127.017 950.963 129.062C951.439 129.822 952 130.714 952.395 131.504C952.644 132.002 953.087 132.314 953.27 132.86"
          stroke="#DB4437" strokeWidth="5.39997" strokeLinecap="round"/>
    <path d="M951.92 133.403C951.84 132.768 947.853 133.132 947.172 133.132C946.385 133.132 945.592 133.103 944.805 133.132C944.004 133.161 943.362 133.944 942.575 134.157C939.038 135.112 933.371 139.125 929.672 136.659"
          stroke="#DB4437" strokeWidth="5.39997" strokeLinecap="round"/>
    <path d="M876.375 171.574C876.375 174.101 874.798 176.062 874.798 178.643C874.798 180.484 874.798 182.324 874.798 184.164C874.798 187.719 876.375 198.264 876.375 194.71"
          stroke="#DB4437" strokeWidth="5.39997" strokeLinecap="round"/>
    <path d="M881.633 163.688C881.562 164.255 880.833 164.761 880.581 165.265" stroke="#DB4437" strokeWidth="5.39997"
          strokeLinecap="round"/>
    <path d="M968.055 348.445C969.484 353.735 971.813 358.713 973.805 363.807C978.322 375.356 982.467 387.049 986.415 398.804C993.548 420.039 996.15 441.237 996.15 463.622C996.15 468.627 994.672 473.485 994.672 478.573C994.672 481.531 994.672 484.488 994.672 487.445"
          stroke="#DB4437" strokeWidth="5.39997" strokeLinecap="round"/>
    <defs>
        <filter id="filter0_i_165_6" x="0" y="0.725586" width="1312.33" height="1086.61" filterUnits="userSpaceOnUse"
                color-interpolation-filters="sRGB">
            <feFlood flood-opacity="0" result="BackgroundImageFix"/>
            <feBlend mode="normal" in="SourceGraphic" in2="BackgroundImageFix" result="shape"/>
            <feColorMatrix in="SourceAlpha" type="matrix" values="0 0 0 0 0 0 0 0 0 0 0 0 0 0 0 0 0 0 127 0"
                           result="hardAlpha"/>
            <feOffset dy="3.9743"/>
            <feGaussianBlur stdDeviation="1.98715"/>
            <feComposite in2="hardAlpha" operator="arithmetic" k2="-1" k3="1"/>
            <feColorMatrix type="matrix" values="0 0 0 0 0 0 0 0 0 0 0 0 0 0 0 0 0 0 0.25 0"/>
            <feBlend mode="normal" in2="shape" result="effect1_innerShadow_165_6"/>
        </filter>
    </defs>
</svg>
