<svg width="385" height="72" viewBox="0 0 385 72" fill="none" xmlns="http://www.w3.org/2000/svg">
    <g filter="url(#filter0_d_149_224)">
        <path d="M35.9552 46.3116L29.0513 50.0594L26.8815 45.2596C24.5802 48.0869 21.1611 50.1252 16.8215 50.1252C8.40535 50.0594 4 43.1555 4 32.3723C4 20.7343 9.19437 14.4221 17.4133 14.4221C21.2926 14.4221 24.3172 15.8686 26.2897 18.5645V1.40332H33.3909V41.1172L35.9552 46.3116ZM26.2897 41.6432V23.3643C24.4487 21.852 22.1474 20.9315 19.7146 20.9315C14.4545 20.9315 11.3642 24.9423 11.3642 32.438C11.3642 39.6707 14.2572 43.6158 19.5831 43.6158C21.9502 43.6815 24.383 42.8925 26.2897 41.6432Z"
              fill="#202124"/>
        <path d="M71.0673 33.03H47.9228C48.383 39.0134 53.0514 42.9585 60.3498 42.9585C64.0976 42.9585 68.1742 42.1695 70.87 40.723L68.6345 48.0214C66.3332 49.2706 62.4538 50.0597 58.0485 50.0597C47.5282 50.0597 40.5586 42.8928 40.5586 32.0438C40.5586 21.129 47.1995 14.4224 57.7197 14.4224C66.4647 14.4224 71.9221 19.4195 71.9221 27.4412C71.9221 29.2822 71.5933 31.452 71.0673 33.03ZM48.3173 28.0987H65.0181C64.6894 22.9701 62.2566 20.5373 57.7197 20.5373C52.7884 20.603 49.3693 23.4303 48.3173 28.0987Z"
              fill="#202124"/>
        <path d="M88.2929 49.2051L74.9453 15.2773H82.7697L91.4489 39.0136L92.4352 41.9724H92.6982L93.6845 39.0136L102.364 15.2773H110.057L96.709 49.2051H88.2929Z"
              fill="#202124"/>
        <path d="M133.202 15.3429H148.522L147.536 20.8003H132.216L126.824 51.309C125.312 59.8567 119.592 63.0127 111.636 63.0127C107.954 63.0127 106.244 62.4867 104.403 62.0922L104.271 56.5691C106.113 56.8978 108.282 57.0951 111.307 57.0951C116.107 57.0951 119.263 55.1883 119.986 51.1775L125.378 20.7345H114.726L115.712 15.2772H126.298L126.824 12.1211C128.337 3.77065 133.991 0.548828 141.881 0.548828C145.629 0.548828 147.536 1.07484 149.18 1.46935L149.311 7.12398C147.47 6.66372 145.3 6.46646 142.276 6.46646C137.542 6.46646 134.386 8.37325 133.662 12.3841L133.202 15.3429Z"
              fill="#202124"/>
        <path d="M180.149 33.03H156.938C157.399 39.0134 162.067 42.9585 169.365 42.9585C173.113 42.9585 177.19 42.1695 179.886 40.723L177.65 48.0214C175.349 49.2706 171.469 50.0597 167.064 50.0597C156.544 50.0597 149.574 42.8928 149.574 32.0438C149.574 21.129 156.215 14.4224 166.735 14.4224C175.48 14.4224 180.938 19.4195 180.938 27.4412C181.003 29.2822 180.675 31.452 180.149 33.03ZM157.333 28.0987H174.034C173.705 22.9701 171.272 20.5373 166.735 20.5373C161.87 20.603 158.451 23.4303 157.333 28.0987Z"
              fill="#202124"/>
        <path d="M187.775 47.1666L187.314 39.5394C190.339 41.6435 195.862 43.4845 201.583 43.4845C205.988 43.4845 209.144 42.1037 209.144 39.0134C209.144 32.5698 188.038 38.5531 188.038 25.4686C188.038 19.3537 192.64 14.2251 203.555 14.2251C210.262 14.2251 215.325 15.8689 215.325 19.9455C215.325 21.1948 214.799 22.2468 214.273 23.233C211.379 21.8523 206.843 20.866 203.095 20.866C197.835 20.866 195.073 22.8385 195.073 25.0083C195.073 30.7287 216.442 25.7316 216.442 38.4874C216.442 45.6543 210.13 50.0597 200.794 50.0597C194.416 50.0597 189.682 48.0214 187.775 47.1666Z"
              fill="#202124"/>
        <path d="M252.935 42.0382L251.488 48.679C249.779 49.4023 246.36 50.1256 243.204 50.1256C234.722 50.1256 231.171 45.7202 231.171 39.5396V21.2607H221.571V15.2773H231.171V6.00635H238.272V15.2773H251.948V21.2607H238.272V37.304C238.272 41.7094 240.573 43.6819 244.584 43.6819C246.82 43.6819 251.028 43.1559 252.935 42.0382Z"
              fill="#202124"/>
        <path d="M290.079 45.5555V48.8431H266.935V45.3582C277.192 36.7448 284.03 31.7477 284.03 24.9095C284.03 20.0439 280.742 17.8084 276.271 17.8084C272.786 17.8084 269.762 19.3207 268.184 20.5699C267.658 20.2412 267 19.5179 267 18.5316C267 15.9673 271.406 14.0605 276.469 14.0605C283.504 14.0605 287.975 17.7426 287.975 24.515C287.975 32.9312 281.005 38.1913 271.669 45.4898H290.079V45.5555Z"
              fill="#4285F4"/>
        <path d="M295.8 31.8136C295.8 20.1756 300.6 14.1265 308.424 14.1265C316.183 14.1265 321.048 20.1756 321.048 31.8136C321.048 43.4516 316.249 49.5008 308.49 49.5008C300.6 49.5008 295.8 43.4516 295.8 31.8136ZM317.038 31.8136C317.038 22.4769 314.013 17.8743 308.49 17.8743C302.901 17.8743 299.876 22.5427 299.876 31.8136C299.876 41.1503 302.901 45.8187 308.49 45.8187C314.013 45.8187 317.038 41.1503 317.038 31.8136ZM305.728 34.3779V29.052H311.12V34.3779H305.728Z"
              fill="#4285F4"/>
        <path d="M350.176 45.5555V48.8431H327.031V45.3582C337.288 36.7448 344.127 31.7477 344.127 24.9095C344.127 20.0439 340.839 17.8084 336.368 17.8084C332.883 17.8084 329.859 19.3207 328.281 20.5699C327.755 20.2412 327.097 19.5179 327.097 18.5316C327.097 15.9673 331.502 14.0605 336.565 14.0605C343.601 14.0605 348.072 17.7426 348.072 24.515C348.072 32.9312 341.102 38.1913 331.765 45.4898H350.176V45.5555Z"
              fill="#4285F4"/>
        <path d="M380.158 45.5555V48.8431H357.014V45.3582C367.271 36.7448 374.109 31.7477 374.109 24.9095C374.109 20.0439 370.821 17.8084 366.35 17.8084C362.866 17.8084 359.841 19.3207 358.263 20.5699C357.737 20.2412 357.079 19.5179 357.079 18.5316C357.079 15.9673 361.485 14.0605 366.548 14.0605C373.583 14.0605 378.054 17.7426 378.054 24.515C378.054 32.9312 371.084 38.1913 361.748 45.4898H380.158V45.5555Z"
              fill="#4285F4"/>
    </g>
    <defs>
        <filter id="filter0_d_149_224" x="0" y="0.548828" width="384.159" height="70.4639" filterUnits="userSpaceOnUse"
                color-interpolation-filters="sRGB">
            <feFlood flood-opacity="0" result="BackgroundImageFix"/>
            <feColorMatrix in="SourceAlpha" type="matrix" values="0 0 0 0 0 0 0 0 0 0 0 0 0 0 0 0 0 0 127 0"
                           result="hardAlpha"/>
            <feOffset dy="4"/>
            <feGaussianBlur stdDeviation="2"/>
            <feComposite in2="hardAlpha" operator="out"/>
            <feColorMatrix type="matrix" values="0 0 0 0 0 0 0 0 0 0 0 0 0 0 0 0 0 0 0.25 0"/>
            <feBlend mode="normal" in2="BackgroundImageFix" result="effect1_dropShadow_149_224"/>
            <feBlend mode="normal" in="SourceGraphic" in2="effect1_dropShadow_149_224" result="shape"/>
        </filter>
    </defs>
</svg>
