<svg width="377" height="64" viewBox="0 0 377 64" fill="none" xmlns="http://www.w3.org/2000/svg">
    <path d="M31.9552 46.3116L25.0513 50.0594L22.8815 45.2596C20.5802 48.0869 17.1611 50.1252 12.8215 50.1252C4.40535 50.0594 0 43.1555 0 32.3723C0 20.7343 5.19437 14.4221 13.4133 14.4221C17.2926 14.4221 20.3172 15.8686 22.2897 18.5645V1.40332H29.3909V41.1172L31.9552 46.3116ZM22.2897 41.6432V23.3643C20.4487 21.852 18.1474 20.9315 15.7146 20.9315C10.4545 20.9315 7.36416 24.9423 7.36416 32.438C7.36416 39.6707 10.2572 43.6158 15.5831 43.6158C17.9502 43.6815 20.383 42.8925 22.2897 41.6432Z"
          fill="white"/>
    <path d="M67.0673 33.03H43.9228C44.383 39.0134 49.0514 42.9585 56.3498 42.9585C60.0976 42.9585 64.1742 42.1695 66.87 40.723L64.6345 48.0214C62.3332 49.2706 58.4538 50.0597 54.0485 50.0597C43.5282 50.0597 36.5586 42.8928 36.5586 32.0438C36.5586 21.129 43.1995 14.4224 53.7197 14.4224C62.4647 14.4224 67.9221 19.4195 67.9221 27.4412C67.9221 29.2822 67.5933 31.452 67.0673 33.03ZM44.3173 28.0987H61.0181C60.6894 22.9701 58.2566 20.5372 53.7197 20.5372C48.7884 20.603 45.3693 23.4303 44.3173 28.0987Z"
          fill="white"/>
    <path d="M84.2929 49.2051L70.9453 15.2773H78.7697L87.4489 39.0136L88.4352 41.9724H88.6982L89.6845 39.0136L98.3637 15.2773H106.057L92.709 49.2051H84.2929Z"
          fill="white"/>
    <path d="M129.202 15.3429H144.522L143.536 20.8003H128.216L122.824 51.309C121.312 59.8567 115.592 63.0127 107.636 63.0127C103.954 63.0127 102.244 62.4867 100.403 62.0922L100.271 56.5691C102.113 56.8978 104.282 57.0951 107.307 57.0951C112.107 57.0951 115.263 55.1883 115.986 51.1775L121.378 20.7345H110.726L111.712 15.2772H122.298L122.824 12.1211C124.337 3.77065 129.991 0.548828 137.881 0.548828C141.629 0.548828 143.536 1.07484 145.18 1.46935L145.311 7.12398C143.47 6.66372 141.3 6.46646 138.276 6.46646C133.542 6.46646 130.386 8.37325 129.662 12.3841L129.202 15.3429Z"
          fill="white"/>
    <path d="M176.149 33.03H152.938C153.399 39.0134 158.067 42.9585 165.365 42.9585C169.113 42.9585 173.19 42.1695 175.886 40.723L173.65 48.0214C171.349 49.2706 167.469 50.0597 163.064 50.0597C152.544 50.0597 145.574 42.8928 145.574 32.0438C145.574 21.129 152.215 14.4224 162.735 14.4224C171.48 14.4224 176.938 19.4195 176.938 27.4412C177.003 29.2822 176.675 31.452 176.149 33.03ZM153.333 28.0987H170.034C169.705 22.9701 167.272 20.5372 162.735 20.5372C157.87 20.603 154.451 23.4303 153.333 28.0987Z"
          fill="white"/>
    <path d="M183.775 47.1666L183.314 39.5394C186.339 41.6435 191.862 43.4845 197.583 43.4845C201.988 43.4845 205.144 42.1037 205.144 39.0134C205.144 32.5698 184.038 38.5531 184.038 25.4686C184.038 19.3537 188.64 14.2251 199.555 14.2251C206.262 14.2251 211.325 15.8689 211.325 19.9455C211.325 21.1948 210.799 22.2468 210.273 23.233C207.379 21.8523 202.843 20.866 199.095 20.866C193.835 20.866 191.073 22.8385 191.073 25.0083C191.073 30.7287 212.442 25.7316 212.442 38.4874C212.442 45.6543 206.13 50.0597 196.794 50.0597C190.416 50.0597 185.682 48.0214 183.775 47.1666Z"
          fill="white"/>
    <path d="M248.936 42.0382L247.489 48.679C245.78 49.4023 242.361 50.1256 239.204 50.1256C230.723 50.1256 227.172 45.7202 227.172 39.5396V21.2607H217.572V15.2773H227.172V6.00635H234.273V15.2773H247.949V21.2607H234.273V37.304C234.273 41.7094 236.574 43.6819 240.585 43.6819C242.821 43.6819 247.029 43.1559 248.936 42.0382Z"
          fill="white"/>
    <path d="M286.018 45.9173V49.2049H262.873V45.7201C273.13 37.1066 279.968 32.1095 279.968 25.2714C279.968 20.4057 276.681 18.1702 272.21 18.1702C268.725 18.1702 265.7 19.6825 264.122 20.9318C263.596 20.603 262.939 19.8797 262.939 18.8935C262.939 16.3292 267.344 14.4224 272.407 14.4224C279.442 14.4224 283.914 18.1044 283.914 24.8768C283.914 33.293 276.944 38.5532 267.607 45.8516H286.018V45.9173Z"
          fill="#4285F4"/>
    <path d="M291.738 32.1754C291.738 20.5374 296.538 14.4883 304.363 14.4883C312.121 14.4883 316.987 20.5374 316.987 32.1754C316.987 43.8134 312.187 49.8626 304.428 49.8626C296.538 49.8626 291.738 43.8134 291.738 32.1754ZM312.976 32.1754C312.976 22.8387 309.951 18.2361 304.428 18.2361C298.839 18.2361 295.815 22.9045 295.815 32.1754C295.815 41.5121 298.839 46.1805 304.428 46.1805C309.951 46.1805 312.976 41.5121 312.976 32.1754ZM301.667 34.7397V29.4139H307.058V34.7397H301.667Z"
          fill="#4285F4"/>
    <path d="M346.113 45.9173V49.2049H322.969V45.7201C333.226 37.1066 340.064 32.1095 340.064 25.2714C340.064 20.4057 336.777 18.1702 332.305 18.1702C328.821 18.1702 325.796 19.6825 324.218 20.9318C323.692 20.603 323.034 19.8797 323.034 18.8935C323.034 16.3292 327.44 14.4224 332.503 14.4224C339.538 14.4224 344.009 18.1044 344.009 24.8768C344.009 33.293 337.04 38.5532 327.703 45.8516H346.113V45.9173Z"
          fill="#4285F4"/>
    <path d="M376.098 45.9173V49.2049H352.953V45.7201C363.21 37.1066 370.049 32.1095 370.049 25.2714C370.049 20.4057 366.761 18.1702 362.29 18.1702C358.805 18.1702 355.78 19.6825 354.202 20.9318C353.676 20.603 353.019 19.8797 353.019 18.8935C353.019 16.3292 357.424 14.4224 362.487 14.4224C369.522 14.4224 373.994 18.1044 373.994 24.8768C373.994 33.293 367.024 38.5532 357.687 45.8516H376.098V45.9173Z"
          fill="#4285F4"/>
</svg>
