<svg width="28" height="20" viewBox="0 0 28 20" fill="none" xmlns="http://www.w3.org/2000/svg">
<path d="M0.666016 2.00033C0.666016 1.6467 0.806491 1.30757 1.05654 1.05752C1.30659 0.807468 1.64573 0.666992 1.99935 0.666992H25.9993C26.353 0.666992 26.6921 0.807468 26.9422 1.05752C27.1922 1.30757 27.3327 1.6467 27.3327 2.00033C27.3327 2.35395 27.1922 2.69309 26.9422 2.94313C26.6921 3.19318 26.353 3.33366 25.9993 3.33366H1.99935C1.64573 3.33366 1.30659 3.19318 1.05654 2.94313C0.806491 2.69309 0.666016 2.35395 0.666016 2.00033ZM0.666016 10.043C0.666016 9.68937 0.806491 9.35023 1.05654 9.10018C1.30659 8.85013 1.64573 8.70966 1.99935 8.70966H25.9993C26.353 8.70966 26.6921 8.85013 26.9422 9.10018C27.1922 9.35023 27.3327 9.68937 27.3327 10.043C27.3327 10.3966 27.1922 10.7358 26.9422 10.9858C26.6921 11.2359 26.353 11.3763 25.9993 11.3763H1.99935C1.64573 11.3763 1.30659 11.2359 1.05654 10.9858C0.806491 10.7358 0.666016 10.3966 0.666016 10.043ZM1.99935 16.7523C1.64573 16.7523 1.30659 16.8928 1.05654 17.1429C0.806491 17.3929 0.666016 17.732 0.666016 18.0857C0.666016 18.4393 0.806491 18.7784 1.05654 19.0285C1.30659 19.2785 1.64573 19.419 1.99935 19.419H25.9993C26.353 19.419 26.6921 19.2785 26.9422 19.0285C27.1922 18.7784 27.3327 18.4393 27.3327 18.0857C27.3327 17.732 27.1922 17.3929 26.9422 17.1429C26.6921 16.8928 26.353 16.7523 25.9993 16.7523H1.99935Z" fill="#202124"/>
</svg>
