<svg width="27" height="28" viewBox="0 0 27 28" fill="none" xmlns="http://www.w3.org/2000/svg">
    <path fill-rule="evenodd" clip-rule="evenodd"
          d="M7.85976 0.805825C9.28582 0.740175 9.74051 0.725586 13.3731 0.725586C17.0058 0.725586 17.4605 0.741391 18.8853 0.805825C20.3101 0.870259 21.2827 1.0976 22.1338 1.42707C23.0249 1.76383 23.8334 2.29024 24.502 2.97106C25.1828 3.6385 25.708 4.44575 26.0436 5.3381C26.3743 6.18912 26.6004 7.16171 26.666 8.58413C26.7317 10.0126 26.7463 10.4673 26.7463 14.0987C26.7463 17.7313 26.7305 18.186 26.666 19.6121C26.6016 21.0345 26.3743 22.0071 26.0436 22.8581C25.708 23.7506 25.182 24.5592 24.502 25.2276C23.8334 25.9084 23.0249 26.4336 22.1338 26.7692C21.2827 27.0998 20.3101 27.326 18.8877 27.3916C17.4604 27.4573 17.0058 27.4719 13.3731 27.4719C9.74051 27.4719 9.28582 27.4561 7.85976 27.3916C6.43734 27.3272 5.46475 27.0998 4.61373 26.7692C3.72128 26.4336 2.91269 25.9075 2.24426 25.2276C1.5639 24.5598 1.03741 23.7516 0.701482 22.8593C0.372016 22.0083 0.145889 21.0357 0.0802388 19.6133C0.0145889 18.1848 0 17.7301 0 14.0987C0 10.4661 0.0158046 10.0114 0.0802388 8.58656C0.144673 7.16171 0.372016 6.18912 0.701482 5.3381C1.0379 4.44585 1.5648 3.63766 2.24547 2.96984C2.91296 2.28964 3.72074 1.76315 4.61252 1.42707C5.46353 1.0976 6.43613 0.871475 7.85854 0.805825H7.85976ZM18.7771 3.21299C17.3668 3.14855 16.9438 3.13518 13.3731 3.13518C9.80251 3.13518 9.37943 3.14855 7.96917 3.21299C6.66468 3.27256 5.95712 3.49018 5.48542 3.67375C4.86174 3.9169 4.41557 4.20503 3.94751 4.67309C3.50382 5.10474 3.16236 5.63022 2.94817 6.211C2.76459 6.68271 2.54697 7.39027 2.4874 8.69476C2.42297 10.105 2.4096 10.5281 2.4096 14.0987C2.4096 17.6693 2.42297 18.0924 2.4874 19.5027C2.54697 20.8072 2.76459 21.5147 2.94817 21.9864C3.16214 22.5663 3.50376 23.0928 3.94751 23.5243C4.37909 23.9681 4.90551 24.3097 5.48542 24.5237C5.95712 24.7073 6.66468 24.9249 7.96917 24.9845C9.37943 25.0489 9.80129 25.0623 13.3731 25.0623C16.945 25.0623 17.3668 25.0489 18.7771 24.9845C20.0816 24.9249 20.7891 24.7073 21.2609 24.5237C21.8845 24.2805 22.3307 23.9924 22.7988 23.5243C23.2425 23.0928 23.5841 22.5663 23.7981 21.9864C23.9817 21.5147 24.1993 20.8072 24.2589 19.5027C24.3233 18.0924 24.3367 17.6693 24.3367 14.0987C24.3367 10.5281 24.3233 10.105 24.2589 8.69476C24.1993 7.39027 23.9817 6.68271 23.7981 6.211C23.555 5.58733 23.2668 5.14115 22.7988 4.67309C22.3671 4.22943 21.8416 3.88798 21.2609 3.67375C20.7891 3.49018 20.0816 3.27256 18.7771 3.21299ZM11.665 18.2213C12.619 18.6184 13.6812 18.672 14.6702 18.3729C15.6593 18.0739 16.5139 17.4407 17.088 16.5816C17.6621 15.7224 17.9201 14.6906 17.8179 13.6624C17.7158 12.6342 17.2599 11.6733 16.528 10.9439C16.0614 10.4776 15.4973 10.1206 14.8762 9.89852C14.2551 9.67645 13.5925 9.59484 12.9361 9.65959C12.2797 9.72433 11.6458 9.93381 11.08 10.2729C10.5143 10.6121 10.0308 11.0724 9.66428 11.6209C9.29781 12.1693 9.05749 12.7922 8.96063 13.4446C8.86377 14.0971 8.91277 14.7629 9.10411 15.3941C9.29546 16.0254 9.62438 16.6063 10.0672 17.0952C10.51 17.584 11.0557 17.9686 11.665 18.2213ZM8.51261 9.23819C9.1509 8.5999 9.90867 8.09358 10.7426 7.74814C11.5766 7.40269 12.4705 7.2249 13.3731 7.2249C14.2758 7.2249 15.1697 7.40269 16.0036 7.74814C16.8376 8.09358 17.5954 8.5999 18.2337 9.23819C18.872 9.87649 19.3783 10.6343 19.7237 11.4682C20.0692 12.3022 20.247 13.196 20.247 14.0987C20.247 15.0014 20.0692 15.8952 19.7237 16.7292C19.3783 17.5632 18.872 18.321 18.2337 18.9592C16.9446 20.2483 15.1962 20.9725 13.3731 20.9725C11.5501 20.9725 9.8017 20.2483 8.51261 18.9592C7.22352 17.6702 6.49931 15.9218 6.49931 14.0987C6.49931 12.2757 7.22352 10.5273 8.51261 9.23819ZM21.7715 8.24858C21.9296 8.09937 22.0563 7.91994 22.1438 7.72092C22.2314 7.52189 22.2782 7.30732 22.2814 7.0899C22.2845 6.87248 22.244 6.65663 22.1623 6.45514C22.0806 6.25364 21.9592 6.0706 21.8055 5.91684C21.6517 5.76308 21.4687 5.64174 21.2672 5.56C21.0657 5.47825 20.8498 5.43776 20.6324 5.44093C20.415 5.4441 20.2004 5.49086 20.0014 5.57845C19.8024 5.66603 19.6229 5.79266 19.4737 5.95083C19.1835 6.25845 19.0247 6.66705 19.0308 7.0899C19.037 7.51274 19.2077 7.91654 19.5067 8.21557C19.8058 8.51459 20.2096 8.68531 20.6324 8.69147C21.0552 8.69764 21.4638 8.53877 21.7715 8.24858Z"
          fill="black"/>
</svg>
