<svg width="14" height="15" viewBox="0 0 14 15" fill="none" xmlns="http://www.w3.org/2000/svg">
<path fill-rule="evenodd" clip-rule="evenodd" d="M5.19559 5.58468H7.67586V6.82014C8.03314 6.10958 8.94939 5.47115 10.3258 5.47115C12.9643 5.47115 13.5907 6.88559 13.5907 9.48073V14.287H10.9194V10.0717C10.9194 8.59386 10.5622 7.76043 9.6526 7.76043C8.39109 7.76043 7.86686 8.65864 7.86686 10.0711V14.287H5.19559V5.58468ZM0.615031 14.1735H3.2863V5.47115H0.615031V14.1735ZM3.66896 2.6336C3.66906 2.8575 3.62465 3.07919 3.53832 3.28578C3.452 3.49237 3.32547 3.67974 3.16609 3.837C2.84314 4.15797 2.40599 4.33764 1.95066 4.33653C1.49614 4.33623 1.06 4.15702 0.736573 3.83767C0.577774 3.67987 0.451673 3.49229 0.365497 3.28568C0.27932 3.07906 0.234762 2.85747 0.234375 2.6336C0.234375 2.18149 0.414686 1.74874 0.737241 1.42952C1.06039 1.10974 1.49671 0.930464 1.95133 0.930664C2.40678 0.930664 2.84354 1.11031 3.16609 1.42952C3.48798 1.74874 3.66896 2.18149 3.66896 2.6336Z" fill="black"/>
</svg>
