<svg width="428" height="377" viewBox="0 0 428 377" fill="none" xmlns="http://www.w3.org/2000/svg">
    <path d="M310.387 20.0947C310.387 21.1715 310.357 22.2524 310.392 23.3285C310.451 25.1329 310.767 26.924 310.784 28.7364C310.812 31.7857 310.784 34.8364 310.784 37.8858C310.784 40.0453 310.784 42.2048 310.784 44.3643C310.784 46.9314 310.682 49.5214 310.928 52.079C311.061 53.4755 311.069 54.9477 311.082 56.3501C311.093 57.5206 311.181 58.6786 311.181 59.8488C311.181 60.8762 311.328 62.0326 311.529 63.0384C311.767 64.2263 311.623 65.5182 311.7 66.7246C311.842 68.9429 311.829 71.1659 311.982 73.3797C312.035 74.149 312.361 74.8817 312.373 75.6422C312.385 76.3699 312.473 77.0763 312.473 77.8054C312.473 78.6181 312.477 79.3918 312.649 80.1893C312.71 80.4695 312.771 80.9177 312.771 81.1826"
          stroke="#F4B400" strokeWidth="1.10315" strokeLinecap="round"/>
    <path d="M312.782 80.2856C312.782 83.4379 313.353 86.5812 313.86 89.6781C313.962 90.3046 314.019 90.9114 313.896 91.5439C313.825 91.9123 313.897 92.2967 313.86 92.6687C313.818 93.0879 313.823 93.5034 313.823 93.9249C313.823 95.3388 313.823 96.7526 313.823 98.1665"
          stroke="#F4B400" strokeWidth="1.10315" strokeLinecap="round"/>
    <path d="M313.729 98.4033C313.685 99.5487 313.515 100.671 313.635 101.82C313.772 103.126 313.777 104.42 313.777 105.733C313.777 108.21 313.873 110.711 313.753 113.186C313.623 115.874 313.834 118.574 313.693 121.262C313.617 122.702 313.682 124.159 313.682 125.603"
          stroke="#F4B400" strokeWidth="1.10315" strokeLinecap="round"/>
    <path d="M313.54 125.65C313.54 127.518 313.54 129.387 313.54 131.255C313.54 132.085 313.445 132.9 313.445 133.728C313.445 134.754 313.404 135.777 313.398 136.803C313.386 138.715 313.35 140.629 313.35 142.543C313.35 143.971 313.256 145.395 313.256 146.824C313.256 148.492 313.35 150.167 313.35 151.835C313.35 153.231 313.303 154.629 313.303 156.019"
          stroke="#F4B400" strokeWidth="1.10315" strokeLinecap="round"/>
    <path d="M310.357 19.8061C310.899 19.8946 311.305 19.8442 311.836 19.8017C312.566 19.7432 313.205 19.2343 313.938 19.1732C314.986 19.0859 316.072 18.698 317.05 18.3721"
          stroke="#F4B400" strokeWidth="1.10315" strokeLinecap="round"/>
    <path d="M316.811 18.8506C316.823 19.1652 317.047 19.614 317.213 19.8907C317.573 20.4903 317.528 21.4593 317.528 22.1348C317.528 22.9506 317.528 23.7665 317.528 24.5824C317.528 25.4352 317.368 26.2617 317.368 27.1186C317.368 30.8852 317.368 34.6518 317.368 38.4185C317.368 40.8823 317.368 43.3462 317.368 45.8101C317.368 48.007 317.607 50.1579 317.607 52.3519C317.607 53.4338 317.626 54.4991 317.705 55.5785C317.757 56.2944 317.926 56.9959 317.926 57.6986C317.926 58.3729 317.926 59.0471 317.926 59.7214C317.926 59.9009 317.844 60.3576 318.006 60.4384"
          stroke="#F4B400" strokeWidth="1.10315" strokeLinecap="round"/>
    <path d="M317.696 60.6533C317.696 61.0812 317.879 61.4859 317.988 61.8973C318.171 62.5851 318.186 63.3438 318.324 64.05C318.607 65.5051 318.573 67.0153 318.573 68.4907C318.573 71.2005 318.573 73.9103 318.573 76.6201C318.573 79.6962 318.751 82.7865 318.573 85.8258C318.535 86.4635 318.183 87.1324 318.183 87.7676C318.183 88.5825 318.086 89.4171 318.086 90.2448C318.086 91.6673 318.086 93.0898 318.086 94.5123C318.086 97.6657 318.086 100.819 318.086 103.972C318.086 104.95 318.088 106.058 318.259 107.017C318.318 107.353 318.076 108.695 318.378 108.846"
          stroke="#F4B400" strokeWidth="1.10315" strokeLinecap="round"/>
    <path d="M318.379 108.748C318.379 112.678 318.652 116.724 318.206 120.626C318.091 121.634 318.087 122.728 318.087 123.741C318.087 125.079 317.892 126.399 317.892 127.738C317.892 130.041 317.892 132.343 317.892 134.645C317.892 138.913 317.892 143.18 317.892 147.448C317.892 149.158 317.795 150.85 317.795 152.559C317.795 153.241 317.892 153.9 317.892 154.582C317.892 154.809 317.768 155.661 317.99 155.772"
          stroke="#F4B400" strokeWidth="1.10315" strokeLinecap="round"/>
    <path d="M317.439 17.9287C317.462 18.1304 317.855 18.1421 317.996 18.2301C318.166 18.3364 318.42 18.3211 318.609 18.3924C318.826 18.4746 319.067 18.4902 319.294 18.5315C319.997 18.6593 320.669 18.8714 321.288 19.1806"
          stroke="#F4B400" strokeWidth="1.10315" strokeLinecap="round"/>
    <path d="M321.474 19.5977C321.474 22.7048 321.491 25.8099 321.52 28.917C321.527 29.6786 321.745 30.4228 321.752 31.1889C321.758 31.8627 321.752 32.537 321.752 33.2109C321.752 33.5362 321.606 36.1035 321.891 36.1035"
          stroke="#F4B400" strokeWidth="1.10315" strokeLinecap="round"/>
    <path d="M321.785 36.4111C321.785 37.9031 321.912 39.3942 322.315 40.8355C322.622 41.9303 322.522 43.0832 322.64 44.1998C322.837 46.0692 322.661 48.0396 322.661 49.9223C322.661 51.5059 322.856 53.0788 322.856 54.6604C322.856 56.7657 322.953 58.8784 322.953 60.9887C322.953 64.5513 322.953 68.1138 322.953 71.6764C322.953 74.5737 322.953 77.471 322.953 80.3683C322.953 81.2218 323.16 82.3918 322.932 83.2188C322.801 83.6935 322.564 84.1245 322.564 84.6251C322.564 86.1355 322.467 87.6244 322.467 89.1306C322.467 90.2666 322.272 91.3759 322.272 92.5111C322.272 92.9582 322.272 94.2996 322.272 93.8525"
          stroke="#F4B400" strokeWidth="1.10315" strokeLinecap="round"/>
    <path d="M321.981 93.2681C322.169 95.3288 322.536 97.4213 322.566 99.499C322.597 101.724 322.663 103.951 322.663 106.184C322.663 108.752 322.663 111.319 322.663 113.886C322.663 116.129 322.858 118.378 322.858 120.62C322.858 125.253 323.056 129.933 322.62 134.543C322.456 136.272 322.622 138.019 322.49 139.751C322.408 140.83 322.436 141.927 322.376 143.007C322.316 144.085 322.274 145.147 322.274 146.231"
          stroke="#F4B400" strokeWidth="1.10315" strokeLinecap="round"/>
    <path d="M322.566 145.647C322.243 146.01 322.371 146.767 322.371 147.205C322.371 148.056 322.371 148.907 322.371 149.758C322.371 150.665 322.34 151.577 322.371 152.484C322.385 152.905 322.566 153.3 322.566 153.728C322.566 154.05 322.548 154.379 322.566 154.701C322.587 155.079 322.663 155.537 322.663 155.967"
          stroke="#F4B400" strokeWidth="1.10315" strokeLinecap="round"/>
    <path d="M333.034 27.5444C333.034 29.3846 332.926 31.2517 333.112 33.0848C333.217 34.1205 333.099 35.0836 333.332 36.1089C333.917 38.6734 334.326 41.301 334.326 43.9339C334.326 49.5791 334.326 55.2244 334.326 60.8696C334.326 61.9999 334.285 63.1395 334.331 64.2689C334.405 66.0896 335.021 67.7838 335.021 69.6051C335.021 72.0108 335.18 74.4365 335.22 76.8341C335.254 78.9505 335.617 81.0482 335.617 83.1692C335.617 83.7057 335.605 84.4692 335.722 84.9958C335.777 85.2462 335.915 85.7928 335.915 85.0565"
          stroke="#F4B400" strokeWidth="1.10315" strokeLinecap="round"/>
    <path d="M332.935 27.445C333.558 27.445 334.142 27.2254 334.761 27.1526C335.481 27.0678 336.205 26.6894 336.908 26.6504C337.463 26.6195 338.012 26.3664 338.547 26.2475C338.861 26.1778 339.072 25.9551 339.391 25.9551"
          stroke="#F4B400" strokeWidth="1.10315" strokeLinecap="round"/>
    <path d="M339.688 26.0547C339.688 27.4244 339.886 28.7671 339.886 30.1272C339.886 31.8747 339.886 33.6222 339.886 35.3696C339.886 36.8225 339.67 38.4524 339.908 39.8836C340.018 40.5405 340.052 41.2533 340.079 41.9199C340.124 43.02 340.272 44.1256 340.283 45.2254C340.305 47.2279 340.521 49.2111 340.659 51.2072C340.799 53.2427 340.616 55.3245 340.979 57.3436C341.304 59.1532 340.972 61.0552 341.155 62.884C341.239 63.7248 341.177 64.5946 341.177 65.439C341.177 66.2531 341.277 67.0527 341.277 67.8671C341.277 70.819 341.145 73.809 341.282 76.7571C341.319 77.5551 341.464 78.3531 341.475 79.152C341.485 79.8321 341.401 80.5504 341.525 81.2214C341.633 81.8051 341.674 82.3554 341.674 82.9487C341.674 83.5956 341.817 84.171 341.867 84.8028C341.989 86.3204 342.27 87.6939 342.27 89.223C342.27 90.185 342.27 91.147 342.27 92.1091"
          stroke="#F4B400" strokeWidth="1.10315" strokeLinecap="round"/>
    <path d="M336.143 91.0718C336.143 91.9174 336.143 92.7631 336.143 93.6087C336.143 94.1042 336.302 94.5589 336.315 95.0426C336.327 95.4988 336.384 95.8225 336.536 96.256C336.626 96.5135 336.621 96.7818 336.708 97.0329C336.785 97.2516 336.973 97.4972 337.001 97.7234C337.045 98.0745 337.083 98.4946 337.092 98.8408C337.106 99.3477 337.265 99.8148 337.265 100.308C337.265 102.114 337.757 103.875 337.975 105.66C338.089 106.602 338.33 107.567 338.382 108.509C338.431 109.382 338.732 110.228 338.732 111.099C338.732 112.116 338.991 113.12 338.991 114.125C338.991 115.818 338.991 117.511 338.991 119.203C338.991 121.628 339.423 124.006 339.423 126.421C339.423 127.701 339.756 128.944 339.768 130.214C339.774 130.864 339.941 131.54 339.941 132.162"
          stroke="#F4B400" strokeWidth="1.10315" strokeLinecap="round"/>
    <path d="M340.114 131.989C340.114 134.192 340.114 136.395 340.114 138.598C340.114 139.43 340.43 140.178 340.632 140.967C340.778 141.533 340.926 142.113 340.997 142.693C341.069 143.284 341.311 143.842 341.323 144.439C341.362 146.403 341.323 148.373 341.323 150.338C341.323 151.051 341.372 151.79 341.476 152.496C341.509 152.717 341.47 153.557 341.668 153.656"
          stroke="#F4B400" strokeWidth="1.10315" strokeLinecap="round"/>
    <path d="M342.179 92.2432C342.051 92.2592 342.015 93.1129 342.003 93.2282C341.886 94.3169 341.897 95.4121 341.897 96.5051C341.897 97.2846 341.887 98.0647 341.897 98.8441C341.91 99.921 342.183 100.962 342.376 102.015C342.83 104.497 342.785 107.032 342.921 109.546C342.983 110.682 343.092 111.801 343.098 112.941C343.104 114.112 343.126 115.302 343.184 116.473C343.281 118.428 343.522 120.383 343.522 122.34C343.522 124.332 343.9 126.287 344.157 128.254C344.368 129.861 344.652 131.389 344.652 133.002"
          stroke="#F4B400" strokeWidth="1.10315" strokeLinecap="round"/>
    <path d="M344.865 132.861C344.865 133.615 344.865 134.368 344.865 135.122C344.865 136.213 344.76 137.363 344.908 138.446C345.079 139.702 345.421 140.933 345.611 142.186C345.823 143.592 346.061 144.999 346.246 146.408C346.517 148.467 346.49 150.561 346.49 152.637C346.49 152.904 346.56 153.152 346.56 153.418C346.56 153.898 346.624 152.446 346.631 152.358"
          stroke="#F4B400" strokeWidth="1.10315" strokeLinecap="round"/>
    <path d="M345.984 91.2446C345.485 92.3347 345.634 93.6587 345.547 94.827C345.463 95.9606 345.466 97.0908 345.466 98.232C345.466 98.7867 345.466 99.3414 345.466 99.8961C345.466 100.817 345.738 101.761 345.859 102.678C345.913 103.087 346.036 103.48 346.108 103.886C346.177 104.269 346.127 104.653 346.176 105.037C346.245 105.583 346.449 106.105 346.497 106.653C346.596 107.788 346.847 108.935 346.847 110.082C346.847 110.835 346.982 111.562 347.106 112.303C347.197 112.852 347.168 113.399 347.259 113.948C347.506 115.428 347.451 117.023 347.451 118.523C347.451 120.283 347.521 122.037 347.538 123.798C347.543 124.357 347.657 124.907 347.797 125.448C347.87 125.731 347.855 126.007 347.902 126.292C347.96 126.639 348.157 126.941 348.223 127.284C348.352 127.949 348.626 128.565 348.727 129.246C348.811 129.816 348.832 130.47 348.832 131.044C348.832 133.807 348.832 136.569 348.832 139.331C348.832 140.193 348.832 141.055 348.832 141.916C348.832 142.728 349.005 143.589 349.005 144.42C349.005 145.09 348.876 145.927 349.024 146.578C349.088 146.857 349.018 147.223 349.135 147.479C349.166 147.547 349.148 147.676 349.183 147.729C349.211 147.771 349.252 147.654 349.283 147.614C349.455 147.386 349.617 147.155 349.782 146.923"
          stroke="#F4B400" strokeWidth="1.10315" strokeLinecap="round"/>
    <path d="M349.091 143.556C349.091 144.652 349.018 145.812 349.264 146.884C349.428 147.596 349.656 148.303 349.801 149.014C349.985 149.911 349.955 152.673 349.955 151.757"
          stroke="#F4B400" strokeWidth="1.10315" strokeLinecap="round"/>
    <path d="M351.68 111.271C351.68 113.511 351.594 115.757 351.594 118.005C351.594 120.865 351.594 123.724 351.594 126.584C351.594 127.994 351.492 129.447 351.68 130.848C351.82 131.888 351.706 132.933 351.81 133.974C351.991 135.79 351.764 137.632 351.92 139.451C352.106 141.612 351.939 143.852 351.939 146.021C351.939 147.772 351.761 149.64 352.045 151.373C352.168 152.125 352.285 152.893 352.285 153.656"
          stroke="#F4B400" strokeWidth="1.10315" strokeLinecap="round"/>
    <path d="M346.156 91.5898C346.156 93.2817 346.203 94.915 346.741 96.5294C347.016 97.3537 346.954 98.3294 347.149 99.1863C347.244 99.6039 347.211 100.038 347.298 100.462C347.378 100.857 347.488 101.289 347.533 101.69C347.603 102.323 347.624 103 347.624 103.637C347.624 104.156 347.712 104.768 347.619 105.277C347.533 105.748 347.537 106.195 347.537 106.677C347.537 106.914 347.537 107.15 347.537 107.387C347.537 107.544 347.443 108.262 347.624 107.991"
          stroke="#F4B400" strokeWidth="1.10315" strokeLinecap="round"/>
    <path d="M344.258 44.1987C343.974 44.325 344.085 45.1015 344.085 45.3401C344.085 46.0019 344.085 46.6637 344.085 47.3255C344.085 48.5341 344.085 49.7426 344.085 50.9511C344.085 54.2253 344.098 57.6609 344.603 60.8974C344.812 62.2359 344.896 63.6005 345.121 64.9354C345.379 66.471 345.318 68.0291 345.447 69.5777C345.693 72.5301 346.243 75.3986 346.243 78.3778C346.243 79.3258 346.243 80.2737 346.243 81.2217C346.243 81.902 346.345 82.6806 346.195 83.3462C345.923 84.552 345.936 85.8284 345.807 87.0533C345.707 88.0011 345.725 88.9535 345.725 89.9115C345.725 90.1689 345.725 90.4263 345.725 90.6836C345.725 90.9769 345.618 91.25 345.984 91.1584"
          stroke="#F4B400" strokeWidth="1.10315" strokeLinecap="round"/>
    <path d="M343.395 26.5889C343.395 29.1078 343.68 31.6785 343.908 34.1853C344.014 35.356 344.258 36.5217 344.258 37.7053C344.258 38.3688 344.258 39.0322 344.258 39.6956C344.258 41.2536 344.234 42.8135 344.258 44.3714C344.261 44.6034 344.325 43.912 344.344 43.6808"
          stroke="#F4B400" strokeWidth="1.10315" strokeLinecap="round"/>
    <path d="M339.854 25.8979C340.955 25.8979 342.012 26.3296 343.135 26.3296" stroke="#F4B400" strokeWidth="1.10315"
          strokeLinecap="round"/>
    <path d="M344.225 30.7455C344.496 30.7021 344.757 30.6738 345.025 30.6151C345.285 30.5582 345.489 30.4434 345.742 30.3721C346.549 30.1448 347.329 29.8204 348.17 29.7319C348.604 29.6861 348.965 29.3986 349.373 29.308C349.568 29.2648 349.786 29.145 349.987 29.145"
          stroke="#F4B400" strokeWidth="1.10315" strokeLinecap="round"/>
    <path d="M350.306 28.9849C350.467 29.005 350.685 29.3821 350.872 29.465C351.141 29.5845 351.48 29.6462 351.719 29.8118C352.083 30.0633 352.61 30.0231 352.973 30.2653"
          stroke="#F4B400" strokeWidth="1.10315" strokeLinecap="round"/>
    <path d="M349.667 29.3052C349.833 29.379 349.789 29.8735 349.827 30.0284C349.915 30.3907 349.981 30.7532 350.067 31.1161C350.16 31.5094 350.201 31.9132 350.201 32.3165C350.201 33.1401 350.225 34.0206 350.387 34.83C350.436 35.0747 350.4 35.3237 350.417 35.5709C350.441 35.9175 350.577 36.2555 350.615 36.6024C350.677 37.1604 350.681 37.756 350.681 38.3185C350.681 39.5271 350.559 40.8026 350.693 42.0027C350.827 43.209 350.734 44.4696 350.734 45.6839C350.734 48.0027 350.734 50.3215 350.734 52.6403C350.734 54.2872 350.734 55.9342 350.734 57.5812C350.734 58.5226 350.719 59.4932 350.947 60.4088"
          stroke="#F4B400" strokeWidth="1.10315" strokeLinecap="round"/>
    <path d="M351.001 60.1953C351.001 64.1653 351.342 68.1144 351.374 72.0866C351.389 73.8665 351.469 75.6479 351.481 77.4277C351.491 78.8148 351.446 80.2039 351.523 81.589C351.593 82.8575 351.591 84.0267 351.938 85.2584C352.041 85.6275 352.175 86.0036 352.175 86.3906"
          stroke="#F4B400" strokeWidth="1.10315" strokeLinecap="round"/>
    <path d="M351.961 86.5508C351.961 94.9653 351.907 103.372 351.907 111.786" stroke="#F4B400" strokeWidth="1.10315"
          strokeLinecap="round"/>
    <path d="M323.111 83.6128C323.608 83.6128 324.083 83.934 324.58 83.9892C325.386 84.0788 326.217 84.169 327.017 84.307C327.596 84.4067 328.194 84.3874 328.776 84.4581C329.117 84.4997 329.445 84.6206 329.788 84.6556C330.325 84.7104 330.849 84.776 331.383 84.8561C332.656 85.0471 333.943 85.1704 335.218 85.3652C336.123 85.5034 337.04 85.6517 337.951 85.7354C338.736 85.8075 339.548 85.9452 340.327 85.9452"
          stroke="#F4B400" strokeWidth="1.10315" strokeLinecap="round"/>
    <path d="M323.167 86.3896C324.162 86.3896 325.147 86.5477 326.141 86.5994C327.295 86.6595 328.444 86.7021 329.597 86.7907C330.045 86.8252 330.49 86.8689 330.939 86.8925C331.325 86.9129 331.697 87.0607 332.083 87.0992C332.967 87.1876 333.789 87.4265 334.659 87.5867C335.741 87.7859 336.799 88.063 337.88 88.25C338.284 88.32 338.686 88.3804 339.093 88.4321C339.35 88.4647 339.581 88.429 339.827 88.5246C339.975 88.582 340.368 88.5258 340.438 88.6665"
          stroke="#F4B400" strokeWidth="1.10315" strokeLinecap="round"/>
    <path d="M340.549 86.1675C340.549 86.7208 340.549 87.274 340.549 87.8273C340.549 88.1563 340.459 88.6522 340.605 88.9442"
          stroke="#F4B400" strokeWidth="1.10315" strokeLinecap="round"/>
    <path d="M323.39 88C323.656 88.1403 323.868 88.1966 324.173 88.2252C324.704 88.275 325.219 88.4093 325.753 88.4443C326.523 88.4948 327.359 88.6025 328.11 88.7775C328.364 88.8365 328.629 88.8598 328.887 88.8885C329.207 88.924 329.492 89.0637 329.807 89.1076C330.512 89.206 331.208 89.476 331.899 89.6537C333.102 89.9633 334.338 90.1013 335.552 90.388C336.066 90.5095 336.632 90.6656 337.162 90.6656"
          stroke="#F4B400" strokeWidth="1.10315" strokeLinecap="round"/>
    <path d="M337.272 90.721C337.574 90.7032 337.938 90.2927 338.204 90.141C338.605 89.9129 339.021 89.7947 339.454 89.6412C339.643 89.5742 339.906 89.3882 340.105 89.3882"
          stroke="#F4B400" strokeWidth="1.10315" strokeLinecap="round"/>
    <path d="M353.455 30.478C353.455 32.8717 353.634 35.2576 353.876 37.6344C353.964 38.4959 353.991 39.3413 353.991 40.2069C353.991 41.3774 354.178 42.5211 354.433 43.6597C354.686 44.7891 354.749 46.0363 354.756 47.1889C354.766 48.7956 354.8 50.3971 354.829 52.0024C354.864 53.9662 355.062 55.9077 355.062 57.8746C355.062 59.4521 355.062 61.0297 355.062 62.6072C355.062 65.0508 355.062 67.4943 355.062 69.9379C355.062 71.4173 355.049 72.8851 355.173 74.3601C355.259 75.386 355.369 76.4091 355.369 77.4387C355.369 79.2104 355.369 80.9821 355.369 82.7539"
          stroke="#F4B400" strokeWidth="1.10315" strokeLinecap="round"/>
    <path d="M355.522 83.5957C355.522 85.6584 355.499 87.696 355.33 89.7528C355.102 92.5372 354.909 95.2973 354.909 98.0955C354.909 101.132 354.909 104.168 354.909 107.204C354.909 109.293 354.68 111.356 354.68 113.446C354.68 115.828 354.68 118.211 354.68 120.594C354.68 121.647 354.714 122.689 354.752 123.74C354.782 124.566 354.7 125.404 354.773 126.228C354.838 126.96 354.9 127.696 354.909 128.43C354.919 129.189 355.172 129.913 355.211 130.663C355.265 131.679 355.215 132.71 355.215 133.728"
          stroke="#F4B400" strokeWidth="1.10315" strokeLinecap="round"/>
    <path d="M355.215 133.729C355.389 133.815 355.291 134.439 355.291 134.587C355.291 135.513 355.291 136.439 355.291 137.364C355.291 139.163 355.368 140.958 355.368 142.756C355.368 144.349 355.444 145.931 355.444 147.522C355.444 148.604 355.286 149.847 355.483 150.911C355.597 151.529 355.751 152.238 355.751 152.863"
          stroke="#F4B400" strokeWidth="1.10315" strokeLinecap="round"/>
    <path d="M363.082 36.9873C364.606 36.7121 366.111 36.3664 367.611 36.0329C368.163 35.9102 368.763 35.9722 369.329 35.9722"
          stroke="#F4B400" strokeWidth="1.10315" strokeLinecap="round"/>
    <path d="M362.457 37.7681C362.457 38.0553 362.603 38.271 362.613 38.549C362.636 39.1445 362.854 39.727 362.93 40.319C363.212 42.5262 363.537 44.7482 363.55 46.9825C363.564 49.1804 363.55 51.3788 363.55 53.5767C363.55 54.7779 363.519 55.9799 363.628 57.1774C363.724 58.2294 363.641 59.2872 363.745 60.3357C363.886 61.7372 363.739 63.1573 363.88 64.5525C363.95 65.2444 364.056 65.9302 364.114 66.6262C364.182 67.4338 364.145 68.2434 364.292 69.0426C364.629 70.8792 364.87 72.7132 365.329 74.5305C365.489 75.1637 365.424 75.8497 365.424 76.5"
          stroke="#F4B400" strokeWidth="1.10315" strokeLinecap="round"/>
    <path d="M365.347 76.3438C364.979 76.8034 365.19 77.9043 365.19 78.4478C365.19 79.3813 365.347 80.2854 365.347 81.22C365.347 81.9618 365.347 82.7036 365.347 83.4455C365.347 84.0909 365.259 84.8121 365.386 85.4454C365.549 86.2637 365.412 87.1121 365.581 87.9269C365.659 88.3008 365.815 88.6241 365.815 89.0115C365.815 89.6758 366.128 90.2871 366.128 90.9463"
          stroke="#F4B400" strokeWidth="1.10315" strokeLinecap="round"/>
    <path d="M355.957 90.1367C355.976 90.1834 356.046 90.2348 356.092 90.2505C356.726 90.4694 357.511 90.4479 358.17 90.5035C358.781 90.5549 359.384 90.5541 359.996 90.5541C360.35 90.5541 360.705 90.5541 361.06 90.5541C361.357 90.5541 361.623 90.6264 361.914 90.6595C363.15 90.7999 364.363 91.0731 365.577 91.3319C366.14 91.4519 366.701 91.6472 367.264 91.7513C367.797 91.85 368.33 91.9474 368.861 92.0506C369.344 92.1445 369.971 92.1543 370.413 92.3753"
          stroke="#F4B400" strokeWidth="1.10315" strokeLinecap="round"/>
    <path d="M355.806 92.5269C355.806 92.6546 355.875 92.6556 356.004 92.6702C356.412 92.7164 356.816 92.7992 357.226 92.822C358.116 92.8714 359.013 92.8306 359.903 92.8662C360.176 92.8771 360.429 92.9248 360.698 92.9611C361.005 93.0024 361.312 92.97 361.619 93.0201C362.334 93.1369 363.045 93.2234 363.752 93.3974C364.415 93.5604 365.095 93.6747 365.765 93.7979C366.426 93.9193 367.078 94.0869 367.74 94.1963C368.415 94.3078 369.073 94.5157 369.745 94.6305C369.902 94.6573 370.029 94.6895 370.185 94.6895"
          stroke="#F4B400" strokeWidth="1.10315" strokeLinecap="round"/>
    <path d="M370.374 92.5649C370.374 93.2642 370.412 93.9547 370.412 94.6517" stroke="#F4B400" strokeWidth="1.10315"
          strokeLinecap="round"/>
    <path d="M355.768 94.0449C355.81 94.1621 355.994 94.2065 356.096 94.2346C356.611 94.376 357.153 94.4594 357.677 94.5529C358.439 94.6887 359.199 94.8028 359.958 94.9555C361.49 95.2636 363.017 95.6004 364.549 95.904C365.692 96.1306 366.843 96.3132 367.999 96.4542C368.246 96.4842 368.496 96.4732 368.743 96.4732"
          stroke="#F4B400" strokeWidth="1.10315" strokeLinecap="round"/>
    <path d="M368.705 96.4729C369.016 96.0193 369.424 95.6316 369.77 95.204C369.907 95.0344 370.064 94.8819 370.2 94.7108C370.259 94.6364 370.283 94.5304 370.374 94.5"
          stroke="#F4B400" strokeWidth="1.10315" strokeLinecap="round"/>
    <path d="M366.125 97.0723C366.319 97.1153 366.289 97.5959 366.335 97.7387C366.491 98.2238 366.593 98.7107 366.647 99.2201C366.723 99.9505 366.889 100.888 367.168 101.567C367.332 101.965 367.425 102.454 367.519 102.875C367.658 103.488 367.816 104.097 367.95 104.715C368.276 106.215 368.461 107.808 368.566 109.336C368.656 110.633 368.786 111.924 368.718 113.226C368.672 114.116 368.668 115.001 368.668 115.892C368.668 116.824 368.668 117.756 368.668 118.688C368.668 119.876 368.894 120.939 369.117 122.1C369.507 124.136 369.385 126.209 369.385 128.272C369.385 129.151 369.45 130.028 369.45 130.909"
          stroke="#F4B400" strokeWidth="1.10315" strokeLinecap="round"/>
    <path d="M369.58 129.214C369.739 129.482 369.76 129.8 369.841 130.098C369.98 130.611 370.07 131.126 370.131 131.655C370.254 132.732 370.346 133.841 370.413 134.922C370.559 137.256 370.311 139.637 370.884 141.931C371.089 142.752 371.058 143.621 371.21 144.455C371.339 145.163 371.472 145.88 371.63 146.581C371.7 146.892 371.797 147.265 371.797 147.585C371.797 148.226 371.839 147.293 371.862 147.077"
          stroke="#F4B400" strokeWidth="1.10315" strokeLinecap="round"/>
    <path d="M372.008 96.8926C371.856 97.011 371.879 97.3786 371.873 97.5465C371.858 98.0452 371.868 98.5485 371.939 99.0428C372.024 99.6401 372.145 100.237 372.216 100.835C372.359 102.049 372.41 103.286 372.577 104.493C372.671 105.168 372.713 105.84 372.8 106.517C372.911 107.366 372.99 108.24 373.077 109.094C373.319 111.437 373.563 113.781 373.808 116.125C374.038 118.321 374.47 120.477 374.743 122.664C374.981 124.567 374.916 126.482 374.916 128.396C374.916 130.173 374.916 131.95 374.916 133.727"
          stroke="#F4B400" strokeWidth="1.10315" strokeLinecap="round"/>
    <path d="M374.776 134.004C374.776 134.547 374.864 135.111 374.93 135.65C375.006 136.27 375.023 136.905 375.123 137.52C375.25 138.311 375.133 139.113 375.261 139.904C375.391 140.711 375.47 141.518 375.661 142.312C376.145 144.322 376.369 146.357 376.369 148.421C376.369 148.877 376.369 149.334 376.369 149.79C376.369 149.928 376.438 150.085 376.438 149.859"
          stroke="#F4B400" strokeWidth="1.10315" strokeLinecap="round"/>
    <path d="M372.225 96.8558C372.225 95.473 372.225 94.0902 372.225 92.7075C372.225 91.6796 372.225 90.6517 372.225 89.6238C372.225 88.7474 372.304 87.8526 372.072 87.0149C371.862 86.2606 371.875 85.4569 371.789 84.6842C371.733 84.181 371.632 83.6571 371.621 83.1496C371.616 82.8973 371.621 82.6442 371.621 82.3919C371.621 82.0858 371.485 81.8645 371.453 81.5766C371.372 80.8419 371.276 80.1471 371.276 79.3802C371.276 78.3234 371.189 77.2812 371.189 76.2198C371.189 74.2634 371.092 72.3066 371.017 70.3546C370.975 69.2574 370.937 68.1331 370.849 67.036C370.771 66.0669 370.585 65.1068 370.585 64.1346C370.585 63.2378 370.585 62.341 370.585 61.4442C370.585 60.8575 370.585 60.2708 370.585 59.6841C370.585 59.1743 370.43 58.6986 370.412 58.2023C370.398 57.7951 370.24 57.4289 370.24 57.0177C370.24 56.6735 370.214 56.4311 370.086 56.1113C369.974 55.8293 370.117 55.4643 370.024 55.1666C369.956 54.9501 369.895 54.6972 369.895 54.4712"
          stroke="#F4B400" strokeWidth="1.10315" strokeLinecap="round"/>
    <path d="M369.291 36.1704C369.291 38.1119 369.205 40.1002 369.205 42.0596C369.205 44.0766 369.291 46.0828 369.291 48.1022C369.291 48.6073 369.291 49.1125 369.291 49.6176C369.291 49.981 369.182 50.5477 369.335 50.8837C369.537 51.3285 369.637 51.9812 369.637 52.4663C369.637 52.9063 369.896 53.3291 369.896 53.7419C369.896 54.1383 369.982 54.5681 369.982 54.9888"
          stroke="#F4B400" strokeWidth="1.10315" strokeLinecap="round"/>
    <path d="M369.637 35.998C370.058 36.3774 370.667 36.3855 371.191 36.5352C371.644 36.6648 372.003 36.6886 372.485 36.6886"
          stroke="#F4B400" strokeWidth="1.10315" strokeLinecap="round"/>
    <path d="M372.658 37.7241C372.847 39.5215 372.61 41.3412 372.812 43.1337C373.144 46.0915 373.003 49.1289 373.003 52.1017C373.003 54.912 373.003 57.7223 373.003 60.5326C373.003 61.879 373.435 63.1633 373.435 64.4842C373.435 65.2669 373.521 66.157 373.521 66.9876C373.521 67.8024 373.481 68.6049 373.656 69.4046C373.801 70.0698 374.01 70.727 374.039 71.4093C374.086 72.4729 374.126 73.5316 374.126 74.6032C374.126 74.9702 373.891 77.2722 374.212 77.4327"
          stroke="#F4B400" strokeWidth="1.10315" strokeLinecap="round"/>
    <path d="M373.866 77.1738C374.089 78.042 374.125 78.9483 374.125 79.845C374.125 81.0258 374.212 82.205 374.212 83.3891C374.212 84.0914 374.317 84.7841 374.403 85.48C374.53 86.5028 374.489 87.5655 374.729 88.5685C374.902 89.289 374.868 90.0068 374.988 90.7313C375.102 91.4138 375.18 92.1009 375.243 92.7887C375.389 94.403 374.986 96.1257 375.295 97.7187C375.61 99.3388 375.424 101.014 375.765 102.62C376.115 104.264 376.197 105.924 376.197 107.598C376.197 108.8 376.253 109.994 376.283 111.185C376.296 111.695 376.528 112.19 376.542 112.701C376.545 112.783 376.542 113.37 376.542 113.084"
          stroke="#F4B400" strokeWidth="1.10315" strokeLinecap="round"/>
    <path d="M376.37 113.084C376.37 115.533 377.061 117.93 377.061 120.379C377.061 122.44 377.492 124.447 377.492 126.508C377.492 127.555 377.445 128.613 377.497 129.658C377.525 130.214 377.709 130.747 377.751 131.303C377.804 131.983 377.776 132.705 377.924 133.37C378.081 134.078 378.183 134.852 378.183 135.576C378.183 136.351 378.43 137.101 378.442 137.878C378.455 138.715 378.528 139.546 378.528 140.382C378.528 141.01 378.484 141.656 378.662 142.266C379.021 143.496 379.219 144.737 379.219 146.012C379.219 146.272 379.324 146.545 379.391 146.798C379.522 147.288 379.597 147.73 379.67 148.237C379.764 148.897 379.909 149.49 379.909 150.16C379.909 150.592 379.856 150.914 380.168 150.29"
          stroke="#F4B400" strokeWidth="1.10315" strokeLinecap="round"/>
    <path d="M305.889 157.744C308.697 157.744 311.668 157.714 314.437 157.148C315.637 156.903 317.072 156.634 318.279 156.634"
          stroke="#F4B400" strokeWidth="1.10315" strokeLinecap="round"/>
    <path d="M319.388 156.819C320.675 156.819 322.023 156.819 323.271 156.819" stroke="#F4B400" strokeWidth="1.10315"
          strokeLinecap="round"/>
    <path d="M274.211 162.041C274.4 161.19 277.007 161.446 277.608 161.402C279.157 161.287 280.692 161.206 282.24 161.124C285.14 160.972 288.07 160.872 290.95 160.519C292.602 160.317 294.213 159.891 295.86 159.695C298.177 159.419 300.519 159.2 302.847 159.048C305.442 158.877 308.08 159.014 310.683 159.014"
          stroke="#F4B400" strokeWidth="1.10315" strokeLinecap="round"/>
    <path d="M273 164.31C277.482 164.31 281.981 163.856 286.469 163.856C288.664 163.856 290.871 163.684 293.06 163.52C294.75 163.394 296.626 163.395 298.273 163.024C299.915 162.655 301.681 162.496 303.351 162.276C305.271 162.022 307.212 161.863 309.136 161.704C310.743 161.571 312.343 161.292 313.928 161.141C314.365 161.099 314.697 161.168 315.071 160.981"
          stroke="#F4B400" strokeWidth="1.10315" strokeLinecap="round"/>
    <path d="M319.404 26.229C320.068 26.3119 320.65 27.3301 321.3 27.3661C321.704 27.3886 322.142 27.6423 322.535 27.7733C322.987 27.9238 323.465 27.9992 323.925 28.1523C324.752 28.4282 325.565 28.7227 326.382 29.0368C326.924 29.2453 327.526 29.4843 328.122 29.5141C328.61 29.5385 328.928 29.8662 329.386 29.8931C330.308 29.9474 331.079 30.566 331.885 30.8758C332.692 31.1863 333.411 31.5416 334.187 31.8866C335.677 32.5489 337.09 33.3306 338.609 33.8731C339.04 34.0269 339.557 34.3714 339.999 34.4347C340.462 34.5007 340.813 34.8901 341.263 34.9401C341.839 35.0041 342.756 35.4135 343.221 35.7754C343.873 36.2822 345.034 36.2429 345.678 36.7792C346.242 37.2493 347.401 37.2927 348.086 37.5372C348.754 37.7759 349.453 38.192 350.17 38.3515C350.49 38.4224 350.831 38.4902 351.118 38.6744C351.473 38.9029 352.122 38.8778 352.374 39.1728C352.713 39.5678 353.85 39.9204 354.333 40.0081C354.748 40.0835 354.94 40.4503 355.351 40.5135C355.795 40.5819 356.22 40.8517 356.649 40.9838C357.274 41.1759 358.184 41.3094 358.727 41.6436C359.552 42.1513 360.618 42.1487 361.45 42.6544C362.469 43.2728 363.875 43.7235 365.016 44.0723C366.25 44.4492 367.366 45.3347 368.582 45.785C369.721 46.2067 370.804 46.7667 371.867 47.3574C372.605 47.7675 373.429 48.1154 374.212 48.4384C375.107 48.808 376.279 48.7865 377.118 49.2526C378.752 50.1608 380.87 50.263 382.649 50.8671C384.494 51.4937 386.369 51.9619 388.201 52.5728C392.788 54.1016 397.114 56.2713 401.651 57.9426C405.483 59.3546 409.151 61.1741 412.966 62.6175C415.229 63.4738 417.43 64.5766 419.662 65.5236C421.574 66.3345 423.487 67.1312 425.432 67.8751C427.864 68.8048 430.291 69.8275 432.669 70.8934C433.043 71.0609 433.36 71.2444 433.75 71.3637C434.081 71.4647 434.271 71.7894 434.628 71.834C435.074 71.8898 435.279 72.3464 435.645 72.3464"
          stroke="#F4B400" strokeWidth="0.367717" strokeLinecap="round"/>
    <path d="M320.006 31.9771C322.071 32.2948 324.171 33.8145 326.02 34.6891C332.018 37.5273 338.304 39.8852 344.473 42.3242C354.531 46.3005 365.084 49.3206 374.911 53.8653C381.884 57.0903 389.261 59.5286 396.401 62.37C400.588 64.0364 404.614 66.1569 408.885 67.5878C412.237 68.7106 415.723 69.6736 418.997 71.0073C425.565 73.6834 432.402 76.0146 438.718 79.2025C442.387 81.0543 446.411 83.4863 450.274 84.7741"
          stroke="#F4B400" strokeWidth="0.367717" strokeLinecap="round"/>
    <path d="M319.74 39.1406C320.268 39.2725 320.725 39.6647 321.185 39.9366C323.262 41.1649 325.373 42.3669 327.493 43.5183C333.453 46.755 339.723 49.6429 345.859 52.5389C353.695 56.2375 361.409 60.2427 369.103 64.2273C374.122 66.8264 379.396 68.6293 384.535 70.9191C389.866 73.2942 395.25 75.4655 400.66 77.6698C405.624 79.6919 410.582 81.6604 415.356 84.0962C419.732 86.3291 423.782 89.1562 428.282 91.1564C432.96 93.2353 437.615 95.3325 442.462 96.9785C442.911 97.1311 445.763 98.3822 445.763 98.3051"
          stroke="#F4B400" strokeWidth="0.367717" strokeLinecap="round"/>
    <path d="M319.476 44.1812C320.299 45.966 323.579 47.0805 325.136 47.9545C330.407 50.914 335.818 53.4734 341.423 55.7517C349.295 58.9516 357.025 62.304 364.726 65.8777C371.631 69.0822 378.209 72.9472 385.125 76.1659C391.725 79.237 398.338 82.5672 404.759 85.9825C408.176 87.8001 411.63 89.6485 415.106 91.3477C418.88 93.193 422.882 94.5576 426.661 96.4475C430.343 98.2885 434.288 99.748 437.893 101.695C438.783 102.176 441.081 102.47 441.519 103.346"
          stroke="#F4B400" strokeWidth="0.367717" strokeLinecap="round"/>
    <path d="M320.006 55.5898C320.122 56.7557 322.274 58.5092 323.042 59.3632C324.897 61.4242 327.267 62.9283 329.189 64.9052C331.017 66.7861 333.031 68.4454 335.114 70.0346C337.417 71.7921 339.469 73.8662 341.879 75.4882C346.238 78.4211 350.399 81.6091 354.821 84.4499C360.996 88.417 366.994 92.6838 372.936 96.9932C377.236 100.112 381.257 103.641 385.42 106.942C389.827 110.438 394.282 113.853 398.685 117.348C403.392 121.084 408.638 123.914 413.543 127.371C419.246 131.392 425.301 134.898 430.906 139.045C434.397 141.627 437.698 144.351 441.504 146.444C443.092 147.318 444.569 148.67 446.294 149.245"
          stroke="#F4B400" strokeWidth="0.367717" strokeLinecap="round"/>
    <path d="M321.067 61.4268C321.719 61.8482 322.141 62.6067 322.718 63.1365C324.029 64.3402 325.232 65.6197 326.58 66.7919C330.886 70.5361 335.255 74.1927 339.639 77.8466C342.914 80.5755 346.307 83.1631 349.603 85.8649C354.567 89.9338 359.626 94.1247 364.903 97.7744C367.041 99.2533 368.847 101.028 370.828 102.697C372.635 104.22 374.673 105.382 376.459 106.942C378.209 108.472 380.192 109.688 381.971 111.187C384.054 112.943 386.05 114.781 388.294 116.332C393.407 119.864 397.564 124.709 402.194 128.816C403.758 130.203 404.977 131.95 406.557 133.326C408.562 135.072 410.959 136.677 412.733 138.647C414.773 140.914 417.093 143.092 419.292 145.206C420.129 146.011 421.283 146.819 422.254 147.491C422.756 147.838 423.212 148.154 423.625 148.567C423.806 148.748 424.124 148.629 424.259 148.832C424.443 149.108 423.851 148.309 423.625 148.066C421.541 145.825 419.03 144.385 416.58 142.612"
          stroke="#F4B400" strokeWidth="0.367717" strokeLinecap="round"/>
    <path d="M320.802 65.1411C322.302 65.6866 323.672 68.4689 324.722 69.5925C326.171 71.1415 327.632 73.0526 328.776 74.8397C330.117 76.936 331.907 78.7093 333.271 80.7945C334.922 83.3157 336.128 86.2129 337.914 88.6212C340.006 91.4408 341.934 94.2327 344.429 96.7279C346.732 99.031 348.827 101.696 350.635 104.407C351.989 106.439 353.158 108.954 354.776 110.775C355.791 111.916 356.705 113.077 357.547 114.356C358.623 115.99 360.097 117.142 361.453 118.528C365.499 122.661 369.231 127.152 373.068 131.469C375.189 133.854 376.837 136.678 378.905 139.104C380.506 140.982 382.31 142.833 384.064 144.587C384.91 145.434 391.832 152.768 392.171 152.429"
          stroke="#F4B400" strokeWidth="0.367717" strokeLinecap="round"/>
    <path d="M321.598 71.5083C325.709 75.6201 328.328 80.9248 331.812 85.5698C333.904 88.359 335.041 91.8101 337.222 94.4578C338.695 96.2464 339.719 98.8235 340.847 100.855C343.635 105.872 346.93 111.1 350.502 115.565C351.916 117.333 352.627 119.566 354.216 121.254C355.061 122.152 355.343 123.74 355.941 124.821C356.67 126.141 357.382 127.396 358.196 128.668C362.32 135.112 366.89 141.061 372.066 146.65C372.771 147.412 373.161 148.277 373.923 149.038C374.381 149.496 375.513 149.852 375.78 150.306C375.967 150.624 376.965 151.356 377.313 151.573C377.69 151.809 378.176 152.562 378.374 152.959"
          stroke="#F4B400" strokeWidth="0.367717" strokeLinecap="round"/>
    <path d="M320.537 80.5293C320.537 84.9662 324.156 89.3185 326.227 93.0579C328.162 96.5519 329.9 99.9239 331.091 103.759C332.259 107.523 333.768 111.08 335.129 114.754C335.824 116.631 336.955 118.521 337.841 120.326C339.073 122.834 340.611 125.262 341.615 127.873C344.234 134.682 346.242 142.611 350.783 148.449C351.501 149.373 351.966 150.664 352.787 151.485C353.207 151.906 353.676 152.304 353.966 152.812C354.093 153.033 354.667 153.955 354.895 154.006C355.556 154.153 355.344 154.842 355.824 155.082"
          stroke="#F4B400" strokeWidth="0.367717" strokeLinecap="round"/>
    <path d="M325.491 156.819C329.498 156.819 333.468 156.634 337.471 156.634C339.026 156.634 340.519 156.264 342.043 156.264C343.695 156.264 345.289 155.71 346.985 155.71C349.229 155.71 351.457 155.525 353.683 155.525C355.546 155.525 357.528 155.421 359.334 154.97C360.34 154.718 361.341 154.567 362.365 154.415C362.984 154.323 363.528 153.878 364.143 153.86C365.235 153.829 366.328 153.305 367.369 153.305C368.478 153.305 369.588 153.305 370.697 153.305C376.588 153.305 382.478 153.305 388.369 153.305C391.093 153.305 393.685 152.293 396.321 152.001C397.42 151.878 398.509 151.486 399.65 151.456C401.004 151.42 402.364 151.456 403.719 151.456C410.457 151.456 417.128 151.067 423.794 150.305C427.012 149.938 430.175 149.465 433.401 149.227C437.098 148.953 440.831 149.052 444.548 149.052C448.254 149.052 451.959 149.052 455.665 149.052C457.095 149.052 458.624 148.935 459.939 148.497"
          stroke="#F4B400" strokeWidth="1.10315" strokeLinecap="round"/>
    <path d="M323.088 160.888C323.331 160.238 327.154 160.049 327.752 160.004C329.67 159.86 331.564 159.778 333.485 159.778C336.332 159.778 339.191 159.593 342.054 159.593C344.859 159.593 347.673 159.715 350.458 159.367C353.079 159.04 355.826 158.987 358.41 158.443C362.484 157.585 366.646 156.449 370.842 156.449C376.52 156.449 382.329 156.444 388 156.09C399.283 155.385 410.63 156.272 421.843 154.59C423.898 154.282 425.977 153.68 428.038 153.306C429.92 152.963 431.949 152.566 433.864 152.566C437.792 152.566 441.74 152.381 445.679 152.381C447.058 152.381 448.473 152.466 449.85 152.371C451.13 152.282 452.378 151.783 453.652 151.641C454.605 151.535 456.507 151.464 457.35 150.901"
          stroke="#F4B400" strokeWidth="1.10315" strokeLinecap="round"/>
    <path d="M321.332 52.9365C322.747 53.2902 324.156 54.9142 325.253 55.796C327.25 57.402 329.379 58.7648 331.281 60.4979C335.292 64.1524 339.284 67.9033 343.618 71.1841C348.047 74.5366 352.494 77.8214 357.164 80.8237C359.545 82.3546 361.709 84.1537 364.18 85.5551C367.18 87.2566 370.231 88.7229 373.127 90.6108C378.972 94.4208 384.979 97.908 390.726 101.887C395.759 105.371 401.169 108.318 406.173 111.836C410.64 114.976 415.466 117.66 419.881 120.871C422.619 122.862 425.759 124.652 428.253 126.958C429.643 128.245 431.342 129.465 432.896 130.54C433.393 130.885 434.828 131.551 435.092 131.999C435.686 133.01 437.684 134.243 438.747 134.8C440.802 135.876 442.796 137.367 444.702 138.691C446.289 139.793 447.974 140.735 449.595 141.816C450.753 142.588 452.043 143.32 453.074 144.204C453.542 144.605 454.573 145.41 455.182 145.545C455.485 145.612 457.068 146.65 457.172 146.857"
          stroke="#F4B400" strokeWidth="0.367717" strokeLinecap="round"/>
    <path d="M158.155 74.4414C158.155 73.4067 158.279 72.3863 158.279 71.3814C158.279 70.1467 158.305 68.8591 158.711 67.7122C159.16 66.4448 159.267 64.8897 159.267 63.5376C159.267 62.2976 159.68 61.0498 160.001 59.9169C160.195 59.2303 160.43 58.5411 160.625 57.8538C160.807 57.2098 161.243 56.3351 161.243 55.6869C161.243 55.112 161.736 54.6621 161.736 54.0669C161.736 53.4967 162.129 52.4684 162.416 51.9485C162.683 51.4637 162.697 50.9312 162.971 50.4462C163.274 49.9112 163.501 49.1622 163.712 48.5769C164.124 47.4336 165.067 46.3889 165.325 45.2193C165.437 44.7094 166.118 44.2132 166.182 43.6616C166.215 43.3836 166.719 42.6901 166.896 42.5123C167.668 41.7325 167.89 40.425 168.899 39.8262C169.28 39.6001 169.5 39.1425 169.887 38.8985C170.246 38.672 170.751 38.1237 170.998 37.777C171.498 37.0769 172.21 36.4572 172.823 35.8385C173.357 35.2994 174.131 34.7922 174.552 34.1908C174.776 33.8711 175.279 33.7036 175.567 33.4432C175.784 33.2472 175.985 32.9854 176.212 32.8201C176.774 32.4121 177.651 31.6901 178.01 31.0755C178.24 30.6797 178.831 30.2114 179.245 30.0509C179.501 29.9514 179.956 29.4972 180.164 29.3032C180.42 29.0636 180.823 28.7339 181.152 28.6109C181.878 28.3394 182.421 27.621 183.1 27.2401C183.795 26.8509 184.432 26.4018 185.104 25.9663C186.617 24.9843 188.238 24.2533 189.837 23.4463C191.123 22.7978 192.469 22.0704 193.906 21.7294C196.314 21.1576 198.704 20.3176 201.199 20.1163C202.314 20.0262 203.404 19.8325 204.519 19.7424C205.527 19.6611 206.654 19.7128 207.627 19.424C209.48 18.874 211.738 19.1124 213.671 19.1124C215.747 19.1124 217.824 19.1124 219.9 19.1124C221.364 19.1124 223.247 19.3571 224.579 19.9778C225.319 20.3225 226.272 20.3305 227.008 20.6771C228.312 21.2911 229.709 21.7147 231.069 22.1724C231.412 22.2876 232.039 22.6244 232.311 22.8509C232.829 23.2812 233.61 23.4966 234.191 23.8686C236.614 25.4194 239.337 26.5555 241.566 28.3963C242.477 29.1485 243.53 29.7583 244.475 30.4801C244.994 30.8764 245.584 31.2702 246.053 31.7262C246.462 32.1247 247.059 32.3851 247.411 32.8201C248.167 33.7523 249.222 34.4811 250.128 35.2431C250.584 35.6269 251.006 36.2499 251.39 36.7108C251.836 37.2456 252.327 37.7935 252.804 38.3031C253.716 39.2783 254.384 40.4851 255.315 41.46C255.918 42.0927 256.223 42.93 256.824 43.537C257.751 44.472 258.585 45.5305 259.417 46.5277C259.855 47.0524 259.744 48.1234 260.158 48.6462C260.352 48.8899 260.498 49.3361 260.529 49.6431C260.57 50.0562 261.008 50.3584 261.023 50.7369C261.046 51.3159 261.571 51.7876 261.64 52.3846C261.709 52.9715 262.318 53.6649 262.477 54.2538C262.609 54.7426 262.796 55.5741 263.149 55.9707C263.586 56.46 263.46 57.1479 263.739 57.743C264.005 58.3086 264.239 58.8836 264.48 59.46C264.757 60.1208 264.914 60.8446 265.221 61.4815C265.422 61.8972 265.962 62.7801 265.962 63.2261"
          stroke="#0F9D56" strokeWidth="1.94587" strokeLinecap="round"/>
    <path d="M263.37 56.4971C263.421 56.9625 263.869 57.5482 264.049 57.9924C264.282 58.5669 264.441 59.2901 264.79 59.7994C265.099 60.2499 265.123 60.7822 265.277 61.2947C265.417 61.7586 265.593 62.1723 265.593 62.6586C265.593 63.2693 265.697 64.0195 265.902 64.597C266.105 65.1716 265.993 65.8682 266.279 66.4039C266.573 66.9541 266.704 67.7228 266.704 68.3355C266.704 69.1969 266.828 70.0735 266.828 70.9524C266.828 72.1298 267.075 73.239 267.075 74.4416"
          stroke="#0F9D56" strokeWidth="1.94587" strokeLinecap="round"/>
    <path d="M199.297 14.2935C199.359 15.0408 199.365 15.789 199.46 16.5354C199.501 16.8529 199.532 17.1505 199.532 17.4717C199.532 17.708 199.532 17.9443 199.532 18.1806C199.532 18.4676 199.476 18.8561 199.65 18.3289"
          stroke="#0F9D56" strokeWidth="1.94587" strokeLinecap="round"/>
    <path d="M203.825 13.166C203.825 13.8313 203.853 14.4874 203.881 15.1508C203.9 15.6088 203.829 16.0944 203.897 16.5487C203.939 16.827 204.023 17.098 204.057 17.3762C204.065 17.44 204.06 17.7235 204.06 17.6763"
          stroke="#0F9D56" strokeWidth="1.94587" strokeLinecap="round"/>
    <path d="M207.822 12.6914V17.2016" stroke="#0F9D56" strokeWidth="1.94587" strokeLinecap="round"/>
    <path d="M212.234 12.335C212.234 13.3681 212.528 14.3796 212.528 15.4209C212.528 15.8561 212.528 16.2913 212.528 16.7265"
          stroke="#0F9D56" strokeWidth="1.94587" strokeLinecap="round"/>
    <path d="M217.234 12.2163C217.234 13.8711 217.175 15.5683 217.175 17.2013" stroke="#0F9D56" strokeWidth="1.94587"
          strokeLinecap="round"/>
    <path d="M221.469 13.2251C221.493 13.9186 221.586 14.6007 221.586 15.3022C221.586 15.6624 221.645 16.0107 221.645 16.3704C221.645 16.7265 221.645 17.0825 221.645 17.4386"
          stroke="#0F9D56" strokeWidth="1.94587" strokeLinecap="round"/>
    <path d="M225.056 14.1152C225.49 15.5746 225.526 17.1156 225.526 18.6255" stroke="#0F9D56" strokeWidth="1.94587"
          strokeLinecap="round"/>
    <path d="M197.531 12.6317C198.319 11.8367 199.488 11.5035 200.531 11.2404C201.203 11.0707 201.872 10.9288 202.563 10.825C203.381 10.702 204.177 10.4659 205 10.3634C206.441 10.1842 207.815 9.84251 209.28 9.84251C210.853 9.84251 212.425 9.84251 213.998 9.84251C214.85 9.84251 215.701 9.84251 216.553 9.84251C217.363 9.84251 218.258 9.73207 219.049 9.93153C219.796 10.12 220.59 10.1978 221.349 10.3436C222.214 10.51 223.019 10.9335 223.849 11.2074C224.707 11.4909 225.535 11.8491 226.374 12.157C226.51 12.2068 226.676 12.2587 226.818 12.2757C226.959 12.2923 227.063 12.4537 227.23 12.4537"
          stroke="#0F9D56" strokeWidth="1.94587" strokeLinecap="round"/>
    <path d="M208.118 7.23145C208.892 7.48251 209.783 7.4639 210.588 7.46883C211.638 7.47525 212.688 7.46883 213.738 7.46883C214.374 7.46883 215.01 7.46883 215.646 7.46883"
          stroke="#0F9D56" strokeWidth="1.94587" strokeLinecap="round"/>
    <path d="M209.646 4.14536C210.833 4.14536 212.048 4.19537 213.22 3.96732C213.568 3.89954 213.994 3.84863 214.35 3.84863"
          stroke="#0F9D56" strokeWidth="1.94587" strokeLinecap="round"/>
    <path d="M210.646 1.05935C211.509 1.05935 212.387 1 213.234 1" stroke="#0F9D56" strokeWidth="1.94587"
          strokeLinecap="round"/>
    <path d="M200.233 61.4917C200.461 63.5594 200.709 65.6947 200.709 67.7865C200.709 68.9921 200.709 70.1977 200.709 71.4033C200.709 71.8902 200.701 72.3781 200.709 72.8649C200.719 73.4064 200.899 73.9087 200.899 74.4546C200.899 78.2909 201.185 82.0819 201.185 85.9239C201.185 89.421 200.995 92.8915 200.995 96.3903C200.995 98.9437 201.09 101.487 201.09 104.029"
          stroke="#0F9D56" strokeWidth="1.94587" strokeLinecap="round"/>
    <path d="M223.928 60.9155C223.928 69.1121 223.833 77.3155 223.833 85.5184C223.833 91.6616 224.118 97.7921 224.118 103.933"
          stroke="#0F9D56" strokeWidth="1.94587" strokeLinecap="round"/>
    <path d="M208.703 104.318C208.703 102.379 208.798 100.497 208.798 98.5563C208.798 97.5 208.798 96.4438 208.798 95.3876C208.798 94.476 208.618 93.3428 208.819 92.4536C208.98 91.7432 208.705 90.9107 208.915 90.2237C209.138 89.4924 209.343 88.8459 209.655 88.1379C210.144 87.027 211.98 87.2257 212.964 87.2257C213.565 87.2257 214.511 87.5094 214.941 87.8979C215.197 88.1287 215.393 88.2433 215.554 88.5273C215.677 88.7433 215.787 89.1806 215.983 89.3382C216.161 89.4821 216.228 89.8971 216.337 90.1064C216.501 90.4218 216.531 90.734 216.649 91.0666C216.899 91.775 216.982 92.7014 216.982 93.4458C216.982 97.0176 217.077 100.558 217.077 104.126"
          stroke="#0F9D56" strokeWidth="1.94587" strokeLinecap="round"/>
    <path d="M203.566 80.5039C204.784 80.5039 205.966 80.792 207.193 80.792C209.741 80.792 212.289 80.792 214.837 80.792C216.789 80.792 218.742 80.792 220.694 80.792"
          stroke="#0F9D56" strokeWidth="1.94587" strokeLinecap="round"/>
    <path d="M200.712 57.939C200.528 57.9621 200.111 58.2032 200.379 58.4194C200.416 58.4497 200.448 58.2403 200.421 58.2806C200.36 58.3727 200.057 58.515 200.045 58.3233C200.018 57.8591 200.385 57.72 200.516 58.1845C200.573 58.3849 200.499 58.0889 200.527 57.9924C200.574 57.8271 200.834 58.1083 200.902 58.1311"
          stroke="#0F9D56" strokeWidth="1.94587" strokeLinecap="round"/>
    <path d="M223.93 58.3233C223.955 58.1159 224.145 58.3698 224.194 58.4408C224.276 58.5583 223.98 58.68 223.882 58.4621C223.78 58.2358 223.959 57.9998 224.02 58.2753C224.089 58.5888 223.799 58.4092 223.739 58.2272"
          stroke="#0F9D56" strokeWidth="1.94587" strokeLinecap="round"/>
    <path d="M194.621 63.7965C195.153 63.7965 195.767 63.8874 196.292 63.7912C197.072 63.6479 197.991 63.6755 198.734 63.3911C199.2 63.2126 199.612 62.8885 200.066 62.7189C200.257 62.6476 200.406 62.4097 200.574 62.3615C201.001 62.2381 201.547 61.9102 201.969 61.8761C202.25 61.8534 202.413 61.588 202.709 61.588C203.021 61.588 203.333 61.492 203.661 61.492C204.502 61.492 205.5 61.3348 206.304 61.5667C206.77 61.7011 207.416 61.588 207.901 61.588C208.503 61.588 209.106 61.588 209.709 61.588C210.928 61.588 212.147 61.588 213.367 61.588C214.554 61.588 215.808 61.4838 216.983 61.6627C217.666 61.7669 218.68 61.4728 219.314 61.8281C219.473 61.9174 219.798 61.926 219.98 61.9668C220.443 62.0706 220.911 62.1537 221.36 62.3348C221.567 62.4187 221.73 62.361 221.931 62.4735C222.256 62.6561 222.628 62.8315 222.977 62.9323C223.659 63.1289 224.247 63.7192 224.976 63.7965C225.496 63.8517 225.978 64.0846 226.498 64.0846C227.304 64.0846 228.111 64.0226 228.898 63.8712C229.346 63.7852 229.807 63.6576 230.257 63.6098C230.434 63.591 230.606 63.5188 230.78 63.5084C231.256 63.4802 229.827 63.5541 229.353 63.6045"
          stroke="#0F9D56" strokeWidth="1.94587" strokeLinecap="round"/>
    <path d="M194.431 68.8855C195.367 68.98 196.238 68.9064 197.169 68.8855C197.602 68.8758 198.92 69.1144 199.188 68.6402C199.265 68.5041 199.505 68.3843 199.627 68.2614C199.844 68.0431 200.145 67.8817 200.383 67.6853C200.982 67.1911 201.909 66.7483 202.656 66.5597C204.901 65.9934 207.252 66.1009 209.555 66.1009C212.108 66.1009 214.662 66.1009 217.215 66.1009C217.909 66.1009 218.58 66.1253 219.266 66.2023C219.685 66.2493 220.015 66.4929 220.408 66.581C220.614 66.6271 220.782 66.7056 220.926 66.8637C221.061 67.0122 221.195 66.9198 221.36 66.9864C222.406 67.4088 223.495 67.7611 224.595 68.0694C225.218 68.2441 225.766 68.5004 226.403 68.5921C226.995 68.6776 227.547 68.9816 228.158 68.9816C228.654 68.9816 229.092 69.0776 229.591 69.0776C229.835 69.0776 231.007 68.9907 230.59 68.8855"
          stroke="#0F9D56" strokeWidth="1.94587" strokeLinecap="round"/>
    <path d="M194.239 73.6868C195.794 73.6868 197.475 73.8056 198.997 73.4735C199.75 73.3092 200.259 72.7913 200.9 72.3959C201.568 71.984 202.252 71.6795 202.972 71.3823C203.433 71.1923 203.89 71.2081 204.368 71.0942C204.91 70.9651 205.536 70.8062 206.097 70.8062C207.131 70.8062 208.165 70.8062 209.2 70.8062C211.413 70.8062 213.626 70.8062 215.84 70.8062C217.246 70.8062 218.874 70.6042 220.259 70.9235C220.861 71.0624 221.548 71.0565 222.125 71.2383C222.704 71.421 223.244 71.6429 223.811 71.8411C226.1 72.6406 228.404 73.3027 230.874 73.3027"
          stroke="#0F9D56" strokeWidth="1.94587" strokeLinecap="round"/>
    <path d="M211.366 54.6743C210.557 54.6743 210.224 55.7793 210.224 56.4774C210.224 57.008 210.192 57.3162 210.584 57.6723C210.796 57.8655 211.508 57.7735 211.794 57.8377C212.198 57.9282 212.864 57.8901 213.222 57.699C214.081 57.2399 213.749 56.3031 213.655 55.5438C213.548 54.6781 212.475 54.6743 211.747 54.6743"
          stroke="#0F9D56" strokeWidth="1.94587" strokeLinecap="round"/>
    <path d="M159.07 76.9136C164.78 76.9136 170.445 77.3987 176.147 77.3987C180.258 77.3987 184.368 77.3987 188.479 77.3987C189.76 77.3987 191.356 77.6438 192.565 77.237"
          stroke="#0F9D56" strokeWidth="1.94587" strokeLinecap="round"/>
    <path d="M147.372 81.4415C158.478 81.4415 169.583 81.4415 180.689 81.4415C184.5 81.4415 188.31 81.4415 192.121 81.4415C192.884 81.4415 193.646 81.4415 194.409 81.4415C194.685 81.4415 195.596 81.5933 195.13 81.2798"
          stroke="#0F9D56" strokeWidth="1.94587" strokeLinecap="round"/>
    <path d="M140 86.6168C152.121 86.6168 164.29 86.9483 176.38 86.1676C182.605 85.7655 188.889 85.9699 195.13 85.9699"
          stroke="#0F9D56" strokeWidth="1.94587" strokeLinecap="round"/>
    <path d="M233.371 77.2622C239.783 77.2622 246.196 77.2282 252.607 77.2622C256.911 77.2851 261.209 77.4922 265.511 77.4922"
          stroke="#0F9D56" strokeWidth="1.94587" strokeLinecap="round"/>
    <path d="M228.812 81.1729C239.493 81.1729 250.181 81.2879 260.864 81.2879C262.719 81.2879 264.575 81.2879 266.43 81.2879C268.513 81.2879 270.662 81.1317 272.736 81.3454C274.424 81.5191 276.126 81.5179 277.821 81.5179"
          stroke="#0F9D56" strokeWidth="1.94587" strokeLinecap="round"/>
    <path d="M228.812 86.3485C232.207 86.3485 235.602 86.3907 238.994 86.259C240.623 86.1958 242.235 85.9271 243.863 85.8948C245.237 85.8677 246.612 85.8884 247.985 85.8884C253.828 85.8884 259.663 85.7734 265.506 85.7734C271.89 85.7734 291.044 85.8884 284.659 85.8884"
          stroke="#0F9D56" strokeWidth="1.94587" strokeLinecap="round"/>
    <path d="M236.563 89.1084C236.563 90.3491 236.791 91.5833 236.791 92.8399C236.791 93.5981 236.791 94.3563 236.791 95.1145C236.791 95.8344 236.791 96.5543 236.791 97.2742"
          stroke="#0F9D56" strokeWidth="1.94587" strokeLinecap="round"/>
    <path d="M244.541 89.4536C244.618 90.6915 244.983 91.892 244.997 93.134C245.005 93.843 244.997 94.5525 244.997 95.2617C244.997 95.9045 244.883 96.5355 244.883 97.1593"
          stroke="#0F9D56" strokeWidth="1.94587" strokeLinecap="round"/>
    <path d="M252.292 90.1436V98.0793" stroke="#0F9D56" strokeWidth="1.94587" strokeLinecap="round"/>
    <path d="M260.612 89.9136V97.1593" stroke="#0F9D56" strokeWidth="1.94587" strokeLinecap="round"/>
    <path d="M268.59 90.1436C268.59 91.0744 268.671 92.023 268.71 92.9549C268.749 93.8688 268.711 94.8766 268.843 95.7791C268.913 96.2578 269.046 96.663 269.046 97.1528C269.046 97.4293 269.05 97.7167 269.16 97.2742"
          stroke="#0F9D56" strokeWidth="1.94587" strokeLinecap="round"/>
    <path d="M276.909 89.2236C276.909 91.725 277.023 94.2081 277.023 96.6993" stroke="#0F9D56" strokeWidth="1.94587"
          strokeLinecap="round"/>
    <path d="M147.436 89.6836C147.939 89.6836 147.891 89.9483 147.891 90.4376C147.891 91.6776 147.901 92.8824 147.727 94.1115C147.563 95.2692 147.663 98.7888 147.663 97.6193"
          stroke="#0F9D56" strokeWidth="1.94587" strokeLinecap="round"/>
    <path d="M155.642 90.1436C155.642 91.7963 155.642 93.4491 155.642 95.1018C155.642 95.8659 156.097 96.5919 156.097 97.2742"
          stroke="#0F9D56" strokeWidth="1.94587" strokeLinecap="round"/>
    <path d="M163.62 89.6836C163.62 92.1463 163.848 94.5888 163.848 97.0443" stroke="#0F9D56" strokeWidth="1.94587"
          strokeLinecap="round"/>
    <path d="M171.371 90.1436C171.371 92.0289 171.558 93.9229 171.821 95.7791C171.881 96.2074 171.941 96.5775 171.941 97.0442"
          stroke="#0F9D56" strokeWidth="1.94587" strokeLinecap="round"/>
    <path d="M179.804 89.6836C179.804 90.7377 179.694 91.8584 179.829 92.9039C179.917 93.5833 180.032 94.1703 180.032 94.8655C180.032 95.5928 179.918 97.7716 179.918 97.0443"
          stroke="#0F9D56" strokeWidth="1.94587" strokeLinecap="round"/>
    <path d="M187.214 89.6836C187.214 91.3693 187.442 93.0463 187.442 94.7377C187.442 95.3532 187.442 95.9687 187.442 96.5842"
          stroke="#0F9D56" strokeWidth="1.94587" strokeLinecap="round"/>
    <path d="M81.6494 181.968C81.6494 187.867 79.0508 193.295 79.0508 199.095C79.0508 203.73 78.9184 208.387 79.0508 213.02C79.0835 214.163 79.5233 215.148 79.5233 216.34C79.5233 217.403 79.5233 218.466 79.5233 219.529C79.5233 221.896 79.5233 224.263 79.5233 226.63C79.5233 230.62 80.9407 234.279 80.9407 238.192"
          stroke="#FF5C00" strokeWidth="1.72536" strokeLinecap="round"/>
    <path d="M80.708 238.182C80.6876 238.345 79.9906 238.69 79.8569 238.756C79.4479 238.961 78.9384 239.093 78.482 239.193C77.1234 239.49 75.6775 239.557 74.2917 239.557C73.707 239.557 73.0359 239.677 72.4621 239.782C71.8805 239.889 71.2308 239.819 70.6398 239.819C69.1025 239.819 67.5651 239.819 66.0277 239.819C64.9183 239.819 63.8089 239.819 62.6995 239.819C62.2157 239.819 61.732 239.819 61.2482 239.819C60.4374 239.819 59.6361 239.654 58.8367 239.52C57.614 239.317 56.3446 239.118 55.2102 238.611C54.8012 238.428 54.422 238.322 54.0244 238.084C53.8563 237.983 53.6655 237.804 53.4861 237.738C53.3505 237.688 53.2103 237.683 53.0933 237.578C52.9835 237.479 52.6959 237.445 52.6859 237.265C52.6624 236.841 52.6859 236.409 52.6859 235.985C52.6859 234.02 52.6204 232.065 52.6204 230.1C52.6204 229.105 52.555 228.114 52.555 227.117C52.555 226.674 52.4895 226.237 52.4895 225.793C52.4895 225.24 52.5287 224.67 52.4749 224.12C52.3692 223.036 52.3152 221.948 52.1949 220.864C52.1409 220.379 52.1646 219.892 52.1112 219.406C52.0545 218.889 51.9141 218.376 51.9002 217.856C51.8858 217.313 51.7489 216.781 51.6711 216.245C51.5801 215.619 51.5276 214.991 51.4419 214.364C51.2604 213.037 51.3765 211.637 51.3765 210.298C51.3765 208.166 51.538 205.979 51.1509 203.878C50.9866 202.986 50.9114 202.026 50.8418 201.121C50.7829 200.356 50.6831 199.578 50.5762 198.818C50.5112 198.356 50.4183 197.775 50.2489 197.342C50.1307 197.039 50.1294 196.743 50.0306 196.447C49.968 196.259 49.8706 196.057 49.8706 195.854C49.8706 195.608 49.7397 195.348 49.7397 195.101"
          stroke="#FF5C00" strokeWidth="1.72536" strokeLinecap="round"/>
    <path d="M49.8984 195.449C49.8984 194.49 49.3053 193.585 48.9062 192.739C48.4783 191.832 48.1154 190.766 47.9446 189.793C47.7696 188.795 47.5968 187.885 47.5968 186.867C47.5968 185.907 47.3041 184.936 47.0445 184.013C46.681 182.721 46.5139 181.354 46.0318 180.095C45.8294 179.567 45.7385 179.02 45.5254 178.5C45.3406 178.048 45.1318 177.424 45.0395 176.945C44.8688 176.057 44.4366 175.049 44.0984 174.203C43.7343 173.293 43.1542 172.441 42.83 171.533C42.2712 169.969 41.4675 168.418 40.6921 166.91C40.3232 166.193 39.8113 165.547 39.4543 164.833C39.2295 164.384 38.8556 164.037 38.6155 163.601C38.4328 163.268 38.1127 162.711 37.8381 162.47C37.5399 162.209 37.2673 161.676 37.0198 161.34C36.7703 161.001 36.5093 160.703 36.2526 160.373C35.6472 159.595 34.8038 159.027 34.1044 158.348C32.4957 156.785 30.5596 155.556 28.8364 154.113C28.0391 153.446 27.2095 152.855 26.3506 152.272C25.4925 151.689 24.4974 151.274 23.6603 150.686C22.4385 149.828 20.9997 149.409 19.7016 148.794C19.2721 148.59 18.6337 148.514 18.157 148.497C17.2827 148.466 16.4674 148.176 15.5997 148.129C14.727 148.082 13.8107 147.653 12.9605 147.464C12.387 147.336 11.8292 147.087 11.2778 146.891C10.747 146.703 10.2285 146.395 9.66668 146.38C9.23097 146.368 8.57719 145.95 8.19367 145.74C7.72986 145.487 7.1999 145.324 6.72065 145.091C5.97697 144.729 5.04002 144.361 4.41906 143.802C3.28159 142.778 2.34052 141.536 1.47303 140.283C1.14503 139.809 0.849063 139.27 0.480792 138.81C0.393304 138.701 0.408409 138.387 0.322239 138.232C0.234427 138.074 0.0920816 137.901 0.0920816 137.726C0.0920816 136.928 0.0920816 136.13 0.0920816 135.332"
          stroke="#FF5C00" strokeWidth="1.72536" strokeLinecap="round"/>
    <path d="M0.00032453 135.148C0.00032453 134.563 0.0715288 133.982 0.0923876 133.419C0.120173 132.669 -0.0155446 131.774 0.189566 131.056C0.25171 130.838 0.386843 130.664 0.481102 130.452C0.609295 130.164 0.687273 129.884 0.828896 129.583C0.998323 129.223 1.19924 127.894 1.60632 127.777C1.64951 127.765 1.96706 127.238 2.04618 127.159C2.25399 126.951 2.53102 126.849 2.74177 126.657C3.26197 126.184 4.0121 125.946 4.55747 125.522C5.77827 124.572 7.13371 123.653 8.75147 123.45C9.60828 123.343 10.4546 123.271 11.3241 123.271C12.1149 123.271 13.0335 123.191 13.7894 122.975C14.8155 122.682 15.9625 122.351 17.0372 122.351C18.2323 122.351 19.4274 122.351 20.6226 122.351C21.2363 122.351 21.8501 122.351 22.4638 122.351C22.9361 122.351 23.7401 122.409 24.1721 122.208C25.4701 121.602 27.1535 121.756 28.54 121.543C29.3209 121.423 30.1854 121.522 30.9746 121.522C31.9412 121.522 32.9079 121.522 33.8746 121.522C34.7969 121.522 35.7193 121.522 36.6416 121.522"
          stroke="#FF5C00" strokeWidth="1.72536" strokeLinecap="round"/>
    <path d="M37.4687 121.615C38.9507 121.615 40.5235 121.611 42.0003 121.727C44.0197 121.886 46.0415 121.765 48.056 121.911C49.6542 122.028 51.2612 121.983 52.8638 121.983C53.641 121.983 54.4189 121.974 55.1961 121.983C55.8346 121.99 56.4603 122.159 57.0987 122.167C60.1766 122.205 63.1778 122.762 66.1721 123.436C67.03 123.629 67.9808 123.812 68.8624 123.824C69.3225 123.831 69.807 123.779 70.2638 123.845C70.8606 123.93 71.4083 124.062 72.013 124.121C72.8265 124.2 73.6428 124.234 74.4578 124.305C76.35 124.47 78.2924 124.696 80.1657 125.021C81.0671 125.177 81.9713 125.217 82.8765 125.338C83.9514 125.483 85.1422 125.516 86.1908 125.778C87.4138 126.084 88.7438 126.116 89.9449 126.494C90.9411 126.808 91.8977 127.08 92.8705 127.486C94.0662 127.986 95.4117 128.394 96.6656 128.724C97.4794 128.938 98.273 129.362 99.0387 129.675C100.271 130.179 101.4 130.887 102.558 131.466"
          stroke="#FF5C00" strokeWidth="1.72536" strokeLinecap="round"/>
    <path d="M102.557 131.741C103.278 131.844 103.95 132.423 104.588 132.759C105.161 133.061 105.802 133.423 106.245 133.91C106.778 134.496 107.603 134.859 108.127 135.424C108.703 136.044 109.509 136.484 109.922 137.265C110.335 138.044 110.811 138.847 111.048 139.7C111.171 140.142 111.396 140.579 111.396 141.045C111.396 141.549 111.396 142.054 111.396 142.559C111.396 143.576 110.834 145.031 110.194 145.832C109.594 146.582 109.162 147.162 108.352 147.668C107.968 147.908 107.461 147.967 107.074 148.185C106.648 148.424 106.243 148.677 105.739 148.773C105.002 148.913 104.255 149.194 103.55 149.438C102.741 149.718 101.867 149.825 101.064 150.154C100.615 150.338 100.156 150.387 99.7034 150.563C99.2258 150.749 98.6409 150.975 98.1435 151.075C97.0313 151.297 96.0436 151.916 95.0082 152.323C91.7743 153.593 89.7824 156.911 88.216 159.8C87.8106 160.548 87.3318 161.454 87.1317 162.286C86.9044 163.231 86.4754 164.119 86.2622 165.068C85.9998 166.236 85.536 167.492 84.8812 168.475"
          stroke="#FF5C00" strokeWidth="1.72536" strokeLinecap="round"/>
    <path d="M84.7891 168.751C84.7891 170.025 83.9005 170.981 83.6792 172.198C83.6187 172.531 83.4166 172.841 83.3365 173.17C83.2533 173.512 83.2377 173.873 83.1524 174.224C82.9792 174.936 82.8417 175.604 82.6256 176.295C82.4233 176.942 82.4405 177.666 82.2573 178.326C82.1115 178.851 82.2259 179.472 81.9351 179.962C81.7877 180.211 81.8266 180.569 81.751 180.852C81.6977 181.052 81.5668 181.298 81.5668 181.502C81.5668 181.875 81.4748 182.257 81.4748 182.653"
          stroke="#FF5C00" strokeWidth="1.72536" strokeLinecap="round"/>
    <path d="M102.095 146.442C101.717 146.017 101.306 146.065 100.852 145.768C100.211 145.349 99.5015 145.041 98.7783 144.758C95.9447 143.649 92.8899 142.785 89.8997 142.265C88.1911 141.968 86.3142 141.94 84.6519 141.456C83.5767 141.143 82.3662 141.052 81.2532 141.052C79.7204 141.052 78.2768 140.926 76.7615 140.715C75.6867 140.566 74.5371 140.576 73.4526 140.52C72.3399 140.463 71.2063 140.259 70.0988 140.244C67.3875 140.206 64.7174 139.839 62.0062 139.839C59.8049 139.839 57.6148 139.435 55.4109 139.435C52.9641 139.435 50.511 139.058 48.0594 139.031C42.8294 138.973 37.6049 138.896 32.3684 138.896C29.7831 138.896 27.1979 138.896 24.6127 138.896C23.6142 138.896 22.798 139.282 21.8428 139.435C20.8014 139.602 19.6866 139.915 18.6836 140.244C17.0832 140.767 15.4131 140.96 13.8251 141.516C12.316 142.044 10.8369 142.487 9.25102 142.804"
          stroke="#FF5C00" strokeWidth="1.72536" strokeLinecap="round"/>
    <path d="M36.0523 97.9756C36.3852 98.0172 36.9868 98.442 37.2611 98.6306C37.6986 98.9313 38.1869 99.162 38.6578 99.4445C38.9241 99.6043 39.2964 99.7404 39.5873 99.8635C39.846 99.973 40.085 100.226 40.3482 100.364C41.0255 100.719 41.5921 101.305 42.2939 101.617C42.5989 101.752 42.7559 102.03 43.0067 102.223C43.2117 102.381 43.4862 102.631 43.6424 102.83C44.0907 103.401 44.6591 103.832 45.0246 104.482C45.812 105.882 46.3604 107.392 47.2737 108.72C48.0178 109.803 48.4958 111.024 48.7281 112.366C48.9815 113.83 48.7956 115.476 48.7956 116.961C48.7956 117.704 48.7738 118.304 48.208 118.848C47.9982 119.05 47.5623 119.22 47.4278 119.474C47.2497 119.811 46.7727 120.486 46.3683 120.688"
          stroke="#FF5C00" strokeWidth="1.72536" strokeLinecap="round"/>
    <path d="M37.0908 98.4958C36.6236 98.4958 36.2143 98.2919 35.7568 98.1924C35.2655 98.0856 34.7611 98.0433 34.2686 97.9564C33.2912 97.7839 32.2667 97.4555 31.2634 97.4555C30.3451 97.4555 29.4269 97.4555 28.5086 97.4555C27.5702 97.4555 26.5109 97.2817 25.643 97.6723C25.4068 97.7786 25.1388 97.7464 24.9158 97.8505C24.6969 97.9526 24.5069 98.0843 24.2801 98.1683C23.8417 98.3307 23.4476 98.658 23.0424 98.8859C22.5814 99.1452 22.0765 99.2689 21.6891 99.642C21.5222 99.8027 21.2988 99.8275 21.14 99.9695C21.01 100.086 20.9076 100.229 20.7547 100.316C20.4206 100.507 20.0434 100.909 19.753 101.183C19.5238 101.4 19.1954 101.811 18.9246 101.959C18.581 102.146 18.3908 102.487 18.1252 102.763C17.8168 103.084 17.4009 103.444 17.1523 103.803C16.9441 104.104 16.6936 104.459 16.5407 104.79C16.4329 105.024 16.2389 105.204 16.2036 105.469C16.1779 105.662 16.1316 105.85 16.0254 106.018C15.7979 106.38 15.693 106.958 15.5534 107.377C15.4322 107.74 15.2867 108.078 15.1777 108.446C15.0679 108.817 15.1425 109.238 15.0284 109.626C14.8573 110.208 14.8074 110.814 14.7058 111.412C14.5477 112.343 14.465 113.206 14.465 114.148C14.465 114.748 14.3009 115.694 14.595 116.224C14.7687 116.536 14.8225 116.896 14.9851 117.221C15.08 117.41 15.1431 117.552 15.1585 117.76C15.1784 118.029 15.4517 118.205 15.5004 118.473C15.6342 119.208 16.0259 119.84 16.2854 120.553C16.3904 120.842 16.5627 121.179 16.6996 121.468C16.8311 121.746 16.9306 122.114 17.1523 122.335"
          stroke="#FF5C00" strokeWidth="1.72536" strokeLinecap="round"/>
    <path d="M30.7622 97.3686C30.8105 96.8851 31.048 96.3508 31.1956 95.8949C31.5471 94.8094 31.8715 93.7114 32.1877 92.6151C32.3663 91.9961 32.5866 91.3885 32.8909 90.8235C33.0234 90.5775 33.1895 90.2869 33.1895 90"
          stroke="#FF5C00" strokeWidth="1.72536" strokeLinecap="round"/>
    <path d="M30.5049 95.7215C30.4744 95.4773 30.2112 95.3195 30.0907 95.1146C30.0216 94.9972 29.7353 94.8061 29.6187 94.7197C29.3538 94.5234 29.0988 94.3205 28.8289 94.1225C28.3749 93.7896 27.8519 93.7242 27.3167 93.6217C26.4108 93.4482 25.6304 93.3809 24.7015 93.3809C23.9386 93.3809 23.152 93.5675 22.4428 93.8576C21.9064 94.0771 21.3269 94.1631 20.7957 94.4211C20.1052 94.7565 19.5926 95.3099 18.9752 95.7215"
          stroke="#FF5C00" strokeWidth="1.72536" strokeLinecap="round"/>
    <path d="M23.6553 97.542C22.6086 97.542 21.5619 97.542 20.5152 97.542C19.9074 97.542 19.7055 97.3974 19.2293 97.07C18.9517 96.8792 18.7149 96.5455 18.4539 96.415"
          stroke="#FF5C00" strokeWidth="1.72536" strokeLinecap="round"/>
    <path d="M32.844 93.4677C34.3649 93.3294 35.6953 92.5453 37.2218 92.4322C37.8857 92.3831 38.5673 92.4176 39.2108 92.5815C40.1116 92.811 40.8813 93.4738 41.5803 94.0745C42.1848 94.594 42.7082 95.1548 43.1167 95.8083C43.2685 96.0512 43.448 96.3361 43.5742 96.5885C43.6537 96.7476 43.7953 96.8473 43.8535 97.022"
          stroke="#FF5C00" strokeWidth="1.72536" strokeLinecap="round"/>
    <path d="M43.4219 97.1951C43.3965 96.992 42.1224 97.1084 41.9048 97.1084C41.6534 97.1084 41.4 97.0991 41.1487 97.1084C40.8925 97.1179 40.6874 97.3679 40.4359 97.4359C39.306 97.7412 37.4952 99.0232 36.3134 98.2353"
          stroke="#FF5C00" strokeWidth="1.72536" strokeLinecap="round"/>
    <path d="M19.2852 109.392C19.2852 110.199 18.7811 110.826 18.7811 111.65C18.7811 112.238 18.7811 112.826 18.7811 113.414C18.7811 114.55 19.2852 117.919 19.2852 116.784"
          stroke="#FF5C00" strokeWidth="1.72536" strokeLinecap="round"/>
    <path d="M20.9639 106.872C20.9412 107.053 20.7083 107.215 20.6279 107.376" stroke="#FF5C00" strokeWidth="1.72536"
          strokeLinecap="round"/>
    <path d="M48.5777 165.904C49.0345 167.594 49.7786 169.185 50.4151 170.812C51.8582 174.502 53.1828 178.238 54.4442 181.994C56.7232 188.779 57.5547 195.552 57.5547 202.704C57.5547 204.304 57.0822 205.856 57.0822 207.482C57.0822 208.427 57.0822 209.371 57.0822 210.316"
          stroke="#FF5C00" strokeWidth="1.72536" strokeLinecap="round"/>
    <g filter="url(#filter0_i_163_434)">
        <path d="M113.731 43.294L120.263 46.9643L130.912 45.6527L132.385 41.5625L138.671 40.0439L142.697 34.7514L149.594 33.9287L149.908 41.0793L155.259 43.2308L159.33 49.1273L156.481 62.2319L157.388 72.604L162.305 73.6855L163.081 78.3625L190.837 87.5724L204.078 85.0413L222.709 93.4517L229.567 107.005L242.089 113.27L251.624 112.66L251.893 116.054L259.001 114.254L263.427 116.859L271.792 115.415L281.321 118.206L288.584 115.312L296.293 117.193L321.953 114.714L331.591 115.438L341.589 120.748L347.122 118.016L354.356 132.766L352.586 135.469L355.967 141.866L355.264 144.121L348.944 144.904L355.955 155.172L366.655 153.884L369.002 156.369L380.308 156.11L389.432 151.295L393.578 140.866L409.834 141.303L414.344 129.775L409.976 123.004L429.059 106.102L429.972 103.099L426.524 98.8826L429.499 96.6276L430.395 89.2411L434.963 89.8165L437.19 86.9918L443.042 88.8211L463.507 73.0933L473.721 74.3187L475.36 72.5296L479.654 76.8154L481.71 73.7377L488.71 72.9207L489.075 67.9562L511.692 66.8344L519.663 75.9122L523.146 85.4386L523.106 93.734L527.423 96.2882L522.627 97.9622L509.54 94.5106L504.692 97.5308L507.244 105.274L510.95 107.328L513.068 117.516L524.711 119.218L527.143 118.896L526.755 115.479L532.659 115.502L534.6 118.315L537.455 115.025L539.145 119.914L542.565 119.19L544.484 116.486L549.686 115.841L550.394 113.075L560.255 117.521L567.055 116.336L594.617 101.983L596.004 94.2344L606.562 92.6869L606.191 89.6495L610.73 92.5949L614.636 90.1327L617.525 91.709L619.74 86.5085L624.885 88.6601L625.781 101.563L635.163 98.1232L642.089 99.7627L644.281 103.473L660.406 106.332L663.598 102.576L666.675 106.016L668.16 103.191L679.54 103.726L681.441 101.719L685.752 103.416L686.803 100.027L682.475 94.7291L685.273 94.0272L683.525 89.897L693.232 86.4971L695.036 88.7234L704.423 89.0226L711.561 81.1183L720.177 82.3724L721.228 72.9553L735.611 78.7597L741.075 79.3176L743.593 77.1431L752.289 79.3751L758.034 96.104L771.281 94.4357L781.456 88.5909L796.33 97.8125L803.347 98.6467L805.808 94.4817L812.637 97.3291L821.008 94.7694L827.146 88.0157L835.905 84.518L844.515 86.3243L857.711 99.1011L862.576 109.749L859.921 113.707L861.628 117.677L866.053 118.246L867.001 114.357L871.449 114.955L884.313 124.326L891.89 123.555L893.854 127.732L889.355 133.91L868.08 143.845L865.214 153.562L866.892 161.322L864.072 164.797L867.875 174.731L878.187 174.501L878.626 196.091L882.76 206.55L874.093 210.266L870.986 215.069L874.607 219.159L881.23 215.667L887.802 216.761L883.462 243.378L887.26 251.288L878.209 254.711L874.481 259.463L859.195 263.024L862.901 269.593L859.561 273.091L860.497 275.484L872.951 276.134L878.015 279.845L878.706 285.471L878.632 295.475L875.623 302.648L870.855 303.039L866.458 299.87L861.988 302.435L862.153 305.818L871.118 306.709L872.894 310.546L865.025 317.991L860.948 317.231L860.606 319.987L867.509 320.2L870.575 322.806L869.508 316.155L878.266 316.84L877.935 322.524L893.015 332.999L891.942 343.164L899.604 343.659L905.034 348.75L912.349 349.469L914.473 353.72L918.498 355.009L920.051 361.786L907.604 366.733L914.421 375.086L902.973 384.491L895.722 384.9L893.729 379.452L886.346 381.903L881.287 370.012L870.261 378.365L865.648 387.753L859.23 390.532L859.629 396.882L852.241 402.9L851.915 411.345L845.412 422.43L845.406 429.84L855.067 443.105L846.468 450.578L842.357 451.222L845.389 456.503L837.544 459.092L835.996 461.853L832.308 459.282L826.655 461.784L814.887 450.337L805.283 448.104L800.743 442.231L806.122 438.682L805.585 418.081L803.387 414.831L796.632 416.442L796.45 407.64L806.63 399.218L803.878 392.148L808.851 383.134L810.193 370.006L806.271 361.947L792.887 352.742L787.771 345.551L782.38 344.338L770.356 347.91L765.376 356.953L759.929 354.888L758.753 351.275L750.12 357.759L737.998 348.393L731.454 349.118L730.324 345.989L723.038 343.141L722.176 354.031L718.613 358.495L720.537 361.527L715.141 362.424L706.188 353.881L696.087 352.363L693.038 349.555L688.459 350.855L691.565 346.633L690.177 338.481L683.839 336.128L677.01 337.578L675.434 324.606L668.171 322.011L659.995 323.536L646.514 317.087L637.264 316.552L633.398 320.182L631.28 317.225L621.893 314.677L620.277 309.229L614.55 308.722L612.551 304.609L609.52 313.002L614.881 314.32L618.319 321.718L615.635 330.295L608.526 333.332L606.602 336.709L611.535 344.205L611.552 348.324L607.721 350.05L611.284 362.976L596.136 368.642L597.923 378.796L594.685 390.899L584.191 388.564L580.473 390.209L579.828 386.522L568.254 377.588L557.731 382.552L557.857 384.836L563.092 386.976L558.508 388.495L556.018 395.881L557.434 397.935L554.168 403.647L556.206 409.423L550.771 407.916L550.114 414.33L545.872 412.972L545.358 417.212L546.545 423.183L552.495 423.063L551.964 427.233L556.869 426.871L555.287 432.054L560.198 432.405L567.483 443.312L554.922 445.187L548.824 460.777L545.38 457.872L542.417 461.807L542.851 477.115L533.418 480.595L532.373 477.379L526.212 478.024L526.664 487.28L523.734 486.072L520.109 488.643L524.773 490.91L517.688 493.188L521.188 494.39L516.917 503.036L522.587 506.989L520.56 510.342L515.723 508.404L515.809 511.97L510.453 514.3L506.987 508.427L497.714 507.903L503.847 498.083L499.022 496.547L499.011 490.622L495.716 492.814L492.764 489.845L483.537 495.541L484.113 500.344L478.181 507.644L479.471 512.028L475.212 511.659L472.756 519.765L466.247 522.474L467.84 527.813L461.719 527.859L458.75 523.901L457.688 526.559L453.377 523.308L449.34 523.763L445.566 532.421L451.03 534.814L448.49 537.759L449.403 542.051L444.989 542.862L444.841 557.727L431.257 563.612L423.834 559.878L423.452 565.032L429.51 568.875L426.472 573.828L420.848 574.479L422.27 580.116L418.747 581.491L417.839 587.284L414.567 586.289L408.743 576.181L403.815 584.488L403.821 577.217L397.894 577.355L397.889 582.843L393.429 583.056L393.783 589.695L386.543 591.737L384.984 596.788L374.946 597.961L375.945 604.525L379.063 607.079L376.357 610.571L380.131 610.68L374.843 613.781L375.186 618.36L379.908 618.095L378.572 625.539L384.076 626.258L380.925 633.472L377.441 633.662L376.408 628.732L368.311 631.165L364.549 625.631L355.938 628.876L356.349 635.342L354.842 629.86L349.834 626.667L344.758 631.217L341.869 628.18L327.12 631.965L322.638 628.26L321.873 620.276L318.852 624.228L314.404 619.58L311.726 626.189L303.921 619.7L298.44 620.862L296.812 615.173L291.799 612.716L289.435 623.463L284.981 624.584L285.729 628.738L289.11 629.675L288.253 634.571L294.7 639.818L294.968 646.473L290.891 651.254L296.926 660.769L296.915 664.692L292.775 668L296.178 668.086L296.458 677.532L292.924 678.688L288.818 676.364L288.681 672.17L284.65 671.584L283.999 677.106L274.698 679.701L271.757 674.391L267.349 677.129L263.015 675.513L257.106 678.498L250.311 678.216L249.632 688.295L241.632 692.535L237.726 692.322L238.497 688.381H232.696L226.632 678.981L219.637 681.858L219.443 679.867L208.458 679.936L207.099 681.864L211.906 684.395L211.529 687.835L205.3 690.579L206.716 701.331L198.488 701.221L179.748 708.17L179.503 713.198L175.243 717.875L178.812 722.011L173.125 721.723L172.354 725.595L164.908 728.563L162.202 718.421L155.818 719.244L153.352 714.981L152.758 721.971L144.513 725.233L142.891 731.572L139.625 730.22L139.985 727.936L135.657 728.385L133.829 734.799L129.319 729.495L130.438 734.638L126.538 735.703L128.405 738.056L132.128 734.736L131.7 740.178L136.787 741.03L137.238 747.478L140.401 748.249L139.511 751.937L137.29 748.704L135.183 750.125L134.891 756.878L137.963 761.072L136.182 763.994L138.506 761.026L146.625 762.43L146.779 765.312L156.418 768.602L157.588 773.941L154.351 779.078L154.739 786.516L148.224 783.611L140.282 790.796L142.897 793.017L148.424 790.324L152.484 792.344L143.114 809.694L145.466 815.74L143.302 815.843L140.995 810.89L137.455 815.809L142.811 816.792L139.888 825.554L131.203 829.828L126.172 829.592L123.455 824.064L120.714 828.073L111.898 832.486L112.258 837.398L107.827 838.336L111.35 840.89L99.6216 846.568L96.1328 845.751L92.6155 841.627L89.7606 829.54L82.2406 828.562L80.2137 822.58L76.3309 830.006L58.0593 831.669L54.2737 829.017L57.3913 827.981L47.3305 808.284L37.7036 805.172L34.5175 792.896L31.1944 790.618L32.6561 788.506L28.8362 772.589L23.2233 752.322L20.7338 752.081L25.2161 746.926L20.4712 747.864L20.3684 742.594L14.5558 733.367L14.7213 728.023L17.7076 726.774L14.6186 722.443L17.3765 717.789L15.2524 717.375L13.9562 696.717L9.87365 686.051L11.9292 674.305L9.1428 674.235L10.6673 671.031L7.15005 669.121L12.3917 662.724L8.54324 658.41L3.46145 639.161L-0.621094 635.088L3.30157 634.6L3.96391 637.28L5.92241 634.042L1.50866 624.394L-3.2705 621.783L1.34307 617.531L-1.01508 617.18L-1.24918 609.161L-6.82777 602.879L-3.10492 599.537L-8.05537 592.668L-9.61418 585.477L-7.0904 582.722L-12.6689 571.164L-14.1649 560.022L-15.6552 560.792L-19.675 554.079L-18.6815 549.017L-24.4599 540.094L-22.901 537.505L-26.721 530.407L-24.7282 522.468L-31.5001 519.281L-30.9691 511.578L-27.4861 511.751L-25.4648 516.548L-15.0043 519.034L-16.5974 523.48L-12.7146 527.95L-13.6454 517.912L-16.7287 512.976L-24.1002 512.591L-29.1134 504.675L-33.5328 502.333L-32.0711 498.341L-35.7597 487.474L-31.8085 478.736L-40.5731 459.165L-38.883 445.543L-33.2702 447.09L-30.3467 442.598L-26.7895 447.413L-25.3335 444.916L-24.6026 437.783L-32.0369 439.681L-34.2637 433.209L-28.314 432.398L-30.5066 427.589L-28.5481 424.108L-25.7275 425.552L-19.3895 420.927L-22.9068 420.622L-24.1002 413.339L-27.7202 413.449L-28.5824 417.32L-34.0925 421.928L-39.7338 420.449L-41.8236 430.396L-46.2374 434.613L-44.3474 428.216L-48.133 427.059L-45.4094 417.383L-43.9819 418.476L-42.5887 415.836L-45.2438 415.415L-43.9477 408.904L-49.5319 399.757L-49.766 385.456L-47.2766 378.834L-52.2213 373.168L-53.7801 362.128L-49.5319 358.527L-48.8011 354.115L-51.3591 356.87L-56.9377 352.498L-57.6 345.227L-54.5795 344.98L-60.6548 320.007L-65 314.243L-64.8687 311.839L-61.3514 310.97L-63.3784 302.37L-57.166 297.342L-58.1938 284.847L-54.608 276.419L-46.9339 277.892L-46.9111 274.895L-42.9313 275.384L-43.017 270.137L-38.2492 265.029L-26.7838 266.749L-24.8424 271.984L-26.4526 277.15L-24.5398 279.387L-21.1652 276.62L-22.0331 279.75L-16.9399 285.192L-16.0035 281.194L-6.57653 283.081L-1.03794 287.079L2.59925 278.271L11.2954 274.762L13.9334 267.41L18.9181 268.521L20.6824 266.622L21.4875 269.263L28.1338 267.531L27.3573 248.916L23.5203 244.049L28.111 240.96L36.5959 224.875L34.3348 224.484L34.2149 219.33L29.3786 217.857L24.8792 211.782L29.3272 208.934L30.9717 203.101L34.4261 202.238L36.3161 210.395L41.0896 207.784L49.3232 212.587L52.8462 219.887L56.9002 222.05L60.5203 220.003L66.1617 221.412L76.9305 215.222L77.7755 208.652L75.0634 205.23L79.9567 205.166L82.5833 200.65L86.8029 201.433L90.2288 199.028L89.6978 186.499L83.7138 173.682L85.0785 168.165L74.3153 166.514L73.2761 163.108L69.3478 164.667L65.4422 158.886L66.687 151.373L55.6155 152.103L47.0507 144.464L50.0255 143.411L52.8005 148.986L58.1678 146.483L64.7856 148.266L65.3794 144.562L75.0519 143.946L76.1996 131.676L83.3541 132.32L90.1089 127.81L90.6285 114.331L92.5242 115.654L102.065 112.134L104.292 104.103L109.288 108.464L111.669 106.467L122.866 107.048L123.637 104.402L126.104 106.554L135.434 102.325L135.542 96.4807L132.807 93.3858L128.553 97.1941L124.728 95.3301L121.165 97.752L118.544 94.105L104.612 94.1163L79.6313 102.32L75.2918 89.1229L70.8837 85.6771L82.6004 83.0999L83.8851 75.9896L76.0968 67.9243L77.7413 64.3405L73.6245 60.1295L113.731 43.2913V43.294Z"
              fill="#FCFCFC"/>
    </g>
    <rect x="409.385" y="272.623" width="403.077" height="207.919" fill="#FCFCFC"/>
    <defs>
        <filter id="filter0_i_163_434" x="-65" y="33.9287" width="985.052" height="815.623" filterUnits="userSpaceOnUse"
                color-interpolation-filters="sRGB">
            <feFlood flood-opacity="0" result="BackgroundImageFix"/>
            <feBlend mode="normal" in="SourceGraphic" in2="BackgroundImageFix" result="shape"/>
            <feColorMatrix in="SourceAlpha" type="matrix" values="0 0 0 0 0 0 0 0 0 0 0 0 0 0 0 0 0 0 127 0"
                           result="hardAlpha"/>
            <feOffset dy="2.98315"/>
            <feGaussianBlur stdDeviation="1.49158"/>
            <feComposite in2="hardAlpha" operator="arithmetic" k2="-1" k3="1"/>
            <feColorMatrix type="matrix" values="0 0 0 0 0 0 0 0 0 0 0 0 0 0 0 0 0 0 0.25 0"/>
            <feBlend mode="normal" in2="shape" result="effect1_innerShadow_163_434"/>
        </filter>
    </defs>
</svg>
