<svg width="428" height="378" viewBox="0 0 428 378" fill="none" xmlns="http://www.w3.org/2000/svg">
    <path d="M81.6494 182.693C81.6494 188.593 79.0508 194.02 79.0508 199.821C79.0508 204.456 78.9184 209.112 79.0508 213.745C79.0835 214.889 79.5233 215.873 79.5233 217.066C79.5233 218.129 79.5233 219.192 79.5233 220.255C79.5233 222.622 79.5233 224.989 79.5233 227.355C79.5233 231.346 80.9407 235.004 80.9407 238.918"
          stroke="#F4B400" strokeWidth="1.72536" strokeLinecap="round"/>
    <path d="M80.708 238.907C80.6876 239.071 79.9906 239.415 79.8569 239.482C79.4479 239.687 78.9384 239.819 78.482 239.919C77.1234 240.216 75.6775 240.282 74.2917 240.282C73.707 240.282 73.0359 240.402 72.4621 240.508C71.8805 240.615 71.2308 240.544 70.6398 240.544C69.1025 240.544 67.5651 240.544 66.0277 240.544C64.9183 240.544 63.8089 240.544 62.6995 240.544C62.2157 240.544 61.732 240.544 61.2482 240.544C60.4374 240.544 59.6361 240.379 58.8367 240.246C57.614 240.042 56.3446 239.844 55.2102 239.337C54.8012 239.154 54.422 239.048 54.0244 238.809C53.8563 238.708 53.6655 238.53 53.4861 238.464C53.3505 238.413 53.2103 238.409 53.0933 238.304C52.9835 238.205 52.6959 238.17 52.6859 237.991C52.6624 237.567 52.6859 237.135 52.6859 236.71C52.6859 234.746 52.6204 232.791 52.6204 230.825C52.6204 229.83 52.555 228.84 52.555 227.843C52.555 227.399 52.4895 226.963 52.4895 226.519C52.4895 225.966 52.5287 225.396 52.4749 224.845C52.3692 223.761 52.3152 222.673 52.1949 221.59C52.1409 221.105 52.1646 220.618 52.1112 220.131C52.0545 219.615 51.9141 219.101 51.9002 218.582C51.8858 218.039 51.7489 217.507 51.6711 216.971C51.5801 216.344 51.5276 215.716 51.4419 215.09C51.2604 213.762 51.3765 212.362 51.3765 211.023C51.3765 208.892 51.538 206.705 51.1509 204.604C50.9866 203.711 50.9114 202.752 50.8418 201.846C50.7829 201.081 50.6831 200.304 50.5762 199.544C50.5112 199.082 50.4183 198.501 50.2489 198.067C50.1307 197.765 50.1294 197.469 50.0306 197.172C49.968 196.985 49.8706 196.782 49.8706 196.58C49.8706 196.334 49.7397 196.074 49.7397 195.827"
          stroke="#F4B400" strokeWidth="1.72536" strokeLinecap="round"/>
    <path d="M49.8984 196.175C49.8984 195.216 49.3053 194.31 48.9062 193.464C48.4783 192.557 48.1154 191.491 47.9446 190.518C47.7696 189.52 47.5968 188.61 47.5968 187.593C47.5968 186.632 47.3041 185.662 47.0445 184.739C46.681 183.446 46.5139 182.08 46.0318 180.821C45.8294 180.293 45.7385 179.746 45.5254 179.225C45.3406 178.773 45.1318 178.15 45.0395 177.67C44.8688 176.783 44.4366 175.774 44.0984 174.929C43.7343 174.019 43.1542 173.167 42.83 172.259C42.2712 170.694 41.4675 169.143 40.6921 167.635C40.3232 166.918 39.8113 166.273 39.4543 165.559C39.2295 165.109 38.8556 164.763 38.6155 164.326C38.4328 163.994 38.1127 163.436 37.8381 163.196C37.5399 162.935 37.2673 162.402 37.0198 162.066C36.7703 161.727 36.5093 161.429 36.2526 161.099C35.6472 160.321 34.8038 159.753 34.1044 159.073C32.4957 157.511 30.5596 156.281 28.8364 154.839C28.0391 154.171 27.2095 153.58 26.3506 152.997C25.4925 152.415 24.4974 152 23.6603 151.412C22.4385 150.553 20.9997 150.134 19.7016 149.519C19.2721 149.316 18.6337 149.24 18.157 149.223C17.2827 149.191 16.4674 148.901 15.5997 148.854C14.727 148.807 13.8107 148.378 12.9605 148.19C12.387 148.062 11.8292 147.812 11.2778 147.617C10.747 147.428 10.2285 147.121 9.66668 147.105C9.23097 147.093 8.57719 146.675 8.19367 146.466C7.72986 146.213 7.1999 146.049 6.72065 145.816C5.97697 145.455 5.04002 145.086 4.41906 144.527C3.28159 143.504 2.34052 142.262 1.47303 141.009C1.14503 140.535 0.849063 139.996 0.480792 139.536C0.393304 139.426 0.408409 139.113 0.322239 138.958C0.234427 138.8 0.0920816 138.627 0.0920816 138.451C0.0920816 137.653 0.0920816 136.856 0.0920816 136.058"
          stroke="#F4B400" strokeWidth="1.72536" strokeLinecap="round"/>
    <path d="M0.00032453 135.873C0.00032453 135.288 0.0715288 134.708 0.0923876 134.144C0.120173 133.394 -0.0155446 132.499 0.189566 131.781C0.25171 131.564 0.386843 131.39 0.481102 131.178C0.609295 130.89 0.687273 130.609 0.828896 130.308C0.998323 129.948 1.19924 128.619 1.60632 128.503C1.64951 128.491 1.96706 127.963 2.04618 127.884C2.25399 127.676 2.53102 127.574 2.74177 127.383C3.26197 126.91 4.0121 126.672 4.55747 126.247C5.77827 125.298 7.13371 124.378 8.75147 124.176C9.60828 124.069 10.4546 123.997 11.3241 123.997C12.1149 123.997 13.0335 123.916 13.7894 123.7C14.8155 123.407 15.9625 123.076 17.0372 123.076C18.2323 123.076 19.4274 123.076 20.6226 123.076C21.2363 123.076 21.8501 123.076 22.4638 123.076C22.9361 123.076 23.7401 123.135 24.1721 122.933C25.4701 122.327 27.1535 122.482 28.54 122.268C29.3209 122.148 30.1854 122.248 30.9746 122.248C31.9412 122.248 32.9079 122.248 33.8746 122.248C34.7969 122.248 35.7193 122.248 36.6416 122.248"
          stroke="#F4B400" strokeWidth="1.72536" strokeLinecap="round"/>
    <path d="M37.4687 122.34C38.9507 122.34 40.5235 122.337 42.0003 122.453C44.0197 122.611 46.0415 122.49 48.056 122.637C49.6542 122.753 51.2612 122.709 52.8638 122.709C53.641 122.709 54.4189 122.7 55.1961 122.709C55.8346 122.716 56.4603 122.885 57.0987 122.893C60.1766 122.931 63.1778 123.487 66.1721 124.161C67.03 124.354 67.9808 124.538 68.8624 124.55C69.3225 124.556 69.807 124.505 70.2638 124.57C70.8606 124.656 71.4083 124.788 72.013 124.847C72.8265 124.926 73.6428 124.96 74.4578 125.031C76.35 125.195 78.2924 125.422 80.1657 125.747C81.0671 125.903 81.9713 125.942 82.8765 126.064C83.9514 126.208 85.1422 126.242 86.1908 126.504C87.4138 126.809 88.7438 126.842 89.9449 127.22C90.9411 127.533 91.8977 127.805 92.8705 128.212C94.0662 128.712 95.4117 129.12 96.6656 129.45C97.4794 129.664 98.273 130.088 99.0387 130.401C100.271 130.905 101.4 131.612 102.558 132.191"
          stroke="#F4B400" strokeWidth="1.72536" strokeLinecap="round"/>
    <path d="M102.557 132.467C103.278 132.57 103.95 133.149 104.588 133.485C105.161 133.786 105.802 134.149 106.245 134.635C106.778 135.221 107.603 135.585 108.127 136.149C108.703 136.77 109.509 137.21 109.922 137.991C110.335 138.769 110.811 139.572 111.048 140.425C111.171 140.868 111.396 141.305 111.396 141.77C111.396 142.275 111.396 142.78 111.396 143.284C111.396 144.301 110.834 145.757 110.194 146.558C109.594 147.307 109.162 147.888 108.352 148.394C107.968 148.634 107.461 148.692 107.074 148.91C106.648 149.15 106.243 149.402 105.739 149.499C105.002 149.639 104.255 149.919 103.55 150.163C102.741 150.443 101.867 150.551 101.064 150.879C100.615 151.063 100.156 151.113 99.7034 151.289C99.2258 151.474 98.6409 151.701 98.1435 151.8C97.0313 152.023 96.0436 152.641 95.0082 153.048C91.7743 154.319 89.7824 157.637 88.216 160.526C87.8106 161.273 87.3318 162.179 87.1317 163.011C86.9044 163.956 86.4754 164.845 86.2622 165.794C85.9998 166.961 85.536 168.218 84.8812 169.2"
          stroke="#F4B400" strokeWidth="1.72536" strokeLinecap="round"/>
    <path d="M84.7891 169.477C84.7891 170.751 83.9005 171.707 83.6792 172.924C83.6187 173.257 83.4166 173.567 83.3365 173.896C83.2533 174.238 83.2377 174.598 83.1524 174.949C82.9792 175.661 82.8417 176.329 82.6256 177.021C82.4233 177.668 82.4405 178.392 82.2573 179.051C82.1115 179.576 82.2259 180.197 81.9351 180.688C81.7877 180.937 81.8266 181.294 81.751 181.578C81.6977 181.778 81.5668 182.024 81.5668 182.227C81.5668 182.601 81.4748 182.983 81.4748 183.378"
          stroke="#F4B400" strokeWidth="1.72536" strokeLinecap="round"/>
    <path d="M102.095 147.168C101.717 146.743 101.306 146.791 100.852 146.494C100.211 146.075 99.5015 145.766 98.7783 145.483C95.9447 144.374 92.8899 143.51 89.8997 142.99C88.1911 142.693 86.3142 142.665 84.6519 142.182C83.5767 141.869 82.3662 141.778 81.2532 141.778C79.7204 141.778 78.2768 141.651 76.7615 141.441C75.6867 141.291 74.5371 141.302 73.4526 141.246C72.3399 141.189 71.2063 140.984 70.0988 140.969C67.3875 140.931 64.7174 140.565 62.0062 140.565C59.8049 140.565 57.6148 140.161 55.4109 140.161C52.9641 140.161 50.511 139.784 48.0594 139.756C42.8294 139.698 37.6049 139.622 32.3684 139.622C29.7831 139.622 27.1979 139.622 24.6127 139.622C23.6142 139.622 22.798 140.008 21.8428 140.161C20.8014 140.327 19.6866 140.641 18.6836 140.969C17.0832 141.493 15.4131 141.686 13.8251 142.242C12.316 142.77 10.8369 143.212 9.25102 143.529"
          stroke="#F4B400" strokeWidth="1.72536" strokeLinecap="round"/>
    <path d="M36.0523 98.7012C36.3852 98.7428 36.9868 99.1676 37.2611 99.3562C37.6986 99.6569 38.1869 99.8875 38.6578 100.17C38.9241 100.33 39.2964 100.466 39.5873 100.589C39.846 100.699 40.085 100.952 40.3482 101.09C41.0255 101.445 41.5921 102.03 42.2939 102.342C42.5989 102.478 42.7559 102.756 43.0067 102.949C43.2117 103.107 43.4862 103.357 43.6424 103.556C44.0907 104.126 44.6591 104.558 45.0246 105.208C45.812 106.608 46.3604 108.117 47.2737 109.446C48.0178 110.528 48.4958 111.749 48.7281 113.092C48.9815 114.555 48.7956 116.201 48.7956 117.686C48.7956 118.429 48.7738 119.03 48.208 119.574C47.9982 119.776 47.5623 119.946 47.4278 120.2C47.2497 120.536 46.7727 121.212 46.3683 121.414"
          stroke="#F4B400" strokeWidth="1.72536" strokeLinecap="round"/>
    <path d="M37.0908 99.2214C36.6236 99.2214 36.2143 99.0174 35.7568 98.918C35.2655 98.8112 34.7611 98.7689 34.2686 98.682C33.2912 98.5095 32.2667 98.1811 31.2634 98.1811C30.3451 98.1811 29.4269 98.1811 28.5086 98.1811C27.5702 98.1811 26.5109 98.0073 25.643 98.3978C25.4068 98.5042 25.1388 98.472 24.9158 98.576C24.6969 98.6782 24.5069 98.8099 24.2801 98.8939C23.8417 99.0563 23.4476 99.3835 23.0424 99.6115C22.5814 99.8708 22.0765 99.9945 21.6891 100.368C21.5222 100.528 21.2988 100.553 21.14 100.695C21.01 100.811 20.9076 100.954 20.7547 101.042C20.4206 101.233 20.0434 101.635 19.753 101.909C19.5238 102.125 19.1954 102.536 18.9246 102.684C18.581 102.872 18.3908 103.212 18.1252 103.488C17.8168 103.809 17.4009 104.17 17.1523 104.529C16.9441 104.829 16.6936 105.185 16.5407 105.516C16.4329 105.75 16.2389 105.93 16.2036 106.195C16.1779 106.388 16.1316 106.575 16.0254 106.744C15.7979 107.105 15.693 107.683 15.5534 108.102C15.4322 108.466 15.2867 108.804 15.1777 109.171C15.0679 109.542 15.1425 109.963 15.0284 110.351C14.8573 110.933 14.8074 111.54 14.7058 112.138C14.5477 113.069 14.465 113.931 14.465 114.874C14.465 115.474 14.3009 116.42 14.595 116.949C14.7687 117.262 14.8225 117.621 14.9851 117.946C15.08 118.136 15.1431 118.277 15.1585 118.486C15.1784 118.754 15.4517 118.93 15.5004 119.198C15.6342 119.934 16.0259 120.565 16.2854 121.279C16.3904 121.567 16.5627 121.905 16.6996 122.194C16.8311 122.472 16.9306 122.839 17.1523 123.061"
          stroke="#F4B400" strokeWidth="1.72536" strokeLinecap="round"/>
    <path d="M30.7622 98.0942C30.8105 97.6107 31.048 97.0764 31.1956 96.6204C31.5471 95.535 31.8715 94.437 32.1877 93.3407C32.3663 92.7216 32.5866 92.1141 32.8909 91.5491C33.0234 91.303 33.1895 91.0125 33.1895 90.7256"
          stroke="#F4B400" strokeWidth="1.72536" strokeLinecap="round"/>
    <path d="M30.5049 96.4471C30.4744 96.2029 30.2112 96.0451 30.0907 95.8402C30.0216 95.7228 29.7353 95.5317 29.6187 95.4453C29.3538 95.249 29.0988 95.0461 28.8289 94.8481C28.3749 94.5152 27.8519 94.4498 27.3167 94.3472C26.4108 94.1738 25.6304 94.1064 24.7015 94.1064C23.9386 94.1064 23.152 94.2931 22.4428 94.5832C21.9064 94.8027 21.3269 94.8887 20.7957 95.1467C20.1052 95.4821 19.5926 96.0355 18.9752 96.4471"
          stroke="#F4B400" strokeWidth="1.72536" strokeLinecap="round"/>
    <path d="M23.6553 98.2676C22.6086 98.2676 21.5619 98.2676 20.5152 98.2676C19.9074 98.2676 19.7055 98.123 19.2293 97.7956C18.9517 97.6048 18.7149 97.2711 18.4539 97.1406"
          stroke="#F4B400" strokeWidth="1.72536" strokeLinecap="round"/>
    <path d="M32.844 94.1933C34.3649 94.055 35.6953 93.2709 37.2218 93.1578C37.8857 93.1087 38.5673 93.1432 39.2108 93.3071C40.1116 93.5366 40.8813 94.1994 41.5803 94.8001C42.1848 95.3195 42.7082 95.8804 43.1167 96.5339C43.2685 96.7768 43.448 97.0616 43.5742 97.3141C43.6537 97.4732 43.7953 97.5729 43.8535 97.7475"
          stroke="#F4B400" strokeWidth="1.72536" strokeLinecap="round"/>
    <path d="M43.4219 97.9207C43.3965 97.7176 42.1224 97.834 41.9048 97.834C41.6534 97.834 41.4 97.8247 41.1487 97.834C40.8925 97.8435 40.6874 98.0935 40.4359 98.1615C39.306 98.4668 37.4952 99.7488 36.3134 98.9609"
          stroke="#F4B400" strokeWidth="1.72536" strokeLinecap="round"/>
    <path d="M19.2852 110.117C19.2852 110.925 18.7811 111.551 18.7811 112.376C18.7811 112.964 18.7811 113.552 18.7811 114.14C18.7811 115.276 19.2852 118.645 19.2852 117.509"
          stroke="#F4B400" strokeWidth="1.72536" strokeLinecap="round"/>
    <path d="M20.9639 107.597C20.9412 107.779 20.7083 107.94 20.6279 108.101" stroke="#F4B400" strokeWidth="1.72536"
          strokeLinecap="round"/>
    <path d="M48.5777 166.629C49.0345 168.32 49.7786 169.91 50.4151 171.538C51.8582 175.228 53.1828 178.964 54.4442 182.72C56.7232 189.505 57.5547 196.278 57.5547 203.43C57.5547 205.029 57.0822 206.581 57.0822 208.207C57.0822 209.152 57.0822 210.097 57.0822 211.042"
          stroke="#F4B400" strokeWidth="1.72536" strokeLinecap="round"/>
    <path d="M158.155 75.167C158.155 74.1323 158.279 73.1119 158.279 72.107C158.279 70.8723 158.305 69.5847 158.711 68.4378C159.16 67.1704 159.267 65.6153 159.267 64.2632C159.267 63.0232 159.68 61.7753 160.001 60.6425C160.195 59.9559 160.43 59.2667 160.625 58.5794C160.807 57.9354 161.243 57.0607 161.243 56.4125C161.243 55.8376 161.736 55.3877 161.736 54.7925C161.736 54.2223 162.129 53.1939 162.416 52.674C162.683 52.1893 162.697 51.6568 162.971 51.1717C163.274 50.6368 163.501 49.8878 163.712 49.3025C164.124 48.1592 165.067 47.1145 165.325 45.9448C165.437 45.435 166.118 44.9388 166.182 44.3872C166.215 44.1092 166.719 43.4157 166.896 43.2379C167.668 42.4581 167.89 41.1506 168.899 40.5518C169.28 40.3257 169.5 39.8681 169.887 39.6241C170.246 39.3975 170.751 38.8493 170.998 38.5026C171.498 37.8025 172.21 37.1828 172.823 36.5641C173.357 36.025 174.131 35.5177 174.552 34.9164C174.776 34.5966 175.279 34.4292 175.567 34.1687C175.784 33.9728 175.985 33.711 176.212 33.5457C176.774 33.1377 177.651 32.4157 178.01 31.8011C178.24 31.4053 178.831 30.937 179.245 30.7764C179.501 30.677 179.956 30.2228 180.164 30.0288C180.42 29.7892 180.823 29.4594 181.152 29.3365C181.878 29.065 182.421 28.3466 183.1 27.9657C183.795 27.5765 184.432 27.1274 185.104 26.6918C186.617 25.7099 188.238 24.9788 189.837 24.1719C191.123 23.5234 192.469 22.796 193.906 22.4549C196.314 21.8832 198.704 21.0432 201.199 20.8419C202.314 20.7518 203.404 20.5581 204.519 20.468C205.527 20.3867 206.654 20.4384 207.627 20.1496C209.48 19.5996 211.738 19.838 213.671 19.838C215.747 19.838 217.824 19.838 219.9 19.838C221.364 19.838 223.247 20.0827 224.579 20.7034C225.319 21.0481 226.272 21.0561 227.008 21.4026C228.312 22.0167 229.709 22.4403 231.069 22.898C231.412 23.0132 232.039 23.35 232.311 23.5765C232.829 24.0068 233.61 24.2221 234.191 24.5942C236.614 26.145 239.337 27.2811 241.566 29.1218C242.477 29.8741 243.53 30.4839 244.475 31.2057C244.994 31.602 245.584 31.9958 246.053 32.4518C246.462 32.8503 247.059 33.1107 247.411 33.5457C248.167 34.4779 249.222 35.2067 250.128 35.9687C250.584 36.3524 251.006 36.9755 251.39 37.4364C251.836 37.9712 252.327 38.5191 252.804 39.0287C253.716 40.0039 254.384 41.2107 255.315 42.1856C255.918 42.8183 256.223 43.6555 256.824 44.2625C257.751 45.1976 258.585 46.2561 259.417 47.2533C259.855 47.778 259.744 48.849 260.158 49.3717C260.352 49.6155 260.498 50.0617 260.529 50.3687C260.57 50.7818 261.008 51.084 261.023 51.4625C261.046 52.0414 261.571 52.5132 261.64 53.1102C261.709 53.6971 262.318 54.3905 262.477 54.9794C262.609 55.4682 262.796 56.2996 263.149 56.6963C263.586 57.1856 263.46 57.8735 263.739 58.4686C264.005 59.0342 264.239 59.6092 264.48 60.1855C264.757 60.8464 264.914 61.5702 265.221 62.2071C265.422 62.6228 265.962 63.5057 265.962 63.9517"
          stroke="white" strokeWidth="1.94587" strokeLinecap="round"/>
    <path d="M263.37 57.2227C263.421 57.6881 263.869 58.2738 264.049 58.718C264.282 59.2925 264.441 60.0157 264.79 60.5249C265.099 60.9755 265.123 61.5078 265.277 62.0203C265.417 62.4841 265.593 62.8979 265.593 63.3842C265.593 63.9949 265.697 64.7451 265.902 65.3226C266.105 65.8972 265.993 66.5937 266.279 67.1295C266.573 67.6797 266.704 68.4484 266.704 69.0611C266.704 69.9225 266.828 70.7991 266.828 71.678C266.828 72.8554 267.075 73.9646 267.075 75.1672"
          stroke="white" strokeWidth="1.94587" strokeLinecap="round"/>
    <path d="M199.297 15.019C199.359 15.7664 199.365 16.5146 199.46 17.261C199.501 17.5784 199.532 17.8761 199.532 18.1973C199.532 18.4336 199.532 18.6699 199.532 18.9062C199.532 19.1931 199.476 19.5817 199.65 19.0545"
          stroke="white" strokeWidth="1.94587" strokeLinecap="round"/>
    <path d="M203.825 13.8916C203.825 14.5569 203.853 15.213 203.881 15.8764C203.9 16.3344 203.829 16.8199 203.897 17.2743C203.939 17.5526 204.023 17.8235 204.057 18.1018C204.065 18.1656 204.06 18.4491 204.06 18.4018"
          stroke="white" strokeWidth="1.94587" strokeLinecap="round"/>
    <path d="M207.822 13.417V17.9272" stroke="white" strokeWidth="1.94587" strokeLinecap="round"/>
    <path d="M212.234 13.0605C212.234 14.0937 212.528 15.1052 212.528 16.1465C212.528 16.5817 212.528 17.0169 212.528 17.4521"
          stroke="white" strokeWidth="1.94587" strokeLinecap="round"/>
    <path d="M217.234 12.9419C217.234 14.5967 217.175 16.2939 217.175 17.9269" stroke="white" strokeWidth="1.94587"
          strokeLinecap="round"/>
    <path d="M221.469 13.9507C221.493 14.6442 221.586 15.3262 221.586 16.0278C221.586 16.388 221.645 16.7363 221.645 17.096C221.645 17.4521 221.645 17.8081 221.645 18.1642"
          stroke="white" strokeWidth="1.94587" strokeLinecap="round"/>
    <path d="M225.056 14.8408C225.49 16.3002 225.526 17.8412 225.526 19.3511" stroke="white" strokeWidth="1.94587"
          strokeLinecap="round"/>
    <path d="M197.531 13.3573C198.319 12.5623 199.488 12.2291 200.531 11.966C201.203 11.7963 201.872 11.6544 202.563 11.5506C203.381 11.4276 204.177 11.1915 205 11.089C206.441 10.9098 207.815 10.5681 209.28 10.5681C210.853 10.5681 212.425 10.5681 213.998 10.5681C214.85 10.5681 215.701 10.5681 216.553 10.5681C217.363 10.5681 218.258 10.4577 219.049 10.6571C219.796 10.8456 220.59 10.9233 221.349 11.0692C222.214 11.2356 223.019 11.6591 223.849 11.933C224.707 12.2164 225.535 12.5747 226.374 12.8826C226.51 12.9324 226.676 12.9843 226.818 13.0012C226.959 13.0179 227.063 13.1793 227.23 13.1793"
          stroke="white" strokeWidth="1.94587" strokeLinecap="round"/>
    <path d="M208.118 7.95703C208.892 8.2081 209.783 8.18949 210.588 8.19441C211.638 8.20083 212.688 8.19441 213.738 8.19441C214.374 8.19441 215.01 8.19441 215.646 8.19441"
          stroke="white" strokeWidth="1.94587" strokeLinecap="round"/>
    <path d="M209.646 4.87094C210.833 4.87094 212.048 4.92095 213.22 4.69291C213.568 4.62513 213.994 4.57422 214.35 4.57422"
          stroke="white" strokeWidth="1.94587" strokeLinecap="round"/>
    <path d="M210.646 1.78493C211.509 1.78493 212.387 1.72559 213.234 1.72559" stroke="white" strokeWidth="1.94587"
          strokeLinecap="round"/>
    <path d="M200.233 62.2173C200.461 64.285 200.709 66.4203 200.709 68.512C200.709 69.7177 200.709 70.9233 200.709 72.1289C200.709 72.6158 200.701 73.1037 200.709 73.5905C200.719 74.132 200.899 74.6343 200.899 75.1802C200.899 79.0165 201.185 82.8075 201.185 86.6495C201.185 90.1466 200.995 93.6171 200.995 97.1159C200.995 99.6693 201.09 102.212 201.09 104.755"
          stroke="white" strokeWidth="1.94587" strokeLinecap="round"/>
    <path d="M223.928 61.6411C223.928 69.8377 223.833 78.0411 223.833 86.244C223.833 92.3872 224.118 98.5177 224.118 104.659"
          stroke="white" strokeWidth="1.94587" strokeLinecap="round"/>
    <path d="M208.703 105.043C208.703 103.105 208.798 101.223 208.798 99.2819C208.798 98.2256 208.798 97.1694 208.798 96.1131C208.798 95.2016 208.618 94.0684 208.819 93.1792C208.98 92.4688 208.705 91.6363 208.915 90.9493C209.138 90.218 209.343 89.5715 209.655 88.8635C210.144 87.7526 211.98 87.9513 212.964 87.9513C213.565 87.9513 214.511 88.235 214.941 88.6234C215.197 88.8543 215.393 88.9689 215.554 89.2529C215.677 89.4689 215.787 89.9062 215.983 90.0638C216.161 90.2077 216.228 90.6227 216.337 90.832C216.501 91.1473 216.531 91.4596 216.649 91.7922C216.899 92.5006 216.982 93.427 216.982 94.1714C216.982 97.7432 217.077 101.283 217.077 104.851"
          stroke="white" strokeWidth="1.94587" strokeLinecap="round"/>
    <path d="M203.566 81.2295C204.784 81.2295 205.966 81.5176 207.193 81.5176C209.741 81.5176 212.289 81.5176 214.837 81.5176C216.789 81.5176 218.742 81.5176 220.694 81.5176"
          stroke="white" strokeWidth="1.94587" strokeLinecap="round"/>
    <path d="M200.712 58.6646C200.528 58.6877 200.111 58.9287 200.379 59.145C200.416 59.1752 200.448 58.9659 200.421 59.0062C200.36 59.0983 200.057 59.2406 200.045 59.0489C200.018 58.5847 200.385 58.4456 200.516 58.9101C200.573 59.1105 200.499 58.8145 200.527 58.7179C200.574 58.5527 200.834 58.8339 200.902 58.8567"
          stroke="white" strokeWidth="1.94587" strokeLinecap="round"/>
    <path d="M223.93 59.0489C223.955 58.8415 224.145 59.0954 224.194 59.1664C224.276 59.2839 223.98 59.4056 223.882 59.1877C223.78 58.9614 223.959 58.7254 224.02 59.0009C224.089 59.3144 223.799 59.1347 223.739 58.9528"
          stroke="white" strokeWidth="1.94587" strokeLinecap="round"/>
    <path d="M194.621 64.5221C195.153 64.5221 195.767 64.613 196.292 64.5168C197.072 64.3735 197.991 64.4011 198.734 64.1167C199.2 63.9382 199.612 63.6141 200.066 63.4445C200.257 63.3732 200.406 63.1353 200.574 63.0871C201.001 62.9637 201.547 62.6358 201.969 62.6017C202.25 62.579 202.413 62.3136 202.709 62.3136C203.021 62.3136 203.333 62.2176 203.661 62.2176C204.502 62.2176 205.5 62.0604 206.304 62.2923C206.77 62.4266 207.416 62.3136 207.901 62.3136C208.503 62.3136 209.106 62.3136 209.709 62.3136C210.928 62.3136 212.147 62.3136 213.367 62.3136C214.554 62.3136 215.808 62.2094 216.983 62.3883C217.666 62.4924 218.68 62.1983 219.314 62.5537C219.473 62.643 219.798 62.6516 219.98 62.6923C220.443 62.7962 220.911 62.8793 221.36 63.0604C221.567 63.1443 221.73 63.0866 221.931 63.1991C222.256 63.3817 222.628 63.557 222.977 63.6579C223.659 63.8545 224.247 64.4447 224.976 64.5221C225.496 64.5773 225.978 64.8102 226.498 64.8102C227.304 64.8102 228.111 64.7482 228.898 64.5968C229.346 64.5108 229.807 64.3832 230.257 64.3354C230.434 64.3166 230.606 64.2444 230.78 64.234C231.256 64.2058 229.827 64.2797 229.353 64.3301"
          stroke="white" strokeWidth="1.94587" strokeLinecap="round"/>
    <path d="M194.431 69.6111C195.367 69.7056 196.238 69.632 197.169 69.6111C197.602 69.6014 198.92 69.8399 199.188 69.3657C199.265 69.2297 199.505 69.1099 199.627 68.987C199.844 68.7687 200.145 68.6073 200.383 68.4109C200.982 67.9167 201.909 67.4739 202.656 67.2853C204.901 66.719 207.252 66.8265 209.555 66.8265C212.108 66.8265 214.662 66.8265 217.215 66.8265C217.909 66.8265 218.58 66.8509 219.266 66.9279C219.685 66.9749 220.015 67.2185 220.408 67.3066C220.614 67.3527 220.782 67.4312 220.926 67.5893C221.061 67.7378 221.195 67.6454 221.36 67.712C222.406 68.1344 223.495 68.4867 224.595 68.7949C225.218 68.9697 225.766 69.226 226.403 69.3177C226.995 69.4031 227.547 69.7071 228.158 69.7071C228.654 69.7071 229.092 69.8032 229.591 69.8032C229.835 69.8032 231.007 69.7163 230.59 69.6111"
          stroke="white" strokeWidth="1.94587" strokeLinecap="round"/>
    <path d="M194.239 74.4124C195.794 74.4124 197.475 74.5312 198.997 74.199C199.75 74.0348 200.259 73.5169 200.9 73.1215C201.568 72.7096 202.252 72.4051 202.972 72.1079C203.433 71.9178 203.89 71.9337 204.368 71.8198C204.91 71.6907 205.536 71.5318 206.097 71.5318C207.131 71.5318 208.165 71.5318 209.2 71.5318C211.413 71.5318 213.626 71.5318 215.84 71.5318C217.246 71.5318 218.874 71.3297 220.259 71.6491C220.861 71.788 221.548 71.782 222.125 71.9639C222.704 72.1465 223.244 72.3684 223.811 72.5667C226.1 73.3662 228.404 74.0283 230.874 74.0283"
          stroke="white" strokeWidth="1.94587" strokeLinecap="round"/>
    <path d="M211.366 55.3999C210.557 55.3999 210.224 56.5049 210.224 57.203C210.224 57.7335 210.192 58.0418 210.584 58.3979C210.796 58.5911 211.508 58.4991 211.794 58.5633C212.198 58.6538 212.864 58.6157 213.222 58.4246C214.081 57.9655 213.749 57.0287 213.655 56.2694C213.548 55.4037 212.475 55.3999 211.747 55.3999"
          stroke="white" strokeWidth="1.94587" strokeLinecap="round"/>
    <path d="M159.07 77.6392C164.78 77.6392 170.445 78.1243 176.147 78.1243C180.258 78.1243 184.368 78.1243 188.479 78.1243C189.76 78.1243 191.356 78.3693 192.565 77.9626"
          stroke="white" strokeWidth="1.94587" strokeLinecap="round"/>
    <path d="M147.372 82.1671C158.478 82.1671 169.583 82.1671 180.689 82.1671C184.5 82.1671 188.31 82.1671 192.121 82.1671C192.884 82.1671 193.646 82.1671 194.409 82.1671C194.685 82.1671 195.596 82.3189 195.13 82.0054"
          stroke="white" strokeWidth="1.94587" strokeLinecap="round"/>
    <path d="M140 87.3424C152.121 87.3424 164.29 87.6739 176.38 86.8932C182.605 86.4911 188.889 86.6955 195.13 86.6955"
          stroke="white" strokeWidth="1.94587" strokeLinecap="round"/>
    <path d="M233.371 77.9878C239.783 77.9878 246.196 77.9537 252.607 77.9878C256.911 78.0106 261.209 78.2178 265.511 78.2178"
          stroke="white" strokeWidth="1.94587" strokeLinecap="round"/>
    <path d="M228.812 81.8984C239.493 81.8984 250.181 82.0134 260.864 82.0134C262.719 82.0134 264.575 82.0134 266.43 82.0134C268.513 82.0134 270.662 81.8573 272.736 82.071C274.424 82.2447 276.126 82.2435 277.821 82.2435"
          stroke="white" strokeWidth="1.94587" strokeLinecap="round"/>
    <path d="M228.812 87.0741C232.207 87.0741 235.602 87.1163 238.994 86.9846C240.623 86.9214 242.235 86.6526 243.863 86.6204C245.237 86.5933 246.612 86.614 247.985 86.614C253.828 86.614 259.663 86.499 265.506 86.499C271.89 86.499 291.044 86.614 284.659 86.614"
          stroke="white" strokeWidth="1.94587" strokeLinecap="round"/>
    <path d="M236.563 89.834C236.563 91.0747 236.791 92.3089 236.791 93.5654C236.791 94.3237 236.791 95.0819 236.791 95.8401C236.791 96.56 236.791 97.2799 236.791 97.9998"
          stroke="white" strokeWidth="1.94587" strokeLinecap="round"/>
    <path d="M244.541 90.1792C244.618 91.4171 244.983 92.6175 244.997 93.8595C245.005 94.5686 244.997 95.2781 244.997 95.9872C244.997 96.63 244.883 97.2611 244.883 97.8849"
          stroke="white" strokeWidth="1.94587" strokeLinecap="round"/>
    <path d="M252.292 90.8691V98.8049" stroke="white" strokeWidth="1.94587" strokeLinecap="round"/>
    <path d="M260.612 90.6392V97.8848" stroke="white" strokeWidth="1.94587" strokeLinecap="round"/>
    <path d="M268.59 90.8691C268.59 91.8 268.671 92.7486 268.71 93.6805C268.749 94.5944 268.711 95.6022 268.843 96.5047C268.913 96.9834 269.046 97.3886 269.046 97.8784C269.046 98.1549 269.05 98.4422 269.16 97.9998"
          stroke="white" strokeWidth="1.94587" strokeLinecap="round"/>
    <path d="M276.909 89.9492C276.909 92.4506 277.023 94.9337 277.023 97.4249" stroke="white" strokeWidth="1.94587"
          strokeLinecap="round"/>
    <path d="M147.436 90.4092C147.939 90.4092 147.891 90.6739 147.891 91.1631C147.891 92.4032 147.901 93.6079 147.727 94.8371C147.563 95.9948 147.663 99.5144 147.663 98.3449"
          stroke="white" strokeWidth="1.94587" strokeLinecap="round"/>
    <path d="M155.642 90.8691C155.642 92.5219 155.642 94.1746 155.642 95.8274C155.642 96.5914 156.097 97.3175 156.097 97.9998"
          stroke="white" strokeWidth="1.94587" strokeLinecap="round"/>
    <path d="M163.62 90.4092C163.62 92.8719 163.848 95.3144 163.848 97.7699" stroke="white" strokeWidth="1.94587"
          strokeLinecap="round"/>
    <path d="M171.371 90.8691C171.371 92.7545 171.558 94.6485 171.821 96.5047C171.881 96.933 171.941 97.3031 171.941 97.7698"
          stroke="white" strokeWidth="1.94587" strokeLinecap="round"/>
    <path d="M179.804 90.4092C179.804 91.4633 179.694 92.5839 179.829 93.6295C179.917 94.3089 180.032 94.8959 180.032 95.5911C180.032 96.3183 179.918 98.4972 179.918 97.7699"
          stroke="white" strokeWidth="1.94587" strokeLinecap="round"/>
    <path d="M187.214 90.4092C187.214 92.0949 187.442 93.7719 187.442 95.4633C187.442 96.0788 187.442 96.6943 187.442 97.3098"
          stroke="white" strokeWidth="1.94587" strokeLinecap="round"/>
    <path d="M310.387 20.8203C310.387 21.8971 310.357 22.978 310.392 24.0541C310.451 25.8585 310.767 27.6496 310.784 29.462C310.812 32.5112 310.784 35.562 310.784 38.6114C310.784 40.7709 310.784 42.9304 310.784 45.0899C310.784 47.657 310.682 50.247 310.928 52.8045C311.061 54.2011 311.069 55.6733 311.082 57.0757C311.093 58.2462 311.181 59.4041 311.181 60.5743C311.181 61.6018 311.328 62.7582 311.529 63.7639C311.767 64.9518 311.623 66.2437 311.7 67.4502C311.842 69.6685 311.829 71.8915 311.982 74.1053C312.035 74.8746 312.361 75.6072 312.373 76.3678C312.385 77.0955 312.473 77.8019 312.473 78.531C312.473 79.3437 312.477 80.1173 312.649 80.9149C312.71 81.1951 312.771 81.6433 312.771 81.9082"
          stroke="#DB4437" strokeWidth="1.10315" strokeLinecap="round"/>
    <path d="M312.782 81.0112C312.782 84.1635 313.353 87.3068 313.86 90.4037C313.962 91.0302 314.019 91.637 313.896 92.2695C313.825 92.6379 313.897 93.0223 313.86 93.3943C313.818 93.8135 313.823 94.2289 313.823 94.6505C313.823 96.0644 313.823 97.4782 313.823 98.8921"
          stroke="#DB4437" strokeWidth="1.10315" strokeLinecap="round"/>
    <path d="M313.729 99.1289C313.685 100.274 313.515 101.396 313.635 102.545C313.772 103.852 313.777 105.145 313.777 106.458C313.777 108.936 313.873 111.437 313.753 113.911C313.623 116.599 313.834 119.3 313.693 121.987C313.617 123.428 313.682 124.885 313.682 126.329"
          stroke="#DB4437" strokeWidth="1.10315" strokeLinecap="round"/>
    <path d="M313.54 126.375C313.54 128.244 313.54 130.112 313.54 131.981C313.54 132.81 313.445 133.626 313.445 134.454C313.445 135.48 313.404 136.503 313.398 137.529C313.386 139.441 313.35 141.354 313.35 143.268C313.35 144.697 313.256 146.12 313.256 147.549C313.256 149.218 313.35 150.892 313.35 152.561C313.35 153.956 313.303 155.354 313.303 156.745"
          stroke="#DB4437" strokeWidth="1.10315" strokeLinecap="round"/>
    <path d="M310.357 20.5317C310.899 20.6202 311.305 20.5698 311.836 20.5273C312.566 20.4688 313.205 19.9599 313.938 19.8988C314.986 19.8115 316.072 19.4236 317.05 19.0977"
          stroke="#DB4437" strokeWidth="1.10315" strokeLinecap="round"/>
    <path d="M316.811 19.5762C316.823 19.8907 317.047 20.3396 317.213 20.6163C317.573 21.2159 317.528 22.1849 317.528 22.8604C317.528 23.6762 317.528 24.4921 317.528 25.308C317.528 26.1607 317.368 26.9872 317.368 27.8442C317.368 31.6108 317.368 35.3774 317.368 39.144C317.368 41.6079 317.368 44.0718 317.368 46.5357C317.368 48.7325 317.607 50.8835 317.607 53.0775C317.607 54.1594 317.626 55.2247 317.705 56.3041C317.757 57.02 317.926 57.7215 317.926 58.4242C317.926 59.0985 317.926 59.7727 317.926 60.447C317.926 60.6265 317.844 61.0832 318.006 61.164"
          stroke="#DB4437" strokeWidth="1.10315" strokeLinecap="round"/>
    <path d="M317.696 61.3789C317.696 61.8068 317.879 62.2114 317.988 62.6229C318.171 63.3107 318.186 64.0694 318.324 64.7756C318.607 66.2307 318.573 67.7408 318.573 69.2162C318.573 71.926 318.573 74.6358 318.573 77.3456C318.573 80.4218 318.751 83.5121 318.573 86.5514C318.535 87.1891 318.183 87.858 318.183 88.4932C318.183 89.3081 318.086 90.1427 318.086 90.9704C318.086 92.3929 318.086 93.8154 318.086 95.2379C318.086 98.3912 318.086 101.545 318.086 104.698C318.086 105.675 318.088 106.783 318.259 107.743C318.318 108.078 318.076 109.42 318.378 109.571"
          stroke="#DB4437" strokeWidth="1.10315" strokeLinecap="round"/>
    <path d="M318.379 109.474C318.379 113.404 318.652 117.45 318.206 121.351C318.091 122.359 318.087 123.453 318.087 124.467C318.087 125.804 317.892 127.125 317.892 128.464C317.892 130.766 317.892 133.069 317.892 135.371C317.892 139.638 317.892 143.906 317.892 148.174C317.892 149.883 317.795 151.576 317.795 153.285C317.795 153.967 317.892 154.625 317.892 155.308C317.892 155.535 317.768 156.387 317.99 156.498"
          stroke="#DB4437" strokeWidth="1.10315" strokeLinecap="round"/>
    <path d="M317.439 18.6543C317.462 18.856 317.855 18.8677 317.996 18.9557C318.166 19.062 318.42 19.0466 318.609 19.1179C318.826 19.2002 319.067 19.2158 319.294 19.257C319.997 19.3849 320.669 19.597 321.288 19.9061"
          stroke="#DB4437" strokeWidth="1.10315" strokeLinecap="round"/>
    <path d="M321.474 20.3232C321.474 23.4304 321.491 26.5355 321.52 29.6426C321.527 30.4042 321.745 31.1484 321.752 31.9144C321.758 32.5883 321.752 33.2626 321.752 33.9365C321.752 34.2618 321.606 36.8291 321.891 36.8291"
          stroke="#DB4437" strokeWidth="1.10315" strokeLinecap="round"/>
    <path d="M321.785 37.1367C321.785 38.6287 321.912 40.1197 322.315 41.5611C322.622 42.6559 322.522 43.8088 322.64 44.9254C322.837 46.7948 322.661 48.7652 322.661 50.6479C322.661 52.2315 322.856 53.8044 322.856 55.386C322.856 57.4913 322.953 59.604 322.953 61.7142C322.953 65.2768 322.953 68.8394 322.953 72.402C322.953 75.2993 322.953 78.1966 322.953 81.0939C322.953 81.9474 323.16 83.1173 322.932 83.9444C322.801 84.4191 322.564 84.8501 322.564 85.3506C322.564 86.8611 322.467 88.35 322.467 89.8562C322.467 90.9922 322.272 92.1014 322.272 93.2367C322.272 93.6838 322.272 95.0252 322.272 94.578"
          stroke="#DB4437" strokeWidth="1.10315" strokeLinecap="round"/>
    <path d="M321.981 93.9937C322.169 96.0544 322.536 98.1469 322.566 100.225C322.597 102.45 322.663 104.676 322.663 106.91C322.663 109.477 322.663 112.045 322.663 114.612C322.663 116.855 322.858 119.103 322.858 121.346C322.858 125.979 323.056 130.658 322.62 135.268C322.456 136.997 322.622 138.744 322.49 140.477C322.408 141.555 322.436 142.652 322.376 143.733C322.316 144.811 322.274 145.873 322.274 146.956"
          stroke="#DB4437" strokeWidth="1.10315" strokeLinecap="round"/>
    <path d="M322.566 146.373C322.243 146.736 322.371 147.492 322.371 147.93C322.371 148.781 322.371 149.632 322.371 150.483C322.371 151.39 322.34 152.303 322.371 153.209C322.385 153.63 322.566 154.026 322.566 154.453C322.566 154.776 322.548 155.105 322.566 155.427C322.587 155.805 322.663 156.263 322.663 156.693"
          stroke="#DB4437" strokeWidth="1.10315" strokeLinecap="round"/>
    <path d="M333.034 28.27C333.034 30.1102 332.926 31.9773 333.112 33.8104C333.217 34.8461 333.099 35.8092 333.332 36.8345C333.917 39.399 334.326 42.0266 334.326 44.6595C334.326 50.3047 334.326 55.95 334.326 61.5952C334.326 62.7254 334.285 63.8651 334.331 64.9945C334.405 66.8152 335.021 68.5093 335.021 70.3307C335.021 72.7364 335.18 75.1621 335.22 77.5597C335.254 79.6761 335.617 81.7737 335.617 83.8948C335.617 84.4313 335.605 85.1948 335.722 85.7213C335.777 85.9718 335.915 86.5184 335.915 85.782"
          stroke="#DB4437" strokeWidth="1.10315" strokeLinecap="round"/>
    <path d="M332.935 28.1706C333.558 28.1706 334.142 27.951 334.761 27.8781C335.481 27.7934 336.205 27.415 336.908 27.376C337.463 27.3451 338.012 27.092 338.547 26.9731C338.861 26.9034 339.072 26.6807 339.391 26.6807"
          stroke="#DB4437" strokeWidth="1.10315" strokeLinecap="round"/>
    <path d="M339.688 26.7803C339.688 28.1499 339.886 29.4927 339.886 30.8528C339.886 32.6003 339.886 34.3477 339.886 36.0952C339.886 37.5481 339.67 39.178 339.908 40.6092C340.018 41.2661 340.052 41.9789 340.079 42.6455C340.124 43.7456 340.272 44.8512 340.283 45.9509C340.305 47.9535 340.521 49.9366 340.659 51.9328C340.799 53.9683 340.616 56.05 340.979 58.0692C341.304 59.8788 340.972 61.7808 341.155 63.6096C341.239 64.4504 341.177 65.3201 341.177 66.1646C341.177 66.9787 341.277 67.7782 341.277 68.5926C341.277 71.5446 341.145 74.5346 341.282 77.4827C341.319 78.2807 341.464 79.0786 341.475 79.8776C341.485 80.5577 341.401 81.276 341.525 81.947C341.633 82.5306 341.674 83.081 341.674 83.6742C341.674 84.3212 341.817 84.8966 341.867 85.5284C341.989 87.046 342.27 88.4194 342.27 89.9486C342.27 90.9106 342.27 91.8726 342.27 92.8347"
          stroke="#DB4437" strokeWidth="1.10315" strokeLinecap="round"/>
    <path d="M336.143 91.7974C336.143 92.643 336.143 93.4887 336.143 94.3343C336.143 94.8298 336.302 95.2845 336.315 95.7682C336.327 96.2244 336.384 96.5481 336.536 96.9815C336.626 97.2391 336.621 97.5074 336.708 97.7584C336.785 97.9772 336.973 98.2228 337.001 98.449C337.045 98.8001 337.083 99.2202 337.092 99.5664C337.106 100.073 337.265 100.54 337.265 101.034C337.265 102.839 337.757 104.6 337.975 106.386C338.089 107.328 338.33 108.292 338.382 109.235C338.431 110.107 338.732 110.953 338.732 111.824C338.732 112.842 338.991 113.846 338.991 114.85C338.991 116.543 338.991 118.236 338.991 119.929C338.991 122.354 339.423 124.732 339.423 127.147C339.423 128.426 339.756 129.67 339.768 130.94C339.774 131.59 339.941 132.266 339.941 132.887"
          stroke="#DB4437" strokeWidth="1.10315" strokeLinecap="round"/>
    <path d="M340.114 132.715C340.114 134.918 340.114 137.121 340.114 139.323C340.114 140.155 340.43 140.904 340.632 141.692C340.778 142.259 340.926 142.839 340.997 143.419C341.069 144.01 341.311 144.568 341.323 145.165C341.362 147.129 341.323 149.098 341.323 151.063C341.323 151.777 341.372 152.516 341.476 153.221C341.509 153.443 341.47 154.283 341.668 154.382"
          stroke="#DB4437" strokeWidth="1.10315" strokeLinecap="round"/>
    <path d="M342.179 92.9688C342.051 92.9848 342.015 93.8385 342.003 93.9538C341.886 95.0425 341.897 96.1376 341.897 97.2307C341.897 98.0102 341.887 98.7903 341.897 99.5696C341.91 100.647 342.183 101.688 342.376 102.741C342.83 105.222 342.785 107.758 342.921 110.272C342.983 111.408 343.092 112.527 343.098 113.666C343.104 114.838 343.126 116.028 343.184 117.198C343.281 119.153 343.522 121.109 343.522 123.065C343.522 125.058 343.9 127.012 344.157 128.979C344.368 130.587 344.652 132.114 344.652 133.728"
          stroke="#DB4437" strokeWidth="1.10315" strokeLinecap="round"/>
    <path d="M344.865 133.587C344.865 134.34 344.865 135.094 344.865 135.847C344.865 136.938 344.76 138.088 344.908 139.171C345.079 140.428 345.421 141.659 345.611 142.911C345.823 144.318 346.061 145.725 346.246 147.134C346.517 149.193 346.49 151.287 346.49 153.362C346.49 153.629 346.56 153.878 346.56 154.143C346.56 154.624 346.624 153.172 346.631 153.084"
          stroke="#DB4437" strokeWidth="1.10315" strokeLinecap="round"/>
    <path d="M345.984 91.9702C345.485 93.0603 345.634 94.3843 345.547 95.5526C345.463 96.6862 345.466 97.8164 345.466 98.9576C345.466 99.5123 345.466 100.067 345.466 100.622C345.466 101.543 345.738 102.486 345.859 103.403C345.913 103.813 346.036 104.206 346.108 104.612C346.177 104.995 346.127 105.379 346.176 105.763C346.245 106.308 346.449 106.831 346.497 107.379C346.596 108.513 346.847 109.66 346.847 110.808C346.847 111.561 346.982 112.287 347.106 113.028C347.197 113.577 347.168 114.125 347.259 114.673C347.506 116.154 347.451 117.748 347.451 119.248C347.451 121.008 347.521 122.763 347.538 124.524C347.543 125.082 347.657 125.633 347.797 126.173C347.87 126.457 347.855 126.733 347.902 127.017C347.96 127.364 348.157 127.666 348.223 128.01C348.352 128.675 348.626 129.29 348.727 129.971C348.811 130.542 348.832 131.196 348.832 131.77C348.832 134.532 348.832 137.295 348.832 140.057C348.832 140.919 348.832 141.78 348.832 142.642C348.832 143.453 349.005 144.314 349.005 145.145C349.005 145.815 348.876 146.653 349.024 147.303C349.088 147.583 349.018 147.949 349.135 148.205C349.166 148.273 349.148 148.402 349.183 148.454C349.211 148.497 349.252 148.38 349.283 148.339C349.455 148.112 349.617 147.88 349.782 147.649"
          stroke="#DB4437" strokeWidth="1.10315" strokeLinecap="round"/>
    <path d="M349.091 144.282C349.091 145.377 349.018 146.537 349.264 147.61C349.428 148.322 349.656 149.028 349.801 149.739C349.985 150.637 349.955 153.398 349.955 152.482"
          stroke="#DB4437" strokeWidth="1.10315" strokeLinecap="round"/>
    <path d="M351.68 111.997C351.68 114.237 351.594 116.482 351.594 118.73C351.594 121.59 351.594 124.45 351.594 127.31C351.594 128.72 351.492 130.173 351.68 131.573C351.82 132.613 351.706 133.659 351.81 134.7C351.991 136.516 351.764 138.358 351.92 140.177C352.106 142.338 351.939 144.577 351.939 146.747C351.939 148.498 351.761 150.366 352.045 152.099C352.168 152.85 352.285 153.619 352.285 154.382"
          stroke="#DB4437" strokeWidth="1.10315" strokeLinecap="round"/>
    <path d="M346.156 92.3154C346.156 94.0073 346.203 95.6406 346.741 97.255C347.016 98.0792 346.954 99.055 347.149 99.9118C347.244 100.33 347.211 100.764 347.298 101.188C347.378 101.583 347.488 102.015 347.533 102.415C347.603 103.049 347.624 103.726 347.624 104.362C347.624 104.881 347.712 105.493 347.619 106.002C347.533 106.473 347.537 106.921 347.537 107.403C347.537 107.639 347.537 107.876 347.537 108.113C347.537 108.27 347.443 108.987 347.624 108.717"
          stroke="#DB4437" strokeWidth="1.10315" strokeLinecap="round"/>
    <path d="M344.258 44.9243C343.974 45.0506 344.085 45.827 344.085 46.0657C344.085 46.7275 344.085 47.3893 344.085 48.0511C344.085 49.2596 344.085 50.4682 344.085 51.6767C344.085 54.9509 344.098 58.3865 344.603 61.623C344.812 62.9615 344.896 64.3261 345.121 65.661C345.379 67.1966 345.318 68.7547 345.447 70.3033C345.693 73.2557 346.243 76.1242 346.243 79.1034C346.243 80.0514 346.243 80.9993 346.243 81.9473C346.243 82.6275 346.345 83.4062 346.195 84.0718C345.923 85.2775 345.936 86.554 345.807 87.7789C345.707 88.7266 345.725 89.6791 345.725 90.6371C345.725 90.8945 345.725 91.1519 345.725 91.4092C345.725 91.7025 345.618 91.9756 345.984 91.884"
          stroke="#DB4437" strokeWidth="1.10315" strokeLinecap="round"/>
    <path d="M343.395 27.3145C343.395 29.8334 343.68 32.4041 343.908 34.9109C344.014 36.0816 344.258 37.2473 344.258 38.4309C344.258 39.0943 344.258 39.7577 344.258 40.4212C344.258 41.9792 344.234 43.5391 344.258 45.097C344.261 45.3289 344.325 44.6376 344.344 44.4064"
          stroke="#DB4437" strokeWidth="1.10315" strokeLinecap="round"/>
    <path d="M339.854 26.6235C340.955 26.6235 342.012 27.0551 343.135 27.0551" stroke="#DB4437" strokeWidth="1.10315"
          strokeLinecap="round"/>
    <path d="M344.225 31.4711C344.496 31.4277 344.757 31.3994 345.025 31.3407C345.285 31.2837 345.489 31.1689 345.742 31.0977C346.549 30.8704 347.329 30.546 348.17 30.4575C348.604 30.4117 348.965 30.1242 349.373 30.0336C349.568 29.9903 349.786 29.8706 349.987 29.8706"
          stroke="#DB4437" strokeWidth="1.10315" strokeLinecap="round"/>
    <path d="M350.306 29.7104C350.467 29.7306 350.685 30.1077 350.872 30.1906C351.141 30.31 351.48 30.3718 351.719 30.5374C352.083 30.7889 352.61 30.7487 352.973 30.9909"
          stroke="#DB4437" strokeWidth="1.10315" strokeLinecap="round"/>
    <path d="M349.667 30.0308C349.833 30.1046 349.789 30.5991 349.827 30.754C349.915 31.1163 349.981 31.4788 350.067 31.8417C350.16 32.2349 350.201 32.6388 350.201 33.0421C350.201 33.8657 350.225 34.7462 350.387 35.5555C350.436 35.8003 350.4 36.0492 350.417 36.2965C350.441 36.6431 350.577 36.9811 350.615 37.328C350.677 37.886 350.681 38.4816 350.681 39.0441C350.681 40.2527 350.559 41.5282 350.693 42.7283C350.827 43.9346 350.734 45.1952 350.734 46.4095C350.734 48.7283 350.734 51.0471 350.734 53.3659C350.734 55.0128 350.734 56.6598 350.734 58.3068C350.734 59.2482 350.719 60.2187 350.947 61.1344"
          stroke="#DB4437" strokeWidth="1.10315" strokeLinecap="round"/>
    <path d="M351.001 60.9209C351.001 64.8909 351.342 68.8399 351.374 72.8122C351.389 74.5921 351.469 76.3735 351.481 78.1533C351.491 79.5404 351.446 80.9295 351.523 82.3146C351.593 83.5831 351.591 84.7522 351.938 85.984C352.041 86.353 352.175 86.7291 352.175 87.1162"
          stroke="#DB4437" strokeWidth="1.10315" strokeLinecap="round"/>
    <path d="M351.961 87.2764C351.961 95.6909 351.907 104.098 351.907 112.511" stroke="#DB4437" strokeWidth="1.10315"
          strokeLinecap="round"/>
    <path d="M323.111 84.3384C323.608 84.3384 324.083 84.6596 324.58 84.7148C325.386 84.8044 326.217 84.8946 327.017 85.0326C327.596 85.1323 328.194 85.113 328.776 85.1837C329.117 85.2253 329.445 85.3462 329.788 85.3812C330.325 85.436 330.849 85.5016 331.383 85.5817C332.656 85.7727 333.943 85.896 335.218 86.0908C336.123 86.229 337.04 86.3773 337.951 86.461C338.736 86.5331 339.548 86.6708 340.327 86.6708"
          stroke="#DB4437" strokeWidth="1.10315" strokeLinecap="round"/>
    <path d="M323.167 87.1152C324.162 87.1152 325.147 87.2733 326.141 87.325C327.295 87.3851 328.444 87.4277 329.597 87.5163C330.045 87.5508 330.49 87.5945 330.939 87.6181C331.325 87.6384 331.697 87.7862 332.083 87.8248C332.967 87.9132 333.789 88.152 334.659 88.3123C335.741 88.5115 336.799 88.7885 337.88 88.9756C338.284 89.0455 338.686 89.106 339.093 89.1576C339.35 89.1902 339.581 89.1546 339.827 89.2502C339.975 89.3076 340.368 89.2514 340.438 89.3921"
          stroke="#DB4437" strokeWidth="1.10315" strokeLinecap="round"/>
    <path d="M340.549 86.8931C340.549 87.4463 340.549 87.9996 340.549 88.5529C340.549 88.8819 340.459 89.3778 340.605 89.6698"
          stroke="#DB4437" strokeWidth="1.10315" strokeLinecap="round"/>
    <path d="M323.39 88.7256C323.656 88.8659 323.868 88.9222 324.173 88.9508C324.704 89.0005 325.219 89.1349 325.753 89.1699C326.523 89.2204 327.359 89.3281 328.11 89.5031C328.364 89.5621 328.629 89.5854 328.887 89.6141C329.207 89.6496 329.492 89.7893 329.807 89.8332C330.512 89.9316 331.208 90.2016 331.899 90.3793C333.102 90.6889 334.338 90.8269 335.552 91.1135C336.066 91.2351 336.632 91.3912 337.162 91.3912"
          stroke="#DB4437" strokeWidth="1.10315" strokeLinecap="round"/>
    <path d="M337.272 91.4466C337.574 91.4288 337.938 91.0183 338.204 90.8666C338.605 90.6385 339.021 90.5203 339.454 90.3668C339.643 90.2997 339.906 90.1138 340.105 90.1138"
          stroke="#DB4437" strokeWidth="1.10315" strokeLinecap="round"/>
    <path d="M353.455 31.2036C353.455 33.5973 353.634 35.9831 353.876 38.36C353.964 39.2215 353.991 40.0669 353.991 40.9325C353.991 42.103 354.178 43.2467 354.433 44.3853C354.686 45.5147 354.749 46.7619 354.756 47.9145C354.766 49.5212 354.8 51.1227 354.829 52.728C354.864 54.6918 355.062 56.6333 355.062 58.6002C355.062 60.1777 355.062 61.7553 355.062 63.3328C355.062 65.7764 355.062 68.2199 355.062 70.6635C355.062 72.1429 355.049 73.6107 355.173 75.0857C355.259 76.1116 355.369 77.1347 355.369 78.1643C355.369 79.936 355.369 81.7077 355.369 83.4795"
          stroke="#DB4437" strokeWidth="1.10315" strokeLinecap="round"/>
    <path d="M355.522 84.3213C355.522 86.3839 355.499 88.4216 355.33 90.4784C355.102 93.2628 354.909 96.0229 354.909 98.8211C354.909 101.857 354.909 104.893 354.909 107.929C354.909 110.019 354.68 112.082 354.68 114.171C354.68 116.554 354.68 118.937 354.68 121.319C354.68 122.373 354.714 123.415 354.752 124.466C354.782 125.292 354.7 126.129 354.773 126.953C354.838 127.685 354.9 128.421 354.909 129.156C354.919 129.915 355.172 130.639 355.211 131.388C355.265 132.405 355.215 133.435 355.215 134.454"
          stroke="#DB4437" strokeWidth="1.10315" strokeLinecap="round"/>
    <path d="M355.215 134.454C355.389 134.541 355.291 135.165 355.291 135.313C355.291 136.239 355.291 137.164 355.291 138.09C355.291 139.889 355.368 141.684 355.368 143.481C355.368 145.075 355.444 146.656 355.444 148.248C355.444 149.33 355.286 150.572 355.483 151.637C355.597 152.254 355.751 152.964 355.751 153.589"
          stroke="#DB4437" strokeWidth="1.10315" strokeLinecap="round"/>
    <path d="M363.082 37.7129C364.606 37.4377 366.111 37.092 367.611 36.7585C368.163 36.6358 368.763 36.6978 369.329 36.6978"
          stroke="#DB4437" strokeWidth="1.10315" strokeLinecap="round"/>
    <path d="M362.457 38.4937C362.457 38.7809 362.603 38.9966 362.613 39.2745C362.636 39.8701 362.854 40.4526 362.93 41.0445C363.212 43.2518 363.537 45.4738 363.55 47.7081C363.564 49.906 363.55 52.1044 363.55 54.3023C363.55 55.5035 363.519 56.7055 363.628 57.903C363.724 58.955 363.641 60.0128 363.745 61.0613C363.886 62.4628 363.739 63.8829 363.88 65.2781C363.95 65.97 364.056 66.6558 364.114 67.3517C364.182 68.1593 364.145 68.9689 364.292 69.7682C364.629 71.6048 364.87 73.4388 365.329 75.2561C365.489 75.8893 365.424 76.5753 365.424 77.2256"
          stroke="#DB4437" strokeWidth="1.10315" strokeLinecap="round"/>
    <path d="M365.347 77.0693C364.979 77.529 365.19 78.6299 365.19 79.1734C365.19 80.1069 365.347 81.011 365.347 81.9455C365.347 82.6874 365.347 83.4292 365.347 84.1711C365.347 84.8165 365.259 85.5377 365.386 86.171C365.549 86.9893 365.412 87.8377 365.581 88.6525C365.659 89.0264 365.815 89.3497 365.815 89.7371C365.815 90.4014 366.128 91.0127 366.128 91.6719"
          stroke="#DB4437" strokeWidth="1.10315" strokeLinecap="round"/>
    <path d="M355.957 90.8623C355.976 90.909 356.046 90.9603 356.092 90.9761C356.726 91.195 357.511 91.1734 358.17 91.2291C358.781 91.2805 359.384 91.2797 359.996 91.2797C360.35 91.2797 360.705 91.2797 361.06 91.2797C361.357 91.2797 361.623 91.352 361.914 91.3851C363.15 91.5255 364.363 91.7987 365.577 92.0575C366.14 92.1774 366.701 92.3727 367.264 92.4769C367.797 92.5756 368.33 92.673 368.861 92.7762C369.344 92.8701 369.971 92.8799 370.413 93.1008"
          stroke="#DB4437" strokeWidth="1.10315" strokeLinecap="round"/>
    <path d="M355.806 93.2524C355.806 93.3802 355.875 93.3811 356.004 93.3958C356.412 93.442 356.816 93.5247 357.226 93.5475C358.116 93.597 359.013 93.5562 359.903 93.5918C360.176 93.6027 360.429 93.6504 360.698 93.6867C361.005 93.728 361.312 93.6956 361.619 93.7457C362.334 93.8625 363.045 93.9489 363.752 94.123C364.415 94.286 365.095 94.4003 365.765 94.5235C366.426 94.6449 367.078 94.8125 367.74 94.9219C368.415 95.0333 369.073 95.2413 369.745 95.3561C369.902 95.3829 370.029 95.4151 370.185 95.4151"
          stroke="#DB4437" strokeWidth="1.10315" strokeLinecap="round"/>
    <path d="M370.374 93.2905C370.374 93.9897 370.412 94.6803 370.412 95.3773" stroke="#DB4437" strokeWidth="1.10315"
          strokeLinecap="round"/>
    <path d="M355.768 94.7705C355.81 94.8877 355.994 94.9321 356.096 94.9602C356.611 95.1016 357.153 95.185 357.677 95.2785C358.439 95.4143 359.199 95.5284 359.958 95.6811C361.49 95.9892 363.017 96.326 364.549 96.6296C365.692 96.8562 366.843 97.0388 367.999 97.1798C368.246 97.2098 368.496 97.1987 368.743 97.1987"
          stroke="#DB4437" strokeWidth="1.10315" strokeLinecap="round"/>
    <path d="M368.705 97.1985C369.016 96.7449 369.424 96.3572 369.77 95.9296C369.907 95.76 370.064 95.6074 370.2 95.4364C370.259 95.362 370.283 95.256 370.374 95.2256"
          stroke="#DB4437" strokeWidth="1.10315" strokeLinecap="round"/>
    <path d="M366.125 97.7979C366.319 97.8409 366.289 98.3215 366.335 98.4643C366.491 98.9494 366.593 99.4363 366.647 99.9457C366.723 100.676 366.889 101.614 367.168 102.293C367.332 102.69 367.425 103.179 367.519 103.6C367.658 104.214 367.816 104.822 367.95 105.44C368.276 106.941 368.461 108.534 368.566 110.062C368.656 111.359 368.786 112.65 368.718 113.952C368.672 114.842 368.668 115.726 368.668 116.618C368.668 117.55 368.668 118.482 368.668 119.414C368.668 120.602 368.894 121.665 369.117 122.826C369.507 124.861 369.385 126.934 369.385 128.998C369.385 129.877 369.45 130.753 369.45 131.634"
          stroke="#DB4437" strokeWidth="1.10315" strokeLinecap="round"/>
    <path d="M369.58 129.939C369.739 130.208 369.76 130.525 369.841 130.823C369.98 131.337 370.07 131.852 370.131 132.381C370.254 133.457 370.346 134.566 370.413 135.648C370.559 137.981 370.311 140.363 370.884 142.656C371.089 143.478 371.058 144.346 371.21 145.181C371.339 145.889 371.472 146.606 371.63 147.307C371.7 147.618 371.797 147.991 371.797 148.31C371.797 148.952 371.839 148.019 371.862 147.803"
          stroke="#DB4437" strokeWidth="1.10315" strokeLinecap="round"/>
    <path d="M372.008 97.6182C371.856 97.7366 371.879 98.1042 371.873 98.2721C371.858 98.7708 371.868 99.274 371.939 99.7684C372.024 100.366 372.145 100.963 372.216 101.561C372.359 102.775 372.41 104.012 372.577 105.219C372.671 105.893 372.713 106.566 372.8 107.242C372.911 108.091 372.99 108.965 373.077 109.819C373.319 112.162 373.563 114.507 373.808 116.851C374.038 119.047 374.47 121.202 374.743 123.39C374.981 125.293 374.916 127.208 374.916 129.121C374.916 130.898 374.916 132.675 374.916 134.453"
          stroke="#DB4437" strokeWidth="1.10315" strokeLinecap="round"/>
    <path d="M374.776 134.729C374.776 135.273 374.864 135.836 374.93 136.376C375.006 136.995 375.023 137.63 375.123 138.245C375.25 139.037 375.133 139.839 375.261 140.63C375.391 141.436 375.47 142.243 375.661 143.038C376.145 145.047 376.369 147.083 376.369 149.146C376.369 149.603 376.369 150.059 376.369 150.516C376.369 150.653 376.438 150.811 376.438 150.585"
          stroke="#DB4437" strokeWidth="1.10315" strokeLinecap="round"/>
    <path d="M372.225 97.5814C372.225 96.1986 372.225 94.8158 372.225 93.4331C372.225 92.4052 372.225 91.3773 372.225 90.3494C372.225 89.473 372.304 88.5782 372.072 87.7405C371.862 86.9862 371.875 86.1825 371.789 85.4098C371.733 84.9066 371.632 84.3826 371.621 83.8752C371.616 83.6229 371.621 83.3698 371.621 83.1175C371.621 82.8114 371.485 82.5901 371.453 82.3022C371.372 81.5675 371.276 80.8727 371.276 80.1057C371.276 79.049 371.189 78.0068 371.189 76.9454C371.189 74.989 371.092 73.0322 371.017 71.0802C370.975 69.983 370.937 68.8586 370.849 67.7616C370.771 66.7925 370.585 65.8324 370.585 64.8602C370.585 63.9634 370.585 63.0666 370.585 62.1698C370.585 61.5831 370.585 60.9964 370.585 60.4097C370.585 59.8999 370.43 59.4242 370.412 58.9278C370.398 58.5207 370.24 58.1545 370.24 57.7433C370.24 57.3991 370.214 57.1567 370.086 56.8369C369.974 56.5549 370.117 56.1899 370.024 55.8922C369.956 55.6757 369.895 55.4228 369.895 55.1968"
          stroke="#DB4437" strokeWidth="1.10315" strokeLinecap="round"/>
    <path d="M369.291 36.896C369.291 38.8375 369.205 40.8258 369.205 42.7851C369.205 44.8022 369.291 46.8084 369.291 48.8277C369.291 49.3329 369.291 49.838 369.291 50.3432C369.291 50.7066 369.182 51.2733 369.335 51.6093C369.537 52.0541 369.637 52.7068 369.637 53.1919C369.637 53.6319 369.896 54.0546 369.896 54.4675C369.896 54.8639 369.982 55.2937 369.982 55.7144"
          stroke="#DB4437" strokeWidth="1.10315" strokeLinecap="round"/>
    <path d="M369.637 36.7236C370.058 37.103 370.667 37.1111 371.191 37.2608C371.644 37.3904 372.003 37.4142 372.485 37.4142"
          stroke="#DB4437" strokeWidth="1.10315" strokeLinecap="round"/>
    <path d="M372.658 38.4497C372.847 40.2471 372.61 42.0668 372.812 43.8593C373.144 46.817 373.003 49.8545 373.003 52.8273C373.003 55.6376 373.003 58.4479 373.003 61.2582C373.003 62.6046 373.435 63.8888 373.435 65.2098C373.435 65.9925 373.521 66.8826 373.521 67.7132C373.521 68.528 373.481 69.3305 373.656 70.1302C373.801 70.7954 374.01 71.4526 374.039 72.1348C374.086 73.1985 374.126 74.2572 374.126 75.3288C374.126 75.6958 373.891 77.9978 374.212 78.1583"
          stroke="#DB4437" strokeWidth="1.10315" strokeLinecap="round"/>
    <path d="M373.866 77.8994C374.089 78.7676 374.125 79.6739 374.125 80.5706C374.125 81.7514 374.212 82.9306 374.212 84.1147C374.212 84.817 374.317 85.5097 374.403 86.2056C374.53 87.2284 374.489 88.2911 374.729 89.294C374.902 90.0146 374.868 90.7324 374.988 91.4569C375.102 92.1394 375.18 92.8265 375.243 93.5143C375.389 95.1286 374.986 96.8513 375.295 98.4443C375.61 100.064 375.424 101.74 375.765 103.346C376.115 104.99 376.197 106.649 376.197 108.323C376.197 109.525 376.253 110.72 376.283 111.911C376.296 112.42 376.528 112.916 376.542 113.426C376.545 113.509 376.542 114.096 376.542 113.81"
          stroke="#DB4437" strokeWidth="1.10315" strokeLinecap="round"/>
    <path d="M376.37 113.81C376.37 116.258 377.061 118.656 377.061 121.104C377.061 123.166 377.492 125.172 377.492 127.233C377.492 128.28 377.445 129.338 377.497 130.384C377.525 130.94 377.709 131.473 377.751 132.029C377.804 132.708 377.776 133.431 377.924 134.096C378.081 134.804 378.183 135.578 378.183 136.302C378.183 137.076 378.43 137.827 378.442 138.604C378.455 139.441 378.528 140.271 378.528 141.107C378.528 141.735 378.484 142.382 378.662 142.992C379.021 144.221 379.219 145.462 379.219 146.737C379.219 146.997 379.324 147.271 379.391 147.524C379.522 148.014 379.597 148.456 379.67 148.963C379.764 149.623 379.909 150.215 379.909 150.886C379.909 151.317 379.856 151.639 380.168 151.015"
          stroke="#DB4437" strokeWidth="1.10315" strokeLinecap="round"/>
    <path d="M305.889 158.469C308.697 158.469 311.668 158.44 314.437 157.874C315.637 157.628 317.072 157.36 318.279 157.36"
          stroke="#DB4437" strokeWidth="1.10315" strokeLinecap="round"/>
    <path d="M319.388 157.545C320.675 157.545 322.023 157.545 323.271 157.545" stroke="#DB4437" strokeWidth="1.10315"
          strokeLinecap="round"/>
    <path d="M274.211 162.766C274.4 161.916 277.007 162.172 277.608 162.127C279.157 162.012 280.692 161.931 282.24 161.85C285.14 161.697 288.07 161.597 290.95 161.244C292.602 161.042 294.213 160.617 295.86 160.42C298.177 160.145 300.519 159.926 302.847 159.773C305.442 159.603 308.08 159.739 310.683 159.739"
          stroke="#DB4437" strokeWidth="1.10315" strokeLinecap="round"/>
    <path d="M273 165.036C277.482 165.036 281.981 164.582 286.469 164.582C288.664 164.582 290.871 164.409 293.06 164.246C294.75 164.119 296.626 164.12 298.273 163.75C299.915 163.38 301.681 163.222 303.351 163.001C305.271 162.748 307.212 162.588 309.136 162.43C310.743 162.297 312.343 162.017 313.928 161.866C314.365 161.825 314.697 161.894 315.071 161.707"
          stroke="#DB4437" strokeWidth="1.10315" strokeLinecap="round"/>
    <path d="M319.404 26.9546C320.068 27.0375 320.65 28.0556 321.3 28.0917C321.704 28.1142 322.142 28.3679 322.535 28.4989C322.987 28.6494 323.465 28.7247 323.925 28.8779C324.752 29.1538 325.565 29.4483 326.382 29.7623C326.924 29.9709 327.526 30.2099 328.122 30.2397C328.61 30.264 328.928 30.5918 329.386 30.6187C330.308 30.673 331.079 31.2916 331.885 31.6014C332.692 31.9119 333.411 32.2672 334.187 32.6122C335.677 33.2745 337.09 34.0562 338.609 34.5987C339.04 34.7525 339.557 35.097 339.999 35.1603C340.462 35.2263 340.813 35.6157 341.263 35.6657C341.839 35.7296 342.756 36.1391 343.221 36.501C343.873 37.0078 345.034 36.9685 345.678 37.5047C346.242 37.9748 347.401 38.0183 348.086 38.2628C348.754 38.5014 349.453 38.9176 350.17 39.0771C350.49 39.148 350.831 39.2158 351.118 39.4C351.473 39.6285 352.122 39.6034 352.374 39.8984C352.713 40.2934 353.85 40.6459 354.333 40.7337C354.748 40.8091 354.94 41.1759 355.351 41.2391C355.795 41.3075 356.22 41.5773 356.649 41.7094C357.274 41.9015 358.184 42.035 358.727 42.3692C359.552 42.8769 360.618 42.8743 361.45 43.38C362.469 43.9984 363.875 44.4491 365.016 44.7979C366.25 45.1748 367.366 46.0603 368.582 46.5106C369.721 46.9323 370.804 47.4923 371.867 48.083C372.605 48.4931 373.429 48.841 374.212 49.164C375.107 49.5335 376.279 49.5121 377.118 49.9782C378.752 50.8864 380.87 50.9886 382.649 51.5927C384.494 52.2193 386.369 52.6875 388.201 53.2984C392.788 54.8272 397.114 56.9969 401.651 58.6682C405.483 60.0802 409.151 61.8996 412.966 63.3431C415.229 64.1994 417.43 65.3022 419.662 66.2492C421.574 67.0601 423.487 67.8568 425.432 68.6007C427.864 69.5304 430.291 70.553 432.669 71.619C433.043 71.7865 433.36 71.97 433.75 72.0893C434.081 72.1903 434.271 72.515 434.628 72.5596C435.074 72.6154 435.279 73.072 435.645 73.072"
          stroke="#DB4437" strokeWidth="0.367717" strokeLinecap="round"/>
    <path d="M320.006 32.7026C322.071 33.0204 324.171 34.5401 326.02 35.4147C332.018 38.2529 338.304 40.6108 344.473 43.0498C354.531 47.026 365.084 50.0462 374.911 54.5908C381.884 57.8159 389.261 60.2542 396.401 63.0956C400.588 64.7619 404.614 66.8825 408.885 68.3133C412.237 69.4362 415.723 70.3991 418.997 71.7329C425.565 74.409 432.402 76.7402 438.718 79.9281C442.387 81.7799 446.411 84.2119 450.274 85.4996"
          stroke="#DB4437" strokeWidth="0.367717" strokeLinecap="round"/>
    <path d="M319.74 39.8662C320.268 39.9981 320.725 40.3903 321.185 40.6621C323.262 41.8905 325.373 43.0924 327.493 44.2439C333.453 47.4806 339.723 50.3685 345.859 53.2644C353.695 56.963 361.409 60.9683 369.103 64.9529C374.122 67.552 379.396 69.3549 384.535 71.6446C389.866 74.0197 395.25 76.1911 400.66 78.3953C405.624 80.4175 410.582 82.386 415.356 84.8218C419.732 87.0547 423.782 89.8818 428.282 91.882C432.96 93.9609 437.615 96.0581 442.462 97.7041C442.911 97.8567 445.763 99.1078 445.763 99.0307"
          stroke="#DB4437" strokeWidth="0.367717" strokeLinecap="round"/>
    <path d="M319.476 44.9067C320.299 46.6915 323.579 47.8061 325.136 48.6801C330.407 51.6396 335.818 54.199 341.423 56.4773C349.295 59.6772 357.025 63.0296 364.726 66.6033C371.631 69.8077 378.209 73.6728 385.125 76.8915C391.725 79.9626 398.338 83.2928 404.759 86.7081C408.176 88.5257 411.63 90.3741 415.106 92.0732C418.88 93.9186 422.882 95.2832 426.661 97.1731C430.343 99.0141 434.288 100.474 437.893 102.42C438.783 102.901 441.081 103.196 441.519 104.071"
          stroke="#DB4437" strokeWidth="0.367717" strokeLinecap="round"/>
    <path d="M320.006 56.3154C320.122 57.4812 322.274 59.2347 323.042 60.0888C324.897 62.1498 327.267 63.6539 329.189 65.6308C331.017 67.5117 333.031 69.171 335.114 70.7602C337.417 72.5177 339.469 74.5918 341.879 76.2138C346.238 79.1467 350.399 82.3346 354.821 85.1754C360.996 89.1426 366.994 93.4094 372.936 97.7188C377.236 100.838 381.257 104.366 385.42 107.668C389.827 111.163 394.282 114.579 398.685 118.074C403.392 121.81 408.638 124.64 413.543 128.097C419.246 132.117 425.301 135.624 430.906 139.771C434.397 142.353 437.698 145.077 441.504 147.17C443.092 148.044 444.569 149.395 446.294 149.97"
          stroke="#DB4437" strokeWidth="0.367717" strokeLinecap="round"/>
    <path d="M321.067 62.1523C321.719 62.5737 322.141 63.3322 322.718 63.8621C324.029 65.0657 325.232 66.3453 326.58 67.5175C330.886 71.2617 335.255 74.9183 339.639 78.5722C342.914 81.3011 346.307 83.8887 349.603 86.5905C354.567 90.6594 359.626 94.8503 364.903 98.5C367.041 99.9789 368.847 101.754 370.828 103.423C372.635 104.945 374.673 106.108 376.459 107.668C378.209 109.198 380.192 110.414 381.971 111.913C384.054 113.668 386.05 115.507 388.294 117.057C393.407 120.59 397.564 125.434 402.194 129.541C403.758 130.929 404.977 132.676 406.557 134.052C408.562 135.798 410.959 137.402 412.733 139.373C414.773 141.64 417.093 143.818 419.292 145.932C420.129 146.737 421.283 147.544 422.254 148.216C422.756 148.564 423.212 148.879 423.625 149.292C423.806 149.473 424.124 149.355 424.259 149.558C424.443 149.834 423.851 149.034 423.625 148.791C421.541 146.55 419.03 145.111 416.58 143.338"
          stroke="#DB4437" strokeWidth="0.367717" strokeLinecap="round"/>
    <path d="M320.802 65.8667C322.302 66.4122 323.672 69.1945 324.722 70.318C326.171 71.8671 327.632 73.7782 328.776 75.5653C330.117 77.6616 331.907 79.4348 333.271 81.5201C334.922 84.0413 336.128 86.9385 337.914 89.3468C340.006 92.1664 341.934 94.9582 344.429 97.4535C346.732 99.7566 348.827 102.422 350.635 105.133C351.989 107.165 353.158 109.68 354.776 111.5C355.791 112.642 356.705 113.802 357.547 115.082C358.623 116.716 360.097 117.868 361.453 119.253C365.499 123.387 369.231 127.878 373.068 132.195C375.189 134.58 376.837 137.404 378.905 139.83C380.506 141.708 382.31 143.559 384.064 145.313C384.91 146.159 391.832 153.493 392.171 153.154"
          stroke="#DB4437" strokeWidth="0.367717" strokeLinecap="round"/>
    <path d="M321.598 72.2339C325.709 76.3457 328.328 81.6504 331.812 86.2954C333.904 89.0846 335.041 92.5357 337.222 95.1833C338.695 96.972 339.719 99.549 340.847 101.58C343.635 106.598 346.93 111.825 350.502 116.29C351.916 118.058 352.627 120.292 354.216 121.98C355.061 122.878 355.343 124.466 355.941 125.547C356.67 126.867 357.382 128.122 358.196 129.394C362.32 135.838 366.89 141.786 372.066 147.376C372.771 148.137 373.161 149.002 373.923 149.764C374.381 150.222 375.513 150.577 375.78 151.031C375.967 151.349 376.965 152.082 377.313 152.299C377.69 152.535 378.176 153.288 378.374 153.685"
          stroke="#DB4437" strokeWidth="0.367717" strokeLinecap="round"/>
    <path d="M320.537 81.2549C320.537 85.6918 324.156 90.0441 326.227 93.7835C328.162 97.2775 329.9 100.649 331.091 104.484C332.259 108.249 333.768 111.805 335.129 115.48C335.824 117.356 336.955 119.247 337.841 121.052C339.073 123.56 340.611 125.988 341.615 128.598C344.234 135.408 346.242 143.337 350.783 149.175C351.501 150.098 351.966 151.39 352.787 152.211C353.207 152.631 353.676 153.03 353.966 153.538C354.093 153.759 354.667 154.681 354.895 154.731C355.556 154.878 355.344 155.568 355.824 155.807"
          stroke="#DB4437" strokeWidth="0.367717" strokeLinecap="round"/>
    <path d="M325.491 157.545C329.498 157.545 333.468 157.36 337.471 157.36C339.026 157.36 340.519 156.99 342.043 156.99C343.695 156.99 345.289 156.435 346.985 156.435C349.229 156.435 351.457 156.25 353.683 156.25C355.546 156.25 357.528 156.147 359.334 155.695C360.34 155.444 361.341 155.292 362.365 155.141C362.984 155.049 363.528 154.603 364.143 154.586C365.235 154.555 366.328 154.031 367.369 154.031C368.478 154.031 369.588 154.031 370.697 154.031C376.588 154.031 382.478 154.031 388.369 154.031C391.093 154.031 393.685 153.019 396.321 152.726C397.42 152.604 398.509 152.212 399.65 152.182C401.004 152.146 402.364 152.182 403.719 152.182C410.457 152.182 417.128 151.793 423.794 151.031C427.012 150.663 430.175 150.191 433.401 149.952C437.098 149.678 440.831 149.777 444.548 149.777C448.254 149.777 451.959 149.777 455.665 149.777C457.095 149.777 458.624 149.661 459.939 149.223"
          stroke="#DB4437" strokeWidth="1.10315" strokeLinecap="round"/>
    <path d="M323.088 161.613C323.331 160.964 327.154 160.775 327.752 160.73C329.67 160.586 331.564 160.504 333.485 160.504C336.332 160.504 339.191 160.319 342.054 160.319C344.859 160.319 347.673 160.441 350.458 160.093C353.079 159.765 355.826 159.712 358.41 159.168C362.484 158.311 366.646 157.175 370.842 157.175C376.52 157.175 382.329 157.17 388 156.815C399.283 156.11 410.63 156.997 421.843 155.315C423.898 155.007 425.977 154.406 428.038 154.031C429.92 153.689 431.949 153.291 433.864 153.291C437.792 153.291 441.74 153.106 445.679 153.106C447.058 153.106 448.473 153.191 449.85 153.096C451.13 153.008 452.378 152.508 453.652 152.367C454.605 152.261 456.507 152.189 457.35 151.627"
          stroke="#DB4437" strokeWidth="1.10315" strokeLinecap="round"/>
    <path d="M321.332 53.6621C322.747 54.0158 324.156 55.6398 325.253 56.5216C327.25 58.1275 329.379 59.4904 331.281 61.2235C335.292 64.878 339.284 68.6288 343.618 71.9097C348.047 75.2622 352.494 78.547 357.164 81.5493C359.545 83.0802 361.709 84.8793 364.18 86.2807C367.18 87.9822 370.231 89.4485 373.127 91.3364C378.972 95.1463 384.979 98.6336 390.726 102.612C395.759 106.097 401.169 109.044 406.173 112.561C410.64 115.702 415.466 118.386 419.881 121.597C422.619 123.588 425.759 125.378 428.253 127.684C429.643 128.971 431.342 130.19 432.896 131.266C433.393 131.61 434.828 132.276 435.092 132.725C435.686 133.736 437.684 134.969 438.747 135.525C440.802 136.602 442.796 138.093 444.702 139.417C446.289 140.519 447.974 141.461 449.595 142.541C450.753 143.313 452.043 144.046 453.074 144.929C453.542 145.331 454.573 146.135 455.182 146.271C455.485 146.338 457.068 147.376 457.172 147.582"
          stroke="#DB4437" strokeWidth="0.367717" strokeLinecap="round"/>
    <g filter="url(#filter0_i_163_744)">
        <path d="M113.731 44.0196L120.263 47.6899L130.912 46.3783L132.385 42.2881L138.671 40.7695L142.697 35.4769L149.594 34.6543L149.908 41.8049L155.259 43.9564L159.33 49.8529L156.481 62.9575L157.388 73.3296L162.305 74.411L163.081 79.0881L190.837 88.298L204.078 85.7668L222.709 94.1773L229.567 107.731L242.089 113.995L251.624 113.386L251.893 116.78L259.001 114.979L263.427 117.585L271.792 116.141L281.321 118.931L288.584 116.037L296.293 117.919L321.953 115.439L331.591 116.164L341.589 121.474L347.122 118.741L354.356 133.491L352.586 136.195L355.967 142.592L355.264 144.847L348.944 145.629L355.955 155.898L366.655 154.609L369.002 157.095L380.308 156.836L389.432 152.021L393.578 141.591L409.834 142.029L414.344 130.5L409.976 123.729L429.059 106.828L429.972 103.825L426.524 99.6082L429.499 97.3532L430.395 89.9667L434.963 90.542L437.19 87.7174L443.042 89.5467L463.507 73.8189L473.721 75.0443L475.36 73.2552L479.654 77.5409L481.71 74.4633L488.71 73.6462L489.075 68.6818L511.692 67.56L519.663 76.6378L523.146 86.1641L523.106 94.4596L527.423 97.0137L522.627 98.6878L509.54 95.2362L504.692 98.2563L507.244 106L510.95 108.053L513.068 118.241L524.711 119.944L527.143 119.622L526.755 116.205L532.659 116.228L534.6 119.041L537.455 115.75L539.145 120.64L542.565 119.915L544.484 117.211L549.686 116.567L550.394 113.8L560.255 118.247L567.055 117.062L594.617 102.709L596.004 94.96L606.562 93.4125L606.191 90.3751L610.73 93.3205L614.636 90.8583L617.525 92.4346L619.74 87.234L624.885 89.3857L625.781 102.289L635.163 98.8488L642.089 100.488L644.281 104.199L660.406 107.058L663.598 103.301L666.675 106.742L668.16 103.917L679.54 104.452L681.441 102.444L685.752 104.141L686.803 100.753L682.475 95.4547L685.273 94.7528L683.525 90.6225L693.232 87.2227L695.036 89.449L704.423 89.7481L711.561 81.8439L720.177 83.098L721.228 73.6809L735.611 79.4852L741.075 80.0432L743.593 77.8687L752.289 80.1007L758.034 96.8296L771.281 95.1613L781.456 89.3165L796.33 98.5381L803.347 99.3722L805.808 95.2073L812.637 98.0547L821.008 95.495L827.146 88.7413L835.905 85.2436L844.515 87.0499L857.711 99.8267L862.576 110.475L859.921 114.433L861.628 118.402L866.053 118.971L867.001 115.083L871.449 115.681L884.313 125.052L891.89 124.281L893.854 128.458L889.355 134.636L868.08 144.571L865.214 154.287L866.892 162.047L864.072 165.522L867.875 175.457L878.187 175.227L878.626 196.817L882.76 207.275L874.093 210.991L870.986 215.795L874.607 219.885L881.23 216.393L887.802 217.486L883.462 244.104L887.26 252.014L878.209 255.437L874.481 260.188L859.195 263.749L862.901 270.319L859.561 273.816L860.497 276.209L872.951 276.86L878.015 280.57L878.706 286.196L878.632 296.2L875.623 303.374L870.855 303.765L866.458 300.595L861.988 303.161L862.153 306.543L871.118 307.435L872.894 311.272L865.025 318.716L860.948 317.957L860.606 320.712L867.509 320.925L870.575 323.531L869.508 316.881L878.266 317.566L877.935 323.249L893.015 333.725L891.942 343.89L899.604 344.384L905.034 349.475L912.349 350.195L914.473 354.446L918.498 355.734L920.051 362.511L907.604 367.458L914.421 375.811L902.973 385.217L895.722 385.625L893.729 380.177L886.346 382.628L881.287 370.737L870.261 379.09L865.648 388.479L859.23 391.257L859.629 397.608L852.241 403.625L851.915 412.07L845.412 423.156L845.406 430.565L855.067 443.831L846.468 451.304L842.357 451.948L845.389 457.229L837.544 459.818L835.996 462.579L832.308 460.008L826.655 462.51L814.887 451.062L805.283 448.83L800.743 442.956L806.122 439.407L805.585 418.807L803.387 415.556L796.632 417.167L796.45 408.366L806.63 399.944L803.878 392.874L808.851 383.859L810.193 370.732L806.271 362.672L792.887 353.468L787.771 346.277L782.38 345.063L770.356 348.635L765.376 357.679L759.929 355.614L758.753 352.001L750.12 358.484L737.998 349.119L731.454 349.844L730.324 346.714L723.038 343.867L722.176 354.756L718.613 359.221L720.537 362.252L715.141 363.15L706.188 354.607L696.087 353.088L693.038 350.281L688.459 351.581L691.565 347.358L690.177 339.207L683.839 336.854L677.01 338.304L675.434 325.331L668.171 322.737L659.995 324.261L646.514 317.813L637.264 317.278L633.398 320.907L631.28 317.951L621.893 315.402L620.277 309.954L614.55 309.448L612.551 305.335L609.52 313.728L614.881 315.045L618.319 322.443L615.635 331.021L608.526 334.058L606.602 337.435L611.535 344.931L611.552 349.049L607.721 350.775L611.284 363.702L596.136 369.368L597.923 379.521L594.685 391.625L584.191 389.289L580.473 390.935L579.828 387.247L568.254 378.313L557.731 383.278L557.857 385.562L563.092 387.702L558.508 389.22L556.018 396.607L557.434 398.661L554.168 404.373L556.206 410.149L550.771 408.641L550.114 415.056L545.872 413.698L545.358 417.938L546.545 423.909L552.495 423.788L551.964 427.959L556.869 427.596L555.287 432.779L560.198 433.13L567.483 444.038L554.922 445.913L548.824 461.503L545.38 458.598L542.417 462.532L542.851 477.84L533.418 481.321L532.373 478.105L526.212 478.749L526.664 488.005L523.734 486.797L520.109 489.369L524.773 491.635L517.688 493.913L521.188 495.116L516.917 503.762L522.587 507.714L520.56 511.068L515.723 509.129L515.809 512.696L510.453 515.026L506.987 509.152L497.714 508.629L503.847 498.809L499.022 497.273L499.011 491.348L495.716 493.539L492.764 490.571L483.537 496.266L484.113 501.07L478.181 508.37L479.471 512.753L475.212 512.385L472.756 520.491L466.247 523.2L467.84 528.539L461.719 528.584L458.75 524.626L457.688 527.284L453.377 524.034L449.34 524.488L445.566 533.146L451.03 535.539L448.49 538.485L449.403 542.776L444.989 543.587L444.841 558.452L431.257 564.337L423.834 560.604L423.452 565.758L429.51 569.601L426.472 574.554L420.848 575.204L422.27 580.842L418.747 582.217L417.839 588.01L414.567 587.014L408.743 576.907L403.815 585.214L403.821 577.942L397.894 578.081L397.889 583.569L393.429 583.781L393.783 590.42L386.543 592.462L384.984 597.513L374.946 598.687L375.945 605.25L379.063 607.805L376.357 611.297L380.131 611.406L374.843 614.506L375.186 619.086L379.908 618.821L378.572 626.265L384.076 626.984L380.925 634.198L377.441 634.388L376.408 629.458L368.311 631.891L364.549 626.357L355.938 629.602L356.349 636.067L354.842 630.585L349.834 627.392L344.758 631.943L341.869 628.905L327.12 632.691L322.638 628.986L321.873 621.001L318.852 624.953L314.404 620.305L311.726 626.915L303.921 620.426L298.44 621.588L296.812 615.898L291.799 613.442L289.435 624.188L284.981 625.31L285.729 629.463L289.11 630.401L288.253 635.297L294.7 640.543L294.968 647.199L290.891 651.979L296.926 661.494L296.915 665.418L292.775 668.726L296.178 668.812L296.458 678.258L292.924 679.414L288.818 677.09L288.681 672.896L284.65 672.309L283.999 677.832L274.698 680.426L271.757 675.117L267.349 677.855L263.015 676.238L257.106 679.224L250.311 678.942L249.632 689.021L241.632 693.26L237.726 693.047L238.497 689.107H232.696L226.632 679.707L219.637 682.583L219.443 680.593L208.458 680.662L207.099 682.589L211.906 685.12L211.529 688.56L205.3 691.304L206.716 702.056L198.488 701.947L179.748 708.896L179.503 713.924L175.243 718.601L178.812 722.737L173.125 722.449L172.354 726.321L164.908 729.289L162.202 719.147L155.818 719.97L153.352 715.707L152.758 722.696L144.513 725.958L142.891 732.298L139.625 730.946L139.985 728.662L135.657 729.111L133.829 735.525L129.319 730.221L130.438 735.364L126.538 736.428L128.405 738.781L132.128 735.462L131.7 740.904L136.787 741.755L137.238 748.204L140.401 748.975L139.511 752.662L137.29 749.429L135.183 750.85L134.891 757.604L137.963 761.798L136.182 764.72L138.506 761.752L146.625 763.155L146.779 766.037L156.418 769.328L157.588 774.666L154.351 779.803L154.739 787.242L148.224 784.337L140.282 791.522L142.897 793.742L148.424 791.05L152.484 793.069L143.114 810.419L145.466 816.465L143.302 816.569L140.995 811.616L137.455 816.534L142.811 817.518L139.888 826.279L131.203 830.554L126.172 830.318L123.455 824.789L120.714 828.799L111.898 833.211L112.258 838.124L107.827 839.062L111.35 841.616L99.6216 847.294L96.1328 846.477L92.6155 842.352L89.7606 830.266L82.2406 829.288L80.2137 823.305L76.3309 830.732L58.0593 832.394L54.2737 829.742L57.3913 828.707L47.3305 809.01L37.7036 805.897L34.5175 793.621L31.1944 791.343L32.6561 789.232L28.8362 773.314L23.2233 753.048L20.7338 752.806L25.2161 747.652L20.4712 748.589L20.3684 743.32L14.5558 734.093L14.7213 728.748L17.7076 727.5L14.6186 723.168L17.3765 718.514L15.2524 718.1L13.9562 697.443L9.87365 686.777L11.9292 675.03L9.1428 674.961L10.6673 671.757L7.15005 669.847L12.3917 663.45L8.54324 659.135L3.46145 639.887L-0.621094 635.814L3.30157 635.325L3.96391 638.006L5.92241 634.767L1.50866 625.12L-3.2705 622.508L1.34307 618.257L-1.01508 617.906L-1.24918 609.886L-6.82777 603.604L-3.10492 600.262L-8.05537 593.394L-9.61418 586.203L-7.0904 583.447L-12.6689 571.89L-14.1649 560.747L-15.6552 561.518L-19.675 554.805L-18.6815 549.742L-24.4599 540.82L-22.901 538.231L-26.721 531.132L-24.7282 523.194L-31.5001 520.007L-30.9691 512.304L-27.4861 512.476L-25.4648 517.274L-15.0043 519.759L-16.5974 524.206L-12.7146 528.676L-13.6454 518.637L-16.7287 513.701L-24.1002 513.316L-29.1134 505.4L-33.5328 503.059L-32.0711 499.067L-35.7597 488.2L-31.8085 479.461L-40.5731 459.891L-38.883 446.268L-33.2702 447.816L-30.3467 443.323L-26.7895 448.138L-25.3335 445.642L-24.6026 438.508L-32.0369 440.406L-34.2637 433.935L-28.314 433.124L-30.5066 428.314L-28.5481 424.834L-25.7275 426.278L-19.3895 421.653L-22.9068 421.348L-24.1002 414.065L-27.7202 414.174L-28.5824 418.046L-34.0925 422.654L-39.7338 421.175L-41.8236 431.121L-46.2374 435.338L-44.3474 428.941L-48.133 427.785L-45.4094 418.109L-43.9819 419.202L-42.5887 416.561L-45.2438 416.141L-43.9477 409.629L-49.5319 400.482L-49.766 386.181L-47.2766 379.56L-52.2213 373.893L-53.7801 362.854L-49.5319 359.253L-48.8011 354.841L-51.3591 357.596L-56.9377 353.224L-57.6 345.953L-54.5795 345.705L-60.6548 320.733L-65 314.969L-64.8687 312.564L-61.3514 311.695L-63.3784 303.095L-57.166 298.067L-58.1938 285.573L-54.608 277.145L-46.9339 278.618L-46.9111 275.62L-42.9313 276.109L-43.017 270.863L-38.2492 265.754L-26.7838 267.474L-24.8424 272.709L-26.4526 277.875L-24.5398 280.113L-21.1652 277.346L-22.0331 280.476L-16.9399 285.918L-16.0035 281.919L-6.57653 283.806L-1.03794 287.804L2.59925 278.997L11.2954 275.488L13.9334 268.136L18.9181 269.246L20.6824 267.348L21.4875 269.988L28.1338 268.257L27.3573 249.641L23.5203 244.774L28.111 241.685L36.5959 225.601L34.3348 225.21L34.2149 220.055L29.3786 218.582L24.8792 212.508L29.3272 209.66L30.9717 203.827L34.4261 202.964L36.3161 211.121L41.0896 208.509L49.3232 213.313L52.8462 220.613L56.9002 222.776L60.5203 220.728L66.1617 222.137L76.9305 215.948L77.7755 209.378L75.0634 205.955L79.9567 205.892L82.5833 201.376L86.8029 202.158L90.2288 199.754L89.6978 187.224L83.7138 174.407L85.0785 168.89L74.3153 167.239L73.2761 163.834L69.3478 165.393L65.4422 159.611L66.687 152.099L55.6155 152.829L47.0507 145.189L50.0255 144.137L52.8005 149.711L58.1678 147.209L64.7856 148.992L65.3794 145.287L75.0519 144.672L76.1996 132.401L83.3541 133.046L90.1089 128.536L90.6285 115.057L92.5242 116.38L102.065 112.859L104.292 104.829L109.288 109.189L111.669 107.193L122.866 107.774L123.637 105.128L126.104 107.279L135.434 103.051L135.542 97.2063L132.807 94.1114L128.553 97.9197L124.728 96.0557L121.165 98.4776L118.544 94.8305L104.612 94.8419L79.6313 103.045L75.2918 89.8485L70.8837 86.4027L82.6004 83.8255L83.8851 76.7152L76.0968 68.6499L77.7413 65.0661L73.6245 60.8551L113.731 44.0168V44.0196Z"
              fill="#181818"/>
    </g>
    <rect x="409.385" y="273.348" width="403.077" height="207.919" fill="#181818"/>
    <defs>
        <filter id="filter0_i_163_744" x="-65" y="34.6543" width="987.052" height="816.64" filterUnits="userSpaceOnUse"
                color-interpolation-filters="sRGB">
            <feFlood flood-opacity="0" result="BackgroundImageFix"/>
            <feBlend mode="normal" in="SourceGraphic" in2="BackgroundImageFix" result="shape"/>
            <feColorMatrix in="SourceAlpha" type="matrix" values="0 0 0 0 0 0 0 0 0 0 0 0 0 0 0 0 0 0 127 0"
                           result="hardAlpha"/>
            <feOffset dx="2" dy="6"/>
            <feGaussianBlur stdDeviation="2"/>
            <feComposite in2="hardAlpha" operator="arithmetic" k2="-1" k3="1"/>
            <feColorMatrix type="matrix" values="0 0 0 0 0 0 0 0 0 0 0 0 0 0 0 0 0 0 0.3 0"/>
            <feBlend mode="normal" in2="shape" result="effect1_innerShadow_163_744"/>
        </filter>
    </defs>
</svg>
