<svg width="223" height="68" viewBox="0 0 223 68" fill="none" xmlns="http://www.w3.org/2000/svg">
<path d="M7.85624 41.5336C6.58463 41.5336 5.41375 41.2252 4.34359 40.6082C3.27343 39.9913 2.4236 39.1415 1.79409 38.0587C1.16459 36.976 0.849833 35.7799 0.849833 34.4705C0.849833 33.1612 1.16459 31.9651 1.79409 30.8824C2.4236 29.7996 3.27343 28.9498 4.34359 28.3329C5.41375 27.7159 6.58463 27.4075 7.85624 27.4075C8.85086 27.4075 9.78253 27.5838 10.6512 27.9363C11.5326 28.2888 12.2565 28.7861 12.823 29.4282L11.671 30.5802C11.243 30.0514 10.6953 29.6485 10.028 29.3715C9.36076 29.082 8.64312 28.9372 7.87512 28.9372C6.91827 28.9372 6.02437 29.1701 5.19343 29.6359C4.37507 30.0892 3.71409 30.7376 3.21048 31.5811C2.71947 32.4121 2.47396 33.3752 2.47396 34.4705C2.47396 35.5659 2.71947 36.5353 3.21048 37.3789C3.71409 38.2098 4.38136 38.8582 5.21231 39.324C6.04326 39.7773 6.93086 40.0039 7.87512 40.0039C8.78161 40.0039 9.53702 39.8654 10.1413 39.5884C10.7583 39.2989 11.287 38.9212 11.7277 38.4553C12.055 38.1028 12.3194 37.681 12.5209 37.19C12.7223 36.6864 12.8482 36.1324 12.8986 35.5281H7.89401V34.0362H14.3905C14.4535 34.3887 14.4849 34.7161 14.4849 35.0182C14.4849 35.8492 14.3527 36.6612 14.0883 37.4544C13.824 38.235 13.4022 38.9212 12.823 39.5129C11.5766 40.86 9.92102 41.5336 7.85624 41.5336ZM20.8982 41.5336C19.954 41.5336 19.1041 41.307 18.3487 40.8537C17.5933 40.4005 17.0016 39.7836 16.5735 39.003C16.158 38.2224 15.9503 37.36 15.9503 36.4157C15.9503 35.4715 16.158 34.609 16.5735 33.8285C17.0016 33.0479 17.5933 32.4309 18.3487 31.9777C19.1041 31.5245 19.954 31.2978 20.8982 31.2978C21.8425 31.2978 22.6923 31.5245 23.4477 31.9777C24.2031 32.4309 24.7886 33.0479 25.2041 33.8285C25.6321 34.609 25.8461 35.4715 25.8461 36.4157C25.8461 37.36 25.6321 38.2224 25.2041 39.003C24.7886 39.7836 24.2031 40.4005 23.4477 40.8537C22.6923 41.307 21.8425 41.5336 20.8982 41.5336ZM20.8982 40.0794C21.49 40.0794 22.0376 39.9347 22.5412 39.6451C23.0574 39.3429 23.4666 38.9149 23.7688 38.3609C24.0835 37.8069 24.2409 37.1585 24.2409 36.4157C24.2409 35.6729 24.0835 35.0245 23.7688 34.4705C23.4666 33.9166 23.0574 33.4948 22.5412 33.2052C22.0376 32.9031 21.49 32.752 20.8982 32.752C20.3065 32.752 19.7525 32.9031 19.2363 33.2052C18.7201 33.4948 18.3047 33.9166 17.9899 34.4705C17.6877 35.0245 17.5367 35.6729 17.5367 36.4157C17.5367 37.1585 17.6877 37.8069 17.9899 38.3609C18.3047 38.9149 18.7201 39.3429 19.2363 39.6451C19.7525 39.9347 20.3065 40.0794 20.8982 40.0794ZM32.1482 41.5336C31.2039 41.5336 30.3541 41.307 29.5987 40.8537C28.8433 40.4005 28.2515 39.7836 27.8235 39.003C27.408 38.2224 27.2003 37.36 27.2003 36.4157C27.2003 35.4715 27.408 34.609 27.8235 33.8285C28.2515 33.0479 28.8433 32.4309 29.5987 31.9777C30.3541 31.5245 31.2039 31.2978 32.1482 31.2978C33.0925 31.2978 33.9423 31.5245 34.6977 31.9777C35.4531 32.4309 36.0385 33.0479 36.454 33.8285C36.8821 34.609 37.0961 35.4715 37.0961 36.4157C37.0961 37.36 36.8821 38.2224 36.454 39.003C36.0385 39.7836 35.4531 40.4005 34.6977 40.8537C33.9423 41.307 33.0925 41.5336 32.1482 41.5336ZM32.1482 40.0794C32.7399 40.0794 33.2876 39.9347 33.7912 39.6451C34.3074 39.3429 34.7166 38.9149 35.0187 38.3609C35.3335 37.8069 35.4909 37.1585 35.4909 36.4157C35.4909 35.6729 35.3335 35.0245 35.0187 34.4705C34.7166 33.9166 34.3074 33.4948 33.7912 33.2052C33.2876 32.9031 32.7399 32.752 32.1482 32.752C31.5565 32.752 31.0025 32.9031 30.4863 33.2052C29.9701 33.4948 29.5546 33.9166 29.2399 34.4705C28.9377 35.0245 28.7866 35.6729 28.7866 36.4157C28.7866 37.1585 28.9377 37.8069 29.2399 38.3609C29.5546 38.9149 29.9701 39.3429 30.4863 39.6451C31.0025 39.9347 31.5565 40.0794 32.1482 40.0794ZM43.1904 45.6128C42.0573 45.6128 41.1193 45.3484 40.3765 44.8196C39.6463 44.2908 39.1553 43.655 38.9035 42.9122L40.3576 42.289C40.5717 42.843 40.9242 43.2899 41.4152 43.6299C41.9188 43.9824 42.5106 44.1586 43.1904 44.1586C44.185 44.1586 44.953 43.8691 45.4944 43.2899C46.0484 42.7108 46.3254 41.8924 46.3254 40.8349V39.7584H46.2498C45.9351 40.2494 45.4881 40.6523 44.909 40.9671C44.3424 41.2692 43.694 41.4203 42.9638 41.4203C42.1328 41.4203 41.3711 41.2063 40.6787 40.7782C39.9988 40.3501 39.4574 39.7521 39.0546 38.9841C38.6517 38.2161 38.4502 37.3411 38.4502 36.3591C38.4502 35.3896 38.6517 34.5209 39.0546 33.7529C39.4574 32.9723 39.9988 32.368 40.6787 31.9399C41.3711 31.5119 42.1328 31.2978 42.9638 31.2978C43.694 31.2978 44.3424 31.4552 44.909 31.77C45.4881 32.0721 45.9351 32.475 46.2498 32.9786H46.3254V31.6H47.8551V40.8537C47.8551 42.4023 47.427 43.5795 46.5709 44.3853C45.7147 45.2036 44.5879 45.6128 43.1904 45.6128ZM43.1904 39.9661C43.7696 39.9661 44.2921 39.8214 44.7579 39.5318C45.2363 39.2422 45.614 38.8267 45.891 38.2854C46.1806 37.744 46.3254 37.1019 46.3254 36.3591C46.3254 35.6037 46.1806 34.9553 45.891 34.4139C45.614 33.8725 45.2363 33.4633 44.7579 33.1864C44.2921 32.8968 43.7696 32.752 43.1904 32.752C42.6113 32.752 42.0825 32.8968 41.6041 33.1864C41.1256 33.4759 40.7416 33.8914 40.4521 34.4328C40.1751 34.9742 40.0366 35.6163 40.0366 36.3591C40.0366 37.1019 40.1751 37.7503 40.4521 38.3042C40.7416 38.8456 41.1256 39.2611 41.6041 39.5507C42.0825 39.8276 42.6113 39.9661 43.1904 39.9661ZM50.2285 27.7097H51.8338V41.2314H50.2285V27.7097ZM58.4069 41.5336C57.4878 41.5336 56.6631 41.3133 55.9329 40.8726C55.2027 40.432 54.6298 39.8276 54.2143 39.0596C53.8115 38.2791 53.61 37.404 53.61 36.4346C53.61 35.5029 53.7989 34.6468 54.1766 33.8662C54.5669 33.0856 55.1145 32.4624 55.8196 31.9966C56.5246 31.5308 57.343 31.2978 58.2747 31.2978C59.2189 31.2978 60.0373 31.5119 60.7297 31.9399C61.4222 32.3554 61.951 32.9346 62.3161 33.6774C62.6938 34.4202 62.8826 35.27 62.8826 36.2269C62.8826 36.4157 62.8638 36.5794 62.826 36.7179H55.2153C55.253 37.4481 55.4293 38.065 55.744 38.5686C56.0588 39.0722 56.4554 39.4499 56.9338 39.7017C57.4248 39.9535 57.9347 40.0794 58.4635 40.0794C59.6973 40.0794 60.6479 39.5003 61.3152 38.342L62.6749 39.003C62.2594 39.7836 61.6929 40.4005 60.9752 40.8537C60.2702 41.307 59.4141 41.5336 58.4069 41.5336ZM61.183 35.3959C61.1578 34.993 61.0445 34.5902 60.843 34.1873C60.6416 33.7844 60.3206 33.4445 59.8799 33.1675C59.4518 32.8905 58.9105 32.752 58.2558 32.752C57.5004 32.752 56.8583 32.9975 56.3295 33.4885C55.8133 33.9669 55.4734 34.6027 55.3097 35.3959H61.183ZM69.4717 27.7097H73.5509C74.9358 27.7097 76.1444 27.9992 77.1768 28.5784C78.2092 29.1449 79.0024 29.9381 79.5564 30.9579C80.1103 31.9777 80.3873 33.1486 80.3873 34.4705C80.3873 35.7925 80.1103 36.9634 79.5564 37.9832C79.0024 39.003 78.2092 39.8025 77.1768 40.3816C76.1444 40.9482 74.9358 41.2314 73.5509 41.2314H69.4717V27.7097ZM73.5509 39.7017C75.1498 39.7017 76.4151 39.2422 77.3468 38.3231C78.291 37.404 78.7632 36.1199 78.7632 34.4705C78.7632 32.8212 78.291 31.537 77.3468 30.618C76.4151 29.6989 75.1498 29.2394 73.5509 29.2394H71.058V39.7017H73.5509ZM86.4396 41.5336C85.5205 41.5336 84.6958 41.3133 83.9656 40.8726C83.2354 40.432 82.6625 39.8276 82.247 39.0596C81.8442 38.2791 81.6427 37.404 81.6427 36.4346C81.6427 35.5029 81.8316 34.6468 82.2093 33.8662C82.5996 33.0856 83.1472 32.4624 83.8523 31.9966C84.5573 31.5308 85.3757 31.2978 86.3074 31.2978C87.2516 31.2978 88.07 31.5119 88.7624 31.9399C89.4549 32.3554 89.9837 32.9346 90.3488 33.6774C90.7265 34.4202 90.9153 35.27 90.9153 36.2269C90.9153 36.4157 90.8965 36.5794 90.8587 36.7179H83.248C83.2857 37.4481 83.462 38.065 83.7767 38.5686C84.0915 39.0722 84.4881 39.4499 84.9665 39.7017C85.4575 39.9535 85.9674 40.0794 86.4962 40.0794C87.73 40.0794 88.6806 39.5003 89.3479 38.342L90.7076 39.003C90.2921 39.7836 89.7256 40.4005 89.0079 40.8537C88.3029 41.307 87.4468 41.5336 86.4396 41.5336ZM89.2157 35.3959C89.1905 34.993 89.0772 34.5902 88.8757 34.1873C88.6743 33.7844 88.3533 33.4445 87.9126 33.1675C87.4845 32.8905 86.9432 32.752 86.2885 32.752C85.5331 32.752 84.891 32.9975 84.3622 33.4885C83.846 33.9669 83.5061 34.6027 83.3424 35.3959H89.2157ZM91.552 31.6H93.2705L96.2544 39.3429H96.2922L99.3138 31.6H100.995L97.0665 41.2314H95.4423L91.552 31.6ZM106.321 41.5336C105.402 41.5336 104.577 41.3133 103.847 40.8726C103.116 40.432 102.544 39.8276 102.128 39.0596C101.725 38.2791 101.524 37.404 101.524 36.4346C101.524 35.5029 101.713 34.6468 102.09 33.8662C102.481 33.0856 103.028 32.4624 103.733 31.9966C104.438 31.5308 105.257 31.2978 106.188 31.2978C107.133 31.2978 107.951 31.5119 108.644 31.9399C109.336 32.3554 109.865 32.9346 110.23 33.6774C110.608 34.4202 110.796 35.27 110.796 36.2269C110.796 36.4157 110.778 36.5794 110.74 36.7179H103.129C103.167 37.4481 103.343 38.065 103.658 38.5686C103.973 39.0722 104.369 39.4499 104.848 39.7017C105.339 39.9535 105.849 40.0794 106.377 40.0794C107.611 40.0794 108.562 39.5003 109.229 38.342L110.589 39.003C110.173 39.7836 109.607 40.4005 108.889 40.8537C108.184 41.307 107.328 41.5336 106.321 41.5336ZM109.097 35.3959C109.072 34.993 108.958 34.5902 108.757 34.1873C108.555 33.7844 108.234 33.4445 107.794 33.1675C107.366 32.8905 106.824 32.752 106.17 32.752C105.414 32.752 104.772 32.9975 104.243 33.4885C103.727 33.9669 103.387 34.6027 103.223 35.3959H109.097ZM112.675 27.7097H114.28V41.2314H112.675V27.7097ZM121.004 41.5336C120.06 41.5336 119.21 41.307 118.455 40.8537C117.7 40.4005 117.108 39.7836 116.68 39.003C116.264 38.2224 116.057 37.36 116.057 36.4157C116.057 35.4715 116.264 34.609 116.68 33.8285C117.108 33.0479 117.7 32.4309 118.455 31.9777C119.21 31.5245 120.06 31.2978 121.004 31.2978C121.949 31.2978 122.799 31.5245 123.554 31.9777C124.309 32.4309 124.895 33.0479 125.31 33.8285C125.738 34.609 125.952 35.4715 125.952 36.4157C125.952 37.36 125.738 38.2224 125.31 39.003C124.895 39.7836 124.309 40.4005 123.554 40.8537C122.799 41.307 121.949 41.5336 121.004 41.5336ZM121.004 40.0794C121.596 40.0794 122.144 39.9347 122.647 39.6451C123.164 39.3429 123.573 38.9149 123.875 38.3609C124.19 37.8069 124.347 37.1585 124.347 36.4157C124.347 35.6729 124.19 35.0245 123.875 34.4705C123.573 33.9166 123.164 33.4948 122.647 33.2052C122.144 32.9031 121.596 32.752 121.004 32.752C120.413 32.752 119.859 32.9031 119.343 33.2052C118.826 33.4948 118.411 33.9166 118.096 34.4705C117.794 35.0245 117.643 35.6729 117.643 36.4157C117.643 37.1585 117.794 37.8069 118.096 38.3609C118.411 38.9149 118.826 39.3429 119.343 39.6451C119.859 39.9347 120.413 40.0794 121.004 40.0794ZM127.649 31.6H129.178V33.0353H129.254C129.543 32.5443 129.978 32.1351 130.557 31.8077C131.149 31.4678 131.81 31.2978 132.54 31.2978C133.396 31.2978 134.177 31.5182 134.882 31.9588C135.587 32.3995 136.141 33.0101 136.544 33.7907C136.946 34.5713 137.148 35.4463 137.148 36.4157C137.148 37.3978 136.946 38.2791 136.544 39.0596C136.141 39.8276 135.587 40.432 134.882 40.8726C134.177 41.3133 133.396 41.5336 132.54 41.5336C131.81 41.5336 131.149 41.3699 130.557 41.0426C129.978 40.7027 129.543 40.2935 129.254 39.8151H129.178L129.254 41.137V45.3106H127.649V31.6ZM132.351 40.0794C132.905 40.0794 133.428 39.9284 133.919 39.6262C134.41 39.324 134.8 38.896 135.089 38.342C135.392 37.7755 135.543 37.1334 135.543 36.4157C135.543 35.6981 135.392 35.0623 135.089 34.5083C134.8 33.9418 134.41 33.5074 133.919 33.2052C133.428 32.9031 132.905 32.752 132.351 32.752C131.797 32.752 131.275 32.9031 130.784 33.2052C130.293 33.5074 129.902 33.9355 129.613 34.4894C129.323 35.0434 129.178 35.6855 129.178 36.4157C129.178 37.1459 129.323 37.788 129.613 38.342C129.902 38.896 130.293 39.324 130.784 39.6262C131.275 39.9284 131.797 40.0794 132.351 40.0794ZM143.298 41.5336C142.379 41.5336 141.554 41.3133 140.824 40.8726C140.094 40.432 139.521 39.8276 139.105 39.0596C138.703 38.2791 138.501 37.404 138.501 36.4346C138.501 35.5029 138.69 34.6468 139.068 33.8662C139.458 33.0856 140.006 32.4624 140.711 31.9966C141.416 31.5308 142.234 31.2978 143.166 31.2978C144.11 31.2978 144.928 31.5119 145.621 31.9399C146.313 32.3554 146.842 32.9346 147.207 33.6774C147.585 34.4202 147.774 35.27 147.774 36.2269C147.774 36.4157 147.755 36.5794 147.717 36.7179H140.106C140.144 37.4481 140.32 38.065 140.635 38.5686C140.95 39.0722 141.347 39.4499 141.825 39.7017C142.316 39.9535 142.826 40.0794 143.355 40.0794C144.588 40.0794 145.539 39.5003 146.206 38.342L147.566 39.003C147.151 39.7836 146.584 40.4005 145.866 40.8537C145.161 41.307 144.305 41.5336 143.298 41.5336ZM146.074 35.3959C146.049 34.993 145.936 34.5902 145.734 34.1873C145.533 33.7844 145.212 33.4445 144.771 33.1675C144.343 32.8905 143.802 32.752 143.147 32.752C142.391 32.752 141.749 32.9975 141.221 33.4885C140.704 33.9669 140.364 34.6027 140.201 35.3959H146.074ZM149.652 31.6H151.182V33.1486H151.258C151.447 32.6198 151.812 32.1854 152.353 31.8455C152.894 31.493 153.461 31.3167 154.053 31.3167C154.493 31.3167 154.871 31.3797 155.186 31.5056V33.243C154.783 33.0416 154.33 32.9408 153.826 32.9408C153.36 32.9408 152.932 33.073 152.542 33.3374C152.152 33.6018 151.837 33.9606 151.598 34.4139C151.371 34.8545 151.258 35.333 151.258 35.8492V41.2314H149.652V31.6ZM167.421 41.5336C166.15 41.5336 164.979 41.2252 163.909 40.6082C162.838 39.9913 161.989 39.1415 161.359 38.0587C160.73 36.976 160.415 35.7799 160.415 34.4705C160.415 33.1612 160.73 31.9651 161.359 30.8824C161.989 29.7996 162.838 28.9498 163.909 28.3329C164.979 27.7159 166.15 27.4075 167.421 27.4075C168.416 27.4075 169.348 27.5838 170.216 27.9363C171.098 28.2888 171.822 28.7861 172.388 29.4282L171.236 30.5802C170.808 30.0514 170.26 29.6485 169.593 29.3715C168.926 29.082 168.208 28.9372 167.44 28.9372C166.483 28.9372 165.589 29.1701 164.758 29.6359C163.94 30.0892 163.279 30.7376 162.776 31.5811C162.285 32.4121 162.039 33.3752 162.039 34.4705C162.039 35.5659 162.285 36.5353 162.776 37.3789C163.279 38.2098 163.946 38.8582 164.777 39.324C165.608 39.7773 166.496 40.0039 167.44 40.0039C168.347 40.0039 169.102 39.8654 169.706 39.5884C170.323 39.2989 170.852 38.9212 171.293 38.4553C171.62 38.1028 171.884 37.681 172.086 37.19C172.287 36.6864 172.413 36.1324 172.464 35.5281H167.459V34.0362H173.956C174.019 34.3887 174.05 34.7161 174.05 35.0182C174.05 35.8492 173.918 36.6612 173.653 37.4544C173.389 38.235 172.967 38.9212 172.388 39.5129C171.142 40.86 169.486 41.5336 167.421 41.5336ZM175.749 31.6H177.278V33.1486H177.354C177.543 32.6198 177.908 32.1854 178.449 31.8455C178.991 31.493 179.557 31.3167 180.149 31.3167C180.59 31.3167 180.967 31.3797 181.282 31.5056V33.243C180.879 33.0416 180.426 32.9408 179.922 32.9408C179.456 32.9408 179.028 33.073 178.638 33.3374C178.248 33.6018 177.933 33.9606 177.694 34.4139C177.467 34.8545 177.354 35.333 177.354 35.8492V41.2314H175.749V31.6ZM186.697 41.5336C185.753 41.5336 184.903 41.307 184.147 40.8537C183.392 40.4005 182.8 39.7836 182.372 39.003C181.957 38.2224 181.749 37.36 181.749 36.4157C181.749 35.4715 181.957 34.609 182.372 33.8285C182.8 33.0479 183.392 32.4309 184.147 31.9777C184.903 31.5245 185.753 31.2978 186.697 31.2978C187.641 31.2978 188.491 31.5245 189.246 31.9777C190.002 32.4309 190.587 33.0479 191.003 33.8285C191.431 34.609 191.645 35.4715 191.645 36.4157C191.645 37.36 191.431 38.2224 191.003 39.003C190.587 39.7836 190.002 40.4005 189.246 40.8537C188.491 41.307 187.641 41.5336 186.697 41.5336ZM186.697 40.0794C187.289 40.0794 187.836 39.9347 188.34 39.6451C188.856 39.3429 189.265 38.9149 189.567 38.3609C189.882 37.8069 190.04 37.1585 190.04 36.4157C190.04 35.6729 189.882 35.0245 189.567 34.4705C189.265 33.9166 188.856 33.4948 188.34 33.2052C187.836 32.9031 187.289 32.752 186.697 32.752C186.105 32.752 185.551 32.9031 185.035 33.2052C184.519 33.4948 184.103 33.9166 183.789 34.4705C183.486 35.0245 183.335 35.6729 183.335 36.4157C183.335 37.1585 183.486 37.8069 183.789 38.3609C184.103 38.9149 184.519 39.3429 185.035 39.6451C185.551 39.9347 186.105 40.0794 186.697 40.0794ZM196.91 41.5336C195.752 41.5336 194.864 41.1937 194.248 40.5138C193.643 39.8339 193.341 38.8834 193.341 37.6621V31.6H194.946V37.4166C194.946 38.3357 195.154 39.0093 195.57 39.4374C195.985 39.8654 196.545 40.0794 197.25 40.0794C197.792 40.0794 198.27 39.9347 198.686 39.6451C199.114 39.3555 199.441 38.9778 199.668 38.512C199.907 38.0461 200.026 37.5551 200.026 37.0389V31.6H201.632V41.2314H200.102V39.8339H200.026C199.762 40.3124 199.34 40.7153 198.761 41.0426C198.182 41.3699 197.565 41.5336 196.91 41.5336ZM203.927 31.6H205.457V33.0353H205.532C205.822 32.5443 206.256 32.1351 206.835 31.8077C207.427 31.4678 208.088 31.2978 208.818 31.2978C209.674 31.2978 210.455 31.5182 211.16 31.9588C211.865 32.3995 212.419 33.0101 212.822 33.7907C213.225 34.5713 213.426 35.4463 213.426 36.4157C213.426 37.3978 213.225 38.2791 212.822 39.0596C212.419 39.8276 211.865 40.432 211.16 40.8726C210.455 41.3133 209.674 41.5336 208.818 41.5336C208.088 41.5336 207.427 41.3699 206.835 41.0426C206.256 40.7027 205.822 40.2935 205.532 39.8151H205.457L205.532 41.137V45.3106H203.927V31.6ZM208.63 40.0794C209.183 40.0794 209.706 39.9284 210.197 39.6262C210.688 39.324 211.078 38.896 211.368 38.342C211.67 37.7755 211.821 37.1334 211.821 36.4157C211.821 35.6981 211.67 35.0623 211.368 34.5083C211.078 33.9418 210.688 33.5074 210.197 33.2052C209.706 32.9031 209.183 32.752 208.63 32.752C208.076 32.752 207.553 32.9031 207.062 33.2052C206.571 33.5074 206.181 33.9355 205.891 34.4894C205.602 35.0434 205.457 35.6855 205.457 36.4157C205.457 37.1459 205.602 37.788 205.891 38.342C206.181 38.896 206.571 39.324 207.062 39.6262C207.553 39.9284 208.076 40.0794 208.63 40.0794ZM218.559 41.5336C217.526 41.5336 216.664 41.2944 215.972 40.816C215.279 40.325 214.788 39.7017 214.499 38.9463L215.934 38.3042C216.173 38.8834 216.526 39.3303 216.991 39.6451C217.47 39.9598 217.992 40.1172 218.559 40.1172C219.163 40.1172 219.679 39.9976 220.107 39.7584C220.535 39.5066 220.75 39.1541 220.75 38.7008C220.75 38.2979 220.58 37.9769 220.24 37.7377C219.9 37.4859 219.365 37.2719 218.634 37.0956L217.463 36.7934C216.695 36.6046 216.066 36.2835 215.575 35.8303C215.084 35.377 214.838 34.7916 214.838 34.074C214.838 33.52 215.002 33.0353 215.329 32.6198C215.669 32.1917 216.116 31.8644 216.67 31.6378C217.224 31.4111 217.822 31.2978 218.464 31.2978C219.308 31.2978 220.057 31.4804 220.712 31.8455C221.379 32.2106 221.851 32.7205 222.128 33.3752L220.731 34.0173C220.303 33.1612 219.541 32.7331 218.446 32.7331C217.917 32.7331 217.451 32.859 217.048 33.1108C216.658 33.35 216.463 33.6585 216.463 34.0362C216.463 34.3887 216.601 34.6783 216.878 34.9049C217.155 35.1189 217.571 35.2952 218.124 35.4337L219.522 35.7925C220.466 36.0317 221.178 36.3905 221.656 36.869C222.134 37.3348 222.374 37.9077 222.374 38.5875C222.374 39.1793 222.204 39.7017 221.864 40.155C221.524 40.5956 221.064 40.9356 220.485 41.1748C219.906 41.414 219.264 41.5336 218.559 41.5336Z" fill="#616161"/>
<path d="M92.206 55.0893H93.4285L97.6486 61.7896H97.6956L97.6486 60.1674V55.0893H98.6477V63.5059H97.6133L93.1934 56.4881H93.1464L93.1934 58.1103V63.5059H92.206V55.0893ZM102.073 63.6939C101.634 63.6939 101.242 63.6077 100.897 63.4353C100.552 63.2629 100.286 63.0278 100.098 62.73C99.9098 62.4244 99.8157 62.0796 99.8157 61.6956C99.8157 61.0608 100.055 60.5671 100.533 60.2145C101.011 59.854 101.614 59.6737 102.343 59.6737C102.704 59.6737 103.037 59.7129 103.342 59.7913C103.656 59.8697 103.895 59.9598 104.059 60.0617V59.6972C104.059 59.2506 103.903 58.894 103.589 58.6275C103.276 58.3533 102.88 58.2161 102.402 58.2161C102.065 58.2161 101.755 58.2906 101.473 58.4395C101.191 58.5805 100.968 58.7804 100.803 59.039L100.051 58.4747C100.286 58.1142 100.607 57.8321 101.015 57.6284C101.43 57.4246 101.889 57.3227 102.39 57.3227C103.205 57.3227 103.844 57.5383 104.306 57.9693C104.776 58.3924 105.011 58.9724 105.011 59.709V63.5059H104.059V62.6477H104.012C103.84 62.9377 103.581 63.1846 103.236 63.3883C102.892 63.5921 102.504 63.6939 102.073 63.6939ZM102.167 62.8123C102.504 62.8123 102.817 62.7261 103.107 62.5537C103.397 62.3813 103.628 62.1501 103.801 61.8602C103.973 61.5702 104.059 61.2528 104.059 60.908C103.871 60.7826 103.64 60.6807 103.366 60.6024C103.091 60.524 102.801 60.4848 102.496 60.4848C101.947 60.4848 101.532 60.5985 101.25 60.8257C100.976 61.053 100.838 61.3469 100.838 61.7073C100.838 62.0365 100.964 62.3029 101.215 62.5067C101.465 62.7104 101.783 62.8123 102.167 62.8123ZM108.977 66.233C108.272 66.233 107.688 66.0684 107.226 65.7393C106.771 65.4102 106.466 65.0144 106.309 64.5521L107.214 64.1641C107.347 64.509 107.567 64.7872 107.872 64.9987C108.186 65.2182 108.554 65.3279 108.977 65.3279C109.596 65.3279 110.074 65.1476 110.411 64.7872C110.756 64.4267 110.928 63.9173 110.928 63.259V62.589H110.881C110.686 62.8946 110.407 63.1454 110.047 63.3413C109.694 63.5294 109.291 63.6234 108.836 63.6234C108.319 63.6234 107.845 63.4902 107.414 63.2237C106.991 62.9573 106.654 62.5851 106.403 62.107C106.152 61.629 106.027 61.0843 106.027 60.4731C106.027 59.8697 106.152 59.3289 106.403 58.8509C106.654 58.365 106.991 57.9889 107.414 57.7224C107.845 57.456 108.319 57.3227 108.836 57.3227C109.291 57.3227 109.694 57.4207 110.047 57.6166C110.407 57.8047 110.686 58.0555 110.881 58.3689H110.928V57.5108H111.881V63.2708C111.881 64.2347 111.614 64.9674 111.081 65.4689C110.548 65.9783 109.847 66.233 108.977 66.233ZM108.977 62.7183C109.338 62.7183 109.663 62.6282 109.953 62.4479C110.251 62.2677 110.486 62.0091 110.658 61.6721C110.838 61.3351 110.928 60.9354 110.928 60.4731C110.928 60.0029 110.838 59.5993 110.658 59.2623C110.486 58.9253 110.251 58.6706 109.953 58.4982C109.663 58.318 109.338 58.2279 108.977 58.2279C108.617 58.2279 108.288 58.318 107.99 58.4982C107.692 58.6785 107.453 58.9371 107.273 59.2741C107.1 59.611 107.014 60.0107 107.014 60.4731C107.014 60.9354 107.1 61.339 107.273 61.6838C107.453 62.0208 107.692 62.2794 107.99 62.4597C108.288 62.6321 108.617 62.7183 108.977 62.7183ZM113.311 57.5108H114.263V58.4042H114.31C114.49 58.0986 114.761 57.8439 115.121 57.6401C115.49 57.4285 115.901 57.3227 116.356 57.3227C116.888 57.3227 117.374 57.4599 117.813 57.7342C118.252 58.0084 118.597 58.3885 118.848 58.8744C119.098 59.3603 119.224 59.9049 119.224 60.5083C119.224 61.1196 119.098 61.6682 118.848 62.154C118.597 62.6321 118.252 63.0082 117.813 63.2825C117.374 63.5568 116.888 63.6939 116.356 63.6939C115.901 63.6939 115.49 63.5921 115.121 63.3883C114.761 63.1767 114.49 62.922 114.31 62.6242H114.263L114.31 63.4471V66.0449H113.311V57.5108ZM116.238 62.7888C116.583 62.7888 116.908 62.6948 117.214 62.5067C117.519 62.3186 117.762 62.0522 117.942 61.7073C118.131 61.3547 118.225 60.955 118.225 60.5083C118.225 60.0617 118.131 59.6659 117.942 59.3211C117.762 58.9684 117.519 58.6981 117.214 58.51C116.908 58.3219 116.583 58.2279 116.238 58.2279C115.893 58.2279 115.568 58.3219 115.262 58.51C114.957 58.6981 114.714 58.9645 114.533 59.3093C114.353 59.6541 114.263 60.0538 114.263 60.5083C114.263 60.9629 114.353 61.3625 114.533 61.7073C114.714 62.0522 114.957 62.3186 115.262 62.5067C115.568 62.6948 115.893 62.7888 116.238 62.7888ZM122.501 63.6939C121.78 63.6939 121.227 63.4823 120.843 63.0592C120.467 62.636 120.279 62.0443 120.279 61.2842V57.5108H121.278V61.1314C121.278 61.7034 121.407 62.1227 121.666 62.3891C121.925 62.6556 122.273 62.7888 122.712 62.7888C123.049 62.7888 123.347 62.6987 123.606 62.5184C123.872 62.3382 124.076 62.1031 124.217 61.8131C124.366 61.5232 124.44 61.2176 124.44 60.8963V57.5108H125.439V63.5059H124.487V62.636H124.44C124.276 62.9338 124.013 63.1846 123.653 63.3883C123.292 63.5921 122.908 63.6939 122.501 63.6939ZM126.915 57.5108H127.867V58.4747H127.914C128.032 58.1456 128.259 57.8752 128.596 57.6636C128.933 57.4442 129.286 57.3345 129.654 57.3345C129.928 57.3345 130.164 57.3737 130.359 57.452V58.5335C130.109 58.4081 129.827 58.3454 129.513 58.3454C129.223 58.3454 128.957 58.4277 128.714 58.5923C128.471 58.7568 128.275 58.9802 128.126 59.2623C127.985 59.5366 127.914 59.8344 127.914 60.1557V63.5059H126.915V57.5108Z" fill="#616161"/>
<path d="M101.864 9.08292L107.915 5.57267C108.257 5.37896 108.558 5.11933 108.799 4.80876C109.041 4.49819 109.219 4.14284 109.322 3.76321C109.426 3.38359 109.453 2.98721 109.403 2.59697C109.352 2.20674 109.225 1.83038 109.028 1.48961C108.831 1.14884 108.569 0.850419 108.256 0.611582C107.944 0.372745 107.587 0.198223 107.206 0.0980872C106.826 -0.00204892 106.429 -0.0258125 106.039 0.0281683C105.649 0.0821492 105.274 0.212804 104.935 0.412591L94.4746 6.46779L101.864 9.08292Z" fill="#F05B44"/>
<path d="M106.421 18.065C107.076 18.0655 107.714 17.8494 108.235 17.4503C108.756 17.0512 109.13 16.4915 109.3 15.8579C109.47 15.2243 109.426 14.5523 109.175 13.9462C108.924 13.3401 108.48 12.8337 107.912 12.5057L97.4342 6.46803C96.7505 6.08132 95.9416 5.98032 95.1837 6.18701C94.4259 6.39369 93.7803 6.89133 93.3875 7.57164C92.9947 8.25195 92.8865 9.05986 93.0864 9.81956C93.2863 10.5793 93.7781 11.2293 94.4549 11.6281L104.915 17.6658C105.372 17.9309 105.892 18.0688 106.421 18.065Z" fill="#5199F6"/>
<path d="M116.83 18.0652C117.351 18.0663 117.863 17.9284 118.313 17.6659L128.774 11.6282L121.486 8.95605L115.343 12.5058C114.775 12.8339 114.331 13.3402 114.08 13.9463C113.829 14.5525 113.785 15.2244 113.955 15.858C114.125 16.4916 114.5 17.0514 115.02 17.4504C115.541 17.8495 116.179 18.0656 116.835 18.0652H116.83Z" fill="#FCC500"/>
<path d="M127.271 12.0276C127.927 12.028 128.565 11.8119 129.086 11.4128C129.606 11.0138 129.981 10.454 130.151 9.82043C130.321 9.18685 130.277 8.51487 130.026 7.90875C129.775 7.30263 129.331 6.79626 128.763 6.46821L118.311 0.413017C117.973 0.217679 117.599 0.0909352 117.212 0.0400156C116.824 -0.0109039 116.43 0.0149976 116.053 0.116248C115.675 0.217499 115.322 0.392112 115.011 0.630118C114.701 0.868124 114.441 1.16486 114.246 1.50339C114.051 1.84192 113.924 2.21561 113.873 2.60312C113.822 2.99063 113.848 3.38437 113.949 3.76187C114.051 4.13937 114.225 4.49323 114.463 4.80325C114.701 5.11327 114.998 5.37337 115.336 5.56871L125.797 11.6107C126.244 11.876 126.752 12.0197 127.271 12.0276Z" fill="#089D57"/>
</svg>
