<svg width="30" height="28" viewBox="0 0 30 28" fill="none" xmlns="http://www.w3.org/2000/svg">
<path d="M0 2.15039C0 1.75257 0.158035 1.37103 0.43934 1.08973C0.720644 0.808426 1.10218 0.650391 1.5 0.650391H28.5C28.8978 0.650391 29.2794 0.808426 29.5607 1.08973C29.842 1.37103 30 1.75257 30 2.15039V10.4004C29.0054 10.4004 28.0516 10.7955 27.3484 11.4987C26.6451 12.202 26.25 13.1558 26.25 14.1504C26.25 15.145 26.6451 16.0988 27.3484 16.802C28.0516 17.5053 29.0054 17.9004 30 17.9004V26.1504C30 26.5482 29.842 26.9297 29.5607 27.2111C29.2794 27.4924 28.8978 27.6504 28.5 27.6504H1.5C1.10218 27.6504 0.720644 27.4924 0.43934 27.2111C0.158035 26.9297 0 26.5482 0 26.1504V2.15039ZM9.1275 24.6504C9.28211 24.2109 9.56933 23.8302 9.94951 23.561C10.3297 23.2917 10.7841 23.147 11.25 23.147C11.7159 23.147 12.1703 23.2917 12.5505 23.561C12.9307 23.8302 13.2179 24.2109 13.3725 24.6504H27V20.1984C25.8732 19.6399 24.9248 18.7778 24.2617 17.7092C23.5987 16.6406 23.2474 15.408 23.2474 14.1504C23.2474 12.8928 23.5987 11.6602 24.2617 10.5916C24.9248 9.52296 25.8732 8.66083 27 8.10239V3.65039H13.3725C13.2179 4.08988 12.9307 4.47054 12.5505 4.73983C12.1703 5.00911 11.7159 5.15374 11.25 5.15374C10.7841 5.15374 10.3297 5.00911 9.94951 4.73983C9.56933 4.47054 9.28211 4.08988 9.1275 3.65039H3V24.6504H9.1275ZM11.25 12.6504C10.6533 12.6504 10.081 12.4133 9.65901 11.9914C9.23705 11.5694 9 10.9971 9 10.4004C9 9.80365 9.23705 9.23136 9.65901 8.8094C10.081 8.38744 10.6533 8.15039 11.25 8.15039C11.8467 8.15039 12.419 8.38744 12.841 8.8094C13.2629 9.23136 13.5 9.80365 13.5 10.4004C13.5 10.9971 13.2629 11.5694 12.841 11.9914C12.419 12.4133 11.8467 12.6504 11.25 12.6504ZM11.25 20.1504C10.6533 20.1504 10.081 19.9133 9.65901 19.4914C9.23705 19.0694 9 18.4971 9 17.9004C9 17.3037 9.23705 16.7314 9.65901 16.3094C10.081 15.8874 10.6533 15.6504 11.25 15.6504C11.8467 15.6504 12.419 15.8874 12.841 16.3094C13.2629 16.7314 13.5 17.3037 13.5 17.9004C13.5 18.4971 13.2629 19.0694 12.841 19.4914C12.419 19.9133 11.8467 20.1504 11.25 20.1504Z" fill="white"/>
</svg>
