<svg width="36" height="37" viewBox="0 0 36 37" fill="none" xmlns="http://www.w3.org/2000/svg">
    <path d="M8.991 18.7256C8.991 23.6954 13.0338 27.7382 18.0036 27.7382C22.9734 27.7382 27.0162 23.6954 27.0162 18.7256C27.0162 13.7558 22.9734 9.71299 18.0036 9.71299C13.0338 9.71299 8.991 13.7558 8.991 18.7256ZM16.2 31.3256H19.8V36.7256H16.2V31.3256ZM16.2 0.725586H19.8V6.12559H16.2V0.725586ZM0 16.9256H5.4V20.5256H0V16.9256ZM30.6 16.9256H36V20.5256H30.6V16.9256ZM6.5466 32.726L4.0014 30.1808L7.8192 26.363L10.3644 28.9082L6.5466 32.726ZM25.6356 8.54479L29.4552 4.72519L32.0004 7.27039L28.1808 11.09L25.6356 8.54479ZM7.8192 11.0918L4.0014 7.27219L6.5484 4.72699L10.3644 8.54659L7.8192 11.0918ZM32.0004 30.1808L29.4552 32.726L25.6356 28.9064L28.1808 26.3612L32.0004 30.1808Z"
          fill="#B7B7B7"/>
</svg>
