<svg width="28" height="24" viewBox="0 0 28 24" fill="none" xmlns="http://www.w3.org/2000/svg">
    <path d="M27.6046 3.38747C26.5894 3.83729 25.4989 4.14123 24.3525 4.27861C25.5354 3.57079 26.4204 2.45678 26.8423 1.14443C25.7309 1.80456 24.5146 2.26923 23.2462 2.51822C22.3932 1.60746 21.2634 1.0038 20.0321 0.800953C18.8009 0.598104 17.5372 0.807417 16.4371 1.3964C15.337 1.98537 14.4622 2.92107 13.9484 4.0582C13.4346 5.19533 13.3106 6.47028 13.5956 7.68511C11.3437 7.57204 9.14069 6.98673 7.12961 5.96715C5.11853 4.94758 3.34431 3.51653 1.92208 1.76689C1.43579 2.60575 1.15617 3.57834 1.15617 4.61415C1.15563 5.54662 1.38525 6.4648 1.82468 7.28724C2.2641 8.10967 2.89973 8.81093 3.67518 9.32879C2.77587 9.30017 1.8964 9.05717 1.10997 8.62001V8.69296C1.10988 10.0008 1.56227 11.2684 2.39037 12.2806C3.21847 13.2928 4.37128 13.9874 5.65319 14.2465C4.81893 14.4722 3.94427 14.5055 3.09527 14.3437C3.45695 15.469 4.16147 16.4531 5.1102 17.1581C6.05893 17.8631 7.20437 18.2538 8.38617 18.2754C6.38 19.8503 3.90239 20.7046 1.3519 20.7008C0.90011 20.7009 0.448701 20.6746 0 20.6218C2.58889 22.2864 5.60254 23.1698 8.68038 23.1663C19.0993 23.1663 24.795 14.537 24.795 7.05292C24.795 6.80978 24.7889 6.5642 24.778 6.32105C25.8859 5.51985 26.8422 4.52771 27.6021 3.39112L27.6046 3.38747Z"
          fill="black"/>
</svg>
