<svg width="257" height="202" viewBox="0 0 257 202" fill="none" xmlns="http://www.w3.org/2000/svg">
<path d="M52.4997 4.92587C52.4997 6.38037 52.4595 7.8404 52.5072 9.2939C52.5871 11.7312 53.014 14.1506 53.0364 16.5988C53.0742 20.7176 53.0364 24.8385 53.0364 28.9575C53.0364 31.8744 53.0364 34.7914 53.0364 37.7084C53.0364 41.1759 52.899 44.6744 53.2302 48.129C53.4111 50.0155 53.4212 52.004 53.4389 53.8984C53.4537 55.4795 53.5731 57.0436 53.5731 58.6242C53.5731 60.0121 53.771 61.5741 54.0427 62.9326C54.3636 64.5372 54.1695 66.2822 54.2738 67.9119C54.4655 70.9082 54.4477 73.9111 54.6539 76.9014C54.7256 77.9404 55.1666 78.9301 55.1832 79.9575C55.199 80.9404 55.3173 81.8946 55.3173 82.8794C55.3173 83.9772 55.3229 85.0222 55.5559 86.0995C55.6377 86.478 55.7198 87.0834 55.7198 87.4413" stroke="#DFDFDF" stroke-width="3" stroke-linecap="round"/>
<path d="M55.7377 86.2297C55.7377 90.4876 56.5086 94.7335 57.1931 98.9166C57.3316 99.763 57.4089 100.583 57.2428 101.437C57.146 101.935 57.2433 102.454 57.1931 102.956C57.1365 103.522 57.1434 104.084 57.1434 104.653C57.1434 106.563 57.1434 108.473 57.1434 110.382" stroke="#DFDFDF" stroke-width="3" stroke-linecap="round"/>
<path d="M57.0152 110.702C56.9557 112.249 56.7251 113.765 56.8874 115.317C57.072 117.082 57.0791 118.829 57.0791 120.602C57.0791 123.949 57.2094 127.327 57.0471 130.67C56.8709 134.301 57.1565 137.948 56.9655 141.578C56.863 143.524 56.9513 145.493 56.9513 147.442" stroke="#DFDFDF" stroke-width="3" stroke-linecap="round"/>
<path d="M56.7599 147.506C56.7599 150.03 56.7599 152.554 56.7599 155.078C56.7599 156.198 56.6321 157.3 56.6321 158.418C56.6321 159.804 56.5769 161.186 56.5682 162.572C56.552 165.155 56.5043 167.739 56.5043 170.324C56.5043 172.254 56.3765 174.177 56.3765 176.107C56.3765 178.361 56.5043 180.623 56.5043 182.877C56.5043 184.761 56.4404 186.65 56.4404 188.528" stroke="#DFDFDF" stroke-width="3" stroke-linecap="round"/>
<path d="M52.4611 4.53637C53.1931 4.65587 53.741 4.58775 54.458 4.53039C55.445 4.45143 56.3069 3.764 57.2978 3.68142C58.7128 3.56351 60.18 3.03955 61.5008 2.59929" stroke="#DFDFDF" stroke-width="3" stroke-linecap="round"/>
<path d="M61.1777 3.24493C61.1947 3.66985 61.4975 4.27617 61.7217 4.64992C62.2076 5.45976 62.1462 6.7687 62.1462 7.68109C62.1462 8.78315 62.1462 9.88522 62.1462 10.9873C62.1462 12.1391 61.931 13.2556 61.931 14.413C61.931 19.5009 61.931 24.5887 61.931 29.6765C61.931 33.0046 61.931 36.3328 61.931 39.6609C61.931 42.6283 62.2538 45.5338 62.2538 48.4973C62.2538 49.9588 62.2795 51.3977 62.3854 52.8557C62.4555 53.8227 62.6843 54.7703 62.6843 55.7195C62.6843 56.6303 62.6843 57.541 62.6843 58.4518C62.6843 58.6942 62.5737 59.3112 62.7919 59.4203" stroke="#DFDFDF" stroke-width="3" stroke-linecap="round"/>
<path d="M62.3752 59.7105C62.3752 60.2885 62.6221 60.8351 62.7698 61.3909C63.0165 62.3199 63.0373 63.3448 63.2227 64.2987C63.6049 66.2641 63.5588 68.304 63.5588 70.2969C63.5588 73.9572 63.5588 77.6175 63.5588 81.2779C63.5588 85.433 63.8003 89.6073 63.5588 93.7127C63.5081 94.574 63.0328 95.4775 63.0328 96.3355C63.0328 97.4362 62.9013 98.5637 62.9013 99.6817C62.9013 101.603 62.9013 103.525 62.9013 105.446C62.9013 109.705 62.9013 113.965 62.9013 118.224C62.9013 119.545 62.9046 121.041 63.1351 122.338C63.2155 122.79 62.8877 124.603 63.2958 124.807" stroke="#DFDFDF" stroke-width="3" stroke-linecap="round"/>
<path d="M63.2957 124.676C63.2957 129.984 63.6642 135.45 63.0619 140.72C62.9063 142.081 62.9012 143.559 62.9012 144.928C62.9012 146.734 62.6382 148.519 62.6382 150.327C62.6382 153.437 62.6382 156.547 62.6382 159.657C62.6382 165.421 62.6382 171.186 62.6382 176.95C62.6382 179.259 62.5067 181.546 62.5067 183.854C62.5067 184.775 62.6382 185.665 62.6382 186.587C62.6382 186.893 62.4697 188.044 62.7697 188.194" stroke="#DFDFDF" stroke-width="3" stroke-linecap="round"/>
<path d="M62.0269 2C62.0571 2.2724 62.5883 2.28826 62.7784 2.40708C63.0082 2.55068 63.3516 2.52998 63.6065 2.62628C63.9004 2.73732 64.2253 2.7584 64.532 2.81416C65.4816 2.98681 66.3899 3.2734 67.225 3.69095" stroke="#DFDFDF" stroke-width="3" stroke-linecap="round"/>
<path d="M67.4755 4.25462C67.4755 8.45164 67.4996 12.6459 67.5382 16.8428C67.5476 17.8716 67.8416 18.8768 67.8513 19.9116C67.8598 20.8218 67.8513 21.7326 67.8513 22.6429C67.8513 23.0823 67.654 26.5502 68.0392 26.5502" stroke="#DFDFDF" stroke-width="3" stroke-linecap="round"/>
<path d="M67.8986 26.9652C67.8986 28.9805 68.0694 30.9946 68.6145 32.9415C69.0286 34.4203 68.8941 35.9776 69.0529 37.4858C69.3187 40.011 69.0821 42.6725 69.0821 45.2156C69.0821 47.3547 69.3451 49.4794 69.3451 51.6157C69.3451 54.4594 69.4767 57.3132 69.4767 60.1637C69.4767 64.9759 69.4767 69.7881 69.4767 74.6003C69.4767 78.5139 69.4767 82.4275 69.4767 86.3411C69.4767 87.4939 69.7556 89.0742 69.4474 90.1913C69.2705 90.8326 68.9506 91.4147 68.9506 92.0909C68.9506 94.1311 68.8191 96.1423 68.8191 98.1768C68.8191 99.7113 68.5561 101.21 68.5561 102.743C68.5561 103.347 68.5561 105.159 68.5561 104.555" stroke="#DFDFDF" stroke-width="3" stroke-linecap="round"/>
<path d="M68.1625 103.766C68.4155 106.55 68.912 109.376 68.9515 112.183C68.9939 115.188 69.083 118.196 69.083 121.213C69.083 124.681 69.083 128.149 69.083 131.616C69.083 134.646 69.346 137.683 69.346 140.712C69.346 146.97 69.6136 153.291 69.0246 159.518C68.8036 161.854 69.0275 164.214 68.8492 166.554C68.7382 168.011 68.7769 169.492 68.6958 170.952C68.6149 172.408 68.557 173.843 68.557 175.306" stroke="#DFDFDF" stroke-width="3" stroke-linecap="round"/>
<path d="M68.9508 174.517C68.5146 175.008 68.6878 176.03 68.6878 176.621C68.6878 177.771 68.6878 178.92 68.6878 180.07C68.6878 181.295 68.6456 182.528 68.6878 183.752C68.7074 184.321 68.9508 184.855 68.9508 185.432C68.9508 185.868 68.9266 186.312 68.9508 186.747C68.9791 187.258 69.0823 187.877 69.0823 188.457" stroke="#DFDFDF" stroke-width="3" stroke-linecap="round"/>
<path d="M83.0919 14.9886C83.0919 17.4743 82.9455 19.9963 83.1962 22.4724C83.3379 23.8713 83.1788 25.1723 83.4944 26.5572C84.2836 30.0212 84.8361 33.5706 84.8361 37.1269C84.8361 44.7523 84.8361 52.3777 84.8361 60.0031C84.8361 61.5298 84.7813 63.0692 84.8435 64.5948C84.9439 67.0542 85.7753 69.3425 85.7753 71.8028C85.7753 75.0523 85.9905 78.3289 86.0436 81.5674C86.0905 84.4262 86.5803 87.2596 86.5803 90.1246C86.5803 90.8493 86.5639 91.8807 86.7219 92.5919C86.7971 92.9302 86.9828 93.6685 86.9828 92.6739" stroke="#DFDFDF" stroke-width="3" stroke-linecap="round"/>
<path d="M82.9577 14.8546C83.7995 14.8546 84.5887 14.5579 85.425 14.4595C86.3979 14.3451 87.3751 13.834 88.3246 13.7812C89.0744 13.7396 89.8158 13.3977 90.5384 13.2371C90.9624 13.1429 91.2482 12.842 91.6788 12.842" stroke="#DFDFDF" stroke-width="3" stroke-linecap="round"/>
<path d="M92.0802 12.9762C92.0802 14.8262 92.3485 16.64 92.3485 18.4772C92.3485 20.8376 92.3485 23.198 92.3485 25.5584C92.3485 27.521 92.0562 29.7225 92.3784 31.6558C92.5262 32.5431 92.5727 33.5059 92.6094 34.4063C92.6701 35.8923 92.8691 37.3857 92.8852 38.8712C92.9146 41.5762 93.2061 44.255 93.3921 46.9513C93.5817 49.7008 93.3341 52.5127 93.8244 55.2401C94.2639 57.6845 93.8159 60.2536 94.063 62.7239C94.1765 63.8597 94.0928 65.0345 94.0928 66.1751C94.0928 67.2748 94.2269 68.3548 94.2269 69.4548C94.2269 73.4422 94.0492 77.481 94.2344 81.4632C94.2845 82.5411 94.4803 83.619 94.4953 84.6982C94.508 85.6168 94.3945 86.587 94.5624 87.4934C94.7084 88.2818 94.7636 89.0252 94.7636 89.8265C94.7636 90.7004 94.9562 91.4776 95.0245 92.331C95.1885 94.381 95.5687 96.2362 95.5687 98.3017C95.5687 99.6011 95.5687 100.901 95.5687 102.2" stroke="#DFDFDF" stroke-width="3" stroke-linecap="round"/>
<path d="M87.2912 100.799C87.2912 101.942 87.2912 103.084 87.2912 104.226C87.2912 104.896 87.5072 105.51 87.5244 106.163C87.5406 106.779 87.6175 107.216 87.8224 107.802C87.9442 108.15 87.9369 108.512 88.0556 108.851C88.159 109.147 88.4125 109.479 88.4507 109.784C88.51 110.258 88.5608 110.826 88.5738 111.294C88.5928 111.978 88.807 112.609 88.807 113.276C88.807 115.714 89.4724 118.093 89.7658 120.505C89.9205 121.777 90.2457 123.08 90.3164 124.353C90.3819 125.532 90.7893 126.674 90.7893 127.851C90.7893 129.225 91.1391 130.582 91.1391 131.939C91.1391 134.225 91.1391 136.512 91.1391 138.799C91.1391 142.074 91.7221 145.286 91.7221 148.548C91.7221 150.277 92.1726 151.956 92.1885 153.672C92.1966 154.55 92.4217 155.463 92.4217 156.302" stroke="#DFDFDF" stroke-width="3" stroke-linecap="round"/>
<path d="M92.6555 156.069C92.6555 159.044 92.6555 162.02 92.6555 164.995C92.6555 166.119 93.0816 167.13 93.3551 168.195C93.5516 168.961 93.7516 169.744 93.8474 170.527C93.945 171.326 94.2716 172.079 94.2879 172.885C94.3415 175.538 94.2879 178.199 94.2879 180.853C94.2879 181.817 94.3539 182.815 94.4952 183.768C94.5394 184.067 94.4871 185.202 94.7543 185.336" stroke="#DFDFDF" stroke-width="3" stroke-linecap="round"/>
<path d="M95.4459 102.381C95.2728 102.403 95.224 103.556 95.2073 103.712C95.0498 105.183 95.0642 106.662 95.0642 108.138C95.0642 109.191 95.0511 110.245 95.0642 111.298C95.0823 112.752 95.4506 114.158 95.7109 115.581C96.3244 118.933 96.2632 122.358 96.4478 125.753C96.5312 127.288 96.6786 128.8 96.6863 130.339C96.6943 131.922 96.7244 133.528 96.8029 135.11C96.9342 137.751 97.2588 140.392 97.2588 143.035C97.2588 145.726 97.7703 148.366 98.1176 151.023C98.4015 153.195 98.7855 155.258 98.7855 157.437" stroke="#DFDFDF" stroke-width="3" stroke-linecap="round"/>
<path d="M99.0723 157.247C99.0723 158.264 99.0723 159.282 99.0723 160.3C99.0723 161.773 98.9312 163.327 99.1306 164.79C99.3621 166.487 99.824 168.15 100.08 169.842C100.366 171.742 100.688 173.642 100.938 175.546C101.304 178.326 101.267 181.155 101.267 183.958C101.267 184.319 101.362 184.655 101.362 185.013C101.362 185.662 101.449 183.701 101.458 183.582" stroke="#DFDFDF" stroke-width="3" stroke-linecap="round"/>
<path d="M100.584 101.032C99.9111 102.505 100.112 104.293 99.9948 105.871C99.8814 107.403 99.8847 108.929 99.8847 110.471C99.8847 111.22 99.8847 111.969 99.8847 112.719C99.8847 113.963 100.252 115.237 100.416 116.476C100.489 117.029 100.654 117.56 100.753 118.108C100.846 118.626 100.778 119.145 100.843 119.663C100.937 120.4 101.213 121.106 101.277 121.846C101.411 123.378 101.75 124.928 101.75 126.478C101.75 127.495 101.933 128.476 102.1 129.477C102.224 130.218 102.184 130.958 102.307 131.699C102.641 133.699 102.567 135.853 102.567 137.879C102.567 140.256 102.661 142.626 102.683 145.004C102.69 145.759 102.845 146.503 103.033 147.233C103.132 147.616 103.111 147.989 103.175 148.373C103.253 148.841 103.52 149.249 103.609 149.714C103.783 150.612 104.154 151.443 104.29 152.363C104.403 153.133 104.432 154.017 104.432 154.792C104.432 158.524 104.432 162.255 104.432 165.986C104.432 167.15 104.432 168.314 104.432 169.478C104.432 170.574 104.665 171.737 104.665 172.859C104.665 173.765 104.49 174.896 104.691 175.774C104.777 176.152 104.683 176.646 104.84 176.992C104.882 177.084 104.858 177.259 104.905 177.329C104.943 177.386 105 177.229 105.041 177.174C105.273 176.867 105.491 176.554 105.715 176.241" stroke="#DFDFDF" stroke-width="3" stroke-linecap="round"/>
<path d="M104.782 171.693C104.782 173.173 104.682 174.74 105.015 176.189C105.236 177.151 105.544 178.105 105.741 179.065C105.988 180.277 105.948 184.008 105.948 182.77" stroke="#DFDFDF" stroke-width="3" stroke-linecap="round"/>
<path d="M108.279 128.084C108.279 131.109 108.163 134.142 108.163 137.179C108.163 141.042 108.163 144.905 108.163 148.768C108.163 150.673 108.025 152.635 108.279 154.527C108.468 155.932 108.314 157.344 108.454 158.75C108.699 161.203 108.392 163.691 108.603 166.148C108.854 169.067 108.629 172.092 108.629 175.023C108.629 177.388 108.388 179.911 108.772 182.252C108.938 183.267 109.095 184.305 109.095 185.336" stroke="#DFDFDF" stroke-width="3" stroke-linecap="round"/>
<path d="M100.817 101.499C100.817 103.784 100.88 105.99 101.607 108.171C101.978 109.284 101.895 110.602 102.158 111.76C102.286 112.324 102.242 112.91 102.359 113.483C102.468 114.017 102.616 114.6 102.676 115.141C102.771 115.997 102.799 116.911 102.799 117.771C102.799 118.472 102.918 119.299 102.793 119.987C102.677 120.623 102.683 121.227 102.683 121.878C102.683 122.198 102.683 122.517 102.683 122.837C102.683 123.049 102.556 124.019 102.799 123.653" stroke="#DFDFDF" stroke-width="3" stroke-linecap="round"/>
<path d="M98.2523 37.4844C97.8686 37.6549 98.0191 38.7037 98.0191 39.0261C98.0191 39.9201 98.0191 40.814 98.0191 41.708C98.0191 43.3404 98.0191 44.9728 98.0191 46.6052C98.0191 51.0279 98.0369 55.6686 98.7187 60.0404C99.0007 61.8483 99.1149 63.6916 99.4184 65.4948C99.7675 67.569 99.6845 69.6736 99.8589 71.7654C100.191 75.7535 100.934 79.6281 100.934 83.6523C100.934 84.9328 100.934 86.2132 100.934 87.4937C100.934 88.4126 101.072 89.4644 100.869 90.3634C100.502 91.9921 100.519 93.7163 100.345 95.3708C100.21 96.651 100.235 97.9376 100.235 99.2316C100.235 99.5793 100.235 99.9269 100.235 100.275C100.235 100.671 100.089 101.04 100.584 100.916" stroke="#DFDFDF" stroke-width="3" stroke-linecap="round"/>
<path d="M97.0859 13.6976C97.0859 17.1001 97.4712 20.5725 97.7791 23.9585C97.9228 25.5399 98.252 27.1145 98.252 28.7133C98.252 29.6094 98.252 30.5055 98.252 31.4016C98.252 33.5062 98.2196 35.6133 98.252 37.7176C98.2568 38.0309 98.3425 37.097 98.3686 36.7848" stroke="#DFDFDF" stroke-width="3" stroke-linecap="round"/>
<path d="M92.3053 12.7647C93.7917 12.7647 95.2201 13.3477 96.7362 13.3477" stroke="#DFDFDF" stroke-width="3" stroke-linecap="round"/>
<path d="M98.2073 19.3126C98.5742 19.2539 98.9262 19.2157 99.2883 19.1365C99.6401 19.0595 99.9155 18.9045 100.257 18.8082C101.347 18.5012 102.401 18.063 103.536 17.9434C104.123 17.8816 104.611 17.4933 105.162 17.3709C105.425 17.3124 105.719 17.1507 105.99 17.1507" stroke="#DFDFDF" stroke-width="3" stroke-linecap="round"/>
<path d="M106.423 16.9345C106.64 16.9617 106.936 17.4711 107.188 17.583C107.551 17.7444 108.009 17.8278 108.333 18.0515C108.823 18.3912 109.535 18.3369 110.026 18.664" stroke="#DFDFDF" stroke-width="3" stroke-linecap="round"/>
<path d="M105.558 17.3669C105.782 17.4667 105.723 18.1346 105.774 18.3438C105.893 18.8333 105.982 19.3229 106.098 19.8131C106.224 20.3442 106.279 20.8897 106.279 21.4346C106.279 22.547 106.312 23.7363 106.531 24.8296C106.597 25.1602 106.548 25.4965 106.571 25.8305C106.603 26.2986 106.788 26.7551 106.839 27.2237C106.922 27.9775 106.927 28.782 106.927 29.5418C106.927 31.1743 106.763 32.8972 106.943 34.5183C107.124 36.1478 106.999 37.8505 106.999 39.4907C106.999 42.6229 106.999 45.755 106.999 48.8872C106.999 51.1118 106.999 53.3365 106.999 55.5611C106.999 56.8328 106.978 58.1438 107.288 59.3806" stroke="#DFDFDF" stroke-width="3" stroke-linecap="round"/>
<path d="M107.36 59.0923C107.36 64.4549 107.82 69.7891 107.864 75.1547C107.884 77.5589 107.992 79.9652 108.009 82.3692C108.021 84.243 107.961 86.1192 108.065 87.9902C108.159 89.7036 108.157 91.2829 108.625 92.9467C108.765 93.4452 108.945 93.9532 108.945 94.4761" stroke="#DFDFDF" stroke-width="3" stroke-linecap="round"/>
<path d="M108.657 94.6922C108.657 106.058 108.585 117.414 108.585 128.779" stroke="#DFDFDF" stroke-width="3" stroke-linecap="round"/>
<path d="M69.6898 90.7238C70.3602 90.7238 71.0026 91.1576 71.6734 91.2322C72.7629 91.3532 73.885 91.4751 74.9657 91.6614C75.7472 91.7962 76.5553 91.7701 77.3411 91.8656C77.8025 91.9217 78.2447 92.0851 78.708 92.1323C79.4339 92.2064 80.1414 92.295 80.8625 92.4032C82.5822 92.6612 84.3203 92.8277 86.0426 93.0908C87.2649 93.2776 88.5041 93.4779 89.7349 93.5909C90.7956 93.6883 91.8914 93.8743 92.9438 93.8743" stroke="#DFDFDF" stroke-width="3" stroke-linecap="round"/>
<path d="M69.7647 94.4744C71.1091 94.4744 72.4395 94.6879 73.7821 94.7578C75.3407 94.8389 76.8929 94.8964 78.4496 95.0162C79.0547 95.0627 79.6567 95.1218 80.2624 95.1537C80.7839 95.1811 81.2872 95.3808 81.8085 95.4329C83.002 95.5522 84.1131 95.8749 85.2883 96.0913C86.7488 96.3604 88.179 96.7346 89.639 96.9873C90.1847 97.0818 90.7276 97.1635 91.2768 97.2332C91.6236 97.2772 91.9366 97.2291 92.2686 97.3582C92.4678 97.4357 92.9987 97.3598 93.0938 97.5499" stroke="#DFDFDF" stroke-width="3" stroke-linecap="round"/>
<path d="M93.2434 94.1743C93.2434 94.9217 93.2434 95.6691 93.2434 96.4164C93.2434 96.8608 93.1212 97.5306 93.3184 97.925" stroke="#DFDFDF" stroke-width="3" stroke-linecap="round"/>
<path d="M70.0643 96.6498C70.4244 96.8394 70.7106 96.9154 71.1228 96.9541C71.8394 97.0212 72.5358 97.2027 73.2565 97.2499C74.2966 97.3182 75.4255 97.4637 76.4404 97.7C76.7829 97.7798 77.1412 97.8112 77.4906 97.8501C77.9216 97.8979 78.3077 98.0867 78.7325 98.1459C79.6849 98.2788 80.6255 98.6435 81.5579 98.8836C83.1829 99.3019 84.8523 99.4882 86.4921 99.8754C87.1874 100.04 87.9522 100.25 88.6675 100.25" stroke="#DFDFDF" stroke-width="3" stroke-linecap="round"/>
<path d="M88.8177 100.325C89.2253 100.302 89.7162 99.747 90.0762 99.542C90.6173 99.234 91.1795 99.0743 91.764 98.8669C92.0191 98.7764 92.3746 98.5252 92.6434 98.5252" stroke="#DFDFDF" stroke-width="3" stroke-linecap="round"/>
<path d="M110.675 18.9513C110.675 22.1846 110.916 25.4074 111.244 28.6179C111.363 29.7816 111.399 30.9236 111.399 32.0928C111.399 33.6739 111.652 35.2187 111.996 36.7566C112.338 38.2823 112.424 39.9669 112.433 41.5239C112.446 43.6941 112.492 45.8573 112.531 48.0257C112.578 50.6784 112.847 53.3008 112.847 55.9576C112.847 58.0885 112.847 60.2194 112.847 62.3503C112.847 65.651 112.847 68.9517 112.847 72.2524C112.847 74.2507 112.828 76.2334 112.996 78.2258C113.113 79.6115 113.26 80.9934 113.26 82.3842C113.26 84.7773 113.26 87.1705 113.26 89.5637" stroke="#DFDFDF" stroke-width="3" stroke-linecap="round"/>
<path d="M113.468 90.7009C113.468 93.4871 113.437 96.2394 113.209 99.0177C112.901 102.779 112.641 106.507 112.641 110.287C112.641 114.388 112.641 118.489 112.641 122.59C112.641 125.412 112.33 128.199 112.33 131.021C112.33 134.24 112.33 137.458 112.33 140.676C112.33 142.1 112.376 143.507 112.428 144.927C112.469 146.043 112.358 147.174 112.457 148.287C112.545 149.275 112.628 150.27 112.641 151.262C112.653 152.287 112.995 153.265 113.048 154.277C113.121 155.65 113.054 157.043 113.054 158.418" stroke="#DFDFDF" stroke-width="3" stroke-linecap="round"/>
<path d="M113.054 158.419C113.289 158.536 113.158 159.379 113.158 159.579C113.158 160.829 113.158 162.079 113.158 163.33C113.158 165.76 113.261 168.184 113.261 170.612C113.261 172.765 113.364 174.901 113.364 177.051C113.364 178.512 113.15 180.19 113.416 181.629C113.57 182.463 113.778 183.421 113.778 184.265" stroke="#DFDFDF" stroke-width="3" stroke-linecap="round"/>
<path d="M123.679 27.7434C125.738 27.3716 127.77 26.9046 129.797 26.4542C130.543 26.2885 131.353 26.3722 132.118 26.3722" stroke="#DFDFDF" stroke-width="3" stroke-linecap="round"/>
<path d="M122.835 28.7982C122.835 29.1862 123.032 29.4776 123.046 29.853C123.077 30.6575 123.372 31.4442 123.474 32.2438C123.855 35.2253 124.294 38.2267 124.312 41.2448C124.33 44.2135 124.312 47.1831 124.312 50.1519C124.312 51.7745 124.271 53.3981 124.418 55.0157C124.547 56.4366 124.434 57.8655 124.576 59.2817C124.765 61.1748 124.567 63.093 124.758 64.9776C124.852 65.9123 124.996 66.8387 125.074 67.7787C125.165 68.8696 125.116 69.9631 125.314 71.0427C125.77 73.5235 126.095 76.0008 126.715 78.4556C126.931 79.3109 126.844 80.2375 126.844 81.116" stroke="#DFDFDF" stroke-width="3" stroke-linecap="round"/>
<path d="M126.738 80.9049C126.241 81.5259 126.527 83.0129 126.527 83.747C126.527 85.008 126.738 86.2292 126.738 87.4915C126.738 88.4936 126.738 89.4956 126.738 90.4977C126.738 91.3695 126.62 92.3438 126.791 93.1991C127.012 94.3045 126.826 95.4505 127.054 96.5511C127.159 97.0561 127.371 97.4928 127.371 98.016C127.371 98.9134 127.793 99.7391 127.793 100.63" stroke="#DFDFDF" stroke-width="3" stroke-linecap="round"/>
<path d="M114.055 99.5361C114.081 99.5992 114.176 99.6685 114.238 99.6899C115.094 99.9855 116.154 99.9564 117.045 100.032C117.869 100.101 118.685 100.1 119.511 100.1C119.99 100.1 120.469 100.1 120.948 100.1C121.349 100.1 121.709 100.198 122.102 100.242C123.771 100.432 125.41 100.801 127.05 101.15C127.811 101.313 128.568 101.576 129.328 101.717C130.048 101.85 130.769 101.982 131.486 102.121C132.138 102.248 132.985 102.261 133.581 102.56" stroke="#DFDFDF" stroke-width="3" stroke-linecap="round"/>
<path d="M113.85 102.765C113.85 102.937 113.943 102.939 114.117 102.958C114.668 103.021 115.214 103.133 115.769 103.163C116.97 103.23 118.182 103.175 119.385 103.223C119.752 103.238 120.094 103.302 120.458 103.351C120.872 103.407 121.288 103.363 121.702 103.431C122.669 103.589 123.629 103.706 124.584 103.941C125.478 104.161 126.397 104.315 127.303 104.482C128.195 104.646 129.076 104.872 129.971 105.02C130.882 105.17 131.77 105.451 132.678 105.606C132.891 105.643 133.063 105.686 133.273 105.686" stroke="#DFDFDF" stroke-width="3" stroke-linecap="round"/>
<path d="M133.53 102.816C133.53 103.76 133.582 104.693 133.582 105.635" stroke="#DFDFDF" stroke-width="3" stroke-linecap="round"/>
<path d="M113.799 104.815C113.857 104.973 114.105 105.033 114.243 105.071C114.938 105.262 115.67 105.375 116.379 105.501C117.408 105.684 118.434 105.838 119.459 106.045C121.528 106.461 123.591 106.916 125.661 107.326C127.204 107.632 128.76 107.879 130.322 108.069C130.654 108.11 130.992 108.095 131.327 108.095" stroke="#DFDFDF" stroke-width="3" stroke-linecap="round"/>
<path d="M131.275 108.095C131.695 107.482 132.246 106.958 132.713 106.381C132.898 106.152 133.11 105.946 133.293 105.714C133.373 105.614 133.407 105.471 133.53 105.43" stroke="#DFDFDF" stroke-width="3" stroke-linecap="round"/>
<path d="M127.79 108.904C128.052 108.963 128.012 109.612 128.074 109.805C128.284 110.46 128.422 111.118 128.495 111.806C128.599 112.792 128.822 114.059 129.199 114.976C129.42 115.513 129.546 116.174 129.674 116.742C129.86 117.571 130.075 118.393 130.256 119.228C130.696 121.255 130.945 123.406 131.088 125.47C131.209 127.222 131.385 128.966 131.293 130.725C131.23 131.927 131.225 133.122 131.225 134.326C131.225 135.585 131.225 136.844 131.225 138.103C131.225 139.707 131.531 141.143 131.831 142.711C132.358 145.461 132.193 148.261 132.193 151.048C132.193 152.235 132.281 153.42 132.281 154.61" stroke="#DFDFDF" stroke-width="3" stroke-linecap="round"/>
<path d="M132.457 152.32C132.672 152.683 132.701 153.111 132.81 153.514C132.997 154.207 133.119 154.903 133.201 155.618C133.368 157.072 133.491 158.57 133.583 160.031C133.78 163.182 133.444 166.399 134.219 169.497C134.496 170.607 134.454 171.78 134.659 172.907C134.833 173.864 135.013 174.832 135.226 175.779C135.321 176.2 135.452 176.703 135.452 177.134C135.452 178.001 135.509 176.741 135.54 176.45" stroke="#DFDFDF" stroke-width="3" stroke-linecap="round"/>
<path d="M135.737 108.661C135.531 108.821 135.562 109.318 135.555 109.545C135.534 110.218 135.548 110.898 135.643 111.566C135.758 112.373 135.922 113.18 136.017 113.987C136.21 115.627 136.28 117.298 136.506 118.928C136.632 119.839 136.689 120.748 136.807 121.661C136.956 122.808 137.062 123.989 137.181 125.142C137.507 128.307 137.837 131.474 138.168 134.64C138.479 137.606 139.061 140.518 139.431 143.473C139.752 146.043 139.665 148.63 139.665 151.215C139.665 153.615 139.665 156.016 139.665 158.416" stroke="#DFDFDF" stroke-width="3" stroke-linecap="round"/>
<path d="M139.477 158.79C139.477 159.524 139.596 160.285 139.685 161.014C139.787 161.851 139.81 162.708 139.944 163.539C140.117 164.608 139.959 165.691 140.131 166.761C140.307 167.849 140.413 168.94 140.672 170.013C141.325 172.727 141.628 175.477 141.628 178.264C141.628 178.88 141.628 179.497 141.628 180.114C141.628 180.3 141.721 180.512 141.721 180.207" stroke="#DFDFDF" stroke-width="3" stroke-linecap="round"/>
<path d="M136.031 108.612C136.031 106.744 136.031 104.876 136.031 103.008C136.031 101.62 136.031 100.231 136.031 98.8429C136.031 97.6592 136.138 96.4505 135.823 95.319C135.54 94.3001 135.557 93.2145 135.441 92.1707C135.366 91.491 135.229 90.7833 135.214 90.0978C135.207 89.757 135.214 89.4152 135.214 89.0743C135.214 88.6609 135.031 88.362 134.988 87.973C134.877 86.9806 134.748 86.0422 134.748 85.0062C134.748 83.5787 134.631 82.1709 134.631 80.7372C134.631 78.0946 134.5 75.4515 134.398 72.8148C134.341 71.3328 134.29 69.814 134.171 68.3321C134.067 67.023 133.815 65.7262 133.815 64.413C133.815 63.2016 133.815 61.9902 133.815 60.7789C133.815 59.9864 133.815 59.1939 133.815 58.4015C133.815 57.7128 133.605 57.0702 133.582 56.3998C133.563 55.8499 133.349 55.3552 133.349 54.7998C133.349 54.3349 133.314 54.0074 133.141 53.5755C132.989 53.1945 133.183 52.7015 133.057 52.2993C132.966 52.0069 132.882 51.6653 132.882 51.36" stroke="#DFDFDF" stroke-width="3" stroke-linecap="round"/>
<path d="M132.067 26.6405C132.067 29.263 131.95 31.9487 131.95 34.5953C131.95 37.3199 132.067 40.0298 132.067 42.7575C132.067 43.4398 132.067 44.1221 132.067 44.8045C132.067 45.2954 131.919 46.0608 132.125 46.5146C132.398 47.1155 132.533 47.9971 132.533 48.6523C132.533 49.2467 132.883 49.8178 132.883 50.3755C132.883 50.9108 132.999 51.4914 132.999 52.0597" stroke="#DFDFDF" stroke-width="3" stroke-linecap="round"/>
<path d="M132.533 26.4072C133.102 26.9195 133.924 26.9305 134.632 27.1327C135.245 27.3078 135.73 27.34 136.381 27.34" stroke="#DFDFDF" stroke-width="3" stroke-linecap="round"/>
<path d="M136.614 28.7393C136.869 31.1671 136.549 33.6251 136.821 36.0464C137.271 40.0416 137.08 44.1445 137.08 48.16C137.08 51.9561 137.08 55.7521 137.08 59.5482C137.08 61.3669 137.663 63.1016 137.663 64.8859C137.663 65.9431 137.78 67.1455 137.78 68.2674C137.78 69.368 137.725 70.452 137.961 71.5323C138.158 72.4308 138.439 73.3185 138.48 74.24C138.542 75.6767 138.596 77.1068 138.596 78.5543C138.596 79.0501 138.279 82.1595 138.713 82.3762" stroke="#DFDFDF" stroke-width="3" stroke-linecap="round"/>
<path d="M138.247 82.0264C138.548 83.1991 138.596 84.4234 138.596 85.6346C138.596 87.2296 138.713 88.8224 138.713 90.4217C138.713 91.3704 138.856 92.3061 138.972 93.2461C139.143 94.6277 139.087 96.0631 139.413 97.4179C139.646 98.3912 139.599 99.3607 139.762 100.339C139.916 101.261 140.021 102.189 140.106 103.118C140.304 105.299 139.759 107.626 140.177 109.778C140.603 111.966 140.351 114.229 140.812 116.398C141.284 118.619 141.395 120.861 141.395 123.122C141.395 124.745 141.47 126.359 141.511 127.968C141.529 128.656 141.842 129.325 141.861 130.015C141.864 130.126 141.861 130.919 141.861 130.533" stroke="#DFDFDF" stroke-width="3" stroke-linecap="round"/>
<path d="M141.628 130.533C141.628 133.84 142.561 137.078 142.561 140.386C142.561 143.17 143.144 145.88 143.144 148.664C143.144 150.079 143.08 151.508 143.15 152.92C143.188 153.671 143.436 154.391 143.494 155.142C143.564 156.06 143.527 157.036 143.727 157.934C143.939 158.89 144.077 159.935 144.077 160.914C144.077 161.96 144.41 162.974 144.426 164.023C144.444 165.154 144.543 166.275 144.543 167.405C144.543 168.253 144.484 169.126 144.724 169.951C145.209 171.611 145.476 173.287 145.476 175.01C145.476 175.361 145.618 175.73 145.709 176.072C145.885 176.734 145.987 177.331 146.085 178.016C146.212 178.907 146.409 179.708 146.409 180.613C146.409 181.196 146.337 181.631 146.758 180.788" stroke="#DFDFDF" stroke-width="3" stroke-linecap="round"/>
<path d="M46.4247 190.858C50.2176 190.858 54.2319 190.818 57.9711 190.053C59.592 189.721 61.5313 189.359 63.1615 189.359" stroke="#DFDFDF" stroke-width="3" stroke-linecap="round"/>
<path d="M64.6599 189.609C66.3991 189.609 68.2193 189.609 69.9058 189.609" stroke="#DFDFDF" stroke-width="3" stroke-linecap="round"/>
<path d="M3.63513 196.661C3.8903 195.513 7.41231 195.858 8.2232 195.798C10.3163 195.643 12.3894 195.533 14.4807 195.423C18.3975 195.217 22.3551 195.082 26.2461 194.606C28.4777 194.332 30.6526 193.758 32.8784 193.493C36.0078 193.12 39.1718 192.825 42.3157 192.618C45.8209 192.388 49.3838 192.573 52.9001 192.573" stroke="#DFDFDF" stroke-width="3" stroke-linecap="round"/>
<path d="M2 199.727C8.05479 199.727 14.1309 199.114 20.1933 199.114C23.159 199.114 26.1397 198.881 29.0969 198.66C31.3785 198.489 33.9125 198.491 36.138 197.99C38.3557 197.491 40.7416 197.277 42.9973 196.979C45.5903 196.637 48.212 196.421 50.8107 196.207C52.9817 196.028 55.1434 195.65 57.2839 195.446C57.8742 195.39 58.323 195.483 58.8284 195.23" stroke="#DFDFDF" stroke-width="3" stroke-linecap="round"/>
<path d="M64.6812 13.2119C65.5775 13.3239 66.3637 14.6991 67.2412 14.7479C67.7876 14.7783 68.3792 15.1209 68.91 15.2978C69.52 15.5012 70.1667 15.6029 70.7873 15.8098C71.9053 16.1825 73.0028 16.5802 74.1059 17.0045C74.8383 17.2862 75.6524 17.609 76.4573 17.6492C77.116 17.6822 77.5455 18.1249 78.164 18.1613C79.4095 18.2345 80.4513 19.0702 81.5394 19.4887C82.6298 19.9081 83.6008 20.388 84.6494 20.854C86.6621 21.7486 88.5709 22.8045 90.6227 23.5373C91.2045 23.7451 91.9022 24.2104 92.5001 24.2958C93.1248 24.3851 93.5991 24.911 94.2068 24.9785C94.9846 25.0649 96.2237 25.618 96.8521 26.1068C97.7323 26.7914 99.3015 26.7384 100.171 27.4627C100.933 28.0977 102.498 28.1564 103.423 28.4867C104.325 28.809 105.27 29.3711 106.239 29.5865C106.67 29.6824 107.132 29.7739 107.519 30.0227C107.999 30.3313 108.875 30.2975 109.216 30.6959C109.673 31.2295 111.21 31.7057 111.861 31.8242C112.422 31.926 112.682 32.4216 113.236 32.5068C113.837 32.5993 114.411 32.9637 114.99 33.1421C115.834 33.4017 117.063 33.5819 117.797 34.0334C118.911 34.7192 120.351 34.7157 121.476 35.3987C122.852 36.2341 124.75 36.8428 126.292 37.314C127.959 37.8231 129.467 39.0192 131.109 39.6275C132.647 40.1971 134.11 40.9535 135.546 41.7514C136.543 42.3053 137.656 42.7753 138.713 43.2115C139.923 43.7107 141.505 43.6818 142.639 44.3114C144.847 45.5381 147.707 45.6761 150.11 46.4921C152.602 47.3386 155.134 47.971 157.61 48.7962C163.805 50.8612 169.649 53.792 175.777 56.0495C180.953 57.9568 185.908 60.4144 191.061 62.3643C194.117 63.5208 197.091 65.0105 200.106 66.2896C202.688 67.385 205.272 68.4611 207.9 69.4659C211.185 70.7218 214.464 72.1031 217.676 73.543C218.18 73.7693 218.608 74.0171 219.136 74.1783C219.582 74.3147 219.839 74.7533 220.321 74.8135C220.924 74.8889 221.201 75.5057 221.696 75.5057" stroke="#DFDFDF" stroke-linecap="round"/>
<path d="M65.4941 20.976C68.2839 21.4052 71.1204 23.4579 73.6173 24.6393C81.7193 28.473 90.2109 31.658 98.5441 34.9525C112.13 40.3235 126.385 44.403 139.658 50.5418C149.077 54.8981 159.042 58.1916 168.686 62.0297C174.342 64.2806 179.781 67.145 185.549 69.0777C190.076 70.5943 194.785 71.8951 199.207 73.6967C208.08 77.3115 217.315 80.4604 225.846 84.7665C230.802 87.2679 236.237 90.5529 241.456 92.2923" stroke="#DFDFDF" stroke-linecap="round"/>
<path d="M65.1357 30.6521C65.8481 30.8302 66.466 31.36 67.0869 31.7272C69.8925 33.3864 72.7445 35.0099 75.6082 36.5652C83.6584 40.9373 92.1281 44.8382 100.416 48.7499C111 53.7459 121.42 59.1561 131.813 64.5383C138.593 68.0491 145.717 70.4844 152.659 73.5773C159.859 76.7855 167.131 79.7184 174.44 82.6959C181.144 85.4273 187.841 88.0863 194.29 91.3765C200.201 94.3926 205.671 98.2114 211.75 100.913C218.068 103.721 224.357 106.554 230.903 108.777C231.51 108.984 235.363 110.674 235.363 110.569" stroke="#DFDFDF" stroke-linecap="round"/>
<path d="M64.7772 37.4612C65.8899 39.872 70.3196 41.3775 72.4225 42.5581C79.5434 46.5557 86.8522 50.0128 94.4227 53.0902C105.056 57.4126 115.498 61.9409 125.9 66.7682C135.227 71.0966 144.112 76.3173 153.455 80.6651C162.369 84.8134 171.302 89.3117 179.974 93.9249C184.59 96.3801 189.256 98.8769 193.951 101.172C199.05 103.665 204.454 105.508 209.56 108.061C214.534 110.547 219.862 112.519 224.731 115.149C225.934 115.798 229.038 116.196 229.629 117.378" stroke="#DFDFDF" stroke-linecap="round"/>
<path d="M65.4941 52.8712C65.6516 54.446 68.5573 56.8145 69.5955 57.9681C72.1011 60.7521 75.3017 62.7838 77.8978 65.4541C80.3679 67.9947 83.0887 70.236 85.9015 72.3827C89.0123 74.7567 91.784 77.5583 95.0401 79.7492C100.928 83.7109 106.548 88.0171 112.521 91.8543C120.862 97.213 128.964 102.976 136.99 108.797C142.799 113.011 148.23 117.777 153.853 122.236C159.806 126.958 165.823 131.571 171.772 136.293C178.13 141.339 185.216 145.161 191.841 149.831C199.544 155.262 207.722 159.999 215.294 165.6C220.009 169.087 224.468 172.767 229.609 175.594C231.755 176.774 233.75 178.6 236.08 179.377" stroke="#DFDFDF" stroke-linecap="round"/>
<path d="M66.928 60.7554C67.8077 61.3246 68.3782 62.3492 69.1579 63.065C70.9288 64.6907 72.5533 66.4192 74.3742 68.0025C80.1903 73.0601 86.0915 77.9993 92.0141 82.9348C96.4375 86.6209 101.021 90.1161 105.473 93.7656C112.178 99.2618 119.012 104.923 126.139 109.853C129.027 111.85 131.467 114.248 134.143 116.502C136.583 118.559 139.337 120.129 141.748 122.236C144.113 124.303 146.791 125.946 149.195 127.97C152.008 130.341 154.704 132.824 157.736 134.919C164.642 139.691 170.257 146.234 176.511 151.782C178.623 153.656 180.27 156.016 182.404 157.875C185.112 160.233 188.35 162.4 190.746 165.062C193.502 168.124 196.636 171.067 199.606 173.922C200.736 175.009 202.296 176.1 203.608 177.008C204.285 177.477 204.901 177.903 205.459 178.461C205.704 178.705 206.133 178.546 206.315 178.82C206.564 179.192 205.764 178.112 205.459 177.784C202.645 174.757 199.253 172.813 195.942 170.418" stroke="#DFDFDF" stroke-linecap="round"/>
<path d="M66.5695 65.7726C68.596 66.5095 70.4468 70.2676 71.8655 71.7853C73.8214 73.8777 75.7957 76.4591 77.3406 78.8731C79.1528 81.7047 81.5694 84.0999 83.4131 86.9166C85.6422 90.3222 87.271 94.2356 89.6846 97.4886C92.5104 101.297 95.1141 105.068 98.4847 108.439C101.596 111.55 104.425 115.15 106.867 118.812C108.697 121.557 110.275 124.953 112.461 127.413C113.832 128.955 115.066 130.522 116.204 132.251C117.657 134.458 119.649 136.014 121.48 137.885C126.945 143.469 131.986 149.535 137.169 155.366C140.033 158.588 142.26 162.403 145.053 165.679C147.216 168.216 149.653 170.717 152.022 173.086C153.165 174.229 162.514 184.135 162.972 183.677" stroke="#DFDFDF" stroke-linecap="round"/>
<path d="M67.6443 74.3737C73.1984 79.9278 76.7359 87.0931 81.4417 93.3675C84.2673 97.135 85.8033 101.797 88.7485 105.373C90.7382 107.789 92.122 111.27 93.6463 114.014C97.4115 120.791 101.862 127.852 106.687 133.884C108.597 136.272 109.558 139.288 111.704 141.569C112.846 142.781 113.227 144.927 114.034 146.387C115.019 148.17 115.98 149.865 117.08 151.583C122.651 160.288 128.824 168.322 135.815 175.873C136.767 176.901 137.295 178.07 138.324 179.098C138.942 179.717 140.471 180.197 140.832 180.811C141.085 181.24 142.433 182.229 142.903 182.523C143.412 182.841 144.068 183.858 144.336 184.394" stroke="#DFDFDF" stroke-linecap="round"/>
<path d="M66.2107 86.5584C66.2107 92.5515 71.0983 98.4306 73.8958 103.482C76.5097 108.201 78.8584 112.756 80.466 117.936C82.0441 123.021 84.0827 127.825 85.9212 132.789C86.8599 135.323 88.3876 137.876 89.5846 140.314C91.2477 143.702 93.3253 146.982 94.6815 150.508C98.2193 159.706 100.932 170.417 107.065 178.302C108.036 179.55 108.664 181.294 109.773 182.403C110.341 182.971 110.974 183.51 111.366 184.195C111.536 184.494 112.312 185.74 112.62 185.808C113.513 186.006 113.226 186.937 113.874 187.261" stroke="#DFDFDF" stroke-linecap="round"/>
<path d="M72.903 189.609C78.315 189.609 83.6777 189.359 89.0846 189.359C91.1858 189.359 93.2016 188.859 95.2603 188.859C97.4924 188.859 99.6455 188.11 101.936 188.11C104.967 188.11 107.977 187.86 110.984 187.86C113.5 187.86 116.177 187.721 118.617 187.111C119.975 186.771 121.327 186.566 122.711 186.361C123.547 186.237 124.281 185.636 125.112 185.612C126.588 185.57 128.064 184.862 129.469 184.862C130.968 184.862 132.467 184.862 133.966 184.862C141.923 184.862 149.879 184.862 157.836 184.862C161.516 184.862 165.016 183.496 168.578 183.1C170.062 182.935 171.533 182.405 173.074 182.364C174.903 182.316 176.74 182.364 178.57 182.364C187.672 182.364 196.682 181.839 205.687 180.81C210.034 180.313 214.306 179.676 218.663 179.353C223.658 178.983 228.7 179.117 233.721 179.117C238.726 179.117 243.731 179.117 248.737 179.117C250.668 179.117 252.734 178.959 254.51 178.367" stroke="#DFDFDF" stroke-width="3" stroke-linecap="round"/>
<path d="M69.656 195.104C69.9849 194.227 75.1489 193.972 75.9566 193.911C78.5466 193.716 81.1051 193.605 83.7005 193.605C87.5453 193.605 91.4075 193.356 95.2747 193.356C99.0631 193.356 102.864 193.521 106.627 193.05C110.167 192.608 113.878 192.536 117.368 191.801C122.87 190.643 128.493 189.109 134.161 189.109C141.83 189.109 149.676 189.102 157.337 188.623C172.578 187.671 187.905 188.869 203.051 186.597C205.826 186.181 208.635 185.369 211.419 184.862C213.961 184.4 216.701 183.863 219.288 183.863C224.594 183.863 229.927 183.613 235.248 183.613C237.111 183.613 239.022 183.728 240.882 183.599C242.61 183.48 244.296 182.805 246.017 182.614C247.304 182.471 249.874 182.375 251.013 181.615" stroke="#DFDFDF" stroke-width="3" stroke-linecap="round"/>
<path d="M67.2855 49.2876C69.1963 49.7653 71.1003 51.9591 72.5814 53.1501C75.2791 55.3194 78.155 57.1602 80.7245 59.5013C86.1424 64.4376 91.5348 69.5042 97.3888 73.9358C103.371 78.4643 109.377 82.9013 115.686 86.9567C118.903 89.0246 121.825 91.4547 125.163 93.3477C129.215 95.6461 133.336 97.6266 137.248 100.177C145.143 105.323 153.258 110.034 161.02 115.408C167.819 120.115 175.127 124.095 181.885 128.847C187.92 133.089 194.438 136.714 200.401 141.051C204.1 143.741 208.342 146.159 211.71 149.274C213.589 151.012 215.883 152.659 217.982 154.112C218.654 154.577 220.592 155.477 220.948 156.083C221.751 157.448 224.449 159.113 225.886 159.866C228.661 161.32 231.355 163.334 233.929 165.122C236.073 166.611 238.349 167.883 240.539 169.343C242.103 170.385 243.846 171.375 245.238 172.568C245.871 173.111 247.263 174.197 248.085 174.38C248.495 174.471 250.633 175.873 250.773 176.152" stroke="#DFDFDF" stroke-linecap="round"/>
</svg>
