<svg width="340" height="94" viewBox="0 0 340 94" preserveAspectRatio="none" fill="none" xmlns="http://www.w3.org/2000/svg">
<path d="M28.8154 41.2664L22.5899 44.6459L20.6333 40.3177C18.5581 42.8672 15.475 44.7052 11.5618 44.7052C3.9725 44.6459 0 38.4204 0 28.6967C0 18.2021 4.68399 12.5102 12.0954 12.5102C15.5935 12.5102 18.3209 13.8146 20.0997 16.2455V0.770569H26.5031V36.5824L28.8154 41.2664ZM20.0997 37.0567V20.5738C18.4395 19.2101 16.3643 18.38 14.1706 18.38C9.42728 18.38 6.6406 21.9968 6.6406 28.7559C6.6406 35.278 9.2494 38.8354 14.052 38.8354C16.1865 38.8947 18.3802 38.1832 20.0997 37.0567Z" fill="#202124"/>
<path d="M60.4775 29.2894H39.6071C40.0221 34.6849 44.2318 38.2423 50.8131 38.2423C54.1927 38.2423 57.8687 37.5308 60.2996 36.2264L58.2837 42.8077C56.2086 43.9343 52.7104 44.6458 48.7379 44.6458C39.2513 44.6458 32.9665 38.183 32.9665 28.4C32.9665 18.5577 38.9549 12.51 48.4414 12.51C56.3271 12.51 61.2483 17.0161 61.2483 24.2496C61.2483 25.9098 60.9518 27.8664 60.4775 29.2894ZM39.9628 24.8425H55.0227C54.7263 20.2178 52.5325 18.0241 48.4414 18.0241C43.9946 18.0834 40.9115 20.6329 39.9628 24.8425Z" fill="#202124"/>
<path d="M76.0108 43.8756L63.9747 13.2814H71.0303L78.8568 34.6855L79.7461 37.3536H79.9833L80.8727 34.6855L88.6991 13.2814H95.6361L83.6 43.8756H76.0108Z" fill="#202124"/>
<path d="M116.507 13.3405H130.322L129.433 18.2616H115.618L110.756 45.7727C109.392 53.4805 104.234 56.3265 97.0597 56.3265C93.7394 56.3265 92.1978 55.8522 90.5376 55.4964L90.4191 50.516C92.0792 50.8124 94.0358 50.9903 96.7632 50.9903C101.091 50.9903 103.937 49.2709 104.59 45.6541L109.451 18.2024H99.8463L100.736 13.2812H110.282L110.756 10.4352C112.12 2.90526 117.219 0 124.334 0C127.713 0 129.433 0.474328 130.915 0.830075L131.033 5.92911C129.373 5.51407 127.417 5.3362 124.689 5.3362C120.42 5.3362 117.574 7.05564 116.922 10.6724L116.507 13.3405Z" fill="#202124"/>
<path d="M158.841 29.2894H137.911C138.326 34.6849 142.536 38.2423 149.117 38.2423C152.497 38.2423 156.173 37.5308 158.604 36.2264L156.588 42.8077C154.513 43.9343 151.015 44.6458 147.042 44.6458C137.556 44.6458 131.271 38.183 131.271 28.4C131.271 18.5577 137.259 12.51 146.746 12.51C154.631 12.51 159.553 17.0161 159.553 24.2496C159.612 25.9098 159.315 27.8664 158.841 29.2894ZM138.267 24.8425H153.327C153.031 20.2178 150.837 18.0241 146.746 18.0241C142.358 18.0834 139.275 20.6329 138.267 24.8425Z" fill="#202124"/>
<path d="M165.718 42.0369L165.303 35.1591C168.03 37.0565 173.011 38.7166 178.169 38.7166C182.141 38.7166 184.987 37.4715 184.987 34.6848C184.987 28.8743 165.955 34.2698 165.955 22.4709C165.955 16.9568 170.105 12.3321 179.948 12.3321C185.995 12.3321 190.561 13.8144 190.561 17.4904C190.561 18.6169 190.086 19.5656 189.612 20.455C187.003 19.2099 182.912 18.3205 179.533 18.3205C174.789 18.3205 172.299 20.0992 172.299 22.0558C172.299 27.2141 191.569 22.708 191.569 34.2105C191.569 40.6732 185.877 44.6457 177.457 44.6457C171.706 44.6457 167.437 42.8077 165.718 42.0369Z" fill="#202124"/>
<path d="M224.477 37.4124L223.172 43.4008C221.631 44.053 218.547 44.7052 215.701 44.7052C208.053 44.7052 204.851 40.7327 204.851 35.1593V18.6764H196.195V13.2809H204.851V4.9209H211.255V13.2809H223.587V18.6764H211.255V33.1434C211.255 37.1159 213.33 38.8947 216.947 38.8947C218.962 38.8947 222.757 38.4203 224.477 37.4124Z" fill="#202124"/>
<path d="M257.915 40.9113V43.8758H237.044V40.7334C246.294 32.9663 252.46 28.4602 252.46 22.2939C252.46 17.9063 249.495 15.8905 245.464 15.8905C242.321 15.8905 239.594 17.2541 238.171 18.3807C237.696 18.0842 237.103 17.432 237.103 16.5427C237.103 14.2303 241.076 12.5109 245.641 12.5109C251.986 12.5109 256.017 15.8312 256.017 21.9381C256.017 29.5274 249.732 34.2707 241.313 40.852H257.915V40.9113Z" fill="#4285F4"/>
<path d="M263.073 28.5192C263.073 18.0247 267.401 12.5699 274.457 12.5699C281.453 12.5699 285.841 18.0247 285.841 28.5192C285.841 39.0137 281.513 44.4685 274.516 44.4685C267.401 44.4685 263.073 39.0137 263.073 28.5192ZM282.224 28.5192C282.224 20.0998 279.497 15.9495 274.516 15.9495C269.477 15.9495 266.749 20.1591 266.749 28.5192C266.749 36.9385 269.477 41.1482 274.516 41.1482C279.497 41.1482 282.224 36.9385 282.224 28.5192ZM272.026 30.8315V26.029H276.888V30.8315H272.026Z" fill="#4285F4"/>
<path d="M312.105 40.9113V43.8759H291.235V40.7335C300.484 32.9663 306.651 28.4602 306.651 22.2939C306.651 17.9064 303.686 15.8905 299.654 15.8905C296.512 15.8905 293.784 17.2542 292.362 18.3807C291.887 18.0843 291.294 17.4321 291.294 16.5427C291.294 14.2304 295.267 12.5109 299.832 12.5109C306.176 12.5109 310.208 15.8312 310.208 21.9382C310.208 29.5275 303.923 34.2707 295.504 40.852H312.105V40.9113Z" fill="#4285F4"/>
<path d="M339.144 40.9113V43.8759H318.273V40.7335C327.523 32.9663 333.689 28.4602 333.689 22.2939C333.689 17.9064 330.725 15.8905 326.693 15.8905C323.55 15.8905 320.823 17.2542 319.4 18.3807C318.926 18.0843 318.333 17.4321 318.333 16.5427C318.333 14.2304 322.305 12.5109 326.871 12.5109C333.215 12.5109 337.247 15.8312 337.247 21.9382C337.247 29.5275 330.962 34.2707 322.542 40.852H339.144V40.9113Z" fill="#4285F4"/>
<path d="M245.617 66.6387H249.038L257.268 80.0384H257.422L257.268 76.4891V66.6387H260.123V85.0536H257.114L248.472 70.9595H248.318L248.472 74.5087V85.0536H245.617V66.6387ZM268.89 85.4651C267.947 85.4651 267.107 85.2851 266.37 84.925C265.633 84.5478 265.058 84.0248 264.647 83.3561C264.235 82.6703 264.029 81.8987 264.029 81.0414C264.029 79.6869 264.535 78.6152 265.547 77.8265C266.576 77.0378 267.87 76.6434 269.43 76.6434C270.202 76.6434 270.896 76.7206 271.514 76.8749C272.131 77.0121 272.62 77.1664 272.98 77.3378V76.6692C272.98 75.8633 272.68 75.2117 272.08 74.7145C271.479 74.2001 270.708 73.9429 269.765 73.9429C269.096 73.9429 268.462 74.0887 267.862 74.3801C267.279 74.6716 266.807 75.0746 266.447 75.5889L264.467 74.0715C265.05 73.2657 265.804 72.6398 266.73 72.194C267.656 71.7482 268.685 71.5253 269.816 71.5253C271.719 71.5253 273.185 71.9968 274.214 72.9399C275.243 73.8658 275.757 75.1774 275.757 76.8749V85.0536H272.98V83.4847H272.851C272.474 84.0505 271.942 84.5221 271.256 84.8993C270.571 85.2765 269.782 85.4651 268.89 85.4651ZM269.379 83.1247C270.065 83.1247 270.682 82.9618 271.231 82.636C271.779 82.3102 272.208 81.873 272.517 81.3243C272.825 80.7756 272.98 80.1841 272.98 79.5497C272.585 79.3268 272.122 79.1468 271.591 79.0096C271.076 78.8724 270.536 78.8038 269.971 78.8038C268.907 78.8038 268.127 79.0182 267.63 79.4468C267.133 79.8583 266.884 80.3984 266.884 81.0671C266.884 81.6672 267.116 82.1645 267.579 82.5588C268.042 82.936 268.642 83.1247 269.379 83.1247ZM285.916 91.0204C284.304 91.0204 282.967 90.6518 281.904 89.9145C280.858 89.1772 280.155 88.3028 279.795 87.2912L282.444 86.1852C282.718 86.8711 283.156 87.4197 283.756 87.8313C284.373 88.2599 285.093 88.4742 285.916 88.4742C287.116 88.4742 288.051 88.1142 288.72 87.394C289.405 86.691 289.748 85.6966 289.748 84.4106V83.2018H289.594C289.165 83.8191 288.591 84.3077 287.871 84.6678C287.168 85.0107 286.353 85.1822 285.428 85.1822C284.33 85.1822 283.31 84.8993 282.367 84.3335C281.424 83.7676 280.669 82.9703 280.104 81.9416C279.555 80.8957 279.281 79.704 279.281 78.3666C279.281 77.0292 279.555 75.8461 280.104 74.8174C280.669 73.7715 281.424 72.9656 282.367 72.3998C283.31 71.8168 284.33 71.5253 285.428 71.5253C286.336 71.5253 287.151 71.7054 287.871 72.0654C288.591 72.4255 289.165 72.9142 289.594 73.5314H289.748V71.9368H292.449V84.3335C292.449 85.7566 292.175 86.9654 291.626 87.9599C291.077 88.9715 290.306 89.7345 289.311 90.2489C288.334 90.7632 287.202 91.0204 285.916 91.0204ZM285.942 82.6103C286.628 82.6103 287.262 82.4474 287.845 82.1216C288.428 81.7787 288.891 81.29 289.234 80.6556C289.577 80.0041 289.748 79.2411 289.748 78.3666C289.748 77.0292 289.38 75.9919 288.642 75.2546C287.922 74.5002 287.022 74.123 285.942 74.123C285.239 74.123 284.596 74.2944 284.013 74.6373C283.43 74.9631 282.967 75.4432 282.624 76.0776C282.281 76.712 282.11 77.475 282.11 78.3666C282.11 79.2582 282.281 80.0212 282.624 80.6556C282.967 81.29 283.43 81.7787 284.013 82.1216C284.596 82.4474 285.239 82.6103 285.942 82.6103ZM296.957 71.9368H299.657V73.66H299.786C300.163 73.0599 300.721 72.5541 301.458 72.1426C302.195 71.7311 303.027 71.5253 303.953 71.5253C305.136 71.5253 306.207 71.8254 307.167 72.4255C308.128 73.0256 308.882 73.8572 309.431 74.9203C309.997 75.9662 310.279 77.1578 310.279 78.4952C310.279 79.8326 309.997 81.0328 309.431 82.0959C308.882 83.1418 308.128 83.9648 307.167 84.5649C306.207 85.165 305.136 85.4651 303.953 85.4651C303.027 85.4651 302.195 85.2593 301.458 84.8478C300.721 84.4363 300.163 83.9391 299.786 83.3561H299.657L299.786 85.1822V90.6089H296.957V71.9368ZM303.541 82.8675C304.227 82.8675 304.87 82.6874 305.47 82.3274C306.07 81.9673 306.55 81.4529 306.91 80.7842C307.27 80.1155 307.45 79.3525 307.45 78.4952C307.45 77.6379 307.27 76.8835 306.91 76.2319C306.55 75.5632 306.07 75.0488 305.47 74.6888C304.87 74.3287 304.227 74.1487 303.541 74.1487C302.855 74.1487 302.212 74.3287 301.612 74.6888C301.029 75.0488 300.558 75.5632 300.198 76.2319C299.837 76.8835 299.657 77.6379 299.657 78.4952C299.657 79.3525 299.837 80.1155 300.198 80.7842C300.558 81.4529 301.029 81.9673 301.612 82.3274C302.212 82.6874 302.855 82.8675 303.541 82.8675ZM318.802 85.4651C317.208 85.4651 315.99 84.9936 315.15 84.0505C314.327 83.0904 313.915 81.7615 313.915 80.0641V71.9368H316.745V79.6783C316.745 80.7413 316.993 81.5386 317.49 82.0702C318.005 82.6017 318.674 82.8675 319.497 82.8675C320.165 82.8675 320.757 82.696 321.271 82.3531C321.786 81.993 322.18 81.5215 322.454 80.9385C322.729 80.3556 322.866 79.7297 322.866 79.061V71.9368H325.695V85.0536H323.02V83.3561H322.866C322.506 83.9734 321.948 84.4792 321.194 84.8736C320.44 85.2679 319.642 85.4651 318.802 85.4651ZM330.274 71.9368H332.974V73.8658H333.103C333.394 73.1971 333.9 72.6484 334.62 72.2197C335.34 71.7739 336.103 71.551 336.909 71.551C337.544 71.551 338.075 71.6368 338.504 71.8082V74.7402C337.749 74.4659 337.072 74.3287 336.472 74.3287C335.82 74.3287 335.237 74.5002 334.723 74.8431C334.226 75.186 333.831 75.649 333.54 76.2319C333.249 76.7977 333.103 77.4236 333.103 78.1094V85.0536H330.274V71.9368Z" fill="#4285F4"/>
</svg>
