<svg width="544" height="78" viewBox="0 0 544 78" fill="none" preserveAspectRatio="none" xmlns="http://www.w3.org/2000/svg">
<path d="M107.501 37.6116C104.927 37.6116 102.557 36.9872 100.391 35.7385C98.2245 34.4898 96.5043 32.7696 95.2301 30.578C93.9559 28.3863 93.3188 25.9653 93.3188 23.315C93.3188 20.6646 93.9559 18.2436 95.2301 16.052C96.5043 13.8604 98.2245 12.1402 100.391 10.8915C102.557 9.64274 104.927 9.01838 107.501 9.01838C109.514 9.01838 111.4 9.37515 113.158 10.0887C114.942 10.8023 116.407 11.8089 117.554 13.1086L115.222 15.4404C114.356 14.37 113.247 13.5546 111.897 12.9939C110.546 12.4078 109.093 12.1147 107.539 12.1147C105.602 12.1147 103.793 12.5862 102.111 13.5291C100.454 14.4465 99.1165 15.7589 98.0971 17.4664C97.1032 19.1483 96.6063 21.0979 96.6063 23.315C96.6063 25.5321 97.1032 27.4944 98.0971 29.2018C99.1165 30.8838 100.467 32.1962 102.149 33.1391C103.831 34.0566 105.628 34.5153 107.539 34.5153C109.374 34.5153 110.903 34.2349 112.126 33.6743C113.375 33.0882 114.445 32.3236 115.337 31.3807C116 30.6672 116.535 29.8134 116.943 28.8196C117.35 27.8002 117.605 26.6789 117.707 25.4557H107.577V22.4358H120.727C120.854 23.1493 120.918 23.8119 120.918 24.4235C120.918 26.1055 120.651 27.7492 120.115 29.3547C119.58 30.9347 118.727 32.3236 117.554 33.5214C115.031 36.2482 111.68 37.6116 107.501 37.6116ZM133.9 37.6116C131.988 37.6116 130.268 37.1529 128.739 36.2354C127.21 35.318 126.012 34.0693 125.146 32.4893C124.305 30.9093 123.884 29.1636 123.884 27.2523C123.884 25.341 124.305 23.5953 125.146 22.0153C126.012 20.4353 127.21 19.1866 128.739 18.2691C130.268 17.3517 131.988 16.893 133.9 16.893C135.811 16.893 137.531 17.3517 139.06 18.2691C140.589 19.1866 141.774 20.4353 142.615 22.0153C143.482 23.5953 143.915 25.341 143.915 27.2523C143.915 29.1636 143.482 30.9093 142.615 32.4893C141.774 34.0693 140.589 35.318 139.06 36.2354C137.531 37.1529 135.811 37.6116 133.9 37.6116ZM133.9 34.6682C135.097 34.6682 136.206 34.3751 137.225 33.789C138.27 33.1773 139.098 32.3109 139.71 31.1896C140.347 30.0683 140.666 28.7558 140.666 27.2523C140.666 25.7487 140.347 24.4363 139.71 23.315C139.098 22.1937 138.27 21.34 137.225 20.7538C136.206 20.1422 135.097 19.8364 133.9 19.8364C132.702 19.8364 131.58 20.1422 130.536 20.7538C129.491 21.34 128.65 22.1937 128.013 23.315C127.401 24.4363 127.095 25.7487 127.095 27.2523C127.095 28.7558 127.401 30.0683 128.013 31.1896C128.65 32.3109 129.491 33.1773 130.536 33.789C131.58 34.3751 132.702 34.6682 133.9 34.6682ZM156.671 37.6116C154.76 37.6116 153.04 37.1529 151.51 36.2354C149.981 35.318 148.784 34.0693 147.917 32.4893C147.076 30.9093 146.656 29.1636 146.656 27.2523C146.656 25.341 147.076 23.5953 147.917 22.0153C148.784 20.4353 149.981 19.1866 151.51 18.2691C153.04 17.3517 154.76 16.893 156.671 16.893C158.582 16.893 160.302 17.3517 161.832 18.2691C163.361 19.1866 164.546 20.4353 165.387 22.0153C166.253 23.5953 166.686 25.341 166.686 27.2523C166.686 29.1636 166.253 30.9093 165.387 32.4893C164.546 34.0693 163.361 35.318 161.832 36.2354C160.302 37.1529 158.582 37.6116 156.671 37.6116ZM156.671 34.6682C157.869 34.6682 158.977 34.3751 159.997 33.789C161.042 33.1773 161.87 32.3109 162.481 31.1896C163.118 30.0683 163.437 28.7558 163.437 27.2523C163.437 25.7487 163.118 24.4363 162.481 23.315C161.87 22.1937 161.042 21.34 159.997 20.7538C158.977 20.1422 157.869 19.8364 156.671 19.8364C155.473 19.8364 154.352 20.1422 153.307 20.7538C152.262 21.34 151.421 22.1937 150.784 23.315C150.173 24.4363 149.867 25.7487 149.867 27.2523C149.867 28.7558 150.173 30.0683 150.784 31.1896C151.421 32.3109 152.262 33.1773 153.307 33.789C154.352 34.3751 155.473 34.6682 156.671 34.6682ZM179.022 45.8685C176.728 45.8685 174.83 45.3333 173.326 44.263C171.848 43.1926 170.854 41.9057 170.345 40.4021L173.288 39.1406C173.721 40.2619 174.435 41.1666 175.429 41.8547C176.448 42.5683 177.646 42.925 179.022 42.925C181.035 42.925 182.59 42.3389 183.686 41.1666C184.807 39.9944 185.368 38.3379 185.368 36.1972V34.0183H185.215C184.578 35.0122 183.673 35.8277 182.501 36.4648C181.354 37.0764 180.041 37.3822 178.563 37.3822C176.881 37.3822 175.34 36.949 173.938 36.0825C172.562 35.2161 171.466 34.0056 170.65 32.451C169.835 30.8965 169.427 29.1254 169.427 27.1376C169.427 25.1753 169.835 23.4169 170.65 21.8624C171.466 20.2824 172.562 19.0591 173.938 18.1927C175.34 17.3262 176.881 16.893 178.563 16.893C180.041 16.893 181.354 17.2115 182.501 17.8486C183.673 18.4603 184.578 19.2757 185.215 20.2951H185.368V17.5046H188.464V36.2354C188.464 39.37 187.597 41.7528 185.864 43.3837C184.132 45.0402 181.851 45.8685 179.022 45.8685ZM179.022 34.4388C180.194 34.4388 181.252 34.1457 182.195 33.5596C183.163 32.9735 183.928 32.1325 184.488 31.0367C185.074 29.9409 185.368 28.6412 185.368 27.1376C185.368 25.6086 185.074 24.2961 184.488 23.2003C183.928 22.1045 183.163 21.2763 182.195 20.7156C181.252 20.1295 180.194 19.8364 179.022 19.8364C177.85 19.8364 176.779 20.1295 175.811 20.7156C174.843 21.3017 174.065 22.1427 173.479 23.2385C172.919 24.3343 172.638 25.634 172.638 27.1376C172.638 28.6412 172.919 29.9536 173.479 31.0749C174.065 32.1707 174.843 33.0117 175.811 33.5978C176.779 34.1585 177.85 34.4388 179.022 34.4388ZM193.268 9.63H196.517V37H193.268V9.63ZM209.822 37.6116C207.962 37.6116 206.293 37.1656 204.815 36.2737C203.336 35.3817 202.177 34.1585 201.336 32.604C200.52 31.0239 200.113 29.2528 200.113 27.2905C200.113 25.4047 200.495 23.6718 201.26 22.0917C202.05 20.5117 203.158 19.2503 204.585 18.3073C206.012 17.3644 207.669 16.893 209.555 16.893C211.466 16.893 213.122 17.3262 214.524 18.1927C215.926 19.0336 216.996 20.2059 217.735 21.7095C218.5 23.213 218.882 24.9332 218.882 26.87C218.882 27.2523 218.844 27.5836 218.767 27.8639H203.362C203.438 29.342 203.795 30.5907 204.432 31.6101C205.069 32.6294 205.872 33.394 206.841 33.9036C207.834 34.4133 208.867 34.6682 209.937 34.6682C212.434 34.6682 214.358 33.4959 215.709 31.1514L218.461 32.4893C217.62 34.0693 216.474 35.318 215.021 36.2354C213.594 37.1529 211.861 37.6116 209.822 37.6116ZM215.441 25.1881C215.39 24.3726 215.161 23.5571 214.753 22.7416C214.346 21.9261 213.696 21.238 212.804 20.6774C211.937 20.1167 210.842 19.8364 209.516 19.8364C207.987 19.8364 206.688 20.3333 205.617 21.3272C204.572 22.2956 203.884 23.5826 203.553 25.1881H215.441ZM232.219 9.63H240.476C243.279 9.63 245.725 10.2161 247.815 11.3884C249.905 12.5352 251.51 14.1407 252.632 16.2049C253.753 18.2691 254.314 20.6391 254.314 23.315C254.314 25.9908 253.753 28.3608 252.632 30.4251C251.51 32.4893 249.905 34.1075 247.815 35.2798C245.725 36.4266 243.279 37 240.476 37H232.219V9.63ZM240.476 33.9036C243.712 33.9036 246.273 32.9735 248.159 31.1131C250.071 29.2528 251.026 26.6534 251.026 23.315C251.026 19.9766 250.071 17.3772 248.159 15.5168C246.273 13.6565 243.712 12.7263 240.476 12.7263H235.43V33.9036H240.476ZM266.564 37.6116C264.704 37.6116 263.035 37.1656 261.557 36.2737C260.079 35.3817 258.919 34.1585 258.078 32.604C257.263 31.0239 256.855 29.2528 256.855 27.2905C256.855 25.4047 257.237 23.6718 258.002 22.0917C258.792 20.5117 259.9 19.2503 261.327 18.3073C262.754 17.3644 264.411 16.893 266.297 16.893C268.208 16.893 269.864 17.3262 271.266 18.1927C272.668 19.0336 273.738 20.2059 274.477 21.7095C275.242 23.213 275.624 24.9332 275.624 26.87C275.624 27.2523 275.586 27.5836 275.509 27.8639H260.104C260.18 29.342 260.537 30.5907 261.174 31.6101C261.811 32.6294 262.614 33.394 263.583 33.9036C264.576 34.4133 265.609 34.6682 266.679 34.6682C269.176 34.6682 271.1 33.4959 272.451 31.1514L275.203 32.4893C274.362 34.0693 273.216 35.318 271.763 36.2354C270.336 37.1529 268.603 37.6116 266.564 37.6116ZM272.183 25.1881C272.133 24.3726 271.903 23.5571 271.495 22.7416C271.088 21.9261 270.438 21.238 269.546 20.6774C268.679 20.1167 267.584 19.8364 266.258 19.8364C264.729 19.8364 263.43 20.3333 262.359 21.3272C261.314 22.2956 260.626 23.5826 260.295 25.1881H272.183ZM276.912 17.5046H280.391L286.431 33.1773H286.507L292.623 17.5046H296.026L288.075 37H284.787L276.912 17.5046ZM306.806 37.6116C304.946 37.6116 303.277 37.1656 301.799 36.2737C300.321 35.3817 299.161 34.1585 298.32 32.604C297.505 31.0239 297.097 29.2528 297.097 27.2905C297.097 25.4047 297.479 23.6718 298.244 22.0917C299.034 20.5117 300.142 19.2503 301.569 18.3073C302.996 17.3644 304.653 16.893 306.539 16.893C308.45 16.893 310.106 17.3262 311.508 18.1927C312.91 19.0336 313.98 20.2059 314.719 21.7095C315.484 23.213 315.866 24.9332 315.866 26.87C315.866 27.2523 315.828 27.5836 315.751 27.8639H300.346C300.422 29.342 300.779 30.5907 301.416 31.6101C302.053 32.6294 302.856 33.394 303.825 33.9036C304.819 34.4133 305.851 34.6682 306.921 34.6682C309.418 34.6682 311.342 33.4959 312.693 31.1514L315.445 32.4893C314.604 34.0693 313.458 35.318 312.005 36.2354C310.578 37.1529 308.845 37.6116 306.806 37.6116ZM312.426 25.1881C312.375 24.3726 312.145 23.5571 311.737 22.7416C311.33 21.9261 310.68 21.238 309.788 20.6774C308.921 20.1167 307.826 19.8364 306.5 19.8364C304.971 19.8364 303.672 20.3333 302.601 21.3272C301.557 22.2956 300.868 23.5826 300.537 25.1881H312.426ZM319.669 9.63H322.918V37H319.669V9.63ZM336.528 37.6116C334.617 37.6116 332.897 37.1529 331.368 36.2354C329.839 35.318 328.641 34.0693 327.775 32.4893C326.934 30.9093 326.513 29.1636 326.513 27.2523C326.513 25.341 326.934 23.5953 327.775 22.0153C328.641 20.4353 329.839 19.1866 331.368 18.2691C332.897 17.3517 334.617 16.893 336.528 16.893C338.44 16.893 340.16 17.3517 341.689 18.2691C343.218 19.1866 344.403 20.4353 345.244 22.0153C346.11 23.5953 346.544 25.341 346.544 27.2523C346.544 29.1636 346.11 30.9093 345.244 32.4893C344.403 34.0693 343.218 35.318 341.689 36.2354C340.16 37.1529 338.44 37.6116 336.528 37.6116ZM336.528 34.6682C337.726 34.6682 338.835 34.3751 339.854 33.789C340.899 33.1773 341.727 32.3109 342.339 31.1896C342.976 30.0683 343.294 28.7558 343.294 27.2523C343.294 25.7487 342.976 24.4363 342.339 23.315C341.727 22.1937 340.899 21.34 339.854 20.7538C338.835 20.1422 337.726 19.8364 336.528 19.8364C335.331 19.8364 334.209 20.1422 333.164 20.7538C332.12 21.34 331.279 22.1937 330.642 23.315C330.03 24.4363 329.724 25.7487 329.724 27.2523C329.724 28.7558 330.03 30.0683 330.642 31.1896C331.279 32.3109 332.12 33.1773 333.164 33.789C334.209 34.3751 335.331 34.6682 336.528 34.6682ZM349.977 17.5046H353.073V20.4098H353.226C353.812 19.4159 354.692 18.5877 355.864 17.9251C357.062 17.237 358.4 16.893 359.878 16.893C361.611 16.893 363.191 17.3389 364.618 18.2309C366.045 19.1228 367.166 20.3588 367.982 21.9388C368.797 23.5189 369.205 25.29 369.205 27.2523C369.205 29.24 368.797 31.0239 367.982 32.604C367.166 34.1585 366.045 35.3817 364.618 36.2737C363.191 37.1656 361.611 37.6116 359.878 37.6116C358.4 37.6116 357.062 37.2803 355.864 36.6177C354.692 35.9296 353.812 35.1014 353.226 34.133H353.073L353.226 36.8088V45.2568H349.977V17.5046ZM359.495 34.6682C360.617 34.6682 361.674 34.3624 362.668 33.7507C363.662 33.1391 364.452 32.2727 365.038 31.1514C365.65 30.0046 365.956 28.7049 365.956 27.2523C365.956 25.7997 365.65 24.5127 365.038 23.3914C364.452 22.2446 363.662 21.3654 362.668 20.7538C361.674 20.1422 360.617 19.8364 359.495 19.8364C358.374 19.8364 357.317 20.1422 356.323 20.7538C355.329 21.3654 354.539 22.2319 353.953 23.3532C353.367 24.4745 353.073 25.7742 353.073 27.2523C353.073 28.7304 353.367 30.0301 353.953 31.1514C354.539 32.2727 355.329 33.1391 356.323 33.7507C357.317 34.3624 358.374 34.6682 359.495 34.6682ZM381.654 37.6116C379.793 37.6116 378.124 37.1656 376.646 36.2737C375.168 35.3817 374.008 34.1585 373.167 32.604C372.352 31.0239 371.944 29.2528 371.944 27.2905C371.944 25.4047 372.326 23.6718 373.091 22.0917C373.881 20.5117 374.989 19.2503 376.417 18.3073C377.844 17.3644 379.5 16.893 381.386 16.893C383.297 16.893 384.954 17.3262 386.355 18.1927C387.757 19.0336 388.827 20.2059 389.566 21.7095C390.331 23.213 390.713 24.9332 390.713 26.87C390.713 27.2523 390.675 27.5836 390.598 27.8639H375.193C375.27 29.342 375.627 30.5907 376.264 31.6101C376.901 32.6294 377.703 33.394 378.672 33.9036C379.666 34.4133 380.698 34.6682 381.768 34.6682C384.266 34.6682 386.19 33.4959 387.54 31.1514L390.293 32.4893C389.452 34.0693 388.305 35.318 386.852 36.2354C385.425 37.1529 383.692 37.6116 381.654 37.6116ZM387.273 25.1881C387.222 24.3726 386.992 23.5571 386.585 22.7416C386.177 21.9261 385.527 21.238 384.635 20.6774C383.769 20.1167 382.673 19.8364 381.348 19.8364C379.819 19.8364 378.519 20.3333 377.449 21.3272C376.404 22.2956 375.716 23.5826 375.384 25.1881H387.273ZM394.516 17.5046H397.612V20.6391H397.765C398.147 19.5688 398.886 18.6896 399.982 18.0015C401.078 17.288 402.225 16.9312 403.422 16.9312C404.314 16.9312 405.079 17.0586 405.716 17.3135V20.8303C404.901 20.4225 403.983 20.2187 402.964 20.2187C402.021 20.2187 401.154 20.4862 400.364 21.0214C399.574 21.5566 398.937 22.2829 398.453 23.2003C397.994 24.0922 397.765 25.0606 397.765 26.1055V37H394.516V17.5046ZM430.482 37.6116C427.909 37.6116 425.539 36.9872 423.372 35.7385C421.206 34.4898 419.486 32.7696 418.212 30.578C416.938 28.3863 416.301 25.9653 416.301 23.315C416.301 20.6646 416.938 18.2436 418.212 16.052C419.486 13.8604 421.206 12.1402 423.372 10.8915C425.539 9.64274 427.909 9.01838 430.482 9.01838C432.496 9.01838 434.382 9.37515 436.14 10.0887C437.924 10.8023 439.389 11.8089 440.536 13.1086L438.204 15.4404C437.338 14.37 436.229 13.5546 434.878 12.9939C433.528 12.4078 432.075 12.1147 430.521 12.1147C428.584 12.1147 426.774 12.5862 425.093 13.5291C423.436 14.4465 422.098 15.7589 421.079 17.4664C420.085 19.1483 419.588 21.0979 419.588 23.315C419.588 25.5321 420.085 27.4944 421.079 29.2018C422.098 30.8838 423.449 32.1962 425.131 33.1391C426.813 34.0566 428.609 34.5153 430.521 34.5153C432.356 34.5153 433.885 34.2349 435.108 33.6743C436.357 33.0882 437.427 32.3236 438.319 31.3807C438.981 30.6672 439.517 29.8134 439.924 28.8196C440.332 27.8002 440.587 26.6789 440.689 25.4557H430.559V22.4358H443.709C443.836 23.1493 443.9 23.8119 443.9 24.4235C443.9 26.1055 443.632 27.7492 443.097 29.3547C442.562 30.9347 441.708 32.3236 440.536 33.5214C438.013 36.2482 434.662 37.6116 430.482 37.6116ZM447.338 17.5046H450.434V20.6391H450.587C450.97 19.5688 451.709 18.6896 452.804 18.0015C453.9 17.288 455.047 16.9312 456.245 16.9312C457.137 16.9312 457.901 17.0586 458.538 17.3135V20.8303C457.723 20.4225 456.805 20.2187 455.786 20.2187C454.843 20.2187 453.977 20.4862 453.187 21.0214C452.397 21.5566 451.76 22.2829 451.275 23.2003C450.817 24.0922 450.587 25.0606 450.587 26.1055V37H447.338V17.5046ZM469.499 37.6116C467.588 37.6116 465.867 37.1529 464.338 36.2354C462.809 35.318 461.612 34.0693 460.745 32.4893C459.904 30.9093 459.484 29.1636 459.484 27.2523C459.484 25.341 459.904 23.5953 460.745 22.0153C461.612 20.4353 462.809 19.1866 464.338 18.2691C465.867 17.3517 467.588 16.893 469.499 16.893C471.41 16.893 473.13 17.3517 474.659 18.2691C476.188 19.1866 477.373 20.4353 478.214 22.0153C479.081 23.5953 479.514 25.341 479.514 27.2523C479.514 29.1636 479.081 30.9093 478.214 32.4893C477.373 34.0693 476.188 35.318 474.659 36.2354C473.13 37.1529 471.41 37.6116 469.499 37.6116ZM469.499 34.6682C470.697 34.6682 471.805 34.3751 472.825 33.789C473.869 33.1773 474.698 32.3109 475.309 31.1896C475.946 30.0683 476.265 28.7558 476.265 27.2523C476.265 25.7487 475.946 24.4363 475.309 23.315C474.698 22.1937 473.869 21.34 472.825 20.7538C471.805 20.1422 470.697 19.8364 469.499 19.8364C468.301 19.8364 467.18 20.1422 466.135 20.7538C465.09 21.34 464.249 22.1937 463.612 23.315C463 24.4363 462.695 25.7487 462.695 27.2523C462.695 28.7558 463 30.0683 463.612 31.1896C464.249 32.3109 465.09 33.1773 466.135 33.789C467.18 34.3751 468.301 34.6682 469.499 34.6682ZM490.172 37.6116C487.828 37.6116 486.031 36.9235 484.782 35.5474C483.559 34.1712 482.948 32.2472 482.948 29.7752V17.5046H486.197V29.2783C486.197 31.1386 486.617 32.502 487.458 33.3685C488.299 34.2349 489.433 34.6682 490.86 34.6682C491.956 34.6682 492.925 34.3751 493.766 33.789C494.632 33.2028 495.295 32.4383 495.753 31.4954C496.238 30.5525 496.48 29.5586 496.48 28.5137V17.5046H499.729V37H496.633V34.1712H496.48C495.945 35.1396 495.091 35.9551 493.919 36.6177C492.746 37.2803 491.498 37.6116 490.172 37.6116ZM504.375 17.5046H507.472V20.4098H507.624C508.211 19.4159 509.09 18.5877 510.262 17.9251C511.46 17.237 512.798 16.893 514.276 16.893C516.009 16.893 517.589 17.3389 519.016 18.2309C520.443 19.1228 521.564 20.3588 522.38 21.9388C523.195 23.5189 523.603 25.29 523.603 27.2523C523.603 29.24 523.195 31.0239 522.38 32.604C521.564 34.1585 520.443 35.3817 519.016 36.2737C517.589 37.1656 516.009 37.6116 514.276 37.6116C512.798 37.6116 511.46 37.2803 510.262 36.6177C509.09 35.9296 508.211 35.1014 507.624 34.133H507.472L507.624 36.8088V45.2568H504.375V17.5046ZM513.894 34.6682C515.015 34.6682 516.072 34.3624 517.066 33.7507C518.06 33.1391 518.85 32.2727 519.436 31.1514C520.048 30.0046 520.354 28.7049 520.354 27.2523C520.354 25.7997 520.048 24.5127 519.436 23.3914C518.85 22.2446 518.06 21.3654 517.066 20.7538C516.072 20.1422 515.015 19.8364 513.894 19.8364C512.772 19.8364 511.715 20.1422 510.721 20.7538C509.727 21.3654 508.937 22.2319 508.351 23.3532C507.765 24.4745 507.472 25.7742 507.472 27.2523C507.472 28.7304 507.765 30.0301 508.351 31.1514C508.937 32.2727 509.727 33.1391 510.721 33.7507C511.715 34.3624 512.772 34.6682 513.894 34.6682ZM533.992 37.6116C531.902 37.6116 530.157 37.1274 528.755 36.159C527.353 35.1651 526.359 33.9036 525.773 32.3746L528.678 31.0749C529.163 32.2472 529.876 33.1519 530.819 33.789C531.787 34.4261 532.845 34.7446 533.992 34.7446C535.215 34.7446 536.26 34.5025 537.126 34.0183C537.993 33.5086 538.426 32.7951 538.426 31.8777C538.426 31.0622 538.082 30.4123 537.394 29.9281C536.706 29.4184 535.623 28.9852 534.145 28.6284L531.775 28.0168C530.22 27.6345 528.946 26.9847 527.952 26.0673C526.958 25.1498 526.461 23.9648 526.461 22.5122C526.461 21.3909 526.793 20.4098 527.455 19.5688C528.143 18.7024 529.048 18.0398 530.169 17.581C531.291 17.1223 532.501 16.893 533.801 16.893C535.508 16.893 537.024 17.2625 538.35 18.0015C539.7 18.7406 540.656 19.7727 541.217 21.0979L538.388 22.3976C537.521 20.6646 535.98 19.7982 533.763 19.7982C532.692 19.7982 531.749 20.053 530.934 20.5627C530.144 21.0469 529.749 21.6713 529.749 22.4358C529.749 23.1493 530.029 23.7355 530.59 24.1942C531.15 24.6274 531.991 24.9842 533.113 25.2645L535.941 25.9908C537.853 26.475 539.293 27.2013 540.261 28.1697C541.229 29.1126 541.714 30.2722 541.714 31.6483C541.714 32.8461 541.37 33.9036 540.681 34.8211C539.993 35.713 539.063 36.4011 537.891 36.8853C536.719 37.3695 535.419 37.6116 533.992 37.6116Z" fill="#202124"/>
<path d="M93.5021 53.7815H95.9767L104.519 67.3439H104.614L104.519 64.0604V53.7815H106.541V70.8178H104.447L95.5008 56.613H95.4056L95.5008 59.8965V70.8178H93.5021V53.7815ZM113.474 71.1985C112.585 71.1985 111.792 71.024 111.094 70.675C110.396 70.3261 109.857 69.8502 109.476 69.2474C109.096 68.6288 108.905 67.9308 108.905 67.1536C108.905 65.8687 109.389 64.8694 110.357 64.1556C111.324 63.4259 112.546 63.0611 114.021 63.0611C114.751 63.0611 115.425 63.1404 116.043 63.299C116.678 63.4576 117.162 63.64 117.495 63.8463V63.1087C117.495 62.2045 117.177 61.4828 116.543 60.9434C115.908 60.3882 115.107 60.1106 114.14 60.1106C113.458 60.1106 112.831 60.2613 112.26 60.5627C111.689 60.8483 111.237 61.2527 110.904 61.7762L109.381 60.6341C109.857 59.9044 110.507 59.3334 111.332 58.921C112.173 58.5085 113.101 58.3023 114.116 58.3023C115.766 58.3023 117.059 58.7385 117.994 59.611C118.946 60.4676 119.422 61.6414 119.422 63.1324V70.8178H117.495V69.0809H117.4C117.051 69.6678 116.527 70.1674 115.829 70.5799C115.131 70.9923 114.346 71.1985 113.474 71.1985ZM113.664 69.414C114.346 69.414 114.981 69.2395 115.567 68.8905C116.154 68.5415 116.622 68.0736 116.971 67.4867C117.32 66.8998 117.495 66.2574 117.495 65.5594C117.114 65.3056 116.646 65.0994 116.091 64.9408C115.536 64.7821 114.949 64.7028 114.33 64.7028C113.22 64.7028 112.379 64.9328 111.808 65.3928C111.253 65.8529 110.975 66.4477 110.975 67.1774C110.975 67.8436 111.229 68.3829 111.737 68.7953C112.244 69.2078 112.887 69.414 113.664 69.414ZM127.449 76.3379C126.022 76.3379 124.84 76.0048 123.904 75.3386C122.984 74.6724 122.365 73.8713 122.048 72.9354L123.88 72.1503C124.15 72.8482 124.594 73.4113 125.213 73.8396C125.847 74.2838 126.593 74.5058 127.449 74.5058C128.702 74.5058 129.67 74.141 130.352 73.4113C131.05 72.6816 131.399 71.6506 131.399 70.3181V68.9619H131.304C130.907 69.5805 130.344 70.0881 129.614 70.4847C128.901 70.8654 128.084 71.0557 127.164 71.0557C126.117 71.0557 125.157 70.7861 124.285 70.2468C123.428 69.7074 122.746 68.954 122.238 67.9864C121.731 67.0188 121.477 65.9163 121.477 64.679C121.477 63.4576 121.731 62.3631 122.238 61.3955C122.746 60.412 123.428 59.6506 124.285 59.1113C125.157 58.572 126.117 58.3023 127.164 58.3023C128.084 58.3023 128.901 58.5006 129.614 58.8972C130.344 59.2779 130.907 59.7855 131.304 60.42H131.399V58.683H133.326V70.3419C133.326 72.293 132.787 73.7762 131.708 74.7914C130.63 75.8224 129.21 76.3379 127.449 76.3379ZM127.449 69.2236C128.179 69.2236 128.837 69.0412 129.424 68.6764C130.027 68.3115 130.503 67.7881 130.852 67.106C131.217 66.4239 131.399 65.6149 131.399 64.679C131.399 63.7273 131.217 62.9104 130.852 62.2283C130.503 61.5462 130.027 61.0307 129.424 60.6817C128.837 60.3169 128.179 60.1344 127.449 60.1344C126.72 60.1344 126.053 60.3169 125.451 60.6817C124.848 61.0465 124.364 61.57 123.999 62.2521C123.65 62.9342 123.476 63.7432 123.476 64.679C123.476 65.6149 123.65 66.4318 123.999 67.1298C124.364 67.8119 124.848 68.3353 125.451 68.7002C126.053 69.0491 126.72 69.2236 127.449 69.2236ZM136.221 58.683H138.149V60.4913H138.244C138.609 59.8727 139.156 59.3572 139.886 58.9448C140.631 58.5165 141.464 58.3023 142.384 58.3023C143.463 58.3023 144.446 58.5799 145.334 59.1351C146.223 59.6903 146.921 60.4596 147.428 61.4431C147.936 62.4266 148.19 63.529 148.19 64.7504C148.19 65.9877 147.936 67.0981 147.428 68.0815C146.921 69.0491 146.223 69.8105 145.334 70.3657C144.446 70.9209 143.463 71.1985 142.384 71.1985C141.464 71.1985 140.631 70.9923 139.886 70.5799C139.156 70.1516 138.609 69.6361 138.244 69.0333H138.149L138.244 70.6988V75.9572H136.221V58.683ZM142.146 69.3664C142.844 69.3664 143.502 69.176 144.121 68.7953C144.74 68.4146 145.231 67.8753 145.596 67.1774C145.977 66.4636 146.167 65.6546 146.167 64.7504C146.167 63.8463 145.977 63.0452 145.596 62.3473C145.231 61.6334 144.74 61.0862 144.121 60.7055C143.502 60.3248 142.844 60.1344 142.146 60.1344C141.448 60.1344 140.79 60.3248 140.171 60.7055C139.553 61.0862 139.061 61.6255 138.696 62.3235C138.331 63.0214 138.149 63.8304 138.149 64.7504C138.149 65.6704 138.331 66.4794 138.696 67.1774C139.061 67.8753 139.553 68.4146 140.171 68.7953C140.79 69.176 141.448 69.3664 142.146 69.3664ZM154.823 71.1985C153.363 71.1985 152.245 70.7702 151.468 69.9136C150.706 69.0571 150.326 67.8595 150.326 66.3208V58.683H152.348V66.0115C152.348 67.1694 152.61 68.0181 153.133 68.5574C153.657 69.0967 154.363 69.3664 155.251 69.3664C155.933 69.3664 156.536 69.184 157.059 68.8191C157.599 68.4543 158.011 67.9784 158.297 67.3915C158.598 66.8046 158.749 66.186 158.749 65.5356V58.683H160.771V70.8178H158.844V69.0571H158.749C158.416 69.6599 157.884 70.1674 157.155 70.5799C156.425 70.9923 155.648 71.1985 154.823 71.1985ZM163.758 58.683H165.686V60.6341H165.781C166.019 59.9679 166.479 59.4206 167.161 58.9923C167.843 58.5482 168.557 58.3261 169.302 58.3261C169.858 58.3261 170.333 58.4054 170.73 58.5641V60.7531C170.222 60.4993 169.651 60.3724 169.017 60.3724C168.43 60.3724 167.891 60.5389 167.399 60.872C166.907 61.2052 166.511 61.6572 166.209 62.2283C165.924 62.7835 165.781 63.3862 165.781 64.0366V70.8178H163.758V58.683Z" fill="#202124"/>
<path d="M17.9656 24.9563L30.2133 17.851C30.9066 17.459 31.5153 16.9334 32.0044 16.3048C32.4935 15.6762 32.8532 14.9569 33.0627 14.1885C33.2723 13.42 33.3276 12.6177 33.2253 11.8278C33.1231 11.0379 32.8655 10.2761 32.4672 9.58637C32.069 8.89661 31.538 8.29256 30.905 7.80912C30.272 7.32569 29.5496 6.97243 28.7793 6.76974C28.0091 6.56705 27.2063 6.51895 26.4173 6.62821C25.6284 6.73748 24.8689 7.00194 24.1827 7.40634L3.00909 19.6629L17.9656 24.9563Z" fill="#F05B44"/>
<path d="M27.1887 43.1369C28.5165 43.1378 29.8075 42.7004 30.8613 41.8926C31.9152 41.0848 32.673 39.9518 33.0171 38.6694C33.3613 37.3869 33.2725 36.0267 32.7647 34.7998C32.2568 33.573 31.3583 32.548 30.2084 31.884L8.99925 19.663C7.61517 18.8802 5.97796 18.6758 4.4439 19.0941C2.90984 19.5125 1.6031 20.5198 0.808026 21.8968C0.0129541 23.2739 -0.20609 24.9092 0.198558 26.4469C0.603205 27.9847 1.5988 29.3003 2.96868 30.1077L24.1423 42.3287C25.0673 42.8654 26.1192 43.1445 27.1887 43.1369Z" fill="#5199F6"/>
<path d="M48.2611 43.1367C49.3158 43.139 50.352 42.86 51.263 42.3285L72.4367 30.1075L57.6844 24.6986L45.2502 31.8838C44.1003 32.5478 43.2018 33.5728 42.6939 34.7997C42.1861 36.0265 42.0973 37.3867 42.4415 38.6692C42.7856 39.9516 43.5434 41.0847 44.5973 41.8924C45.6511 42.7002 46.9421 43.1376 48.27 43.1367H48.2611Z" fill="#FCC500"/>
<path d="M69.3931 30.916C70.7209 30.9168 72.0119 30.4794 73.0657 29.6717C74.1196 28.8639 74.8774 27.7308 75.2215 26.4484C75.5657 25.1659 75.4769 23.8057 74.9691 22.5789C74.4612 21.352 73.5627 20.3271 72.4128 19.663L51.2569 7.40648C50.5717 7.01109 49.8153 6.75454 49.0309 6.65147C48.2465 6.54841 47.4496 6.60083 46.6854 6.80578C45.9213 7.01073 45.2051 7.36417 44.5776 7.84592C43.95 8.32768 43.4236 8.92832 43.0282 9.61355C42.6328 10.2988 42.3762 11.0552 42.2731 11.8395C42.1701 12.6239 42.2225 13.4209 42.4275 14.185C42.6324 14.9491 42.9858 15.6654 43.4676 16.2929C43.9494 16.9204 44.55 17.4469 45.2352 17.8423L66.4089 30.0722C67.3129 30.6092 68.3417 30.9001 69.3931 30.916Z" fill="#089D57"/>
</svg>
