<svg width="20" height="18" viewBox="0 0 20 18" fill="none" xmlns="http://www.w3.org/2000/svg">
<path d="M9 18C9 17.6022 8.84196 17.2206 8.56066 16.9393C8.27936 16.658 7.89782 16.5 7.5 16.5C7.10218 16.5 6.72064 16.658 6.43934 16.9393C6.15804 17.2206 6 17.6022 6 18H1C0.734784 18 0.48043 17.8946 0.292893 17.7071C0.105357 17.5196 0 17.2652 0 17V1C0 0.734784 0.105357 0.48043 0.292893 0.292893C0.48043 0.105357 0.734784 0 1 0H6C6 0.397825 6.15804 0.779356 6.43934 1.06066C6.72064 1.34196 7.10218 1.5 7.5 1.5C7.89782 1.5 8.27936 1.34196 8.56066 1.06066C8.84196 0.779356 9 0.397825 9 0H19C19.2652 0 19.5196 0.105357 19.7071 0.292893C19.8946 0.48043 20 0.734784 20 1V6.5C19.337 6.5 18.7011 6.76339 18.2322 7.23223C17.7634 7.70107 17.5 8.33696 17.5 9C17.5 9.66304 17.7634 10.2989 18.2322 10.7678C18.7011 11.2366 19.337 11.5 20 11.5V17C20 17.2652 19.8946 17.5196 19.7071 17.7071C19.5196 17.8946 19.2652 18 19 18H9ZM7.5 7.5C7.89782 7.5 8.27936 7.34196 8.56066 7.06066C8.84196 6.77936 9 6.39782 9 6C9 5.60218 8.84196 5.22064 8.56066 4.93934C8.27936 4.65804 7.89782 4.5 7.5 4.5C7.10218 4.5 6.72064 4.65804 6.43934 4.93934C6.15804 5.22064 6 5.60218 6 6C6 6.39782 6.15804 6.77936 6.43934 7.06066C6.72064 7.34196 7.10218 7.5 7.5 7.5ZM7.5 13.5C7.89782 13.5 8.27936 13.342 8.56066 13.0607C8.84196 12.7794 9 12.3978 9 12C9 11.6022 8.84196 11.2206 8.56066 10.9393C8.27936 10.658 7.89782 10.5 7.5 10.5C7.10218 10.5 6.72064 10.658 6.43934 10.9393C6.15804 11.2206 6 11.6022 6 12C6 12.3978 6.15804 12.7794 6.43934 13.0607C6.72064 13.342 7.10218 13.5 7.5 13.5Z" fill="white"/>
</svg>
