<svg width="203" height="81" viewBox="0 0 203 81" fill="none" xmlns="http://www.w3.org/2000/svg">
<mask id="mask0_623_14234" style="mask-type:alpha" maskUnits="userSpaceOnUse" x="166" y="24" width="34" height="36">
<path d="M199.586 36.6898V46.2481H166.578V36.6898H199.586ZM188.341 24.1217V59.18H177.922V24.1217H188.341Z" fill="white"/>
</mask>
<g mask="url(#mask0_623_14234)">
<rect x="141.402" y="-2.62109" width="43.3471" height="43.3471" fill="#DB4437"/>
<rect x="141.402" y="40.7246" width="43.3471" height="43.3471" fill="#0F9D56"/>
<rect x="184.746" y="-2.62109" width="43.3471" height="43.3471" fill="#F4B400"/>
<rect x="184.746" y="40.7246" width="43.3471" height="43.3471" fill="#4285F4"/>
<circle cx="166.599" cy="25.9062" r="0.403229" fill="#D9D9D9"/>
<circle cx="169.626" cy="25.9062" r="0.403229" fill="#D9D9D9"/>
<circle cx="172.653" cy="25.9062" r="0.403229" fill="#D9D9D9"/>
<circle cx="175.673" cy="25.9062" r="0.403229" fill="#D9D9D9"/>
<circle cx="178.7" cy="25.9062" r="0.403229" fill="#D9D9D9"/>
<circle cx="181.724" cy="25.9062" r="0.403229" fill="#D9D9D9"/>
<circle cx="184.747" cy="25.9062" r="0.403229" fill="#D9D9D9"/>
<circle cx="187.77" cy="25.9062" r="0.403229" fill="#D9D9D9"/>
<circle cx="190.798" cy="25.9062" r="0.403229" fill="#D9D9D9"/>
<circle cx="193.817" cy="25.9062" r="0.403229" fill="#D9D9D9"/>
<circle cx="196.845" cy="25.9062" r="0.403229" fill="#D9D9D9"/>
<circle cx="199.872" cy="25.9062" r="0.403229" fill="#D9D9D9"/>
<circle cx="166.599" cy="28.9325" r="0.403229" fill="#D9D9D9"/>
<circle cx="169.626" cy="28.9325" r="0.403229" fill="#D9D9D9"/>
<circle cx="172.653" cy="28.9325" r="0.403229" fill="#D9D9D9"/>
<circle cx="175.673" cy="28.9325" r="0.403229" fill="#D9D9D9"/>
<circle cx="178.7" cy="28.9325" r="0.403229" fill="#D9D9D9"/>
<circle cx="181.724" cy="28.9325" r="0.403229" fill="#D9D9D9"/>
<circle cx="184.747" cy="28.9325" r="0.403229" fill="#D9D9D9"/>
<circle cx="187.77" cy="28.9325" r="0.403229" fill="#D9D9D9"/>
<circle cx="190.798" cy="28.9325" r="0.403229" fill="#D9D9D9"/>
<circle cx="193.817" cy="28.9325" r="0.403229" fill="#D9D9D9"/>
<circle cx="196.845" cy="28.9325" r="0.403229" fill="#D9D9D9"/>
<circle cx="199.872" cy="28.9325" r="0.403229" fill="#D9D9D9"/>
<circle cx="166.599" cy="31.954" r="0.403229" fill="#D9D9D9"/>
<circle cx="169.626" cy="31.954" r="0.403229" fill="#D9D9D9"/>
<circle cx="172.653" cy="31.954" r="0.403229" fill="#D9D9D9"/>
<circle cx="175.673" cy="31.954" r="0.403229" fill="#D9D9D9"/>
<circle cx="178.7" cy="31.954" r="0.403229" fill="#D9D9D9"/>
<circle cx="181.724" cy="31.954" r="0.403229" fill="#D9D9D9"/>
<circle cx="184.747" cy="31.954" r="0.403229" fill="#D9D9D9"/>
<circle cx="187.77" cy="31.954" r="0.403229" fill="#D9D9D9"/>
<circle cx="190.798" cy="31.954" r="0.403229" fill="#D9D9D9"/>
<circle cx="193.817" cy="31.954" r="0.403229" fill="#D9D9D9"/>
<circle cx="196.845" cy="31.954" r="0.403229" fill="#D9D9D9"/>
<circle cx="199.872" cy="31.954" r="0.403229" fill="#D9D9D9"/>
<circle cx="166.599" cy="34.9784" r="0.403229" fill="#D9D9D9"/>
<circle cx="169.626" cy="34.9784" r="0.403229" fill="#D9D9D9"/>
<circle cx="172.653" cy="34.9784" r="0.403229" fill="#D9D9D9"/>
<circle cx="175.673" cy="34.9784" r="0.403229" fill="#D9D9D9"/>
<circle cx="178.7" cy="34.9784" r="0.403229" fill="#D9D9D9"/>
<circle cx="181.724" cy="34.9784" r="0.403229" fill="#D9D9D9"/>
<circle cx="184.747" cy="34.9784" r="0.403229" fill="#D9D9D9"/>
<circle cx="187.77" cy="34.9784" r="0.403229" fill="#D9D9D9"/>
<circle cx="190.798" cy="34.9784" r="0.403229" fill="#D9D9D9"/>
<circle cx="193.817" cy="34.9784" r="0.403229" fill="#D9D9D9"/>
<circle cx="196.845" cy="34.9784" r="0.403229" fill="#D9D9D9"/>
<circle cx="199.872" cy="34.9784" r="0.403229" fill="#D9D9D9"/>
<circle cx="166.599" cy="38.0028" r="0.403229" fill="#D9D9D9"/>
<circle cx="169.626" cy="38.0028" r="0.403229" fill="#D9D9D9"/>
<circle cx="172.653" cy="38.0028" r="0.403229" fill="#D9D9D9"/>
<circle cx="175.673" cy="38.0028" r="0.403229" fill="#D9D9D9"/>
<circle cx="178.7" cy="38.0028" r="0.403229" fill="#D9D9D9"/>
<circle cx="181.724" cy="38.0028" r="0.403229" fill="#D9D9D9"/>
<circle cx="184.747" cy="38.0028" r="0.403229" fill="#D9D9D9"/>
<circle cx="187.77" cy="38.0028" r="0.403229" fill="#D9D9D9"/>
<circle cx="190.798" cy="38.0028" r="0.403229" fill="#D9D9D9"/>
<circle cx="193.817" cy="38.0028" r="0.403229" fill="#D9D9D9"/>
<circle cx="196.845" cy="38.0028" r="0.403229" fill="#D9D9D9"/>
<circle cx="199.872" cy="38.0028" r="0.403229" fill="#D9D9D9"/>
<circle cx="166.599" cy="41.0263" r="0.403229" fill="#D9D9D9"/>
<circle cx="169.626" cy="41.0263" r="0.403229" fill="#D9D9D9"/>
<circle cx="172.653" cy="41.0263" r="0.403229" fill="#D9D9D9"/>
<circle cx="175.673" cy="41.0263" r="0.403229" fill="#D9D9D9"/>
<circle cx="178.7" cy="41.0263" r="0.403229" fill="#D9D9D9"/>
<circle cx="181.724" cy="41.0263" r="0.403229" fill="#D9D9D9"/>
<circle cx="184.747" cy="41.0263" r="0.403229" fill="#D9D9D9"/>
<circle cx="187.77" cy="41.0263" r="0.403229" fill="#D9D9D9"/>
<circle cx="190.798" cy="41.0263" r="0.403229" fill="#D9D9D9"/>
<circle cx="193.817" cy="41.0263" r="0.403229" fill="#D9D9D9"/>
<circle cx="196.845" cy="41.0263" r="0.403229" fill="#D9D9D9"/>
<circle cx="199.872" cy="41.0263" r="0.403229" fill="#D9D9D9"/>
<circle cx="166.599" cy="44.0507" r="0.403229" fill="#D9D9D9"/>
<circle cx="169.626" cy="44.0507" r="0.403229" fill="#D9D9D9"/>
<circle cx="172.653" cy="44.0507" r="0.403229" fill="#D9D9D9"/>
<circle cx="175.673" cy="44.0507" r="0.403229" fill="#D9D9D9"/>
<circle cx="178.7" cy="44.0507" r="0.403229" fill="#D9D9D9"/>
<circle cx="181.724" cy="44.0507" r="0.403229" fill="#D9D9D9"/>
<circle cx="184.747" cy="44.0507" r="0.403229" fill="#D9D9D9"/>
<circle cx="187.77" cy="44.0507" r="0.403229" fill="#D9D9D9"/>
<circle cx="190.798" cy="44.0507" r="0.403229" fill="#D9D9D9"/>
<circle cx="193.817" cy="44.0507" r="0.403229" fill="#D9D9D9"/>
<circle cx="196.845" cy="44.0507" r="0.403229" fill="#D9D9D9"/>
<circle cx="199.872" cy="44.0507" r="0.403229" fill="#D9D9D9"/>
<circle cx="166.599" cy="47.0751" r="0.403229" fill="#D9D9D9"/>
<circle cx="169.626" cy="47.0751" r="0.403229" fill="#D9D9D9"/>
<circle cx="172.653" cy="47.0751" r="0.403229" fill="#D9D9D9"/>
<circle cx="175.673" cy="47.0751" r="0.403229" fill="#D9D9D9"/>
<circle cx="178.7" cy="47.0751" r="0.403229" fill="#D9D9D9"/>
<circle cx="181.724" cy="47.0751" r="0.403229" fill="#D9D9D9"/>
<circle cx="184.747" cy="47.0751" r="0.403229" fill="#D9D9D9"/>
<circle cx="187.77" cy="47.0751" r="0.403229" fill="#D9D9D9"/>
<circle cx="190.798" cy="47.0751" r="0.403229" fill="#D9D9D9"/>
<circle cx="193.817" cy="47.0751" r="0.403229" fill="#D9D9D9"/>
<circle cx="196.845" cy="47.0751" r="0.403229" fill="#D9D9D9"/>
<circle cx="199.872" cy="47.0751" r="0.403229" fill="#D9D9D9"/>
<circle cx="166.599" cy="50.0985" r="0.403229" fill="#D9D9D9"/>
<circle cx="169.626" cy="50.0985" r="0.403229" fill="#D9D9D9"/>
<circle cx="172.653" cy="50.0985" r="0.403229" fill="#D9D9D9"/>
<circle cx="175.673" cy="50.0985" r="0.403229" fill="#D9D9D9"/>
<circle cx="178.7" cy="50.0985" r="0.403229" fill="#D9D9D9"/>
<circle cx="181.724" cy="50.0985" r="0.403229" fill="#D9D9D9"/>
<circle cx="184.747" cy="50.0985" r="0.403229" fill="#D9D9D9"/>
<circle cx="187.77" cy="50.0985" r="0.403229" fill="#D9D9D9"/>
<circle cx="190.798" cy="50.0985" r="0.403229" fill="#D9D9D9"/>
<circle cx="193.817" cy="50.0985" r="0.403229" fill="#D9D9D9"/>
<circle cx="196.845" cy="50.0985" r="0.403229" fill="#D9D9D9"/>
<circle cx="199.872" cy="50.0985" r="0.403229" fill="#D9D9D9"/>
<circle cx="166.599" cy="53.1249" r="0.403229" fill="#D9D9D9"/>
<circle cx="169.626" cy="53.1249" r="0.403229" fill="#D9D9D9"/>
<circle cx="172.653" cy="53.1249" r="0.403229" fill="#D9D9D9"/>
<circle cx="175.673" cy="53.1249" r="0.403229" fill="#D9D9D9"/>
<circle cx="178.7" cy="53.1249" r="0.403229" fill="#D9D9D9"/>
<circle cx="181.724" cy="53.1249" r="0.403229" fill="#D9D9D9"/>
<circle cx="184.747" cy="53.1249" r="0.403229" fill="#D9D9D9"/>
<circle cx="187.77" cy="53.1249" r="0.403229" fill="#D9D9D9"/>
<circle cx="190.798" cy="53.1249" r="0.403229" fill="#D9D9D9"/>
<circle cx="193.817" cy="53.1249" r="0.403229" fill="#D9D9D9"/>
<circle cx="196.845" cy="53.1249" r="0.403229" fill="#D9D9D9"/>
<circle cx="199.872" cy="53.1249" r="0.403229" fill="#D9D9D9"/>
<circle cx="166.599" cy="56.1493" r="0.403229" fill="#D9D9D9"/>
<circle cx="169.626" cy="56.1493" r="0.403229" fill="#D9D9D9"/>
<circle cx="172.653" cy="56.1493" r="0.403229" fill="#D9D9D9"/>
<circle cx="175.673" cy="56.1493" r="0.403229" fill="#D9D9D9"/>
<circle cx="178.7" cy="56.1493" r="0.403229" fill="#D9D9D9"/>
<circle cx="181.724" cy="56.1493" r="0.403229" fill="#D9D9D9"/>
<circle cx="184.747" cy="56.1493" r="0.403229" fill="#D9D9D9"/>
<circle cx="187.77" cy="56.1493" r="0.403229" fill="#D9D9D9"/>
<circle cx="190.798" cy="56.1493" r="0.403229" fill="#D9D9D9"/>
<circle cx="193.817" cy="56.1493" r="0.403229" fill="#D9D9D9"/>
<circle cx="196.845" cy="56.1493" r="0.403229" fill="#D9D9D9"/>
<circle cx="199.872" cy="56.1493" r="0.403229" fill="#D9D9D9"/>
<circle cx="166.599" cy="59.1737" r="0.403229" fill="#D9D9D9"/>
<circle cx="169.626" cy="59.1737" r="0.403229" fill="#D9D9D9"/>
<circle cx="172.653" cy="59.1737" r="0.403229" fill="#D9D9D9"/>
<circle cx="175.673" cy="59.1737" r="0.403229" fill="#D9D9D9"/>
<circle cx="178.7" cy="59.1737" r="0.403229" fill="#D9D9D9"/>
<circle cx="181.724" cy="59.1737" r="0.403229" fill="#D9D9D9"/>
<circle cx="184.747" cy="59.1737" r="0.403229" fill="#D9D9D9"/>
<circle cx="187.77" cy="59.1737" r="0.403229" fill="#D9D9D9"/>
<circle cx="190.798" cy="59.1737" r="0.403229" fill="#D9D9D9"/>
<circle cx="193.817" cy="59.1737" r="0.403229" fill="#D9D9D9"/>
<circle cx="196.845" cy="59.1737" r="0.403229" fill="#D9D9D9"/>
<circle cx="199.872" cy="59.1737" r="0.403229" fill="#D9D9D9"/>
</g>
<path d="M198.476 35.681H199.081V35.0762H198.476V35.681ZM198.476 45.2393V45.8442H199.081V45.2393H198.476ZM165.469 45.2393H164.864V45.8442H165.469V45.2393ZM165.469 35.681V35.0762H164.864V35.681H165.469ZM187.231 23.1129H187.836V22.5081H187.231V23.1129ZM187.231 58.1712V58.7761H187.836V58.1712H187.231ZM176.813 58.1712H176.208V58.7761H176.813V58.1712ZM176.813 23.1129V22.5081H176.208V23.1129H176.813ZM197.872 35.681V45.2393H199.081V35.681H197.872ZM198.476 44.6345H165.469V45.8442H198.476V44.6345ZM166.074 45.2393V35.681H164.864V45.2393H166.074ZM165.469 36.2858H198.476V35.0762H165.469V36.2858ZM186.627 23.1129V58.1712H187.836V23.1129H186.627ZM187.231 57.5664H176.813V58.7761H187.231V57.5664ZM177.418 58.1712V23.1129H176.208V58.1712H177.418ZM176.813 23.7178H187.231V22.5081H176.813V23.7178Z" fill="#202124"/>
<mask id="mask1_623_14234" style="mask-type:alpha" maskUnits="userSpaceOnUse" x="6" y="16" width="23" height="49">
<path d="M28.7591 16.5876V64.7432H17.6132V29.1557L6.63271 32.3639V23.897L27.7338 16.5876H28.7591Z" fill="white"/>
</mask>
<g mask="url(#mask1_623_14234)">
<rect x="-21.1133" y="-2.20703" width="43.3471" height="43.3471" fill="#DB4437"/>
<rect x="-21.1133" y="41.1387" width="43.3471" height="43.3471" fill="#0F9D56"/>
<rect x="22.2344" y="-2.20703" width="43.3471" height="43.3471" fill="#F4B400"/>
<rect x="22.2344" y="41.1387" width="43.3471" height="43.3471" fill="#4285F4"/>
<circle cx="7.11026" cy="17.248" r="0.403229" fill="#D9D9D9"/>
<circle cx="10.1376" cy="17.248" r="0.403229" fill="#D9D9D9"/>
<circle cx="13.1571" cy="17.248" r="0.403229" fill="#D9D9D9"/>
<circle cx="16.1845" cy="17.248" r="0.403229" fill="#D9D9D9"/>
<circle cx="19.2079" cy="17.248" r="0.403229" fill="#D9D9D9"/>
<circle cx="22.2314" cy="17.248" r="0.403229" fill="#D9D9D9"/>
<circle cx="25.2548" cy="17.248" r="0.403229" fill="#D9D9D9"/>
<circle cx="28.2821" cy="17.248" r="0.403229" fill="#D9D9D9"/>
<circle cx="7.11026" cy="20.2714" r="0.403229" fill="#D9D9D9"/>
<circle cx="10.1376" cy="20.2714" r="0.403229" fill="#D9D9D9"/>
<circle cx="13.1571" cy="20.2714" r="0.403229" fill="#D9D9D9"/>
<circle cx="16.1845" cy="20.2714" r="0.403229" fill="#D9D9D9"/>
<circle cx="19.2079" cy="20.2714" r="0.403229" fill="#D9D9D9"/>
<circle cx="22.2314" cy="20.2714" r="0.403229" fill="#D9D9D9"/>
<circle cx="25.2548" cy="20.2714" r="0.403229" fill="#D9D9D9"/>
<circle cx="28.2821" cy="20.2714" r="0.403229" fill="#D9D9D9"/>
<circle cx="7.11026" cy="23.2958" r="0.403229" fill="#D9D9D9"/>
<circle cx="10.1376" cy="23.2958" r="0.403229" fill="#D9D9D9"/>
<circle cx="13.1571" cy="23.2958" r="0.403229" fill="#D9D9D9"/>
<circle cx="16.1845" cy="23.2958" r="0.403229" fill="#D9D9D9"/>
<circle cx="19.2079" cy="23.2958" r="0.403229" fill="#D9D9D9"/>
<circle cx="22.2314" cy="23.2958" r="0.403229" fill="#D9D9D9"/>
<circle cx="25.2548" cy="23.2958" r="0.403229" fill="#D9D9D9"/>
<circle cx="28.2821" cy="23.2958" r="0.403229" fill="#D9D9D9"/>
<circle cx="7.11026" cy="26.3202" r="0.403229" fill="#D9D9D9"/>
<circle cx="10.1376" cy="26.3202" r="0.403229" fill="#D9D9D9"/>
<circle cx="13.1571" cy="26.3202" r="0.403229" fill="#D9D9D9"/>
<circle cx="16.1845" cy="26.3202" r="0.403229" fill="#D9D9D9"/>
<circle cx="19.2079" cy="26.3202" r="0.403229" fill="#D9D9D9"/>
<circle cx="22.2314" cy="26.3202" r="0.403229" fill="#D9D9D9"/>
<circle cx="25.2548" cy="26.3202" r="0.403229" fill="#D9D9D9"/>
<circle cx="28.2821" cy="26.3202" r="0.403229" fill="#D9D9D9"/>
<circle cx="7.11026" cy="29.3466" r="0.403229" fill="#D9D9D9"/>
<circle cx="10.1376" cy="29.3466" r="0.403229" fill="#D9D9D9"/>
<circle cx="13.1571" cy="29.3466" r="0.403229" fill="#D9D9D9"/>
<circle cx="16.1845" cy="29.3466" r="0.403229" fill="#D9D9D9"/>
<circle cx="19.2079" cy="29.3466" r="0.403229" fill="#D9D9D9"/>
<circle cx="22.2314" cy="29.3466" r="0.403229" fill="#D9D9D9"/>
<circle cx="25.2548" cy="29.3466" r="0.403229" fill="#D9D9D9"/>
<circle cx="28.2821" cy="29.3466" r="0.403229" fill="#D9D9D9"/>
<circle cx="7.11026" cy="32.369" r="0.403229" fill="#D9D9D9"/>
<circle cx="10.1376" cy="32.369" r="0.403229" fill="#D9D9D9"/>
<circle cx="13.1571" cy="32.369" r="0.403229" fill="#D9D9D9"/>
<circle cx="16.1845" cy="32.369" r="0.403229" fill="#D9D9D9"/>
<circle cx="19.2079" cy="32.369" r="0.403229" fill="#D9D9D9"/>
<circle cx="22.2314" cy="32.369" r="0.403229" fill="#D9D9D9"/>
<circle cx="25.2548" cy="32.369" r="0.403229" fill="#D9D9D9"/>
<circle cx="28.2821" cy="32.369" r="0.403229" fill="#D9D9D9"/>
<circle cx="7.11026" cy="35.3925" r="0.403229" fill="#D9D9D9"/>
<circle cx="10.1376" cy="35.3925" r="0.403229" fill="#D9D9D9"/>
<circle cx="13.1571" cy="35.3925" r="0.403229" fill="#D9D9D9"/>
<circle cx="16.1845" cy="35.3925" r="0.403229" fill="#D9D9D9"/>
<circle cx="19.2079" cy="35.3925" r="0.403229" fill="#D9D9D9"/>
<circle cx="22.2314" cy="35.3925" r="0.403229" fill="#D9D9D9"/>
<circle cx="25.2548" cy="35.3925" r="0.403229" fill="#D9D9D9"/>
<circle cx="28.2821" cy="35.3925" r="0.403229" fill="#D9D9D9"/>
<circle cx="7.11026" cy="38.4169" r="0.403229" fill="#D9D9D9"/>
<circle cx="10.1376" cy="38.4169" r="0.403229" fill="#D9D9D9"/>
<circle cx="13.1571" cy="38.4169" r="0.403229" fill="#D9D9D9"/>
<circle cx="16.1845" cy="38.4169" r="0.403229" fill="#D9D9D9"/>
<circle cx="19.2079" cy="38.4169" r="0.403229" fill="#D9D9D9"/>
<circle cx="22.2314" cy="38.4169" r="0.403229" fill="#D9D9D9"/>
<circle cx="25.2548" cy="38.4169" r="0.403229" fill="#D9D9D9"/>
<circle cx="28.2821" cy="38.4169" r="0.403229" fill="#D9D9D9"/>
<circle cx="7.11026" cy="41.4413" r="0.403229" fill="#D9D9D9"/>
<circle cx="10.1376" cy="41.4413" r="0.403229" fill="#D9D9D9"/>
<circle cx="13.1571" cy="41.4413" r="0.403229" fill="#D9D9D9"/>
<circle cx="16.1845" cy="41.4413" r="0.403229" fill="#D9D9D9"/>
<circle cx="19.2079" cy="41.4413" r="0.403229" fill="#D9D9D9"/>
<circle cx="22.2314" cy="41.4413" r="0.403229" fill="#D9D9D9"/>
<circle cx="25.2548" cy="41.4413" r="0.403229" fill="#D9D9D9"/>
<circle cx="28.2821" cy="41.4413" r="0.403229" fill="#D9D9D9"/>
<circle cx="7.11026" cy="44.4648" r="0.403229" fill="#D9D9D9"/>
<circle cx="10.1376" cy="44.4648" r="0.403229" fill="#D9D9D9"/>
<circle cx="13.1571" cy="44.4648" r="0.403229" fill="#D9D9D9"/>
<circle cx="16.1845" cy="44.4648" r="0.403229" fill="#D9D9D9"/>
<circle cx="19.2079" cy="44.4648" r="0.403229" fill="#D9D9D9"/>
<circle cx="22.2314" cy="44.4648" r="0.403229" fill="#D9D9D9"/>
<circle cx="25.2548" cy="44.4648" r="0.403229" fill="#D9D9D9"/>
<circle cx="28.2821" cy="44.4648" r="0.403229" fill="#D9D9D9"/>
<circle cx="7.11026" cy="47.4911" r="0.403229" fill="#D9D9D9"/>
<circle cx="10.1376" cy="47.4911" r="0.403229" fill="#D9D9D9"/>
<circle cx="13.1571" cy="47.4911" r="0.403229" fill="#D9D9D9"/>
<circle cx="16.1845" cy="47.4911" r="0.403229" fill="#D9D9D9"/>
<circle cx="19.2079" cy="47.4911" r="0.403229" fill="#D9D9D9"/>
<circle cx="22.2314" cy="47.4911" r="0.403229" fill="#D9D9D9"/>
<circle cx="25.2548" cy="47.4911" r="0.403229" fill="#D9D9D9"/>
<circle cx="28.2821" cy="47.4911" r="0.403229" fill="#D9D9D9"/>
<circle cx="7.11026" cy="50.5126" r="0.403229" fill="#D9D9D9"/>
<circle cx="10.1376" cy="50.5126" r="0.403229" fill="#D9D9D9"/>
<circle cx="13.1571" cy="50.5126" r="0.403229" fill="#D9D9D9"/>
<circle cx="16.1845" cy="50.5126" r="0.403229" fill="#D9D9D9"/>
<circle cx="19.2079" cy="50.5126" r="0.403229" fill="#D9D9D9"/>
<circle cx="22.2314" cy="50.5126" r="0.403229" fill="#D9D9D9"/>
<circle cx="25.2548" cy="50.5126" r="0.403229" fill="#D9D9D9"/>
<circle cx="28.2821" cy="50.5126" r="0.403229" fill="#D9D9D9"/>
<circle cx="7.11026" cy="53.5399" r="0.403229" fill="#D9D9D9"/>
<circle cx="10.1376" cy="53.5399" r="0.403229" fill="#D9D9D9"/>
<circle cx="13.1571" cy="53.5399" r="0.403229" fill="#D9D9D9"/>
<circle cx="16.1845" cy="53.5399" r="0.403229" fill="#D9D9D9"/>
<circle cx="19.2079" cy="53.5399" r="0.403229" fill="#D9D9D9"/>
<circle cx="22.2314" cy="53.5399" r="0.403229" fill="#D9D9D9"/>
<circle cx="25.2548" cy="53.5399" r="0.403229" fill="#D9D9D9"/>
<circle cx="28.2821" cy="53.5399" r="0.403229" fill="#D9D9D9"/>
<circle cx="7.11026" cy="56.5634" r="0.403229" fill="#D9D9D9"/>
<circle cx="10.1376" cy="56.5634" r="0.403229" fill="#D9D9D9"/>
<circle cx="13.1571" cy="56.5634" r="0.403229" fill="#D9D9D9"/>
<circle cx="16.1845" cy="56.5634" r="0.403229" fill="#D9D9D9"/>
<circle cx="19.2079" cy="56.5634" r="0.403229" fill="#D9D9D9"/>
<circle cx="22.2314" cy="56.5634" r="0.403229" fill="#D9D9D9"/>
<circle cx="25.2548" cy="56.5634" r="0.403229" fill="#D9D9D9"/>
<circle cx="28.2821" cy="56.5634" r="0.403229" fill="#D9D9D9"/>
<circle cx="7.11026" cy="59.5878" r="0.403229" fill="#D9D9D9"/>
<circle cx="10.1376" cy="59.5878" r="0.403229" fill="#D9D9D9"/>
<circle cx="13.1571" cy="59.5878" r="0.403229" fill="#D9D9D9"/>
<circle cx="16.1845" cy="59.5878" r="0.403229" fill="#D9D9D9"/>
<circle cx="19.2079" cy="59.5878" r="0.403229" fill="#D9D9D9"/>
<circle cx="22.2314" cy="59.5878" r="0.403229" fill="#D9D9D9"/>
<circle cx="25.2548" cy="59.5878" r="0.403229" fill="#D9D9D9"/>
<circle cx="28.2821" cy="59.5878" r="0.403229" fill="#D9D9D9"/>
<circle cx="7.11026" cy="62.6112" r="0.403229" fill="#D9D9D9"/>
<circle cx="10.1376" cy="62.6112" r="0.403229" fill="#D9D9D9"/>
<circle cx="13.1571" cy="62.6112" r="0.403229" fill="#D9D9D9"/>
<circle cx="16.1845" cy="62.6112" r="0.403229" fill="#D9D9D9"/>
<circle cx="19.2079" cy="62.6112" r="0.403229" fill="#D9D9D9"/>
<circle cx="22.2314" cy="62.6112" r="0.403229" fill="#D9D9D9"/>
<circle cx="25.2548" cy="62.6112" r="0.403229" fill="#D9D9D9"/>
<circle cx="28.2821" cy="62.6112" r="0.403229" fill="#D9D9D9"/>
</g>
<path d="M27.6497 15.5798H28.2546V14.975H27.6497V15.5798ZM27.6497 63.7354V64.3402H28.2546V63.7354H27.6497ZM16.5039 63.7354H15.899V64.3402H16.5039V63.7354ZM16.5039 28.1479H17.1087V27.341L16.3342 27.5673L16.5039 28.1479ZM5.52333 31.356H4.91849V32.1629L5.69296 31.9366L5.52333 31.356ZM5.52333 22.8891L5.32536 22.3176L4.91849 22.4586V22.8891H5.52333ZM26.6245 15.5798V14.975H26.5227L26.4265 15.0083L26.6245 15.5798ZM27.0449 15.5798V63.7354H28.2546V15.5798H27.0449ZM27.6497 63.1305H16.5039V64.3402H27.6497V63.1305ZM17.1087 63.7354V28.1479H15.899V63.7354H17.1087ZM16.3342 27.5673L5.35371 30.7755L5.69296 31.9366L16.6735 28.7285L16.3342 27.5673ZM6.12818 31.356V22.8891H4.91849V31.356H6.12818ZM5.72131 23.4607L26.8224 16.1513L26.4265 15.0083L5.32536 22.3176L5.72131 23.4607ZM26.6245 16.1847H27.6497V14.975H26.6245V16.1847Z" fill="#202124"/>
<mask id="mask2_623_14234" style="mask-type:alpha" maskUnits="userSpaceOnUse" x="43" y="15" width="34" height="51">
<path d="M76.8674 51.4815C76.8674 54.5464 76.1398 57.1151 74.6846 59.1877C73.2514 61.2604 71.2669 62.8148 68.7313 63.8511C66.2177 64.8875 63.3513 65.4056 60.1321 65.4056C56.9349 65.4056 54.0575 64.8875 51.4998 63.8511C48.9641 62.8148 46.9576 61.2604 45.4804 59.1877C44.0031 57.1151 43.2644 54.5464 43.2644 51.4815C43.2644 49.3868 43.6833 47.5127 44.5212 45.859C45.3811 44.1832 46.5718 42.7611 48.0932 41.5924C49.6146 40.4238 51.3895 39.5308 53.4181 38.9135C55.4687 38.2961 57.6846 37.9874 60.0659 37.9874C63.2851 37.9874 66.1625 38.5386 68.6982 39.6411C71.2339 40.7215 73.2293 42.2649 74.6846 44.2714C76.1398 46.2779 76.8674 48.6813 76.8674 51.4815ZM65.6554 50.5885C65.6554 49.2656 65.4239 48.1521 64.9609 47.2481C64.4978 46.322 63.8474 45.6164 63.0095 45.1313C62.1716 44.6463 61.1904 44.4037 60.0659 44.4037C58.9635 44.4037 57.9823 44.6463 57.1223 45.1313C56.2845 45.6164 55.623 46.322 55.1379 47.2481C54.6749 48.1521 54.4434 49.2656 54.4434 50.5885C54.4434 51.8674 54.6859 52.9809 55.171 53.929C55.6561 54.8551 56.3176 55.5717 57.1554 56.0788C58.0153 56.5639 59.0076 56.8064 60.1321 56.8064C61.2566 56.8064 62.2267 56.5639 63.0426 56.0788C63.8804 55.5717 64.5199 54.8551 64.9609 53.929C65.4239 52.9809 65.6554 51.8674 65.6554 50.5885ZM75.8752 29.4543C75.8752 31.968 75.2027 34.1729 73.8577 36.0691C72.5348 37.9433 70.6826 39.4096 68.3013 40.4679C65.942 41.5042 63.219 42.0224 60.1321 42.0224C57.0672 42.0224 54.3331 41.5042 51.9298 40.4679C49.5484 39.4096 47.6742 37.9433 46.3072 36.0691C44.9622 34.1729 44.2897 31.968 44.2897 29.4543C44.2897 26.4997 44.9622 24.0192 46.3072 22.0127C47.6742 20.0062 49.5484 18.4848 51.9298 17.4485C54.3111 16.4122 57.0231 15.8941 60.0659 15.8941C63.1528 15.8941 65.8869 16.4122 68.2682 17.4485C70.6496 18.4848 72.5127 20.0062 73.8577 22.0127C75.2027 24.0192 75.8752 26.4997 75.8752 29.4543ZM64.7293 30.0497C64.7293 28.9031 64.5529 27.9219 64.2002 27.1061C63.8474 26.2682 63.3292 25.6288 62.6457 25.1878C61.9622 24.7248 61.1022 24.4933 60.0659 24.4933C59.0737 24.4933 58.2358 24.7138 57.5523 25.1547C56.8688 25.5957 56.3506 26.2352 55.9978 27.073C55.645 27.8888 55.4687 28.8811 55.4687 30.0497C55.4687 31.1962 55.645 32.1995 55.9978 33.0594C56.3506 33.9193 56.8688 34.5918 57.5523 35.0769C58.2579 35.562 59.1178 35.8045 60.1321 35.8045C61.1684 35.8045 62.0173 35.562 62.6788 35.0769C63.3623 34.5918 63.8694 33.9193 64.2002 33.0594C64.5529 32.1995 64.7293 31.1962 64.7293 30.0497Z" fill="white"/>
</mask>
<g mask="url(#mask2_623_14234)">
<rect x="16.0234" y="-2.20703" width="43.3471" height="43.3471" fill="#DB4437"/>
<rect x="16.0234" y="41.1387" width="43.3471" height="43.3471" fill="#0F9D56"/>
<rect x="59.375" y="-2.20703" width="43.3471" height="43.3471" fill="#F4B400"/>
<rect x="59.375" y="41.1387" width="43.3471" height="43.3471" fill="#4285F4"/>
<circle cx="44.247" cy="17.2489" r="0.403229" fill="#D9D9D9"/>
<circle cx="47.2743" cy="17.2489" r="0.403229" fill="#D9D9D9"/>
<circle cx="50.2939" cy="17.2489" r="0.403229" fill="#D9D9D9"/>
<circle cx="53.3212" cy="17.2489" r="0.403229" fill="#D9D9D9"/>
<circle cx="56.3446" cy="17.2489" r="0.403229" fill="#D9D9D9"/>
<circle cx="59.3681" cy="17.2489" r="0.403229" fill="#D9D9D9"/>
<circle cx="62.3915" cy="17.2489" r="0.403229" fill="#D9D9D9"/>
<circle cx="65.4189" cy="17.2489" r="0.403229" fill="#D9D9D9"/>
<circle cx="68.4384" cy="17.2489" r="0.403229" fill="#D9D9D9"/>
<circle cx="71.4657" cy="17.2489" r="0.403229" fill="#D9D9D9"/>
<circle cx="74.4931" cy="17.2489" r="0.403229" fill="#D9D9D9"/>
<circle cx="44.247" cy="20.2724" r="0.403229" fill="#D9D9D9"/>
<circle cx="47.2743" cy="20.2724" r="0.403229" fill="#D9D9D9"/>
<circle cx="50.2939" cy="20.2724" r="0.403229" fill="#D9D9D9"/>
<circle cx="53.3212" cy="20.2724" r="0.403229" fill="#D9D9D9"/>
<circle cx="56.3446" cy="20.2724" r="0.403229" fill="#D9D9D9"/>
<circle cx="59.3681" cy="20.2724" r="0.403229" fill="#D9D9D9"/>
<circle cx="62.3915" cy="20.2724" r="0.403229" fill="#D9D9D9"/>
<circle cx="65.4189" cy="20.2724" r="0.403229" fill="#D9D9D9"/>
<circle cx="68.4384" cy="20.2724" r="0.403229" fill="#D9D9D9"/>
<circle cx="71.4657" cy="20.2724" r="0.403229" fill="#D9D9D9"/>
<circle cx="74.4931" cy="20.2724" r="0.403229" fill="#D9D9D9"/>
<circle cx="44.247" cy="23.2968" r="0.403229" fill="#D9D9D9"/>
<circle cx="47.2743" cy="23.2968" r="0.403229" fill="#D9D9D9"/>
<circle cx="50.2939" cy="23.2968" r="0.403229" fill="#D9D9D9"/>
<circle cx="53.3212" cy="23.2968" r="0.403229" fill="#D9D9D9"/>
<circle cx="56.3446" cy="23.2968" r="0.403229" fill="#D9D9D9"/>
<circle cx="59.3681" cy="23.2968" r="0.403229" fill="#D9D9D9"/>
<circle cx="62.3915" cy="23.2968" r="0.403229" fill="#D9D9D9"/>
<circle cx="65.4189" cy="23.2968" r="0.403229" fill="#D9D9D9"/>
<circle cx="68.4384" cy="23.2968" r="0.403229" fill="#D9D9D9"/>
<circle cx="71.4657" cy="23.2968" r="0.403229" fill="#D9D9D9"/>
<circle cx="74.4931" cy="23.2968" r="0.403229" fill="#D9D9D9"/>
<circle cx="44.247" cy="26.3212" r="0.403229" fill="#D9D9D9"/>
<circle cx="47.2743" cy="26.3212" r="0.403229" fill="#D9D9D9"/>
<circle cx="50.2939" cy="26.3212" r="0.403229" fill="#D9D9D9"/>
<circle cx="53.3212" cy="26.3212" r="0.403229" fill="#D9D9D9"/>
<circle cx="56.3446" cy="26.3212" r="0.403229" fill="#D9D9D9"/>
<circle cx="59.3681" cy="26.3212" r="0.403229" fill="#D9D9D9"/>
<circle cx="62.3915" cy="26.3212" r="0.403229" fill="#D9D9D9"/>
<circle cx="65.4189" cy="26.3212" r="0.403229" fill="#D9D9D9"/>
<circle cx="68.4384" cy="26.3212" r="0.403229" fill="#D9D9D9"/>
<circle cx="71.4657" cy="26.3212" r="0.403229" fill="#D9D9D9"/>
<circle cx="74.4931" cy="26.3212" r="0.403229" fill="#D9D9D9"/>
<circle cx="44.247" cy="29.3476" r="0.403229" fill="#D9D9D9"/>
<circle cx="47.2743" cy="29.3476" r="0.403229" fill="#D9D9D9"/>
<circle cx="50.2939" cy="29.3476" r="0.403229" fill="#D9D9D9"/>
<circle cx="53.3212" cy="29.3476" r="0.403229" fill="#D9D9D9"/>
<circle cx="56.3446" cy="29.3476" r="0.403229" fill="#D9D9D9"/>
<circle cx="59.3681" cy="29.3476" r="0.403229" fill="#D9D9D9"/>
<circle cx="62.3915" cy="29.3476" r="0.403229" fill="#D9D9D9"/>
<circle cx="65.4189" cy="29.3476" r="0.403229" fill="#D9D9D9"/>
<circle cx="68.4384" cy="29.3476" r="0.403229" fill="#D9D9D9"/>
<circle cx="71.4657" cy="29.3476" r="0.403229" fill="#D9D9D9"/>
<circle cx="74.4931" cy="29.3476" r="0.403229" fill="#D9D9D9"/>
<circle cx="44.247" cy="32.37" r="0.403229" fill="#D9D9D9"/>
<circle cx="47.2743" cy="32.37" r="0.403229" fill="#D9D9D9"/>
<circle cx="50.2939" cy="32.37" r="0.403229" fill="#D9D9D9"/>
<circle cx="53.3212" cy="32.37" r="0.403229" fill="#D9D9D9"/>
<circle cx="56.3446" cy="32.37" r="0.403229" fill="#D9D9D9"/>
<circle cx="59.3681" cy="32.37" r="0.403229" fill="#D9D9D9"/>
<circle cx="62.3915" cy="32.37" r="0.403229" fill="#D9D9D9"/>
<circle cx="65.4189" cy="32.37" r="0.403229" fill="#D9D9D9"/>
<circle cx="68.4384" cy="32.37" r="0.403229" fill="#D9D9D9"/>
<circle cx="71.4657" cy="32.37" r="0.403229" fill="#D9D9D9"/>
<circle cx="74.4931" cy="32.37" r="0.403229" fill="#D9D9D9"/>
<circle cx="44.247" cy="35.3935" r="0.403229" fill="#D9D9D9"/>
<circle cx="47.2743" cy="35.3935" r="0.403229" fill="#D9D9D9"/>
<circle cx="50.2939" cy="35.3935" r="0.403229" fill="#D9D9D9"/>
<circle cx="53.3212" cy="35.3935" r="0.403229" fill="#D9D9D9"/>
<circle cx="56.3446" cy="35.3935" r="0.403229" fill="#D9D9D9"/>
<circle cx="59.3681" cy="35.3935" r="0.403229" fill="#D9D9D9"/>
<circle cx="62.3915" cy="35.3935" r="0.403229" fill="#D9D9D9"/>
<circle cx="65.4189" cy="35.3935" r="0.403229" fill="#D9D9D9"/>
<circle cx="68.4384" cy="35.3935" r="0.403229" fill="#D9D9D9"/>
<circle cx="71.4657" cy="35.3935" r="0.403229" fill="#D9D9D9"/>
<circle cx="74.4931" cy="35.3935" r="0.403229" fill="#D9D9D9"/>
<circle cx="44.247" cy="38.4179" r="0.403229" fill="#D9D9D9"/>
<circle cx="47.2743" cy="38.4179" r="0.403229" fill="#D9D9D9"/>
<circle cx="50.2939" cy="38.4179" r="0.403229" fill="#D9D9D9"/>
<circle cx="53.3212" cy="38.4179" r="0.403229" fill="#D9D9D9"/>
<circle cx="56.3446" cy="38.4179" r="0.403229" fill="#D9D9D9"/>
<circle cx="59.3681" cy="38.4179" r="0.403229" fill="#D9D9D9"/>
<circle cx="62.3915" cy="38.4179" r="0.403229" fill="#D9D9D9"/>
<circle cx="65.4189" cy="38.4179" r="0.403229" fill="#D9D9D9"/>
<circle cx="68.4384" cy="38.4179" r="0.403229" fill="#D9D9D9"/>
<circle cx="71.4657" cy="38.4179" r="0.403229" fill="#D9D9D9"/>
<circle cx="74.4931" cy="38.4179" r="0.403229" fill="#D9D9D9"/>
<circle cx="44.247" cy="41.4423" r="0.403229" fill="#D9D9D9"/>
<circle cx="47.2743" cy="41.4423" r="0.403229" fill="#D9D9D9"/>
<circle cx="50.2939" cy="41.4423" r="0.403229" fill="#D9D9D9"/>
<circle cx="53.3212" cy="41.4423" r="0.403229" fill="#D9D9D9"/>
<circle cx="56.3446" cy="41.4423" r="0.403229" fill="#D9D9D9"/>
<circle cx="59.3681" cy="41.4423" r="0.403229" fill="#D9D9D9"/>
<circle cx="62.3915" cy="41.4423" r="0.403229" fill="#D9D9D9"/>
<circle cx="65.4189" cy="41.4423" r="0.403229" fill="#D9D9D9"/>
<circle cx="68.4384" cy="41.4423" r="0.403229" fill="#D9D9D9"/>
<circle cx="71.4657" cy="41.4423" r="0.403229" fill="#D9D9D9"/>
<circle cx="74.4931" cy="41.4423" r="0.403229" fill="#D9D9D9"/>
<circle cx="44.247" cy="44.4657" r="0.403229" fill="#D9D9D9"/>
<circle cx="47.2743" cy="44.4657" r="0.403229" fill="#D9D9D9"/>
<circle cx="50.2939" cy="44.4657" r="0.403229" fill="#D9D9D9"/>
<circle cx="53.3212" cy="44.4657" r="0.403229" fill="#D9D9D9"/>
<circle cx="56.3446" cy="44.4657" r="0.403229" fill="#D9D9D9"/>
<circle cx="59.3681" cy="44.4657" r="0.403229" fill="#D9D9D9"/>
<circle cx="62.3915" cy="44.4657" r="0.403229" fill="#D9D9D9"/>
<circle cx="65.4189" cy="44.4657" r="0.403229" fill="#D9D9D9"/>
<circle cx="68.4384" cy="44.4657" r="0.403229" fill="#D9D9D9"/>
<circle cx="71.4657" cy="44.4657" r="0.403229" fill="#D9D9D9"/>
<circle cx="74.4931" cy="44.4657" r="0.403229" fill="#D9D9D9"/>
<circle cx="44.247" cy="47.4921" r="0.403229" fill="#D9D9D9"/>
<circle cx="47.2743" cy="47.4921" r="0.403229" fill="#D9D9D9"/>
<circle cx="50.2939" cy="47.4921" r="0.403229" fill="#D9D9D9"/>
<circle cx="53.3212" cy="47.4921" r="0.403229" fill="#D9D9D9"/>
<circle cx="56.3446" cy="47.4921" r="0.403229" fill="#D9D9D9"/>
<circle cx="59.3681" cy="47.4921" r="0.403229" fill="#D9D9D9"/>
<circle cx="62.3915" cy="47.4921" r="0.403229" fill="#D9D9D9"/>
<circle cx="65.4189" cy="47.4921" r="0.403229" fill="#D9D9D9"/>
<circle cx="68.4384" cy="47.4921" r="0.403229" fill="#D9D9D9"/>
<circle cx="71.4657" cy="47.4921" r="0.403229" fill="#D9D9D9"/>
<circle cx="74.4931" cy="47.4921" r="0.403229" fill="#D9D9D9"/>
<circle cx="44.247" cy="50.5136" r="0.403229" fill="#D9D9D9"/>
<circle cx="47.2743" cy="50.5136" r="0.403229" fill="#D9D9D9"/>
<circle cx="50.2939" cy="50.5136" r="0.403229" fill="#D9D9D9"/>
<circle cx="53.3212" cy="50.5136" r="0.403229" fill="#D9D9D9"/>
<circle cx="56.3446" cy="50.5136" r="0.403229" fill="#D9D9D9"/>
<circle cx="59.3681" cy="50.5136" r="0.403229" fill="#D9D9D9"/>
<circle cx="62.3915" cy="50.5136" r="0.403229" fill="#D9D9D9"/>
<circle cx="65.4189" cy="50.5136" r="0.403229" fill="#D9D9D9"/>
<circle cx="68.4384" cy="50.5136" r="0.403229" fill="#D9D9D9"/>
<circle cx="71.4657" cy="50.5136" r="0.403229" fill="#D9D9D9"/>
<circle cx="74.4931" cy="50.5136" r="0.403229" fill="#D9D9D9"/>
<circle cx="44.247" cy="53.5399" r="0.403229" fill="#D9D9D9"/>
<circle cx="47.2743" cy="53.5399" r="0.403229" fill="#D9D9D9"/>
<circle cx="50.2939" cy="53.5399" r="0.403229" fill="#D9D9D9"/>
<circle cx="53.3212" cy="53.5399" r="0.403229" fill="#D9D9D9"/>
<circle cx="56.3446" cy="53.5399" r="0.403229" fill="#D9D9D9"/>
<circle cx="59.3681" cy="53.5399" r="0.403229" fill="#D9D9D9"/>
<circle cx="62.3915" cy="53.5399" r="0.403229" fill="#D9D9D9"/>
<circle cx="65.4189" cy="53.5399" r="0.403229" fill="#D9D9D9"/>
<circle cx="68.4384" cy="53.5399" r="0.403229" fill="#D9D9D9"/>
<circle cx="71.4657" cy="53.5399" r="0.403229" fill="#D9D9D9"/>
<circle cx="74.4931" cy="53.5399" r="0.403229" fill="#D9D9D9"/>
<circle cx="44.247" cy="56.5644" r="0.403229" fill="#D9D9D9"/>
<circle cx="47.2743" cy="56.5644" r="0.403229" fill="#D9D9D9"/>
<circle cx="50.2939" cy="56.5644" r="0.403229" fill="#D9D9D9"/>
<circle cx="53.3212" cy="56.5644" r="0.403229" fill="#D9D9D9"/>
<circle cx="56.3446" cy="56.5644" r="0.403229" fill="#D9D9D9"/>
<circle cx="59.3681" cy="56.5644" r="0.403229" fill="#D9D9D9"/>
<circle cx="62.3915" cy="56.5644" r="0.403229" fill="#D9D9D9"/>
<circle cx="65.4189" cy="56.5644" r="0.403229" fill="#D9D9D9"/>
<circle cx="68.4384" cy="56.5644" r="0.403229" fill="#D9D9D9"/>
<circle cx="71.4657" cy="56.5644" r="0.403229" fill="#D9D9D9"/>
<circle cx="74.4931" cy="56.5644" r="0.403229" fill="#D9D9D9"/>
<circle cx="44.247" cy="59.5888" r="0.403229" fill="#D9D9D9"/>
<circle cx="47.2743" cy="59.5888" r="0.403229" fill="#D9D9D9"/>
<circle cx="50.2939" cy="59.5888" r="0.403229" fill="#D9D9D9"/>
<circle cx="53.3212" cy="59.5888" r="0.403229" fill="#D9D9D9"/>
<circle cx="56.3446" cy="59.5888" r="0.403229" fill="#D9D9D9"/>
<circle cx="59.3681" cy="59.5888" r="0.403229" fill="#D9D9D9"/>
<circle cx="62.3915" cy="59.5888" r="0.403229" fill="#D9D9D9"/>
<circle cx="65.4189" cy="59.5888" r="0.403229" fill="#D9D9D9"/>
<circle cx="68.4384" cy="59.5888" r="0.403229" fill="#D9D9D9"/>
<circle cx="71.4657" cy="59.5888" r="0.403229" fill="#D9D9D9"/>
<circle cx="74.4931" cy="59.5888" r="0.403229" fill="#D9D9D9"/>
<circle cx="44.247" cy="62.6122" r="0.403229" fill="#D9D9D9"/>
<circle cx="47.2743" cy="62.6122" r="0.403229" fill="#D9D9D9"/>
<circle cx="50.2939" cy="62.6122" r="0.403229" fill="#D9D9D9"/>
<circle cx="53.3212" cy="62.6122" r="0.403229" fill="#D9D9D9"/>
<circle cx="56.3446" cy="62.6122" r="0.403229" fill="#D9D9D9"/>
<circle cx="59.3681" cy="62.6122" r="0.403229" fill="#D9D9D9"/>
<circle cx="62.3915" cy="62.6122" r="0.403229" fill="#D9D9D9"/>
<circle cx="65.4189" cy="62.6122" r="0.403229" fill="#D9D9D9"/>
<circle cx="68.4384" cy="62.6122" r="0.403229" fill="#D9D9D9"/>
<circle cx="71.4657" cy="62.6122" r="0.403229" fill="#D9D9D9"/>
<circle cx="74.4931" cy="62.6122" r="0.403229" fill="#D9D9D9"/>
<circle cx="44.247" cy="65.6366" r="0.403229" fill="#D9D9D9"/>
<circle cx="47.2743" cy="65.6366" r="0.403229" fill="#D9D9D9"/>
<circle cx="50.2939" cy="65.6366" r="0.403229" fill="#D9D9D9"/>
<circle cx="53.3212" cy="65.6366" r="0.403229" fill="#D9D9D9"/>
<circle cx="56.3446" cy="65.6366" r="0.403229" fill="#D9D9D9"/>
<circle cx="59.3681" cy="65.6366" r="0.403229" fill="#D9D9D9"/>
<circle cx="62.3915" cy="65.6366" r="0.403229" fill="#D9D9D9"/>
<circle cx="65.4189" cy="65.6366" r="0.403229" fill="#D9D9D9"/>
<circle cx="68.4384" cy="65.6366" r="0.403229" fill="#D9D9D9"/>
<circle cx="71.4657" cy="65.6366" r="0.403229" fill="#D9D9D9"/>
<circle cx="74.4931" cy="65.6366" r="0.403229" fill="#D9D9D9"/>
</g>
<path d="M73.5752 58.1789L73.0802 57.8314L73.0777 57.8349L73.5752 58.1789ZM67.6219 62.8424L67.3931 62.2825L67.3914 62.2832L67.6219 62.8424ZM50.3904 62.8424L50.1616 63.4022L50.1633 63.4029L50.3904 62.8424ZM43.4118 44.8502L42.8737 44.574L42.8723 44.5768L43.4118 44.8502ZM52.3087 37.9047L52.1343 37.3255L52.1326 37.326L52.3087 37.9047ZM67.5888 38.6323L67.3476 39.187L67.3517 39.1887L67.5888 38.6323ZM63.8515 46.2393L63.3105 46.5098L63.3131 46.515L63.8515 46.2393ZM56.013 44.1226L55.7158 43.5957L55.7099 43.5991L56.013 44.1226ZM54.0285 46.2393L53.4927 45.9586L53.4902 45.9636L54.0285 46.2393ZM54.0616 52.9202L53.5231 53.1957L53.5258 53.2009L54.0616 52.9202ZM56.046 55.07L55.7329 55.5874L55.7408 55.5923L55.7489 55.5968L56.046 55.07ZM61.9332 55.07L62.2423 55.5899L62.2464 55.5874L61.9332 55.07ZM63.8515 52.9202L63.308 52.6548L63.3054 52.6602L63.8515 52.9202ZM72.7483 35.0603L72.255 34.7104L72.2542 34.7115L72.7483 35.0603ZM67.1919 39.4591L67.4352 40.0129L67.4376 40.0119L67.1919 39.4591ZM50.8204 39.4591L50.5747 40.0119L50.5809 40.0146L50.8204 39.4591ZM45.1978 35.0603L44.7044 35.4103L44.7092 35.4168L45.1978 35.0603ZM45.1978 21.0039L44.698 20.6634L44.6954 20.6672L45.1978 21.0039ZM72.7483 21.0039L72.2459 21.3407L72.7483 21.0039ZM63.0908 26.0973L62.5333 26.332L62.5356 26.3374L63.0908 26.0973ZM61.5363 24.179L61.197 24.6799L61.2084 24.6873L61.5363 24.179ZM56.4429 24.1459L56.7708 24.6542L56.4429 24.1459ZM54.8885 26.0642L55.4436 26.3043L55.4459 26.2989L54.8885 26.0642ZM56.4429 34.0681L56.0928 34.5614L56.1003 34.5665L56.4429 34.0681ZM61.5694 34.0681L61.2193 33.5748L61.2117 33.5804L61.5694 34.0681ZM63.0908 32.0506L62.5311 31.821L62.5262 31.8335L63.0908 32.0506ZM75.1532 50.4727C75.1532 53.4398 74.45 55.8804 73.0802 57.8314L74.0702 58.5265C75.6108 56.3323 76.3629 53.6354 76.3629 50.4727H75.1532ZM73.0777 57.8349C71.717 59.8027 69.83 61.2865 67.3931 62.2825L67.8507 63.4022C70.4851 62.3256 72.5669 60.7005 74.0727 58.523L73.0777 57.8349ZM67.3914 62.2832C64.963 63.2843 62.1771 63.792 59.0227 63.792V65.0017C62.3067 65.0017 65.2536 64.473 67.8524 63.4015L67.3914 62.2832ZM59.0227 63.792C55.8912 63.792 53.0926 63.2846 50.6175 62.2818L50.1633 63.4029C52.8037 64.4727 55.7599 65.0017 59.0227 65.0017V63.792ZM50.6192 62.2825C48.181 61.286 46.2693 59.8002 44.8635 57.8279L43.8784 58.53C45.4272 60.7029 47.5285 62.3261 50.1616 63.4022L50.6192 62.2825ZM44.8635 57.8279C43.4731 55.8772 42.7599 53.438 42.7599 50.4727H41.5502C41.5502 53.6372 42.3142 56.3354 43.8784 58.53L44.8635 57.8279ZM42.7599 50.4727C42.7599 48.4606 43.1617 46.6821 43.9514 45.1236L42.8723 44.5768C41.9862 46.3257 41.5502 48.2955 41.5502 50.4727H42.7599ZM43.95 45.1263C44.7683 43.5316 45.9004 42.1785 47.3523 41.0633L46.6154 40.104C45.0244 41.326 43.7752 42.8172 42.8737 44.574L43.95 45.1263ZM47.3523 41.0633C48.8102 39.9434 50.5185 39.0817 52.4848 38.4833L52.1326 37.326C50.0418 37.9624 48.2002 38.8867 46.6154 40.104L47.3523 41.0633ZM52.4831 38.4838C54.4712 37.8853 56.6278 37.5834 58.9565 37.5834V36.3738C56.5227 36.3738 54.2474 36.6893 52.1343 37.3255L52.4831 38.4838ZM58.9565 37.5834C62.1063 37.5834 64.8996 38.1226 67.3477 39.187L67.83 38.0776C65.2068 36.9371 62.2452 36.3738 58.9565 36.3738V37.5834ZM67.3517 39.1887C69.7981 40.2311 71.7017 41.7097 73.0856 43.6177L74.0648 42.9075C72.5382 40.8026 70.4508 39.1943 67.8259 38.0759L67.3517 39.1887ZM73.0856 43.6177C74.4564 45.5078 75.1532 47.7828 75.1532 50.4727H76.3629C76.3629 47.5622 75.6045 45.0304 74.0648 42.9075L73.0856 43.6177ZM65.1509 49.5797C65.1509 48.1889 64.9077 46.9748 64.3898 45.9636L63.3131 46.515C63.7213 47.3118 63.9412 48.3247 63.9412 49.5797H65.1509ZM64.3925 45.9688C63.8804 44.9447 63.1506 44.1476 62.2032 43.5991L61.5971 44.646C62.3254 45.0677 62.8965 45.6818 63.3105 46.5098L64.3925 45.9688ZM62.2032 43.5991C61.2592 43.0526 60.1701 42.7901 58.9565 42.7901V43.9998C59.992 43.9998 60.8653 44.2223 61.5971 44.646L62.2032 43.5991ZM58.9565 42.7901C57.7624 42.7901 56.6766 43.0537 55.7158 43.5957L56.3101 44.6494C57.0692 44.2212 57.9458 43.9998 58.9565 43.9998V42.7901ZM55.7099 43.5991C54.7652 44.1461 54.0265 44.9397 53.4928 45.9586L54.5643 46.5199C55.0008 45.6868 55.585 45.0692 56.316 44.646L55.7099 43.5991ZM53.4902 45.9636C52.9723 46.9748 52.7291 48.1889 52.7291 49.5797H53.9388C53.9388 48.3247 54.1587 47.3118 54.5669 46.515L53.4902 45.9636ZM52.7291 49.5797C52.7291 50.9353 52.9865 52.1468 53.5232 53.1957L54.6001 52.6447C54.1665 51.7974 53.9388 50.7819 53.9388 49.5797H52.7291ZM53.5258 53.2009C54.0585 54.2178 54.7942 55.0193 55.7329 55.5874L56.3592 54.5526C55.6222 54.1064 55.0349 53.4747 54.5974 52.6395L53.5258 53.2009ZM55.7489 55.5968C56.7115 56.1398 57.8087 56.4025 59.0227 56.4025V55.1928C57.9876 55.1928 57.1005 54.9704 56.3432 54.5432L55.7489 55.5968ZM59.0227 56.4025C60.2358 56.4025 61.317 56.1401 62.2423 55.5899L61.6241 54.5501C60.9178 54.9701 60.0587 55.1928 59.0227 55.1928V56.4025ZM62.2464 55.5874C63.1903 55.0161 63.9083 54.2077 64.3976 53.1802L63.3054 52.6602C62.9127 53.4848 62.3518 54.1096 61.62 54.5526L62.2464 55.5874ZM64.395 53.1856C64.906 52.1392 65.1509 50.9314 65.1509 49.5797H63.9412C63.9412 50.7858 63.723 51.805 63.308 52.6548L64.395 53.1856ZM74.161 28.4455C74.161 30.8445 73.5215 32.9248 72.255 34.7104L73.2417 35.4102C74.6652 33.4033 75.3707 31.0738 75.3707 28.4455H74.161ZM72.2542 34.7115C71.0024 36.485 69.2417 37.8862 66.9463 38.9064L67.4376 40.0119C69.9048 38.9153 71.8484 37.3841 73.2425 35.4091L72.2542 34.7115ZM66.9487 38.9054C64.6797 39.902 62.0421 40.4088 59.0227 40.4088V41.6185C62.1771 41.6185 64.9856 41.0889 67.4352 40.0129L66.9487 38.9054ZM59.0227 40.4088C56.0263 40.4088 53.3758 39.9023 51.0599 38.9037L50.5809 40.0146C53.0717 41.0886 55.8894 41.6185 59.0227 41.6185V40.4088ZM51.066 38.9064C48.7693 37.8857 46.9837 36.4823 45.6865 34.7039L44.7092 35.4168C46.146 37.3867 48.1088 38.9159 50.5747 40.0119L51.066 38.9064ZM45.6912 34.7104C44.4247 32.9248 43.7852 30.8445 43.7852 28.4455H42.5755C42.5755 31.0738 43.281 33.4033 44.7045 35.4102L45.6912 34.7104ZM43.7852 28.4455C43.7852 25.5839 44.4356 23.2273 45.7002 21.3407L44.6954 20.6672C43.27 22.7935 42.5755 25.398 42.5755 28.4455H43.7852ZM45.6977 21.3445C46.996 19.4389 48.7774 17.9884 51.0617 16.9943L50.579 15.8851C48.1007 16.9637 46.1338 18.556 44.698 20.6634L45.6977 21.3445ZM51.0617 16.9943C53.355 15.9964 55.9827 15.4901 58.9565 15.4901V14.2804C55.8448 14.2804 53.0484 14.8105 50.579 15.8851L51.0617 16.9943ZM58.9565 15.4901C61.9758 15.4901 64.6253 15.9968 66.9175 16.9943L67.4002 15.8851C64.9298 14.81 62.1111 14.2804 58.9565 14.2804V15.4901ZM66.9175 16.9943C69.2011 17.9881 70.9702 19.4376 72.2459 21.3407L73.2508 20.6672C71.8365 18.5573 69.8793 16.964 67.4002 15.8851L66.9175 16.9943ZM72.2459 21.3407C73.5106 23.2273 74.161 25.5839 74.161 28.4455H75.3707C75.3707 25.398 74.6761 22.7935 73.2508 20.6672L72.2459 21.3407ZM64.2248 29.0409C64.2248 27.8347 64.0395 26.7674 63.6459 25.8572L62.5356 26.3374C62.8476 27.0589 63.0151 27.954 63.0151 29.0409H64.2248ZM63.6482 25.8626C63.254 24.9262 62.6619 24.1854 61.8642 23.6708L61.2084 24.6873C61.7778 25.0546 62.222 25.5926 62.5333 26.332L63.6482 25.8626ZM61.8755 23.6783C61.069 23.1319 60.0829 22.8796 58.9565 22.8796V24.0893C59.9029 24.0893 60.6365 24.3001 61.1971 24.6798L61.8755 23.6783ZM58.9565 22.8796C57.8737 22.8796 56.9159 23.121 56.115 23.6377L56.7708 24.6542C57.337 24.2889 58.0549 24.0893 58.9565 24.0893V22.8796ZM56.115 23.6377C55.3174 24.1523 54.7253 24.8932 54.331 25.8295L55.4459 26.2989C55.7572 25.5596 56.2014 25.0215 56.7708 24.6542L56.115 23.6377ZM54.3333 25.8242C53.9392 26.7356 53.7544 27.8144 53.7544 29.0409H54.9641C54.9641 27.9301 55.1322 27.0245 55.4436 26.3043L54.3333 25.8242ZM53.7544 29.0409C53.7544 30.2484 53.9401 31.3325 54.3289 32.2802L55.448 31.821C55.1312 31.0488 54.9641 30.1265 54.9641 29.0409H53.7544ZM54.3289 32.2802C54.7202 33.2341 55.306 34.0029 56.0929 34.5614L56.793 33.5749C56.2128 33.1631 55.7623 32.5869 55.448 31.821L54.3289 32.2802ZM56.1003 34.5665C56.9242 35.1329 57.9092 35.4006 59.0227 35.4006V34.1909C58.1077 34.1909 57.3729 33.9734 56.7856 33.5697L56.1003 34.5665ZM59.0227 35.4006C60.1535 35.4006 61.1373 35.135 61.9271 34.5559L61.2117 33.5804C60.6785 33.9714 59.9645 34.1909 59.0227 34.1909V35.4006ZM61.9194 34.5614C62.7096 34.0006 63.2862 33.2273 63.6553 32.2677L62.5262 31.8335C62.2338 32.5937 61.7962 33.1655 61.2193 33.5749L61.9194 34.5614ZM63.6504 32.2802C64.0391 31.3325 64.2248 30.2484 64.2248 29.0409H63.0151C63.0151 30.1265 62.848 31.0488 62.5312 31.821L63.6504 32.2802Z" fill="#202124"/>
<mask id="mask3_623_14234" style="mask-type:alpha" maskUnits="userSpaceOnUse" x="82" y="15" width="35" height="51">
<path d="M116.215 36.2676V45.0652C116.215 48.5269 115.807 51.5366 114.991 54.0944C114.198 56.6521 113.051 58.7688 111.552 60.4445C110.074 62.1203 108.31 63.3661 106.26 64.1819C104.209 64.9977 101.949 65.4056 99.4797 65.4056C97.4953 65.4056 95.6432 65.1521 93.9233 64.6449C92.2035 64.1157 90.649 63.322 89.2599 62.2636C87.8929 61.1832 86.7132 59.8382 85.721 58.2286C84.7288 56.619 83.9681 54.7228 83.4389 52.5399C82.9097 50.335 82.6451 47.8434 82.6451 45.0652V36.2676C82.6451 32.7838 83.042 29.7741 83.8358 27.2384C84.6516 24.6807 85.8092 22.564 87.3085 20.8882C88.8079 19.2125 90.5829 17.9667 92.6334 17.1509C94.684 16.335 96.9441 15.9271 99.4136 15.9271C101.398 15.9271 103.239 16.1917 104.937 16.7209C106.657 17.228 108.211 18.0218 109.6 19.1022C110.989 20.1606 112.169 21.4946 113.139 23.1042C114.131 24.7138 114.892 26.621 115.421 28.8259C115.951 31.0088 116.215 33.4893 116.215 36.2676ZM105.069 46.4212V34.8454C105.069 33.3019 104.981 31.9569 104.805 30.8104C104.65 29.6638 104.408 28.6936 104.077 27.8999C103.768 27.1061 103.382 26.4667 102.919 25.9816C102.456 25.4745 101.927 25.1106 101.332 24.8901C100.759 24.6476 100.119 24.5263 99.4136 24.5263C98.5316 24.5263 97.7378 24.7138 97.0323 25.0886C96.3487 25.4414 95.7644 26.0147 95.2793 26.8084C94.7943 27.6022 94.4194 28.6606 94.1548 29.9835C93.9123 31.3065 93.791 32.9271 93.791 34.8454V46.4212C93.791 47.9867 93.8682 49.3538 94.0225 50.5224C94.1989 51.6689 94.4415 52.6501 94.7502 53.466C95.0809 54.2597 95.4778 54.9102 95.9408 55.4173C96.4039 55.9024 96.933 56.2552 97.5284 56.4757C98.1237 56.6962 98.7741 56.8064 99.4797 56.8064C100.34 56.8064 101.111 56.63 101.795 56.2772C102.478 55.9244 103.063 55.3512 103.548 54.5574C104.055 53.7416 104.43 52.6722 104.672 51.3492C104.937 50.0042 105.069 48.3616 105.069 46.4212Z" fill="white"/>
</mask>
<g mask="url(#mask3_623_14234)">
<rect x="55.375" y="-2.20703" width="43.3471" height="43.3471" fill="#DB4437"/>
<rect x="55.375" y="41.1406" width="43.3471" height="43.3471" fill="#0F9D56"/>
<rect x="98.7266" y="-2.20703" width="43.3471" height="43.3471" fill="#F4B400"/>
<rect x="98.7266" y="41.1406" width="43.3471" height="43.3471" fill="#4285F4"/>
<circle cx="83.5985" cy="17.2489" r="0.403229" fill="#D9D9D9"/>
<circle cx="86.6259" cy="17.2489" r="0.403229" fill="#D9D9D9"/>
<circle cx="89.6454" cy="17.2489" r="0.403229" fill="#D9D9D9"/>
<circle cx="92.6728" cy="17.2489" r="0.403229" fill="#D9D9D9"/>
<circle cx="95.7001" cy="17.2489" r="0.403229" fill="#D9D9D9"/>
<circle cx="98.7196" cy="17.2489" r="0.403229" fill="#D9D9D9"/>
<circle cx="101.743" cy="17.2489" r="0.403229" fill="#D9D9D9"/>
<circle cx="104.77" cy="17.2489" r="0.403229" fill="#D9D9D9"/>
<circle cx="107.79" cy="17.2489" r="0.403229" fill="#D9D9D9"/>
<circle cx="110.817" cy="17.2489" r="0.403229" fill="#D9D9D9"/>
<circle cx="113.845" cy="17.2489" r="0.403229" fill="#D9D9D9"/>
<circle cx="83.5985" cy="20.2724" r="0.403229" fill="#D9D9D9"/>
<circle cx="86.6259" cy="20.2724" r="0.403229" fill="#D9D9D9"/>
<circle cx="89.6454" cy="20.2724" r="0.403229" fill="#D9D9D9"/>
<circle cx="92.6728" cy="20.2724" r="0.403229" fill="#D9D9D9"/>
<circle cx="95.7001" cy="20.2724" r="0.403229" fill="#D9D9D9"/>
<circle cx="98.7196" cy="20.2724" r="0.403229" fill="#D9D9D9"/>
<circle cx="101.743" cy="20.2724" r="0.403229" fill="#D9D9D9"/>
<circle cx="104.77" cy="20.2724" r="0.403229" fill="#D9D9D9"/>
<circle cx="107.79" cy="20.2724" r="0.403229" fill="#D9D9D9"/>
<circle cx="110.817" cy="20.2724" r="0.403229" fill="#D9D9D9"/>
<circle cx="113.845" cy="20.2724" r="0.403229" fill="#D9D9D9"/>
<circle cx="83.5985" cy="23.2968" r="0.403229" fill="#D9D9D9"/>
<circle cx="86.6259" cy="23.2968" r="0.403229" fill="#D9D9D9"/>
<circle cx="89.6454" cy="23.2968" r="0.403229" fill="#D9D9D9"/>
<circle cx="92.6728" cy="23.2968" r="0.403229" fill="#D9D9D9"/>
<circle cx="95.7001" cy="23.2968" r="0.403229" fill="#D9D9D9"/>
<circle cx="98.7196" cy="23.2968" r="0.403229" fill="#D9D9D9"/>
<circle cx="101.743" cy="23.2968" r="0.403229" fill="#D9D9D9"/>
<circle cx="104.77" cy="23.2968" r="0.403229" fill="#D9D9D9"/>
<circle cx="107.79" cy="23.2968" r="0.403229" fill="#D9D9D9"/>
<circle cx="110.817" cy="23.2968" r="0.403229" fill="#D9D9D9"/>
<circle cx="113.845" cy="23.2968" r="0.403229" fill="#D9D9D9"/>
<circle cx="83.5985" cy="26.3202" r="0.403229" fill="#D9D9D9"/>
<circle cx="86.6259" cy="26.3202" r="0.403229" fill="#D9D9D9"/>
<circle cx="89.6454" cy="26.3202" r="0.403229" fill="#D9D9D9"/>
<circle cx="92.6728" cy="26.3202" r="0.403229" fill="#D9D9D9"/>
<circle cx="95.7001" cy="26.3202" r="0.403229" fill="#D9D9D9"/>
<circle cx="98.7196" cy="26.3202" r="0.403229" fill="#D9D9D9"/>
<circle cx="101.743" cy="26.3202" r="0.403229" fill="#D9D9D9"/>
<circle cx="104.77" cy="26.3202" r="0.403229" fill="#D9D9D9"/>
<circle cx="107.79" cy="26.3202" r="0.403229" fill="#D9D9D9"/>
<circle cx="110.817" cy="26.3202" r="0.403229" fill="#D9D9D9"/>
<circle cx="113.845" cy="26.3202" r="0.403229" fill="#D9D9D9"/>
<circle cx="83.5985" cy="29.3456" r="0.403229" fill="#D9D9D9"/>
<circle cx="86.6259" cy="29.3456" r="0.403229" fill="#D9D9D9"/>
<circle cx="89.6454" cy="29.3456" r="0.403229" fill="#D9D9D9"/>
<circle cx="92.6728" cy="29.3456" r="0.403229" fill="#D9D9D9"/>
<circle cx="95.7001" cy="29.3456" r="0.403229" fill="#D9D9D9"/>
<circle cx="98.7196" cy="29.3456" r="0.403229" fill="#D9D9D9"/>
<circle cx="101.743" cy="29.3456" r="0.403229" fill="#D9D9D9"/>
<circle cx="104.77" cy="29.3456" r="0.403229" fill="#D9D9D9"/>
<circle cx="107.79" cy="29.3456" r="0.403229" fill="#D9D9D9"/>
<circle cx="110.817" cy="29.3456" r="0.403229" fill="#D9D9D9"/>
<circle cx="113.845" cy="29.3456" r="0.403229" fill="#D9D9D9"/>
<circle cx="83.5985" cy="32.369" r="0.403229" fill="#D9D9D9"/>
<circle cx="86.6259" cy="32.369" r="0.403229" fill="#D9D9D9"/>
<circle cx="89.6454" cy="32.369" r="0.403229" fill="#D9D9D9"/>
<circle cx="92.6728" cy="32.369" r="0.403229" fill="#D9D9D9"/>
<circle cx="95.7001" cy="32.369" r="0.403229" fill="#D9D9D9"/>
<circle cx="98.7196" cy="32.369" r="0.403229" fill="#D9D9D9"/>
<circle cx="101.743" cy="32.369" r="0.403229" fill="#D9D9D9"/>
<circle cx="104.77" cy="32.369" r="0.403229" fill="#D9D9D9"/>
<circle cx="107.79" cy="32.369" r="0.403229" fill="#D9D9D9"/>
<circle cx="110.817" cy="32.369" r="0.403229" fill="#D9D9D9"/>
<circle cx="113.845" cy="32.369" r="0.403229" fill="#D9D9D9"/>
<circle cx="83.5985" cy="35.3925" r="0.403229" fill="#D9D9D9"/>
<circle cx="86.6259" cy="35.3925" r="0.403229" fill="#D9D9D9"/>
<circle cx="89.6454" cy="35.3925" r="0.403229" fill="#D9D9D9"/>
<circle cx="92.6728" cy="35.3925" r="0.403229" fill="#D9D9D9"/>
<circle cx="95.7001" cy="35.3925" r="0.403229" fill="#D9D9D9"/>
<circle cx="98.7196" cy="35.3925" r="0.403229" fill="#D9D9D9"/>
<circle cx="101.743" cy="35.3925" r="0.403229" fill="#D9D9D9"/>
<circle cx="104.77" cy="35.3925" r="0.403229" fill="#D9D9D9"/>
<circle cx="107.79" cy="35.3925" r="0.403229" fill="#D9D9D9"/>
<circle cx="110.817" cy="35.3925" r="0.403229" fill="#D9D9D9"/>
<circle cx="113.845" cy="35.3925" r="0.403229" fill="#D9D9D9"/>
<circle cx="83.5985" cy="38.4179" r="0.403229" fill="#D9D9D9"/>
<circle cx="86.6259" cy="38.4179" r="0.403229" fill="#D9D9D9"/>
<circle cx="89.6454" cy="38.4179" r="0.403229" fill="#D9D9D9"/>
<circle cx="92.6728" cy="38.4179" r="0.403229" fill="#D9D9D9"/>
<circle cx="95.7001" cy="38.4179" r="0.403229" fill="#D9D9D9"/>
<circle cx="98.7196" cy="38.4179" r="0.403229" fill="#D9D9D9"/>
<circle cx="101.743" cy="38.4179" r="0.403229" fill="#D9D9D9"/>
<circle cx="104.77" cy="38.4179" r="0.403229" fill="#D9D9D9"/>
<circle cx="107.79" cy="38.4179" r="0.403229" fill="#D9D9D9"/>
<circle cx="110.817" cy="38.4179" r="0.403229" fill="#D9D9D9"/>
<circle cx="113.845" cy="38.4179" r="0.403229" fill="#D9D9D9"/>
<circle cx="83.5985" cy="41.4413" r="0.403229" fill="#D9D9D9"/>
<circle cx="86.6259" cy="41.4413" r="0.403229" fill="#D9D9D9"/>
<circle cx="89.6454" cy="41.4413" r="0.403229" fill="#D9D9D9"/>
<circle cx="92.6728" cy="41.4413" r="0.403229" fill="#D9D9D9"/>
<circle cx="95.7001" cy="41.4413" r="0.403229" fill="#D9D9D9"/>
<circle cx="98.7196" cy="41.4413" r="0.403229" fill="#D9D9D9"/>
<circle cx="101.743" cy="41.4413" r="0.403229" fill="#D9D9D9"/>
<circle cx="104.77" cy="41.4413" r="0.403229" fill="#D9D9D9"/>
<circle cx="107.79" cy="41.4413" r="0.403229" fill="#D9D9D9"/>
<circle cx="110.817" cy="41.4413" r="0.403229" fill="#D9D9D9"/>
<circle cx="113.845" cy="41.4413" r="0.403229" fill="#D9D9D9"/>
<circle cx="83.5985" cy="44.4648" r="0.403229" fill="#D9D9D9"/>
<circle cx="86.6259" cy="44.4648" r="0.403229" fill="#D9D9D9"/>
<circle cx="89.6454" cy="44.4648" r="0.403229" fill="#D9D9D9"/>
<circle cx="92.6728" cy="44.4648" r="0.403229" fill="#D9D9D9"/>
<circle cx="95.7001" cy="44.4648" r="0.403229" fill="#D9D9D9"/>
<circle cx="98.7196" cy="44.4648" r="0.403229" fill="#D9D9D9"/>
<circle cx="101.743" cy="44.4648" r="0.403229" fill="#D9D9D9"/>
<circle cx="104.77" cy="44.4648" r="0.403229" fill="#D9D9D9"/>
<circle cx="107.79" cy="44.4648" r="0.403229" fill="#D9D9D9"/>
<circle cx="110.817" cy="44.4648" r="0.403229" fill="#D9D9D9"/>
<circle cx="113.845" cy="44.4648" r="0.403229" fill="#D9D9D9"/>
<circle cx="83.5985" cy="47.4901" r="0.403229" fill="#D9D9D9"/>
<circle cx="86.6259" cy="47.4901" r="0.403229" fill="#D9D9D9"/>
<circle cx="89.6454" cy="47.4901" r="0.403229" fill="#D9D9D9"/>
<circle cx="92.6728" cy="47.4901" r="0.403229" fill="#D9D9D9"/>
<circle cx="95.7001" cy="47.4901" r="0.403229" fill="#D9D9D9"/>
<circle cx="98.7196" cy="47.4901" r="0.403229" fill="#D9D9D9"/>
<circle cx="101.743" cy="47.4901" r="0.403229" fill="#D9D9D9"/>
<circle cx="104.77" cy="47.4901" r="0.403229" fill="#D9D9D9"/>
<circle cx="107.79" cy="47.4901" r="0.403229" fill="#D9D9D9"/>
<circle cx="110.817" cy="47.4901" r="0.403229" fill="#D9D9D9"/>
<circle cx="113.845" cy="47.4901" r="0.403229" fill="#D9D9D9"/>
<circle cx="83.5985" cy="50.5136" r="0.403229" fill="#D9D9D9"/>
<circle cx="86.6259" cy="50.5136" r="0.403229" fill="#D9D9D9"/>
<circle cx="89.6454" cy="50.5136" r="0.403229" fill="#D9D9D9"/>
<circle cx="92.6728" cy="50.5136" r="0.403229" fill="#D9D9D9"/>
<circle cx="95.7001" cy="50.5136" r="0.403229" fill="#D9D9D9"/>
<circle cx="98.7196" cy="50.5136" r="0.403229" fill="#D9D9D9"/>
<circle cx="101.743" cy="50.5136" r="0.403229" fill="#D9D9D9"/>
<circle cx="104.77" cy="50.5136" r="0.403229" fill="#D9D9D9"/>
<circle cx="107.79" cy="50.5136" r="0.403229" fill="#D9D9D9"/>
<circle cx="110.817" cy="50.5136" r="0.403229" fill="#D9D9D9"/>
<circle cx="113.845" cy="50.5136" r="0.403229" fill="#D9D9D9"/>
<circle cx="83.5985" cy="53.5399" r="0.403229" fill="#D9D9D9"/>
<circle cx="86.6259" cy="53.5399" r="0.403229" fill="#D9D9D9"/>
<circle cx="89.6454" cy="53.5399" r="0.403229" fill="#D9D9D9"/>
<circle cx="92.6728" cy="53.5399" r="0.403229" fill="#D9D9D9"/>
<circle cx="95.7001" cy="53.5399" r="0.403229" fill="#D9D9D9"/>
<circle cx="98.7196" cy="53.5399" r="0.403229" fill="#D9D9D9"/>
<circle cx="101.743" cy="53.5399" r="0.403229" fill="#D9D9D9"/>
<circle cx="104.77" cy="53.5399" r="0.403229" fill="#D9D9D9"/>
<circle cx="107.79" cy="53.5399" r="0.403229" fill="#D9D9D9"/>
<circle cx="110.817" cy="53.5399" r="0.403229" fill="#D9D9D9"/>
<circle cx="113.845" cy="53.5399" r="0.403229" fill="#D9D9D9"/>
<circle cx="83.5985" cy="56.5624" r="0.403229" fill="#D9D9D9"/>
<circle cx="86.6259" cy="56.5624" r="0.403229" fill="#D9D9D9"/>
<circle cx="89.6454" cy="56.5624" r="0.403229" fill="#D9D9D9"/>
<circle cx="92.6728" cy="56.5624" r="0.403229" fill="#D9D9D9"/>
<circle cx="95.7001" cy="56.5624" r="0.403229" fill="#D9D9D9"/>
<circle cx="98.7196" cy="56.5624" r="0.403229" fill="#D9D9D9"/>
<circle cx="101.743" cy="56.5624" r="0.403229" fill="#D9D9D9"/>
<circle cx="104.77" cy="56.5624" r="0.403229" fill="#D9D9D9"/>
<circle cx="107.79" cy="56.5624" r="0.403229" fill="#D9D9D9"/>
<circle cx="110.817" cy="56.5624" r="0.403229" fill="#D9D9D9"/>
<circle cx="113.845" cy="56.5624" r="0.403229" fill="#D9D9D9"/>
<circle cx="83.5985" cy="59.5868" r="0.403229" fill="#D9D9D9"/>
<circle cx="86.6259" cy="59.5868" r="0.403229" fill="#D9D9D9"/>
<circle cx="89.6454" cy="59.5868" r="0.403229" fill="#D9D9D9"/>
<circle cx="92.6728" cy="59.5868" r="0.403229" fill="#D9D9D9"/>
<circle cx="95.7001" cy="59.5868" r="0.403229" fill="#D9D9D9"/>
<circle cx="98.7196" cy="59.5868" r="0.403229" fill="#D9D9D9"/>
<circle cx="101.743" cy="59.5868" r="0.403229" fill="#D9D9D9"/>
<circle cx="104.77" cy="59.5868" r="0.403229" fill="#D9D9D9"/>
<circle cx="107.79" cy="59.5868" r="0.403229" fill="#D9D9D9"/>
<circle cx="110.817" cy="59.5868" r="0.403229" fill="#D9D9D9"/>
<circle cx="113.845" cy="59.5868" r="0.403229" fill="#D9D9D9"/>
<circle cx="83.5985" cy="62.6122" r="0.403229" fill="#D9D9D9"/>
<circle cx="86.6259" cy="62.6122" r="0.403229" fill="#D9D9D9"/>
<circle cx="89.6454" cy="62.6122" r="0.403229" fill="#D9D9D9"/>
<circle cx="92.6728" cy="62.6122" r="0.403229" fill="#D9D9D9"/>
<circle cx="95.7001" cy="62.6122" r="0.403229" fill="#D9D9D9"/>
<circle cx="98.7196" cy="62.6122" r="0.403229" fill="#D9D9D9"/>
<circle cx="101.743" cy="62.6122" r="0.403229" fill="#D9D9D9"/>
<circle cx="104.77" cy="62.6122" r="0.403229" fill="#D9D9D9"/>
<circle cx="107.79" cy="62.6122" r="0.403229" fill="#D9D9D9"/>
<circle cx="110.817" cy="62.6122" r="0.403229" fill="#D9D9D9"/>
<circle cx="113.845" cy="62.6122" r="0.403229" fill="#D9D9D9"/>
<circle cx="83.5985" cy="65.6366" r="0.403229" fill="#D9D9D9"/>
<circle cx="86.6259" cy="65.6366" r="0.403229" fill="#D9D9D9"/>
<circle cx="89.6454" cy="65.6366" r="0.403229" fill="#D9D9D9"/>
<circle cx="92.6728" cy="65.6366" r="0.403229" fill="#D9D9D9"/>
<circle cx="95.7001" cy="65.6366" r="0.403229" fill="#D9D9D9"/>
<circle cx="98.7196" cy="65.6366" r="0.403229" fill="#D9D9D9"/>
<circle cx="101.743" cy="65.6366" r="0.403229" fill="#D9D9D9"/>
<circle cx="104.77" cy="65.6366" r="0.403229" fill="#D9D9D9"/>
<circle cx="107.79" cy="65.6366" r="0.403229" fill="#D9D9D9"/>
<circle cx="110.817" cy="65.6366" r="0.403229" fill="#D9D9D9"/>
<circle cx="113.845" cy="65.6366" r="0.403229" fill="#D9D9D9"/>
</g>
<path d="M113.882 53.0856L113.306 52.9018L113.304 52.9063L113.882 53.0856ZM110.442 59.4357L109.992 59.0324L109.989 59.0358L110.442 59.4357ZM92.8139 63.6361L92.6361 64.2143L92.6429 64.2163L92.8139 63.6361ZM88.1505 61.2548L87.7754 61.7294L87.784 61.7359L88.1505 61.2548ZM82.3295 51.5311L81.7414 51.6723L81.7417 51.6736L82.3295 51.5311ZM82.7264 26.2296L82.1502 26.0458L82.1492 26.0489L82.7264 26.2296ZM103.828 15.7121L103.648 16.2896L103.656 16.2923L103.828 15.7121ZM108.491 18.0934L108.12 18.5709L108.124 18.5745L108.491 18.0934ZM112.03 22.0954L111.512 22.4076L111.515 22.4128L112.03 22.0954ZM114.312 27.8171L113.724 27.9583L113.724 27.9596L114.312 27.8171ZM103.695 29.8016L103.096 29.8823L103.097 29.8935L103.695 29.8016ZM102.968 26.8911L102.404 27.1103L102.407 27.117L102.409 27.1237L102.968 26.8911ZM101.81 24.9728L101.363 25.3807L101.373 25.3904L101.81 24.9728ZM100.222 23.8814L99.9868 24.4384L99.9995 24.4438L100.012 24.4485L100.222 23.8814ZM95.9229 24.0798L96.2003 24.6173L96.2066 24.6139L95.9229 24.0798ZM93.0455 28.9747L92.4523 28.8561L92.4505 28.8657L93.0455 28.9747ZM92.9132 49.5136L92.3134 49.5928L92.3154 49.6056L92.9132 49.5136ZM93.6408 52.4572L93.0751 52.6712L93.0786 52.6806L93.0825 52.6898L93.6408 52.4572ZM94.8314 54.4085L94.3847 54.8165L94.3939 54.8262L94.8314 54.4085ZM96.419 55.4669L96.2089 56.0341L96.419 55.4669ZM100.686 55.2684L100.963 55.8059L100.686 55.2684ZM102.438 53.5486L101.925 53.2293L101.922 53.2332L102.438 53.5486ZM103.563 50.3404L102.969 50.2237L102.968 50.2314L103.563 50.3404ZM114.501 35.2588V44.0564H115.711V35.2588H114.501ZM114.501 44.0564C114.501 47.4728 114.098 50.4178 113.306 52.9018L114.458 53.2694C115.298 50.6379 115.711 47.5634 115.711 44.0564H114.501ZM113.304 52.9063C112.531 55.3967 111.423 57.4326 109.992 59.0324L110.893 59.8391C112.46 58.0874 113.645 55.8899 114.46 53.2648L113.304 52.9063ZM109.989 59.0358C108.573 60.6411 106.888 61.8309 104.927 62.6111L105.374 63.7351C107.514 62.8837 109.357 61.5819 110.896 59.8357L109.989 59.0358ZM104.927 62.6111C102.955 63.3954 100.772 63.792 98.3703 63.792V65.0017C100.907 65.0017 103.244 64.5824 105.374 63.7351L104.927 62.6111ZM98.3703 63.792C96.4377 63.792 94.6437 63.5451 92.985 63.056L92.6429 64.2163C94.4238 64.7414 96.3341 65.0017 98.3703 65.0017V63.792ZM92.9918 63.058C91.338 62.5492 89.8478 61.7876 88.5171 60.7737L87.784 61.7359C89.2315 62.8388 90.8502 63.6647 92.6361 64.2142L92.9918 63.058ZM88.5256 60.7803C87.2185 59.7473 86.0848 58.457 85.1265 56.9024L84.0967 57.5372C85.1229 59.2018 86.3485 60.6015 87.7755 61.7293L88.5256 60.7803ZM85.1265 56.9024C84.1732 55.356 83.4343 53.521 82.9173 51.3886L81.7417 51.6736C82.2831 53.907 83.0656 55.8644 84.0967 57.5372L85.1265 56.9024ZM82.9177 51.3899C82.4017 49.2402 82.1406 46.7973 82.1406 44.0564H80.9309C80.9309 46.8719 81.199 49.4121 81.7414 51.6723L82.9177 51.3899ZM82.1406 44.0564V35.2588H80.9309V44.0564H82.1406ZM82.1406 35.2588C82.1406 31.8183 82.5329 28.8725 83.3036 26.4103L82.1492 26.0489C81.3324 28.658 80.9309 31.7316 80.9309 35.2588H82.1406ZM83.3027 26.4134C84.0975 23.9214 85.2173 21.8839 86.6499 20.2827L85.7484 19.4761C84.1823 21.2265 82.987 23.4224 82.1502 26.0458L83.3027 26.4134ZM86.6499 20.2827C88.0881 18.6754 89.7857 17.4846 91.7477 16.7041L91.3005 15.5801C89.1612 16.4312 87.309 17.732 85.7484 19.4761L86.6499 20.2827ZM91.7477 16.7041C93.7191 15.9197 95.9022 15.5232 98.3042 15.5232V14.3135C95.7672 14.3135 93.4302 14.7328 91.3005 15.5801L91.7477 16.7041ZM98.3042 15.5232C100.235 15.5232 102.014 15.7805 103.648 16.2896L104.008 15.1347C102.245 14.5854 100.343 14.3135 98.3042 14.3135V15.5232ZM103.656 16.2923C105.305 16.7784 106.791 17.5378 108.12 18.5709L108.862 17.616C107.412 16.4882 105.79 15.6601 103.999 15.132L103.656 16.2923ZM108.124 18.5745C109.448 19.5833 110.578 20.8583 111.512 22.4076L112.548 21.7831C111.541 20.1132 110.312 18.7203 108.858 17.6123L108.124 18.5745ZM111.515 22.4128C112.468 23.9583 113.207 25.8036 113.724 27.9583L114.9 27.676C114.359 25.4208 113.576 23.4517 112.545 21.778L111.515 22.4128ZM113.724 27.9596C114.24 30.0864 114.501 32.5177 114.501 35.2588H115.711C115.711 32.4434 115.443 29.9136 114.9 27.6746L113.724 27.9596ZM104.565 45.4124V33.8366H103.355V45.4124H104.565ZM104.565 33.8366C104.565 32.2717 104.475 30.8947 104.293 29.7096L103.097 29.8935C103.268 31.0016 103.355 32.3145 103.355 33.8366H104.565ZM104.295 29.7209C104.136 28.5388 103.883 27.5143 103.526 26.6584L102.409 27.1237C102.714 27.8554 102.946 28.7712 103.096 29.8823L104.295 29.7209ZM103.531 26.6719C103.201 25.8235 102.778 25.1107 102.248 24.5552L101.373 25.3904C101.768 25.8051 102.116 26.3712 102.404 27.1103L103.531 26.6719ZM102.257 24.565C101.734 23.9926 101.126 23.5708 100.433 23.3142L100.012 24.4485C100.51 24.6329 100.96 24.9388 101.363 25.3806L102.257 24.565ZM100.458 23.3243C99.801 23.0463 99.08 22.9127 98.3042 22.9127V24.1224C98.9396 24.1224 99.4974 24.2313 99.9868 24.4384L100.458 23.3243ZM98.3042 22.9127C97.3338 22.9127 96.4409 23.1197 95.6391 23.5457L96.2066 24.6139C96.816 24.2902 97.5107 24.1224 98.3042 24.1224V22.9127ZM95.6455 23.5423C94.8448 23.9556 94.1846 24.6158 93.6539 25.4842L94.6861 26.115C95.1255 25.3959 95.634 24.9096 96.2003 24.6173L95.6455 23.5423ZM93.6539 25.4842C93.1191 26.3593 92.7252 27.4921 92.4524 28.8561L93.6386 29.0934C93.8949 27.8114 94.2506 26.8276 94.6861 26.115L93.6539 25.4842ZM92.4505 28.8657C92.1993 30.2362 92.0768 31.8958 92.0768 33.8366H93.2865C93.2865 31.9408 93.4066 30.3592 93.6404 29.0838L92.4505 28.8657ZM92.0768 33.8366V45.4124H93.2865V33.8366H92.0768ZM92.0768 45.4124C92.0768 46.9964 92.1548 48.391 92.3135 49.5928L93.5128 49.4344C93.3628 48.2989 93.2865 46.9595 93.2865 45.4124H92.0768ZM92.3154 49.6056C92.4962 50.7811 92.7475 51.8055 93.0751 52.6712L94.2065 52.2431C93.9167 51.4772 93.6829 50.5392 93.511 49.4216L92.3154 49.6056ZM93.0825 52.6898C93.4336 53.5324 93.8645 54.2466 94.3848 54.8164L95.2781 54.0007C94.8723 53.5562 94.5095 52.9695 94.1991 52.2245L93.0825 52.6898ZM94.3939 54.8262C94.9168 55.3739 95.5226 55.7799 96.2089 56.0341L96.6291 54.8997C96.1248 54.7129 95.6722 54.4133 95.269 53.9909L94.3939 54.8262ZM96.2089 56.0341C96.8786 56.2821 97.601 56.4025 98.3703 56.4025V55.1928C97.7285 55.1928 97.1501 55.0927 96.6291 54.8997L96.2089 56.0341ZM98.3703 56.4025C99.3153 56.4025 100.184 56.208 100.963 55.8059L100.408 54.731C99.82 55.0345 99.1453 55.1928 98.3703 55.1928V56.4025ZM100.963 55.8059C101.764 55.3927 102.424 54.7324 102.955 53.864L101.922 53.2332C101.483 53.9523 100.974 54.4387 100.408 54.731L100.963 55.8059ZM102.952 53.8679C103.512 52.9675 103.907 51.8194 104.158 50.4495L102.968 50.2314C102.734 51.5074 102.379 52.498 101.925 53.2293L102.952 53.8679ZM104.156 50.4572C104.431 49.0616 104.565 47.3772 104.565 45.4124H103.355C103.355 47.3283 103.224 48.9293 102.969 50.2237L104.156 50.4572Z" fill="#202124"/>
<mask id="mask4_623_14234" style="mask-type:alpha" maskUnits="userSpaceOnUse" x="121" y="15" width="35" height="51">
<path d="M155.563 36.2676V45.0652C155.563 48.5269 155.155 51.5366 154.339 54.0944C153.545 56.6521 152.399 58.7688 150.899 60.4445C149.422 62.1203 147.658 63.3661 145.608 64.1819C143.557 64.9977 141.297 65.4056 138.827 65.4056C136.843 65.4056 134.991 65.1521 133.271 64.6449C131.551 64.1157 129.997 63.322 128.608 62.2636C127.241 61.1832 126.061 59.8382 125.069 58.2286C124.076 56.619 123.316 54.7228 122.787 52.5399C122.257 50.335 121.993 47.8434 121.993 45.0652V36.2676C121.993 32.7838 122.39 29.7741 123.183 27.2384C123.999 24.6807 125.157 22.564 126.656 20.8882C128.156 19.2125 129.931 17.9667 131.981 17.1509C134.032 16.335 136.292 15.9271 138.761 15.9271C140.746 15.9271 142.587 16.1917 144.285 16.7209C146.004 17.228 147.559 18.0218 148.948 19.1022C150.337 20.1606 151.517 21.4946 152.487 23.1042C153.479 24.7138 154.24 26.621 154.769 28.8259C155.298 31.0088 155.563 33.4893 155.563 36.2676ZM144.417 46.4212V34.8454C144.417 33.3019 144.329 31.9569 144.152 30.8104C143.998 29.6638 143.755 28.6936 143.425 27.8999C143.116 27.1061 142.73 26.4667 142.267 25.9816C141.804 25.4745 141.275 25.1106 140.68 24.8901C140.106 24.6476 139.467 24.5263 138.761 24.5263C137.879 24.5263 137.085 24.7138 136.38 25.0886C135.696 25.4414 135.112 26.0147 134.627 26.8084C134.142 27.6022 133.767 28.6606 133.502 29.9835C133.26 31.3065 133.139 32.9271 133.139 34.8454V46.4212C133.139 47.9867 133.216 49.3538 133.37 50.5224C133.547 51.6689 133.789 52.6501 134.098 53.466C134.429 54.2597 134.825 54.9102 135.288 55.4173C135.752 55.9024 136.281 56.2552 136.876 56.4757C137.471 56.6962 138.122 56.8064 138.827 56.8064C139.687 56.8064 140.459 56.63 141.143 56.2772C141.826 55.9244 142.41 55.3512 142.895 54.5574C143.403 53.7416 143.777 52.6722 144.02 51.3492C144.285 50.0042 144.417 48.3616 144.417 46.4212Z" fill="white"/>
</mask>
<g mask="url(#mask4_623_14234)">
<rect x="94.7188" y="-2.20703" width="43.3471" height="43.3471" fill="#DB4437"/>
<rect x="94.7188" y="41.1387" width="43.3471" height="43.3471" fill="#0F9D56"/>
<rect x="138.07" y="-2.20703" width="43.3471" height="43.3471" fill="#F4B400"/>
<rect x="138.07" y="41.1387" width="43.3471" height="43.3471" fill="#4285F4"/>
<circle cx="122.938" cy="17.2489" r="0.403229" fill="#D9D9D9"/>
<circle cx="125.966" cy="17.2489" r="0.403229" fill="#D9D9D9"/>
<circle cx="128.985" cy="17.2489" r="0.403229" fill="#D9D9D9"/>
<circle cx="132.013" cy="17.2489" r="0.403229" fill="#D9D9D9"/>
<circle cx="135.036" cy="17.2489" r="0.403229" fill="#D9D9D9"/>
<circle cx="138.059" cy="17.2489" r="0.403229" fill="#D9D9D9"/>
<circle cx="141.083" cy="17.2489" r="0.403229" fill="#D9D9D9"/>
<circle cx="144.11" cy="17.2489" r="0.403229" fill="#D9D9D9"/>
<circle cx="147.13" cy="17.2489" r="0.403229" fill="#D9D9D9"/>
<circle cx="150.157" cy="17.2489" r="0.403229" fill="#D9D9D9"/>
<circle cx="153.184" cy="17.2489" r="0.403229" fill="#D9D9D9"/>
<circle cx="122.938" cy="20.2724" r="0.403229" fill="#D9D9D9"/>
<circle cx="125.966" cy="20.2724" r="0.403229" fill="#D9D9D9"/>
<circle cx="128.985" cy="20.2724" r="0.403229" fill="#D9D9D9"/>
<circle cx="132.013" cy="20.2724" r="0.403229" fill="#D9D9D9"/>
<circle cx="135.036" cy="20.2724" r="0.403229" fill="#D9D9D9"/>
<circle cx="138.059" cy="20.2724" r="0.403229" fill="#D9D9D9"/>
<circle cx="141.083" cy="20.2724" r="0.403229" fill="#D9D9D9"/>
<circle cx="144.11" cy="20.2724" r="0.403229" fill="#D9D9D9"/>
<circle cx="147.13" cy="20.2724" r="0.403229" fill="#D9D9D9"/>
<circle cx="150.157" cy="20.2724" r="0.403229" fill="#D9D9D9"/>
<circle cx="153.184" cy="20.2724" r="0.403229" fill="#D9D9D9"/>
<circle cx="122.938" cy="23.2968" r="0.403229" fill="#D9D9D9"/>
<circle cx="125.966" cy="23.2968" r="0.403229" fill="#D9D9D9"/>
<circle cx="128.985" cy="23.2968" r="0.403229" fill="#D9D9D9"/>
<circle cx="132.013" cy="23.2968" r="0.403229" fill="#D9D9D9"/>
<circle cx="135.036" cy="23.2968" r="0.403229" fill="#D9D9D9"/>
<circle cx="138.059" cy="23.2968" r="0.403229" fill="#D9D9D9"/>
<circle cx="141.083" cy="23.2968" r="0.403229" fill="#D9D9D9"/>
<circle cx="144.11" cy="23.2968" r="0.403229" fill="#D9D9D9"/>
<circle cx="147.13" cy="23.2968" r="0.403229" fill="#D9D9D9"/>
<circle cx="150.157" cy="23.2968" r="0.403229" fill="#D9D9D9"/>
<circle cx="153.184" cy="23.2968" r="0.403229" fill="#D9D9D9"/>
<circle cx="122.938" cy="26.3212" r="0.403229" fill="#D9D9D9"/>
<circle cx="125.966" cy="26.3212" r="0.403229" fill="#D9D9D9"/>
<circle cx="128.985" cy="26.3212" r="0.403229" fill="#D9D9D9"/>
<circle cx="132.013" cy="26.3212" r="0.403229" fill="#D9D9D9"/>
<circle cx="135.036" cy="26.3212" r="0.403229" fill="#D9D9D9"/>
<circle cx="138.059" cy="26.3212" r="0.403229" fill="#D9D9D9"/>
<circle cx="141.083" cy="26.3212" r="0.403229" fill="#D9D9D9"/>
<circle cx="144.11" cy="26.3212" r="0.403229" fill="#D9D9D9"/>
<circle cx="147.13" cy="26.3212" r="0.403229" fill="#D9D9D9"/>
<circle cx="150.157" cy="26.3212" r="0.403229" fill="#D9D9D9"/>
<circle cx="153.184" cy="26.3212" r="0.403229" fill="#D9D9D9"/>
<circle cx="122.938" cy="29.3476" r="0.403229" fill="#D9D9D9"/>
<circle cx="125.966" cy="29.3476" r="0.403229" fill="#D9D9D9"/>
<circle cx="128.985" cy="29.3476" r="0.403229" fill="#D9D9D9"/>
<circle cx="132.013" cy="29.3476" r="0.403229" fill="#D9D9D9"/>
<circle cx="135.036" cy="29.3476" r="0.403229" fill="#D9D9D9"/>
<circle cx="138.059" cy="29.3476" r="0.403229" fill="#D9D9D9"/>
<circle cx="141.083" cy="29.3476" r="0.403229" fill="#D9D9D9"/>
<circle cx="144.11" cy="29.3476" r="0.403229" fill="#D9D9D9"/>
<circle cx="147.13" cy="29.3476" r="0.403229" fill="#D9D9D9"/>
<circle cx="150.157" cy="29.3476" r="0.403229" fill="#D9D9D9"/>
<circle cx="153.184" cy="29.3476" r="0.403229" fill="#D9D9D9"/>
<circle cx="122.938" cy="32.37" r="0.403229" fill="#D9D9D9"/>
<circle cx="125.966" cy="32.37" r="0.403229" fill="#D9D9D9"/>
<circle cx="128.985" cy="32.37" r="0.403229" fill="#D9D9D9"/>
<circle cx="132.013" cy="32.37" r="0.403229" fill="#D9D9D9"/>
<circle cx="135.036" cy="32.37" r="0.403229" fill="#D9D9D9"/>
<circle cx="138.059" cy="32.37" r="0.403229" fill="#D9D9D9"/>
<circle cx="141.083" cy="32.37" r="0.403229" fill="#D9D9D9"/>
<circle cx="144.11" cy="32.37" r="0.403229" fill="#D9D9D9"/>
<circle cx="147.13" cy="32.37" r="0.403229" fill="#D9D9D9"/>
<circle cx="150.157" cy="32.37" r="0.403229" fill="#D9D9D9"/>
<circle cx="153.184" cy="32.37" r="0.403229" fill="#D9D9D9"/>
<circle cx="122.938" cy="35.3935" r="0.403229" fill="#D9D9D9"/>
<circle cx="125.966" cy="35.3935" r="0.403229" fill="#D9D9D9"/>
<circle cx="128.985" cy="35.3935" r="0.403229" fill="#D9D9D9"/>
<circle cx="132.013" cy="35.3935" r="0.403229" fill="#D9D9D9"/>
<circle cx="135.036" cy="35.3935" r="0.403229" fill="#D9D9D9"/>
<circle cx="138.059" cy="35.3935" r="0.403229" fill="#D9D9D9"/>
<circle cx="141.083" cy="35.3935" r="0.403229" fill="#D9D9D9"/>
<circle cx="144.11" cy="35.3935" r="0.403229" fill="#D9D9D9"/>
<circle cx="147.13" cy="35.3935" r="0.403229" fill="#D9D9D9"/>
<circle cx="150.157" cy="35.3935" r="0.403229" fill="#D9D9D9"/>
<circle cx="153.184" cy="35.3935" r="0.403229" fill="#D9D9D9"/>
<circle cx="122.938" cy="38.4179" r="0.403229" fill="#D9D9D9"/>
<circle cx="125.966" cy="38.4179" r="0.403229" fill="#D9D9D9"/>
<circle cx="128.985" cy="38.4179" r="0.403229" fill="#D9D9D9"/>
<circle cx="132.013" cy="38.4179" r="0.403229" fill="#D9D9D9"/>
<circle cx="135.036" cy="38.4179" r="0.403229" fill="#D9D9D9"/>
<circle cx="138.059" cy="38.4179" r="0.403229" fill="#D9D9D9"/>
<circle cx="141.083" cy="38.4179" r="0.403229" fill="#D9D9D9"/>
<circle cx="144.11" cy="38.4179" r="0.403229" fill="#D9D9D9"/>
<circle cx="147.13" cy="38.4179" r="0.403229" fill="#D9D9D9"/>
<circle cx="150.157" cy="38.4179" r="0.403229" fill="#D9D9D9"/>
<circle cx="153.184" cy="38.4179" r="0.403229" fill="#D9D9D9"/>
<circle cx="122.938" cy="41.4423" r="0.403229" fill="#D9D9D9"/>
<circle cx="125.966" cy="41.4423" r="0.403229" fill="#D9D9D9"/>
<circle cx="128.985" cy="41.4423" r="0.403229" fill="#D9D9D9"/>
<circle cx="132.013" cy="41.4423" r="0.403229" fill="#D9D9D9"/>
<circle cx="135.036" cy="41.4423" r="0.403229" fill="#D9D9D9"/>
<circle cx="138.059" cy="41.4423" r="0.403229" fill="#D9D9D9"/>
<circle cx="141.083" cy="41.4423" r="0.403229" fill="#D9D9D9"/>
<circle cx="144.11" cy="41.4423" r="0.403229" fill="#D9D9D9"/>
<circle cx="147.13" cy="41.4423" r="0.403229" fill="#D9D9D9"/>
<circle cx="150.157" cy="41.4423" r="0.403229" fill="#D9D9D9"/>
<circle cx="153.184" cy="41.4423" r="0.403229" fill="#D9D9D9"/>
<circle cx="122.938" cy="44.4657" r="0.403229" fill="#D9D9D9"/>
<circle cx="125.966" cy="44.4657" r="0.403229" fill="#D9D9D9"/>
<circle cx="128.985" cy="44.4657" r="0.403229" fill="#D9D9D9"/>
<circle cx="132.013" cy="44.4657" r="0.403229" fill="#D9D9D9"/>
<circle cx="135.036" cy="44.4657" r="0.403229" fill="#D9D9D9"/>
<circle cx="138.059" cy="44.4657" r="0.403229" fill="#D9D9D9"/>
<circle cx="141.083" cy="44.4657" r="0.403229" fill="#D9D9D9"/>
<circle cx="144.11" cy="44.4657" r="0.403229" fill="#D9D9D9"/>
<circle cx="147.13" cy="44.4657" r="0.403229" fill="#D9D9D9"/>
<circle cx="150.157" cy="44.4657" r="0.403229" fill="#D9D9D9"/>
<circle cx="153.184" cy="44.4657" r="0.403229" fill="#D9D9D9"/>
<circle cx="122.938" cy="47.4921" r="0.403229" fill="#D9D9D9"/>
<circle cx="125.966" cy="47.4921" r="0.403229" fill="#D9D9D9"/>
<circle cx="128.985" cy="47.4921" r="0.403229" fill="#D9D9D9"/>
<circle cx="132.013" cy="47.4921" r="0.403229" fill="#D9D9D9"/>
<circle cx="135.036" cy="47.4921" r="0.403229" fill="#D9D9D9"/>
<circle cx="138.059" cy="47.4921" r="0.403229" fill="#D9D9D9"/>
<circle cx="141.083" cy="47.4921" r="0.403229" fill="#D9D9D9"/>
<circle cx="144.11" cy="47.4921" r="0.403229" fill="#D9D9D9"/>
<circle cx="147.13" cy="47.4921" r="0.403229" fill="#D9D9D9"/>
<circle cx="150.157" cy="47.4921" r="0.403229" fill="#D9D9D9"/>
<circle cx="153.184" cy="47.4921" r="0.403229" fill="#D9D9D9"/>
<circle cx="122.938" cy="50.5136" r="0.403229" fill="#D9D9D9"/>
<circle cx="125.966" cy="50.5136" r="0.403229" fill="#D9D9D9"/>
<circle cx="128.985" cy="50.5136" r="0.403229" fill="#D9D9D9"/>
<circle cx="132.013" cy="50.5136" r="0.403229" fill="#D9D9D9"/>
<circle cx="135.036" cy="50.5136" r="0.403229" fill="#D9D9D9"/>
<circle cx="138.059" cy="50.5136" r="0.403229" fill="#D9D9D9"/>
<circle cx="141.083" cy="50.5136" r="0.403229" fill="#D9D9D9"/>
<circle cx="144.11" cy="50.5136" r="0.403229" fill="#D9D9D9"/>
<circle cx="147.13" cy="50.5136" r="0.403229" fill="#D9D9D9"/>
<circle cx="150.157" cy="50.5136" r="0.403229" fill="#D9D9D9"/>
<circle cx="153.184" cy="50.5136" r="0.403229" fill="#D9D9D9"/>
<circle cx="122.938" cy="53.5399" r="0.403229" fill="#D9D9D9"/>
<circle cx="125.966" cy="53.5399" r="0.403229" fill="#D9D9D9"/>
<circle cx="128.985" cy="53.5399" r="0.403229" fill="#D9D9D9"/>
<circle cx="132.013" cy="53.5399" r="0.403229" fill="#D9D9D9"/>
<circle cx="135.036" cy="53.5399" r="0.403229" fill="#D9D9D9"/>
<circle cx="138.059" cy="53.5399" r="0.403229" fill="#D9D9D9"/>
<circle cx="141.083" cy="53.5399" r="0.403229" fill="#D9D9D9"/>
<circle cx="144.11" cy="53.5399" r="0.403229" fill="#D9D9D9"/>
<circle cx="147.13" cy="53.5399" r="0.403229" fill="#D9D9D9"/>
<circle cx="150.157" cy="53.5399" r="0.403229" fill="#D9D9D9"/>
<circle cx="153.184" cy="53.5399" r="0.403229" fill="#D9D9D9"/>
<circle cx="122.938" cy="56.5644" r="0.403229" fill="#D9D9D9"/>
<circle cx="125.966" cy="56.5644" r="0.403229" fill="#D9D9D9"/>
<circle cx="128.985" cy="56.5644" r="0.403229" fill="#D9D9D9"/>
<circle cx="132.013" cy="56.5644" r="0.403229" fill="#D9D9D9"/>
<circle cx="135.036" cy="56.5644" r="0.403229" fill="#D9D9D9"/>
<circle cx="138.059" cy="56.5644" r="0.403229" fill="#D9D9D9"/>
<circle cx="141.083" cy="56.5644" r="0.403229" fill="#D9D9D9"/>
<circle cx="144.11" cy="56.5644" r="0.403229" fill="#D9D9D9"/>
<circle cx="147.13" cy="56.5644" r="0.403229" fill="#D9D9D9"/>
<circle cx="150.157" cy="56.5644" r="0.403229" fill="#D9D9D9"/>
<circle cx="153.184" cy="56.5644" r="0.403229" fill="#D9D9D9"/>
<circle cx="122.938" cy="59.5888" r="0.403229" fill="#D9D9D9"/>
<circle cx="125.966" cy="59.5888" r="0.403229" fill="#D9D9D9"/>
<circle cx="128.985" cy="59.5888" r="0.403229" fill="#D9D9D9"/>
<circle cx="132.013" cy="59.5888" r="0.403229" fill="#D9D9D9"/>
<circle cx="135.036" cy="59.5888" r="0.403229" fill="#D9D9D9"/>
<circle cx="138.059" cy="59.5888" r="0.403229" fill="#D9D9D9"/>
<circle cx="141.083" cy="59.5888" r="0.403229" fill="#D9D9D9"/>
<circle cx="144.11" cy="59.5888" r="0.403229" fill="#D9D9D9"/>
<circle cx="147.13" cy="59.5888" r="0.403229" fill="#D9D9D9"/>
<circle cx="150.157" cy="59.5888" r="0.403229" fill="#D9D9D9"/>
<circle cx="153.184" cy="59.5888" r="0.403229" fill="#D9D9D9"/>
<circle cx="122.938" cy="62.6122" r="0.403229" fill="#D9D9D9"/>
<circle cx="125.966" cy="62.6122" r="0.403229" fill="#D9D9D9"/>
<circle cx="128.985" cy="62.6122" r="0.403229" fill="#D9D9D9"/>
<circle cx="132.013" cy="62.6122" r="0.403229" fill="#D9D9D9"/>
<circle cx="135.036" cy="62.6122" r="0.403229" fill="#D9D9D9"/>
<circle cx="138.059" cy="62.6122" r="0.403229" fill="#D9D9D9"/>
<circle cx="141.083" cy="62.6122" r="0.403229" fill="#D9D9D9"/>
<circle cx="144.11" cy="62.6122" r="0.403229" fill="#D9D9D9"/>
<circle cx="147.13" cy="62.6122" r="0.403229" fill="#D9D9D9"/>
<circle cx="150.157" cy="62.6122" r="0.403229" fill="#D9D9D9"/>
<circle cx="153.184" cy="62.6122" r="0.403229" fill="#D9D9D9"/>
<circle cx="122.938" cy="65.6366" r="0.403229" fill="#D9D9D9"/>
<circle cx="125.966" cy="65.6366" r="0.403229" fill="#D9D9D9"/>
<circle cx="128.985" cy="65.6366" r="0.403229" fill="#D9D9D9"/>
<circle cx="132.013" cy="65.6366" r="0.403229" fill="#D9D9D9"/>
<circle cx="135.036" cy="65.6366" r="0.403229" fill="#D9D9D9"/>
<circle cx="138.059" cy="65.6366" r="0.403229" fill="#D9D9D9"/>
<circle cx="141.083" cy="65.6366" r="0.403229" fill="#D9D9D9"/>
<circle cx="144.11" cy="65.6366" r="0.403229" fill="#D9D9D9"/>
<circle cx="147.13" cy="65.6366" r="0.403229" fill="#D9D9D9"/>
<circle cx="150.157" cy="65.6366" r="0.403229" fill="#D9D9D9"/>
<circle cx="153.184" cy="65.6366" r="0.403229" fill="#D9D9D9"/>
</g>
<path d="M153.23 53.0856L152.653 52.9018L152.652 52.9063L153.23 53.0856ZM149.79 59.4357L149.339 59.0324L149.336 59.0358L149.79 59.4357ZM132.162 63.6361L131.984 64.2143L131.991 64.2163L132.162 63.6361ZM127.498 61.2548L127.123 61.7294L127.132 61.7359L127.498 61.2548ZM121.677 51.5311L121.089 51.6723L121.089 51.6736L121.677 51.5311ZM122.074 26.2296L121.498 26.0458L121.497 26.0489L122.074 26.2296ZM143.175 15.7121L142.995 16.2896L143.004 16.2923L143.175 15.7121ZM147.839 18.0934L147.467 18.5709L147.472 18.5745L147.839 18.0934ZM151.378 22.0954L150.859 22.4076L150.863 22.4128L151.378 22.0954ZM153.66 27.8171L153.071 27.9583L153.072 27.9596L153.66 27.8171ZM143.043 29.8016L142.443 29.8823L142.445 29.8935L143.043 29.8016ZM142.315 26.8911L141.752 27.1103L141.754 27.117L141.757 27.1237L142.315 26.8911ZM141.158 24.9728L140.711 25.3807L140.72 25.3904L141.158 24.9728ZM139.57 23.8814L139.334 24.4384L139.347 24.4438L139.36 24.4485L139.57 23.8814ZM135.271 24.0798L135.548 24.6173L135.554 24.6139L135.271 24.0798ZM132.393 28.9747L131.8 28.8561L131.798 28.8657L132.393 28.9747ZM132.261 49.5136L131.661 49.5928L131.663 49.6056L132.261 49.5136ZM132.988 52.4572L132.423 52.6712L132.426 52.6806L132.43 52.6898L132.988 52.4572ZM134.179 54.4085L133.732 54.8165L133.742 54.8262L134.179 54.4085ZM135.767 55.4669L135.557 56.0341L135.767 55.4669ZM140.033 55.2684L140.311 55.8059L140.033 55.2684ZM141.786 53.5486L141.272 53.2293L141.27 53.2332L141.786 53.5486ZM142.911 50.3404L142.317 50.2237L142.316 50.2314L142.911 50.3404ZM153.849 35.2588V44.0564H155.058V35.2588H153.849ZM153.849 44.0564C153.849 47.4728 153.446 50.4178 152.653 52.9018L153.806 53.2694C154.645 50.6379 155.058 47.5634 155.058 44.0564H153.849ZM152.652 52.9063C151.879 55.3967 150.771 57.4326 149.339 59.0324L150.241 59.8391C151.808 58.0874 152.993 55.8899 153.807 53.2648L152.652 52.9063ZM149.336 59.0358C147.921 60.6411 146.236 61.8309 144.275 62.6111L144.722 63.7351C146.862 62.8837 148.704 61.5819 150.244 59.8357L149.336 59.0358ZM144.275 62.6111C142.303 63.3954 140.12 63.792 137.718 63.792V65.0017C140.255 65.0017 142.592 64.5824 144.722 63.7351L144.275 62.6111ZM137.718 63.792C135.785 63.792 133.991 63.5451 132.333 63.056L131.991 64.2163C133.771 64.7414 135.682 65.0017 137.718 65.0017V63.792ZM132.339 63.058C130.686 62.5492 129.195 61.7876 127.865 60.7737L127.132 61.7359C128.579 62.8388 130.198 63.6647 131.984 64.2142L132.339 63.058ZM127.873 60.7803C126.566 59.7473 125.432 58.457 124.474 56.9024L123.444 57.5372C124.471 59.2018 125.696 60.6015 127.123 61.7293L127.873 60.7803ZM124.474 56.9024C123.521 55.356 122.782 53.521 122.265 51.3886L121.089 51.6736C121.631 53.907 122.413 55.8644 123.444 57.5372L124.474 56.9024ZM122.265 51.3899C121.749 49.2402 121.488 46.7973 121.488 44.0564H120.279C120.279 46.8719 120.547 49.4121 121.089 51.6723L122.265 51.3899ZM121.488 44.0564V35.2588H120.279V44.0564H121.488ZM121.488 35.2588C121.488 31.8183 121.881 28.8725 122.651 26.4103L121.497 26.0489C120.68 28.658 120.279 31.7316 120.279 35.2588H121.488ZM122.65 26.4134C123.445 23.9214 124.565 21.8839 125.998 20.2827L125.096 19.4761C123.53 21.2265 122.335 23.4224 121.498 26.0458L122.65 26.4134ZM125.998 20.2827C127.436 18.6754 129.133 17.4846 131.095 16.7041L130.648 15.5801C128.509 16.4312 126.657 17.732 125.096 19.4761L125.998 20.2827ZM131.095 16.7041C133.067 15.9197 135.25 15.5232 137.652 15.5232V14.3135C135.115 14.3135 132.778 14.7328 130.648 15.5801L131.095 16.7041ZM137.652 15.5232C139.582 15.5232 141.362 15.7805 142.995 16.2896L143.355 15.1347C141.593 14.5854 139.69 14.3135 137.652 14.3135V15.5232ZM143.004 16.2923C144.653 16.7784 146.139 17.5378 147.467 18.5709L148.21 17.616C146.76 16.4882 145.137 15.6601 143.346 15.132L143.004 16.2923ZM147.472 18.5745C148.796 19.5833 149.926 20.8583 150.859 22.4076L151.896 21.7831C150.889 20.1132 149.659 18.7203 148.205 17.6123L147.472 18.5745ZM150.863 22.4128C151.815 23.9583 152.554 25.8036 153.071 27.9583L154.248 27.676C153.707 25.4208 152.924 23.4517 151.892 21.778L150.863 22.4128ZM153.072 27.9596C153.587 30.0864 153.849 32.5177 153.849 35.2588H155.058C155.058 32.4434 154.79 29.9136 154.247 27.6746L153.072 27.9596ZM143.912 45.4124V33.8366H142.703V45.4124H143.912ZM143.912 33.8366C143.912 32.2717 143.823 30.8947 143.641 29.7096L142.445 29.8935C142.616 31.0016 142.703 32.3145 142.703 33.8366H143.912ZM143.642 29.7209C143.483 28.5388 143.23 27.5143 142.874 26.6584L141.757 27.1237C142.062 27.8554 142.294 28.7712 142.443 29.8823L143.642 29.7209ZM142.879 26.6719C142.549 25.8235 142.125 25.1107 141.595 24.5552L140.72 25.3904C141.116 25.8051 141.464 26.3712 141.752 27.1103L142.879 26.6719ZM141.604 24.565C141.082 23.9926 140.473 23.5708 139.78 23.3142L139.36 24.4485C139.858 24.6329 140.308 24.9388 140.711 25.3806L141.604 24.565ZM139.806 23.3243C139.149 23.0463 138.428 22.9127 137.652 22.9127V24.1224C138.287 24.1224 138.845 24.2313 139.334 24.4384L139.806 23.3243ZM137.652 22.9127C136.681 22.9127 135.789 23.1197 134.987 23.5457L135.554 24.6139C136.164 24.2902 136.858 24.1224 137.652 24.1224V22.9127ZM134.993 23.5423C134.192 23.9556 133.532 24.6158 133.002 25.4842L134.034 26.115C134.473 25.3959 134.982 24.9096 135.548 24.6173L134.993 23.5423ZM133.002 25.4842C132.467 26.3593 132.073 27.4921 131.8 28.8561L132.986 29.0934C133.243 27.8114 133.598 26.8276 134.034 26.115L133.002 25.4842ZM131.798 28.8657C131.547 30.2362 131.424 31.8958 131.424 33.8366H132.634C132.634 31.9408 132.754 30.3592 132.988 29.0838L131.798 28.8657ZM131.424 33.8366V45.4124H132.634V33.8366H131.424ZM131.424 45.4124C131.424 46.9964 131.502 48.391 131.661 49.5928L132.86 49.4344C132.71 48.2989 132.634 46.9595 132.634 45.4124H131.424ZM131.663 49.6056C131.844 50.7811 132.095 51.8055 132.423 52.6712L133.554 52.2431C133.264 51.4772 133.031 50.5392 132.859 49.4216L131.663 49.6056ZM132.43 52.6898C132.781 53.5324 133.212 54.2466 133.732 54.8164L134.626 54.0007C134.22 53.5562 133.857 52.9695 133.547 52.2245L132.43 52.6898ZM133.742 54.8262C134.264 55.3739 134.87 55.7799 135.557 56.0341L135.977 54.8997C135.472 54.7129 135.02 54.4133 134.617 53.9909L133.742 54.8262ZM135.557 56.0341C136.226 56.2821 136.949 56.4025 137.718 56.4025V55.1928C137.076 55.1928 136.498 55.0927 135.977 54.8997L135.557 56.0341ZM137.718 56.4025C138.663 56.4025 139.532 56.208 140.311 55.8059L139.756 54.731C139.168 55.0345 138.493 55.1928 137.718 55.1928V56.4025ZM140.311 55.8059C141.111 55.3927 141.771 54.7324 142.302 53.864L141.27 53.2332C140.831 53.9523 140.322 54.4387 139.756 54.731L140.311 55.8059ZM142.3 53.8679C142.859 52.9675 143.254 51.8194 143.506 50.4495L142.316 50.2314C142.082 51.5074 141.727 52.498 141.272 53.2293L142.3 53.8679ZM143.504 50.4572C143.779 49.0616 143.912 47.3772 143.912 45.4124H142.703C142.703 47.3283 142.572 48.9293 142.317 50.2237L143.504 50.4572Z" fill="#202124"/>
</svg>
