<svg width="36" height="36" viewBox="0 0 36 36" fill="none" xmlns="http://www.w3.org/2000/svg">
<path d="M8.828 31.2812C13.2203 31.2812 16.781 25.3351 16.781 18.0002C16.781 10.6653 13.2203 4.71924 8.828 4.71924C4.43568 4.71924 0.875 10.6653 0.875 18.0002C0.875 25.3351 4.43568 31.2812 8.828 31.2812Z" fill="#F5F8FA"/>
<path d="M8.828 32.0312C3.948 32.0312 0.125 25.8682 0.125 18.0002C0.125 10.1322 3.948 3.96924 8.828 3.96924C13.708 3.96924 17.531 10.1322 17.531 18.0002C17.531 25.8682 13.708 32.0312 8.828 32.0312ZM8.828 5.46924C4.856 5.46924 1.625 11.0902 1.625 18.0002C1.625 24.9102 4.856 30.5312 8.828 30.5312C12.8 30.5312 16.031 24.9102 16.031 18.0002C16.031 11.0902 12.8 5.46924 8.828 5.46924Z" fill="#E1E8ED"/>
<path d="M6.59281 22.96C9.33214 22.96 11.5528 20.7394 11.5528 18C11.5528 15.2607 9.33214 13.04 6.59281 13.04C3.85348 13.04 1.63281 15.2607 1.63281 18C1.63281 20.7394 3.85348 22.96 6.59281 22.96Z" fill="#8899A6"/>
<path d="M6.59234 21.5651C8.56124 21.5651 10.1573 19.969 10.1573 18.0001C10.1573 16.0312 8.56124 14.4351 6.59234 14.4351C4.62345 14.4351 3.02734 16.0312 3.02734 18.0001C3.02734 19.969 4.62345 21.5651 6.59234 21.5651Z" fill="#292F33"/>
<path d="M7.91037 16.8691C8.69793 16.8691 9.33637 16.2306 9.33637 15.4431C9.33637 14.6555 8.69793 14.0171 7.91037 14.0171C7.12282 14.0171 6.48438 14.6555 6.48438 15.4431C6.48438 16.2306 7.12282 16.8691 7.91037 16.8691Z" fill="#F5F8FA"/>
<path d="M27.2342 31.2812C31.6266 31.2812 35.1873 25.3351 35.1873 18.0002C35.1873 10.6653 31.6266 4.71924 27.2342 4.71924C22.8419 4.71924 19.2812 10.6653 19.2812 18.0002C19.2812 25.3351 22.8419 31.2812 27.2342 31.2812Z" fill="#F5F8FA"/>
<path d="M27.2342 32.0312C22.3542 32.0312 18.5312 25.8682 18.5312 18.0002C18.5312 10.1322 22.3542 3.96924 27.2342 3.96924C32.1142 3.96924 35.9382 10.1322 35.9382 18.0002C35.9382 25.8682 32.1142 32.0312 27.2342 32.0312ZM27.2342 5.46924C23.2622 5.46924 20.0312 11.0912 20.0312 18.0002C20.0312 24.9102 23.2622 30.5312 27.2342 30.5312C31.2062 30.5312 34.4382 24.9102 34.4382 18.0002C34.4382 11.0902 31.2062 5.46924 27.2342 5.46924Z" fill="#E1E8ED"/>
<path d="M24.9991 22.96C27.7384 22.96 29.9591 20.7394 29.9591 18C29.9591 15.2607 27.7384 13.04 24.9991 13.04C22.2597 13.04 20.0391 15.2607 20.0391 18C20.0391 20.7394 22.2597 22.96 24.9991 22.96Z" fill="#8899A6"/>
<path d="M24.9986 21.5651C26.9675 21.5651 28.5636 19.969 28.5636 18.0001C28.5636 16.0312 26.9675 14.4351 24.9986 14.4351C23.0297 14.4351 21.4336 16.0312 21.4336 18.0001C21.4336 19.969 23.0297 21.5651 24.9986 21.5651Z" fill="#292F33"/>
<path d="M26.3166 16.8691C27.1042 16.8691 27.7426 16.2306 27.7426 15.4431C27.7426 14.6555 27.1042 14.0171 26.3166 14.0171C25.5291 14.0171 24.8906 14.6555 24.8906 15.4431C24.8906 16.2306 25.5291 16.8691 26.3166 16.8691Z" fill="#F5F8FA"/>
</svg>
