<svg width="32" height="33" viewBox="0 0 32 33" fill="none" xmlns="http://www.w3.org/2000/svg">
<g clip-path="url(#clip0_624_3069)">
<path d="M16 0.967773C7.16356 0.967773 0 8.13133 0 16.9678C0 25.8042 7.16356 32.9678 16 32.9678C24.8364 32.9678 32 25.8042 32 16.9678C32 8.13133 24.8364 0.967773 16 0.967773ZM1.82222 17.8567H5.36267C5.44444 20.0842 5.82667 22.1864 6.45511 24.0789H3.696C2.62311 22.2273 1.96267 20.1153 1.82222 17.8567ZM16.8889 8.07888V2.81755C19.3307 3.20511 21.4773 5.17755 22.9324 8.07888H16.8889ZM23.6898 9.85666C24.36 11.7082 24.7733 13.8211 24.8604 16.0789H16.8889V9.85666H23.6898ZM15.1111 2.81755V8.07888H9.06756C10.5218 5.17755 12.6693 3.20511 15.1111 2.81755ZM15.1111 9.85666V16.0789H7.13956C7.22667 13.8211 7.64 11.7082 8.31022 9.85666H15.1111ZM5.36356 16.0789H1.82222C1.96267 13.8211 2.62311 11.7082 3.69511 9.85666H6.45422C5.82756 11.7491 5.44533 13.8522 5.36356 16.0789ZM7.13956 17.8567H15.1111V24.0789H8.31022C7.64 22.2273 7.22667 20.1153 7.13956 17.8567ZM15.1111 25.8567V31.118C12.6693 30.7295 10.5218 28.758 9.06756 25.8567H15.1111ZM16.8889 31.118V25.8567H22.9333C21.4782 28.758 19.3307 30.7295 16.8889 31.118ZM16.8889 24.0789V17.8567H24.8613C24.7733 20.1153 24.3609 22.2273 23.6907 24.0789H16.8889ZM26.6373 17.8567H30.1769C30.0373 20.1153 29.3769 22.2273 28.304 24.0789H25.5449C26.1724 22.1864 26.5547 20.0842 26.6373 17.8567ZM26.6373 16.0789C26.5547 13.8522 26.1724 11.7491 25.5449 9.85666H28.304C29.3769 11.7082 30.0373 13.8211 30.1769 16.0789H26.6373ZM27.0924 8.07888H24.8676C24.2302 6.65311 23.44 5.39888 22.5396 4.34644C24.3076 5.26377 25.8569 6.53844 27.0924 8.07888ZM9.46044 4.34644C8.55911 5.39888 7.76889 6.65311 7.13156 8.07888H4.90756C6.14311 6.53844 7.69244 5.26466 9.46044 4.34644ZM4.90756 25.8567H7.13244C7.76889 27.2824 8.55911 28.5367 9.46044 29.5882C7.69244 28.6709 6.14311 27.3971 4.90756 25.8567ZM22.5396 29.5882C23.4409 28.5358 24.2302 27.2824 24.8676 25.8567H27.0924C25.8569 27.3971 24.3076 28.6709 22.5396 29.5882Z" fill="#3B88C3"/>
</g>
<defs>
<clipPath id="clip0_624_3069">
<rect width="32" height="32" fill="white" transform="translate(0 0.967773)"/>
</clipPath>
</defs>
</svg>
