<svg width="32" height="33" viewBox="0 0 32 33" fill="none" xmlns="http://www.w3.org/2000/svg">
<g clip-path="url(#clip0_624_3065)">
<path d="M30.4434 6.58911L28.0061 9.02733C28.0061 9.02733 26.3803 9.83977 24.7554 8.214C23.1297 6.58911 23.9421 4.96333 23.9421 4.96333L26.3803 2.52511C27.1937 1.71266 26.2168 0.967773 25.4834 0.967773C21.8826 0.967773 18.9643 3.886 18.9643 7.486C18.9643 7.99177 19.0283 8.48244 19.1368 8.95533L13.6266 14.4656L18.5021 19.3411L24.0123 13.8318C24.4861 13.9402 24.9759 14.0042 25.4826 14.0042C29.0826 14.0042 32.0008 11.086 32.0008 7.486C32.0017 6.74822 31.2559 5.77666 30.4434 6.58911ZM13.5306 14.6247L2.69589 25.4584C1.367 26.7882 1.367 28.9438 2.69589 30.2736C4.02655 31.6024 6.18122 31.6024 7.511 30.2736L18.3439 19.4398L13.5306 14.6247ZM5.12433 29.2682C4.39633 29.2682 3.807 28.678 3.807 27.9509C3.807 27.2238 4.39722 26.6327 5.12433 26.6327C5.85233 26.6327 6.44166 27.2229 6.44166 27.9509C6.44166 28.678 5.85233 29.2682 5.12433 29.2682Z" fill="#8899A6"/>
<path d="M27.4043 30.5491C28.4408 31.5855 30.0905 31.6344 31.0674 30.6566C32.0452 29.6788 31.9963 28.0299 30.9599 26.9935L10.2799 6.3135C9.24253 5.27617 7.59453 5.22817 6.61676 6.20594C5.63898 7.18372 5.68787 8.83261 6.72431 9.86906L27.4043 30.5491Z" fill="#F4900C"/>
<path d="M19.0617 1.76165C19.0617 1.76165 13.7284 -0.905016 9.28395 3.53943L3.06173 9.76165C3.06173 9.76165 2.17284 8.87276 1.28395 9.76165L0.395062 10.6505C0.395062 10.6505 -0.493827 11.5394 0.395062 12.4283L3.95062 15.9839C3.95062 15.9839 4.83951 16.8728 5.72839 15.9839L6.61728 15.095C6.61728 15.095 7.50617 14.2061 6.61728 13.3172L6.54795 13.2479C7.2324 12.5874 8.25728 11.9145 9.28395 12.4283L12.8395 8.87276C12.8395 8.87276 11.9506 6.20609 13.7284 4.42832C15.5062 2.65054 16.3951 2.65054 18.1728 2.65054C19.9506 2.65054 19.0617 1.76165 19.0617 1.76165Z" fill="#66757F"/>
</g>
<defs>
<clipPath id="clip0_624_3065">
<rect width="32" height="32" fill="white" transform="translate(0 0.967773)"/>
</clipPath>
</defs>
</svg>
